  0
SECTION
  2
HEADER
  9
$ACADVER
  1
AC1009
  9
$DWGCODEPAGE
  3
ansi_1252
  9
$INSBASE
 10
0.0
 20
0.0
 30
0.0
  9
$EXTMIN
 10
-11.624999999952
 20
-11.61027559049049
 30
0.0
  9
$EXTMAX
 10
11.53248031491601
 20
11.624999999952
 30
0.0
  9
$LIMMIN
 10
0.0
 20
0.0
  9
$LIMMAX
 10
12.0
 20
9.0
  9
$ORTHOMODE
 70
     0
  9
$REGENMODE
 70
     1
  9
$FILLMODE
 70
     1
  9
$QTEXTMODE
 70
     0
  9
$MIRRTEXT
 70
     1
  9
$DRAGMODE
 70
     2
  9
$LTSCALE
 40
1.0
  9
$OSMODE
 70
    37
  9
$ATTMODE
 70
     1
  9
$TEXTSIZE
 40
0.2
  9
$TRACEWID
 40
0.05
  9
$TEXTSTYLE
  7
STANDARD
  9
$CLAYER
  8
0
  9
$CELTYPE
  6
BYLAYER
  9
$CECOLOR
 62
   256
  9
$DIMSCALE
 40
1.0
  9
$DIMASZ
 40
0.18
  9
$DIMEXO
 40
0.0625
  9
$DIMDLI
 40
0.38
  9
$DIMRND
 40
0.0
  9
$DIMDLE
 40
0.0
  9
$DIMEXE
 40
0.18
  9
$DIMTP
 40
0.0
  9
$DIMTM
 40
0.0
  9
$DIMTXT
 40
0.18
  9
$DIMCEN
 40
0.09
  9
$DIMTSZ
 40
0.0
  9
$DIMTOL
 70
     0
  9
$DIMLIM
 70
     0
  9
$DIMTIH
 70
     1
  9
$DIMTOH
 70
     1
  9
$DIMSE1
 70
     0
  9
$DIMSE2
 70
     0
  9
$DIMTAD
 70
     0
  9
$DIMZIN
 70
     0
  9
$DIMBLK
  1

  9
$DIMASO
 70
     1
  9
$DIMSHO
 70
     1
  9
$DIMPOST
  1

  9
$DIMAPOST
  1

  9
$DIMALT
 70
     0
  9
$DIMALTD
 70
     2
  9
$DIMALTF
 40
25.4
  9
$DIMLFAC
 40
1.0
  9
$DIMTOFL
 70
     0
  9
$DIMTVP
 40
0.0
  9
$DIMTIX
 70
     0
  9
$DIMSOXD
 70
     0
  9
$DIMSAH
 70
     0
  9
$DIMBLK1
  1

  9
$DIMBLK2
  1

  9
$DIMSTYLE
  2
STANDARD
  9
$DIMCLRD
 70
     0
  9
$DIMCLRE
 70
     0
  9
$DIMCLRT
 70
     0
  9
$DIMTFAC
 40
1.0
  9
$DIMGAP
 40
0.09
  9
$LUNITS
 70
     2
  9
$LUPREC
 70
     4
  9
$SKETCHINC
 40
0.1
  9
$FILLETRAD
 40
0.5
  9
$AUNITS
 70
     0
  9
$AUPREC
 70
     0
  9
$MENU
  1
.
  9
$ELEVATION
 40
0.0
  9
$PELEVATION
 40
0.0
  9
$THICKNESS
 40
0.0
  9
$LIMCHECK
 70
     0
  9
$CHAMFERA
 40
0.0
  9
$CHAMFERB
 40
0.0
  9
$SKPOLY
 70
     0
  9
$TDCREATE
 40
2454910.5
  9
$TDUPDATE
 40
2458150.557487824
  9
$TDINDWG
 40
0.0000000116
  9
$TDUSRTIMER
 40
0.0000000116
  9
$USRTIMER
 70
     1
  9
$ANGBASE
 50
0.0
  9
$ANGDIR
 70
     0
  9
$PDMODE
 70
     0
  9
$PDSIZE
 40
0.0
  9
$PLINEWID
 40
0.0
  9
$COORDS
 70
     1
  9
$SPLFRAME
 70
     0
  9
$SPLINETYPE
 70
     6
  9
$SPLINESEGS
 70
     8
  9
$ATTDIA
 70
     0
  9
$ATTREQ
 70
     1
  9
$HANDLING
 70
     1
  9
$HANDSEED
  5
710
  9
$SURFTAB1
 70
     6
  9
$SURFTAB2
 70
     6
  9
$SURFTYPE
 70
     6
  9
$SURFU
 70
     6
  9
$SURFV
 70
     6
  9
$UCSNAME
  2

  9
$UCSORG
 10
0.0
 20
0.0
 30
0.0
  9
$UCSXDIR
 10
1.0
 20
0.0
 30
0.0
  9
$UCSYDIR
 10
0.0
 20
1.0
 30
0.0
  9
$PUCSNAME
  2

  9
$PUCSORG
 10
0.0
 20
0.0
 30
0.0
  9
$PUCSXDIR
 10
1.0
 20
0.0
 30
0.0
  9
$PUCSYDIR
 10
0.0
 20
1.0
 30
0.0
  9
$USERI1
 70
     0
  9
$USERI2
 70
     0
  9
$USERI3
 70
     0
  9
$USERI4
 70
     0
  9
$USERI5
 70
     0
  9
$USERR1
 40
0.0
  9
$USERR2
 40
0.0
  9
$USERR3
 40
0.0
  9
$USERR4
 40
0.0
  9
$USERR5
 40
0.0
  9
$WORLDVIEW
 70
     1
  9
$SHADEDGE
 70
     3
  9
$SHADEDIF
 70
    70
  9
$TILEMODE
 70
     1
  9
$MAXACTVP
 70
    64
  9
$PLIMCHECK
 70
     0
  9
$PEXTMIN
 10
1.000000000000000E+20
 20
1.000000000000000E+20
 30
1.000000000000000E+20
  9
$PEXTMAX
 10
-1.000000000000000E+20
 20
-1.000000000000000E+20
 30
-1.000000000000000E+20
  9
$PLIMMIN
 10
0.0
 20
0.0
  9
$PLIMMAX
 10
12.0
 20
9.0
  9
$UNITMODE
 70
     0
  9
$VISRETAIN
 70
     1
  9
$PLINEGEN
 70
     0
  9
$PSLTSCALE
 70
     1
  0
ENDSEC
  0
SECTION
  2
TABLES
  0
TABLE
  2
VPORT
 70
     1
  0
VPORT
  2
*ACTIVE
 70
     0
 10
0.0
 20
0.0
 11
1.0
 21
1.0
 12
10.42990654205607
 22
4.5
 13
0.0
 23
0.0
 14
0.5
 24
0.5
 15
0.5
 25
0.5
 16
0.0
 26
0.0
 36
1.0
 17
0.0
 27
0.0
 37
0.0
 40
9.0
 41
1.972972972850329
 42
50.0
 43
0.0
 44
0.0
 50
0.0
 51
0.0
 71
     0
 72
   100
 73
     1
 74
     3
 75
     0
 76
     0
 77
     0
 78
     0
  0
ENDTAB
  0
TABLE
  2
LTYPE
 70
     2
  0
LTYPE
  2
CONTINUOUS
 70
     0
  3
Solid line
 72
    65
 73
     0
 40
0.0
  0
LTYPE
  2
CONTINUOUS2
 70
     0
  3
Solid Line
 72
    65
 73
     0
 40
0.0
  0
ENDTAB
  0
TABLE
  2
LAYER
 70
     1
  0
LAYER
  2
0
 70
     0
 62
     7
  6
CONTINUOUS
  0
ENDTAB
  0
TABLE
  2
STYLE
 70
     1
  0
STYLE
  2
STANDARD
 70
     0
 40
0.0
 41
1.0
 50
0.0
 71
     0
 42
0.2
  3
txt
  4

  0
ENDTAB
  0
TABLE
  2
VIEW
 70
     0
  0
ENDTAB
  0
TABLE
  2
UCS
 70
     0
  0
ENDTAB
  0
TABLE
  2
APPID
 70
     1
  0
APPID
  2
ACAD
 70
     0
  0
ENDTAB
  0
TABLE
  2
DIMSTYLE
 70
     1
  0
DIMSTYLE
  2
STANDARD
 70
     0
  3

  4

  5

  6

  7

 40
1.0
 41
0.18
 42
0.0625
 43
0.38
 44
0.18
 45
0.0
 46
0.0
 47
0.0
 48
0.0
140
0.18
141
0.09
142
0.0
143
25.4
144
1.0
145
0.0
146
1.0
147
0.09
 71
     0
 72
     0
 73
     1
 74
     1
 75
     0
 76
     0
 77
     0
 78
     0
170
     0
171
     2
172
     0
173
     0
174
     0
175
     0
176
     0
177
     0
178
     0
  0
ENDTAB
  0
ENDSEC
  0
SECTION
  2
BLOCKS
  0
BLOCK
  8
0
  2
$MODEL_SPACE
 70
     0
 10
0.0
 20
0.0
 30
0.0
  3
$MODEL_SPACE
  1

  0
ENDBLK
  5
21
  8
0
  0
BLOCK
 67
     1
  8
0
  2
$PAPER_SPACE
 70
     0
 10
0.0
 20
0.0
 30
0.0
  3
$PAPER_SPACE
  1

  0
ENDBLK
  5
1D
 67
     1
  8
0
  0
ENDSEC
  0
SECTION
  2
ENTITIES
  0
POLYLINE
  5
6F
  8
0
 66
     1
 10
0.0
 20
0.0
 30
0.0
 70
     1
  0
VERTEX
  5
15D
  8
0
 10
-8.734190378939942
 20
2.655000000003625
 30
0.0
  0
VERTEX
  5
15E
  8
0
 10
-11.624999999952
 20
-2.163016035055843
 30
0.0
  0
VERTEX
  5
15F
  8
0
 10
-11.624999999952
 20
-6.314999999960491
 30
0.0
  0
VERTEX
  5
160
  8
0
 10
-9.62499999996
 20
-6.314999999960491
 30
0.0
  0
VERTEX
  5
161
  8
0
 10
-9.62499999996
 20
-2.716983964935515
 30
0.0
  0
VERTEX
  5
162
  8
0
 10
-7.624999999968002
 20
0.6163493683976071
 30
0.0
  0
VERTEX
  5
163
  8
0
 10
-5.624999999975993
 20
-2.716983964935515
 30
0.0
  0
VERTEX
  5
164
  8
0
 10
-5.624999999975993
 20
-6.31499999996049
 30
0.0
  0
VERTEX
  5
165
  8
0
 10
-3.624999999983995
 20
-6.31499999996049
 30
0.0
  0
VERTEX
  5
166
  8
0
 10
-3.624999999983995
 20
-2.163016035055843
 30
0.0
  0
VERTEX
  5
167
  8
0
 10
-6.515809620996056
 20
2.655000000003625
 30
0.0
  0
VERTEX
  5
168
  8
0
 10
-3.624999999983995
 20
7.473016035039475
 30
0.0
  0
VERTEX
  5
169
  8
0
 10
-3.624999999983995
 20
11.624999999952
 30
0.0
  0
VERTEX
  5
16A
  8
0
 10
-5.624999999975993
 20
11.624999999952
 30
0.0
  0
VERTEX
  5
16B
  8
0
 10
-5.624999999975993
 20
8.026983964923083
 30
0.0
  0
VERTEX
  5
16C
  8
0
 10
-7.624999999968002
 20
4.693650631609646
 30
0.0
  0
VERTEX
  5
16D
  8
0
 10
-9.62499999996
 20
8.026983964923083
 30
0.0
  0
VERTEX
  5
16E
  8
0
 10
-9.62499999996
 20
11.624999999952
 30
0.0
  0
VERTEX
  5
16F
  8
0
 10
-11.624999999952
 20
11.624999999952
 30
0.0
  0
VERTEX
  5
170
  8
0
 10
-11.624999999952
 20
7.473016035027662
 30
0.0
  0
SEQEND
  5
629
  8
0
  0
POLYLINE
  5
70
  8
0
 66
     1
 10
0.0
 20
0.0
 30
0.0
 70
     1
  0
VERTEX
  5
171
  8
0
 10
-10.54024803145241
 20
-5.969999999946126
 30
0.0
 42
0.4142135623730951
  0
VERTEX
  5
172
  8
0
 10
-10.640748031452
 20
-5.869499999946528
 30
0.0
 42
0.4142135623730951
  0
VERTEX
  5
173
  8
0
 10
-10.7412480314516
 20
-5.969999999946126
 30
0.0
 42
0.4142135623730951
  0
VERTEX
  5
174
  8
0
 10
-10.640748031452
 20
-6.070499999945724
 30
0.0
 42
0.4142135623730951
  0
SEQEND
  5
62A
  8
0
  0
POLYLINE
  5
71
  8
0
 66
     1
 10
0.0
 20
0.0
 30
0.0
 70
     1
  0
VERTEX
  5
175
  8
0
 10
-5.099303149584396
 20
-5.969999999946126
 30
0.0
 42
0.4142135623730951
  0
VERTEX
  5
176
  8
0
 10
-5.199803149583995
 20
-5.869499999946528
 30
0.0
 42
0.4142135623730951
  0
VERTEX
  5
177
  8
0
 10
-5.30030314958359
 20
-5.969999999946126
 30
0.0
 42
0.4142135623730951
  0
VERTEX
  5
178
  8
0
 10
-5.199803149583995
 20
-6.070499999945723
 30
0.0
 42
0.4142135623730951
  0
SEQEND
  5
62B
  8
0
  0
POLYLINE
  5
72
  8
0
 66
     1
 10
0.0
 20
0.0
 30
0.0
 70
     1
  0
VERTEX
  5
179
  8
0
 10
-3.918200787384396
 20
-5.969999999946126
 30
0.0
 42
0.4142135623730951
  0
VERTEX
  5
17A
  8
0
 10
-4.018700787383994
 20
-5.869499999946528
 30
0.0
 42
0.4142135623730951
  0
VERTEX
  5
17B
  8
0
 10
-4.119200787383591
 20
-5.969999999946126
 30
0.0
 42
0.4142135623730951
  0
VERTEX
  5
17C
  8
0
 10
-4.018700787383994
 20
-6.070499999945723
 30
0.0
 42
0.4142135623730951
  0
SEQEND
  5
62C
  8
0
  0
POLYLINE
  5
73
  8
0
 66
     1
 10
0.0
 20
0.0
 30
0.0
 70
     1
  0
VERTEX
  5
17D
  8
0
 10
-10.54024803145241
 20
11.27999999995338
 30
0.0
 42
0.4142135623730951
  0
VERTEX
  5
17E
  8
0
 10
-10.64074803145201
 20
11.38049999995297
 30
0.0
 42
0.4142135623730951
  0
VERTEX
  5
17F
  8
0
 10
-10.7412480314516
 20
11.27999999995338
 30
0.0
 42
0.4142135623730951
  0
VERTEX
  5
180
  8
0
 10
-10.64074803145201
 20
11.17949999995378
 30
0.0
 42
0.4142135623730951
  0
SEQEND
  5
62D
  8
0
  0
POLYLINE
  5
74
  8
0
 66
     1
 10
0.0
 20
0.0
 30
0.0
 70
     1
  0
VERTEX
  5
181
  8
0
 10
-5.099303149584396
 20
11.27999999995338
 30
0.0
 42
0.4142135623730951
  0
VERTEX
  5
182
  8
0
 10
-5.199803149583995
 20
11.38049999995297
 30
0.0
 42
0.4142135623730951
  0
VERTEX
  5
183
  8
0
 10
-5.30030314958359
 20
11.27999999995338
 30
0.0
 42
0.4142135623730951
  0
VERTEX
  5
184
  8
0
 10
-5.199803149583995
 20
11.17949999995378
 30
0.0
 42
0.4142135623730951
  0
SEQEND
  5
62E
  8
0
  0
POLYLINE
  5
75
  8
0
 66
     1
 10
0.0
 20
0.0
 30
0.0
 70
     1
  0
VERTEX
  5
185
  8
0
 10
-3.918200787384396
 20
11.27999999995338
 30
0.0
 42
0.4142135623730951
  0
VERTEX
  5
186
  8
0
 10
-4.018700787383994
 20
11.38049999995297
 30
0.0
 42
0.4142135623730951
  0
VERTEX
  5
187
  8
0
 10
-4.119200787383591
 20
11.27999999995338
 30
0.0
 42
0.4142135623730951
  0
VERTEX
  5
188
  8
0
 10
-4.018700787383994
 20
11.17949999995378
 30
0.0
 42
0.4142135623730951
  0
SEQEND
  5
62F
  8
0
  0
POLYLINE
  5
76
  8
0
 66
     1
 10
0.0
 20
0.0
 30
0.0
 70
     1
  0
VERTEX
  5
189
  8
0
 10
-4.508751968484401
 20
11.27999999995338
 30
0.0
 42
0.4142135623730951
  0
VERTEX
  5
18A
  8
0
 10
-4.609251968483998
 20
11.38049999995297
 30
0.0
 42
0.4142135623730951
  0
VERTEX
  5
18B
  8
0
 10
-4.709751968483597
 20
11.27999999995338
 30
0.0
 42
0.4142135623730951
  0
VERTEX
  5
18C
  8
0
 10
-4.609251968483998
 20
11.17949999995378
 30
0.0
 42
0.4142135623730951
  0
SEQEND
  5
630
  8
0
  0
POLYLINE
  5
77
  8
0
 66
     1
 10
0.0
 20
0.0
 30
0.0
 70
     1
  0
VERTEX
  5
18D
  8
0
 10
-11.13079921255241
 20
11.27999999995338
 30
0.0
 42
0.4142135623730951
  0
VERTEX
  5
18E
  8
0
 10
-11.23129921255201
 20
11.38049999995297
 30
0.0
 42
0.4142135623730951
  0
VERTEX
  5
18F
  8
0
 10
-11.3317992125516
 20
11.27999999995338
 30
0.0
 42
0.4142135623730951
  0
VERTEX
  5
190
  8
0
 10
-11.23129921255201
 20
11.17949999995378
 30
0.0
 42
0.4142135623730951
  0
SEQEND
  5
631
  8
0
  0
POLYLINE
  5
78
  8
0
 66
     1
 10
0.0
 20
0.0
 30
0.0
 70
     1
  0
VERTEX
  5
191
  8
0
 10
-9.949696850352407
 20
11.27999999995338
 30
0.0
 42
0.4142135623730951
  0
VERTEX
  5
192
  8
0
 10
-10.05019685035201
 20
11.38049999995297
 30
0.0
 42
0.4142135623730951
  0
VERTEX
  5
193
  8
0
 10
-10.1506968503516
 20
11.27999999995338
 30
0.0
 42
0.4142135623730951
  0
VERTEX
  5
194
  8
0
 10
-10.05019685035201
 20
11.17949999995378
 30
0.0
 42
0.4142135623730951
  0
SEQEND
  5
632
  8
0
  0
POLYLINE
  5
79
  8
0
 66
     1
 10
0.0
 20
0.0
 30
0.0
 70
     1
  0
VERTEX
  5
195
  8
0
 10
-4.508751968484401
 20
-5.969999999946126
 30
0.0
 42
0.4142135623730951
  0
VERTEX
  5
196
  8
0
 10
-4.609251968483998
 20
-5.869499999946528
 30
0.0
 42
0.4142135623730951
  0
VERTEX
  5
197
  8
0
 10
-4.709751968483597
 20
-5.969999999946126
 30
0.0
 42
0.4142135623730951
  0
VERTEX
  5
198
  8
0
 10
-4.609251968483998
 20
-6.070499999945723
 30
0.0
 42
0.4142135623730951
  0
SEQEND
  5
633
  8
0
  0
POLYLINE
  5
7A
  8
0
 66
     1
 10
0.0
 20
0.0
 30
0.0
 70
     1
  0
VERTEX
  5
199
  8
0
 10
-11.13079921255241
 20
-5.969999999946126
 30
0.0
 42
0.4142135623730951
  0
VERTEX
  5
19A
  8
0
 10
-11.231299212552
 20
-5.869499999946528
 30
0.0
 42
0.4142135623730951
  0
VERTEX
  5
19B
  8
0
 10
-11.3317992125516
 20
-5.969999999946126
 30
0.0
 42
0.4142135623730951
  0
VERTEX
  5
19C
  8
0
 10
-11.231299212552
 20
-6.070499999945724
 30
0.0
 42
0.4142135623730951
  0
SEQEND
  5
634
  8
0
  0
POLYLINE
  5
7B
  8
0
 66
     1
 10
0.0
 20
0.0
 30
0.0
 70
     1
  0
VERTEX
  5
19D
  8
0
 10
-9.949696850352407
 20
-5.969999999946126
 30
0.0
 42
0.4142135623730951
  0
VERTEX
  5
19E
  8
0
 10
-10.050196850352
 20
-5.869499999946528
 30
0.0
 42
0.4142135623730951
  0
VERTEX
  5
19F
  8
0
 10
-10.1506968503516
 20
-5.969999999946126
 30
0.0
 42
0.4142135623730951
  0
VERTEX
  5
1A0
  8
0
 10
-10.050196850352
 20
-6.070499999945724
 30
0.0
 42
0.4142135623730951
  0
SEQEND
  5
635
  8
0
  0
POLYLINE
  5
7C
  8
0
 66
     1
 10
0.0
 20
0.0
 30
0.0
 70
     1
  0
VERTEX
  5
1A1
  8
0
 10
-1.155450221489939
 20
-2.640275590526375
 30
0.0
  0
VERTEX
  5
1A2
  8
0
 10
-4.046259842501997
 20
-7.458291625585844
 30
0.0
  0
VERTEX
  5
1A3
  8
0
 10
-4.046259842501996
 20
-11.61027559049049
 30
0.0
  0
VERTEX
  5
1A4
  8
0
 10
-2.046259842509997
 20
-11.61027559049049
 30
0.0
  0
VERTEX
  5
1A5
  8
0
 10
-2.046259842509997
 20
-8.012259555465516
 30
0.0
  0
VERTEX
  5
1A6
  8
0
 10
-0.0462598425180012
 20
-4.678926222132393
 30
0.0
  0
VERTEX
  5
1A7
  8
0
 10
1.953740157474009
 20
-8.012259555465516
 30
0.0
  0
VERTEX
  5
1A8
  8
0
 10
1.953740157474009
 20
-11.61027559049049
 30
0.0
  0
VERTEX
  5
1A9
  8
0
 10
3.953740157466008
 20
-11.61027559049049
 30
0.0
  0
VERTEX
  5
1AA
  8
0
 10
3.953740157466008
 20
-7.458291625585843
 30
0.0
  0
VERTEX
  5
1AB
  8
0
 10
1.062930536453944
 20
-2.640275590526375
 30
0.0
  0
VERTEX
  5
1AC
  8
0
 10
3.953740157466008
 20
2.177740444509473
 30
0.0
  0
VERTEX
  5
1AD
  8
0
 10
3.953740157466008
 20
6.329724409421999
 30
0.0
  0
VERTEX
  5
1AE
  8
0
 10
1.953740157474009
 20
6.329724409421999
 30
0.0
  0
VERTEX
  5
1AF
  8
0
 10
1.953740157474009
 20
2.731708374393083
 30
0.0
  0
VERTEX
  5
1B0
  8
0
 10
-0.0462598425180012
 20
-0.601624958920354
 30
0.0
  0
VERTEX
  5
1B1
  8
0
 10
-2.046259842509999
 20
2.731708374393083
 30
0.0
  0
VERTEX
  5
1B2
  8
0
 10
-2.046259842509999
 20
6.329724409421999
 30
0.0
  0
VERTEX
  5
1B3
  8
0
 10
-4.046259842501998
 20
6.329724409421999
 30
0.0
  0
VERTEX
  5
1B4
  8
0
 10
-4.046259842501998
 20
2.177740444497662
 30
0.0
  0
SEQEND
  5
636
  8
0
  0
POLYLINE
  5
7D
  8
0
 66
     1
 10
0.0
 20
0.0
 30
0.0
 70
     1
  0
VERTEX
  5
1B5
  8
0
 10
-2.961507874002404
 20
-11.26527559047613
 30
0.0
 42
0.4142135623730951
  0
VERTEX
  5
1B6
  8
0
 10
-3.062007874002003
 20
-11.16477559047653
 30
0.0
 42
0.4142135623730951
  0
VERTEX
  5
1B7
  8
0
 10
-3.162507874001601
 20
-11.26527559047613
 30
0.0
 42
0.4142135623730951
  0
VERTEX
  5
1B8
  8
0
 10
-3.062007874002003
 20
-11.36577559047572
 30
0.0
 42
0.4142135623730951
  0
SEQEND
  5
637
  8
0
  0
POLYLINE
  5
7E
  8
0
 66
     1
 10
0.0
 20
0.0
 30
0.0
 70
     1
  0
VERTEX
  5
1B9
  8
0
 10
2.479437007865606
 20
-11.26527559047613
 30
0.0
 42
0.4142135623730951
  0
VERTEX
  5
1BA
  8
0
 10
2.378937007866007
 20
-11.16477559047653
 30
0.0
 42
0.4142135623730951
  0
VERTEX
  5
1BB
  8
0
 10
2.278437007866412
 20
-11.26527559047613
 30
0.0
 42
0.4142135623730951
  0
VERTEX
  5
1BC
  8
0
 10
2.378937007866007
 20
-11.36577559047572
 30
0.0
 42
0.4142135623730951
  0
SEQEND
  5
638
  8
0
  0
POLYLINE
  5
7F
  8
0
 66
     1
 10
0.0
 20
0.0
 30
0.0
 70
     1
  0
VERTEX
  5
1BD
  8
0
 10
3.660539370065607
 20
-11.26527559047613
 30
0.0
 42
0.4142135623730951
  0
VERTEX
  5
1BE
  8
0
 10
3.560039370066008
 20
-11.16477559047653
 30
0.0
 42
0.4142135623730951
  0
VERTEX
  5
1BF
  8
0
 10
3.459539370066409
 20
-11.26527559047613
 30
0.0
 42
0.4142135623730951
  0
VERTEX
  5
1C0
  8
0
 10
3.560039370066008
 20
-11.36577559047572
 30
0.0
 42
0.4142135623730951
  0
SEQEND
  5
639
  8
0
  0
POLYLINE
  5
80
  8
0
 66
     1
 10
0.0
 20
0.0
 30
0.0
 70
     1
  0
VERTEX
  5
1C1
  8
0
 10
-2.961507874002406
 20
5.984724409423375
 30
0.0
 42
0.4142135623730951
  0
VERTEX
  5
1C2
  8
0
 10
-3.062007874002003
 20
6.085224409422974
 30
0.0
 42
0.4142135623730951
  0
VERTEX
  5
1C3
  8
0
 10
-3.162507874001601
 20
5.984724409423375
 30
0.0
 42
0.4142135623730951
  0
VERTEX
  5
1C4
  8
0
 10
-3.062007874002003
 20
5.884224409423776
 30
0.0
 42
0.4142135623730951
  0
SEQEND
  5
63A
  8
0
  0
POLYLINE
  5
81
  8
0
 66
     1
 10
0.0
 20
0.0
 30
0.0
 70
     1
  0
VERTEX
  5
1C5
  8
0
 10
2.479437007865606
 20
5.984724409423375
 30
0.0
 42
0.4142135623730951
  0
VERTEX
  5
1C6
  8
0
 10
2.378937007866007
 20
6.085224409422974
 30
0.0
 42
0.4142135623730951
  0
VERTEX
  5
1C7
  8
0
 10
2.278437007866412
 20
5.984724409423375
 30
0.0
 42
0.4142135623730951
  0
VERTEX
  5
1C8
  8
0
 10
2.378937007866007
 20
5.884224409423776
 30
0.0
 42
0.4142135623730951
  0
SEQEND
  5
63B
  8
0
  0
POLYLINE
  5
82
  8
0
 66
     1
 10
0.0
 20
0.0
 30
0.0
 70
     1
  0
VERTEX
  5
1C9
  8
0
 10
3.660539370065607
 20
5.984724409423375
 30
0.0
 42
0.4142135623730951
  0
VERTEX
  5
1CA
  8
0
 10
3.560039370066008
 20
6.085224409422974
 30
0.0
 42
0.4142135623730951
  0
VERTEX
  5
1CB
  8
0
 10
3.459539370066409
 20
5.984724409423375
 30
0.0
 42
0.4142135623730951
  0
VERTEX
  5
1CC
  8
0
 10
3.560039370066008
 20
5.884224409423776
 30
0.0
 42
0.4142135623730951
  0
SEQEND
  5
63C
  8
0
  0
POLYLINE
  5
83
  8
0
 66
     1
 10
0.0
 20
0.0
 30
0.0
 70
     1
  0
VERTEX
  5
1CD
  8
0
 10
3.069988188965599
 20
5.984724409423375
 30
0.0
 42
0.4142135623730951
  0
VERTEX
  5
1CE
  8
0
 10
2.969488188966004
 20
6.085224409422974
 30
0.0
 42
0.4142135623730951
  0
VERTEX
  5
1CF
  8
0
 10
2.868988188966405
 20
5.984724409423375
 30
0.0
 42
0.4142135623730951
  0
VERTEX
  5
1D0
  8
0
 10
2.969488188966004
 20
5.884224409423776
 30
0.0
 42
0.4142135623730951
  0
SEQEND
  5
63D
  8
0
  0
POLYLINE
  5
84
  8
0
 66
     1
 10
0.0
 20
0.0
 30
0.0
 70
     1
  0
VERTEX
  5
1D1
  8
0
 10
-3.552059055102406
 20
5.984724409423375
 30
0.0
 42
0.4142135623730951
  0
VERTEX
  5
1D2
  8
0
 10
-3.652559055102003
 20
6.085224409422974
 30
0.0
 42
0.4142135623730951
  0
VERTEX
  5
1D3
  8
0
 10
-3.753059055101602
 20
5.984724409423375
 30
0.0
 42
0.4142135623730951
  0
VERTEX
  5
1D4
  8
0
 10
-3.652559055102003
 20
5.884224409423776
 30
0.0
 42
0.4142135623730951
  0
SEQEND
  5
63E
  8
0
  0
POLYLINE
  5
85
  8
0
 66
     1
 10
0.0
 20
0.0
 30
0.0
 70
     1
  0
VERTEX
  5
1D5
  8
0
 10
-2.370956692902405
 20
5.984724409423375
 30
0.0
 42
0.4142135623730951
  0
VERTEX
  5
1D6
  8
0
 10
-2.471456692902002
 20
6.085224409422974
 30
0.0
 42
0.4142135623730951
  0
VERTEX
  5
1D7
  8
0
 10
-2.571956692901601
 20
5.984724409423375
 30
0.0
 42
0.4142135623730951
  0
VERTEX
  5
1D8
  8
0
 10
-2.471456692902002
 20
5.884224409423776
 30
0.0
 42
0.4142135623730951
  0
SEQEND
  5
63F
  8
0
  0
POLYLINE
  5
86
  8
0
 66
     1
 10
0.0
 20
0.0
 30
0.0
 70
     1
  0
VERTEX
  5
1D9
  8
0
 10
3.069988188965599
 20
-11.26527559047613
 30
0.0
 42
0.4142135623730951
  0
VERTEX
  5
1DA
  8
0
 10
2.969488188966004
 20
-11.16477559047653
 30
0.0
 42
0.4142135623730951
  0
VERTEX
  5
1DB
  8
0
 10
2.868988188966405
 20
-11.26527559047613
 30
0.0
 42
0.4142135623730951
  0
VERTEX
  5
1DC
  8
0
 10
2.969488188966004
 20
-11.36577559047572
 30
0.0
 42
0.4142135623730951
  0
SEQEND
  5
640
  8
0
  0
POLYLINE
  5
87
  8
0
 66
     1
 10
0.0
 20
0.0
 30
0.0
 70
     1
  0
VERTEX
  5
1DD
  8
0
 10
-3.552059055102404
 20
-11.26527559047613
 30
0.0
 42
0.4142135623730951
  0
VERTEX
  5
1DE
  8
0
 10
-3.652559055102003
 20
-11.16477559047653
 30
0.0
 42
0.4142135623730951
  0
VERTEX
  5
1DF
  8
0
 10
-3.753059055101602
 20
-11.26527559047613
 30
0.0
 42
0.4142135623730951
  0
VERTEX
  5
1E0
  8
0
 10
-3.652559055102003
 20
-11.36577559047572
 30
0.0
 42
0.4142135623730951
  0
SEQEND
  5
641
  8
0
  0
POLYLINE
  5
88
  8
0
 66
     1
 10
0.0
 20
0.0
 30
0.0
 70
     1
  0
VERTEX
  5
1E1
  8
0
 10
-2.370956692902404
 20
-11.26527559047613
 30
0.0
 42
0.4142135623730951
  0
VERTEX
  5
1E2
  8
0
 10
-2.471456692902002
 20
-11.16477559047653
 30
0.0
 42
0.4142135623730951
  0
VERTEX
  5
1E3
  8
0
 10
-2.571956692901601
 20
-11.26527559047613
 30
0.0
 42
0.4142135623730951
  0
VERTEX
  5
1E4
  8
0
 10
-2.471456692902002
 20
-11.36577559047572
 30
0.0
 42
0.4142135623730951
  0
SEQEND
  5
642
  8
0
  0
POLYLINE
  5
89
  8
0
 66
     1
 10
0.0
 20
0.0
 30
0.0
 70
     1
  0
VERTEX
  5
1E5
  8
0
 10
6.42328993596006
 20
2.655000000003625
 30
0.0
  0
VERTEX
  5
1E6
  8
0
 10
3.532480314948003
 20
-2.163016035055843
 30
0.0
  0
VERTEX
  5
1E7
  8
0
 10
3.532480314948003
 20
-6.314999999960491
 30
0.0
  0
VERTEX
  5
1E8
  8
0
 10
5.532480314940003
 20
-6.314999999960491
 30
0.0
  0
VERTEX
  5
1E9
  8
0
 10
5.532480314940003
 20
-2.716983964935515
 30
0.0
  0
VERTEX
  5
1EA
  8
0
 10
7.532480314931998
 20
0.6163493683976071
 30
0.0
  0
VERTEX
  5
1EB
  8
0
 10
9.532480314924008
 20
-2.716983964935515
 30
0.0
  0
VERTEX
  5
1EC
  8
0
 10
9.532480314924008
 20
-6.31499999996049
 30
0.0
  0
VERTEX
  5
1ED
  8
0
 10
11.53248031491601
 20
-6.31499999996049
 30
0.0
  0
VERTEX
  5
1EE
  8
0
 10
11.53248031491601
 20
-2.163016035055843
 30
0.0
  0
VERTEX
  5
1EF
  8
0
 10
8.641670693903944
 20
2.655000000003625
 30
0.0
  0
VERTEX
  5
1F0
  8
0
 10
11.53248031491601
 20
7.473016035039475
 30
0.0
  0
VERTEX
  5
1F1
  8
0
 10
11.53248031491601
 20
11.624999999952
 30
0.0
  0
VERTEX
  5
1F2
  8
0
 10
9.532480314924008
 20
11.624999999952
 30
0.0
  0
VERTEX
  5
1F3
  8
0
 10
9.532480314924008
 20
8.026983964923083
 30
0.0
  0
VERTEX
  5
1F4
  8
0
 10
7.532480314931998
 20
4.693650631609646
 30
0.0
  0
VERTEX
  5
1F5
  8
0
 10
5.532480314940003
 20
8.026983964923083
 30
0.0
  0
VERTEX
  5
1F6
  8
0
 10
5.532480314940003
 20
11.624999999952
 30
0.0
  0
VERTEX
  5
1F7
  8
0
 10
3.532480314948003
 20
11.624999999952
 30
0.0
  0
VERTEX
  5
1F8
  8
0
 10
3.532480314948003
 20
7.473016035027662
 30
0.0
  0
SEQEND
  5
643
  8
0
  0
POLYLINE
  5
8A
  8
0
 66
     1
 10
0.0
 20
0.0
 30
0.0
 70
     1
  0
VERTEX
  5
1F9
  8
0
 10
4.617232283447596
 20
-5.969999999946126
 30
0.0
 42
0.4142135623730951
  0
VERTEX
  5
1FA
  8
0
 10
4.516732283447997
 20
-5.869499999946528
 30
0.0
 42
0.4142135623730951
  0
VERTEX
  5
1FB
  8
0
 10
4.416232283448398
 20
-5.969999999946126
 30
0.0
 42
0.4142135623730951
  0
VERTEX
  5
1FC
  8
0
 10
4.516732283447997
 20
-6.070499999945724
 30
0.0
 42
0.4142135623730951
  0
SEQEND
  5
644
  8
0
  0
POLYLINE
  5
8B
  8
0
 66
     1
 10
0.0
 20
0.0
 30
0.0
 70
     1
  0
VERTEX
  5
1FD
  8
0
 10
10.05817716531561
 20
-5.969999999946126
 30
0.0
 42
0.4142135623730951
  0
VERTEX
  5
1FE
  8
0
 10
9.957677165316007
 20
-5.869499999946528
 30
0.0
 42
0.4142135623730951
  0
VERTEX
  5
1FF
  8
0
 10
9.857177165316411
 20
-5.969999999946126
 30
0.0
 42
0.4142135623730951
  0
VERTEX
  5
200
  8
0
 10
9.957677165316007
 20
-6.070499999945723
 30
0.0
 42
0.4142135623730951
  0
SEQEND
  5
645
  8
0
  0
POLYLINE
  5
8C
  8
0
 66
     1
 10
0.0
 20
0.0
 30
0.0
 70
     1
  0
VERTEX
  5
201
  8
0
 10
11.23927952751561
 20
-5.969999999946126
 30
0.0
 42
0.4142135623730951
  0
VERTEX
  5
202
  8
0
 10
11.13877952751601
 20
-5.869499999946528
 30
0.0
 42
0.4142135623730951
  0
VERTEX
  5
203
  8
0
 10
11.03827952751641
 20
-5.969999999946126
 30
0.0
 42
0.4142135623730951
  0
VERTEX
  5
204
  8
0
 10
11.13877952751601
 20
-6.070499999945723
 30
0.0
 42
0.4142135623730951
  0
SEQEND
  5
646
  8
0
  0
POLYLINE
  5
8D
  8
0
 66
     1
 10
0.0
 20
0.0
 30
0.0
 70
     1
  0
VERTEX
  5
205
  8
0
 10
4.617232283447596
 20
11.27999999995338
 30
0.0
 42
0.4142135623730951
  0
VERTEX
  5
206
  8
0
 10
4.516732283447997
 20
11.38049999995297
 30
0.0
 42
0.4142135623730951
  0
VERTEX
  5
207
  8
0
 10
4.416232283448398
 20
11.27999999995338
 30
0.0
 42
0.4142135623730951
  0
VERTEX
  5
208
  8
0
 10
4.516732283447997
 20
11.17949999995378
 30
0.0
 42
0.4142135623730951
  0
SEQEND
  5
647
  8
0
  0
POLYLINE
  5
8E
  8
0
 66
     1
 10
0.0
 20
0.0
 30
0.0
 70
     1
  0
VERTEX
  5
209
  8
0
 10
10.05817716531561
 20
11.27999999995338
 30
0.0
 42
0.4142135623730951
  0
VERTEX
  5
20A
  8
0
 10
9.957677165316007
 20
11.38049999995297
 30
0.0
 42
0.4142135623730951
  0
VERTEX
  5
20B
  8
0
 10
9.857177165316411
 20
11.27999999995338
 30
0.0
 42
0.4142135623730951
  0
VERTEX
  5
20C
  8
0
 10
9.957677165316007
 20
11.17949999995378
 30
0.0
 42
0.4142135623730951
  0
SEQEND
  5
648
  8
0
  0
POLYLINE
  5
8F
  8
0
 66
     1
 10
0.0
 20
0.0
 30
0.0
 70
     1
  0
VERTEX
  5
20D
  8
0
 10
11.23927952751561
 20
11.27999999995338
 30
0.0
 42
0.4142135623730951
  0
VERTEX
  5
20E
  8
0
 10
11.13877952751601
 20
11.38049999995297
 30
0.0
 42
0.4142135623730951
  0
VERTEX
  5
20F
  8
0
 10
11.03827952751641
 20
11.27999999995338
 30
0.0
 42
0.4142135623730951
  0
VERTEX
  5
210
  8
0
 10
11.13877952751601
 20
11.17949999995378
 30
0.0
 42
0.4142135623730951
  0
SEQEND
  5
649
  8
0
  0
POLYLINE
  5
90
  8
0
 66
     1
 10
0.0
 20
0.0
 30
0.0
 70
     1
  0
VERTEX
  5
211
  8
0
 10
10.6487283464156
 20
11.27999999995338
 30
0.0
 42
0.4142135623730951
  0
VERTEX
  5
212
  8
0
 10
10.548228346416
 20
11.38049999995297
 30
0.0
 42
0.4142135623730951
  0
VERTEX
  5
213
  8
0
 10
10.4477283464164
 20
11.27999999995338
 30
0.0
 42
0.4142135623730951
  0
VERTEX
  5
214
  8
0
 10
10.548228346416
 20
11.17949999995378
 30
0.0
 42
0.4142135623730951
  0
SEQEND
  5
64A
  8
0
  0
POLYLINE
  5
91
  8
0
 66
     1
 10
0.0
 20
0.0
 30
0.0
 70
     1
  0
VERTEX
  5
215
  8
0
 10
4.026681102347595
 20
11.27999999995338
 30
0.0
 42
0.4142135623730951
  0
VERTEX
  5
216
  8
0
 10
3.926181102347996
 20
11.38049999995297
 30
0.0
 42
0.4142135623730951
  0
VERTEX
  5
217
  8
0
 10
3.825681102348398
 20
11.27999999995338
 30
0.0
 42
0.4142135623730951
  0
VERTEX
  5
218
  8
0
 10
3.926181102347996
 20
11.17949999995378
 30
0.0
 42
0.4142135623730951
  0
SEQEND
  5
64B
  8
0
  0
POLYLINE
  5
92
  8
0
 66
     1
 10
0.0
 20
0.0
 30
0.0
 70
     1
  0
VERTEX
  5
219
  8
0
 10
5.207783464547596
 20
11.27999999995338
 30
0.0
 42
0.4142135623730951
  0
VERTEX
  5
21A
  8
0
 10
5.107283464547997
 20
11.38049999995297
 30
0.0
 42
0.4142135623730951
  0
VERTEX
  5
21B
  8
0
 10
5.006783464548398
 20
11.27999999995338
 30
0.0
 42
0.4142135623730951
  0
VERTEX
  5
21C
  8
0
 10
5.107283464547997
 20
11.17949999995378
 30
0.0
 42
0.4142135623730951
  0
SEQEND
  5
64C
  8
0
  0
POLYLINE
  5
93
  8
0
 66
     1
 10
0.0
 20
0.0
 30
0.0
 70
     1
  0
VERTEX
  5
21D
  8
0
 10
10.6487283464156
 20
-5.969999999946126
 30
0.0
 42
0.4142135623730951
  0
VERTEX
  5
21E
  8
0
 10
10.548228346416
 20
-5.869499999946528
 30
0.0
 42
0.4142135623730951
  0
VERTEX
  5
21F
  8
0
 10
10.4477283464164
 20
-5.969999999946126
 30
0.0
 42
0.4142135623730951
  0
VERTEX
  5
220
  8
0
 10
10.548228346416
 20
-6.070499999945723
 30
0.0
 42
0.4142135623730951
  0
SEQEND
  5
64D
  8
0
  0
POLYLINE
  5
94
  8
0
 66
     1
 10
0.0
 20
0.0
 30
0.0
 70
     1
  0
VERTEX
  5
221
  8
0
 10
4.026681102347595
 20
-5.969999999946126
 30
0.0
 42
0.4142135623730951
  0
VERTEX
  5
222
  8
0
 10
3.926181102347996
 20
-5.869499999946528
 30
0.0
 42
0.4142135623730951
  0
VERTEX
  5
223
  8
0
 10
3.825681102348399
 20
-5.969999999946126
 30
0.0
 42
0.4142135623730951
  0
VERTEX
  5
224
  8
0
 10
3.926181102347996
 20
-6.070499999945724
 30
0.0
 42
0.4142135623730951
  0
SEQEND
  5
64E
  8
0
  0
POLYLINE
  5
95
  8
0
 66
     1
 10
0.0
 20
0.0
 30
0.0
 70
     1
  0
VERTEX
  5
225
  8
0
 10
5.207783464547596
 20
-5.969999999946126
 30
0.0
 42
0.4142135623730951
  0
VERTEX
  5
226
  8
0
 10
5.107283464547997
 20
-5.869499999946528
 30
0.0
 42
0.4142135623730951
  0
VERTEX
  5
227
  8
0
 10
5.006783464548402
 20
-5.969999999946126
 30
0.0
 42
0.4142135623730951
  0
VERTEX
  5
228
  8
0
 10
5.107283464547997
 20
-6.070499999945724
 30
0.0
 42
0.4142135623730951
  0
SEQEND
  5
64F
  8
0
  0
POLYLINE
  5
96
  8
0
 66
     1
 10
0.0
 20
0.0
 30
0.0
 70
     1
  0
VERTEX
  5
229
  8
0
 10
-11.374999999952
 20
3.278543307071999
 30
0.0
 42
0.4142135623730951
  0
VERTEX
  5
22A
  8
0
 10
-11.624999999952
 20
3.028543307071999
 30
0.0
  0
VERTEX
  5
22B
  8
0
 10
-11.624999999952
 20
1.028543307071999
 30
0.0
 42
0.4142135623730951
  0
VERTEX
  5
22C
  8
0
 10
-11.374999999952
 20
0.7785433070720007
 30
0.0
  0
VERTEX
  5
22D
  8
0
 10
-10.874999999952
 20
0.7785433070720007
 30
0.0
 42
0.4142135623730951
  0
VERTEX
  5
22E
  8
0
 10
-10.624999999952
 20
1.028543307071999
 30
0.0
  0
VERTEX
  5
22F
  8
0
 10
-10.624999999952
 20
2.028543307071999
 30
0.0
 42
-0.4142135623730951
  0
VERTEX
  5
230
  8
0
 10
-10.374999999952
 20
2.278543307071999
 30
0.0
  0
VERTEX
  5
231
  8
0
 10
-9.499999999952
 20
2.278543307071999
 30
0.0
 42
0.4142135623730951
  0
VERTEX
  5
232
  8
0
 10
-9.249999999952
 20
2.528543307071999
 30
0.0
  0
VERTEX
  5
233
  8
0
 10
-9.249999999952
 20
3.028543307071999
 30
0.0
 42
0.4142135623730951
  0
VERTEX
  5
234
  8
0
 10
-9.499999999952001
 20
3.278543307071999
 30
0.0
  0
SEQEND
  5
650
  8
0
  0
POLYLINE
  5
97
  8
0
 66
     1
 10
0.0
 20
0.0
 30
0.0
 70
     1
  0
VERTEX
  5
235
  8
0
 10
-11.062499999952
 20
2.778543307071999
 30
0.0
 42
0.4142135623730951
  0
VERTEX
  5
236
  8
0
 10
-11.124999999952
 20
2.841043307071999
 30
0.0
 42
0.4142135623730951
  0
VERTEX
  5
237
  8
0
 10
-11.187499999952
 20
2.778543307071999
 30
0.0
 42
0.4142135623730951
  0
VERTEX
  5
238
  8
0
 10
-11.124999999952
 20
2.716043307071999
 30
0.0
 42
0.4142135623730951
  0
SEQEND
  5
651
  8
0
  0
POLYLINE
  5
98
  8
0
 66
     1
 10
0.0
 20
0.0
 30
0.0
 70
     1
  0
VERTEX
  5
239
  8
0
 10
-11.062499999952
 20
1.903543307071999
 30
0.0
 42
0.4142135623730951
  0
VERTEX
  5
23A
  8
0
 10
-11.124999999952
 20
1.966043307071999
 30
0.0
 42
0.4142135623730951
  0
VERTEX
  5
23B
  8
0
 10
-11.187499999952
 20
1.903543307071999
 30
0.0
 42
0.4142135623730951
  0
VERTEX
  5
23C
  8
0
 10
-11.124999999952
 20
1.841043307071999
 30
0.0
 42
0.4142135623730951
  0
SEQEND
  5
652
  8
0
  0
POLYLINE
  5
99
  8
0
 66
     1
 10
0.0
 20
0.0
 30
0.0
 70
     1
  0
VERTEX
  5
23D
  8
0
 10
-11.062499999952
 20
1.153543307071999
 30
0.0
 42
0.4142135623730951
  0
VERTEX
  5
23E
  8
0
 10
-11.124999999952
 20
1.216043307071999
 30
0.0
 42
0.4142135623730951
  0
VERTEX
  5
23F
  8
0
 10
-11.187499999952
 20
1.153543307071999
 30
0.0
 42
0.4142135623730951
  0
VERTEX
  5
240
  8
0
 10
-11.124999999952
 20
1.091043307071999
 30
0.0
 42
0.4142135623730951
  0
SEQEND
  5
653
  8
0
  0
POLYLINE
  5
9A
  8
0
 66
     1
 10
0.0
 20
0.0
 30
0.0
 70
     1
  0
VERTEX
  5
241
  8
0
 10
-10.312499999952
 20
2.778543307071999
 30
0.0
 42
0.4142135623730951
  0
VERTEX
  5
242
  8
0
 10
-10.374999999952
 20
2.841043307071999
 30
0.0
 42
0.4142135623730951
  0
VERTEX
  5
243
  8
0
 10
-10.437499999952
 20
2.778543307071999
 30
0.0
 42
0.4142135623730951
  0
VERTEX
  5
244
  8
0
 10
-10.374999999952
 20
2.716043307071999
 30
0.0
 42
0.4142135623730951
  0
SEQEND
  5
654
  8
0
  0
POLYLINE
  5
9B
  8
0
 66
     1
 10
0.0
 20
0.0
 30
0.0
 70
     1
  0
VERTEX
  5
245
  8
0
 10
-9.562499999952
 20
2.778543307071999
 30
0.0
 42
0.4142135623730951
  0
VERTEX
  5
246
  8
0
 10
-9.624999999952
 20
2.841043307071999
 30
0.0
 42
0.4142135623730951
  0
VERTEX
  5
247
  8
0
 10
-9.687499999952
 20
2.778543307071999
 30
0.0
 42
0.4142135623730951
  0
VERTEX
  5
248
  8
0
 10
-9.624999999952
 20
2.716043307071999
 30
0.0
 42
0.4142135623730951
  0
SEQEND
  5
655
  8
0
  0
POLYLINE
  5
9C
  8
0
 66
     1
 10
0.0
 20
0.0
 30
0.0
 70
     1
  0
VERTEX
  5
249
  8
0
 10
-11.374999999952
 20
-6.504921259818001
 30
0.0
 42
0.4142135623730951
  0
VERTEX
  5
24A
  8
0
 10
-11.624999999952
 20
-6.754921259818001
 30
0.0
  0
VERTEX
  5
24B
  8
0
 10
-11.624999999952
 20
-8.754921259818001
 30
0.0
 42
0.4142135623730951
  0
VERTEX
  5
24C
  8
0
 10
-11.374999999952
 20
-9.004921259818
 30
0.0
  0
VERTEX
  5
24D
  8
0
 10
-10.874999999952
 20
-9.004921259818
 30
0.0
 42
0.4142135623730951
  0
VERTEX
  5
24E
  8
0
 10
-10.624999999952
 20
-8.754921259818001
 30
0.0
  0
VERTEX
  5
24F
  8
0
 10
-10.624999999952
 20
-7.754921259818001
 30
0.0
 42
-0.4142135623730951
  0
VERTEX
  5
250
  8
0
 10
-10.374999999952
 20
-7.504921259818001
 30
0.0
  0
VERTEX
  5
251
  8
0
 10
-9.499999999952
 20
-7.504921259818001
 30
0.0
 42
0.4142135623730951
  0
VERTEX
  5
252
  8
0
 10
-9.249999999952
 20
-7.254921259818001
 30
0.0
  0
VERTEX
  5
253
  8
0
 10
-9.249999999952
 20
-6.754921259818001
 30
0.0
 42
0.4142135623730951
  0
VERTEX
  5
254
  8
0
 10
-9.499999999952001
 20
-6.504921259818001
 30
0.0
  0
SEQEND
  5
656
  8
0
  0
POLYLINE
  5
9D
  8
0
 66
     1
 10
0.0
 20
0.0
 30
0.0
 70
     1
  0
VERTEX
  5
255
  8
0
 10
-11.062499999952
 20
-7.004921259818001
 30
0.0
 42
0.4142135623730951
  0
VERTEX
  5
256
  8
0
 10
-11.124999999952
 20
-6.942421259818001
 30
0.0
 42
0.4142135623730951
  0
VERTEX
  5
257
  8
0
 10
-11.187499999952
 20
-7.004921259818001
 30
0.0
 42
0.4142135623730951
  0
VERTEX
  5
258
  8
0
 10
-11.124999999952
 20
-7.067421259818001
 30
0.0
 42
0.4142135623730951
  0
SEQEND
  5
657
  8
0
  0
POLYLINE
  5
9E
  8
0
 66
     1
 10
0.0
 20
0.0
 30
0.0
 70
     1
  0
VERTEX
  5
259
  8
0
 10
-11.062499999952
 20
-7.879921259818001
 30
0.0
 42
0.4142135623730951
  0
VERTEX
  5
25A
  8
0
 10
-11.124999999952
 20
-7.817421259818001
 30
0.0
 42
0.4142135623730951
  0
VERTEX
  5
25B
  8
0
 10
-11.187499999952
 20
-7.879921259818001
 30
0.0
 42
0.4142135623730951
  0
VERTEX
  5
25C
  8
0
 10
-11.124999999952
 20
-7.942421259818001
 30
0.0
 42
0.4142135623730951
  0
SEQEND
  5
658
  8
0
  0
POLYLINE
  5
9F
  8
0
 66
     1
 10
0.0
 20
0.0
 30
0.0
 70
     1
  0
VERTEX
  5
25D
  8
0
 10
-11.062499999952
 20
-8.629921259818001
 30
0.0
 42
0.4142135623730951
  0
VERTEX
  5
25E
  8
0
 10
-11.124999999952
 20
-8.567421259818001
 30
0.0
 42
0.4142135623730951
  0
VERTEX
  5
25F
  8
0
 10
-11.187499999952
 20
-8.629921259818001
 30
0.0
 42
0.4142135623730951
  0
VERTEX
  5
260
  8
0
 10
-11.124999999952
 20
-8.692421259818001
 30
0.0
 42
0.4142135623730951
  0
SEQEND
  5
659
  8
0
  0
POLYLINE
  5
A0
  8
0
 66
     1
 10
0.0
 20
0.0
 30
0.0
 70
     1
  0
VERTEX
  5
261
  8
0
 10
-10.312499999952
 20
-7.004921259818001
 30
0.0
 42
0.4142135623730951
  0
VERTEX
  5
262
  8
0
 10
-10.374999999952
 20
-6.942421259818001
 30
0.0
 42
0.4142135623730951
  0
VERTEX
  5
263
  8
0
 10
-10.437499999952
 20
-7.004921259818001
 30
0.0
 42
0.4142135623730951
  0
VERTEX
  5
264
  8
0
 10
-10.374999999952
 20
-7.067421259818001
 30
0.0
 42
0.4142135623730951
  0
SEQEND
  5
65A
  8
0
  0
POLYLINE
  5
A1
  8
0
 66
     1
 10
0.0
 20
0.0
 30
0.0
 70
     1
  0
VERTEX
  5
265
  8
0
 10
-9.562499999952
 20
-7.004921259818001
 30
0.0
 42
0.4142135623730951
  0
VERTEX
  5
266
  8
0
 10
-9.624999999952
 20
-6.942421259818001
 30
0.0
 42
0.4142135623730951
  0
VERTEX
  5
267
  8
0
 10
-9.687499999952
 20
-7.004921259818001
 30
0.0
 42
0.4142135623730951
  0
VERTEX
  5
268
  8
0
 10
-9.624999999952
 20
-7.067421259818001
 30
0.0
 42
0.4142135623730951
  0
SEQEND
  5
65B
  8
0
  0
POLYLINE
  5
A2
  8
0
 66
     1
 10
0.0
 20
0.0
 30
0.0
 70
     1
  0
VERTEX
  5
269
  8
0
 10
-11.624999999952
 20
-11.326771653508
 30
0.0
 42
0.4142135623730951
  0
VERTEX
  5
26A
  8
0
 10
-11.374999999952
 20
-11.576771653508
 30
0.0
  0
VERTEX
  5
26B
  8
0
 10
-9.374999999952
 20
-11.576771653508
 30
0.0
 42
0.4142135623730951
  0
VERTEX
  5
26C
  8
0
 10
-9.124999999952001
 20
-11.326771653508
 30
0.0
  0
VERTEX
  5
26D
  8
0
 10
-9.124999999952001
 20
-10.826771653508
 30
0.0
 42
0.4142135623730951
  0
VERTEX
  5
26E
  8
0
 10
-9.374999999952
 20
-10.576771653508
 30
0.0
  0
VERTEX
  5
26F
  8
0
 10
-10.374999999952
 20
-10.576771653508
 30
0.0
 42
-0.4142135623730951
  0
VERTEX
  5
270
  8
0
 10
-10.624999999952
 20
-10.326771653508
 30
0.0
  0
VERTEX
  5
271
  8
0
 10
-10.624999999952
 20
-9.451771653508
 30
0.0
 42
0.4142135623730951
  0
VERTEX
  5
272
  8
0
 10
-10.874999999952
 20
-9.201771653508
 30
0.0
  0
VERTEX
  5
273
  8
0
 10
-11.374999999952
 20
-9.201771653508
 30
0.0
 42
0.4142135623730951
  0
VERTEX
  5
274
  8
0
 10
-11.624999999952
 20
-9.451771653508002
 30
0.0
  0
SEQEND
  5
65C
  8
0
  0
POLYLINE
  5
A3
  8
0
 66
     1
 10
0.0
 20
0.0
 30
0.0
 70
     1
  0
VERTEX
  5
275
  8
0
 10
-11.124999999952
 20
-11.014271653508
 30
0.0
 42
0.4142135623730951
  0
VERTEX
  5
276
  8
0
 10
-11.187499999952
 20
-11.076771653508
 30
0.0
 42
0.4142135623730951
  0
VERTEX
  5
277
  8
0
 10
-11.124999999952
 20
-11.139271653508
 30
0.0
 42
0.4142135623730951
  0
VERTEX
  5
278
  8
0
 10
-11.062499999952
 20
-11.076771653508
 30
0.0
 42
0.4142135623730951
  0
SEQEND
  5
65D
  8
0
  0
POLYLINE
  5
A4
  8
0
 66
     1
 10
0.0
 20
0.0
 30
0.0
 70
     1
  0
VERTEX
  5
279
  8
0
 10
-10.249999999952
 20
-11.014271653508
 30
0.0
 42
0.4142135623730951
  0
VERTEX
  5
27A
  8
0
 10
-10.312499999952
 20
-11.076771653508
 30
0.0
 42
0.4142135623730951
  0
VERTEX
  5
27B
  8
0
 10
-10.249999999952
 20
-11.139271653508
 30
0.0
 42
0.4142135623730951
  0
VERTEX
  5
27C
  8
0
 10
-10.187499999952
 20
-11.076771653508
 30
0.0
 42
0.4142135623730951
  0
SEQEND
  5
65E
  8
0
  0
POLYLINE
  5
A5
  8
0
 66
     1
 10
0.0
 20
0.0
 30
0.0
 70
     1
  0
VERTEX
  5
27D
  8
0
 10
-9.499999999952
 20
-11.014271653508
 30
0.0
 42
0.4142135623730951
  0
VERTEX
  5
27E
  8
0
 10
-9.562499999952
 20
-11.076771653508
 30
0.0
 42
0.4142135623730951
  0
VERTEX
  5
27F
  8
0
 10
-9.499999999952
 20
-11.139271653508
 30
0.0
 42
0.4142135623730951
  0
VERTEX
  5
280
  8
0
 10
-9.437499999952
 20
-11.076771653508
 30
0.0
 42
0.4142135623730951
  0
SEQEND
  5
65F
  8
0
  0
POLYLINE
  5
A6
  8
0
 66
     1
 10
0.0
 20
0.0
 30
0.0
 70
     1
  0
VERTEX
  5
281
  8
0
 10
-11.124999999952
 20
-10.264271653508
 30
0.0
 42
0.4142135623730951
  0
VERTEX
  5
282
  8
0
 10
-11.187499999952
 20
-10.326771653508
 30
0.0
 42
0.4142135623730951
  0
VERTEX
  5
283
  8
0
 10
-11.124999999952
 20
-10.389271653508
 30
0.0
 42
0.4142135623730951
  0
VERTEX
  5
284
  8
0
 10
-11.062499999952
 20
-10.326771653508
 30
0.0
 42
0.4142135623730951
  0
SEQEND
  5
660
  8
0
  0
POLYLINE
  5
A7
  8
0
 66
     1
 10
0.0
 20
0.0
 30
0.0
 70
     1
  0
VERTEX
  5
285
  8
0
 10
-11.124999999952
 20
-9.514271653508
 30
0.0
 42
0.4142135623730951
  0
VERTEX
  5
286
  8
0
 10
-11.187499999952
 20
-9.576771653508
 30
0.0
 42
0.4142135623730951
  0
VERTEX
  5
287
  8
0
 10
-11.124999999952
 20
-9.639271653508
 30
0.0
 42
0.4142135623730951
  0
VERTEX
  5
288
  8
0
 10
-11.062499999952
 20
-9.576771653508
 30
0.0
 42
0.4142135623730951
  0
SEQEND
  5
661
  8
0
  0
POLYLINE
  5
A8
  8
0
 66
     1
 10
0.0
 20
0.0
 30
0.0
 70
     1
  0
VERTEX
  5
289
  8
0
 10
-10.174212598382
 20
-7.705708661388002
 30
0.0
 42
0.4142135623730951
  0
VERTEX
  5
28A
  8
0
 10
-10.424212598382
 20
-7.955708661388002
 30
0.0
  0
VERTEX
  5
28B
  8
0
 10
-10.424212598382
 20
-9.955708661388002
 30
0.0
 42
0.4142135623730951
  0
VERTEX
  5
28C
  8
0
 10
-10.174212598382
 20
-10.205708661388
 30
0.0
  0
VERTEX
  5
28D
  8
0
 10
-9.674212598381999
 20
-10.205708661388
 30
0.0
 42
0.4142135623730951
  0
VERTEX
  5
28E
  8
0
 10
-9.424212598381999
 20
-9.955708661388002
 30
0.0
  0
VERTEX
  5
28F
  8
0
 10
-9.424212598381999
 20
-8.955708661388002
 30
0.0
 42
-0.4142135623730951
  0
VERTEX
  5
290
  8
0
 10
-9.174212598381999
 20
-8.705708661388002
 30
0.0
  0
VERTEX
  5
291
  8
0
 10
-8.299212598381999
 20
-8.705708661388002
 30
0.0
 42
0.4142135623730951
  0
VERTEX
  5
292
  8
0
 10
-8.049212598381999
 20
-8.455708661388002
 30
0.0
  0
VERTEX
  5
293
  8
0
 10
-8.049212598381999
 20
-7.955708661388002
 30
0.0
 42
0.4142135623730951
  0
VERTEX
  5
294
  8
0
 10
-8.299212598382
 20
-7.705708661388002
 30
0.0
  0
SEQEND
  5
662
  8
0
  0
POLYLINE
  5
A9
  8
0
 66
     1
 10
0.0
 20
0.0
 30
0.0
 70
     1
  0
VERTEX
  5
295
  8
0
 10
-9.861712598381999
 20
-8.205708661388002
 30
0.0
 42
0.4142135623730951
  0
VERTEX
  5
296
  8
0
 10
-9.924212598381999
 20
-8.143208661388002
 30
0.0
 42
0.4142135623730951
  0
VERTEX
  5
297
  8
0
 10
-9.986712598381999
 20
-8.205708661388002
 30
0.0
 42
0.4142135623730951
  0
VERTEX
  5
298
  8
0
 10
-9.924212598381999
 20
-8.268208661388002
 30
0.0
 42
0.4142135623730951
  0
SEQEND
  5
663
  8
0
  0
POLYLINE
  5
AA
  8
0
 66
     1
 10
0.0
 20
0.0
 30
0.0
 70
     1
  0
VERTEX
  5
299
  8
0
 10
-9.861712598381999
 20
-9.080708661388002
 30
0.0
 42
0.4142135623730951
  0
VERTEX
  5
29A
  8
0
 10
-9.924212598381999
 20
-9.018208661388002
 30
0.0
 42
0.4142135623730951
  0
VERTEX
  5
29B
  8
0
 10
-9.986712598381999
 20
-9.080708661388002
 30
0.0
 42
0.4142135623730951
  0
VERTEX
  5
29C
  8
0
 10
-9.924212598381999
 20
-9.143208661388002
 30
0.0
 42
0.4142135623730951
  0
SEQEND
  5
664
  8
0
  0
POLYLINE
  5
AB
  8
0
 66
     1
 10
0.0
 20
0.0
 30
0.0
 70
     1
  0
VERTEX
  5
29D
  8
0
 10
-9.861712598381999
 20
-9.830708661388002
 30
0.0
 42
0.4142135623730951
  0
VERTEX
  5
29E
  8
0
 10
-9.924212598381999
 20
-9.768208661388002
 30
0.0
 42
0.4142135623730951
  0
VERTEX
  5
29F
  8
0
 10
-9.986712598381999
 20
-9.830708661388002
 30
0.0
 42
0.4142135623730951
  0
VERTEX
  5
2A0
  8
0
 10
-9.924212598381999
 20
-9.893208661388002
 30
0.0
 42
0.4142135623730951
  0
SEQEND
  5
665
  8
0
  0
POLYLINE
  5
AC
  8
0
 66
     1
 10
0.0
 20
0.0
 30
0.0
 70
     1
  0
VERTEX
  5
2A1
  8
0
 10
-9.111712598381999
 20
-8.205708661388002
 30
0.0
 42
0.4142135623730951
  0
VERTEX
  5
2A2
  8
0
 10
-9.174212598381999
 20
-8.143208661388002
 30
0.0
 42
0.4142135623730951
  0
VERTEX
  5
2A3
  8
0
 10
-9.236712598381999
 20
-8.205708661388002
 30
0.0
 42
0.4142135623730951
  0
VERTEX
  5
2A4
  8
0
 10
-9.174212598381999
 20
-8.268208661388002
 30
0.0
 42
0.4142135623730951
  0
SEQEND
  5
666
  8
0
  0
POLYLINE
  5
AD
  8
0
 66
     1
 10
0.0
 20
0.0
 30
0.0
 70
     1
  0
VERTEX
  5
2A5
  8
0
 10
-8.361712598381999
 20
-8.205708661388002
 30
0.0
 42
0.4142135623730951
  0
VERTEX
  5
2A6
  8
0
 10
-8.424212598381999
 20
-8.143208661388002
 30
0.0
 42
0.4142135623730951
  0
VERTEX
  5
2A7
  8
0
 10
-8.486712598381999
 20
-8.205708661388002
 30
0.0
 42
0.4142135623730951
  0
VERTEX
  5
2A8
  8
0
 10
-8.424212598381999
 20
-8.268208661388002
 30
0.0
 42
0.4142135623730951
  0
SEQEND
  5
667
  8
0
  0
POLYLINE
  5
AE
  8
0
 66
     1
 10
0.0
 20
0.0
 30
0.0
 70
     1
  0
VERTEX
  5
2A9
  8
0
 10
-9.170275590511999
 20
11.624999999952
 30
0.0
 42
0.4142135623730951
  0
VERTEX
  5
2AA
  8
0
 10
-9.420275590511999
 20
11.374999999952
 30
0.0
  0
VERTEX
  5
2AB
  8
0
 10
-9.420275590511999
 20
9.374999999952
 30
0.0
 42
0.4142135623730951
  0
VERTEX
  5
2AC
  8
0
 10
-9.170275590511999
 20
9.124999999952
 30
0.0
  0
VERTEX
  5
2AD
  8
0
 10
-8.670275590511999
 20
9.124999999952
 30
0.0
 42
0.4142135623730951
  0
VERTEX
  5
2AE
  8
0
 10
-8.420275590511999
 20
9.374999999952
 30
0.0
  0
VERTEX
  5
2AF
  8
0
 10
-8.420275590511999
 20
10.374999999952
 30
0.0
 42
-0.4142135623730951
  0
VERTEX
  5
2B0
  8
0
 10
-8.170275590511999
 20
10.624999999952
 30
0.0
  0
VERTEX
  5
2B1
  8
0
 10
-7.295275590511999
 20
10.624999999952
 30
0.0
 42
0.4142135623730951
  0
VERTEX
  5
2B2
  8
0
 10
-7.045275590511999
 20
10.874999999952
 30
0.0
  0
VERTEX
  5
2B3
  8
0
 10
-7.045275590511999
 20
11.374999999952
 30
0.0
 42
0.4142135623730951
  0
VERTEX
  5
2B4
  8
0
 10
-7.295275590512
 20
11.624999999952
 30
0.0
  0
SEQEND
  5
668
  8
0
  0
POLYLINE
  5
AF
  8
0
 66
     1
 10
0.0
 20
0.0
 30
0.0
 70
     1
  0
VERTEX
  5
2B5
  8
0
 10
-8.857775590511999
 20
11.124999999952
 30
0.0
 42
0.4142135623730951
  0
VERTEX
  5
2B6
  8
0
 10
-8.920275590511999
 20
11.187499999952
 30
0.0
 42
0.4142135623730951
  0
VERTEX
  5
2B7
  8
0
 10
-8.982775590511999
 20
11.124999999952
 30
0.0
 42
0.4142135623730951
  0
VERTEX
  5
2B8
  8
0
 10
-8.920275590511999
 20
11.062499999952
 30
0.0
 42
0.4142135623730951
  0
SEQEND
  5
669
  8
0
  0
POLYLINE
  5
B0
  8
0
 66
     1
 10
0.0
 20
0.0
 30
0.0
 70
     1
  0
VERTEX
  5
2B9
  8
0
 10
-8.857775590511999
 20
10.249999999952
 30
0.0
 42
0.4142135623730951
  0
VERTEX
  5
2BA
  8
0
 10
-8.920275590511999
 20
10.312499999952
 30
0.0
 42
0.4142135623730951
  0
VERTEX
  5
2BB
  8
0
 10
-8.982775590511999
 20
10.249999999952
 30
0.0
 42
0.4142135623730951
  0
VERTEX
  5
2BC
  8
0
 10
-8.920275590511999
 20
10.187499999952
 30
0.0
 42
0.4142135623730951
  0
SEQEND
  5
66A
  8
0
  0
POLYLINE
  5
B1
  8
0
 66
     1
 10
0.0
 20
0.0
 30
0.0
 70
     1
  0
VERTEX
  5
2BD
  8
0
 10
-8.857775590511999
 20
9.499999999952
 30
0.0
 42
0.4142135623730951
  0
VERTEX
  5
2BE
  8
0
 10
-8.920275590511999
 20
9.562499999952
 30
0.0
 42
0.4142135623730951
  0
VERTEX
  5
2BF
  8
0
 10
-8.982775590511999
 20
9.499999999952
 30
0.0
 42
0.4142135623730951
  0
VERTEX
  5
2C0
  8
0
 10
-8.920275590511999
 20
9.437499999952
 30
0.0
 42
0.4142135623730951
  0
SEQEND
  5
66B
  8
0
  0
POLYLINE
  5
B2
  8
0
 66
     1
 10
0.0
 20
0.0
 30
0.0
 70
     1
  0
VERTEX
  5
2C1
  8
0
 10
-8.107775590511999
 20
11.124999999952
 30
0.0
 42
0.4142135623730951
  0
VERTEX
  5
2C2
  8
0
 10
-8.170275590511999
 20
11.187499999952
 30
0.0
 42
0.4142135623730951
  0
VERTEX
  5
2C3
  8
0
 10
-8.232775590511999
 20
11.124999999952
 30
0.0
 42
0.4142135623730951
  0
VERTEX
  5
2C4
  8
0
 10
-8.170275590511999
 20
11.062499999952
 30
0.0
 42
0.4142135623730951
  0
SEQEND
  5
66C
  8
0
  0
POLYLINE
  5
B3
  8
0
 66
     1
 10
0.0
 20
0.0
 30
0.0
 70
     1
  0
VERTEX
  5
2C5
  8
0
 10
-7.357775590511999
 20
11.124999999952
 30
0.0
 42
0.4142135623730951
  0
VERTEX
  5
2C6
  8
0
 10
-7.420275590511999
 20
11.187499999952
 30
0.0
 42
0.4142135623730951
  0
VERTEX
  5
2C7
  8
0
 10
-7.482775590511999
 20
11.124999999952
 30
0.0
 42
0.4142135623730951
  0
VERTEX
  5
2C8
  8
0
 10
-7.420275590511999
 20
11.062499999952
 30
0.0
 42
0.4142135623730951
  0
SEQEND
  5
66D
  8
0
  0
POLYLINE
  5
B4
  8
0
 66
     1
 10
0.0
 20
0.0
 30
0.0
 70
     1
  0
VERTEX
  5
2C9
  8
0
 10
-9.170275590511999
 20
-2.646653543298001
 30
0.0
 42
0.4142135623730951
  0
VERTEX
  5
2CA
  8
0
 10
-9.420275590511999
 20
-2.896653543298001
 30
0.0
  0
VERTEX
  5
2CB
  8
0
 10
-9.420275590511999
 20
-4.896653543298001
 30
0.0
 42
0.4142135623730951
  0
VERTEX
  5
2CC
  8
0
 10
-9.170275590511999
 20
-5.146653543297999
 30
0.0
  0
VERTEX
  5
2CD
  8
0
 10
-8.670275590511999
 20
-5.146653543297999
 30
0.0
 42
0.4142135623730951
  0
VERTEX
  5
2CE
  8
0
 10
-8.420275590511999
 20
-4.896653543298001
 30
0.0
  0
VERTEX
  5
2CF
  8
0
 10
-8.420275590511999
 20
-3.896653543298001
 30
0.0
 42
-0.4142135623730951
  0
VERTEX
  5
2D0
  8
0
 10
-8.170275590511999
 20
-3.646653543298001
 30
0.0
  0
VERTEX
  5
2D1
  8
0
 10
-7.295275590511999
 20
-3.646653543298001
 30
0.0
 42
0.4142135623730951
  0
VERTEX
  5
2D2
  8
0
 10
-7.045275590511999
 20
-3.396653543298001
 30
0.0
  0
VERTEX
  5
2D3
  8
0
 10
-7.045275590511999
 20
-2.896653543298001
 30
0.0
 42
0.4142135623730951
  0
VERTEX
  5
2D4
  8
0
 10
-7.295275590512
 20
-2.646653543298001
 30
0.0
  0
SEQEND
  5
66E
  8
0
  0
POLYLINE
  5
B5
  8
0
 66
     1
 10
0.0
 20
0.0
 30
0.0
 70
     1
  0
VERTEX
  5
2D5
  8
0
 10
-8.857775590511999
 20
-3.146653543298001
 30
0.0
 42
0.4142135623730951
  0
VERTEX
  5
2D6
  8
0
 10
-8.920275590511999
 20
-3.084153543298001
 30
0.0
 42
0.4142135623730951
  0
VERTEX
  5
2D7
  8
0
 10
-8.982775590511999
 20
-3.146653543298001
 30
0.0
 42
0.4142135623730951
  0
VERTEX
  5
2D8
  8
0
 10
-8.920275590511999
 20
-3.209153543298001
 30
0.0
 42
0.4142135623730951
  0
SEQEND
  5
66F
  8
0
  0
POLYLINE
  5
B6
  8
0
 66
     1
 10
0.0
 20
0.0
 30
0.0
 70
     1
  0
VERTEX
  5
2D9
  8
0
 10
-8.857775590511999
 20
-4.021653543298001
 30
0.0
 42
0.4142135623730951
  0
VERTEX
  5
2DA
  8
0
 10
-8.920275590511999
 20
-3.959153543298001
 30
0.0
 42
0.4142135623730951
  0
VERTEX
  5
2DB
  8
0
 10
-8.982775590511999
 20
-4.021653543298001
 30
0.0
 42
0.4142135623730951
  0
VERTEX
  5
2DC
  8
0
 10
-8.920275590511999
 20
-4.084153543298001
 30
0.0
 42
0.4142135623730951
  0
SEQEND
  5
670
  8
0
  0
POLYLINE
  5
B7
  8
0
 66
     1
 10
0.0
 20
0.0
 30
0.0
 70
     1
  0
VERTEX
  5
2DD
  8
0
 10
-8.857775590511999
 20
-4.771653543298001
 30
0.0
 42
0.4142135623730951
  0
VERTEX
  5
2DE
  8
0
 10
-8.920275590511999
 20
-4.709153543298001
 30
0.0
 42
0.4142135623730951
  0
VERTEX
  5
2DF
  8
0
 10
-8.982775590511999
 20
-4.771653543298001
 30
0.0
 42
0.4142135623730951
  0
VERTEX
  5
2E0
  8
0
 10
-8.920275590511999
 20
-4.834153543298001
 30
0.0
 42
0.4142135623730951
  0
SEQEND
  5
671
  8
0
  0
POLYLINE
  5
B8
  8
0
 66
     1
 10
0.0
 20
0.0
 30
0.0
 70
     1
  0
VERTEX
  5
2E1
  8
0
 10
-8.107775590511999
 20
-3.146653543298001
 30
0.0
 42
0.4142135623730951
  0
VERTEX
  5
2E2
  8
0
 10
-8.170275590511999
 20
-3.084153543298001
 30
0.0
 42
0.4142135623730951
  0
VERTEX
  5
2E3
  8
0
 10
-8.232775590511999
 20
-3.146653543298001
 30
0.0
 42
0.4142135623730951
  0
VERTEX
  5
2E4
  8
0
 10
-8.170275590511999
 20
-3.209153543298001
 30
0.0
 42
0.4142135623730951
  0
SEQEND
  5
672
  8
0
  0
POLYLINE
  5
B9
  8
0
 66
     1
 10
0.0
 20
0.0
 30
0.0
 70
     1
  0
VERTEX
  5
2E5
  8
0
 10
-7.357775590511999
 20
-3.146653543298001
 30
0.0
 42
0.4142135623730951
  0
VERTEX
  5
2E6
  8
0
 10
-7.420275590511999
 20
-3.084153543298001
 30
0.0
 42
0.4142135623730951
  0
VERTEX
  5
2E7
  8
0
 10
-7.482775590511999
 20
-3.146653543298001
 30
0.0
 42
0.4142135623730951
  0
VERTEX
  5
2E8
  8
0
 10
-7.420275590511999
 20
-3.209153543298001
 30
0.0
 42
0.4142135623730951
  0
SEQEND
  5
673
  8
0
  0
POLYLINE
  5
BA
  8
0
 66
     1
 10
0.0
 20
0.0
 30
0.0
 70
     1
  0
VERTEX
  5
2E9
  8
0
 10
-8.678149606261998
 20
-8.906496062958002
 30
0.0
 42
0.4142135623730951
  0
VERTEX
  5
2EA
  8
0
 10
-8.928149606261998
 20
-9.156496062958002
 30
0.0
  0
VERTEX
  5
2EB
  8
0
 10
-8.928149606261998
 20
-11.156496062958
 30
0.0
 42
0.4142135623730951
  0
VERTEX
  5
2EC
  8
0
 10
-8.678149606261998
 20
-11.406496062958
 30
0.0
  0
VERTEX
  5
2ED
  8
0
 10
-8.178149606261998
 20
-11.406496062958
 30
0.0
 42
0.4142135623730951
  0
VERTEX
  5
2EE
  8
0
 10
-7.928149606261998
 20
-11.156496062958
 30
0.0
  0
VERTEX
  5
2EF
  8
0
 10
-7.928149606261998
 20
-10.156496062958
 30
0.0
 42
-0.4142135623730951
  0
VERTEX
  5
2F0
  8
0
 10
-7.678149606261998
 20
-9.906496062958002
 30
0.0
  0
VERTEX
  5
2F1
  8
0
 10
-6.803149606261998
 20
-9.906496062958002
 30
0.0
 42
0.4142135623730951
  0
VERTEX
  5
2F2
  8
0
 10
-6.553149606261998
 20
-9.656496062958002
 30
0.0
  0
VERTEX
  5
2F3
  8
0
 10
-6.553149606261998
 20
-9.156496062958002
 30
0.0
 42
0.4142135623730951
  0
VERTEX
  5
2F4
  8
0
 10
-6.803149606262
 20
-8.906496062958002
 30
0.0
  0
SEQEND
  5
674
  8
0
  0
POLYLINE
  5
BB
  8
0
 66
     1
 10
0.0
 20
0.0
 30
0.0
 70
     1
  0
VERTEX
  5
2F5
  8
0
 10
-8.365649606261998
 20
-9.406496062958002
 30
0.0
 42
0.4142135623730951
  0
VERTEX
  5
2F6
  8
0
 10
-8.428149606261998
 20
-9.343996062958002
 30
0.0
 42
0.4142135623730951
  0
VERTEX
  5
2F7
  8
0
 10
-8.490649606261998
 20
-9.406496062958002
 30
0.0
 42
0.4142135623730951
  0
VERTEX
  5
2F8
  8
0
 10
-8.428149606261998
 20
-9.468996062958002
 30
0.0
 42
0.4142135623730951
  0
SEQEND
  5
675
  8
0
  0
POLYLINE
  5
BC
  8
0
 66
     1
 10
0.0
 20
0.0
 30
0.0
 70
     1
  0
VERTEX
  5
2F9
  8
0
 10
-8.365649606261998
 20
-10.281496062958
 30
0.0
 42
0.4142135623730951
  0
VERTEX
  5
2FA
  8
0
 10
-8.428149606261998
 20
-10.218996062958
 30
0.0
 42
0.4142135623730951
  0
VERTEX
  5
2FB
  8
0
 10
-8.490649606261998
 20
-10.281496062958
 30
0.0
 42
0.4142135623730951
  0
VERTEX
  5
2FC
  8
0
 10
-8.428149606261998
 20
-10.343996062958
 30
0.0
 42
0.4142135623730951
  0
SEQEND
  5
676
  8
0
  0
POLYLINE
  5
BD
  8
0
 66
     1
 10
0.0
 20
0.0
 30
0.0
 70
     1
  0
VERTEX
  5
2FD
  8
0
 10
-8.365649606261998
 20
-11.031496062958
 30
0.0
 42
0.4142135623730951
  0
VERTEX
  5
2FE
  8
0
 10
-8.428149606261998
 20
-10.968996062958
 30
0.0
 42
0.4142135623730951
  0
VERTEX
  5
2FF
  8
0
 10
-8.490649606261998
 20
-11.031496062958
 30
0.0
 42
0.4142135623730951
  0
VERTEX
  5
300
  8
0
 10
-8.428149606261998
 20
-11.093996062958
 30
0.0
 42
0.4142135623730951
  0
SEQEND
  5
677
  8
0
  0
POLYLINE
  5
BE
  8
0
 66
     1
 10
0.0
 20
0.0
 30
0.0
 70
     1
  0
VERTEX
  5
301
  8
0
 10
-7.615649606261999
 20
-9.406496062958002
 30
0.0
 42
0.4142135623730951
  0
VERTEX
  5
302
  8
0
 10
-7.678149606261999
 20
-9.343996062958002
 30
0.0
 42
0.4142135623730951
  0
VERTEX
  5
303
  8
0
 10
-7.740649606261999
 20
-9.406496062958002
 30
0.0
 42
0.4142135623730951
  0
VERTEX
  5
304
  8
0
 10
-7.678149606261999
 20
-9.468996062958002
 30
0.0
 42
0.4142135623730951
  0
SEQEND
  5
678
  8
0
  0
POLYLINE
  5
BF
  8
0
 66
     1
 10
0.0
 20
0.0
 30
0.0
 70
     1
  0
VERTEX
  5
305
  8
0
 10
-6.865649606261998
 20
-9.406496062958002
 30
0.0
 42
0.4142135623730951
  0
VERTEX
  5
306
  8
0
 10
-6.928149606261998
 20
-9.343996062958002
 30
0.0
 42
0.4142135623730951
  0
VERTEX
  5
307
  8
0
 10
-6.990649606261998
 20
-9.406496062958002
 30
0.0
 42
0.4142135623730951
  0
VERTEX
  5
308
  8
0
 10
-6.928149606261998
 20
-9.468996062958002
 30
0.0
 42
0.4142135623730951
  0
SEQEND
  5
679
  8
0
  0
POLYLINE
  5
C0
  8
0
 66
     1
 10
0.0
 20
0.0
 30
0.0
 70
     1
  0
VERTEX
  5
309
  8
0
 10
-7.295275590511999
 20
-6.347440944868
 30
0.0
 42
0.4142135623730951
  0
VERTEX
  5
30A
  8
0
 10
-7.045275590511999
 20
-6.097440944868
 30
0.0
  0
VERTEX
  5
30B
  8
0
 10
-7.045275590511999
 20
-4.097440944868
 30
0.0
 42
0.4142135623730951
  0
VERTEX
  5
30C
  8
0
 10
-7.295275590511999
 20
-3.847440944868001
 30
0.0
  0
VERTEX
  5
30D
  8
0
 10
-7.795275590511999
 20
-3.847440944868001
 30
0.0
 42
0.4142135623730951
  0
VERTEX
  5
30E
  8
0
 10
-8.045275590511999
 20
-4.097440944868
 30
0.0
  0
VERTEX
  5
30F
  8
0
 10
-8.045275590511999
 20
-5.097440944868
 30
0.0
 42
-0.4142135623730951
  0
VERTEX
  5
310
  8
0
 10
-8.295275590511999
 20
-5.347440944868
 30
0.0
  0
VERTEX
  5
311
  8
0
 10
-9.170275590511999
 20
-5.347440944868
 30
0.0
 42
0.4142135623730951
  0
VERTEX
  5
312
  8
0
 10
-9.420275590511999
 20
-5.597440944868
 30
0.0
  0
VERTEX
  5
313
  8
0
 10
-9.420275590511999
 20
-6.097440944868
 30
0.0
 42
0.4142135623730951
  0
VERTEX
  5
314
  8
0
 10
-9.170275590511999
 20
-6.347440944868
 30
0.0
  0
SEQEND
  5
67A
  8
0
  0
POLYLINE
  5
C1
  8
0
 66
     1
 10
0.0
 20
0.0
 30
0.0
 70
     1
  0
VERTEX
  5
315
  8
0
 10
-7.607775590511999
 20
-5.847440944868
 30
0.0
 42
0.4142135623730951
  0
VERTEX
  5
316
  8
0
 10
-7.545275590511999
 20
-5.909940944868
 30
0.0
 42
0.4142135623730951
  0
VERTEX
  5
317
  8
0
 10
-7.482775590511999
 20
-5.847440944868
 30
0.0
 42
0.4142135623730951
  0
VERTEX
  5
318
  8
0
 10
-7.545275590511999
 20
-5.784940944868
 30
0.0
 42
0.4142135623730951
  0
SEQEND
  5
67B
  8
0
  0
POLYLINE
  5
C2
  8
0
 66
     1
 10
0.0
 20
0.0
 30
0.0
 70
     1
  0
VERTEX
  5
319
  8
0
 10
-7.607775590511999
 20
-4.972440944868
 30
0.0
 42
0.4142135623730951
  0
VERTEX
  5
31A
  8
0
 10
-7.545275590511999
 20
-5.034940944868
 30
0.0
 42
0.4142135623730951
  0
VERTEX
  5
31B
  8
0
 10
-7.482775590511999
 20
-4.972440944868
 30
0.0
 42
0.4142135623730951
  0
VERTEX
  5
31C
  8
0
 10
-7.545275590511999
 20
-4.909940944868
 30
0.0
 42
0.4142135623730951
  0
SEQEND
  5
67C
  8
0
  0
POLYLINE
  5
C3
  8
0
 66
     1
 10
0.0
 20
0.0
 30
0.0
 70
     1
  0
VERTEX
  5
31D
  8
0
 10
-7.607775590511999
 20
-4.222440944868
 30
0.0
 42
0.4142135623730951
  0
VERTEX
  5
31E
  8
0
 10
-7.545275590511999
 20
-4.284940944868
 30
0.0
 42
0.4142135623730951
  0
VERTEX
  5
31F
  8
0
 10
-7.482775590511999
 20
-4.222440944868
 30
0.0
 42
0.4142135623730951
  0
VERTEX
  5
320
  8
0
 10
-7.545275590511999
 20
-4.159940944868
 30
0.0
 42
0.4142135623730951
  0
SEQEND
  5
67D
  8
0
  0
POLYLINE
  5
C4
  8
0
 66
     1
 10
0.0
 20
0.0
 30
0.0
 70
     1
  0
VERTEX
  5
321
  8
0
 10
-8.357775590511999
 20
-5.847440944868
 30
0.0
 42
0.4142135623730951
  0
VERTEX
  5
322
  8
0
 10
-8.295275590511999
 20
-5.909940944868
 30
0.0
 42
0.4142135623730951
  0
VERTEX
  5
323
  8
0
 10
-8.232775590511999
 20
-5.847440944868
 30
0.0
 42
0.4142135623730951
  0
VERTEX
  5
324
  8
0
 10
-8.295275590511999
 20
-5.784940944868
 30
0.0
 42
0.4142135623730951
  0
SEQEND
  5
67E
  8
0
  0
POLYLINE
  5
C5
  8
0
 66
     1
 10
0.0
 20
0.0
 30
0.0
 70
     1
  0
VERTEX
  5
325
  8
0
 10
-9.107775590511999
 20
-5.847440944868
 30
0.0
 42
0.4142135623730951
  0
VERTEX
  5
326
  8
0
 10
-9.045275590511999
 20
-5.909940944868
 30
0.0
 42
0.4142135623730951
  0
VERTEX
  5
327
  8
0
 10
-8.982775590511999
 20
-5.847440944868
 30
0.0
 42
0.4142135623730951
  0
VERTEX
  5
328
  8
0
 10
-9.045275590511999
 20
-5.784940944868
 30
0.0
 42
0.4142135623730951
  0
SEQEND
  5
67F
  8
0
  0
POLYLINE
  5
C6
  8
0
 66
     1
 10
0.0
 20
0.0
 30
0.0
 70
     1
  0
VERTEX
  5
329
  8
0
 10
-7.275590551142001
 20
7.924212598382002
 30
0.0
 42
0.4142135623730951
  0
VERTEX
  5
32A
  8
0
 10
-7.025590551142001
 20
8.174212598382002
 30
0.0
  0
VERTEX
  5
32B
  8
0
 10
-7.025590551142001
 20
10.174212598382
 30
0.0
 42
0.4142135623730951
  0
VERTEX
  5
32C
  8
0
 10
-7.275590551142001
 20
10.424212598382
 30
0.0
  0
VERTEX
  5
32D
  8
0
 10
-7.775590551142001
 20
10.424212598382
 30
0.0
 42
0.4142135623730951
  0
VERTEX
  5
32E
  8
0
 10
-8.025590551142
 20
10.174212598382
 30
0.0
  0
VERTEX
  5
32F
  8
0
 10
-8.025590551142
 20
9.174212598382002
 30
0.0
 42
-0.4142135623730951
  0
VERTEX
  5
330
  8
0
 10
-8.275590551142
 20
8.924212598382002
 30
0.0
  0
VERTEX
  5
331
  8
0
 10
-9.150590551142
 20
8.924212598382002
 30
0.0
 42
0.4142135623730951
  0
VERTEX
  5
332
  8
0
 10
-9.400590551142
 20
8.674212598382002
 30
0.0
  0
VERTEX
  5
333
  8
0
 10
-9.400590551142
 20
8.174212598382002
 30
0.0
 42
0.4142135623730951
  0
VERTEX
  5
334
  8
0
 10
-9.150590551141999
 20
7.924212598382002
 30
0.0
  0
SEQEND
  5
680
  8
0
  0
POLYLINE
  5
C7
  8
0
 66
     1
 10
0.0
 20
0.0
 30
0.0
 70
     1
  0
VERTEX
  5
335
  8
0
 10
-7.588090551142001
 20
8.424212598382002
 30
0.0
 42
0.4142135623730951
  0
VERTEX
  5
336
  8
0
 10
-7.525590551142001
 20
8.361712598382002
 30
0.0
 42
0.4142135623730951
  0
VERTEX
  5
337
  8
0
 10
-7.463090551142001
 20
8.424212598382002
 30
0.0
 42
0.4142135623730951
  0
VERTEX
  5
338
  8
0
 10
-7.525590551142001
 20
8.486712598382002
 30
0.0
 42
0.4142135623730951
  0
SEQEND
  5
681
  8
0
  0
POLYLINE
  5
C8
  8
0
 66
     1
 10
0.0
 20
0.0
 30
0.0
 70
     1
  0
VERTEX
  5
339
  8
0
 10
-7.588090551142001
 20
9.299212598382002
 30
0.0
 42
0.4142135623730951
  0
VERTEX
  5
33A
  8
0
 10
-7.525590551142001
 20
9.236712598382002
 30
0.0
 42
0.4142135623730951
  0
VERTEX
  5
33B
  8
0
 10
-7.463090551142001
 20
9.299212598382002
 30
0.0
 42
0.4142135623730951
  0
VERTEX
  5
33C
  8
0
 10
-7.525590551142001
 20
9.361712598382002
 30
0.0
 42
0.4142135623730951
  0
SEQEND
  5
682
  8
0
  0
POLYLINE
  5
C9
  8
0
 66
     1
 10
0.0
 20
0.0
 30
0.0
 70
     1
  0
VERTEX
  5
33D
  8
0
 10
-7.588090551142001
 20
10.049212598382
 30
0.0
 42
0.4142135623730951
  0
VERTEX
  5
33E
  8
0
 10
-7.525590551142001
 20
9.986712598382002
 30
0.0
 42
0.4142135623730951
  0
VERTEX
  5
33F
  8
0
 10
-7.463090551142001
 20
10.049212598382
 30
0.0
 42
0.4142135623730951
  0
VERTEX
  5
340
  8
0
 10
-7.525590551142001
 20
10.111712598382
 30
0.0
 42
0.4142135623730951
  0
SEQEND
  5
683
  8
0
  0
POLYLINE
  5
CA
  8
0
 66
     1
 10
0.0
 20
0.0
 30
0.0
 70
     1
  0
VERTEX
  5
341
  8
0
 10
-8.338090551142
 20
8.424212598382002
 30
0.0
 42
0.4142135623730951
  0
VERTEX
  5
342
  8
0
 10
-8.275590551142
 20
8.361712598382002
 30
0.0
 42
0.4142135623730951
  0
VERTEX
  5
343
  8
0
 10
-8.213090551142
 20
8.424212598382002
 30
0.0
 42
0.4142135623730951
  0
VERTEX
  5
344
  8
0
 10
-8.275590551142
 20
8.486712598382002
 30
0.0
 42
0.4142135623730951
  0
SEQEND
  5
684
  8
0
  0
POLYLINE
  5
CB
  8
0
 66
     1
 10
0.0
 20
0.0
 30
0.0
 70
     1
  0
VERTEX
  5
345
  8
0
 10
-9.088090551142
 20
8.424212598382002
 30
0.0
 42
0.4142135623730951
  0
VERTEX
  5
346
  8
0
 10
-9.025590551142
 20
8.361712598382002
 30
0.0
 42
0.4142135623730951
  0
VERTEX
  5
347
  8
0
 10
-8.963090551142
 20
8.424212598382002
 30
0.0
 42
0.4142135623730951
  0
VERTEX
  5
348
  8
0
 10
-9.025590551142
 20
8.486712598382002
 30
0.0
 42
0.4142135623730951
  0
SEQEND
  5
685
  8
0
  0
POLYLINE
  5
CC
  8
0
 66
     1
 10
0.0
 20
0.0
 30
0.0
 70
     1
  0
VERTEX
  5
349
  8
0
 10
-5.542322834612001
 20
-6.794291338558001
 30
0.0
 42
0.4142135623730951
  0
VERTEX
  5
34A
  8
0
 10
-5.792322834612001
 20
-6.544291338558001
 30
0.0
  0
VERTEX
  5
34B
  8
0
 10
-7.792322834612001
 20
-6.544291338558
 30
0.0
 42
0.4142135623730951
  0
VERTEX
  5
34C
  8
0
 10
-8.042322834612
 20
-6.794291338558
 30
0.0
  0
VERTEX
  5
34D
  8
0
 10
-8.042322834612
 20
-7.294291338558
 30
0.0
 42
0.4142135623730951
  0
VERTEX
  5
34E
  8
0
 10
-7.792322834612001
 20
-7.544291338558
 30
0.0
  0
VERTEX
  5
34F
  8
0
 10
-6.792322834612001
 20
-7.544291338558001
 30
0.0
 42
-0.4142135623730951
  0
VERTEX
  5
350
  8
0
 10
-6.542322834612001
 20
-7.794291338558001
 30
0.0
  0
VERTEX
  5
351
  8
0
 10
-6.542322834612001
 20
-8.669291338558
 30
0.0
 42
0.4142135623730951
  0
VERTEX
  5
352
  8
0
 10
-6.292322834612001
 20
-8.919291338558
 30
0.0
  0
VERTEX
  5
353
  8
0
 10
-5.792322834612001
 20
-8.919291338558
 30
0.0
 42
0.4142135623730951
  0
VERTEX
  5
354
  8
0
 10
-5.542322834612001
 20
-8.669291338557999
 30
0.0
  0
SEQEND
  5
686
  8
0
  0
POLYLINE
  5
CD
  8
0
 66
     1
 10
0.0
 20
0.0
 30
0.0
 70
     1
  0
VERTEX
  5
355
  8
0
 10
-6.042322834612001
 20
-7.106791338558001
 30
0.0
 42
0.4142135623730951
  0
VERTEX
  5
356
  8
0
 10
-5.979822834612001
 20
-7.044291338558001
 30
0.0
 42
0.4142135623730951
  0
VERTEX
  5
357
  8
0
 10
-6.042322834612001
 20
-6.981791338558001
 30
0.0
 42
0.4142135623730951
  0
VERTEX
  5
358
  8
0
 10
-6.104822834612001
 20
-7.044291338558001
 30
0.0
 42
0.4142135623730951
  0
SEQEND
  5
687
  8
0
  0
POLYLINE
  5
CE
  8
0
 66
     1
 10
0.0
 20
0.0
 30
0.0
 70
     1
  0
VERTEX
  5
359
  8
0
 10
-6.917322834612001
 20
-7.106791338558
 30
0.0
 42
0.4142135623730951
  0
VERTEX
  5
35A
  8
0
 10
-6.854822834612001
 20
-7.044291338558
 30
0.0
 42
0.4142135623730951
  0
VERTEX
  5
35B
  8
0
 10
-6.917322834612001
 20
-6.981791338558
 30
0.0
 42
0.4142135623730951
  0
VERTEX
  5
35C
  8
0
 10
-6.979822834612001
 20
-7.044291338558
 30
0.0
 42
0.4142135623730951
  0
SEQEND
  5
688
  8
0
  0
POLYLINE
  5
CF
  8
0
 66
     1
 10
0.0
 20
0.0
 30
0.0
 70
     1
  0
VERTEX
  5
35D
  8
0
 10
-7.667322834612001
 20
-7.106791338558
 30
0.0
 42
0.4142135623730951
  0
VERTEX
  5
35E
  8
0
 10
-7.604822834612001
 20
-7.044291338558
 30
0.0
 42
0.4142135623730951
  0
VERTEX
  5
35F
  8
0
 10
-7.667322834612001
 20
-6.981791338558
 30
0.0
 42
0.4142135623730951
  0
VERTEX
  5
360
  8
0
 10
-7.729822834612001
 20
-7.044291338558
 30
0.0
 42
0.4142135623730951
  0
SEQEND
  5
689
  8
0
  0
POLYLINE
  5
D0
  8
0
 66
     1
 10
0.0
 20
0.0
 30
0.0
 70
     1
  0
VERTEX
  5
361
  8
0
 10
-6.042322834612001
 20
-7.856791338558001
 30
0.0
 42
0.4142135623730951
  0
VERTEX
  5
362
  8
0
 10
-5.979822834612001
 20
-7.794291338558001
 30
0.0
 42
0.4142135623730951
  0
VERTEX
  5
363
  8
0
 10
-6.042322834612001
 20
-7.731791338558001
 30
0.0
 42
0.4142135623730951
  0
VERTEX
  5
364
  8
0
 10
-6.104822834612001
 20
-7.794291338558001
 30
0.0
 42
0.4142135623730951
  0
SEQEND
  5
68A
  8
0
  0
POLYLINE
  5
D1
  8
0
 66
     1
 10
0.0
 20
0.0
 30
0.0
 70
     1
  0
VERTEX
  5
365
  8
0
 10
-6.042322834612001
 20
-8.606791338558
 30
0.0
 42
0.4142135623730951
  0
VERTEX
  5
366
  8
0
 10
-5.979822834612001
 20
-8.544291338558
 30
0.0
 42
0.4142135623730951
  0
VERTEX
  5
367
  8
0
 10
-6.042322834612001
 20
-8.481791338558
 30
0.0
 42
0.4142135623730951
  0
VERTEX
  5
368
  8
0
 10
-6.104822834612001
 20
-8.544291338558
 30
0.0
 42
0.4142135623730951
  0
SEQEND
  5
68B
  8
0
  0
POLYLINE
  5
D2
  8
0
 66
     1
 10
0.0
 20
0.0
 30
0.0
 70
     1
  0
VERTEX
  5
369
  8
0
 10
-5.090551181071999
 20
-11.603346456658
 30
0.0
 42
0.4142135623730951
  0
VERTEX
  5
36A
  8
0
 10
-4.840551181071999
 20
-11.353346456658
 30
0.0
  0
VERTEX
  5
36B
  8
0
 10
-4.840551181071998
 20
-9.353346456658
 30
0.0
 42
0.4142135623730951
  0
VERTEX
  5
36C
  8
0
 10
-5.090551181071998
 20
-9.103346456658002
 30
0.0
  0
VERTEX
  5
36D
  8
0
 10
-5.590551181071998
 20
-9.103346456658002
 30
0.0
 42
0.4142135623730951
  0
VERTEX
  5
36E
  8
0
 10
-5.840551181071998
 20
-9.353346456658
 30
0.0
  0
VERTEX
  5
36F
  8
0
 10
-5.840551181071998
 20
-10.353346456658
 30
0.0
 42
-0.4142135623730951
  0
VERTEX
  5
370
  8
0
 10
-6.090551181071998
 20
-10.603346456658
 30
0.0
  0
VERTEX
  5
371
  8
0
 10
-6.965551181071999
 20
-10.603346456658
 30
0.0
 42
0.4142135623730951
  0
VERTEX
  5
372
  8
0
 10
-7.215551181071999
 20
-10.853346456658
 30
0.0
  0
VERTEX
  5
373
  8
0
 10
-7.215551181071999
 20
-11.353346456658
 30
0.0
 42
0.4142135623730951
  0
VERTEX
  5
374
  8
0
 10
-6.965551181071997
 20
-11.603346456658
 30
0.0
  0
SEQEND
  5
68C
  8
0
  0
POLYLINE
  5
D3
  8
0
 66
     1
 10
0.0
 20
0.0
 30
0.0
 70
     1
  0
VERTEX
  5
375
  8
0
 10
-5.403051181071998
 20
-11.103346456658
 30
0.0
 42
0.4142135623730951
  0
VERTEX
  5
376
  8
0
 10
-5.340551181071998
 20
-11.165846456658
 30
0.0
 42
0.4142135623730951
  0
VERTEX
  5
377
  8
0
 10
-5.278051181071998
 20
-11.103346456658
 30
0.0
 42
0.4142135623730951
  0
VERTEX
  5
378
  8
0
 10
-5.340551181071998
 20
-11.040846456658
 30
0.0
 42
0.4142135623730951
  0
SEQEND
  5
68D
  8
0
  0
POLYLINE
  5
D4
  8
0
 66
     1
 10
0.0
 20
0.0
 30
0.0
 70
     1
  0
VERTEX
  5
379
  8
0
 10
-5.403051181071998
 20
-10.228346456658
 30
0.0
 42
0.4142135623730951
  0
VERTEX
  5
37A
  8
0
 10
-5.340551181071998
 20
-10.290846456658
 30
0.0
 42
0.4142135623730951
  0
VERTEX
  5
37B
  8
0
 10
-5.278051181071998
 20
-10.228346456658
 30
0.0
 42
0.4142135623730951
  0
VERTEX
  5
37C
  8
0
 10
-5.340551181071998
 20
-10.165846456658
 30
0.0
 42
0.4142135623730951
  0
SEQEND
  5
68E
  8
0
  0
POLYLINE
  5
D5
  8
0
 66
     1
 10
0.0
 20
0.0
 30
0.0
 70
     1
  0
VERTEX
  5
37D
  8
0
 10
-5.403051181071998
 20
-9.478346456658
 30
0.0
 42
0.4142135623730951
  0
VERTEX
  5
37E
  8
0
 10
-5.340551181071998
 20
-9.540846456658
 30
0.0
 42
0.4142135623730951
  0
VERTEX
  5
37F
  8
0
 10
-5.278051181071998
 20
-9.478346456658
 30
0.0
 42
0.4142135623730951
  0
VERTEX
  5
380
  8
0
 10
-5.340551181071998
 20
-9.415846456658
 30
0.0
 42
0.4142135623730951
  0
SEQEND
  5
68F
  8
0
  0
POLYLINE
  5
D6
  8
0
 66
     1
 10
0.0
 20
0.0
 30
0.0
 70
     1
  0
VERTEX
  5
381
  8
0
 10
-6.153051181071998
 20
-11.103346456658
 30
0.0
 42
0.4142135623730951
  0
VERTEX
  5
382
  8
0
 10
-6.090551181071998
 20
-11.165846456658
 30
0.0
 42
0.4142135623730951
  0
VERTEX
  5
383
  8
0
 10
-6.028051181071998
 20
-11.103346456658
 30
0.0
 42
0.4142135623730951
  0
VERTEX
  5
384
  8
0
 10
-6.090551181071998
 20
-11.040846456658
 30
0.0
 42
0.4142135623730951
  0
SEQEND
  5
690
  8
0
  0
POLYLINE
  5
D7
  8
0
 66
     1
 10
0.0
 20
0.0
 30
0.0
 70
     1
  0
VERTEX
  5
385
  8
0
 10
-6.903051181071999
 20
-11.103346456658
 30
0.0
 42
0.4142135623730951
  0
VERTEX
  5
386
  8
0
 10
-6.840551181071999
 20
-11.165846456658
 30
0.0
 42
0.4142135623730951
  0
VERTEX
  5
387
  8
0
 10
-6.778051181071999
 20
-11.103346456658
 30
0.0
 42
0.4142135623730951
  0
VERTEX
  5
388
  8
0
 10
-6.840551181071999
 20
-11.040846456658
 30
0.0
 42
0.4142135623730951
  0
SEQEND
  5
691
  8
0
  0
POLYLINE
  5
D8
  8
0
 66
     1
 10
0.0
 20
0.0
 30
0.0
 70
     1
  0
VERTEX
  5
389
  8
0
 10
-3.186023622032003
 20
11.624999999952
 30
0.0
 42
0.4142135623730951
  0
VERTEX
  5
38A
  8
0
 10
-3.436023622032003
 20
11.374999999952
 30
0.0
  0
VERTEX
  5
38B
  8
0
 10
-3.436023622032003
 20
9.374999999952
 30
0.0
 42
0.4142135623730951
  0
VERTEX
  5
38C
  8
0
 10
-3.186023622032003
 20
9.124999999952
 30
0.0
  0
VERTEX
  5
38D
  8
0
 10
-2.686023622032003
 20
9.124999999952
 30
0.0
 42
0.4142135623730951
  0
VERTEX
  5
38E
  8
0
 10
-2.436023622032003
 20
9.374999999952
 30
0.0
  0
VERTEX
  5
38F
  8
0
 10
-2.436023622032003
 20
10.374999999952
 30
0.0
 42
-0.4142135623730951
  0
VERTEX
  5
390
  8
0
 10
-2.186023622032003
 20
10.624999999952
 30
0.0
  0
VERTEX
  5
391
  8
0
 10
-1.311023622032002
 20
10.624999999952
 30
0.0
 42
0.4142135623730951
  0
VERTEX
  5
392
  8
0
 10
-1.061023622032002
 20
10.874999999952
 30
0.0
  0
VERTEX
  5
393
  8
0
 10
-1.061023622032002
 20
11.374999999952
 30
0.0
 42
0.4142135623730951
  0
VERTEX
  5
394
  8
0
 10
-1.311023622032003
 20
11.624999999952
 30
0.0
  0
SEQEND
  5
692
  8
0
  0
POLYLINE
  5
D9
  8
0
 66
     1
 10
0.0
 20
0.0
 30
0.0
 70
     1
  0
VERTEX
  5
395
  8
0
 10
-2.873523622032003
 20
11.124999999952
 30
0.0
 42
0.4142135623730951
  0
VERTEX
  5
396
  8
0
 10
-2.936023622032003
 20
11.187499999952
 30
0.0
 42
0.4142135623730951
  0
VERTEX
  5
397
  8
0
 10
-2.998523622032003
 20
11.124999999952
 30
0.0
 42
0.4142135623730951
  0
VERTEX
  5
398
  8
0
 10
-2.936023622032003
 20
11.062499999952
 30
0.0
 42
0.4142135623730951
  0
SEQEND
  5
693
  8
0
  0
POLYLINE
  5
DA
  8
0
 66
     1
 10
0.0
 20
0.0
 30
0.0
 70
     1
  0
VERTEX
  5
399
  8
0
 10
-2.873523622032003
 20
10.249999999952
 30
0.0
 42
0.4142135623730951
  0
VERTEX
  5
39A
  8
0
 10
-2.936023622032003
 20
10.312499999952
 30
0.0
 42
0.4142135623730951
  0
VERTEX
  5
39B
  8
0
 10
-2.998523622032003
 20
10.249999999952
 30
0.0
 42
0.4142135623730951
  0
VERTEX
  5
39C
  8
0
 10
-2.936023622032003
 20
10.187499999952
 30
0.0
 42
0.4142135623730951
  0
SEQEND
  5
694
  8
0
  0
POLYLINE
  5
DB
  8
0
 66
     1
 10
0.0
 20
0.0
 30
0.0
 70
     1
  0
VERTEX
  5
39D
  8
0
 10
-2.873523622032003
 20
9.499999999952
 30
0.0
 42
0.4142135623730951
  0
VERTEX
  5
39E
  8
0
 10
-2.936023622032003
 20
9.562499999952
 30
0.0
 42
0.4142135623730951
  0
VERTEX
  5
39F
  8
0
 10
-2.998523622032003
 20
9.499999999952
 30
0.0
 42
0.4142135623730951
  0
VERTEX
  5
3A0
  8
0
 10
-2.936023622032003
 20
9.437499999952
 30
0.0
 42
0.4142135623730951
  0
SEQEND
  5
695
  8
0
  0
POLYLINE
  5
DC
  8
0
 66
     1
 10
0.0
 20
0.0
 30
0.0
 70
     1
  0
VERTEX
  5
3A1
  8
0
 10
-2.123523622032003
 20
11.124999999952
 30
0.0
 42
0.4142135623730951
  0
VERTEX
  5
3A2
  8
0
 10
-2.186023622032003
 20
11.187499999952
 30
0.0
 42
0.4142135623730951
  0
VERTEX
  5
3A3
  8
0
 10
-2.248523622032003
 20
11.124999999952
 30
0.0
 42
0.4142135623730951
  0
VERTEX
  5
3A4
  8
0
 10
-2.186023622032003
 20
11.062499999952
 30
0.0
 42
0.4142135623730951
  0
SEQEND
  5
696
  8
0
  0
POLYLINE
  5
DD
  8
0
 66
     1
 10
0.0
 20
0.0
 30
0.0
 70
     1
  0
VERTEX
  5
3A5
  8
0
 10
-1.373523622032002
 20
11.124999999952
 30
0.0
 42
0.4142135623730951
  0
VERTEX
  5
3A6
  8
0
 10
-1.436023622032002
 20
11.187499999952
 30
0.0
 42
0.4142135623730951
  0
VERTEX
  5
3A7
  8
0
 10
-1.498523622032002
 20
11.124999999952
 30
0.0
 42
0.4142135623730951
  0
VERTEX
  5
3A8
  8
0
 10
-1.436023622032002
 20
11.062499999952
 30
0.0
 42
0.4142135623730951
  0
SEQEND
  5
697
  8
0
  0
POLYLINE
  5
DE
  8
0
 66
     1
 10
0.0
 20
0.0
 30
0.0
 70
     1
  0
VERTEX
  5
3A9
  8
0
 10
-3.436023622032002
 20
6.803149606262
 30
0.0
 42
0.4142135623730951
  0
VERTEX
  5
3AA
  8
0
 10
-3.186023622032002
 20
6.553149606262
 30
0.0
  0
VERTEX
  5
3AB
  8
0
 10
-1.186023622032002
 20
6.553149606262
 30
0.0
 42
0.4142135623730951
  0
VERTEX
  5
3AC
  8
0
 10
-0.9360236220320033
 20
6.803149606262
 30
0.0
  0
VERTEX
  5
3AD
  8
0
 10
-0.9360236220320033
 20
7.303149606262
 30
0.0
 42
0.4142135623730951
  0
VERTEX
  5
3AE
  8
0
 10
-1.186023622032002
 20
7.553149606262
 30
0.0
  0
VERTEX
  5
3AF
  8
0
 10
-2.186023622032002
 20
7.553149606262
 30
0.0
 42
-0.4142135623730951
  0
VERTEX
  5
3B0
  8
0
 10
-2.436023622032002
 20
7.803149606262
 30
0.0
  0
VERTEX
  5
3B1
  8
0
 10
-2.436023622032002
 20
8.678149606262
 30
0.0
 42
0.4142135623730951
  0
VERTEX
  5
3B2
  8
0
 10
-2.686023622032002
 20
8.928149606262
 30
0.0
  0
VERTEX
  5
3B3
  8
0
 10
-3.186023622032002
 20
8.928149606262
 30
0.0
 42
0.4142135623730951
  0
VERTEX
  5
3B4
  8
0
 10
-3.436023622032002
 20
8.678149606262
 30
0.0
  0
SEQEND
  5
698
  8
0
  0
POLYLINE
  5
DF
  8
0
 66
     1
 10
0.0
 20
0.0
 30
0.0
 70
     1
  0
VERTEX
  5
3B5
  8
0
 10
-2.936023622032002
 20
7.115649606262
 30
0.0
 42
0.4142135623730951
  0
VERTEX
  5
3B6
  8
0
 10
-2.998523622032002
 20
7.053149606262
 30
0.0
 42
0.4142135623730951
  0
VERTEX
  5
3B7
  8
0
 10
-2.936023622032002
 20
6.990649606262
 30
0.0
 42
0.4142135623730951
  0
VERTEX
  5
3B8
  8
0
 10
-2.873523622032002
 20
7.053149606262
 30
0.0
 42
0.4142135623730951
  0
SEQEND
  5
699
  8
0
  0
POLYLINE
  5
E0
  8
0
 66
     1
 10
0.0
 20
0.0
 30
0.0
 70
     1
  0
VERTEX
  5
3B9
  8
0
 10
-2.061023622032002
 20
7.115649606262
 30
0.0
 42
0.4142135623730951
  0
VERTEX
  5
3BA
  8
0
 10
-2.123523622032002
 20
7.053149606262
 30
0.0
 42
0.4142135623730951
  0
VERTEX
  5
3BB
  8
0
 10
-2.061023622032002
 20
6.990649606262
 30
0.0
 42
0.4142135623730951
  0
VERTEX
  5
3BC
  8
0
 10
-1.998523622032002
 20
7.053149606262
 30
0.0
 42
0.4142135623730951
  0
SEQEND
  5
69A
  8
0
  0
POLYLINE
  5
E1
  8
0
 66
     1
 10
0.0
 20
0.0
 30
0.0
 70
     1
  0
VERTEX
  5
3BD
  8
0
 10
-1.311023622032002
 20
7.115649606262
 30
0.0
 42
0.4142135623730951
  0
VERTEX
  5
3BE
  8
0
 10
-1.373523622032002
 20
7.053149606262
 30
0.0
 42
0.4142135623730951
  0
VERTEX
  5
3BF
  8
0
 10
-1.311023622032002
 20
6.990649606262
 30
0.0
 42
0.4142135623730951
  0
VERTEX
  5
3C0
  8
0
 10
-1.248523622032002
 20
7.053149606262
 30
0.0
 42
0.4142135623730951
  0
SEQEND
  5
69B
  8
0
  0
POLYLINE
  5
E2
  8
0
 66
     1
 10
0.0
 20
0.0
 30
0.0
 70
     1
  0
VERTEX
  5
3C1
  8
0
 10
-2.936023622032002
 20
7.865649606262
 30
0.0
 42
0.4142135623730951
  0
VERTEX
  5
3C2
  8
0
 10
-2.998523622032002
 20
7.803149606262
 30
0.0
 42
0.4142135623730951
  0
VERTEX
  5
3C3
  8
0
 10
-2.936023622032002
 20
7.740649606262
 30
0.0
 42
0.4142135623730951
  0
VERTEX
  5
3C4
  8
0
 10
-2.873523622032002
 20
7.803149606262
 30
0.0
 42
0.4142135623730951
  0
SEQEND
  5
69C
  8
0
  0
POLYLINE
  5
E3
  8
0
 66
     1
 10
0.0
 20
0.0
 30
0.0
 70
     1
  0
VERTEX
  5
3C5
  8
0
 10
-2.936023622032002
 20
8.615649606262
 30
0.0
 42
0.4142135623730951
  0
VERTEX
  5
3C6
  8
0
 10
-2.998523622032002
 20
8.553149606262
 30
0.0
 42
0.4142135623730951
  0
VERTEX
  5
3C7
  8
0
 10
-2.936023622032002
 20
8.490649606262
 30
0.0
 42
0.4142135623730951
  0
VERTEX
  5
3C8
  8
0
 10
-2.873523622032002
 20
8.553149606262
 30
0.0
 42
0.4142135623730951
  0
SEQEND
  5
69D
  8
0
  0
POLYLINE
  5
E4
  8
0
 66
     1
 10
0.0
 20
0.0
 30
0.0
 70
     1
  0
VERTEX
  5
3C9
  8
0
 10
-1.985236220462003
 20
10.424212598382
 30
0.0
 42
0.4142135623730951
  0
VERTEX
  5
3CA
  8
0
 10
-2.235236220462003
 20
10.174212598382
 30
0.0
  0
VERTEX
  5
3CB
  8
0
 10
-2.235236220462003
 20
8.174212598381995
 30
0.0
 42
0.4142135623730951
  0
VERTEX
  5
3CC
  8
0
 10
-1.985236220462003
 20
7.924212598381999
 30
0.0
  0
VERTEX
  5
3CD
  8
0
 10
-1.485236220462003
 20
7.924212598381999
 30
0.0
 42
0.4142135623730951
  0
VERTEX
  5
3CE
  8
0
 10
-1.235236220462003
 20
8.174212598381995
 30
0.0
  0
VERTEX
  5
3CF
  8
0
 10
-1.235236220462003
 20
9.174212598381995
 30
0.0
 42
-0.4142135623730951
  0
VERTEX
  5
3D0
  8
0
 10
-0.9852362204620029
 20
9.424212598381995
 30
0.0
  0
VERTEX
  5
3D1
  8
0
 10
-0.1102362204620011
 20
9.424212598381995
 30
0.0
 42
0.4142135623730951
  0
VERTEX
  5
3D2
  8
0
 10
0.1397637795379989
 20
9.674212598381995
 30
0.0
  0
VERTEX
  5
3D3
  8
0
 10
0.1397637795379989
 20
10.174212598382
 30
0.0
 42
0.4142135623730951
  0
VERTEX
  5
3D4
  8
0
 10
-0.1102362204620029
 20
10.424212598382
 30
0.0
  0
SEQEND
  5
69E
  8
0
  0
POLYLINE
  5
E5
  8
0
 66
     1
 10
0.0
 20
0.0
 30
0.0
 70
     1
  0
VERTEX
  5
3D5
  8
0
 10
-1.672736220462003
 20
9.924212598381995
 30
0.0
 42
0.4142135623730951
  0
VERTEX
  5
3D6
  8
0
 10
-1.735236220462003
 20
9.986712598381995
 30
0.0
 42
0.4142135623730951
  0
VERTEX
  5
3D7
  8
0
 10
-1.797736220462003
 20
9.924212598381995
 30
0.0
 42
0.4142135623730951
  0
VERTEX
  5
3D8
  8
0
 10
-1.735236220462003
 20
9.861712598381995
 30
0.0
 42
0.4142135623730951
  0
SEQEND
  5
69F
  8
0
  0
POLYLINE
  5
E6
  8
0
 66
     1
 10
0.0
 20
0.0
 30
0.0
 70
     1
  0
VERTEX
  5
3D9
  8
0
 10
-1.672736220462003
 20
9.049212598381995
 30
0.0
 42
0.4142135623730951
  0
VERTEX
  5
3DA
  8
0
 10
-1.735236220462003
 20
9.111712598381995
 30
0.0
 42
0.4142135623730951
  0
VERTEX
  5
3DB
  8
0
 10
-1.797736220462003
 20
9.049212598381995
 30
0.0
 42
0.4142135623730951
  0
VERTEX
  5
3DC
  8
0
 10
-1.735236220462003
 20
8.986712598381995
 30
0.0
 42
0.4142135623730951
  0
SEQEND
  5
6A0
  8
0
  0
POLYLINE
  5
E7
  8
0
 66
     1
 10
0.0
 20
0.0
 30
0.0
 70
     1
  0
VERTEX
  5
3DD
  8
0
 10
-1.672736220462003
 20
8.299212598381995
 30
0.0
 42
0.4142135623730951
  0
VERTEX
  5
3DE
  8
0
 10
-1.735236220462003
 20
8.361712598381995
 30
0.0
 42
0.4142135623730951
  0
VERTEX
  5
3DF
  8
0
 10
-1.797736220462003
 20
8.299212598381995
 30
0.0
 42
0.4142135623730951
  0
VERTEX
  5
3E0
  8
0
 10
-1.735236220462003
 20
8.236712598381995
 30
0.0
 42
0.4142135623730951
  0
SEQEND
  5
6A1
  8
0
  0
POLYLINE
  5
E8
  8
0
 66
     1
 10
0.0
 20
0.0
 30
0.0
 70
     1
  0
VERTEX
  5
3E1
  8
0
 10
-0.9227362204620029
 20
9.924212598381995
 30
0.0
 42
0.4142135623730951
  0
VERTEX
  5
3E2
  8
0
 10
-0.9852362204620029
 20
9.986712598381995
 30
0.0
 42
0.4142135623730951
  0
VERTEX
  5
3E3
  8
0
 10
-1.047736220462003
 20
9.924212598381995
 30
0.0
 42
0.4142135623730951
  0
VERTEX
  5
3E4
  8
0
 10
-0.9852362204620029
 20
9.861712598381995
 30
0.0
 42
0.4142135623730951
  0
SEQEND
  5
6A2
  8
0
  0
POLYLINE
  5
E9
  8
0
 66
     1
 10
0.0
 20
0.0
 30
0.0
 70
     1
  0
VERTEX
  5
3E5
  8
0
 10
-0.1727362204620011
 20
9.924212598381995
 30
0.0
 42
0.4142135623730951
  0
VERTEX
  5
3E6
  8
0
 10
-0.2352362204620011
 20
9.986712598381995
 30
0.0
 42
0.4142135623730951
  0
VERTEX
  5
3E7
  8
0
 10
-0.2977362204620011
 20
9.924212598381995
 30
0.0
 42
0.4142135623730951
  0
VERTEX
  5
3E8
  8
0
 10
-0.2352362204620011
 20
9.861712598381995
 30
0.0
 42
0.4142135623730951
  0
SEQEND
  5
6A3
  8
0
  0
POLYLINE
  5
EA
  8
0
 66
     1
 10
0.0
 20
0.0
 30
0.0
 70
     1
  0
VERTEX
  5
3E9
  8
0
 10
-1.591535433061999
 20
6.349409448791999
 30
0.0
 42
0.4142135623730951
  0
VERTEX
  5
3EA
  8
0
 10
-1.841535433061999
 20
6.099409448791999
 30
0.0
  0
VERTEX
  5
3EB
  8
0
 10
-1.841535433061999
 20
4.099409448791999
 30
0.0
 42
0.4142135623730951
  0
VERTEX
  5
3EC
  8
0
 10
-1.591535433061999
 20
3.849409448791999
 30
0.0
  0
VERTEX
  5
3ED
  8
0
 10
-1.091535433061999
 20
3.849409448791999
 30
0.0
 42
0.4142135623730951
  0
VERTEX
  5
3EE
  8
0
 10
-0.8415354330619991
 20
4.099409448791999
 30
0.0
  0
VERTEX
  5
3EF
  8
0
 10
-0.8415354330619991
 20
5.099409448791999
 30
0.0
 42
-0.4142135623730951
  0
VERTEX
  5
3F0
  8
0
 10
-0.5915354330619991
 20
5.349409448791999
 30
0.0
  0
VERTEX
  5
3F1
  8
0
 10
0.2834645669380009
 20
5.349409448791999
 30
0.0
 42
0.4142135623730951
  0
VERTEX
  5
3F2
  8
0
 10
0.5334645669380009
 20
5.599409448791999
 30
0.0
  0
VERTEX
  5
3F3
  8
0
 10
0.5334645669380009
 20
6.099409448791999
 30
0.0
 42
0.4142135623730951
  0
VERTEX
  5
3F4
  8
0
 10
0.2834645669379992
 20
6.349409448791999
 30
0.0
  0
SEQEND
  5
6A4
  8
0
  0
POLYLINE
  5
EB
  8
0
 66
     1
 10
0.0
 20
0.0
 30
0.0
 70
     1
  0
VERTEX
  5
3F5
  8
0
 10
-1.279035433062001
 20
5.849409448791999
 30
0.0
 42
0.4142135623730951
  0
VERTEX
  5
3F6
  8
0
 10
-1.341535433062001
 20
5.911909448791999
 30
0.0
 42
0.4142135623730951
  0
VERTEX
  5
3F7
  8
0
 10
-1.404035433062001
 20
5.849409448791999
 30
0.0
 42
0.4142135623730951
  0
VERTEX
  5
3F8
  8
0
 10
-1.341535433062001
 20
5.786909448791999
 30
0.0
 42
0.4142135623730951
  0
SEQEND
  5
6A5
  8
0
  0
POLYLINE
  5
EC
  8
0
 66
     1
 10
0.0
 20
0.0
 30
0.0
 70
     1
  0
VERTEX
  5
3F9
  8
0
 10
-1.279035433062001
 20
4.974409448791999
 30
0.0
 42
0.4142135623730951
  0
VERTEX
  5
3FA
  8
0
 10
-1.341535433062001
 20
5.036909448791999
 30
0.0
 42
0.4142135623730951
  0
VERTEX
  5
3FB
  8
0
 10
-1.404035433062001
 20
4.974409448791999
 30
0.0
 42
0.4142135623730951
  0
VERTEX
  5
3FC
  8
0
 10
-1.341535433062001
 20
4.911909448791999
 30
0.0
 42
0.4142135623730951
  0
SEQEND
  5
6A6
  8
0
  0
POLYLINE
  5
ED
  8
0
 66
     1
 10
0.0
 20
0.0
 30
0.0
 70
     1
  0
VERTEX
  5
3FD
  8
0
 10
-1.279035433061999
 20
4.224409448791999
 30
0.0
 42
0.4142135623730951
  0
VERTEX
  5
3FE
  8
0
 10
-1.341535433061999
 20
4.286909448791999
 30
0.0
 42
0.4142135623730951
  0
VERTEX
  5
3FF
  8
0
 10
-1.404035433061999
 20
4.224409448791999
 30
0.0
 42
0.4142135623730951
  0
VERTEX
  5
400
  8
0
 10
-1.341535433061999
 20
4.161909448791999
 30
0.0
 42
0.4142135623730951
  0
SEQEND
  5
6A7
  8
0
  0
POLYLINE
  5
EE
  8
0
 66
     1
 10
0.0
 20
0.0
 30
0.0
 70
     1
  0
VERTEX
  5
401
  8
0
 10
-0.5290354330619991
 20
5.849409448791999
 30
0.0
 42
0.4142135623730951
  0
VERTEX
  5
402
  8
0
 10
-0.5915354330619991
 20
5.911909448791999
 30
0.0
 42
0.4142135623730951
  0
VERTEX
  5
403
  8
0
 10
-0.6540354330619991
 20
5.849409448791999
 30
0.0
 42
0.4142135623730951
  0
VERTEX
  5
404
  8
0
 10
-0.5915354330619991
 20
5.786909448791999
 30
0.0
 42
0.4142135623730951
  0
SEQEND
  5
6A8
  8
0
  0
POLYLINE
  5
EF
  8
0
 66
     1
 10
0.0
 20
0.0
 30
0.0
 70
     1
  0
VERTEX
  5
405
  8
0
 10
0.2209645669380009
 20
5.849409448791999
 30
0.0
 42
0.4142135623730951
  0
VERTEX
  5
406
  8
0
 10
0.1584645669380009
 20
5.911909448791999
 30
0.0
 42
0.4142135623730951
  0
VERTEX
  5
407
  8
0
 10
0.0959645669380009
 20
5.849409448791999
 30
0.0
 42
0.4142135623730951
  0
VERTEX
  5
408
  8
0
 10
0.1584645669380009
 20
5.786909448791999
 30
0.0
 42
0.4142135623730951
  0
SEQEND
  5
6A9
  8
0
  0
POLYLINE
  5
F0
  8
0
 66
     1
 10
0.0
 20
0.0
 30
0.0
 70
     1
  0
VERTEX
  5
409
  8
0
 10
-1.591535433061999
 20
-7.941929133828001
 30
0.0
 42
0.4142135623730951
  0
VERTEX
  5
40A
  8
0
 10
-1.841535433061999
 20
-8.191929133828001
 30
0.0
  0
VERTEX
  5
40B
  8
0
 10
-1.841535433061999
 20
-10.191929133828
 30
0.0
 42
0.4142135623730951
  0
VERTEX
  5
40C
  8
0
 10
-1.591535433061999
 20
-10.441929133828
 30
0.0
  0
VERTEX
  5
40D
  8
0
 10
-1.091535433061999
 20
-10.441929133828
 30
0.0
 42
0.4142135623730951
  0
VERTEX
  5
40E
  8
0
 10
-0.8415354330619991
 20
-10.191929133828
 30
0.0
  0
VERTEX
  5
40F
  8
0
 10
-0.8415354330619991
 20
-9.191929133828001
 30
0.0
 42
-0.4142135623730951
  0
VERTEX
  5
410
  8
0
 10
-0.5915354330619991
 20
-8.941929133828001
 30
0.0
  0
VERTEX
  5
411
  8
0
 10
0.2834645669380009
 20
-8.941929133828001
 30
0.0
 42
0.4142135623730951
  0
VERTEX
  5
412
  8
0
 10
0.5334645669380009
 20
-8.691929133828001
 30
0.0
  0
VERTEX
  5
413
  8
0
 10
0.5334645669380009
 20
-8.191929133828001
 30
0.0
 42
0.4142135623730951
  0
VERTEX
  5
414
  8
0
 10
0.2834645669379992
 20
-7.941929133828001
 30
0.0
  0
SEQEND
  5
6AA
  8
0
  0
POLYLINE
  5
F1
  8
0
 66
     1
 10
0.0
 20
0.0
 30
0.0
 70
     1
  0
VERTEX
  5
415
  8
0
 10
-1.279035433062001
 20
-8.441929133828001
 30
0.0
 42
0.4142135623730951
  0
VERTEX
  5
416
  8
0
 10
-1.341535433062001
 20
-8.379429133828001
 30
0.0
 42
0.4142135623730951
  0
VERTEX
  5
417
  8
0
 10
-1.404035433062001
 20
-8.441929133828001
 30
0.0
 42
0.4142135623730951
  0
VERTEX
  5
418
  8
0
 10
-1.341535433062001
 20
-8.504429133828001
 30
0.0
 42
0.4142135623730951
  0
SEQEND
  5
6AB
  8
0
  0
POLYLINE
  5
F2
  8
0
 66
     1
 10
0.0
 20
0.0
 30
0.0
 70
     1
  0
VERTEX
  5
419
  8
0
 10
-1.279035433062001
 20
-9.316929133828001
 30
0.0
 42
0.4142135623730951
  0
VERTEX
  5
41A
  8
0
 10
-1.341535433062001
 20
-9.254429133828001
 30
0.0
 42
0.4142135623730951
  0
VERTEX
  5
41B
  8
0
 10
-1.404035433062001
 20
-9.316929133828001
 30
0.0
 42
0.4142135623730951
  0
VERTEX
  5
41C
  8
0
 10
-1.341535433062001
 20
-9.379429133828001
 30
0.0
 42
0.4142135623730951
  0
SEQEND
  5
6AC
  8
0
  0
POLYLINE
  5
F3
  8
0
 66
     1
 10
0.0
 20
0.0
 30
0.0
 70
     1
  0
VERTEX
  5
41D
  8
0
 10
-1.279035433061999
 20
-10.066929133828
 30
0.0
 42
0.4142135623730951
  0
VERTEX
  5
41E
  8
0
 10
-1.341535433061999
 20
-10.004429133828
 30
0.0
 42
0.4142135623730951
  0
VERTEX
  5
41F
  8
0
 10
-1.404035433061999
 20
-10.066929133828
 30
0.0
 42
0.4142135623730951
  0
VERTEX
  5
420
  8
0
 10
-1.341535433061999
 20
-10.129429133828
 30
0.0
 42
0.4142135623730951
  0
SEQEND
  5
6AD
  8
0
  0
POLYLINE
  5
F4
  8
0
 66
     1
 10
0.0
 20
0.0
 30
0.0
 70
     1
  0
VERTEX
  5
421
  8
0
 10
-0.5290354330619991
 20
-8.441929133828001
 30
0.0
 42
0.4142135623730951
  0
VERTEX
  5
422
  8
0
 10
-0.5915354330619991
 20
-8.379429133828001
 30
0.0
 42
0.4142135623730951
  0
VERTEX
  5
423
  8
0
 10
-0.6540354330619991
 20
-8.441929133828001
 30
0.0
 42
0.4142135623730951
  0
VERTEX
  5
424
  8
0
 10
-0.5915354330619991
 20
-8.504429133828001
 30
0.0
 42
0.4142135623730951
  0
SEQEND
  5
6AE
  8
0
  0
POLYLINE
  5
F5
  8
0
 66
     1
 10
0.0
 20
0.0
 30
0.0
 70
     1
  0
VERTEX
  5
425
  8
0
 10
0.2209645669380009
 20
-8.441929133828001
 30
0.0
 42
0.4142135623730951
  0
VERTEX
  5
426
  8
0
 10
0.1584645669380009
 20
-8.379429133828001
 30
0.0
 42
0.4142135623730951
  0
VERTEX
  5
427
  8
0
 10
0.0959645669380009
 20
-8.441929133828001
 30
0.0
 42
0.4142135623730951
  0
VERTEX
  5
428
  8
0
 10
0.1584645669380009
 20
-8.504429133828001
 30
0.0
 42
0.4142135623730951
  0
SEQEND
  5
6AF
  8
0
  0
POLYLINE
  5
F6
  8
0
 66
     1
 10
0.0
 20
0.0
 30
0.0
 70
     1
  0
VERTEX
  5
429
  8
0
 10
0.2834645669379992
 20
2.648622047222002
 30
0.0
 42
0.4142135623730951
  0
VERTEX
  5
42A
  8
0
 10
0.5334645669379992
 20
2.898622047222002
 30
0.0
  0
VERTEX
  5
42B
  8
0
 10
0.5334645669379992
 20
4.898622047222002
 30
0.0
 42
0.4142135623730951
  0
VERTEX
  5
42C
  8
0
 10
0.2834645669379992
 20
5.148622047221998
 30
0.0
  0
VERTEX
  5
42D
  8
0
 10
-0.2165354330620008
 20
5.148622047221998
 30
0.0
 42
0.4142135623730951
  0
VERTEX
  5
42E
  8
0
 10
-0.4665354330620008
 20
4.898622047222002
 30
0.0
  0
VERTEX
  5
42F
  8
0
 10
-0.4665354330620008
 20
3.898622047222002
 30
0.0
 42
-0.4142135623730951
  0
VERTEX
  5
430
  8
0
 10
-0.7165354330620008
 20
3.648622047222002
 30
0.0
  0
VERTEX
  5
431
  8
0
 10
-1.591535433062001
 20
3.648622047222002
 30
0.0
 42
0.4142135623730951
  0
VERTEX
  5
432
  8
0
 10
-1.841535433062001
 20
3.398622047222002
 30
0.0
  0
VERTEX
  5
433
  8
0
 10
-1.841535433062001
 20
2.898622047222002
 30
0.0
 42
0.4142135623730951
  0
VERTEX
  5
434
  8
0
 10
-1.591535433062001
 20
2.648622047222002
 30
0.0
  0
SEQEND
  5
6B0
  8
0
  0
POLYLINE
  5
F7
  8
0
 66
     1
 10
0.0
 20
0.0
 30
0.0
 70
     1
  0
VERTEX
  5
435
  8
0
 10
-0.0290354330620008
 20
3.148622047222002
 30
0.0
 42
0.4142135623730951
  0
VERTEX
  5
436
  8
0
 10
0.0334645669379992
 20
3.086122047222002
 30
0.0
 42
0.4142135623730951
  0
VERTEX
  5
437
  8
0
 10
0.0959645669379992
 20
3.148622047222002
 30
0.0
 42
0.4142135623730951
  0
VERTEX
  5
438
  8
0
 10
0.0334645669379992
 20
3.211122047222002
 30
0.0
 42
0.4142135623730951
  0
SEQEND
  5
6B1
  8
0
  0
POLYLINE
  5
F8
  8
0
 66
     1
 10
0.0
 20
0.0
 30
0.0
 70
     1
  0
VERTEX
  5
439
  8
0
 10
-0.0290354330620008
 20
4.023622047222002
 30
0.0
 42
0.4142135623730951
  0
VERTEX
  5
43A
  8
0
 10
0.0334645669379992
 20
3.961122047222002
 30
0.0
 42
0.4142135623730951
  0
VERTEX
  5
43B
  8
0
 10
0.0959645669379992
 20
4.023622047222002
 30
0.0
 42
0.4142135623730951
  0
VERTEX
  5
43C
  8
0
 10
0.0334645669379992
 20
4.086122047222002
 30
0.0
 42
0.4142135623730951
  0
SEQEND
  5
6B2
  8
0
  0
POLYLINE
  5
F9
  8
0
 66
     1
 10
0.0
 20
0.0
 30
0.0
 70
     1
  0
VERTEX
  5
43D
  8
0
 10
-0.0290354330620008
 20
4.773622047222002
 30
0.0
 42
0.4142135623730951
  0
VERTEX
  5
43E
  8
0
 10
0.0334645669379992
 20
4.711122047222002
 30
0.0
 42
0.4142135623730951
  0
VERTEX
  5
43F
  8
0
 10
0.0959645669379992
 20
4.773622047222002
 30
0.0
 42
0.4142135623730951
  0
VERTEX
  5
440
  8
0
 10
0.0334645669379992
 20
4.836122047222002
 30
0.0
 42
0.4142135623730951
  0
SEQEND
  5
6B3
  8
0
  0
POLYLINE
  5
FA
  8
0
 66
     1
 10
0.0
 20
0.0
 30
0.0
 70
     1
  0
VERTEX
  5
441
  8
0
 10
-0.7790354330620008
 20
3.148622047222002
 30
0.0
 42
0.4142135623730951
  0
VERTEX
  5
442
  8
0
 10
-0.7165354330620008
 20
3.086122047222002
 30
0.0
 42
0.4142135623730951
  0
VERTEX
  5
443
  8
0
 10
-0.6540354330620008
 20
3.148622047222002
 30
0.0
 42
0.4142135623730951
  0
VERTEX
  5
444
  8
0
 10
-0.7165354330620008
 20
3.211122047222002
 30
0.0
 42
0.4142135623730951
  0
SEQEND
  5
6B4
  8
0
  0
POLYLINE
  5
FB
  8
0
 66
     1
 10
0.0
 20
0.0
 30
0.0
 70
     1
  0
VERTEX
  5
445
  8
0
 10
-1.529035433062001
 20
3.148622047222002
 30
0.0
 42
0.4142135623730951
  0
VERTEX
  5
446
  8
0
 10
-1.466535433062001
 20
3.086122047222002
 30
0.0
 42
0.4142135623730951
  0
VERTEX
  5
447
  8
0
 10
-1.404035433062001
 20
3.148622047222002
 30
0.0
 42
0.4142135623730951
  0
VERTEX
  5
448
  8
0
 10
-1.466535433062001
 20
3.211122047222002
 30
0.0
 42
0.4142135623730951
  0
SEQEND
  5
6B5
  8
0
  0
POLYLINE
  5
FC
  8
0
 66
     1
 10
0.0
 20
0.0
 30
0.0
 70
     1
  0
VERTEX
  5
449
  8
0
 10
-0.4891732283420005
 20
9.223425196811998
 30
0.0
 42
0.4142135623730951
  0
VERTEX
  5
44A
  8
0
 10
-0.7391732283420005
 20
8.973425196811998
 30
0.0
  0
VERTEX
  5
44B
  8
0
 10
-0.7391732283420005
 20
6.973425196811998
 30
0.0
 42
0.4142135623730951
  0
VERTEX
  5
44C
  8
0
 10
-0.4891732283420005
 20
6.723425196811998
 30
0.0
  0
VERTEX
  5
44D
  8
0
 10
0.0108267716579995
 20
6.723425196811998
 30
0.0
 42
0.4142135623730951
  0
VERTEX
  5
44E
  8
0
 10
0.2608267716579995
 20
6.973425196811998
 30
0.0
  0
VERTEX
  5
44F
  8
0
 10
0.2608267716579995
 20
7.973425196811998
 30
0.0
 42
-0.4142135623730951
  0
VERTEX
  5
450
  8
0
 10
0.5108267716579995
 20
8.223425196811998
 30
0.0
  0
VERTEX
  5
451
  8
0
 10
1.385826771658
 20
8.223425196811998
 30
0.0
 42
0.4142135623730951
  0
VERTEX
  5
452
  8
0
 10
1.635826771658
 20
8.473425196811998
 30
0.0
  0
VERTEX
  5
453
  8
0
 10
1.635826771658
 20
8.973425196811998
 30
0.0
 42
0.4142135623730951
  0
VERTEX
  5
454
  8
0
 10
1.385826771657998
 20
9.223425196811998
 30
0.0
  0
SEQEND
  5
6B6
  8
0
  0
POLYLINE
  5
FD
  8
0
 66
     1
 10
0.0
 20
0.0
 30
0.0
 70
     1
  0
VERTEX
  5
455
  8
0
 10
-0.1766732283420005
 20
8.723425196811998
 30
0.0
 42
0.4142135623730951
  0
VERTEX
  5
456
  8
0
 10
-0.2391732283420005
 20
8.785925196811998
 30
0.0
 42
0.4142135623730951
  0
VERTEX
  5
457
  8
0
 10
-0.3016732283420005
 20
8.723425196811998
 30
0.0
 42
0.4142135623730951
  0
VERTEX
  5
458
  8
0
 10
-0.2391732283420005
 20
8.660925196811998
 30
0.0
 42
0.4142135623730951
  0
SEQEND
  5
6B7
  8
0
  0
POLYLINE
  5
FE
  8
0
 66
     1
 10
0.0
 20
0.0
 30
0.0
 70
     1
  0
VERTEX
  5
459
  8
0
 10
-0.1766732283420005
 20
7.848425196811998
 30
0.0
 42
0.4142135623730951
  0
VERTEX
  5
45A
  8
0
 10
-0.2391732283420005
 20
7.910925196811998
 30
0.0
 42
0.4142135623730951
  0
VERTEX
  5
45B
  8
0
 10
-0.3016732283420005
 20
7.848425196811998
 30
0.0
 42
0.4142135623730951
  0
VERTEX
  5
45C
  8
0
 10
-0.2391732283420005
 20
7.785925196811998
 30
0.0
 42
0.4142135623730951
  0
SEQEND
  5
6B8
  8
0
  0
POLYLINE
  5
FF
  8
0
 66
     1
 10
0.0
 20
0.0
 30
0.0
 70
     1
  0
VERTEX
  5
45D
  8
0
 10
-0.1766732283420005
 20
7.098425196811998
 30
0.0
 42
0.4142135623730951
  0
VERTEX
  5
45E
  8
0
 10
-0.2391732283420005
 20
7.160925196811998
 30
0.0
 42
0.4142135623730951
  0
VERTEX
  5
45F
  8
0
 10
-0.3016732283420005
 20
7.098425196811998
 30
0.0
 42
0.4142135623730951
  0
VERTEX
  5
460
  8
0
 10
-0.2391732283420005
 20
7.035925196811998
 30
0.0
 42
0.4142135623730951
  0
SEQEND
  5
6B9
  8
0
  0
POLYLINE
  5
100
  8
0
 66
     1
 10
0.0
 20
0.0
 30
0.0
 70
     1
  0
VERTEX
  5
461
  8
0
 10
0.5733267716579995
 20
8.723425196811998
 30
0.0
 42
0.4142135623730951
  0
VERTEX
  5
462
  8
0
 10
0.5108267716579995
 20
8.785925196811998
 30
0.0
 42
0.4142135623730951
  0
VERTEX
  5
463
  8
0
 10
0.4483267716579995
 20
8.723425196811998
 30
0.0
 42
0.4142135623730951
  0
VERTEX
  5
464
  8
0
 10
0.5108267716579995
 20
8.660925196811998
 30
0.0
 42
0.4142135623730951
  0
SEQEND
  5
6BA
  8
0
  0
POLYLINE
  5
101
  8
0
 66
     1
 10
0.0
 20
0.0
 30
0.0
 70
     1
  0
VERTEX
  5
465
  8
0
 10
1.323326771658
 20
8.723425196811998
 30
0.0
 42
0.4142135623730951
  0
VERTEX
  5
466
  8
0
 10
1.260826771658
 20
8.785925196811998
 30
0.0
 42
0.4142135623730951
  0
VERTEX
  5
467
  8
0
 10
1.198326771658
 20
8.723425196811998
 30
0.0
 42
0.4142135623730951
  0
VERTEX
  5
468
  8
0
 10
1.260826771658
 20
8.660925196811998
 30
0.0
 42
0.4142135623730951
  0
SEQEND
  5
6BB
  8
0
  0
POLYLINE
  5
102
  8
0
 66
     1
 10
0.0
 20
0.0
 30
0.0
 70
     1
  0
VERTEX
  5
469
  8
0
 10
1.070866141738001
 20
-11.603346456658
 30
0.0
 42
0.4142135623730951
  0
VERTEX
  5
46A
  8
0
 10
1.320866141738001
 20
-11.353346456658
 30
0.0
  0
VERTEX
  5
46B
  8
0
 10
1.320866141738001
 20
-9.353346456658
 30
0.0
 42
0.4142135623730951
  0
VERTEX
  5
46C
  8
0
 10
1.070866141738001
 20
-9.103346456658002
 30
0.0
  0
VERTEX
  5
46D
  8
0
 10
0.5708661417380014
 20
-9.103346456658002
 30
0.0
 42
0.4142135623730951
  0
VERTEX
  5
46E
  8
0
 10
0.3208661417380014
 20
-9.353346456658
 30
0.0
  0
VERTEX
  5
46F
  8
0
 10
0.3208661417380014
 20
-10.353346456658
 30
0.0
 42
-0.4142135623730951
  0
VERTEX
  5
470
  8
0
 10
0.0708661417380014
 20
-10.603346456658
 30
0.0
  0
VERTEX
  5
471
  8
0
 10
-0.8041338582619986
 20
-10.603346456658
 30
0.0
 42
0.4142135623730951
  0
VERTEX
  5
472
  8
0
 10
-1.054133858261999
 20
-10.853346456658
 30
0.0
  0
VERTEX
  5
473
  8
0
 10
-1.054133858261999
 20
-11.353346456658
 30
0.0
 42
0.4142135623730951
  0
VERTEX
  5
474
  8
0
 10
-0.8041338582619986
 20
-11.603346456658
 30
0.0
  0
SEQEND
  5
6BC
  8
0
  0
POLYLINE
  5
103
  8
0
 66
     1
 10
0.0
 20
0.0
 30
0.0
 70
     1
  0
VERTEX
  5
475
  8
0
 10
0.7583661417380014
 20
-11.103346456658
 30
0.0
 42
0.4142135623730951
  0
VERTEX
  5
476
  8
0
 10
0.8208661417380014
 20
-11.165846456658
 30
0.0
 42
0.4142135623730951
  0
VERTEX
  5
477
  8
0
 10
0.8833661417380014
 20
-11.103346456658
 30
0.0
 42
0.4142135623730951
  0
VERTEX
  5
478
  8
0
 10
0.8208661417380014
 20
-11.040846456658
 30
0.0
 42
0.4142135623730951
  0
SEQEND
  5
6BD
  8
0
  0
POLYLINE
  5
104
  8
0
 66
     1
 10
0.0
 20
0.0
 30
0.0
 70
     1
  0
VERTEX
  5
479
  8
0
 10
0.7583661417380014
 20
-10.228346456658
 30
0.0
 42
0.4142135623730951
  0
VERTEX
  5
47A
  8
0
 10
0.8208661417380014
 20
-10.290846456658
 30
0.0
 42
0.4142135623730951
  0
VERTEX
  5
47B
  8
0
 10
0.8833661417380014
 20
-10.228346456658
 30
0.0
 42
0.4142135623730951
  0
VERTEX
  5
47C
  8
0
 10
0.8208661417380014
 20
-10.165846456658
 30
0.0
 42
0.4142135623730951
  0
SEQEND
  5
6BE
  8
0
  0
POLYLINE
  5
105
  8
0
 66
     1
 10
0.0
 20
0.0
 30
0.0
 70
     1
  0
VERTEX
  5
47D
  8
0
 10
0.7583661417380014
 20
-9.478346456658
 30
0.0
 42
0.4142135623730951
  0
VERTEX
  5
47E
  8
0
 10
0.8208661417380014
 20
-9.540846456658
 30
0.0
 42
0.4142135623730951
  0
VERTEX
  5
47F
  8
0
 10
0.8833661417380014
 20
-9.478346456658
 30
0.0
 42
0.4142135623730951
  0
VERTEX
  5
480
  8
0
 10
0.8208661417380014
 20
-9.415846456658
 30
0.0
 42
0.4142135623730951
  0
SEQEND
  5
6BF
  8
0
  0
POLYLINE
  5
106
  8
0
 66
     1
 10
0.0
 20
0.0
 30
0.0
 70
     1
  0
VERTEX
  5
481
  8
0
 10
0.0083661417380014
 20
-11.103346456658
 30
0.0
 42
0.4142135623730951
  0
VERTEX
  5
482
  8
0
 10
0.0708661417380014
 20
-11.165846456658
 30
0.0
 42
0.4142135623730951
  0
VERTEX
  5
483
  8
0
 10
0.1333661417380014
 20
-11.103346456658
 30
0.0
 42
0.4142135623730951
  0
VERTEX
  5
484
  8
0
 10
0.0708661417380014
 20
-11.040846456658
 30
0.0
 42
0.4142135623730951
  0
SEQEND
  5
6C0
  8
0
  0
POLYLINE
  5
107
  8
0
 66
     1
 10
0.0
 20
0.0
 30
0.0
 70
     1
  0
VERTEX
  5
485
  8
0
 10
-0.7416338582619986
 20
-11.103346456658
 30
0.0
 42
0.4142135623730951
  0
VERTEX
  5
486
  8
0
 10
-0.6791338582619986
 20
-11.165846456658
 30
0.0
 42
0.4142135623730951
  0
VERTEX
  5
487
  8
0
 10
-0.6166338582619986
 20
-11.103346456658
 30
0.0
 42
0.4142135623730951
  0
VERTEX
  5
488
  8
0
 10
-0.6791338582619986
 20
-11.040846456658
 30
0.0
 42
0.4142135623730951
  0
SEQEND
  5
6C1
  8
0
  0
POLYLINE
  5
108
  8
0
 66
     1
 10
0.0
 20
0.0
 30
0.0
 70
     1
  0
VERTEX
  5
489
  8
0
 10
2.607283464567997
 20
11.374999999952
 30
0.0
 42
0.4142135623730951
  0
VERTEX
  5
48A
  8
0
 10
2.357283464567997
 20
11.624999999952
 30
0.0
  0
VERTEX
  5
48B
  8
0
 10
0.3572834645679972
 20
11.624999999952
 30
0.0
 42
0.4142135623730951
  0
VERTEX
  5
48C
  8
0
 10
0.107283464567999
 20
11.374999999952
 30
0.0
  0
VERTEX
  5
48D
  8
0
 10
0.107283464567999
 20
10.874999999952
 30
0.0
 42
0.4142135623730951
  0
VERTEX
  5
48E
  8
0
 10
0.3572834645679972
 20
10.624999999952
 30
0.0
  0
VERTEX
  5
48F
  8
0
 10
1.357283464567997
 20
10.624999999952
 30
0.0
 42
-0.4142135623730951
  0
VERTEX
  5
490
  8
0
 10
1.607283464567997
 20
10.374999999952
 30
0.0
  0
VERTEX
  5
491
  8
0
 10
1.607283464567997
 20
9.499999999952
 30
0.0
 42
0.4142135623730951
  0
VERTEX
  5
492
  8
0
 10
1.857283464567997
 20
9.249999999952
 30
0.0
  0
VERTEX
  5
493
  8
0
 10
2.357283464567997
 20
9.249999999952
 30
0.0
 42
0.4142135623730951
  0
VERTEX
  5
494
  8
0
 10
2.607283464567997
 20
9.499999999952
 30
0.0
  0
SEQEND
  5
6C2
  8
0
  0
POLYLINE
  5
109
  8
0
 66
     1
 10
0.0
 20
0.0
 30
0.0
 70
     1
  0
VERTEX
  5
495
  8
0
 10
2.107283464567997
 20
11.062499999952
 30
0.0
 42
0.4142135623730951
  0
VERTEX
  5
496
  8
0
 10
2.169783464567997
 20
11.124999999952
 30
0.0
 42
0.4142135623730951
  0
VERTEX
  5
497
  8
0
 10
2.107283464567997
 20
11.187499999952
 30
0.0
 42
0.4142135623730951
  0
VERTEX
  5
498
  8
0
 10
2.044783464567997
 20
11.124999999952
 30
0.0
 42
0.4142135623730951
  0
SEQEND
  5
6C3
  8
0
  0
POLYLINE
  5
10A
  8
0
 66
     1
 10
0.0
 20
0.0
 30
0.0
 70
     1
  0
VERTEX
  5
499
  8
0
 10
1.232283464567997
 20
11.062499999952
 30
0.0
 42
0.4142135623730951
  0
VERTEX
  5
49A
  8
0
 10
1.294783464567997
 20
11.124999999952
 30
0.0
 42
0.4142135623730951
  0
VERTEX
  5
49B
  8
0
 10
1.232283464567997
 20
11.187499999952
 30
0.0
 42
0.4142135623730951
  0
VERTEX
  5
49C
  8
0
 10
1.169783464567997
 20
11.124999999952
 30
0.0
 42
0.4142135623730951
  0
SEQEND
  5
6C4
  8
0
  0
POLYLINE
  5
10B
  8
0
 66
     1
 10
0.0
 20
0.0
 30
0.0
 70
     1
  0
VERTEX
  5
49D
  8
0
 10
0.4822834645679972
 20
11.062499999952
 30
0.0
 42
0.4142135623730951
  0
VERTEX
  5
49E
  8
0
 10
0.5447834645679972
 20
11.124999999952
 30
0.0
 42
0.4142135623730951
  0
VERTEX
  5
49F
  8
0
 10
0.4822834645679972
 20
11.187499999952
 30
0.0
 42
0.4142135623730951
  0
VERTEX
  5
4A0
  8
0
 10
0.4197834645679972
 20
11.124999999952
 30
0.0
 42
0.4142135623730951
  0
SEQEND
  5
6C5
  8
0
  0
POLYLINE
  5
10C
  8
0
 66
     1
 10
0.0
 20
0.0
 30
0.0
 70
     1
  0
VERTEX
  5
4A1
  8
0
 10
2.107283464567997
 20
10.312499999952
 30
0.0
 42
0.4142135623730951
  0
VERTEX
  5
4A2
  8
0
 10
2.169783464567997
 20
10.374999999952
 30
0.0
 42
0.4142135623730951
  0
VERTEX
  5
4A3
  8
0
 10
2.107283464567997
 20
10.437499999952
 30
0.0
 42
0.4142135623730951
  0
VERTEX
  5
4A4
  8
0
 10
2.044783464567997
 20
10.374999999952
 30
0.0
 42
0.4142135623730951
  0
SEQEND
  5
6C6
  8
0
  0
POLYLINE
  5
10D
  8
0
 66
     1
 10
0.0
 20
0.0
 30
0.0
 70
     1
  0
VERTEX
  5
4A5
  8
0
 10
2.107283464567997
 20
9.562499999952
 30
0.0
 42
0.4142135623730951
  0
VERTEX
  5
4A6
  8
0
 10
2.169783464567997
 20
9.624999999952
 30
0.0
 42
0.4142135623730951
  0
VERTEX
  5
4A7
  8
0
 10
2.107283464567997
 20
9.687499999952
 30
0.0
 42
0.4142135623730951
  0
VERTEX
  5
4A8
  8
0
 10
2.044783464567997
 20
9.624999999952
 30
0.0
 42
0.4142135623730951
  0
SEQEND
  5
6C7
  8
0
  0
POLYLINE
  5
10E
  8
0
 66
     1
 10
0.0
 20
0.0
 30
0.0
 70
     1
  0
VERTEX
  5
4A9
  8
0
 10
0.9872047244079987
 20
8.022637795241998
 30
0.0
 42
0.4142135623730951
  0
VERTEX
  5
4AA
  8
0
 10
0.7372047244079987
 20
7.772637795241998
 30
0.0
  0
VERTEX
  5
4AB
  8
0
 10
0.7372047244079987
 20
5.772637795241998
 30
0.0
 42
0.4142135623730951
  0
VERTEX
  5
4AC
  8
0
 10
0.9872047244079987
 20
5.522637795241998
 30
0.0
  0
VERTEX
  5
4AD
  8
0
 10
1.487204724407999
 20
5.522637795241998
 30
0.0
 42
0.4142135623730951
  0
VERTEX
  5
4AE
  8
0
 10
1.737204724407999
 20
5.772637795241998
 30
0.0
  0
VERTEX
  5
4AF
  8
0
 10
1.737204724407999
 20
6.772637795241998
 30
0.0
 42
-0.4142135623730951
  0
VERTEX
  5
4B0
  8
0
 10
1.987204724407999
 20
7.022637795241998
 30
0.0
  0
VERTEX
  5
4B1
  8
0
 10
2.862204724407999
 20
7.022637795241998
 30
0.0
 42
0.4142135623730951
  0
VERTEX
  5
4B2
  8
0
 10
3.112204724407999
 20
7.272637795241998
 30
0.0
  0
VERTEX
  5
4B3
  8
0
 10
3.112204724407999
 20
7.772637795241998
 30
0.0
 42
0.4142135623730951
  0
VERTEX
  5
4B4
  8
0
 10
2.862204724407997
 20
8.022637795241998
 30
0.0
  0
SEQEND
  5
6C8
  8
0
  0
POLYLINE
  5
10F
  8
0
 66
     1
 10
0.0
 20
0.0
 30
0.0
 70
     1
  0
VERTEX
  5
4B5
  8
0
 10
1.299704724407999
 20
7.522637795241998
 30
0.0
 42
0.4142135623730951
  0
VERTEX
  5
4B6
  8
0
 10
1.237204724407999
 20
7.585137795241998
 30
0.0
 42
0.4142135623730951
  0
VERTEX
  5
4B7
  8
0
 10
1.174704724407999
 20
7.522637795241998
 30
0.0
 42
0.4142135623730951
  0
VERTEX
  5
4B8
  8
0
 10
1.237204724407999
 20
7.460137795241998
 30
0.0
 42
0.4142135623730951
  0
SEQEND
  5
6C9
  8
0
  0
POLYLINE
  5
110
  8
0
 66
     1
 10
0.0
 20
0.0
 30
0.0
 70
     1
  0
VERTEX
  5
4B9
  8
0
 10
1.299704724407999
 20
6.647637795241998
 30
0.0
 42
0.4142135623730951
  0
VERTEX
  5
4BA
  8
0
 10
1.237204724407999
 20
6.710137795241998
 30
0.0
 42
0.4142135623730951
  0
VERTEX
  5
4BB
  8
0
 10
1.174704724407999
 20
6.647637795241998
 30
0.0
 42
0.4142135623730951
  0
VERTEX
  5
4BC
  8
0
 10
1.237204724407999
 20
6.585137795241998
 30
0.0
 42
0.4142135623730951
  0
SEQEND
  5
6CA
  8
0
  0
POLYLINE
  5
111
  8
0
 66
     1
 10
0.0
 20
0.0
 30
0.0
 70
     1
  0
VERTEX
  5
4BD
  8
0
 10
1.299704724407999
 20
5.897637795241998
 30
0.0
 42
0.4142135623730951
  0
VERTEX
  5
4BE
  8
0
 10
1.237204724407999
 20
5.960137795241998
 30
0.0
 42
0.4142135623730951
  0
VERTEX
  5
4BF
  8
0
 10
1.174704724407999
 20
5.897637795241998
 30
0.0
 42
0.4142135623730951
  0
VERTEX
  5
4C0
  8
0
 10
1.237204724407999
 20
5.835137795241998
 30
0.0
 42
0.4142135623730951
  0
SEQEND
  5
6CB
  8
0
  0
POLYLINE
  5
112
  8
0
 66
     1
 10
0.0
 20
0.0
 30
0.0
 70
     1
  0
VERTEX
  5
4C1
  8
0
 10
2.049704724407999
 20
7.522637795241998
 30
0.0
 42
0.4142135623730951
  0
VERTEX
  5
4C2
  8
0
 10
1.987204724407999
 20
7.585137795241998
 30
0.0
 42
0.4142135623730951
  0
VERTEX
  5
4C3
  8
0
 10
1.924704724407999
 20
7.522637795241998
 30
0.0
 42
0.4142135623730951
  0
VERTEX
  5
4C4
  8
0
 10
1.987204724407999
 20
7.460137795241998
 30
0.0
 42
0.4142135623730951
  0
SEQEND
  5
6CC
  8
0
  0
POLYLINE
  5
113
  8
0
 66
     1
 10
0.0
 20
0.0
 30
0.0
 70
     1
  0
VERTEX
  5
4C5
  8
0
 10
2.799704724407999
 20
7.522637795241998
 30
0.0
 42
0.4142135623730951
  0
VERTEX
  5
4C6
  8
0
 10
2.737204724407999
 20
7.585137795241998
 30
0.0
 42
0.4142135623730951
  0
VERTEX
  5
4C7
  8
0
 10
2.674704724407999
 20
7.522637795241998
 30
0.0
 42
0.4142135623730951
  0
VERTEX
  5
4C8
  8
0
 10
2.737204724407999
 20
7.460137795241998
 30
0.0
 42
0.4142135623730951
  0
SEQEND
  5
6CD
  8
0
  0
POLYLINE
  5
114
  8
0
 66
     1
 10
0.0
 20
0.0
 30
0.0
 70
     1
  0
VERTEX
  5
4C9
  8
0
 10
4.392716535418
 20
-6.504921259818
 30
0.0
 42
0.4142135623730951
  0
VERTEX
  5
4CA
  8
0
 10
4.142716535418
 20
-6.754921259818
 30
0.0
  0
VERTEX
  5
4CB
  8
0
 10
4.142716535418
 20
-8.754921259818001
 30
0.0
 42
0.4142135623730951
  0
VERTEX
  5
4CC
  8
0
 10
4.392716535418
 20
-9.004921259817998
 30
0.0
  0
VERTEX
  5
4CD
  8
0
 10
4.892716535418
 20
-9.004921259817998
 30
0.0
 42
0.4142135623730951
  0
VERTEX
  5
4CE
  8
0
 10
5.142716535418
 20
-8.754921259818001
 30
0.0
  0
VERTEX
  5
4CF
  8
0
 10
5.142716535418
 20
-7.754921259818
 30
0.0
 42
-0.4142135623730951
  0
VERTEX
  5
4D0
  8
0
 10
5.392716535418
 20
-7.504921259818
 30
0.0
  0
VERTEX
  5
4D1
  8
0
 10
6.267716535418
 20
-7.504921259818
 30
0.0
 42
0.4142135623730951
  0
VERTEX
  5
4D2
  8
0
 10
6.517716535418
 20
-7.254921259818
 30
0.0
  0
VERTEX
  5
4D3
  8
0
 10
6.517716535418
 20
-6.754921259818
 30
0.0
 42
0.4142135623730951
  0
VERTEX
  5
4D4
  8
0
 10
6.267716535418
 20
-6.504921259818
 30
0.0
  0
SEQEND
  5
6CE
  8
0
  0
POLYLINE
  5
115
  8
0
 66
     1
 10
0.0
 20
0.0
 30
0.0
 70
     1
  0
VERTEX
  5
4D5
  8
0
 10
4.705216535418
 20
-7.004921259818
 30
0.0
 42
0.4142135623730951
  0
VERTEX
  5
4D6
  8
0
 10
4.642716535418
 20
-6.942421259818
 30
0.0
 42
0.4142135623730951
  0
VERTEX
  5
4D7
  8
0
 10
4.580216535418
 20
-7.004921259818
 30
0.0
 42
0.4142135623730951
  0
VERTEX
  5
4D8
  8
0
 10
4.642716535418
 20
-7.067421259818
 30
0.0
 42
0.4142135623730951
  0
SEQEND
  5
6CF
  8
0
  0
POLYLINE
  5
116
  8
0
 66
     1
 10
0.0
 20
0.0
 30
0.0
 70
     1
  0
VERTEX
  5
4D9
  8
0
 10
4.705216535418
 20
-7.879921259818
 30
0.0
 42
0.4142135623730951
  0
VERTEX
  5
4DA
  8
0
 10
4.642716535418
 20
-7.817421259818
 30
0.0
 42
0.4142135623730951
  0
VERTEX
  5
4DB
  8
0
 10
4.580216535418
 20
-7.879921259818
 30
0.0
 42
0.4142135623730951
  0
VERTEX
  5
4DC
  8
0
 10
4.642716535418
 20
-7.942421259818
 30
0.0
 42
0.4142135623730951
  0
SEQEND
  5
6D0
  8
0
  0
POLYLINE
  5
117
  8
0
 66
     1
 10
0.0
 20
0.0
 30
0.0
 70
     1
  0
VERTEX
  5
4DD
  8
0
 10
4.705216535418
 20
-8.629921259818001
 30
0.0
 42
0.4142135623730951
  0
VERTEX
  5
4DE
  8
0
 10
4.642716535418
 20
-8.567421259818001
 30
0.0
 42
0.4142135623730951
  0
VERTEX
  5
4DF
  8
0
 10
4.580216535418
 20
-8.629921259818001
 30
0.0
 42
0.4142135623730951
  0
VERTEX
  5
4E0
  8
0
 10
4.642716535418
 20
-8.692421259818001
 30
0.0
 42
0.4142135623730951
  0
SEQEND
  5
6D1
  8
0
  0
POLYLINE
  5
118
  8
0
 66
     1
 10
0.0
 20
0.0
 30
0.0
 70
     1
  0
VERTEX
  5
4E1
  8
0
 10
5.455216535418
 20
-7.004921259818
 30
0.0
 42
0.4142135623730951
  0
VERTEX
  5
4E2
  8
0
 10
5.392716535418
 20
-6.942421259818
 30
0.0
 42
0.4142135623730951
  0
VERTEX
  5
4E3
  8
0
 10
5.330216535418
 20
-7.004921259818
 30
0.0
 42
0.4142135623730951
  0
VERTEX
  5
4E4
  8
0
 10
5.392716535418
 20
-7.067421259818
 30
0.0
 42
0.4142135623730951
  0
SEQEND
  5
6D2
  8
0
  0
POLYLINE
  5
119
  8
0
 66
     1
 10
0.0
 20
0.0
 30
0.0
 70
     1
  0
VERTEX
  5
4E5
  8
0
 10
6.205216535418
 20
-7.004921259818
 30
0.0
 42
0.4142135623730951
  0
VERTEX
  5
4E6
  8
0
 10
6.142716535418
 20
-6.942421259818
 30
0.0
 42
0.4142135623730951
  0
VERTEX
  5
4E7
  8
0
 10
6.080216535418
 20
-7.004921259818
 30
0.0
 42
0.4142135623730951
  0
VERTEX
  5
4E8
  8
0
 10
6.142716535418
 20
-7.067421259818
 30
0.0
 42
0.4142135623730951
  0
SEQEND
  5
6D3
  8
0
  0
POLYLINE
  5
11A
  8
0
 66
     1
 10
0.0
 20
0.0
 30
0.0
 70
     1
  0
VERTEX
  5
4E9
  8
0
 10
4.142716535418
 20
-11.326771653508
 30
0.0
 42
0.4142135623730951
  0
VERTEX
  5
4EA
  8
0
 10
4.392716535418
 20
-11.576771653508
 30
0.0
  0
VERTEX
  5
4EB
  8
0
 10
6.392716535418
 20
-11.576771653508
 30
0.0
 42
0.4142135623730951
  0
VERTEX
  5
4EC
  8
0
 10
6.642716535418
 20
-11.326771653508
 30
0.0
  0
VERTEX
  5
4ED
  8
0
 10
6.642716535418
 20
-10.826771653508
 30
0.0
 42
0.4142135623730951
  0
VERTEX
  5
4EE
  8
0
 10
6.392716535418
 20
-10.576771653508
 30
0.0
  0
VERTEX
  5
4EF
  8
0
 10
5.392716535418
 20
-10.576771653508
 30
0.0
 42
-0.4142135623730951
  0
VERTEX
  5
4F0
  8
0
 10
5.142716535418
 20
-10.326771653508
 30
0.0
  0
VERTEX
  5
4F1
  8
0
 10
5.142716535418
 20
-9.451771653508
 30
0.0
 42
0.4142135623730951
  0
VERTEX
  5
4F2
  8
0
 10
4.892716535418
 20
-9.201771653508
 30
0.0
  0
VERTEX
  5
4F3
  8
0
 10
4.392716535418
 20
-9.201771653508
 30
0.0
 42
0.4142135623730951
  0
VERTEX
  5
4F4
  8
0
 10
4.142716535418
 20
-9.451771653508
 30
0.0
  0
SEQEND
  5
6D4
  8
0
  0
POLYLINE
  5
11B
  8
0
 66
     1
 10
0.0
 20
0.0
 30
0.0
 70
     1
  0
VERTEX
  5
4F5
  8
0
 10
4.642716535418
 20
-11.014271653508
 30
0.0
 42
0.4142135623730951
  0
VERTEX
  5
4F6
  8
0
 10
4.580216535418
 20
-11.076771653508
 30
0.0
 42
0.4142135623730951
  0
VERTEX
  5
4F7
  8
0
 10
4.642716535418
 20
-11.139271653508
 30
0.0
 42
0.4142135623730951
  0
VERTEX
  5
4F8
  8
0
 10
4.705216535418
 20
-11.076771653508
 30
0.0
 42
0.4142135623730951
  0
SEQEND
  5
6D5
  8
0
  0
POLYLINE
  5
11C
  8
0
 66
     1
 10
0.0
 20
0.0
 30
0.0
 70
     1
  0
VERTEX
  5
4F9
  8
0
 10
5.517716535418
 20
-11.014271653508
 30
0.0
 42
0.4142135623730951
  0
VERTEX
  5
4FA
  8
0
 10
5.455216535418
 20
-11.076771653508
 30
0.0
 42
0.4142135623730951
  0
VERTEX
  5
4FB
  8
0
 10
5.517716535418
 20
-11.139271653508
 30
0.0
 42
0.4142135623730951
  0
VERTEX
  5
4FC
  8
0
 10
5.580216535418
 20
-11.076771653508
 30
0.0
 42
0.4142135623730951
  0
SEQEND
  5
6D6
  8
0
  0
POLYLINE
  5
11D
  8
0
 66
     1
 10
0.0
 20
0.0
 30
0.0
 70
     1
  0
VERTEX
  5
4FD
  8
0
 10
6.267716535418
 20
-11.014271653508
 30
0.0
 42
0.4142135623730951
  0
VERTEX
  5
4FE
  8
0
 10
6.205216535418
 20
-11.076771653508
 30
0.0
 42
0.4142135623730951
  0
VERTEX
  5
4FF
  8
0
 10
6.267716535418
 20
-11.139271653508
 30
0.0
 42
0.4142135623730951
  0
VERTEX
  5
500
  8
0
 10
6.330216535418
 20
-11.076771653508
 30
0.0
 42
0.4142135623730951
  0
SEQEND
  5
6D7
  8
0
  0
POLYLINE
  5
11E
  8
0
 66
     1
 10
0.0
 20
0.0
 30
0.0
 70
     1
  0
VERTEX
  5
501
  8
0
 10
4.642716535418
 20
-10.264271653508
 30
0.0
 42
0.4142135623730951
  0
VERTEX
  5
502
  8
0
 10
4.580216535418
 20
-10.326771653508
 30
0.0
 42
0.4142135623730951
  0
VERTEX
  5
503
  8
0
 10
4.642716535418
 20
-10.389271653508
 30
0.0
 42
0.4142135623730951
  0
VERTEX
  5
504
  8
0
 10
4.705216535418
 20
-10.326771653508
 30
0.0
 42
0.4142135623730951
  0
SEQEND
  5
6D8
  8
0
  0
POLYLINE
  5
11F
  8
0
 66
     1
 10
0.0
 20
0.0
 30
0.0
 70
     1
  0
VERTEX
  5
505
  8
0
 10
4.642716535418
 20
-9.514271653508
 30
0.0
 42
0.4142135623730951
  0
VERTEX
  5
506
  8
0
 10
4.580216535418
 20
-9.576771653508
 30
0.0
 42
0.4142135623730951
  0
VERTEX
  5
507
  8
0
 10
4.642716535418
 20
-9.639271653508
 30
0.0
 42
0.4142135623730951
  0
VERTEX
  5
508
  8
0
 10
4.705216535418
 20
-9.576771653508
 30
0.0
 42
0.4142135623730951
  0
SEQEND
  5
6D9
  8
0
  0
POLYLINE
  5
120
  8
0
 66
     1
 10
0.0
 20
0.0
 30
0.0
 70
     1
  0
VERTEX
  5
509
  8
0
 10
5.593503936988
 20
-7.705708661388002
 30
0.0
 42
0.4142135623730951
  0
VERTEX
  5
50A
  8
0
 10
5.343503936988
 20
-7.955708661388002
 30
0.0
  0
VERTEX
  5
50B
  8
0
 10
5.343503936988
 20
-9.955708661388002
 30
0.0
 42
0.4142135623730951
  0
VERTEX
  5
50C
  8
0
 10
5.593503936988
 20
-10.205708661388
 30
0.0
  0
VERTEX
  5
50D
  8
0
 10
6.093503936988
 20
-10.205708661388
 30
0.0
 42
0.4142135623730951
  0
VERTEX
  5
50E
  8
0
 10
6.343503936988
 20
-9.955708661388002
 30
0.0
  0
VERTEX
  5
50F
  8
0
 10
6.343503936988
 20
-8.955708661388002
 30
0.0
 42
-0.4142135623730951
  0
VERTEX
  5
510
  8
0
 10
6.593503936988
 20
-8.705708661388002
 30
0.0
  0
VERTEX
  5
511
  8
0
 10
7.468503936988
 20
-8.705708661388002
 30
0.0
 42
0.4142135623730951
  0
VERTEX
  5
512
  8
0
 10
7.718503936988
 20
-8.455708661388002
 30
0.0
  0
VERTEX
  5
513
  8
0
 10
7.718503936988
 20
-7.955708661388002
 30
0.0
 42
0.4142135623730951
  0
VERTEX
  5
514
  8
0
 10
7.468503936988
 20
-7.705708661388002
 30
0.0
  0
SEQEND
  5
6DA
  8
0
  0
POLYLINE
  5
121
  8
0
 66
     1
 10
0.0
 20
0.0
 30
0.0
 70
     1
  0
VERTEX
  5
515
  8
0
 10
5.906003936988
 20
-8.205708661388002
 30
0.0
 42
0.4142135623730951
  0
VERTEX
  5
516
  8
0
 10
5.843503936988
 20
-8.143208661388002
 30
0.0
 42
0.4142135623730951
  0
VERTEX
  5
517
  8
0
 10
5.781003936988
 20
-8.205708661388002
 30
0.0
 42
0.4142135623730951
  0
VERTEX
  5
518
  8
0
 10
5.843503936988
 20
-8.268208661388002
 30
0.0
 42
0.4142135623730951
  0
SEQEND
  5
6DB
  8
0
  0
POLYLINE
  5
122
  8
0
 66
     1
 10
0.0
 20
0.0
 30
0.0
 70
     1
  0
VERTEX
  5
519
  8
0
 10
5.906003936988
 20
-9.080708661388002
 30
0.0
 42
0.4142135623730951
  0
VERTEX
  5
51A
  8
0
 10
5.843503936988
 20
-9.018208661388002
 30
0.0
 42
0.4142135623730951
  0
VERTEX
  5
51B
  8
0
 10
5.781003936988
 20
-9.080708661388002
 30
0.0
 42
0.4142135623730951
  0
VERTEX
  5
51C
  8
0
 10
5.843503936988
 20
-9.143208661388002
 30
0.0
 42
0.4142135623730951
  0
SEQEND
  5
6DC
  8
0
  0
POLYLINE
  5
123
  8
0
 66
     1
 10
0.0
 20
0.0
 30
0.0
 70
     1
  0
VERTEX
  5
51D
  8
0
 10
5.906003936988
 20
-9.830708661388002
 30
0.0
 42
0.4142135623730951
  0
VERTEX
  5
51E
  8
0
 10
5.843503936988
 20
-9.768208661388002
 30
0.0
 42
0.4142135623730951
  0
VERTEX
  5
51F
  8
0
 10
5.781003936988
 20
-9.830708661388002
 30
0.0
 42
0.4142135623730951
  0
VERTEX
  5
520
  8
0
 10
5.843503936988
 20
-9.893208661388002
 30
0.0
 42
0.4142135623730951
  0
SEQEND
  5
6DD
  8
0
  0
POLYLINE
  5
124
  8
0
 66
     1
 10
0.0
 20
0.0
 30
0.0
 70
     1
  0
VERTEX
  5
521
  8
0
 10
6.656003936988
 20
-8.205708661388002
 30
0.0
 42
0.4142135623730951
  0
VERTEX
  5
522
  8
0
 10
6.593503936988
 20
-8.143208661388002
 30
0.0
 42
0.4142135623730951
  0
VERTEX
  5
523
  8
0
 10
6.531003936988
 20
-8.205708661388002
 30
0.0
 42
0.4142135623730951
  0
VERTEX
  5
524
  8
0
 10
6.593503936988
 20
-8.268208661388002
 30
0.0
 42
0.4142135623730951
  0
SEQEND
  5
6DE
  8
0
  0
POLYLINE
  5
125
  8
0
 66
     1
 10
0.0
 20
0.0
 30
0.0
 70
     1
  0
VERTEX
  5
525
  8
0
 10
7.406003936988
 20
-8.205708661388002
 30
0.0
 42
0.4142135623730951
  0
VERTEX
  5
526
  8
0
 10
7.343503936988
 20
-8.143208661388002
 30
0.0
 42
0.4142135623730951
  0
VERTEX
  5
527
  8
0
 10
7.281003936988
 20
-8.205708661388002
 30
0.0
 42
0.4142135623730951
  0
VERTEX
  5
528
  8
0
 10
7.343503936988
 20
-8.268208661388002
 30
0.0
 42
0.4142135623730951
  0
SEQEND
  5
6DF
  8
0
  0
POLYLINE
  5
126
  8
0
 66
     1
 10
0.0
 20
0.0
 30
0.0
 70
     1
  0
VERTEX
  5
529
  8
0
 10
5.987204724388
 20
11.624999999952
 30
0.0
 42
0.4142135623730951
  0
VERTEX
  5
52A
  8
0
 10
5.737204724388
 20
11.374999999952
 30
0.0
  0
VERTEX
  5
52B
  8
0
 10
5.737204724388
 20
9.374999999952
 30
0.0
 42
0.4142135623730951
  0
VERTEX
  5
52C
  8
0
 10
5.987204724388
 20
9.124999999952
 30
0.0
  0
VERTEX
  5
52D
  8
0
 10
6.487204724388
 20
9.124999999952
 30
0.0
 42
0.4142135623730951
  0
VERTEX
  5
52E
  8
0
 10
6.737204724388
 20
9.374999999952
 30
0.0
  0
VERTEX
  5
52F
  8
0
 10
6.737204724388
 20
10.374999999952
 30
0.0
 42
-0.4142135623730951
  0
VERTEX
  5
530
  8
0
 10
6.987204724388
 20
10.624999999952
 30
0.0
  0
VERTEX
  5
531
  8
0
 10
7.862204724388
 20
10.624999999952
 30
0.0
 42
0.4142135623730951
  0
VERTEX
  5
532
  8
0
 10
8.112204724388
 20
10.874999999952
 30
0.0
  0
VERTEX
  5
533
  8
0
 10
8.112204724388
 20
11.374999999952
 30
0.0
 42
0.4142135623730951
  0
VERTEX
  5
534
  8
0
 10
7.862204724388
 20
11.624999999952
 30
0.0
  0
SEQEND
  5
6E0
  8
0
  0
POLYLINE
  5
127
  8
0
 66
     1
 10
0.0
 20
0.0
 30
0.0
 70
     1
  0
VERTEX
  5
535
  8
0
 10
6.299704724388
 20
11.124999999952
 30
0.0
 42
0.4142135623730951
  0
VERTEX
  5
536
  8
0
 10
6.237204724388
 20
11.187499999952
 30
0.0
 42
0.4142135623730951
  0
VERTEX
  5
537
  8
0
 10
6.174704724388
 20
11.124999999952
 30
0.0
 42
0.4142135623730951
  0
VERTEX
  5
538
  8
0
 10
6.237204724388
 20
11.062499999952
 30
0.0
 42
0.4142135623730951
  0
SEQEND
  5
6E1
  8
0
  0
POLYLINE
  5
128
  8
0
 66
     1
 10
0.0
 20
0.0
 30
0.0
 70
     1
  0
VERTEX
  5
539
  8
0
 10
6.299704724388
 20
10.249999999952
 30
0.0
 42
0.4142135623730951
  0
VERTEX
  5
53A
  8
0
 10
6.237204724388
 20
10.312499999952
 30
0.0
 42
0.4142135623730951
  0
VERTEX
  5
53B
  8
0
 10
6.174704724388
 20
10.249999999952
 30
0.0
 42
0.4142135623730951
  0
VERTEX
  5
53C
  8
0
 10
6.237204724388
 20
10.187499999952
 30
0.0
 42
0.4142135623730951
  0
SEQEND
  5
6E2
  8
0
  0
POLYLINE
  5
129
  8
0
 66
     1
 10
0.0
 20
0.0
 30
0.0
 70
     1
  0
VERTEX
  5
53D
  8
0
 10
6.299704724388
 20
9.499999999952
 30
0.0
 42
0.4142135623730951
  0
VERTEX
  5
53E
  8
0
 10
6.237204724388
 20
9.562499999952
 30
0.0
 42
0.4142135623730951
  0
VERTEX
  5
53F
  8
0
 10
6.174704724388
 20
9.499999999952
 30
0.0
 42
0.4142135623730951
  0
VERTEX
  5
540
  8
0
 10
6.237204724388
 20
9.437499999952
 30
0.0
 42
0.4142135623730951
  0
SEQEND
  5
6E3
  8
0
  0
POLYLINE
  5
12A
  8
0
 66
     1
 10
0.0
 20
0.0
 30
0.0
 70
     1
  0
VERTEX
  5
541
  8
0
 10
7.049704724388
 20
11.124999999952
 30
0.0
 42
0.4142135623730951
  0
VERTEX
  5
542
  8
0
 10
6.987204724388
 20
11.187499999952
 30
0.0
 42
0.4142135623730951
  0
VERTEX
  5
543
  8
0
 10
6.924704724388
 20
11.124999999952
 30
0.0
 42
0.4142135623730951
  0
VERTEX
  5
544
  8
0
 10
6.987204724388
 20
11.062499999952
 30
0.0
 42
0.4142135623730951
  0
SEQEND
  5
6E4
  8
0
  0
POLYLINE
  5
12B
  8
0
 66
     1
 10
0.0
 20
0.0
 30
0.0
 70
     1
  0
VERTEX
  5
545
  8
0
 10
7.799704724388
 20
11.124999999952
 30
0.0
 42
0.4142135623730951
  0
VERTEX
  5
546
  8
0
 10
7.737204724388
 20
11.187499999952
 30
0.0
 42
0.4142135623730951
  0
VERTEX
  5
547
  8
0
 10
7.674704724388
 20
11.124999999952
 30
0.0
 42
0.4142135623730951
  0
VERTEX
  5
548
  8
0
 10
7.737204724388
 20
11.062499999952
 30
0.0
 42
0.4142135623730951
  0
SEQEND
  5
6E5
  8
0
  0
POLYLINE
  5
12C
  8
0
 66
     1
 10
0.0
 20
0.0
 30
0.0
 70
     1
  0
VERTEX
  5
549
  8
0
 10
5.987204724388
 20
-2.646653543297999
 30
0.0
 42
0.4142135623730951
  0
VERTEX
  5
54A
  8
0
 10
5.737204724388
 20
-2.896653543297999
 30
0.0
  0
VERTEX
  5
54B
  8
0
 10
5.737204724388
 20
-4.896653543297999
 30
0.0
 42
0.4142135623730951
  0
VERTEX
  5
54C
  8
0
 10
5.987204724388
 20
-5.146653543297997
 30
0.0
  0
VERTEX
  5
54D
  8
0
 10
6.487204724388
 20
-5.146653543297997
 30
0.0
 42
0.4142135623730951
  0
VERTEX
  5
54E
  8
0
 10
6.737204724388
 20
-4.896653543297999
 30
0.0
  0
VERTEX
  5
54F
  8
0
 10
6.737204724388
 20
-3.896653543297999
 30
0.0
 42
-0.4142135623730951
  0
VERTEX
  5
550
  8
0
 10
6.987204724388
 20
-3.646653543297999
 30
0.0
  0
VERTEX
  5
551
  8
0
 10
7.862204724388
 20
-3.646653543297999
 30
0.0
 42
0.4142135623730951
  0
VERTEX
  5
552
  8
0
 10
8.112204724388
 20
-3.396653543297999
 30
0.0
  0
VERTEX
  5
553
  8
0
 10
8.112204724388
 20
-2.896653543297999
 30
0.0
 42
0.4142135623730951
  0
VERTEX
  5
554
  8
0
 10
7.862204724388
 20
-2.646653543297999
 30
0.0
  0
SEQEND
  5
6E6
  8
0
  0
POLYLINE
  5
12D
  8
0
 66
     1
 10
0.0
 20
0.0
 30
0.0
 70
     1
  0
VERTEX
  5
555
  8
0
 10
6.299704724388
 20
-3.146653543297999
 30
0.0
 42
0.4142135623730951
  0
VERTEX
  5
556
  8
0
 10
6.237204724388
 20
-3.084153543297999
 30
0.0
 42
0.4142135623730951
  0
VERTEX
  5
557
  8
0
 10
6.174704724388
 20
-3.146653543297999
 30
0.0
 42
0.4142135623730951
  0
VERTEX
  5
558
  8
0
 10
6.237204724388
 20
-3.209153543297999
 30
0.0
 42
0.4142135623730951
  0
SEQEND
  5
6E7
  8
0
  0
POLYLINE
  5
12E
  8
0
 66
     1
 10
0.0
 20
0.0
 30
0.0
 70
     1
  0
VERTEX
  5
559
  8
0
 10
6.299704724388
 20
-4.021653543297999
 30
0.0
 42
0.4142135623730951
  0
VERTEX
  5
55A
  8
0
 10
6.237204724388
 20
-3.959153543297999
 30
0.0
 42
0.4142135623730951
  0
VERTEX
  5
55B
  8
0
 10
6.174704724388
 20
-4.021653543297999
 30
0.0
 42
0.4142135623730951
  0
VERTEX
  5
55C
  8
0
 10
6.237204724388
 20
-4.084153543297999
 30
0.0
 42
0.4142135623730951
  0
SEQEND
  5
6E8
  8
0
  0
POLYLINE
  5
12F
  8
0
 66
     1
 10
0.0
 20
0.0
 30
0.0
 70
     1
  0
VERTEX
  5
55D
  8
0
 10
6.299704724388
 20
-4.771653543297999
 30
0.0
 42
0.4142135623730951
  0
VERTEX
  5
55E
  8
0
 10
6.237204724388
 20
-4.709153543297999
 30
0.0
 42
0.4142135623730951
  0
VERTEX
  5
55F
  8
0
 10
6.174704724388
 20
-4.771653543297999
 30
0.0
 42
0.4142135623730951
  0
VERTEX
  5
560
  8
0
 10
6.237204724388
 20
-4.834153543297999
 30
0.0
 42
0.4142135623730951
  0
SEQEND
  5
6E9
  8
0
  0
POLYLINE
  5
130
  8
0
 66
     1
 10
0.0
 20
0.0
 30
0.0
 70
     1
  0
VERTEX
  5
561
  8
0
 10
7.049704724388
 20
-3.146653543297999
 30
0.0
 42
0.4142135623730951
  0
VERTEX
  5
562
  8
0
 10
6.987204724388
 20
-3.084153543297999
 30
0.0
 42
0.4142135623730951
  0
VERTEX
  5
563
  8
0
 10
6.924704724388
 20
-3.146653543297999
 30
0.0
 42
0.4142135623730951
  0
VERTEX
  5
564
  8
0
 10
6.987204724388
 20
-3.209153543297999
 30
0.0
 42
0.4142135623730951
  0
SEQEND
  5
6EA
  8
0
  0
POLYLINE
  5
131
  8
0
 66
     1
 10
0.0
 20
0.0
 30
0.0
 70
     1
  0
VERTEX
  5
565
  8
0
 10
7.799704724388
 20
-3.146653543297999
 30
0.0
 42
0.4142135623730951
  0
VERTEX
  5
566
  8
0
 10
7.737204724388
 20
-3.084153543297999
 30
0.0
 42
0.4142135623730951
  0
VERTEX
  5
567
  8
0
 10
7.674704724388
 20
-3.146653543297999
 30
0.0
 42
0.4142135623730951
  0
VERTEX
  5
568
  8
0
 10
7.737204724388
 20
-3.209153543297999
 30
0.0
 42
0.4142135623730951
  0
SEQEND
  5
6EB
  8
0
  0
POLYLINE
  5
132
  8
0
 66
     1
 10
0.0
 20
0.0
 30
0.0
 70
     1
  0
VERTEX
  5
569
  8
0
 10
7.881889763758
 20
7.924212598382002
 30
0.0
 42
0.4142135623730951
  0
VERTEX
  5
56A
  8
0
 10
8.131889763758
 20
8.174212598382002
 30
0.0
  0
VERTEX
  5
56B
  8
0
 10
8.131889763758
 20
10.174212598382
 30
0.0
 42
0.4142135623730951
  0
VERTEX
  5
56C
  8
0
 10
7.881889763758
 20
10.424212598382
 30
0.0
  0
VERTEX
  5
56D
  8
0
 10
7.381889763758
 20
10.424212598382
 30
0.0
 42
0.4142135623730951
  0
VERTEX
  5
56E
  8
0
 10
7.131889763758
 20
10.174212598382
 30
0.0
  0
VERTEX
  5
56F
  8
0
 10
7.131889763758
 20
9.174212598382002
 30
0.0
 42
-0.4142135623730951
  0
VERTEX
  5
570
  8
0
 10
6.881889763758
 20
8.924212598382002
 30
0.0
  0
VERTEX
  5
571
  8
0
 10
6.006889763758
 20
8.924212598382002
 30
0.0
 42
0.4142135623730951
  0
VERTEX
  5
572
  8
0
 10
5.756889763758
 20
8.674212598382002
 30
0.0
  0
VERTEX
  5
573
  8
0
 10
5.756889763758
 20
8.174212598382002
 30
0.0
 42
0.4142135623730951
  0
VERTEX
  5
574
  8
0
 10
6.006889763758004
 20
7.924212598382002
 30
0.0
  0
SEQEND
  5
6EC
  8
0
  0
POLYLINE
  5
133
  8
0
 66
     1
 10
0.0
 20
0.0
 30
0.0
 70
     1
  0
VERTEX
  5
575
  8
0
 10
7.569389763758
 20
8.424212598382002
 30
0.0
 42
0.4142135623730951
  0
VERTEX
  5
576
  8
0
 10
7.631889763758
 20
8.361712598382002
 30
0.0
 42
0.4142135623730951
  0
VERTEX
  5
577
  8
0
 10
7.694389763758
 20
8.424212598382002
 30
0.0
 42
0.4142135623730951
  0
VERTEX
  5
578
  8
0
 10
7.631889763758
 20
8.486712598382002
 30
0.0
 42
0.4142135623730951
  0
SEQEND
  5
6ED
  8
0
  0
POLYLINE
  5
134
  8
0
 66
     1
 10
0.0
 20
0.0
 30
0.0
 70
     1
  0
VERTEX
  5
579
  8
0
 10
7.569389763758
 20
9.299212598382002
 30
0.0
 42
0.4142135623730951
  0
VERTEX
  5
57A
  8
0
 10
7.631889763758
 20
9.236712598382002
 30
0.0
 42
0.4142135623730951
  0
VERTEX
  5
57B
  8
0
 10
7.694389763758
 20
9.299212598382002
 30
0.0
 42
0.4142135623730951
  0
VERTEX
  5
57C
  8
0
 10
7.631889763758
 20
9.361712598382002
 30
0.0
 42
0.4142135623730951
  0
SEQEND
  5
6EE
  8
0
  0
POLYLINE
  5
135
  8
0
 66
     1
 10
0.0
 20
0.0
 30
0.0
 70
     1
  0
VERTEX
  5
57D
  8
0
 10
7.569389763758
 20
10.049212598382
 30
0.0
 42
0.4142135623730951
  0
VERTEX
  5
57E
  8
0
 10
7.631889763758
 20
9.986712598382002
 30
0.0
 42
0.4142135623730951
  0
VERTEX
  5
57F
  8
0
 10
7.694389763758
 20
10.049212598382
 30
0.0
 42
0.4142135623730951
  0
VERTEX
  5
580
  8
0
 10
7.631889763758
 20
10.111712598382
 30
0.0
 42
0.4142135623730951
  0
SEQEND
  5
6EF
  8
0
  0
POLYLINE
  5
136
  8
0
 66
     1
 10
0.0
 20
0.0
 30
0.0
 70
     1
  0
VERTEX
  5
581
  8
0
 10
6.819389763758
 20
8.424212598382002
 30
0.0
 42
0.4142135623730951
  0
VERTEX
  5
582
  8
0
 10
6.881889763758
 20
8.361712598382002
 30
0.0
 42
0.4142135623730951
  0
VERTEX
  5
583
  8
0
 10
6.944389763758
 20
8.424212598382002
 30
0.0
 42
0.4142135623730951
  0
VERTEX
  5
584
  8
0
 10
6.881889763758
 20
8.486712598382002
 30
0.0
 42
0.4142135623730951
  0
SEQEND
  5
6F0
  8
0
  0
POLYLINE
  5
137
  8
0
 66
     1
 10
0.0
 20
0.0
 30
0.0
 70
     1
  0
VERTEX
  5
585
  8
0
 10
6.069389763758
 20
8.424212598382002
 30
0.0
 42
0.4142135623730951
  0
VERTEX
  5
586
  8
0
 10
6.131889763758
 20
8.361712598382002
 30
0.0
 42
0.4142135623730951
  0
VERTEX
  5
587
  8
0
 10
6.194389763758
 20
8.424212598382002
 30
0.0
 42
0.4142135623730951
  0
VERTEX
  5
588
  8
0
 10
6.131889763758
 20
8.486712598382002
 30
0.0
 42
0.4142135623730951
  0
SEQEND
  5
6F1
  8
0
  0
POLYLINE
  5
138
  8
0
 66
     1
 10
0.0
 20
0.0
 30
0.0
 70
     1
  0
VERTEX
  5
589
  8
0
 10
8.413385826748002
 20
-6.347440944867999
 30
0.0
 42
0.4142135623730951
  0
VERTEX
  5
58A
  8
0
 10
8.663385826748002
 20
-6.097440944867999
 30
0.0
  0
VERTEX
  5
58B
  8
0
 10
8.663385826748002
 20
-4.097440944867999
 30
0.0
 42
0.4142135623730951
  0
VERTEX
  5
58C
  8
0
 10
8.413385826748002
 20
-3.847440944868001
 30
0.0
  0
VERTEX
  5
58D
  8
0
 10
7.913385826748002
 20
-3.847440944868001
 30
0.0
 42
0.4142135623730951
  0
VERTEX
  5
58E
  8
0
 10
7.663385826748002
 20
-4.097440944867999
 30
0.0
  0
VERTEX
  5
58F
  8
0
 10
7.663385826748002
 20
-5.097440944867999
 30
0.0
 42
-0.4142135623730951
  0
VERTEX
  5
590
  8
0
 10
7.413385826748002
 20
-5.347440944867999
 30
0.0
  0
VERTEX
  5
591
  8
0
 10
6.538385826748002
 20
-5.347440944867999
 30
0.0
 42
0.4142135623730951
  0
VERTEX
  5
592
  8
0
 10
6.288385826748002
 20
-5.597440944867999
 30
0.0
  0
VERTEX
  5
593
  8
0
 10
6.288385826748002
 20
-6.097440944867999
 30
0.0
 42
0.4142135623730951
  0
VERTEX
  5
594
  8
0
 10
6.538385826748005
 20
-6.347440944867999
 30
0.0
  0
SEQEND
  5
6F2
  8
0
  0
POLYLINE
  5
139
  8
0
 66
     1
 10
0.0
 20
0.0
 30
0.0
 70
     1
  0
VERTEX
  5
595
  8
0
 10
8.100885826748002
 20
-5.847440944867999
 30
0.0
 42
0.4142135623730951
  0
VERTEX
  5
596
  8
0
 10
8.163385826748002
 20
-5.909940944867999
 30
0.0
 42
0.4142135623730951
  0
VERTEX
  5
597
  8
0
 10
8.225885826748002
 20
-5.847440944867999
 30
0.0
 42
0.4142135623730951
  0
VERTEX
  5
598
  8
0
 10
8.163385826748002
 20
-5.784940944867999
 30
0.0
 42
0.4142135623730951
  0
SEQEND
  5
6F3
  8
0
  0
POLYLINE
  5
13A
  8
0
 66
     1
 10
0.0
 20
0.0
 30
0.0
 70
     1
  0
VERTEX
  5
599
  8
0
 10
8.100885826748002
 20
-4.972440944867999
 30
0.0
 42
0.4142135623730951
  0
VERTEX
  5
59A
  8
0
 10
8.163385826748002
 20
-5.034940944867999
 30
0.0
 42
0.4142135623730951
  0
VERTEX
  5
59B
  8
0
 10
8.225885826748002
 20
-4.972440944867999
 30
0.0
 42
0.4142135623730951
  0
VERTEX
  5
59C
  8
0
 10
8.163385826748002
 20
-4.909940944867999
 30
0.0
 42
0.4142135623730951
  0
SEQEND
  5
6F4
  8
0
  0
POLYLINE
  5
13B
  8
0
 66
     1
 10
0.0
 20
0.0
 30
0.0
 70
     1
  0
VERTEX
  5
59D
  8
0
 10
8.100885826748002
 20
-4.222440944867999
 30
0.0
 42
0.4142135623730951
  0
VERTEX
  5
59E
  8
0
 10
8.163385826748002
 20
-4.284940944867999
 30
0.0
 42
0.4142135623730951
  0
VERTEX
  5
59F
  8
0
 10
8.225885826748002
 20
-4.222440944867999
 30
0.0
 42
0.4142135623730951
  0
VERTEX
  5
5A0
  8
0
 10
8.163385826748002
 20
-4.159940944867999
 30
0.0
 42
0.4142135623730951
  0
SEQEND
  5
6F5
  8
0
  0
POLYLINE
  5
13C
  8
0
 66
     1
 10
0.0
 20
0.0
 30
0.0
 70
     1
  0
VERTEX
  5
5A1
  8
0
 10
7.350885826748002
 20
-5.847440944867999
 30
0.0
 42
0.4142135623730951
  0
VERTEX
  5
5A2
  8
0
 10
7.413385826748002
 20
-5.909940944867999
 30
0.0
 42
0.4142135623730951
  0
VERTEX
  5
5A3
  8
0
 10
7.475885826748002
 20
-5.847440944867999
 30
0.0
 42
0.4142135623730951
  0
VERTEX
  5
5A4
  8
0
 10
7.413385826748002
 20
-5.784940944867999
 30
0.0
 42
0.4142135623730951
  0
SEQEND
  5
6F6
  8
0
  0
POLYLINE
  5
13D
  8
0
 66
     1
 10
0.0
 20
0.0
 30
0.0
 70
     1
  0
VERTEX
  5
5A5
  8
0
 10
6.600885826748002
 20
-5.847440944867999
 30
0.0
 42
0.4142135623730951
  0
VERTEX
  5
5A6
  8
0
 10
6.663385826748002
 20
-5.909940944867999
 30
0.0
 42
0.4142135623730951
  0
VERTEX
  5
5A7
  8
0
 10
6.725885826748002
 20
-5.847440944867999
 30
0.0
 42
0.4142135623730951
  0
VERTEX
  5
5A8
  8
0
 10
6.663385826748002
 20
-5.784940944867999
 30
0.0
 42
0.4142135623730951
  0
SEQEND
  5
6F7
  8
0
  0
POLYLINE
  5
13E
  8
0
 66
     1
 10
0.0
 20
0.0
 30
0.0
 70
     1
  0
VERTEX
  5
5A9
  8
0
 10
7.089566929108006
 20
-8.906496062958002
 30
0.0
 42
0.4142135623730951
  0
VERTEX
  5
5AA
  8
0
 10
6.839566929108006
 20
-9.156496062958002
 30
0.0
  0
VERTEX
  5
5AB
  8
0
 10
6.839566929108006
 20
-11.156496062958
 30
0.0
 42
0.4142135623730951
  0
VERTEX
  5
5AC
  8
0
 10
7.089566929108006
 20
-11.406496062958
 30
0.0
  0
VERTEX
  5
5AD
  8
0
 10
7.589566929108006
 20
-11.406496062958
 30
0.0
 42
0.4142135623730951
  0
VERTEX
  5
5AE
  8
0
 10
7.839566929108006
 20
-11.156496062958
 30
0.0
  0
VERTEX
  5
5AF
  8
0
 10
7.839566929108006
 20
-10.156496062958
 30
0.0
 42
-0.4142135623730951
  0
VERTEX
  5
5B0
  8
0
 10
8.089566929108006
 20
-9.906496062958002
 30
0.0
  0
VERTEX
  5
5B1
  8
0
 10
8.964566929108006
 20
-9.906496062958002
 30
0.0
 42
0.4142135623730951
  0
VERTEX
  5
5B2
  8
0
 10
9.214566929108006
 20
-9.656496062958002
 30
0.0
  0
VERTEX
  5
5B3
  8
0
 10
9.214566929108006
 20
-9.156496062958002
 30
0.0
 42
0.4142135623730951
  0
VERTEX
  5
5B4
  8
0
 10
8.964566929108006
 20
-8.906496062958002
 30
0.0
  0
SEQEND
  5
6F8
  8
0
  0
POLYLINE
  5
13F
  8
0
 66
     1
 10
0.0
 20
0.0
 30
0.0
 70
     1
  0
VERTEX
  5
5B5
  8
0
 10
7.402066929108006
 20
-9.406496062958002
 30
0.0
 42
0.4142135623730951
  0
VERTEX
  5
5B6
  8
0
 10
7.339566929108006
 20
-9.343996062958002
 30
0.0
 42
0.4142135623730951
  0
VERTEX
  5
5B7
  8
0
 10
7.277066929108006
 20
-9.406496062958002
 30
0.0
 42
0.4142135623730951
  0
VERTEX
  5
5B8
  8
0
 10
7.339566929108006
 20
-9.468996062958002
 30
0.0
 42
0.4142135623730951
  0
SEQEND
  5
6F9
  8
0
  0
POLYLINE
  5
140
  8
0
 66
     1
 10
0.0
 20
0.0
 30
0.0
 70
     1
  0
VERTEX
  5
5B9
  8
0
 10
7.402066929108006
 20
-10.281496062958
 30
0.0
 42
0.4142135623730951
  0
VERTEX
  5
5BA
  8
0
 10
7.339566929108006
 20
-10.218996062958
 30
0.0
 42
0.4142135623730951
  0
VERTEX
  5
5BB
  8
0
 10
7.277066929108006
 20
-10.281496062958
 30
0.0
 42
0.4142135623730951
  0
VERTEX
  5
5BC
  8
0
 10
7.339566929108006
 20
-10.343996062958
 30
0.0
 42
0.4142135623730951
  0
SEQEND
  5
6FA
  8
0
  0
POLYLINE
  5
141
  8
0
 66
     1
 10
0.0
 20
0.0
 30
0.0
 70
     1
  0
VERTEX
  5
5BD
  8
0
 10
7.402066929108006
 20
-11.031496062958
 30
0.0
 42
0.4142135623730951
  0
VERTEX
  5
5BE
  8
0
 10
7.339566929108006
 20
-10.968996062958
 30
0.0
 42
0.4142135623730951
  0
VERTEX
  5
5BF
  8
0
 10
7.277066929108006
 20
-11.031496062958
 30
0.0
 42
0.4142135623730951
  0
VERTEX
  5
5C0
  8
0
 10
7.339566929108006
 20
-11.093996062958
 30
0.0
 42
0.4142135623730951
  0
SEQEND
  5
6FB
  8
0
  0
POLYLINE
  5
142
  8
0
 66
     1
 10
0.0
 20
0.0
 30
0.0
 70
     1
  0
VERTEX
  5
5C1
  8
0
 10
8.152066929108006
 20
-9.406496062958002
 30
0.0
 42
0.4142135623730951
  0
VERTEX
  5
5C2
  8
0
 10
8.089566929108006
 20
-9.343996062958002
 30
0.0
 42
0.4142135623730951
  0
VERTEX
  5
5C3
  8
0
 10
8.027066929108006
 20
-9.406496062958002
 30
0.0
 42
0.4142135623730951
  0
VERTEX
  5
5C4
  8
0
 10
8.089566929108006
 20
-9.468996062958002
 30
0.0
 42
0.4142135623730951
  0
SEQEND
  5
6FC
  8
0
  0
POLYLINE
  5
143
  8
0
 66
     1
 10
0.0
 20
0.0
 30
0.0
 70
     1
  0
VERTEX
  5
5C5
  8
0
 10
8.902066929108006
 20
-9.406496062958002
 30
0.0
 42
0.4142135623730951
  0
VERTEX
  5
5C6
  8
0
 10
8.839566929108006
 20
-9.343996062958002
 30
0.0
 42
0.4142135623730951
  0
VERTEX
  5
5C7
  8
0
 10
8.777066929108006
 20
-9.406496062958002
 30
0.0
 42
0.4142135623730951
  0
VERTEX
  5
5C8
  8
0
 10
8.839566929108006
 20
-9.468996062958002
 30
0.0
 42
0.4142135623730951
  0
SEQEND
  5
6FD
  8
0
  0
POLYLINE
  5
144
  8
0
 66
     1
 10
0.0
 20
0.0
 30
0.0
 70
     1
  0
VERTEX
  5
5C9
  8
0
 10
10.225393700758
 20
-6.794291338558
 30
0.0
 42
0.4142135623730951
  0
VERTEX
  5
5CA
  8
0
 10
9.975393700758001
 20
-6.544291338558
 30
0.0
  0
VERTEX
  5
5CB
  8
0
 10
7.975393700758001
 20
-6.544291338558
 30
0.0
 42
0.4142135623730951
  0
VERTEX
  5
5CC
  8
0
 10
7.725393700758001
 20
-6.794291338558
 30
0.0
  0
VERTEX
  5
5CD
  8
0
 10
7.725393700758001
 20
-7.294291338558
 30
0.0
 42
0.4142135623730951
  0
VERTEX
  5
5CE
  8
0
 10
7.975393700758001
 20
-7.544291338558
 30
0.0
  0
VERTEX
  5
5CF
  8
0
 10
8.975393700758001
 20
-7.544291338558
 30
0.0
 42
-0.4142135623730951
  0
VERTEX
  5
5D0
  8
0
 10
9.225393700758001
 20
-7.794291338558
 30
0.0
  0
VERTEX
  5
5D1
  8
0
 10
9.225393700758001
 20
-8.669291338558
 30
0.0
 42
0.4142135623730951
  0
VERTEX
  5
5D2
  8
0
 10
9.475393700758001
 20
-8.919291338558
 30
0.0
  0
VERTEX
  5
5D3
  8
0
 10
9.975393700758001
 20
-8.919291338558
 30
0.0
 42
0.4142135623730951
  0
VERTEX
  5
5D4
  8
0
 10
10.225393700758
 20
-8.669291338557999
 30
0.0
  0
SEQEND
  5
6FE
  8
0
  0
POLYLINE
  5
145
  8
0
 66
     1
 10
0.0
 20
0.0
 30
0.0
 70
     1
  0
VERTEX
  5
5D5
  8
0
 10
9.725393700758001
 20
-7.106791338558
 30
0.0
 42
0.4142135623730951
  0
VERTEX
  5
5D6
  8
0
 10
9.787893700758001
 20
-7.044291338558
 30
0.0
 42
0.4142135623730951
  0
VERTEX
  5
5D7
  8
0
 10
9.725393700758001
 20
-6.981791338558
 30
0.0
 42
0.4142135623730951
  0
VERTEX
  5
5D8
  8
0
 10
9.662893700758001
 20
-7.044291338558
 30
0.0
 42
0.4142135623730951
  0
SEQEND
  5
6FF
  8
0
  0
POLYLINE
  5
146
  8
0
 66
     1
 10
0.0
 20
0.0
 30
0.0
 70
     1
  0
VERTEX
  5
5D9
  8
0
 10
8.850393700758001
 20
-7.106791338558
 30
0.0
 42
0.4142135623730951
  0
VERTEX
  5
5DA
  8
0
 10
8.912893700758001
 20
-7.044291338558
 30
0.0
 42
0.4142135623730951
  0
VERTEX
  5
5DB
  8
0
 10
8.850393700758001
 20
-6.981791338558
 30
0.0
 42
0.4142135623730951
  0
VERTEX
  5
5DC
  8
0
 10
8.787893700758001
 20
-7.044291338558
 30
0.0
 42
0.4142135623730951
  0
SEQEND
  5
700
  8
0
  0
POLYLINE
  5
147
  8
0
 66
     1
 10
0.0
 20
0.0
 30
0.0
 70
     1
  0
VERTEX
  5
5DD
  8
0
 10
8.100393700758001
 20
-7.106791338558
 30
0.0
 42
0.4142135623730951
  0
VERTEX
  5
5DE
  8
0
 10
8.162893700758001
 20
-7.044291338558
 30
0.0
 42
0.4142135623730951
  0
VERTEX
  5
5DF
  8
0
 10
8.100393700758001
 20
-6.981791338558
 30
0.0
 42
0.4142135623730951
  0
VERTEX
  5
5E0
  8
0
 10
8.037893700758001
 20
-7.044291338558
 30
0.0
 42
0.4142135623730951
  0
SEQEND
  5
701
  8
0
  0
POLYLINE
  5
148
  8
0
 66
     1
 10
0.0
 20
0.0
 30
0.0
 70
     1
  0
VERTEX
  5
5E1
  8
0
 10
9.725393700758001
 20
-7.856791338558
 30
0.0
 42
0.4142135623730951
  0
VERTEX
  5
5E2
  8
0
 10
9.787893700758001
 20
-7.794291338558
 30
0.0
 42
0.4142135623730951
  0
VERTEX
  5
5E3
  8
0
 10
9.725393700758001
 20
-7.731791338558
 30
0.0
 42
0.4142135623730951
  0
VERTEX
  5
5E4
  8
0
 10
9.662893700758001
 20
-7.794291338558
 30
0.0
 42
0.4142135623730951
  0
SEQEND
  5
702
  8
0
  0
POLYLINE
  5
149
  8
0
 66
     1
 10
0.0
 20
0.0
 30
0.0
 70
     1
  0
VERTEX
  5
5E5
  8
0
 10
9.725393700758001
 20
-8.606791338558
 30
0.0
 42
0.4142135623730951
  0
VERTEX
  5
5E6
  8
0
 10
9.787893700758001
 20
-8.544291338558
 30
0.0
 42
0.4142135623730951
  0
VERTEX
  5
5E7
  8
0
 10
9.725393700758001
 20
-8.481791338558
 30
0.0
 42
0.4142135623730951
  0
VERTEX
  5
5E8
  8
0
 10
9.662893700758001
 20
-8.544291338558
 30
0.0
 42
0.4142135623730951
  0
SEQEND
  5
703
  8
0
  0
POLYLINE
  5
14A
  8
0
 66
     1
 10
0.0
 20
0.0
 30
0.0
 70
     1
  0
VERTEX
  5
5E9
  8
0
 10
10.677165354298
 20
-11.603346456658
 30
0.0
 42
0.4142135623730951
  0
VERTEX
  5
5EA
  8
0
 10
10.927165354298
 20
-11.353346456658
 30
0.0
  0
VERTEX
  5
5EB
  8
0
 10
10.927165354298
 20
-9.353346456657999
 30
0.0
 42
0.4142135623730951
  0
VERTEX
  5
5EC
  8
0
 10
10.677165354298
 20
-9.103346456658
 30
0.0
  0
VERTEX
  5
5ED
  8
0
 10
10.177165354298
 20
-9.103346456658
 30
0.0
 42
0.4142135623730951
  0
VERTEX
  5
5EE
  8
0
 10
9.927165354298001
 20
-9.353346456657999
 30
0.0
  0
VERTEX
  5
5EF
  8
0
 10
9.927165354298001
 20
-10.353346456658
 30
0.0
 42
-0.4142135623730951
  0
VERTEX
  5
5F0
  8
0
 10
9.677165354298001
 20
-10.603346456658
 30
0.0
  0
VERTEX
  5
5F1
  8
0
 10
8.802165354298001
 20
-10.603346456658
 30
0.0
 42
0.4142135623730951
  0
VERTEX
  5
5F2
  8
0
 10
8.552165354298001
 20
-10.853346456658
 30
0.0
  0
VERTEX
  5
5F3
  8
0
 10
8.552165354298001
 20
-11.353346456658
 30
0.0
 42
0.4142135623730951
  0
VERTEX
  5
5F4
  8
0
 10
8.802165354298005
 20
-11.603346456658
 30
0.0
  0
SEQEND
  5
704
  8
0
  0
POLYLINE
  5
14B
  8
0
 66
     1
 10
0.0
 20
0.0
 30
0.0
 70
     1
  0
VERTEX
  5
5F5
  8
0
 10
10.364665354298
 20
-11.103346456658
 30
0.0
 42
0.4142135623730951
  0
VERTEX
  5
5F6
  8
0
 10
10.427165354298
 20
-11.165846456658
 30
0.0
 42
0.4142135623730951
  0
VERTEX
  5
5F7
  8
0
 10
10.489665354298
 20
-11.103346456658
 30
0.0
 42
0.4142135623730951
  0
VERTEX
  5
5F8
  8
0
 10
10.427165354298
 20
-11.040846456658
 30
0.0
 42
0.4142135623730951
  0
SEQEND
  5
705
  8
0
  0
POLYLINE
  5
14C
  8
0
 66
     1
 10
0.0
 20
0.0
 30
0.0
 70
     1
  0
VERTEX
  5
5F9
  8
0
 10
10.364665354298
 20
-10.228346456658
 30
0.0
 42
0.4142135623730951
  0
VERTEX
  5
5FA
  8
0
 10
10.427165354298
 20
-10.290846456658
 30
0.0
 42
0.4142135623730951
  0
VERTEX
  5
5FB
  8
0
 10
10.489665354298
 20
-10.228346456658
 30
0.0
 42
0.4142135623730951
  0
VERTEX
  5
5FC
  8
0
 10
10.427165354298
 20
-10.165846456658
 30
0.0
 42
0.4142135623730951
  0
SEQEND
  5
706
  8
0
  0
POLYLINE
  5
14D
  8
0
 66
     1
 10
0.0
 20
0.0
 30
0.0
 70
     1
  0
VERTEX
  5
5FD
  8
0
 10
10.364665354298
 20
-9.478346456657999
 30
0.0
 42
0.4142135623730951
  0
VERTEX
  5
5FE
  8
0
 10
10.427165354298
 20
-9.540846456657999
 30
0.0
 42
0.4142135623730951
  0
VERTEX
  5
5FF
  8
0
 10
10.489665354298
 20
-9.478346456657999
 30
0.0
 42
0.4142135623730951
  0
VERTEX
  5
600
  8
0
 10
10.427165354298
 20
-9.415846456657999
 30
0.0
 42
0.4142135623730951
  0
SEQEND
  5
707
  8
0
  0
POLYLINE
  5
14E
  8
0
 66
     1
 10
0.0
 20
0.0
 30
0.0
 70
     1
  0
VERTEX
  5
601
  8
0
 10
9.614665354298001
 20
-11.103346456658
 30
0.0
 42
0.4142135623730951
  0
VERTEX
  5
602
  8
0
 10
9.677165354298001
 20
-11.165846456658
 30
0.0
 42
0.4142135623730951
  0
VERTEX
  5
603
  8
0
 10
9.739665354298001
 20
-11.103346456658
 30
0.0
 42
0.4142135623730951
  0
VERTEX
  5
604
  8
0
 10
9.677165354298001
 20
-11.040846456658
 30
0.0
 42
0.4142135623730951
  0
SEQEND
  5
708
  8
0
  0
POLYLINE
  5
14F
  8
0
 66
     1
 10
0.0
 20
0.0
 30
0.0
 70
     1
  0
VERTEX
  5
605
  8
0
 10
8.864665354298001
 20
-11.103346456658
 30
0.0
 42
0.4142135623730951
  0
VERTEX
  5
606
  8
0
 10
8.927165354298001
 20
-11.165846456658
 30
0.0
 42
0.4142135623730951
  0
VERTEX
  5
607
  8
0
 10
8.989665354298001
 20
-11.103346456658
 30
0.0
 42
0.4142135623730951
  0
VERTEX
  5
608
  8
0
 10
8.927165354298001
 20
-11.040846456658
 30
0.0
 42
0.4142135623730951
  0
SEQEND
  5
709
  8
0
  0
POLYLINE
  5
150
  8
0
 66
     1
 10
0.0
 20
0.0
 30
0.0
 70
     1
  0
VERTEX
  5
609
  8
0
 10
11.228346456658
 20
2.176181102342003
 30
0.0
 42
0.4142135623730951
  0
VERTEX
  5
60A
  8
0
 10
11.478346456658
 20
2.426181102342003
 30
0.0
  0
VERTEX
  5
60B
  8
0
 10
11.478346456658
 20
4.426181102342003
 30
0.0
 42
0.4142135623730951
  0
VERTEX
  5
60C
  8
0
 10
11.228346456658
 20
4.676181102341999
 30
0.0
  0
VERTEX
  5
60D
  8
0
 10
10.728346456658
 20
4.676181102341999
 30
0.0
 42
0.4142135623730951
  0
VERTEX
  5
60E
  8
0
 10
10.478346456658
 20
4.426181102342003
 30
0.0
  0
VERTEX
  5
60F
  8
0
 10
10.478346456658
 20
3.426181102342003
 30
0.0
 42
-0.4142135623730951
  0
VERTEX
  5
610
  8
0
 10
10.228346456658
 20
3.176181102342003
 30
0.0
  0
VERTEX
  5
611
  8
0
 10
9.353346456657999
 20
3.176181102342003
 30
0.0
 42
0.4142135623730951
  0
VERTEX
  5
612
  8
0
 10
9.103346456657999
 20
2.926181102342003
 30
0.0
  0
VERTEX
  5
613
  8
0
 10
9.103346456657999
 20
2.426181102342003
 30
0.0
 42
0.4142135623730951
  0
VERTEX
  5
614
  8
0
 10
9.353346456658002
 20
2.176181102342003
 30
0.0
  0
SEQEND
  5
70A
  8
0
  0
POLYLINE
  5
151
  8
0
 66
     1
 10
0.0
 20
0.0
 30
0.0
 70
     1
  0
VERTEX
  5
615
  8
0
 10
10.915846456658
 20
2.676181102342003
 30
0.0
 42
0.4142135623730951
  0
VERTEX
  5
616
  8
0
 10
10.978346456658
 20
2.613681102342003
 30
0.0
 42
0.4142135623730951
  0
VERTEX
  5
617
  8
0
 10
11.040846456658
 20
2.676181102342003
 30
0.0
 42
0.4142135623730951
  0
VERTEX
  5
618
  8
0
 10
10.978346456658
 20
2.738681102342003
 30
0.0
 42
0.4142135623730951
  0
SEQEND
  5
70B
  8
0
  0
POLYLINE
  5
152
  8
0
 66
     1
 10
0.0
 20
0.0
 30
0.0
 70
     1
  0
VERTEX
  5
619
  8
0
 10
10.915846456658
 20
3.551181102342003
 30
0.0
 42
0.4142135623730951
  0
VERTEX
  5
61A
  8
0
 10
10.978346456658
 20
3.488681102342003
 30
0.0
 42
0.4142135623730951
  0
VERTEX
  5
61B
  8
0
 10
11.040846456658
 20
3.551181102342003
 30
0.0
 42
0.4142135623730951
  0
VERTEX
  5
61C
  8
0
 10
10.978346456658
 20
3.613681102342003
 30
0.0
 42
0.4142135623730951
  0
SEQEND
  5
70C
  8
0
  0
POLYLINE
  5
153
  8
0
 66
     1
 10
0.0
 20
0.0
 30
0.0
 70
     1
  0
VERTEX
  5
61D
  8
0
 10
10.915846456658
 20
4.301181102342003
 30
0.0
 42
0.4142135623730951
  0
VERTEX
  5
61E
  8
0
 10
10.978346456658
 20
4.238681102342003
 30
0.0
 42
0.4142135623730951
  0
VERTEX
  5
61F
  8
0
 10
11.040846456658
 20
4.301181102342003
 30
0.0
 42
0.4142135623730951
  0
VERTEX
  5
620
  8
0
 10
10.978346456658
 20
4.363681102342003
 30
0.0
 42
0.4142135623730951
  0
SEQEND
  5
70D
  8
0
  0
POLYLINE
  5
154
  8
0
 66
     1
 10
0.0
 20
0.0
 30
0.0
 70
     1
  0
VERTEX
  5
621
  8
0
 10
10.165846456658
 20
2.676181102342003
 30
0.0
 42
0.4142135623730951
  0
VERTEX
  5
622
  8
0
 10
10.228346456658
 20
2.613681102342003
 30
0.0
 42
0.4142135623730951
  0
VERTEX
  5
623
  8
0
 10
10.290846456658
 20
2.676181102342003
 30
0.0
 42
0.4142135623730951
  0
VERTEX
  5
624
  8
0
 10
10.228346456658
 20
2.738681102342003
 30
0.0
 42
0.4142135623730951
  0
SEQEND
  5
70E
  8
0
  0
POLYLINE
  5
155
  8
0
 66
     1
 10
0.0
 20
0.0
 30
0.0
 70
     1
  0
VERTEX
  5
625
  8
0
 10
9.415846456657999
 20
2.676181102342003
 30
0.0
 42
0.4142135623730951
  0
VERTEX
  5
626
  8
0
 10
9.478346456657999
 20
2.613681102342003
 30
0.0
 42
0.4142135623730951
  0
VERTEX
  5
627
  8
0
 10
9.540846456657999
 20
2.676181102342003
 30
0.0
 42
0.4142135623730951
  0
VERTEX
  5
628
  8
0
 10
9.478346456657999
 20
2.738681102342003
 30
0.0
 42
0.4142135623730951
  0
SEQEND
  5
70F
  8
0
  0
ENDSEC
  0
EOF
