  0
SECTION
  2
HEADER
  9
$ACADVER
  1
AC1009
  9
$DWGCODEPAGE
  3
ansi_1252
  9
$INSBASE
 10
0.0
 20
0.0
 30
0.0
  9
$EXTMIN
 10
-11.624999999952
 20
-11.61027559049049
 30
0.0
  9
$EXTMAX
 10
11.53248031491601
 20
11.624999999952
 30
0.0
  9
$LIMMIN
 10
0.0
 20
0.0
  9
$LIMMAX
 10
12.0
 20
9.0
  9
$ORTHOMODE
 70
     0
  9
$REGENMODE
 70
     1
  9
$FILLMODE
 70
     1
  9
$QTEXTMODE
 70
     0
  9
$MIRRTEXT
 70
     1
  9
$DRAGMODE
 70
     2
  9
$LTSCALE
 40
1.0
  9
$OSMODE
 70
    37
  9
$ATTMODE
 70
     1
  9
$TEXTSIZE
 40
0.2
  9
$TRACEWID
 40
0.05
  9
$TEXTSTYLE
  7
STANDARD
  9
$CLAYER
  8
0
  9
$CELTYPE
  6
BYLAYER
  9
$CECOLOR
 62
   256
  9
$DIMSCALE
 40
1.0
  9
$DIMASZ
 40
0.18
  9
$DIMEXO
 40
0.0625
  9
$DIMDLI
 40
0.38
  9
$DIMRND
 40
0.0
  9
$DIMDLE
 40
0.0
  9
$DIMEXE
 40
0.18
  9
$DIMTP
 40
0.0
  9
$DIMTM
 40
0.0
  9
$DIMTXT
 40
0.18
  9
$DIMCEN
 40
0.09
  9
$DIMTSZ
 40
0.0
  9
$DIMTOL
 70
     0
  9
$DIMLIM
 70
     0
  9
$DIMTIH
 70
     1
  9
$DIMTOH
 70
     1
  9
$DIMSE1
 70
     0
  9
$DIMSE2
 70
     0
  9
$DIMTAD
 70
     0
  9
$DIMZIN
 70
     0
  9
$DIMBLK
  1

  9
$DIMASO
 70
     1
  9
$DIMSHO
 70
     1
  9
$DIMPOST
  1

  9
$DIMAPOST
  1

  9
$DIMALT
 70
     0
  9
$DIMALTD
 70
     2
  9
$DIMALTF
 40
25.4
  9
$DIMLFAC
 40
1.0
  9
$DIMTOFL
 70
     0
  9
$DIMTVP
 40
0.0
  9
$DIMTIX
 70
     0
  9
$DIMSOXD
 70
     0
  9
$DIMSAH
 70
     0
  9
$DIMBLK1
  1

  9
$DIMBLK2
  1

  9
$DIMSTYLE
  2
STANDARD
  9
$DIMCLRD
 70
     0
  9
$DIMCLRE
 70
     0
  9
$DIMCLRT
 70
     0
  9
$DIMTFAC
 40
1.0
  9
$DIMGAP
 40
0.09
  9
$LUNITS
 70
     2
  9
$LUPREC
 70
     4
  9
$SKETCHINC
 40
0.1
  9
$FILLETRAD
 40
0.5
  9
$AUNITS
 70
     0
  9
$AUPREC
 70
     0
  9
$MENU
  1
.
  9
$ELEVATION
 40
0.0
  9
$PELEVATION
 40
0.0
  9
$THICKNESS
 40
0.0
  9
$LIMCHECK
 70
     0
  9
$CHAMFERA
 40
0.0
  9
$CHAMFERB
 40
0.0
  9
$SKPOLY
 70
     0
  9
$TDCREATE
 40
2454910.5
  9
$TDUPDATE
 40
2458150.510699525
  9
$TDINDWG
 40
0.0000000116
  9
$TDUSRTIMER
 40
0.0000000116
  9
$USRTIMER
 70
     1
  9
$ANGBASE
 50
0.0
  9
$ANGDIR
 70
     0
  9
$PDMODE
 70
     0
  9
$PDSIZE
 40
0.0
  9
$PLINEWID
 40
0.0
  9
$COORDS
 70
     1
  9
$SPLFRAME
 70
     0
  9
$SPLINETYPE
 70
     6
  9
$SPLINESEGS
 70
     8
  9
$ATTDIA
 70
     0
  9
$ATTREQ
 70
     1
  9
$HANDLING
 70
     1
  9
$HANDSEED
  5
3A0
  9
$SURFTAB1
 70
     6
  9
$SURFTAB2
 70
     6
  9
$SURFTYPE
 70
     6
  9
$SURFU
 70
     6
  9
$SURFV
 70
     6
  9
$UCSNAME
  2

  9
$UCSORG
 10
0.0
 20
0.0
 30
0.0
  9
$UCSXDIR
 10
1.0
 20
0.0
 30
0.0
  9
$UCSYDIR
 10
0.0
 20
1.0
 30
0.0
  9
$PUCSNAME
  2

  9
$PUCSORG
 10
0.0
 20
0.0
 30
0.0
  9
$PUCSXDIR
 10
1.0
 20
0.0
 30
0.0
  9
$PUCSYDIR
 10
0.0
 20
1.0
 30
0.0
  9
$USERI1
 70
     0
  9
$USERI2
 70
     0
  9
$USERI3
 70
     0
  9
$USERI4
 70
     0
  9
$USERI5
 70
     0
  9
$USERR1
 40
0.0
  9
$USERR2
 40
0.0
  9
$USERR3
 40
0.0
  9
$USERR4
 40
0.0
  9
$USERR5
 40
0.0
  9
$WORLDVIEW
 70
     1
  9
$SHADEDGE
 70
     3
  9
$SHADEDIF
 70
    70
  9
$TILEMODE
 70
     1
  9
$MAXACTVP
 70
    64
  9
$PLIMCHECK
 70
     0
  9
$PEXTMIN
 10
1.000000000000000E+20
 20
1.000000000000000E+20
 30
1.000000000000000E+20
  9
$PEXTMAX
 10
-1.000000000000000E+20
 20
-1.000000000000000E+20
 30
-1.000000000000000E+20
  9
$PLIMMIN
 10
0.0
 20
0.0
  9
$PLIMMAX
 10
12.0
 20
9.0
  9
$UNITMODE
 70
     0
  9
$VISRETAIN
 70
     1
  9
$PLINEGEN
 70
     0
  9
$PSLTSCALE
 70
     1
  0
ENDSEC
  0
SECTION
  2
TABLES
  0
TABLE
  2
VPORT
 70
     1
  0
VPORT
  2
*ACTIVE
 70
     0
 10
0.0
 20
0.0
 11
1.0
 21
1.0
 12
10.42990654205607
 22
4.5
 13
0.0
 23
0.0
 14
0.5
 24
0.5
 15
0.5
 25
0.5
 16
0.0
 26
0.0
 36
1.0
 17
0.0
 27
0.0
 37
0.0
 40
9.0
 41
1.972972972850329
 42
50.0
 43
0.0
 44
0.0
 50
0.0
 51
0.0
 71
     0
 72
   100
 73
     1
 74
     3
 75
     0
 76
     0
 77
     0
 78
     0
  0
ENDTAB
  0
TABLE
  2
LTYPE
 70
     2
  0
LTYPE
  2
CONTINUOUS
 70
     0
  3
Solid line
 72
    65
 73
     0
 40
0.0
  0
LTYPE
  2
CONTINUOUS2
 70
     0
  3
Solid Line
 72
    65
 73
     0
 40
0.0
  0
ENDTAB
  0
TABLE
  2
LAYER
 70
     1
  0
LAYER
  2
0
 70
     0
 62
     7
  6
CONTINUOUS
  0
ENDTAB
  0
TABLE
  2
STYLE
 70
     1
  0
STYLE
  2
STANDARD
 70
     0
 40
0.0
 41
1.0
 50
0.0
 71
     0
 42
0.2
  3
txt
  4

  0
ENDTAB
  0
TABLE
  2
VIEW
 70
     0
  0
ENDTAB
  0
TABLE
  2
UCS
 70
     0
  0
ENDTAB
  0
TABLE
  2
APPID
 70
     1
  0
APPID
  2
ACAD
 70
     0
  0
ENDTAB
  0
TABLE
  2
DIMSTYLE
 70
     1
  0
DIMSTYLE
  2
STANDARD
 70
     0
  3

  4

  5

  6

  7

 40
1.0
 41
0.18
 42
0.0625
 43
0.38
 44
0.18
 45
0.0
 46
0.0
 47
0.0
 48
0.0
140
0.18
141
0.09
142
0.0
143
25.4
144
1.0
145
0.0
146
1.0
147
0.09
 71
     0
 72
     0
 73
     1
 74
     1
 75
     0
 76
     0
 77
     0
 78
     0
170
     0
171
     2
172
     0
173
     0
174
     0
175
     0
176
     0
177
     0
178
     0
  0
ENDTAB
  0
ENDSEC
  0
SECTION
  2
BLOCKS
  0
BLOCK
  8
0
  2
$MODEL_SPACE
 70
     0
 10
0.0
 20
0.0
 30
0.0
  3
$MODEL_SPACE
  1

  0
ENDBLK
  5
21
  8
0
  0
BLOCK
 67
     1
  8
0
  2
$PAPER_SPACE
 70
     0
 10
0.0
 20
0.0
 30
0.0
  3
$PAPER_SPACE
  1

  0
ENDBLK
  5
1D
 67
     1
  8
0
  0
ENDSEC
  0
SECTION
  2
ENTITIES
  0
POLYLINE
  5
6F
  8
0
 66
     1
 10
0.0
 20
0.0
 30
0.0
 70
     1
  0
VERTEX
  5
E5
  8
0
 10
-8.734190378939942
 20
2.655000000003625
 30
0.0
  0
VERTEX
  5
E6
  8
0
 10
-11.624999999952
 20
-2.163016035055843
 30
0.0
  0
VERTEX
  5
E7
  8
0
 10
-11.624999999952
 20
-6.314999999960491
 30
0.0
  0
VERTEX
  5
E8
  8
0
 10
-9.62499999996
 20
-6.314999999960491
 30
0.0
  0
VERTEX
  5
E9
  8
0
 10
-9.62499999996
 20
-2.716983964935515
 30
0.0
  0
VERTEX
  5
EA
  8
0
 10
-7.624999999968002
 20
0.6163493683976071
 30
0.0
  0
VERTEX
  5
EB
  8
0
 10
-5.624999999975993
 20
-2.716983964935515
 30
0.0
  0
VERTEX
  5
EC
  8
0
 10
-5.624999999975993
 20
-6.31499999996049
 30
0.0
  0
VERTEX
  5
ED
  8
0
 10
-3.624999999983995
 20
-6.31499999996049
 30
0.0
  0
VERTEX
  5
EE
  8
0
 10
-3.624999999983995
 20
-2.163016035055843
 30
0.0
  0
VERTEX
  5
EF
  8
0
 10
-6.515809620996056
 20
2.655000000003625
 30
0.0
  0
VERTEX
  5
F0
  8
0
 10
-3.624999999983995
 20
7.473016035039475
 30
0.0
  0
VERTEX
  5
F1
  8
0
 10
-3.624999999983995
 20
11.624999999952
 30
0.0
  0
VERTEX
  5
F2
  8
0
 10
-5.624999999975993
 20
11.624999999952
 30
0.0
  0
VERTEX
  5
F3
  8
0
 10
-5.624999999975993
 20
8.026983964923083
 30
0.0
  0
VERTEX
  5
F4
  8
0
 10
-7.624999999968002
 20
4.693650631609646
 30
0.0
  0
VERTEX
  5
F5
  8
0
 10
-9.62499999996
 20
8.026983964923083
 30
0.0
  0
VERTEX
  5
F6
  8
0
 10
-9.62499999996
 20
11.624999999952
 30
0.0
  0
VERTEX
  5
F7
  8
0
 10
-11.624999999952
 20
11.624999999952
 30
0.0
  0
VERTEX
  5
F8
  8
0
 10
-11.624999999952
 20
7.473016035027662
 30
0.0
  0
SEQEND
  5
331
  8
0
  0
POLYLINE
  5
70
  8
0
 66
     1
 10
0.0
 20
0.0
 30
0.0
 70
     1
  0
VERTEX
  5
F9
  8
0
 10
-10.54024803145241
 20
-5.969999999946126
 30
0.0
 42
0.4142135623730951
  0
VERTEX
  5
FA
  8
0
 10
-10.640748031452
 20
-5.869499999946528
 30
0.0
 42
0.4142135623730951
  0
VERTEX
  5
FB
  8
0
 10
-10.7412480314516
 20
-5.969999999946126
 30
0.0
 42
0.4142135623730951
  0
VERTEX
  5
FC
  8
0
 10
-10.640748031452
 20
-6.070499999945724
 30
0.0
 42
0.4142135623730951
  0
SEQEND
  5
332
  8
0
  0
POLYLINE
  5
71
  8
0
 66
     1
 10
0.0
 20
0.0
 30
0.0
 70
     1
  0
VERTEX
  5
FD
  8
0
 10
-5.099303149584396
 20
-5.969999999946126
 30
0.0
 42
0.4142135623730951
  0
VERTEX
  5
FE
  8
0
 10
-5.199803149583995
 20
-5.869499999946528
 30
0.0
 42
0.4142135623730951
  0
VERTEX
  5
FF
  8
0
 10
-5.30030314958359
 20
-5.969999999946126
 30
0.0
 42
0.4142135623730951
  0
VERTEX
  5
100
  8
0
 10
-5.199803149583995
 20
-6.070499999945723
 30
0.0
 42
0.4142135623730951
  0
SEQEND
  5
333
  8
0
  0
POLYLINE
  5
72
  8
0
 66
     1
 10
0.0
 20
0.0
 30
0.0
 70
     1
  0
VERTEX
  5
101
  8
0
 10
-3.918200787384396
 20
-5.969999999946126
 30
0.0
 42
0.4142135623730951
  0
VERTEX
  5
102
  8
0
 10
-4.018700787383994
 20
-5.869499999946528
 30
0.0
 42
0.4142135623730951
  0
VERTEX
  5
103
  8
0
 10
-4.119200787383591
 20
-5.969999999946126
 30
0.0
 42
0.4142135623730951
  0
VERTEX
  5
104
  8
0
 10
-4.018700787383994
 20
-6.070499999945723
 30
0.0
 42
0.4142135623730951
  0
SEQEND
  5
334
  8
0
  0
POLYLINE
  5
73
  8
0
 66
     1
 10
0.0
 20
0.0
 30
0.0
 70
     1
  0
VERTEX
  5
105
  8
0
 10
-10.54024803145241
 20
11.27999999995338
 30
0.0
 42
0.4142135623730951
  0
VERTEX
  5
106
  8
0
 10
-10.64074803145201
 20
11.38049999995297
 30
0.0
 42
0.4142135623730951
  0
VERTEX
  5
107
  8
0
 10
-10.7412480314516
 20
11.27999999995338
 30
0.0
 42
0.4142135623730951
  0
VERTEX
  5
108
  8
0
 10
-10.64074803145201
 20
11.17949999995378
 30
0.0
 42
0.4142135623730951
  0
SEQEND
  5
335
  8
0
  0
POLYLINE
  5
74
  8
0
 66
     1
 10
0.0
 20
0.0
 30
0.0
 70
     1
  0
VERTEX
  5
109
  8
0
 10
-5.099303149584396
 20
11.27999999995338
 30
0.0
 42
0.4142135623730951
  0
VERTEX
  5
10A
  8
0
 10
-5.199803149583995
 20
11.38049999995297
 30
0.0
 42
0.4142135623730951
  0
VERTEX
  5
10B
  8
0
 10
-5.30030314958359
 20
11.27999999995338
 30
0.0
 42
0.4142135623730951
  0
VERTEX
  5
10C
  8
0
 10
-5.199803149583995
 20
11.17949999995378
 30
0.0
 42
0.4142135623730951
  0
SEQEND
  5
336
  8
0
  0
POLYLINE
  5
75
  8
0
 66
     1
 10
0.0
 20
0.0
 30
0.0
 70
     1
  0
VERTEX
  5
10D
  8
0
 10
-3.918200787384396
 20
11.27999999995338
 30
0.0
 42
0.4142135623730951
  0
VERTEX
  5
10E
  8
0
 10
-4.018700787383994
 20
11.38049999995297
 30
0.0
 42
0.4142135623730951
  0
VERTEX
  5
10F
  8
0
 10
-4.119200787383591
 20
11.27999999995338
 30
0.0
 42
0.4142135623730951
  0
VERTEX
  5
110
  8
0
 10
-4.018700787383994
 20
11.17949999995378
 30
0.0
 42
0.4142135623730951
  0
SEQEND
  5
337
  8
0
  0
POLYLINE
  5
76
  8
0
 66
     1
 10
0.0
 20
0.0
 30
0.0
 70
     1
  0
VERTEX
  5
111
  8
0
 10
-4.508751968484401
 20
11.27999999995338
 30
0.0
 42
0.4142135623730951
  0
VERTEX
  5
112
  8
0
 10
-4.609251968483998
 20
11.38049999995297
 30
0.0
 42
0.4142135623730951
  0
VERTEX
  5
113
  8
0
 10
-4.709751968483597
 20
11.27999999995338
 30
0.0
 42
0.4142135623730951
  0
VERTEX
  5
114
  8
0
 10
-4.609251968483998
 20
11.17949999995378
 30
0.0
 42
0.4142135623730951
  0
SEQEND
  5
338
  8
0
  0
POLYLINE
  5
77
  8
0
 66
     1
 10
0.0
 20
0.0
 30
0.0
 70
     1
  0
VERTEX
  5
115
  8
0
 10
-11.13079921255241
 20
11.27999999995338
 30
0.0
 42
0.4142135623730951
  0
VERTEX
  5
116
  8
0
 10
-11.23129921255201
 20
11.38049999995297
 30
0.0
 42
0.4142135623730951
  0
VERTEX
  5
117
  8
0
 10
-11.3317992125516
 20
11.27999999995338
 30
0.0
 42
0.4142135623730951
  0
VERTEX
  5
118
  8
0
 10
-11.23129921255201
 20
11.17949999995378
 30
0.0
 42
0.4142135623730951
  0
SEQEND
  5
339
  8
0
  0
POLYLINE
  5
78
  8
0
 66
     1
 10
0.0
 20
0.0
 30
0.0
 70
     1
  0
VERTEX
  5
119
  8
0
 10
-9.949696850352407
 20
11.27999999995338
 30
0.0
 42
0.4142135623730951
  0
VERTEX
  5
11A
  8
0
 10
-10.05019685035201
 20
11.38049999995297
 30
0.0
 42
0.4142135623730951
  0
VERTEX
  5
11B
  8
0
 10
-10.1506968503516
 20
11.27999999995338
 30
0.0
 42
0.4142135623730951
  0
VERTEX
  5
11C
  8
0
 10
-10.05019685035201
 20
11.17949999995378
 30
0.0
 42
0.4142135623730951
  0
SEQEND
  5
33A
  8
0
  0
POLYLINE
  5
79
  8
0
 66
     1
 10
0.0
 20
0.0
 30
0.0
 70
     1
  0
VERTEX
  5
11D
  8
0
 10
-4.508751968484401
 20
-5.969999999946126
 30
0.0
 42
0.4142135623730951
  0
VERTEX
  5
11E
  8
0
 10
-4.609251968483998
 20
-5.869499999946528
 30
0.0
 42
0.4142135623730951
  0
VERTEX
  5
11F
  8
0
 10
-4.709751968483597
 20
-5.969999999946126
 30
0.0
 42
0.4142135623730951
  0
VERTEX
  5
120
  8
0
 10
-4.609251968483998
 20
-6.070499999945723
 30
0.0
 42
0.4142135623730951
  0
SEQEND
  5
33B
  8
0
  0
POLYLINE
  5
7A
  8
0
 66
     1
 10
0.0
 20
0.0
 30
0.0
 70
     1
  0
VERTEX
  5
121
  8
0
 10
-11.13079921255241
 20
-5.969999999946126
 30
0.0
 42
0.4142135623730951
  0
VERTEX
  5
122
  8
0
 10
-11.231299212552
 20
-5.869499999946528
 30
0.0
 42
0.4142135623730951
  0
VERTEX
  5
123
  8
0
 10
-11.3317992125516
 20
-5.969999999946126
 30
0.0
 42
0.4142135623730951
  0
VERTEX
  5
124
  8
0
 10
-11.231299212552
 20
-6.070499999945724
 30
0.0
 42
0.4142135623730951
  0
SEQEND
  5
33C
  8
0
  0
POLYLINE
  5
7B
  8
0
 66
     1
 10
0.0
 20
0.0
 30
0.0
 70
     1
  0
VERTEX
  5
125
  8
0
 10
-9.949696850352407
 20
-5.969999999946126
 30
0.0
 42
0.4142135623730951
  0
VERTEX
  5
126
  8
0
 10
-10.050196850352
 20
-5.869499999946528
 30
0.0
 42
0.4142135623730951
  0
VERTEX
  5
127
  8
0
 10
-10.1506968503516
 20
-5.969999999946126
 30
0.0
 42
0.4142135623730951
  0
VERTEX
  5
128
  8
0
 10
-10.050196850352
 20
-6.070499999945724
 30
0.0
 42
0.4142135623730951
  0
SEQEND
  5
33D
  8
0
  0
POLYLINE
  5
7C
  8
0
 66
     1
 10
0.0
 20
0.0
 30
0.0
 70
     1
  0
VERTEX
  5
129
  8
0
 10
-1.155450221489939
 20
-2.640275590526375
 30
0.0
  0
VERTEX
  5
12A
  8
0
 10
-4.046259842501997
 20
-7.458291625585844
 30
0.0
  0
VERTEX
  5
12B
  8
0
 10
-4.046259842501996
 20
-11.61027559049049
 30
0.0
  0
VERTEX
  5
12C
  8
0
 10
-2.046259842509997
 20
-11.61027559049049
 30
0.0
  0
VERTEX
  5
12D
  8
0
 10
-2.046259842509997
 20
-8.012259555465516
 30
0.0
  0
VERTEX
  5
12E
  8
0
 10
-0.0462598425180012
 20
-4.678926222132393
 30
0.0
  0
VERTEX
  5
12F
  8
0
 10
1.953740157474009
 20
-8.012259555465516
 30
0.0
  0
VERTEX
  5
130
  8
0
 10
1.953740157474009
 20
-11.61027559049049
 30
0.0
  0
VERTEX
  5
131
  8
0
 10
3.953740157466008
 20
-11.61027559049049
 30
0.0
  0
VERTEX
  5
132
  8
0
 10
3.953740157466008
 20
-7.458291625585843
 30
0.0
  0
VERTEX
  5
133
  8
0
 10
1.062930536453944
 20
-2.640275590526375
 30
0.0
  0
VERTEX
  5
134
  8
0
 10
3.953740157466008
 20
2.177740444509473
 30
0.0
  0
VERTEX
  5
135
  8
0
 10
3.953740157466008
 20
6.329724409421999
 30
0.0
  0
VERTEX
  5
136
  8
0
 10
1.953740157474009
 20
6.329724409421999
 30
0.0
  0
VERTEX
  5
137
  8
0
 10
1.953740157474009
 20
2.731708374393083
 30
0.0
  0
VERTEX
  5
138
  8
0
 10
-0.0462598425180012
 20
-0.601624958920354
 30
0.0
  0
VERTEX
  5
139
  8
0
 10
-2.046259842509999
 20
2.731708374393083
 30
0.0
  0
VERTEX
  5
13A
  8
0
 10
-2.046259842509999
 20
6.329724409421999
 30
0.0
  0
VERTEX
  5
13B
  8
0
 10
-4.046259842501998
 20
6.329724409421999
 30
0.0
  0
VERTEX
  5
13C
  8
0
 10
-4.046259842501998
 20
2.177740444497662
 30
0.0
  0
SEQEND
  5
33E
  8
0
  0
POLYLINE
  5
7D
  8
0
 66
     1
 10
0.0
 20
0.0
 30
0.0
 70
     1
  0
VERTEX
  5
13D
  8
0
 10
-2.961507874002404
 20
-11.26527559047613
 30
0.0
 42
0.4142135623730951
  0
VERTEX
  5
13E
  8
0
 10
-3.062007874002003
 20
-11.16477559047653
 30
0.0
 42
0.4142135623730951
  0
VERTEX
  5
13F
  8
0
 10
-3.162507874001601
 20
-11.26527559047613
 30
0.0
 42
0.4142135623730951
  0
VERTEX
  5
140
  8
0
 10
-3.062007874002003
 20
-11.36577559047572
 30
0.0
 42
0.4142135623730951
  0
SEQEND
  5
33F
  8
0
  0
POLYLINE
  5
7E
  8
0
 66
     1
 10
0.0
 20
0.0
 30
0.0
 70
     1
  0
VERTEX
  5
141
  8
0
 10
2.479437007865606
 20
-11.26527559047613
 30
0.0
 42
0.4142135623730951
  0
VERTEX
  5
142
  8
0
 10
2.378937007866007
 20
-11.16477559047653
 30
0.0
 42
0.4142135623730951
  0
VERTEX
  5
143
  8
0
 10
2.278437007866412
 20
-11.26527559047613
 30
0.0
 42
0.4142135623730951
  0
VERTEX
  5
144
  8
0
 10
2.378937007866007
 20
-11.36577559047572
 30
0.0
 42
0.4142135623730951
  0
SEQEND
  5
340
  8
0
  0
POLYLINE
  5
7F
  8
0
 66
     1
 10
0.0
 20
0.0
 30
0.0
 70
     1
  0
VERTEX
  5
145
  8
0
 10
3.660539370065607
 20
-11.26527559047613
 30
0.0
 42
0.4142135623730951
  0
VERTEX
  5
146
  8
0
 10
3.560039370066008
 20
-11.16477559047653
 30
0.0
 42
0.4142135623730951
  0
VERTEX
  5
147
  8
0
 10
3.459539370066409
 20
-11.26527559047613
 30
0.0
 42
0.4142135623730951
  0
VERTEX
  5
148
  8
0
 10
3.560039370066008
 20
-11.36577559047572
 30
0.0
 42
0.4142135623730951
  0
SEQEND
  5
341
  8
0
  0
POLYLINE
  5
80
  8
0
 66
     1
 10
0.0
 20
0.0
 30
0.0
 70
     1
  0
VERTEX
  5
149
  8
0
 10
-2.961507874002406
 20
5.984724409423375
 30
0.0
 42
0.4142135623730951
  0
VERTEX
  5
14A
  8
0
 10
-3.062007874002003
 20
6.085224409422974
 30
0.0
 42
0.4142135623730951
  0
VERTEX
  5
14B
  8
0
 10
-3.162507874001601
 20
5.984724409423375
 30
0.0
 42
0.4142135623730951
  0
VERTEX
  5
14C
  8
0
 10
-3.062007874002003
 20
5.884224409423776
 30
0.0
 42
0.4142135623730951
  0
SEQEND
  5
342
  8
0
  0
POLYLINE
  5
81
  8
0
 66
     1
 10
0.0
 20
0.0
 30
0.0
 70
     1
  0
VERTEX
  5
14D
  8
0
 10
2.479437007865606
 20
5.984724409423375
 30
0.0
 42
0.4142135623730951
  0
VERTEX
  5
14E
  8
0
 10
2.378937007866007
 20
6.085224409422974
 30
0.0
 42
0.4142135623730951
  0
VERTEX
  5
14F
  8
0
 10
2.278437007866412
 20
5.984724409423375
 30
0.0
 42
0.4142135623730951
  0
VERTEX
  5
150
  8
0
 10
2.378937007866007
 20
5.884224409423776
 30
0.0
 42
0.4142135623730951
  0
SEQEND
  5
343
  8
0
  0
POLYLINE
  5
82
  8
0
 66
     1
 10
0.0
 20
0.0
 30
0.0
 70
     1
  0
VERTEX
  5
151
  8
0
 10
3.660539370065607
 20
5.984724409423375
 30
0.0
 42
0.4142135623730951
  0
VERTEX
  5
152
  8
0
 10
3.560039370066008
 20
6.085224409422974
 30
0.0
 42
0.4142135623730951
  0
VERTEX
  5
153
  8
0
 10
3.459539370066409
 20
5.984724409423375
 30
0.0
 42
0.4142135623730951
  0
VERTEX
  5
154
  8
0
 10
3.560039370066008
 20
5.884224409423776
 30
0.0
 42
0.4142135623730951
  0
SEQEND
  5
344
  8
0
  0
POLYLINE
  5
83
  8
0
 66
     1
 10
0.0
 20
0.0
 30
0.0
 70
     1
  0
VERTEX
  5
155
  8
0
 10
3.069988188965599
 20
5.984724409423375
 30
0.0
 42
0.4142135623730951
  0
VERTEX
  5
156
  8
0
 10
2.969488188966004
 20
6.085224409422974
 30
0.0
 42
0.4142135623730951
  0
VERTEX
  5
157
  8
0
 10
2.868988188966405
 20
5.984724409423375
 30
0.0
 42
0.4142135623730951
  0
VERTEX
  5
158
  8
0
 10
2.969488188966004
 20
5.884224409423776
 30
0.0
 42
0.4142135623730951
  0
SEQEND
  5
345
  8
0
  0
POLYLINE
  5
84
  8
0
 66
     1
 10
0.0
 20
0.0
 30
0.0
 70
     1
  0
VERTEX
  5
159
  8
0
 10
-3.552059055102406
 20
5.984724409423375
 30
0.0
 42
0.4142135623730951
  0
VERTEX
  5
15A
  8
0
 10
-3.652559055102003
 20
6.085224409422974
 30
0.0
 42
0.4142135623730951
  0
VERTEX
  5
15B
  8
0
 10
-3.753059055101602
 20
5.984724409423375
 30
0.0
 42
0.4142135623730951
  0
VERTEX
  5
15C
  8
0
 10
-3.652559055102003
 20
5.884224409423776
 30
0.0
 42
0.4142135623730951
  0
SEQEND
  5
346
  8
0
  0
POLYLINE
  5
85
  8
0
 66
     1
 10
0.0
 20
0.0
 30
0.0
 70
     1
  0
VERTEX
  5
15D
  8
0
 10
-2.370956692902405
 20
5.984724409423375
 30
0.0
 42
0.4142135623730951
  0
VERTEX
  5
15E
  8
0
 10
-2.471456692902002
 20
6.085224409422974
 30
0.0
 42
0.4142135623730951
  0
VERTEX
  5
15F
  8
0
 10
-2.571956692901601
 20
5.984724409423375
 30
0.0
 42
0.4142135623730951
  0
VERTEX
  5
160
  8
0
 10
-2.471456692902002
 20
5.884224409423776
 30
0.0
 42
0.4142135623730951
  0
SEQEND
  5
347
  8
0
  0
POLYLINE
  5
86
  8
0
 66
     1
 10
0.0
 20
0.0
 30
0.0
 70
     1
  0
VERTEX
  5
161
  8
0
 10
3.069988188965599
 20
-11.26527559047613
 30
0.0
 42
0.4142135623730951
  0
VERTEX
  5
162
  8
0
 10
2.969488188966004
 20
-11.16477559047653
 30
0.0
 42
0.4142135623730951
  0
VERTEX
  5
163
  8
0
 10
2.868988188966405
 20
-11.26527559047613
 30
0.0
 42
0.4142135623730951
  0
VERTEX
  5
164
  8
0
 10
2.969488188966004
 20
-11.36577559047572
 30
0.0
 42
0.4142135623730951
  0
SEQEND
  5
348
  8
0
  0
POLYLINE
  5
87
  8
0
 66
     1
 10
0.0
 20
0.0
 30
0.0
 70
     1
  0
VERTEX
  5
165
  8
0
 10
-3.552059055102404
 20
-11.26527559047613
 30
0.0
 42
0.4142135623730951
  0
VERTEX
  5
166
  8
0
 10
-3.652559055102003
 20
-11.16477559047653
 30
0.0
 42
0.4142135623730951
  0
VERTEX
  5
167
  8
0
 10
-3.753059055101602
 20
-11.26527559047613
 30
0.0
 42
0.4142135623730951
  0
VERTEX
  5
168
  8
0
 10
-3.652559055102003
 20
-11.36577559047572
 30
0.0
 42
0.4142135623730951
  0
SEQEND
  5
349
  8
0
  0
POLYLINE
  5
88
  8
0
 66
     1
 10
0.0
 20
0.0
 30
0.0
 70
     1
  0
VERTEX
  5
169
  8
0
 10
-2.370956692902404
 20
-11.26527559047613
 30
0.0
 42
0.4142135623730951
  0
VERTEX
  5
16A
  8
0
 10
-2.471456692902002
 20
-11.16477559047653
 30
0.0
 42
0.4142135623730951
  0
VERTEX
  5
16B
  8
0
 10
-2.571956692901601
 20
-11.26527559047613
 30
0.0
 42
0.4142135623730951
  0
VERTEX
  5
16C
  8
0
 10
-2.471456692902002
 20
-11.36577559047572
 30
0.0
 42
0.4142135623730951
  0
SEQEND
  5
34A
  8
0
  0
POLYLINE
  5
89
  8
0
 66
     1
 10
0.0
 20
0.0
 30
0.0
 70
     1
  0
VERTEX
  5
16D
  8
0
 10
6.42328993596006
 20
2.655000000003625
 30
0.0
  0
VERTEX
  5
16E
  8
0
 10
3.532480314948003
 20
-2.163016035055843
 30
0.0
  0
VERTEX
  5
16F
  8
0
 10
3.532480314948003
 20
-6.314999999960491
 30
0.0
  0
VERTEX
  5
170
  8
0
 10
5.532480314940003
 20
-6.314999999960491
 30
0.0
  0
VERTEX
  5
171
  8
0
 10
5.532480314940003
 20
-2.716983964935515
 30
0.0
  0
VERTEX
  5
172
  8
0
 10
7.532480314931998
 20
0.6163493683976071
 30
0.0
  0
VERTEX
  5
173
  8
0
 10
9.532480314924008
 20
-2.716983964935515
 30
0.0
  0
VERTEX
  5
174
  8
0
 10
9.532480314924008
 20
-6.31499999996049
 30
0.0
  0
VERTEX
  5
175
  8
0
 10
11.53248031491601
 20
-6.31499999996049
 30
0.0
  0
VERTEX
  5
176
  8
0
 10
11.53248031491601
 20
-2.163016035055843
 30
0.0
  0
VERTEX
  5
177
  8
0
 10
8.641670693903944
 20
2.655000000003625
 30
0.0
  0
VERTEX
  5
178
  8
0
 10
11.53248031491601
 20
7.473016035039475
 30
0.0
  0
VERTEX
  5
179
  8
0
 10
11.53248031491601
 20
11.624999999952
 30
0.0
  0
VERTEX
  5
17A
  8
0
 10
9.532480314924008
 20
11.624999999952
 30
0.0
  0
VERTEX
  5
17B
  8
0
 10
9.532480314924008
 20
8.026983964923083
 30
0.0
  0
VERTEX
  5
17C
  8
0
 10
7.532480314931998
 20
4.693650631609646
 30
0.0
  0
VERTEX
  5
17D
  8
0
 10
5.532480314940003
 20
8.026983964923083
 30
0.0
  0
VERTEX
  5
17E
  8
0
 10
5.532480314940003
 20
11.624999999952
 30
0.0
  0
VERTEX
  5
17F
  8
0
 10
3.532480314948003
 20
11.624999999952
 30
0.0
  0
VERTEX
  5
180
  8
0
 10
3.532480314948003
 20
7.473016035027662
 30
0.0
  0
SEQEND
  5
34B
  8
0
  0
POLYLINE
  5
8A
  8
0
 66
     1
 10
0.0
 20
0.0
 30
0.0
 70
     1
  0
VERTEX
  5
181
  8
0
 10
4.617232283447596
 20
-5.969999999946126
 30
0.0
 42
0.4142135623730951
  0
VERTEX
  5
182
  8
0
 10
4.516732283447997
 20
-5.869499999946528
 30
0.0
 42
0.4142135623730951
  0
VERTEX
  5
183
  8
0
 10
4.416232283448398
 20
-5.969999999946126
 30
0.0
 42
0.4142135623730951
  0
VERTEX
  5
184
  8
0
 10
4.516732283447997
 20
-6.070499999945724
 30
0.0
 42
0.4142135623730951
  0
SEQEND
  5
34C
  8
0
  0
POLYLINE
  5
8B
  8
0
 66
     1
 10
0.0
 20
0.0
 30
0.0
 70
     1
  0
VERTEX
  5
185
  8
0
 10
10.05817716531561
 20
-5.969999999946126
 30
0.0
 42
0.4142135623730951
  0
VERTEX
  5
186
  8
0
 10
9.957677165316007
 20
-5.869499999946528
 30
0.0
 42
0.4142135623730951
  0
VERTEX
  5
187
  8
0
 10
9.857177165316411
 20
-5.969999999946126
 30
0.0
 42
0.4142135623730951
  0
VERTEX
  5
188
  8
0
 10
9.957677165316007
 20
-6.070499999945723
 30
0.0
 42
0.4142135623730951
  0
SEQEND
  5
34D
  8
0
  0
POLYLINE
  5
8C
  8
0
 66
     1
 10
0.0
 20
0.0
 30
0.0
 70
     1
  0
VERTEX
  5
189
  8
0
 10
11.23927952751561
 20
-5.969999999946126
 30
0.0
 42
0.4142135623730951
  0
VERTEX
  5
18A
  8
0
 10
11.13877952751601
 20
-5.869499999946528
 30
0.0
 42
0.4142135623730951
  0
VERTEX
  5
18B
  8
0
 10
11.03827952751641
 20
-5.969999999946126
 30
0.0
 42
0.4142135623730951
  0
VERTEX
  5
18C
  8
0
 10
11.13877952751601
 20
-6.070499999945723
 30
0.0
 42
0.4142135623730951
  0
SEQEND
  5
34E
  8
0
  0
POLYLINE
  5
8D
  8
0
 66
     1
 10
0.0
 20
0.0
 30
0.0
 70
     1
  0
VERTEX
  5
18D
  8
0
 10
4.617232283447596
 20
11.27999999995338
 30
0.0
 42
0.4142135623730951
  0
VERTEX
  5
18E
  8
0
 10
4.516732283447997
 20
11.38049999995297
 30
0.0
 42
0.4142135623730951
  0
VERTEX
  5
18F
  8
0
 10
4.416232283448398
 20
11.27999999995338
 30
0.0
 42
0.4142135623730951
  0
VERTEX
  5
190
  8
0
 10
4.516732283447997
 20
11.17949999995378
 30
0.0
 42
0.4142135623730951
  0
SEQEND
  5
34F
  8
0
  0
POLYLINE
  5
8E
  8
0
 66
     1
 10
0.0
 20
0.0
 30
0.0
 70
     1
  0
VERTEX
  5
191
  8
0
 10
10.05817716531561
 20
11.27999999995338
 30
0.0
 42
0.4142135623730951
  0
VERTEX
  5
192
  8
0
 10
9.957677165316007
 20
11.38049999995297
 30
0.0
 42
0.4142135623730951
  0
VERTEX
  5
193
  8
0
 10
9.857177165316411
 20
11.27999999995338
 30
0.0
 42
0.4142135623730951
  0
VERTEX
  5
194
  8
0
 10
9.957677165316007
 20
11.17949999995378
 30
0.0
 42
0.4142135623730951
  0
SEQEND
  5
350
  8
0
  0
POLYLINE
  5
8F
  8
0
 66
     1
 10
0.0
 20
0.0
 30
0.0
 70
     1
  0
VERTEX
  5
195
  8
0
 10
11.23927952751561
 20
11.27999999995338
 30
0.0
 42
0.4142135623730951
  0
VERTEX
  5
196
  8
0
 10
11.13877952751601
 20
11.38049999995297
 30
0.0
 42
0.4142135623730951
  0
VERTEX
  5
197
  8
0
 10
11.03827952751641
 20
11.27999999995338
 30
0.0
 42
0.4142135623730951
  0
VERTEX
  5
198
  8
0
 10
11.13877952751601
 20
11.17949999995378
 30
0.0
 42
0.4142135623730951
  0
SEQEND
  5
351
  8
0
  0
POLYLINE
  5
90
  8
0
 66
     1
 10
0.0
 20
0.0
 30
0.0
 70
     1
  0
VERTEX
  5
199
  8
0
 10
10.6487283464156
 20
11.27999999995338
 30
0.0
 42
0.4142135623730951
  0
VERTEX
  5
19A
  8
0
 10
10.548228346416
 20
11.38049999995297
 30
0.0
 42
0.4142135623730951
  0
VERTEX
  5
19B
  8
0
 10
10.4477283464164
 20
11.27999999995338
 30
0.0
 42
0.4142135623730951
  0
VERTEX
  5
19C
  8
0
 10
10.548228346416
 20
11.17949999995378
 30
0.0
 42
0.4142135623730951
  0
SEQEND
  5
352
  8
0
  0
POLYLINE
  5
91
  8
0
 66
     1
 10
0.0
 20
0.0
 30
0.0
 70
     1
  0
VERTEX
  5
19D
  8
0
 10
4.026681102347595
 20
11.27999999995338
 30
0.0
 42
0.4142135623730951
  0
VERTEX
  5
19E
  8
0
 10
3.926181102347996
 20
11.38049999995297
 30
0.0
 42
0.4142135623730951
  0
VERTEX
  5
19F
  8
0
 10
3.825681102348398
 20
11.27999999995338
 30
0.0
 42
0.4142135623730951
  0
VERTEX
  5
1A0
  8
0
 10
3.926181102347996
 20
11.17949999995378
 30
0.0
 42
0.4142135623730951
  0
SEQEND
  5
353
  8
0
  0
POLYLINE
  5
92
  8
0
 66
     1
 10
0.0
 20
0.0
 30
0.0
 70
     1
  0
VERTEX
  5
1A1
  8
0
 10
5.207783464547596
 20
11.27999999995338
 30
0.0
 42
0.4142135623730951
  0
VERTEX
  5
1A2
  8
0
 10
5.107283464547997
 20
11.38049999995297
 30
0.0
 42
0.4142135623730951
  0
VERTEX
  5
1A3
  8
0
 10
5.006783464548398
 20
11.27999999995338
 30
0.0
 42
0.4142135623730951
  0
VERTEX
  5
1A4
  8
0
 10
5.107283464547997
 20
11.17949999995378
 30
0.0
 42
0.4142135623730951
  0
SEQEND
  5
354
  8
0
  0
POLYLINE
  5
93
  8
0
 66
     1
 10
0.0
 20
0.0
 30
0.0
 70
     1
  0
VERTEX
  5
1A5
  8
0
 10
10.6487283464156
 20
-5.969999999946126
 30
0.0
 42
0.4142135623730951
  0
VERTEX
  5
1A6
  8
0
 10
10.548228346416
 20
-5.869499999946528
 30
0.0
 42
0.4142135623730951
  0
VERTEX
  5
1A7
  8
0
 10
10.4477283464164
 20
-5.969999999946126
 30
0.0
 42
0.4142135623730951
  0
VERTEX
  5
1A8
  8
0
 10
10.548228346416
 20
-6.070499999945723
 30
0.0
 42
0.4142135623730951
  0
SEQEND
  5
355
  8
0
  0
POLYLINE
  5
94
  8
0
 66
     1
 10
0.0
 20
0.0
 30
0.0
 70
     1
  0
VERTEX
  5
1A9
  8
0
 10
4.026681102347595
 20
-5.969999999946126
 30
0.0
 42
0.4142135623730951
  0
VERTEX
  5
1AA
  8
0
 10
3.926181102347996
 20
-5.869499999946528
 30
0.0
 42
0.4142135623730951
  0
VERTEX
  5
1AB
  8
0
 10
3.825681102348399
 20
-5.969999999946126
 30
0.0
 42
0.4142135623730951
  0
VERTEX
  5
1AC
  8
0
 10
3.926181102347996
 20
-6.070499999945724
 30
0.0
 42
0.4142135623730951
  0
SEQEND
  5
356
  8
0
  0
POLYLINE
  5
95
  8
0
 66
     1
 10
0.0
 20
0.0
 30
0.0
 70
     1
  0
VERTEX
  5
1AD
  8
0
 10
5.207783464547596
 20
-5.969999999946126
 30
0.0
 42
0.4142135623730951
  0
VERTEX
  5
1AE
  8
0
 10
5.107283464547997
 20
-5.869499999946528
 30
0.0
 42
0.4142135623730951
  0
VERTEX
  5
1AF
  8
0
 10
5.006783464548402
 20
-5.969999999946126
 30
0.0
 42
0.4142135623730951
  0
VERTEX
  5
1B0
  8
0
 10
5.107283464547997
 20
-6.070499999945724
 30
0.0
 42
0.4142135623730951
  0
SEQEND
  5
357
  8
0
  0
POLYLINE
  5
96
  8
0
 66
     1
 10
0.0
 20
0.0
 30
0.0
 70
     1
  0
VERTEX
  5
1B1
  8
0
 10
-11.374999999952
 20
3.278543307071999
 30
0.0
 42
0.4142135623730951
  0
VERTEX
  5
1B2
  8
0
 10
-11.624999999952
 20
3.028543307071999
 30
0.0
  0
VERTEX
  5
1B3
  8
0
 10
-11.624999999952
 20
1.028543307071999
 30
0.0
 42
0.4142135623730951
  0
VERTEX
  5
1B4
  8
0
 10
-11.374999999952
 20
0.7785433070720007
 30
0.0
  0
VERTEX
  5
1B5
  8
0
 10
-10.874999999952
 20
0.7785433070720007
 30
0.0
 42
0.4142135623730951
  0
VERTEX
  5
1B6
  8
0
 10
-10.624999999952
 20
1.028543307071999
 30
0.0
  0
VERTEX
  5
1B7
  8
0
 10
-10.624999999952
 20
2.028543307071999
 30
0.0
 42
-0.4142135623730951
  0
VERTEX
  5
1B8
  8
0
 10
-10.374999999952
 20
2.278543307071999
 30
0.0
  0
VERTEX
  5
1B9
  8
0
 10
-9.499999999952003
 20
2.278543307071999
 30
0.0
 42
0.4142135623730951
  0
VERTEX
  5
1BA
  8
0
 10
-9.249999999952003
 20
2.528543307071999
 30
0.0
  0
VERTEX
  5
1BB
  8
0
 10
-9.249999999952003
 20
3.028543307071999
 30
0.0
 42
0.4142135623730951
  0
VERTEX
  5
1BC
  8
0
 10
-9.499999999952003
 20
3.278543307071999
 30
0.0
  0
SEQEND
  5
358
  8
0
  0
POLYLINE
  5
97
  8
0
 66
     1
 10
0.0
 20
0.0
 30
0.0
 70
     1
  0
VERTEX
  5
1BD
  8
0
 10
-11.062499999952
 20
2.778543307071999
 30
0.0
 42
0.4142135623730951
  0
VERTEX
  5
1BE
  8
0
 10
-11.124999999952
 20
2.841043307071999
 30
0.0
 42
0.4142135623730951
  0
VERTEX
  5
1BF
  8
0
 10
-11.187499999952
 20
2.778543307071999
 30
0.0
 42
0.4142135623730951
  0
VERTEX
  5
1C0
  8
0
 10
-11.124999999952
 20
2.716043307071999
 30
0.0
 42
0.4142135623730951
  0
SEQEND
  5
359
  8
0
  0
POLYLINE
  5
98
  8
0
 66
     1
 10
0.0
 20
0.0
 30
0.0
 70
     1
  0
VERTEX
  5
1C1
  8
0
 10
-11.062499999952
 20
1.903543307071999
 30
0.0
 42
0.4142135623730951
  0
VERTEX
  5
1C2
  8
0
 10
-11.124999999952
 20
1.966043307071999
 30
0.0
 42
0.4142135623730951
  0
VERTEX
  5
1C3
  8
0
 10
-11.187499999952
 20
1.903543307071999
 30
0.0
 42
0.4142135623730951
  0
VERTEX
  5
1C4
  8
0
 10
-11.124999999952
 20
1.841043307071999
 30
0.0
 42
0.4142135623730951
  0
SEQEND
  5
35A
  8
0
  0
POLYLINE
  5
99
  8
0
 66
     1
 10
0.0
 20
0.0
 30
0.0
 70
     1
  0
VERTEX
  5
1C5
  8
0
 10
-11.062499999952
 20
1.153543307071999
 30
0.0
 42
0.4142135623730951
  0
VERTEX
  5
1C6
  8
0
 10
-11.124999999952
 20
1.216043307071999
 30
0.0
 42
0.4142135623730951
  0
VERTEX
  5
1C7
  8
0
 10
-11.187499999952
 20
1.153543307071999
 30
0.0
 42
0.4142135623730951
  0
VERTEX
  5
1C8
  8
0
 10
-11.124999999952
 20
1.091043307071999
 30
0.0
 42
0.4142135623730951
  0
SEQEND
  5
35B
  8
0
  0
POLYLINE
  5
9A
  8
0
 66
     1
 10
0.0
 20
0.0
 30
0.0
 70
     1
  0
VERTEX
  5
1C9
  8
0
 10
-10.312499999952
 20
2.778543307071999
 30
0.0
 42
0.4142135623730951
  0
VERTEX
  5
1CA
  8
0
 10
-10.374999999952
 20
2.841043307071999
 30
0.0
 42
0.4142135623730951
  0
VERTEX
  5
1CB
  8
0
 10
-10.437499999952
 20
2.778543307071999
 30
0.0
 42
0.4142135623730951
  0
VERTEX
  5
1CC
  8
0
 10
-10.374999999952
 20
2.716043307071999
 30
0.0
 42
0.4142135623730951
  0
SEQEND
  5
35C
  8
0
  0
POLYLINE
  5
9B
  8
0
 66
     1
 10
0.0
 20
0.0
 30
0.0
 70
     1
  0
VERTEX
  5
1CD
  8
0
 10
-9.562499999952003
 20
2.778543307071999
 30
0.0
 42
0.4142135623730951
  0
VERTEX
  5
1CE
  8
0
 10
-9.624999999952003
 20
2.841043307071999
 30
0.0
 42
0.4142135623730951
  0
VERTEX
  5
1CF
  8
0
 10
-9.687499999952003
 20
2.778543307071999
 30
0.0
 42
0.4142135623730951
  0
VERTEX
  5
1D0
  8
0
 10
-9.624999999952003
 20
2.716043307071999
 30
0.0
 42
0.4142135623730951
  0
SEQEND
  5
35D
  8
0
  0
POLYLINE
  5
9C
  8
0
 66
     1
 10
0.0
 20
0.0
 30
0.0
 70
     1
  0
VERTEX
  5
1D1
  8
0
 10
-11.374999999952
 20
-6.504921259818001
 30
0.0
 42
0.4142135623730951
  0
VERTEX
  5
1D2
  8
0
 10
-11.624999999952
 20
-6.754921259818001
 30
0.0
  0
VERTEX
  5
1D3
  8
0
 10
-11.624999999952
 20
-8.754921259818001
 30
0.0
 42
0.4142135623730951
  0
VERTEX
  5
1D4
  8
0
 10
-11.374999999952
 20
-9.004921259818
 30
0.0
  0
VERTEX
  5
1D5
  8
0
 10
-10.874999999952
 20
-9.004921259818
 30
0.0
 42
0.4142135623730951
  0
VERTEX
  5
1D6
  8
0
 10
-10.624999999952
 20
-8.754921259818001
 30
0.0
  0
VERTEX
  5
1D7
  8
0
 10
-10.624999999952
 20
-7.754921259818001
 30
0.0
 42
-0.4142135623730951
  0
VERTEX
  5
1D8
  8
0
 10
-10.374999999952
 20
-7.504921259818001
 30
0.0
  0
VERTEX
  5
1D9
  8
0
 10
-9.499999999952001
 20
-7.504921259818001
 30
0.0
 42
0.4142135623730951
  0
VERTEX
  5
1DA
  8
0
 10
-9.249999999952001
 20
-7.254921259818001
 30
0.0
  0
VERTEX
  5
1DB
  8
0
 10
-9.249999999952003
 20
-6.754921259818001
 30
0.0
 42
0.4142135623730951
  0
VERTEX
  5
1DC
  8
0
 10
-9.499999999952003
 20
-6.504921259818001
 30
0.0
  0
SEQEND
  5
35E
  8
0
  0
POLYLINE
  5
9D
  8
0
 66
     1
 10
0.0
 20
0.0
 30
0.0
 70
     1
  0
VERTEX
  5
1DD
  8
0
 10
-11.062499999952
 20
-7.004921259818001
 30
0.0
 42
0.4142135623730951
  0
VERTEX
  5
1DE
  8
0
 10
-11.124999999952
 20
-6.942421259818001
 30
0.0
 42
0.4142135623730951
  0
VERTEX
  5
1DF
  8
0
 10
-11.187499999952
 20
-7.004921259818001
 30
0.0
 42
0.4142135623730951
  0
VERTEX
  5
1E0
  8
0
 10
-11.124999999952
 20
-7.067421259818001
 30
0.0
 42
0.4142135623730951
  0
SEQEND
  5
35F
  8
0
  0
POLYLINE
  5
9E
  8
0
 66
     1
 10
0.0
 20
0.0
 30
0.0
 70
     1
  0
VERTEX
  5
1E1
  8
0
 10
-11.062499999952
 20
-7.879921259818001
 30
0.0
 42
0.4142135623730951
  0
VERTEX
  5
1E2
  8
0
 10
-11.124999999952
 20
-7.817421259818001
 30
0.0
 42
0.4142135623730951
  0
VERTEX
  5
1E3
  8
0
 10
-11.187499999952
 20
-7.879921259818001
 30
0.0
 42
0.4142135623730951
  0
VERTEX
  5
1E4
  8
0
 10
-11.124999999952
 20
-7.942421259818001
 30
0.0
 42
0.4142135623730951
  0
SEQEND
  5
360
  8
0
  0
POLYLINE
  5
9F
  8
0
 66
     1
 10
0.0
 20
0.0
 30
0.0
 70
     1
  0
VERTEX
  5
1E5
  8
0
 10
-11.062499999952
 20
-8.629921259818001
 30
0.0
 42
0.4142135623730951
  0
VERTEX
  5
1E6
  8
0
 10
-11.124999999952
 20
-8.567421259818001
 30
0.0
 42
0.4142135623730951
  0
VERTEX
  5
1E7
  8
0
 10
-11.187499999952
 20
-8.629921259818001
 30
0.0
 42
0.4142135623730951
  0
VERTEX
  5
1E8
  8
0
 10
-11.124999999952
 20
-8.692421259818001
 30
0.0
 42
0.4142135623730951
  0
SEQEND
  5
361
  8
0
  0
POLYLINE
  5
A0
  8
0
 66
     1
 10
0.0
 20
0.0
 30
0.0
 70
     1
  0
VERTEX
  5
1E9
  8
0
 10
-10.312499999952
 20
-7.004921259818001
 30
0.0
 42
0.4142135623730951
  0
VERTEX
  5
1EA
  8
0
 10
-10.374999999952
 20
-6.942421259818001
 30
0.0
 42
0.4142135623730951
  0
VERTEX
  5
1EB
  8
0
 10
-10.437499999952
 20
-7.004921259818001
 30
0.0
 42
0.4142135623730951
  0
VERTEX
  5
1EC
  8
0
 10
-10.374999999952
 20
-7.067421259818001
 30
0.0
 42
0.4142135623730951
  0
SEQEND
  5
362
  8
0
  0
POLYLINE
  5
A1
  8
0
 66
     1
 10
0.0
 20
0.0
 30
0.0
 70
     1
  0
VERTEX
  5
1ED
  8
0
 10
-9.562499999952003
 20
-7.004921259818001
 30
0.0
 42
0.4142135623730951
  0
VERTEX
  5
1EE
  8
0
 10
-9.624999999952003
 20
-6.942421259818001
 30
0.0
 42
0.4142135623730951
  0
VERTEX
  5
1EF
  8
0
 10
-9.687499999952003
 20
-7.004921259818001
 30
0.0
 42
0.4142135623730951
  0
VERTEX
  5
1F0
  8
0
 10
-9.624999999952003
 20
-7.067421259818001
 30
0.0
 42
0.4142135623730951
  0
SEQEND
  5
363
  8
0
  0
POLYLINE
  5
A2
  8
0
 66
     1
 10
0.0
 20
0.0
 30
0.0
 70
     1
  0
VERTEX
  5
1F1
  8
0
 10
-11.624999999952
 20
-11.326771653508
 30
0.0
 42
0.4142135623730951
  0
VERTEX
  5
1F2
  8
0
 10
-11.374999999952
 20
-11.576771653508
 30
0.0
  0
VERTEX
  5
1F3
  8
0
 10
-9.374999999952
 20
-11.576771653508
 30
0.0
 42
0.4142135623730951
  0
VERTEX
  5
1F4
  8
0
 10
-9.124999999952001
 20
-11.326771653508
 30
0.0
  0
VERTEX
  5
1F5
  8
0
 10
-9.124999999952001
 20
-10.826771653508
 30
0.0
 42
0.4142135623730951
  0
VERTEX
  5
1F6
  8
0
 10
-9.374999999952
 20
-10.576771653508
 30
0.0
  0
VERTEX
  5
1F7
  8
0
 10
-10.374999999952
 20
-10.576771653508
 30
0.0
 42
-0.4142135623730951
  0
VERTEX
  5
1F8
  8
0
 10
-10.624999999952
 20
-10.326771653508
 30
0.0
  0
VERTEX
  5
1F9
  8
0
 10
-10.624999999952
 20
-9.451771653508
 30
0.0
 42
0.4142135623730951
  0
VERTEX
  5
1FA
  8
0
 10
-10.874999999952
 20
-9.201771653508
 30
0.0
  0
VERTEX
  5
1FB
  8
0
 10
-11.374999999952
 20
-9.201771653508
 30
0.0
 42
0.4142135623730951
  0
VERTEX
  5
1FC
  8
0
 10
-11.624999999952
 20
-9.451771653508002
 30
0.0
  0
SEQEND
  5
364
  8
0
  0
POLYLINE
  5
A3
  8
0
 66
     1
 10
0.0
 20
0.0
 30
0.0
 70
     1
  0
VERTEX
  5
1FD
  8
0
 10
-11.124999999952
 20
-11.014271653508
 30
0.0
 42
0.4142135623730951
  0
VERTEX
  5
1FE
  8
0
 10
-11.187499999952
 20
-11.076771653508
 30
0.0
 42
0.4142135623730951
  0
VERTEX
  5
1FF
  8
0
 10
-11.124999999952
 20
-11.139271653508
 30
0.0
 42
0.4142135623730951
  0
VERTEX
  5
200
  8
0
 10
-11.062499999952
 20
-11.076771653508
 30
0.0
 42
0.4142135623730951
  0
SEQEND
  5
365
  8
0
  0
POLYLINE
  5
A4
  8
0
 66
     1
 10
0.0
 20
0.0
 30
0.0
 70
     1
  0
VERTEX
  5
201
  8
0
 10
-10.249999999952
 20
-11.014271653508
 30
0.0
 42
0.4142135623730951
  0
VERTEX
  5
202
  8
0
 10
-10.312499999952
 20
-11.076771653508
 30
0.0
 42
0.4142135623730951
  0
VERTEX
  5
203
  8
0
 10
-10.249999999952
 20
-11.139271653508
 30
0.0
 42
0.4142135623730951
  0
VERTEX
  5
204
  8
0
 10
-10.187499999952
 20
-11.076771653508
 30
0.0
 42
0.4142135623730951
  0
SEQEND
  5
366
  8
0
  0
POLYLINE
  5
A5
  8
0
 66
     1
 10
0.0
 20
0.0
 30
0.0
 70
     1
  0
VERTEX
  5
205
  8
0
 10
-9.499999999952
 20
-11.014271653508
 30
0.0
 42
0.4142135623730951
  0
VERTEX
  5
206
  8
0
 10
-9.562499999952
 20
-11.076771653508
 30
0.0
 42
0.4142135623730951
  0
VERTEX
  5
207
  8
0
 10
-9.499999999952
 20
-11.139271653508
 30
0.0
 42
0.4142135623730951
  0
VERTEX
  5
208
  8
0
 10
-9.437499999952
 20
-11.076771653508
 30
0.0
 42
0.4142135623730951
  0
SEQEND
  5
367
  8
0
  0
POLYLINE
  5
A6
  8
0
 66
     1
 10
0.0
 20
0.0
 30
0.0
 70
     1
  0
VERTEX
  5
209
  8
0
 10
-11.124999999952
 20
-10.264271653508
 30
0.0
 42
0.4142135623730951
  0
VERTEX
  5
20A
  8
0
 10
-11.187499999952
 20
-10.326771653508
 30
0.0
 42
0.4142135623730951
  0
VERTEX
  5
20B
  8
0
 10
-11.124999999952
 20
-10.389271653508
 30
0.0
 42
0.4142135623730951
  0
VERTEX
  5
20C
  8
0
 10
-11.062499999952
 20
-10.326771653508
 30
0.0
 42
0.4142135623730951
  0
SEQEND
  5
368
  8
0
  0
POLYLINE
  5
A7
  8
0
 66
     1
 10
0.0
 20
0.0
 30
0.0
 70
     1
  0
VERTEX
  5
20D
  8
0
 10
-11.124999999952
 20
-9.514271653508
 30
0.0
 42
0.4142135623730951
  0
VERTEX
  5
20E
  8
0
 10
-11.187499999952
 20
-9.576771653508
 30
0.0
 42
0.4142135623730951
  0
VERTEX
  5
20F
  8
0
 10
-11.124999999952
 20
-9.639271653508
 30
0.0
 42
0.4142135623730951
  0
VERTEX
  5
210
  8
0
 10
-11.062499999952
 20
-9.576771653508
 30
0.0
 42
0.4142135623730951
  0
SEQEND
  5
369
  8
0
  0
POLYLINE
  5
A8
  8
0
 66
     1
 10
0.0
 20
0.0
 30
0.0
 70
     1
  0
VERTEX
  5
211
  8
0
 10
-10.174212598382
 20
-7.705708661388002
 30
0.0
 42
0.4142135623730951
  0
VERTEX
  5
212
  8
0
 10
-10.424212598382
 20
-7.955708661388002
 30
0.0
  0
VERTEX
  5
213
  8
0
 10
-10.424212598382
 20
-9.955708661388002
 30
0.0
 42
0.4142135623730951
  0
VERTEX
  5
214
  8
0
 10
-10.174212598382
 20
-10.205708661388
 30
0.0
  0
VERTEX
  5
215
  8
0
 10
-9.674212598382002
 20
-10.205708661388
 30
0.0
 42
0.4142135623730951
  0
VERTEX
  5
216
  8
0
 10
-9.424212598382002
 20
-9.955708661388002
 30
0.0
  0
VERTEX
  5
217
  8
0
 10
-9.424212598382002
 20
-8.955708661388002
 30
0.0
 42
-0.4142135623730951
  0
VERTEX
  5
218
  8
0
 10
-9.174212598382002
 20
-8.705708661388002
 30
0.0
  0
VERTEX
  5
219
  8
0
 10
-8.299212598382002
 20
-8.705708661388002
 30
0.0
 42
0.4142135623730951
  0
VERTEX
  5
21A
  8
0
 10
-8.049212598382002
 20
-8.455708661388002
 30
0.0
  0
VERTEX
  5
21B
  8
0
 10
-8.049212598382002
 20
-7.955708661388002
 30
0.0
 42
0.4142135623730951
  0
VERTEX
  5
21C
  8
0
 10
-8.299212598382002
 20
-7.705708661388002
 30
0.0
  0
SEQEND
  5
36A
  8
0
  0
POLYLINE
  5
A9
  8
0
 66
     1
 10
0.0
 20
0.0
 30
0.0
 70
     1
  0
VERTEX
  5
21D
  8
0
 10
-9.861712598382002
 20
-8.205708661388002
 30
0.0
 42
0.4142135623730951
  0
VERTEX
  5
21E
  8
0
 10
-9.924212598382002
 20
-8.143208661388002
 30
0.0
 42
0.4142135623730951
  0
VERTEX
  5
21F
  8
0
 10
-9.986712598382002
 20
-8.205708661388002
 30
0.0
 42
0.4142135623730951
  0
VERTEX
  5
220
  8
0
 10
-9.924212598382002
 20
-8.268208661388002
 30
0.0
 42
0.4142135623730951
  0
SEQEND
  5
36B
  8
0
  0
POLYLINE
  5
AA
  8
0
 66
     1
 10
0.0
 20
0.0
 30
0.0
 70
     1
  0
VERTEX
  5
221
  8
0
 10
-9.861712598382002
 20
-9.080708661388002
 30
0.0
 42
0.4142135623730951
  0
VERTEX
  5
222
  8
0
 10
-9.924212598382002
 20
-9.018208661388002
 30
0.0
 42
0.4142135623730951
  0
VERTEX
  5
223
  8
0
 10
-9.986712598382002
 20
-9.080708661388002
 30
0.0
 42
0.4142135623730951
  0
VERTEX
  5
224
  8
0
 10
-9.924212598382002
 20
-9.143208661388002
 30
0.0
 42
0.4142135623730951
  0
SEQEND
  5
36C
  8
0
  0
POLYLINE
  5
AB
  8
0
 66
     1
 10
0.0
 20
0.0
 30
0.0
 70
     1
  0
VERTEX
  5
225
  8
0
 10
-9.861712598382002
 20
-9.830708661388002
 30
0.0
 42
0.4142135623730951
  0
VERTEX
  5
226
  8
0
 10
-9.924212598382002
 20
-9.768208661388002
 30
0.0
 42
0.4142135623730951
  0
VERTEX
  5
227
  8
0
 10
-9.986712598382002
 20
-9.830708661388002
 30
0.0
 42
0.4142135623730951
  0
VERTEX
  5
228
  8
0
 10
-9.924212598382002
 20
-9.893208661388002
 30
0.0
 42
0.4142135623730951
  0
SEQEND
  5
36D
  8
0
  0
POLYLINE
  5
AC
  8
0
 66
     1
 10
0.0
 20
0.0
 30
0.0
 70
     1
  0
VERTEX
  5
229
  8
0
 10
-9.111712598382002
 20
-8.205708661388002
 30
0.0
 42
0.4142135623730951
  0
VERTEX
  5
22A
  8
0
 10
-9.174212598382002
 20
-8.143208661388002
 30
0.0
 42
0.4142135623730951
  0
VERTEX
  5
22B
  8
0
 10
-9.236712598382002
 20
-8.205708661388002
 30
0.0
 42
0.4142135623730951
  0
VERTEX
  5
22C
  8
0
 10
-9.174212598382002
 20
-8.268208661388002
 30
0.0
 42
0.4142135623730951
  0
SEQEND
  5
36E
  8
0
  0
POLYLINE
  5
AD
  8
0
 66
     1
 10
0.0
 20
0.0
 30
0.0
 70
     1
  0
VERTEX
  5
22D
  8
0
 10
-8.361712598382002
 20
-8.205708661388002
 30
0.0
 42
0.4142135623730951
  0
VERTEX
  5
22E
  8
0
 10
-8.424212598382002
 20
-8.143208661388002
 30
0.0
 42
0.4142135623730951
  0
VERTEX
  5
22F
  8
0
 10
-8.486712598382002
 20
-8.205708661388002
 30
0.0
 42
0.4142135623730951
  0
VERTEX
  5
230
  8
0
 10
-8.424212598382002
 20
-8.268208661388002
 30
0.0
 42
0.4142135623730951
  0
SEQEND
  5
36F
  8
0
  0
POLYLINE
  5
AE
  8
0
 66
     1
 10
0.0
 20
0.0
 30
0.0
 70
     1
  0
VERTEX
  5
231
  8
0
 10
-9.170275590512002
 20
11.624999999952
 30
0.0
 42
0.4142135623730951
  0
VERTEX
  5
232
  8
0
 10
-9.420275590512002
 20
11.374999999952
 30
0.0
  0
VERTEX
  5
233
  8
0
 10
-9.420275590512002
 20
9.374999999952
 30
0.0
 42
0.4142135623730951
  0
VERTEX
  5
234
  8
0
 10
-9.170275590512002
 20
9.124999999952
 30
0.0
  0
VERTEX
  5
235
  8
0
 10
-8.670275590512002
 20
9.124999999952
 30
0.0
 42
0.4142135623730951
  0
VERTEX
  5
236
  8
0
 10
-8.420275590512002
 20
9.374999999952
 30
0.0
  0
VERTEX
  5
237
  8
0
 10
-8.420275590512002
 20
10.374999999952
 30
0.0
 42
-0.4142135623730951
  0
VERTEX
  5
238
  8
0
 10
-8.170275590512002
 20
10.624999999952
 30
0.0
  0
VERTEX
  5
239
  8
0
 10
-7.295275590512002
 20
10.624999999952
 30
0.0
 42
0.4142135623730951
  0
VERTEX
  5
23A
  8
0
 10
-7.045275590512002
 20
10.874999999952
 30
0.0
  0
VERTEX
  5
23B
  8
0
 10
-7.045275590512003
 20
11.374999999952
 30
0.0
 42
0.4142135623730951
  0
VERTEX
  5
23C
  8
0
 10
-7.295275590512004
 20
11.624999999952
 30
0.0
  0
SEQEND
  5
370
  8
0
  0
POLYLINE
  5
AF
  8
0
 66
     1
 10
0.0
 20
0.0
 30
0.0
 70
     1
  0
VERTEX
  5
23D
  8
0
 10
-8.857775590512002
 20
11.124999999952
 30
0.0
 42
0.4142135623730951
  0
VERTEX
  5
23E
  8
0
 10
-8.920275590512002
 20
11.187499999952
 30
0.0
 42
0.4142135623730951
  0
VERTEX
  5
23F
  8
0
 10
-8.982775590512002
 20
11.124999999952
 30
0.0
 42
0.4142135623730951
  0
VERTEX
  5
240
  8
0
 10
-8.920275590512002
 20
11.062499999952
 30
0.0
 42
0.4142135623730951
  0
SEQEND
  5
371
  8
0
  0
POLYLINE
  5
B0
  8
0
 66
     1
 10
0.0
 20
0.0
 30
0.0
 70
     1
  0
VERTEX
  5
241
  8
0
 10
-8.857775590512002
 20
10.249999999952
 30
0.0
 42
0.4142135623730951
  0
VERTEX
  5
242
  8
0
 10
-8.920275590512002
 20
10.312499999952
 30
0.0
 42
0.4142135623730951
  0
VERTEX
  5
243
  8
0
 10
-8.982775590512002
 20
10.249999999952
 30
0.0
 42
0.4142135623730951
  0
VERTEX
  5
244
  8
0
 10
-8.920275590512002
 20
10.187499999952
 30
0.0
 42
0.4142135623730951
  0
SEQEND
  5
372
  8
0
  0
POLYLINE
  5
B1
  8
0
 66
     1
 10
0.0
 20
0.0
 30
0.0
 70
     1
  0
VERTEX
  5
245
  8
0
 10
-8.857775590512002
 20
9.499999999952
 30
0.0
 42
0.4142135623730951
  0
VERTEX
  5
246
  8
0
 10
-8.920275590512002
 20
9.562499999952
 30
0.0
 42
0.4142135623730951
  0
VERTEX
  5
247
  8
0
 10
-8.982775590512002
 20
9.499999999952
 30
0.0
 42
0.4142135623730951
  0
VERTEX
  5
248
  8
0
 10
-8.920275590512002
 20
9.437499999952
 30
0.0
 42
0.4142135623730951
  0
SEQEND
  5
373
  8
0
  0
POLYLINE
  5
B2
  8
0
 66
     1
 10
0.0
 20
0.0
 30
0.0
 70
     1
  0
VERTEX
  5
249
  8
0
 10
-8.107775590512002
 20
11.124999999952
 30
0.0
 42
0.4142135623730951
  0
VERTEX
  5
24A
  8
0
 10
-8.170275590512002
 20
11.187499999952
 30
0.0
 42
0.4142135623730951
  0
VERTEX
  5
24B
  8
0
 10
-8.232775590512002
 20
11.124999999952
 30
0.0
 42
0.4142135623730951
  0
VERTEX
  5
24C
  8
0
 10
-8.170275590512002
 20
11.062499999952
 30
0.0
 42
0.4142135623730951
  0
SEQEND
  5
374
  8
0
  0
POLYLINE
  5
B3
  8
0
 66
     1
 10
0.0
 20
0.0
 30
0.0
 70
     1
  0
VERTEX
  5
24D
  8
0
 10
-7.357775590512003
 20
11.124999999952
 30
0.0
 42
0.4142135623730951
  0
VERTEX
  5
24E
  8
0
 10
-7.420275590512003
 20
11.187499999952
 30
0.0
 42
0.4142135623730951
  0
VERTEX
  5
24F
  8
0
 10
-7.482775590512003
 20
11.124999999952
 30
0.0
 42
0.4142135623730951
  0
VERTEX
  5
250
  8
0
 10
-7.420275590512003
 20
11.062499999952
 30
0.0
 42
0.4142135623730951
  0
SEQEND
  5
375
  8
0
  0
POLYLINE
  5
B4
  8
0
 66
     1
 10
0.0
 20
0.0
 30
0.0
 70
     1
  0
VERTEX
  5
251
  8
0
 10
-9.170275590512002
 20
-2.646653543298001
 30
0.0
 42
0.4142135623730951
  0
VERTEX
  5
252
  8
0
 10
-9.420275590512002
 20
-2.896653543298001
 30
0.0
  0
VERTEX
  5
253
  8
0
 10
-9.420275590512002
 20
-4.896653543298001
 30
0.0
 42
0.4142135623730951
  0
VERTEX
  5
254
  8
0
 10
-9.170275590512002
 20
-5.146653543297999
 30
0.0
  0
VERTEX
  5
255
  8
0
 10
-8.670275590512002
 20
-5.146653543297999
 30
0.0
 42
0.4142135623730951
  0
VERTEX
  5
256
  8
0
 10
-8.420275590512002
 20
-4.896653543298001
 30
0.0
  0
VERTEX
  5
257
  8
0
 10
-8.420275590512002
 20
-3.896653543298001
 30
0.0
 42
-0.4142135623730951
  0
VERTEX
  5
258
  8
0
 10
-8.170275590512002
 20
-3.646653543298001
 30
0.0
  0
VERTEX
  5
259
  8
0
 10
-7.295275590512002
 20
-3.646653543298001
 30
0.0
 42
0.4142135623730951
  0
VERTEX
  5
25A
  8
0
 10
-7.045275590512002
 20
-3.396653543298001
 30
0.0
  0
VERTEX
  5
25B
  8
0
 10
-7.045275590512002
 20
-2.896653543298001
 30
0.0
 42
0.4142135623730951
  0
VERTEX
  5
25C
  8
0
 10
-7.295275590512004
 20
-2.646653543298001
 30
0.0
  0
SEQEND
  5
376
  8
0
  0
POLYLINE
  5
B5
  8
0
 66
     1
 10
0.0
 20
0.0
 30
0.0
 70
     1
  0
VERTEX
  5
25D
  8
0
 10
-8.857775590512002
 20
-3.146653543298001
 30
0.0
 42
0.4142135623730951
  0
VERTEX
  5
25E
  8
0
 10
-8.920275590512002
 20
-3.084153543298001
 30
0.0
 42
0.4142135623730951
  0
VERTEX
  5
25F
  8
0
 10
-8.982775590512002
 20
-3.146653543298001
 30
0.0
 42
0.4142135623730951
  0
VERTEX
  5
260
  8
0
 10
-8.920275590512002
 20
-3.209153543298001
 30
0.0
 42
0.4142135623730951
  0
SEQEND
  5
377
  8
0
  0
POLYLINE
  5
B6
  8
0
 66
     1
 10
0.0
 20
0.0
 30
0.0
 70
     1
  0
VERTEX
  5
261
  8
0
 10
-8.857775590512002
 20
-4.021653543298001
 30
0.0
 42
0.4142135623730951
  0
VERTEX
  5
262
  8
0
 10
-8.920275590512002
 20
-3.959153543298001
 30
0.0
 42
0.4142135623730951
  0
VERTEX
  5
263
  8
0
 10
-8.982775590512002
 20
-4.021653543298001
 30
0.0
 42
0.4142135623730951
  0
VERTEX
  5
264
  8
0
 10
-8.920275590512002
 20
-4.084153543298001
 30
0.0
 42
0.4142135623730951
  0
SEQEND
  5
378
  8
0
  0
POLYLINE
  5
B7
  8
0
 66
     1
 10
0.0
 20
0.0
 30
0.0
 70
     1
  0
VERTEX
  5
265
  8
0
 10
-8.857775590512002
 20
-4.771653543298001
 30
0.0
 42
0.4142135623730951
  0
VERTEX
  5
266
  8
0
 10
-8.920275590512002
 20
-4.709153543298001
 30
0.0
 42
0.4142135623730951
  0
VERTEX
  5
267
  8
0
 10
-8.982775590512002
 20
-4.771653543298001
 30
0.0
 42
0.4142135623730951
  0
VERTEX
  5
268
  8
0
 10
-8.920275590512002
 20
-4.834153543298001
 30
0.0
 42
0.4142135623730951
  0
SEQEND
  5
379
  8
0
  0
POLYLINE
  5
B8
  8
0
 66
     1
 10
0.0
 20
0.0
 30
0.0
 70
     1
  0
VERTEX
  5
269
  8
0
 10
-8.107775590512002
 20
-3.146653543298001
 30
0.0
 42
0.4142135623730951
  0
VERTEX
  5
26A
  8
0
 10
-8.170275590512002
 20
-3.084153543298001
 30
0.0
 42
0.4142135623730951
  0
VERTEX
  5
26B
  8
0
 10
-8.232775590512002
 20
-3.146653543298001
 30
0.0
 42
0.4142135623730951
  0
VERTEX
  5
26C
  8
0
 10
-8.170275590512002
 20
-3.209153543298001
 30
0.0
 42
0.4142135623730951
  0
SEQEND
  5
37A
  8
0
  0
POLYLINE
  5
B9
  8
0
 66
     1
 10
0.0
 20
0.0
 30
0.0
 70
     1
  0
VERTEX
  5
26D
  8
0
 10
-7.357775590512002
 20
-3.146653543298001
 30
0.0
 42
0.4142135623730951
  0
VERTEX
  5
26E
  8
0
 10
-7.420275590512002
 20
-3.084153543298001
 30
0.0
 42
0.4142135623730951
  0
VERTEX
  5
26F
  8
0
 10
-7.482775590512002
 20
-3.146653543298001
 30
0.0
 42
0.4142135623730951
  0
VERTEX
  5
270
  8
0
 10
-7.420275590512002
 20
-3.209153543298001
 30
0.0
 42
0.4142135623730951
  0
SEQEND
  5
37B
  8
0
  0
POLYLINE
  5
BA
  8
0
 66
     1
 10
0.0
 20
0.0
 30
0.0
 70
     1
  0
VERTEX
  5
271
  8
0
 10
-8.678149606262
 20
-8.906496062958002
 30
0.0
 42
0.4142135623730951
  0
VERTEX
  5
272
  8
0
 10
-8.928149606262
 20
-9.156496062958002
 30
0.0
  0
VERTEX
  5
273
  8
0
 10
-8.928149606262
 20
-11.156496062958
 30
0.0
 42
0.4142135623730951
  0
VERTEX
  5
274
  8
0
 10
-8.678149606262
 20
-11.406496062958
 30
0.0
  0
VERTEX
  5
275
  8
0
 10
-8.178149606262
 20
-11.406496062958
 30
0.0
 42
0.4142135623730951
  0
VERTEX
  5
276
  8
0
 10
-7.928149606262001
 20
-11.156496062958
 30
0.0
  0
VERTEX
  5
277
  8
0
 10
-7.928149606262001
 20
-10.156496062958
 30
0.0
 42
-0.4142135623730951
  0
VERTEX
  5
278
  8
0
 10
-7.678149606262001
 20
-9.906496062958002
 30
0.0
  0
VERTEX
  5
279
  8
0
 10
-6.803149606262
 20
-9.906496062958002
 30
0.0
 42
0.4142135623730951
  0
VERTEX
  5
27A
  8
0
 10
-6.553149606262
 20
-9.656496062958002
 30
0.0
  0
VERTEX
  5
27B
  8
0
 10
-6.553149606262
 20
-9.156496062958002
 30
0.0
 42
0.4142135623730951
  0
VERTEX
  5
27C
  8
0
 10
-6.803149606262002
 20
-8.906496062958002
 30
0.0
  0
SEQEND
  5
37C
  8
0
  0
POLYLINE
  5
BB
  8
0
 66
     1
 10
0.0
 20
0.0
 30
0.0
 70
     1
  0
VERTEX
  5
27D
  8
0
 10
-8.365649606262
 20
-9.406496062958002
 30
0.0
 42
0.4142135623730951
  0
VERTEX
  5
27E
  8
0
 10
-8.428149606262
 20
-9.343996062958002
 30
0.0
 42
0.4142135623730951
  0
VERTEX
  5
27F
  8
0
 10
-8.490649606262
 20
-9.406496062958002
 30
0.0
 42
0.4142135623730951
  0
VERTEX
  5
280
  8
0
 10
-8.428149606262
 20
-9.468996062958002
 30
0.0
 42
0.4142135623730951
  0
SEQEND
  5
37D
  8
0
  0
POLYLINE
  5
BC
  8
0
 66
     1
 10
0.0
 20
0.0
 30
0.0
 70
     1
  0
VERTEX
  5
281
  8
0
 10
-8.365649606262
 20
-10.281496062958
 30
0.0
 42
0.4142135623730951
  0
VERTEX
  5
282
  8
0
 10
-8.428149606262
 20
-10.218996062958
 30
0.0
 42
0.4142135623730951
  0
VERTEX
  5
283
  8
0
 10
-8.490649606262
 20
-10.281496062958
 30
0.0
 42
0.4142135623730951
  0
VERTEX
  5
284
  8
0
 10
-8.428149606262
 20
-10.343996062958
 30
0.0
 42
0.4142135623730951
  0
SEQEND
  5
37E
  8
0
  0
POLYLINE
  5
BD
  8
0
 66
     1
 10
0.0
 20
0.0
 30
0.0
 70
     1
  0
VERTEX
  5
285
  8
0
 10
-8.365649606262
 20
-11.031496062958
 30
0.0
 42
0.4142135623730951
  0
VERTEX
  5
286
  8
0
 10
-8.428149606262
 20
-10.968996062958
 30
0.0
 42
0.4142135623730951
  0
VERTEX
  5
287
  8
0
 10
-8.490649606262
 20
-11.031496062958
 30
0.0
 42
0.4142135623730951
  0
VERTEX
  5
288
  8
0
 10
-8.428149606262
 20
-11.093996062958
 30
0.0
 42
0.4142135623730951
  0
SEQEND
  5
37F
  8
0
  0
POLYLINE
  5
BE
  8
0
 66
     1
 10
0.0
 20
0.0
 30
0.0
 70
     1
  0
VERTEX
  5
289
  8
0
 10
-7.615649606262001
 20
-9.406496062958002
 30
0.0
 42
0.4142135623730951
  0
VERTEX
  5
28A
  8
0
 10
-7.678149606262001
 20
-9.343996062958002
 30
0.0
 42
0.4142135623730951
  0
VERTEX
  5
28B
  8
0
 10
-7.740649606262001
 20
-9.406496062958002
 30
0.0
 42
0.4142135623730951
  0
VERTEX
  5
28C
  8
0
 10
-7.678149606262001
 20
-9.468996062958002
 30
0.0
 42
0.4142135623730951
  0
SEQEND
  5
380
  8
0
  0
POLYLINE
  5
BF
  8
0
 66
     1
 10
0.0
 20
0.0
 30
0.0
 70
     1
  0
VERTEX
  5
28D
  8
0
 10
-6.865649606262
 20
-9.406496062958002
 30
0.0
 42
0.4142135623730951
  0
VERTEX
  5
28E
  8
0
 10
-6.928149606262
 20
-9.343996062958002
 30
0.0
 42
0.4142135623730951
  0
VERTEX
  5
28F
  8
0
 10
-6.990649606262
 20
-9.406496062958002
 30
0.0
 42
0.4142135623730951
  0
VERTEX
  5
290
  8
0
 10
-6.928149606262
 20
-9.468996062958002
 30
0.0
 42
0.4142135623730951
  0
SEQEND
  5
381
  8
0
  0
POLYLINE
  5
C0
  8
0
 66
     1
 10
0.0
 20
0.0
 30
0.0
 70
     1
  0
VERTEX
  5
291
  8
0
 10
-7.295275590512
 20
-6.347440944868
 30
0.0
 42
0.4142135623730951
  0
VERTEX
  5
292
  8
0
 10
-7.045275590511999
 20
-6.097440944868
 30
0.0
  0
VERTEX
  5
293
  8
0
 10
-7.045275590511999
 20
-4.097440944868
 30
0.0
 42
0.4142135623730951
  0
VERTEX
  5
294
  8
0
 10
-7.295275590511999
 20
-3.847440944868001
 30
0.0
  0
VERTEX
  5
295
  8
0
 10
-7.795275590511999
 20
-3.847440944868001
 30
0.0
 42
0.4142135623730951
  0
VERTEX
  5
296
  8
0
 10
-8.045275590511999
 20
-4.097440944868
 30
0.0
  0
VERTEX
  5
297
  8
0
 10
-8.045275590511999
 20
-5.097440944868
 30
0.0
 42
-0.4142135623730951
  0
VERTEX
  5
298
  8
0
 10
-8.295275590511999
 20
-5.347440944868
 30
0.0
  0
VERTEX
  5
299
  8
0
 10
-9.170275590512
 20
-5.347440944868
 30
0.0
 42
0.4142135623730951
  0
VERTEX
  5
29A
  8
0
 10
-9.420275590512
 20
-5.597440944868
 30
0.0
  0
VERTEX
  5
29B
  8
0
 10
-9.420275590512
 20
-6.097440944868
 30
0.0
 42
0.4142135623730951
  0
VERTEX
  5
29C
  8
0
 10
-9.170275590511999
 20
-6.347440944868
 30
0.0
  0
SEQEND
  5
382
  8
0
  0
POLYLINE
  5
C1
  8
0
 66
     1
 10
0.0
 20
0.0
 30
0.0
 70
     1
  0
VERTEX
  5
29D
  8
0
 10
-7.607775590511999
 20
-5.847440944868
 30
0.0
 42
0.4142135623730951
  0
VERTEX
  5
29E
  8
0
 10
-7.545275590511999
 20
-5.909940944868
 30
0.0
 42
0.4142135623730951
  0
VERTEX
  5
29F
  8
0
 10
-7.482775590511999
 20
-5.847440944868
 30
0.0
 42
0.4142135623730951
  0
VERTEX
  5
2A0
  8
0
 10
-7.545275590511999
 20
-5.784940944868
 30
0.0
 42
0.4142135623730951
  0
SEQEND
  5
383
  8
0
  0
POLYLINE
  5
C2
  8
0
 66
     1
 10
0.0
 20
0.0
 30
0.0
 70
     1
  0
VERTEX
  5
2A1
  8
0
 10
-7.607775590511999
 20
-4.972440944868
 30
0.0
 42
0.4142135623730951
  0
VERTEX
  5
2A2
  8
0
 10
-7.545275590511999
 20
-5.034940944868
 30
0.0
 42
0.4142135623730951
  0
VERTEX
  5
2A3
  8
0
 10
-7.482775590511999
 20
-4.972440944868
 30
0.0
 42
0.4142135623730951
  0
VERTEX
  5
2A4
  8
0
 10
-7.545275590511999
 20
-4.909940944868
 30
0.0
 42
0.4142135623730951
  0
SEQEND
  5
384
  8
0
  0
POLYLINE
  5
C3
  8
0
 66
     1
 10
0.0
 20
0.0
 30
0.0
 70
     1
  0
VERTEX
  5
2A5
  8
0
 10
-7.607775590511999
 20
-4.222440944868
 30
0.0
 42
0.4142135623730951
  0
VERTEX
  5
2A6
  8
0
 10
-7.545275590511999
 20
-4.284940944868
 30
0.0
 42
0.4142135623730951
  0
VERTEX
  5
2A7
  8
0
 10
-7.482775590511999
 20
-4.222440944868
 30
0.0
 42
0.4142135623730951
  0
VERTEX
  5
2A8
  8
0
 10
-7.545275590511999
 20
-4.159940944868
 30
0.0
 42
0.4142135623730951
  0
SEQEND
  5
385
  8
0
  0
POLYLINE
  5
C4
  8
0
 66
     1
 10
0.0
 20
0.0
 30
0.0
 70
     1
  0
VERTEX
  5
2A9
  8
0
 10
-8.357775590511999
 20
-5.847440944868
 30
0.0
 42
0.4142135623730951
  0
VERTEX
  5
2AA
  8
0
 10
-8.295275590511999
 20
-5.909940944868
 30
0.0
 42
0.4142135623730951
  0
VERTEX
  5
2AB
  8
0
 10
-8.232775590511999
 20
-5.847440944868
 30
0.0
 42
0.4142135623730951
  0
VERTEX
  5
2AC
  8
0
 10
-8.295275590511999
 20
-5.784940944868
 30
0.0
 42
0.4142135623730951
  0
SEQEND
  5
386
  8
0
  0
POLYLINE
  5
C5
  8
0
 66
     1
 10
0.0
 20
0.0
 30
0.0
 70
     1
  0
VERTEX
  5
2AD
  8
0
 10
-9.107775590512
 20
-5.847440944868
 30
0.0
 42
0.4142135623730951
  0
VERTEX
  5
2AE
  8
0
 10
-9.045275590512
 20
-5.909940944868
 30
0.0
 42
0.4142135623730951
  0
VERTEX
  5
2AF
  8
0
 10
-8.982775590512
 20
-5.847440944868
 30
0.0
 42
0.4142135623730951
  0
VERTEX
  5
2B0
  8
0
 10
-9.045275590512
 20
-5.784940944868
 30
0.0
 42
0.4142135623730951
  0
SEQEND
  5
387
  8
0
  0
POLYLINE
  5
C6
  8
0
 66
     1
 10
0.0
 20
0.0
 30
0.0
 70
     1
  0
VERTEX
  5
2B1
  8
0
 10
-7.275590551142001
 20
7.924212598381999
 30
0.0
 42
0.4142135623730951
  0
VERTEX
  5
2B2
  8
0
 10
-7.025590551142001
 20
8.174212598381999
 30
0.0
  0
VERTEX
  5
2B3
  8
0
 10
-7.025590551142001
 20
10.174212598382
 30
0.0
 42
0.4142135623730951
  0
VERTEX
  5
2B4
  8
0
 10
-7.275590551142001
 20
10.424212598382
 30
0.0
  0
VERTEX
  5
2B5
  8
0
 10
-7.775590551142001
 20
10.424212598382
 30
0.0
 42
0.4142135623730951
  0
VERTEX
  5
2B6
  8
0
 10
-8.025590551142
 20
10.174212598382
 30
0.0
  0
VERTEX
  5
2B7
  8
0
 10
-8.025590551142
 20
9.174212598381999
 30
0.0
 42
-0.4142135623730951
  0
VERTEX
  5
2B8
  8
0
 10
-8.275590551142
 20
8.924212598381999
 30
0.0
  0
VERTEX
  5
2B9
  8
0
 10
-9.150590551142
 20
8.924212598381999
 30
0.0
 42
0.4142135623730951
  0
VERTEX
  5
2BA
  8
0
 10
-9.400590551142
 20
8.674212598381999
 30
0.0
  0
VERTEX
  5
2BB
  8
0
 10
-9.400590551142
 20
8.174212598381999
 30
0.0
 42
0.4142135623730951
  0
VERTEX
  5
2BC
  8
0
 10
-9.150590551141999
 20
7.924212598381999
 30
0.0
  0
SEQEND
  5
388
  8
0
  0
POLYLINE
  5
C7
  8
0
 66
     1
 10
0.0
 20
0.0
 30
0.0
 70
     1
  0
VERTEX
  5
2BD
  8
0
 10
-7.588090551142001
 20
8.424212598381999
 30
0.0
 42
0.4142135623730951
  0
VERTEX
  5
2BE
  8
0
 10
-7.525590551142001
 20
8.361712598381999
 30
0.0
 42
0.4142135623730951
  0
VERTEX
  5
2BF
  8
0
 10
-7.463090551142001
 20
8.424212598381999
 30
0.0
 42
0.4142135623730951
  0
VERTEX
  5
2C0
  8
0
 10
-7.525590551142001
 20
8.486712598381999
 30
0.0
 42
0.4142135623730951
  0
SEQEND
  5
389
  8
0
  0
POLYLINE
  5
C8
  8
0
 66
     1
 10
0.0
 20
0.0
 30
0.0
 70
     1
  0
VERTEX
  5
2C1
  8
0
 10
-7.588090551142001
 20
9.299212598381999
 30
0.0
 42
0.4142135623730951
  0
VERTEX
  5
2C2
  8
0
 10
-7.525590551142001
 20
9.236712598381999
 30
0.0
 42
0.4142135623730951
  0
VERTEX
  5
2C3
  8
0
 10
-7.463090551142001
 20
9.299212598381999
 30
0.0
 42
0.4142135623730951
  0
VERTEX
  5
2C4
  8
0
 10
-7.525590551142001
 20
9.361712598381999
 30
0.0
 42
0.4142135623730951
  0
SEQEND
  5
38A
  8
0
  0
POLYLINE
  5
C9
  8
0
 66
     1
 10
0.0
 20
0.0
 30
0.0
 70
     1
  0
VERTEX
  5
2C5
  8
0
 10
-7.588090551142001
 20
10.049212598382
 30
0.0
 42
0.4142135623730951
  0
VERTEX
  5
2C6
  8
0
 10
-7.525590551142001
 20
9.986712598381999
 30
0.0
 42
0.4142135623730951
  0
VERTEX
  5
2C7
  8
0
 10
-7.463090551142001
 20
10.049212598382
 30
0.0
 42
0.4142135623730951
  0
VERTEX
  5
2C8
  8
0
 10
-7.525590551142001
 20
10.111712598382
 30
0.0
 42
0.4142135623730951
  0
SEQEND
  5
38B
  8
0
  0
POLYLINE
  5
CA
  8
0
 66
     1
 10
0.0
 20
0.0
 30
0.0
 70
     1
  0
VERTEX
  5
2C9
  8
0
 10
-8.338090551142
 20
8.424212598381999
 30
0.0
 42
0.4142135623730951
  0
VERTEX
  5
2CA
  8
0
 10
-8.275590551142
 20
8.361712598381999
 30
0.0
 42
0.4142135623730951
  0
VERTEX
  5
2CB
  8
0
 10
-8.213090551142
 20
8.424212598381999
 30
0.0
 42
0.4142135623730951
  0
VERTEX
  5
2CC
  8
0
 10
-8.275590551142
 20
8.486712598381999
 30
0.0
 42
0.4142135623730951
  0
SEQEND
  5
38C
  8
0
  0
POLYLINE
  5
CB
  8
0
 66
     1
 10
0.0
 20
0.0
 30
0.0
 70
     1
  0
VERTEX
  5
2CD
  8
0
 10
-9.088090551142
 20
8.424212598381999
 30
0.0
 42
0.4142135623730951
  0
VERTEX
  5
2CE
  8
0
 10
-9.025590551142
 20
8.361712598381999
 30
0.0
 42
0.4142135623730951
  0
VERTEX
  5
2CF
  8
0
 10
-8.963090551142
 20
8.424212598381999
 30
0.0
 42
0.4142135623730951
  0
VERTEX
  5
2D0
  8
0
 10
-9.025590551142
 20
8.486712598381999
 30
0.0
 42
0.4142135623730951
  0
SEQEND
  5
38D
  8
0
  0
POLYLINE
  5
CC
  8
0
 66
     1
 10
0.0
 20
0.0
 30
0.0
 70
     1
  0
VERTEX
  5
2D1
  8
0
 10
-5.542322834612001
 20
-6.794291338558001
 30
0.0
 42
0.4142135623730951
  0
VERTEX
  5
2D2
  8
0
 10
-5.792322834612001
 20
-6.544291338558001
 30
0.0
  0
VERTEX
  5
2D3
  8
0
 10
-7.792322834612001
 20
-6.544291338558001
 30
0.0
 42
0.4142135623730951
  0
VERTEX
  5
2D4
  8
0
 10
-8.042322834612
 20
-6.794291338558001
 30
0.0
  0
VERTEX
  5
2D5
  8
0
 10
-8.042322834612
 20
-7.294291338558001
 30
0.0
 42
0.4142135623730951
  0
VERTEX
  5
2D6
  8
0
 10
-7.792322834612001
 20
-7.544291338558001
 30
0.0
  0
VERTEX
  5
2D7
  8
0
 10
-6.792322834612001
 20
-7.544291338558001
 30
0.0
 42
-0.4142135623730951
  0
VERTEX
  5
2D8
  8
0
 10
-6.542322834612001
 20
-7.794291338558001
 30
0.0
  0
VERTEX
  5
2D9
  8
0
 10
-6.542322834612001
 20
-8.669291338558
 30
0.0
 42
0.4142135623730951
  0
VERTEX
  5
2DA
  8
0
 10
-6.292322834612001
 20
-8.919291338558
 30
0.0
  0
VERTEX
  5
2DB
  8
0
 10
-5.792322834612001
 20
-8.919291338558
 30
0.0
 42
0.4142135623730951
  0
VERTEX
  5
2DC
  8
0
 10
-5.542322834612001
 20
-8.669291338557999
 30
0.0
  0
SEQEND
  5
38E
  8
0
  0
POLYLINE
  5
CD
  8
0
 66
     1
 10
0.0
 20
0.0
 30
0.0
 70
     1
  0
VERTEX
  5
2DD
  8
0
 10
-6.042322834612001
 20
-7.106791338558001
 30
0.0
 42
0.4142135623730951
  0
VERTEX
  5
2DE
  8
0
 10
-5.979822834612001
 20
-7.044291338558001
 30
0.0
 42
0.4142135623730951
  0
VERTEX
  5
2DF
  8
0
 10
-6.042322834612001
 20
-6.981791338558001
 30
0.0
 42
0.4142135623730951
  0
VERTEX
  5
2E0
  8
0
 10
-6.104822834612001
 20
-7.044291338558001
 30
0.0
 42
0.4142135623730951
  0
SEQEND
  5
38F
  8
0
  0
POLYLINE
  5
CE
  8
0
 66
     1
 10
0.0
 20
0.0
 30
0.0
 70
     1
  0
VERTEX
  5
2E1
  8
0
 10
-6.917322834612001
 20
-7.106791338558001
 30
0.0
 42
0.4142135623730951
  0
VERTEX
  5
2E2
  8
0
 10
-6.854822834612001
 20
-7.044291338558001
 30
0.0
 42
0.4142135623730951
  0
VERTEX
  5
2E3
  8
0
 10
-6.917322834612001
 20
-6.981791338558001
 30
0.0
 42
0.4142135623730951
  0
VERTEX
  5
2E4
  8
0
 10
-6.979822834612001
 20
-7.044291338558001
 30
0.0
 42
0.4142135623730951
  0
SEQEND
  5
390
  8
0
  0
POLYLINE
  5
CF
  8
0
 66
     1
 10
0.0
 20
0.0
 30
0.0
 70
     1
  0
VERTEX
  5
2E5
  8
0
 10
-7.667322834612001
 20
-7.106791338558001
 30
0.0
 42
0.4142135623730951
  0
VERTEX
  5
2E6
  8
0
 10
-7.604822834612001
 20
-7.044291338558001
 30
0.0
 42
0.4142135623730951
  0
VERTEX
  5
2E7
  8
0
 10
-7.667322834612001
 20
-6.981791338558001
 30
0.0
 42
0.4142135623730951
  0
VERTEX
  5
2E8
  8
0
 10
-7.729822834612001
 20
-7.044291338558001
 30
0.0
 42
0.4142135623730951
  0
SEQEND
  5
391
  8
0
  0
POLYLINE
  5
D0
  8
0
 66
     1
 10
0.0
 20
0.0
 30
0.0
 70
     1
  0
VERTEX
  5
2E9
  8
0
 10
-6.042322834612001
 20
-7.856791338558001
 30
0.0
 42
0.4142135623730951
  0
VERTEX
  5
2EA
  8
0
 10
-5.979822834612001
 20
-7.794291338558001
 30
0.0
 42
0.4142135623730951
  0
VERTEX
  5
2EB
  8
0
 10
-6.042322834612001
 20
-7.731791338558001
 30
0.0
 42
0.4142135623730951
  0
VERTEX
  5
2EC
  8
0
 10
-6.104822834612001
 20
-7.794291338558001
 30
0.0
 42
0.4142135623730951
  0
SEQEND
  5
392
  8
0
  0
POLYLINE
  5
D1
  8
0
 66
     1
 10
0.0
 20
0.0
 30
0.0
 70
     1
  0
VERTEX
  5
2ED
  8
0
 10
-6.042322834612001
 20
-8.606791338558
 30
0.0
 42
0.4142135623730951
  0
VERTEX
  5
2EE
  8
0
 10
-5.979822834612001
 20
-8.544291338558
 30
0.0
 42
0.4142135623730951
  0
VERTEX
  5
2EF
  8
0
 10
-6.042322834612001
 20
-8.481791338558
 30
0.0
 42
0.4142135623730951
  0
VERTEX
  5
2F0
  8
0
 10
-6.104822834612001
 20
-8.544291338558
 30
0.0
 42
0.4142135623730951
  0
SEQEND
  5
393
  8
0
  0
POLYLINE
  5
D2
  8
0
 66
     1
 10
0.0
 20
0.0
 30
0.0
 70
     1
  0
VERTEX
  5
2F1
  8
0
 10
-5.090551181072
 20
-11.603346456658
 30
0.0
 42
0.4142135623730951
  0
VERTEX
  5
2F2
  8
0
 10
-4.840551181071999
 20
-11.353346456658
 30
0.0
  0
VERTEX
  5
2F3
  8
0
 10
-4.840551181071999
 20
-9.353346456658
 30
0.0
 42
0.4142135623730951
  0
VERTEX
  5
2F4
  8
0
 10
-5.090551181071999
 20
-9.103346456658002
 30
0.0
  0
VERTEX
  5
2F5
  8
0
 10
-5.590551181071999
 20
-9.103346456658002
 30
0.0
 42
0.4142135623730951
  0
VERTEX
  5
2F6
  8
0
 10
-5.840551181071999
 20
-9.353346456658
 30
0.0
  0
VERTEX
  5
2F7
  8
0
 10
-5.840551181071999
 20
-10.353346456658
 30
0.0
 42
-0.4142135623730951
  0
VERTEX
  5
2F8
  8
0
 10
-6.090551181071999
 20
-10.603346456658
 30
0.0
  0
VERTEX
  5
2F9
  8
0
 10
-6.965551181072
 20
-10.603346456658
 30
0.0
 42
0.4142135623730951
  0
VERTEX
  5
2FA
  8
0
 10
-7.215551181072
 20
-10.853346456658
 30
0.0
  0
VERTEX
  5
2FB
  8
0
 10
-7.215551181072
 20
-11.353346456658
 30
0.0
 42
0.4142135623730951
  0
VERTEX
  5
2FC
  8
0
 10
-6.965551181071998
 20
-11.603346456658
 30
0.0
  0
SEQEND
  5
394
  8
0
  0
POLYLINE
  5
D3
  8
0
 66
     1
 10
0.0
 20
0.0
 30
0.0
 70
     1
  0
VERTEX
  5
2FD
  8
0
 10
-5.403051181071999
 20
-11.103346456658
 30
0.0
 42
0.4142135623730951
  0
VERTEX
  5
2FE
  8
0
 10
-5.340551181071999
 20
-11.165846456658
 30
0.0
 42
0.4142135623730951
  0
VERTEX
  5
2FF
  8
0
 10
-5.278051181071999
 20
-11.103346456658
 30
0.0
 42
0.4142135623730951
  0
VERTEX
  5
300
  8
0
 10
-5.340551181071999
 20
-11.040846456658
 30
0.0
 42
0.4142135623730951
  0
SEQEND
  5
395
  8
0
  0
POLYLINE
  5
D4
  8
0
 66
     1
 10
0.0
 20
0.0
 30
0.0
 70
     1
  0
VERTEX
  5
301
  8
0
 10
-5.403051181071999
 20
-10.228346456658
 30
0.0
 42
0.4142135623730951
  0
VERTEX
  5
302
  8
0
 10
-5.340551181071999
 20
-10.290846456658
 30
0.0
 42
0.4142135623730951
  0
VERTEX
  5
303
  8
0
 10
-5.278051181071999
 20
-10.228346456658
 30
0.0
 42
0.4142135623730951
  0
VERTEX
  5
304
  8
0
 10
-5.340551181071999
 20
-10.165846456658
 30
0.0
 42
0.4142135623730951
  0
SEQEND
  5
396
  8
0
  0
POLYLINE
  5
D5
  8
0
 66
     1
 10
0.0
 20
0.0
 30
0.0
 70
     1
  0
VERTEX
  5
305
  8
0
 10
-5.403051181071999
 20
-9.478346456658
 30
0.0
 42
0.4142135623730951
  0
VERTEX
  5
306
  8
0
 10
-5.340551181071999
 20
-9.540846456658
 30
0.0
 42
0.4142135623730951
  0
VERTEX
  5
307
  8
0
 10
-5.278051181071999
 20
-9.478346456658
 30
0.0
 42
0.4142135623730951
  0
VERTEX
  5
308
  8
0
 10
-5.340551181071999
 20
-9.415846456658
 30
0.0
 42
0.4142135623730951
  0
SEQEND
  5
397
  8
0
  0
POLYLINE
  5
D6
  8
0
 66
     1
 10
0.0
 20
0.0
 30
0.0
 70
     1
  0
VERTEX
  5
309
  8
0
 10
-6.153051181071999
 20
-11.103346456658
 30
0.0
 42
0.4142135623730951
  0
VERTEX
  5
30A
  8
0
 10
-6.090551181071999
 20
-11.165846456658
 30
0.0
 42
0.4142135623730951
  0
VERTEX
  5
30B
  8
0
 10
-6.028051181071999
 20
-11.103346456658
 30
0.0
 42
0.4142135623730951
  0
VERTEX
  5
30C
  8
0
 10
-6.090551181071999
 20
-11.040846456658
 30
0.0
 42
0.4142135623730951
  0
SEQEND
  5
398
  8
0
  0
POLYLINE
  5
D7
  8
0
 66
     1
 10
0.0
 20
0.0
 30
0.0
 70
     1
  0
VERTEX
  5
30D
  8
0
 10
-6.903051181072
 20
-11.103346456658
 30
0.0
 42
0.4142135623730951
  0
VERTEX
  5
30E
  8
0
 10
-6.840551181072
 20
-11.165846456658
 30
0.0
 42
0.4142135623730951
  0
VERTEX
  5
30F
  8
0
 10
-6.778051181072
 20
-11.103346456658
 30
0.0
 42
0.4142135623730951
  0
VERTEX
  5
310
  8
0
 10
-6.840551181072
 20
-11.040846456658
 30
0.0
 42
0.4142135623730951
  0
SEQEND
  5
399
  8
0
  0
POLYLINE
  5
D8
  8
0
 66
     1
 10
0.0
 20
0.0
 30
0.0
 70
     1
  0
VERTEX
  5
311
  8
0
 10
-3.186023622032003
 20
11.624999999952
 30
0.0
 42
0.4142135623730951
  0
VERTEX
  5
312
  8
0
 10
-3.436023622032003
 20
11.374999999952
 30
0.0
  0
VERTEX
  5
313
  8
0
 10
-3.436023622032003
 20
9.374999999952
 30
0.0
 42
0.4142135623730951
  0
VERTEX
  5
314
  8
0
 10
-3.186023622032003
 20
9.124999999952
 30
0.0
  0
VERTEX
  5
315
  8
0
 10
-2.686023622032003
 20
9.124999999952
 30
0.0
 42
0.4142135623730951
  0
VERTEX
  5
316
  8
0
 10
-2.436023622032003
 20
9.374999999952
 30
0.0
  0
VERTEX
  5
317
  8
0
 10
-2.436023622032003
 20
10.374999999952
 30
0.0
 42
-0.4142135623730951
  0
VERTEX
  5
318
  8
0
 10
-2.186023622032003
 20
10.624999999952
 30
0.0
  0
VERTEX
  5
319
  8
0
 10
-1.311023622032003
 20
10.624999999952
 30
0.0
 42
0.4142135623730951
  0
VERTEX
  5
31A
  8
0
 10
-1.061023622032003
 20
10.874999999952
 30
0.0
  0
VERTEX
  5
31B
  8
0
 10
-1.061023622032003
 20
11.374999999952
 30
0.0
 42
0.4142135623730951
  0
VERTEX
  5
31C
  8
0
 10
-1.311023622032005
 20
11.624999999952
 30
0.0
  0
SEQEND
  5
39A
  8
0
  0
POLYLINE
  5
D9
  8
0
 66
     1
 10
0.0
 20
0.0
 30
0.0
 70
     1
  0
VERTEX
  5
31D
  8
0
 10
-2.873523622032003
 20
11.124999999952
 30
0.0
 42
0.4142135623730951
  0
VERTEX
  5
31E
  8
0
 10
-2.936023622032003
 20
11.187499999952
 30
0.0
 42
0.4142135623730951
  0
VERTEX
  5
31F
  8
0
 10
-2.998523622032003
 20
11.124999999952
 30
0.0
 42
0.4142135623730951
  0
VERTEX
  5
320
  8
0
 10
-2.936023622032003
 20
11.062499999952
 30
0.0
 42
0.4142135623730951
  0
SEQEND
  5
39B
  8
0
  0
POLYLINE
  5
DA
  8
0
 66
     1
 10
0.0
 20
0.0
 30
0.0
 70
     1
  0
VERTEX
  5
321
  8
0
 10
-2.873523622032003
 20
10.249999999952
 30
0.0
 42
0.4142135623730951
  0
VERTEX
  5
322
  8
0
 10
-2.936023622032003
 20
10.312499999952
 30
0.0
 42
0.4142135623730951
  0
VERTEX
  5
323
  8
0
 10
-2.998523622032003
 20
10.249999999952
 30
0.0
 42
0.4142135623730951
  0
VERTEX
  5
324
  8
0
 10
-2.936023622032003
 20
10.187499999952
 30
0.0
 42
0.4142135623730951
  0
SEQEND
  5
39C
  8
0
  0
POLYLINE
  5
DB
  8
0
 66
     1
 10
0.0
 20
0.0
 30
0.0
 70
     1
  0
VERTEX
  5
325
  8
0
 10
-2.873523622032003
 20
9.499999999952
 30
0.0
 42
0.4142135623730951
  0
VERTEX
  5
326
  8
0
 10
-2.936023622032003
 20
9.562499999952
 30
0.0
 42
0.4142135623730951
  0
VERTEX
  5
327
  8
0
 10
-2.998523622032003
 20
9.499999999952
 30
0.0
 42
0.4142135623730951
  0
VERTEX
  5
328
  8
0
 10
-2.936023622032003
 20
9.437499999952
 30
0.0
 42
0.4142135623730951
  0
SEQEND
  5
39D
  8
0
  0
POLYLINE
  5
DC
  8
0
 66
     1
 10
0.0
 20
0.0
 30
0.0
 70
     1
  0
VERTEX
  5
329
  8
0
 10
-2.123523622032003
 20
11.124999999952
 30
0.0
 42
0.4142135623730951
  0
VERTEX
  5
32A
  8
0
 10
-2.186023622032003
 20
11.187499999952
 30
0.0
 42
0.4142135623730951
  0
VERTEX
  5
32B
  8
0
 10
-2.248523622032003
 20
11.124999999952
 30
0.0
 42
0.4142135623730951
  0
VERTEX
  5
32C
  8
0
 10
-2.186023622032003
 20
11.062499999952
 30
0.0
 42
0.4142135623730951
  0
SEQEND
  5
39E
  8
0
  0
POLYLINE
  5
DD
  8
0
 66
     1
 10
0.0
 20
0.0
 30
0.0
 70
     1
  0
VERTEX
  5
32D
  8
0
 10
-1.373523622032003
 20
11.124999999952
 30
0.0
 42
0.4142135623730951
  0
VERTEX
  5
32E
  8
0
 10
-1.436023622032003
 20
11.187499999952
 30
0.0
 42
0.4142135623730951
  0
VERTEX
  5
32F
  8
0
 10
-1.498523622032003
 20
11.124999999952
 30
0.0
 42
0.4142135623730951
  0
VERTEX
  5
330
  8
0
 10
-1.436023622032003
 20
11.062499999952
 30
0.0
 42
0.4142135623730951
  0
SEQEND
  5
39F
  8
0
  0
ENDSEC
  0
EOF
