  0
SECTION
  2
HEADER
  9
$ACADVER
  1
AC1009
  9
$DWGCODEPAGE
  3
ansi_1252
  9
$INSBASE
 10
0.0
 20
0.0
 30
0.0
  9
$EXTMIN
 10
-295.2964797788529
 20
-293.9797284263169
 30
0.0
  9
$EXTMAX
 10
297.1126850996332
 20
295.2749999975616
 30
0.0
  9
$LIMMIN
 10
0.0
 20
0.0
  9
$LIMMAX
 10
12.0
 20
9.0
  9
$ORTHOMODE
 70
     0
  9
$REGENMODE
 70
     1
  9
$FILLMODE
 70
     1
  9
$QTEXTMODE
 70
     0
  9
$MIRRTEXT
 70
     1
  9
$DRAGMODE
 70
     2
  9
$LTSCALE
 40
1.0
  9
$OSMODE
 70
    37
  9
$ATTMODE
 70
     1
  9
$TEXTSIZE
 40
0.2
  9
$TRACEWID
 40
0.05
  9
$TEXTSTYLE
  7
STANDARD
  9
$CLAYER
  8
0
  9
$CELTYPE
  6
BYLAYER
  9
$CECOLOR
 62
   256
  9
$DIMSCALE
 40
1.0
  9
$DIMASZ
 40
0.18
  9
$DIMEXO
 40
0.0625
  9
$DIMDLI
 40
0.38
  9
$DIMRND
 40
0.0
  9
$DIMDLE
 40
0.0
  9
$DIMEXE
 40
0.18
  9
$DIMTP
 40
0.0
  9
$DIMTM
 40
0.0
  9
$DIMTXT
 40
0.18
  9
$DIMCEN
 40
0.09
  9
$DIMTSZ
 40
0.0
  9
$DIMTOL
 70
     0
  9
$DIMLIM
 70
     0
  9
$DIMTIH
 70
     1
  9
$DIMTOH
 70
     1
  9
$DIMSE1
 70
     0
  9
$DIMSE2
 70
     0
  9
$DIMTAD
 70
     0
  9
$DIMZIN
 70
     0
  9
$DIMBLK
  1

  9
$DIMASO
 70
     1
  9
$DIMSHO
 70
     1
  9
$DIMPOST
  1

  9
$DIMAPOST
  1

  9
$DIMALT
 70
     0
  9
$DIMALTD
 70
     2
  9
$DIMALTF
 40
25.4
  9
$DIMLFAC
 40
1.0
  9
$DIMTOFL
 70
     0
  9
$DIMTVP
 40
0.0
  9
$DIMTIX
 70
     0
  9
$DIMSOXD
 70
     0
  9
$DIMSAH
 70
     0
  9
$DIMBLK1
  1

  9
$DIMBLK2
  1

  9
$DIMSTYLE
  2
STANDARD
  9
$DIMCLRD
 70
     0
  9
$DIMCLRE
 70
     0
  9
$DIMCLRT
 70
     0
  9
$DIMTFAC
 40
1.0
  9
$DIMGAP
 40
0.09
  9
$LUNITS
 70
     2
  9
$LUPREC
 70
     4
  9
$SKETCHINC
 40
0.1
  9
$FILLETRAD
 40
0.5
  9
$AUNITS
 70
     0
  9
$AUPREC
 70
     0
  9
$MENU
  1
.
  9
$ELEVATION
 40
0.0
  9
$PELEVATION
 40
0.0
  9
$THICKNESS
 40
0.0
  9
$LIMCHECK
 70
     0
  9
$CHAMFERA
 40
0.0
  9
$CHAMFERB
 40
0.0
  9
$SKPOLY
 70
     0
  9
$TDCREATE
 40
2454910.5
  9
$TDUPDATE
 40
2458150.617808252
  9
$TDINDWG
 40
0.0000000116
  9
$TDUSRTIMER
 40
0.0000000116
  9
$USRTIMER
 70
     1
  9
$ANGBASE
 50
0.0
  9
$ANGDIR
 70
     0
  9
$PDMODE
 70
     0
  9
$PDSIZE
 40
0.0
  9
$PLINEWID
 40
0.0
  9
$COORDS
 70
     1
  9
$SPLFRAME
 70
     0
  9
$SPLINETYPE
 70
     6
  9
$SPLINESEGS
 70
     8
  9
$ATTDIA
 70
     0
  9
$ATTREQ
 70
     1
  9
$HANDLING
 70
     1
  9
$HANDSEED
  5
6BD
  9
$SURFTAB1
 70
     6
  9
$SURFTAB2
 70
     6
  9
$SURFTYPE
 70
     6
  9
$SURFU
 70
     6
  9
$SURFV
 70
     6
  9
$UCSNAME
  2

  9
$UCSORG
 10
0.0
 20
0.0
 30
0.0
  9
$UCSXDIR
 10
1.0
 20
0.0
 30
0.0
  9
$UCSYDIR
 10
0.0
 20
1.0
 30
0.0
  9
$PUCSNAME
  2

  9
$PUCSORG
 10
0.0
 20
0.0
 30
0.0
  9
$PUCSXDIR
 10
1.0
 20
0.0
 30
0.0
  9
$PUCSYDIR
 10
0.0
 20
1.0
 30
0.0
  9
$USERI1
 70
     0
  9
$USERI2
 70
     0
  9
$USERI3
 70
     0
  9
$USERI4
 70
     0
  9
$USERI5
 70
     0
  9
$USERR1
 40
0.0
  9
$USERR2
 40
0.0
  9
$USERR3
 40
0.0
  9
$USERR4
 40
0.0
  9
$USERR5
 40
0.0
  9
$WORLDVIEW
 70
     1
  9
$SHADEDGE
 70
     3
  9
$SHADEDIF
 70
    70
  9
$TILEMODE
 70
     1
  9
$MAXACTVP
 70
    64
  9
$PLIMCHECK
 70
     0
  9
$PEXTMIN
 10
1.000000000000000E+20
 20
1.000000000000000E+20
 30
1.000000000000000E+20
  9
$PEXTMAX
 10
-1.000000000000000E+20
 20
-1.000000000000000E+20
 30
-1.000000000000000E+20
  9
$PLIMMIN
 10
0.0
 20
0.0
  9
$PLIMMAX
 10
12.0
 20
9.0
  9
$UNITMODE
 70
     0
  9
$VISRETAIN
 70
     1
  9
$PLINEGEN
 70
     0
  9
$PSLTSCALE
 70
     1
  0
ENDSEC
  0
SECTION
  2
TABLES
  0
TABLE
  2
VPORT
 70
     1
  0
VPORT
  2
*ACTIVE
 70
     0
 10
0.0
 20
0.0
 11
1.0
 21
1.0
 12
10.42990654205607
 22
4.5
 13
0.0
 23
0.0
 14
0.5
 24
0.5
 15
0.5
 25
0.5
 16
0.0
 26
0.0
 36
1.0
 17
0.0
 27
0.0
 37
0.0
 40
9.0
 41
1.972972972850329
 42
50.0
 43
0.0
 44
0.0
 50
0.0
 51
0.0
 71
     0
 72
   100
 73
     1
 74
     3
 75
     0
 76
     0
 77
     0
 78
     0
  0
ENDTAB
  0
TABLE
  2
LTYPE
 70
     2
  0
LTYPE
  2
CONTINUOUS
 70
     0
  3
Solid line
 72
    65
 73
     0
 40
0.0
  0
LTYPE
  2
CONTINUOUS2
 70
     0
  3
Solid Line
 72
    65
 73
     0
 40
0.0
  0
ENDTAB
  0
TABLE
  2
LAYER
 70
     1
  0
LAYER
  2
0
 70
     0
 62
     7
  6
CONTINUOUS
  0
ENDTAB
  0
TABLE
  2
STYLE
 70
     1
  0
STYLE
  2
STANDARD
 70
     0
 40
0.0
 41
1.0
 50
0.0
 71
     0
 42
0.2
  3
txt
  4

  0
ENDTAB
  0
TABLE
  2
VIEW
 70
     0
  0
ENDTAB
  0
TABLE
  2
UCS
 70
     0
  0
ENDTAB
  0
TABLE
  2
APPID
 70
     1
  0
APPID
  2
ACAD
 70
     0
  0
ENDTAB
  0
TABLE
  2
DIMSTYLE
 70
     1
  0
DIMSTYLE
  2
STANDARD
 70
     0
  3

  4

  5

  6

  7

 40
1.0
 41
0.18
 42
0.0625
 43
0.38
 44
0.18
 45
0.0
 46
0.0
 47
0.0
 48
0.0
140
0.18
141
0.09
142
0.0
143
25.4
144
1.0
145
0.0
146
1.0
147
0.09
 71
     0
 72
     0
 73
     1
 74
     1
 75
     0
 76
     0
 77
     0
 78
     0
170
     0
171
     2
172
     0
173
     0
174
     0
175
     0
176
     0
177
     0
178
     0
  0
ENDTAB
  0
ENDSEC
  0
SECTION
  2
BLOCKS
  0
BLOCK
  8
0
  2
$MODEL_SPACE
 70
     0
 10
0.0
 20
0.0
 30
0.0
  3
$MODEL_SPACE
  1

  0
ENDBLK
  5
21
  8
0
  0
BLOCK
 67
     1
  8
0
  2
$PAPER_SPACE
 70
     0
 10
0.0
 20
0.0
 30
0.0
  3
$PAPER_SPACE
  1

  0
ENDBLK
  5
1D
 67
     1
  8
0
  0
ENDSEC
  0
SECTION
  2
ENTITIES
  0
POLYLINE
  5
6F
  8
0
 66
     1
 10
0.0
 20
0.0
 30
0.0
 70
     1
  0
VERTEX
  5
14C
  8
0
 10
-239.3091796860437
 20
159.5916750758967
 30
0.0
  0
VERTEX
  5
14D
  8
0
 10
-129.2604344591385
 20
236.2782989273872
 30
0.0
  0
VERTEX
  5
14E
  8
0
 10
-187.4999331010722
 20
294.781831281269
 30
0.0
  0
VERTEX
  5
14F
  8
0
 10
-265.3762358159642
 20
217.256993998485
 30
0.0
 42
0.4474448686195638
  0
VERTEX
  5
150
  8
0
 10
-257.2298753624258
 20
65.96762234425937
 30
0.0
  0
VERTEX
  5
151
  8
0
 10
-137.2844982578198
 20
-30.14753210941893
 30
0.0
 42
0.9621237218729111
  0
VERTEX
  5
152
  8
0
 10
-112.3485109118946
 20
-1.378721341149133
 30
0.0
  0
VERTEX
  5
153
  8
0
 10
-242.1521601098784
 20
120.215158276977
 30
0.0
 42
-0.4769755326961064
  0
SEQEND
  5
5E7
  8
0
  0
POLYLINE
  5
70
  8
0
 66
     1
 10
0.0
 20
0.0
 30
0.0
 70
     1
  0
VERTEX
  5
154
  8
0
 10
-144.4070881371969
 20
237.9926679697357
 30
0.0
 42
0.4142135623730951
  0
VERTEX
  5
155
  8
0
 10
-144.4121657085805
 20
235.7476096813545
 30
0.0
 42
0.4142135623730951
  0
VERTEX
  5
156
  8
0
 10
-142.1671074201994
 20
235.7425321099709
 30
0.0
 42
0.4142135623730951
  0
VERTEX
  5
157
  8
0
 10
-142.1620298488158
 20
237.987590398352
 30
0.0
 42
0.4142135623730951
  0
SEQEND
  5
5E8
  8
0
  0
POLYLINE
  5
71
  8
0
 66
     1
 10
0.0
 20
0.0
 30
0.0
 70
     1
  0
VERTEX
  5
158
  8
0
 10
-156.969301825261
 20
250.6118335201558
 30
0.0
 42
0.4142135623730951
  0
VERTEX
  5
159
  8
0
 10
-156.9743793966446
 20
248.3667752317748
 30
0.0
 42
0.4142135623730951
  0
VERTEX
  5
15A
  8
0
 10
-154.7293211082635
 20
248.3616976603912
 30
0.0
 42
0.4142135623730951
  0
VERTEX
  5
15B
  8
0
 10
-154.72424353688
 20
250.6067559487722
 30
0.0
 42
0.4142135623730951
  0
SEQEND
  5
5E9
  8
0
  0
POLYLINE
  5
72
  8
0
 66
     1
 10
0.0
 20
0.0
 30
0.0
 70
     1
  0
VERTEX
  5
15C
  8
0
 10
-188.7496689844457
 20
282.5362796721853
 30
0.0
 42
0.4142135623730951
  0
VERTEX
  5
15D
  8
0
 10
-188.7547465558293
 20
280.2912213838042
 30
0.0
 42
0.4142135623730951
  0
VERTEX
  5
15E
  8
0
 10
-186.5096882674482
 20
280.2861438124206
 30
0.0
 42
0.4142135623730951
  0
VERTEX
  5
15F
  8
0
 10
-186.5046106960647
 20
282.5312021008017
 30
0.0
 42
0.4142135623730951
  0
SEQEND
  5
5EA
  8
0
  0
POLYLINE
  5
73
  8
0
 66
     1
 10
0.0
 20
0.0
 30
0.0
 70
     1
  0
VERTEX
  5
160
  8
0
 10
-126.4920468992745
 20
-14.15652215298871
 30
0.0
 42
0.4142135623730951
  0
VERTEX
  5
161
  8
0
 10
-126.497124470658
 20
-16.40158044136985
 30
0.0
 42
0.4142135623730951
  0
VERTEX
  5
162
  8
0
 10
-124.252066182277
 20
-16.40665801275334
 30
0.0
 42
0.4142135623730951
  0
VERTEX
  5
163
  8
0
 10
-124.2469886108934
 20
-14.16159972437238
 30
0.0
 42
0.4142135623730951
  0
SEQEND
  5
5EB
  8
0
  0
POLYLINE
  5
74
  8
0
 66
     1
 10
0.0
 20
0.0
 30
0.0
 70
     1
  0
VERTEX
  5
164
  8
0
 10
-236.0672758832579
 20
-109.4562355360129
 30
0.0
  0
VERTEX
  5
165
  8
0
 10
-212.4766936239335
 20
22.58561022669349
 30
0.0
  0
VERTEX
  5
166
  8
0
 10
-295.0264824973459
 20
22.77231025487377
 30
0.0
  0
VERTEX
  5
167
  8
0
 10
-295.2750060877421
 20
-87.11288964160286
 30
0.0
 42
0.4474448686195638
  0
VERTEX
  5
168
  8
0
 10
-182.5369187509004
 20
-188.3302835410709
 30
0.0
  0
VERTEX
  5
169
  8
0
 10
-29.75905173926751
 20
-171.4797715074145
 30
0.0
 42
0.9621237218729111
  0
VERTEX
  5
16A
  8
0
 10
-32.46926717229797
 20
-133.5047445786127
 30
0.0
  0
VERTEX
  5
16B
  8
0
 10
-210.2341645717099
 20
-139.3099283205091
 30
0.0
 42
-0.4769755326961064
  0
SEQEND
  5
5EC
  8
0
  0
POLYLINE
  5
75
  8
0
 66
     1
 10
0.0
 20
0.0
 30
0.0
 70
     1
  0
VERTEX
  5
16C
  8
0
 10
-224.3992371272736
 20
13.087550673955
 30
0.0
 42
0.4142135623730951
  0
VERTEX
  5
16D
  8
0
 10
-222.8153315725575
 20
11.49646434892439
 30
0.0
 42
0.4142135623730951
  0
VERTEX
  5
16E
  8
0
 10
-221.2242452475269
 20
13.08036990364043
 30
0.0
 42
0.4142135623730951
  0
VERTEX
  5
16F
  8
0
 10
-222.8081508022429
 20
14.671456228671
 30
0.0
 42
0.4142135623730951
  0
SEQEND
  5
5ED
  8
0
  0
POLYLINE
  5
76
  8
0
 66
     1
 10
0.0
 20
0.0
 30
0.0
 70
     1
  0
VERTEX
  5
170
  8
0
 10
-242.205161146436
 20
13.12782172202822
 30
0.0
 42
0.4142135623730951
  0
VERTEX
  5
171
  8
0
 10
-240.62125559172
 20
11.53673539699765
 30
0.0
 42
0.4142135623730951
  0
VERTEX
  5
172
  8
0
 10
-239.0301692666893
 20
13.12064095171361
 30
0.0
 42
0.4142135623730951
  0
VERTEX
  5
173
  8
0
 10
-240.6140748214054
 20
14.71172727674426
 30
0.0
 42
0.4142135623730951
  0
SEQEND
  5
5EE
  8
0
  0
POLYLINE
  5
77
  8
0
 66
     1
 10
0.0
 20
0.0
 30
0.0
 70
     1
  0
VERTEX
  5
174
  8
0
 10
-287.2512666330185
 20
13.22970095489526
 30
0.0
 42
0.4142135623730951
  0
VERTEX
  5
175
  8
0
 10
-285.6673610783025
 20
11.63861462986465
 30
0.0
 42
0.4142135623730951
  0
VERTEX
  5
176
  8
0
 10
-284.0762747532719
 20
13.22252018458061
 30
0.0
 42
0.4142135623730951
  0
VERTEX
  5
177
  8
0
 10
-285.660180307988
 20
14.81360650961126
 30
0.0
 42
0.4142135623730951
  0
SEQEND
  5
5EF
  8
0
  0
POLYLINE
  5
78
  8
0
 66
     1
 10
0.0
 20
0.0
 30
0.0
 70
     1
  0
VERTEX
  5
178
  8
0
 10
-33.43498777622753
 20
-152.5410043879477
 30
0.0
 42
0.4142135623730951
  0
VERTEX
  5
179
  8
0
 10
-31.85108222151144
 20
-154.1320907129783
 30
0.0
 42
0.4142135623730951
  0
VERTEX
  5
17A
  8
0
 10
-30.25999589648092
 20
-152.5481851582624
 30
0.0
 42
0.4142135623730951
  0
VERTEX
  5
17B
  8
0
 10
-31.84390145119687
 20
-150.9570988332318
 30
0.0
 42
0.4142135623730951
  0
SEQEND
  5
5F0
  8
0
  0
POLYLINE
  5
79
  8
0
 66
     1
 10
0.0
 20
0.0
 30
0.0
 70
     1
  0
VERTEX
  5
17C
  8
0
 10
-181.0671462104518
 20
101.0832316265028
 30
0.0
  0
VERTEX
  5
17D
  8
0
 10
-211.0614428603405
 20
131.0775282763915
 30
0.0
 42
-0.6858831481015217
  0
VERTEX
  5
17E
  8
0
 10
-209.8618522696634
 20
133.7856889447303
 30
0.0
  0
VERTEX
  5
17F
  8
0
 10
-181.2576653978191
 20
132.3955791666858
 30
0.0
 42
-0.386045573955378
  0
VERTEX
  5
180
  8
0
 10
-179.7490953201575
 20
130.8870090890241
 30
0.0
  0
VERTEX
  5
181
  8
0
 10
-178.358985542113
 20
102.2828222171799
 30
0.0
 42
-0.6858831481015198
  0
SEQEND
  5
5F1
  8
0
  0
POLYLINE
  5
7A
  8
0
 66
     1
 10
0.0
 20
0.0
 30
0.0
 70
     1
  0
VERTEX
  5
182
  8
0
 10
-151.7557108343954
 20
93.03704274496813
 30
0.0
  0
VERTEX
  5
183
  8
0
 10
-64.19821365467168
 20
180.5945399246919
 30
0.0
 42
0.9999999999999998
  0
VERTEX
  5
184
  8
0
 10
-82.15872589666624
 20
198.5550521666864
 30
0.0
  0
VERTEX
  5
185
  8
0
 10
-123.018891247204
 20
157.6948868161487
 30
0.0
 42
-0.4142135623730951
  0
VERTEX
  5
186
  8
0
 10
-136.4892754287
 20
157.6948868161487
 30
0.0
 42
0.1961510520176442
  0
VERTEX
  5
187
  8
0
 10
-144.3919008151776
 20
161.0175815809177
 30
0.0
 42
-0.1961510520176442
  0
VERTEX
  5
188
  8
0
 10
-152.2945262016553
 20
164.3402763456868
 30
0.0
 42
0.2683759892124261
  0
VERTEX
  5
189
  8
0
 10
-169.2105407103774
 20
168.8584739896128
 30
0.0
  0
VERTEX
  5
18A
  8
0
 10
-237.2490998417196
 20
150.5114051791867
 30
0.0
 42
0.5768195054227268
  0
VERTEX
  5
18B
  8
0
 10
-241.5043905076426
 20
134.5797075607017
 30
0.0
  0
VERTEX
  5
18C
  8
0
 10
-142.7215731766721
 20
35.79689022973124
 30
0.0
 42
0.9031740110501919
  0
VERTEX
  5
18D
  8
0
 10
-128.0298927097228
 20
47.76848544838295
 30
0.0
  0
VERTEX
  5
18E
  8
0
 10
-152.569908358031
 20
85.05597926586687
 30
0.0
 42
-0.3558387196350834
  0
SEQEND
  5
5F2
  8
0
  0
POLYLINE
  5
7B
  8
0
 66
     1
 10
0.0
 20
0.0
 30
0.0
 70
     1
  0
VERTEX
  5
18F
  8
0
 10
-152.8782428495201
 20
159.2664316373233
 30
0.0
 42
0.4142135623730951
  0
VERTEX
  5
190
  8
0
 10
-173.083819121764
 20
159.2664316373233
 30
0.0
 42
0.4142135623730951
  0
VERTEX
  5
191
  8
0
 10
-173.083819121764
 20
139.0608553650794
 30
0.0
 42
0.4142135623730951
  0
VERTEX
  5
192
  8
0
 10
-152.8782428495201
 20
139.0608553650794
 30
0.0
 42
0.4142135623730951
  0
SEQEND
  5
5F3
  8
0
  0
POLYLINE
  5
7C
  8
0
 66
     1
 10
0.0
 20
0.0
 30
0.0
 70
     1
  0
VERTEX
  5
193
  8
0
 10
-196.9462006075973
 20
108.2334770740389
 30
0.0
 42
0.4142135623730951
  0
VERTEX
  5
194
  8
0
 10
-201.6877758394839
 20
108.2334770740389
 30
0.0
 42
0.4142135623730951
  0
VERTEX
  5
195
  8
0
 10
-201.6877758394838
 20
103.4919018421524
 30
0.0
 42
0.4142135623730951
  0
VERTEX
  5
196
  8
0
 10
-196.9462006075973
 20
103.4919018421524
 30
0.0
 42
0.4142135623730951
  0
SEQEND
  5
5F4
  8
0
  0
POLYLINE
  5
7D
  8
0
 66
     1
 10
0.0
 20
0.0
 30
0.0
 70
     1
  0
VERTEX
  5
197
  8
0
 10
-232.3984108009514
 20
143.685687267393
 30
0.0
 42
0.4142135623730951
  0
VERTEX
  5
198
  8
0
 10
-237.1399860328379
 20
143.685687267393
 30
0.0
 42
0.4142135623730951
  0
VERTEX
  5
199
  8
0
 10
-237.1399860328379
 20
138.9441120355065
 30
0.0
 42
0.4142135623730951
  0
VERTEX
  5
19A
  8
0
 10
-232.3984108009513
 20
138.9441120355064
 30
0.0
 42
0.4142135623730951
  0
SEQEND
  5
5F5
  8
0
  0
POLYLINE
  5
7E
  8
0
 66
     1
 10
0.0
 20
0.0
 30
0.0
 70
     1
  0
VERTEX
  5
19B
  8
0
 10
-165.0942124220362
 20
76.75383939625497
 30
0.0
 42
0.4142135623730951
  0
VERTEX
  5
19C
  8
0
 10
-169.8357876539227
 20
76.75383939625497
 30
0.0
 42
0.4142135623730951
  0
VERTEX
  5
19D
  8
0
 10
-169.8357876539228
 20
72.01226416436842
 30
0.0
 42
0.4142135623730951
  0
VERTEX
  5
19E
  8
0
 10
-165.0942124220362
 20
72.01226416436842
 30
0.0
 42
0.4142135623730951
  0
SEQEND
  5
5F6
  8
0
  0
POLYLINE
  5
7F
  8
0
 66
     1
 10
0.0
 20
0.0
 30
0.0
 70
     1
  0
VERTEX
  5
19F
  8
0
 10
-133.6155934699808
 20
44.90286993642256
 30
0.0
 42
0.4142135623730951
  0
VERTEX
  5
1A0
  8
0
 10
-138.3571687018675
 20
44.90286993642256
 30
0.0
 42
0.4142135623730951
  0
VERTEX
  5
1A1
  8
0
 10
-138.3571687018675
 20
40.16129470453587
 30
0.0
 42
0.4142135623730951
  0
VERTEX
  5
1A2
  8
0
 10
-133.6155934699809
 20
40.16129470453592
 30
0.0
 42
0.4142135623730951
  0
SEQEND
  5
5F7
  8
0
  0
POLYLINE
  5
80
  8
0
 66
     1
 10
0.0
 20
0.0
 30
0.0
 70
     1
  0
VERTEX
  5
1A3
  8
0
 10
-69.17327554570417
 20
193.5799902756539
 30
0.0
 42
0.4142135623730951
  0
VERTEX
  5
1A4
  8
0
 10
-72.69353594513505
 20
193.579990275654
 30
0.0
 42
0.4142135623730951
  0
VERTEX
  5
1A5
  8
0
 10
-72.69353594513505
 20
190.059729876223
 30
0.0
 42
0.4142135623730951
  0
VERTEX
  5
1A6
  8
0
 10
-69.17327554570413
 20
190.059729876223
 30
0.0
 42
0.4142135623730951
  0
SEQEND
  5
5F8
  8
0
  0
POLYLINE
  5
81
  8
0
 66
     1
 10
0.0
 20
0.0
 30
0.0
 70
     1
  0
VERTEX
  5
1A7
  8
0
 10
-105.0943000296934
 20
157.6589657916647
 30
0.0
 42
0.4142135623730951
  0
VERTEX
  5
1A8
  8
0
 10
-108.6145604291243
 20
157.6589657916647
 30
0.0
 42
0.4142135623730951
  0
VERTEX
  5
1A9
  8
0
 10
-108.6145604291243
 20
154.1387053922337
 30
0.0
 42
0.4142135623730951
  0
VERTEX
  5
1AA
  8
0
 10
-105.0943000296934
 20
154.1387053922338
 30
0.0
 42
0.4142135623730951
  0
SEQEND
  5
5F9
  8
0
  0
POLYLINE
  5
82
  8
0
 66
     1
 10
0.0
 20
0.0
 30
0.0
 70
     1
  0
VERTEX
  5
1AB
  8
0
 10
-158.9758367556772
 20
103.7774290656809
 30
0.0
 42
0.4142135623730951
  0
VERTEX
  5
1AC
  8
0
 10
-162.4960971551081
 20
103.7774290656809
 30
0.0
 42
0.4142135623730951
  0
VERTEX
  5
1AD
  8
0
 10
-162.4960971551081
 20
100.2571686662499
 30
0.0
 42
0.4142135623730951
  0
VERTEX
  5
1AE
  8
0
 10
-158.9758367556772
 20
100.2571686662499
 30
0.0
 42
0.4142135623730951
  0
SEQEND
  5
5FA
  8
0
  0
POLYLINE
  5
83
  8
0
 66
     1
 10
0.0
 20
0.0
 30
0.0
 70
     1
  0
VERTEX
  5
1AF
  8
0
 10
-101.8337581234036
 20
-108.2927383163575
 30
0.0
  0
VERTEX
  5
1B0
  8
0
 10
-144.2520992395181
 20
-108.2927383163575
 30
0.0
 42
-0.6858831481015217
  0
VERTEX
  5
1B1
  8
0
 10
-145.3188193713277
 20
-105.5295409019171
 30
0.0
  0
VERTEX
  5
1B2
  8
0
 10
-124.1096488132705
 20
-86.28628244515777
 30
0.0
 42
-0.386045573955378
  0
VERTEX
  5
1B3
  8
0
 10
-121.9762085496511
 20
-86.28628244515777
 30
0.0
  0
VERTEX
  5
1B4
  8
0
 10
-100.767037991594
 20
-105.5295409019171
 30
0.0
 42
-0.6858831481015198
  0
SEQEND
  5
5FB
  8
0
  0
POLYLINE
  5
84
  8
0
 66
     1
 10
0.0
 20
0.0
 30
0.0
 70
     1
  0
VERTEX
  5
1B5
  8
0
 10
-75.41792868184186
 20
-93.25593831647774
 30
0.0
  0
VERTEX
  5
1B6
  8
0
 10
-75.41792868184191
 20
30.56906168253161
 30
0.0
 42
0.9999999999999998
  0
VERTEX
  5
1B7
  8
0
 10
-100.8179286816386
 20
30.56906168253161
 30
0.0
  0
VERTEX
  5
1B8
  8
0
 10
-100.8179286816386
 20
-27.21593831700615
 30
0.0
 42
-0.4142135623730951
  0
VERTEX
  5
1B9
  8
0
 10
-110.3429286815625
 20
-36.74093831692985
 30
0.0
 42
0.1961510520176442
  0
VERTEX
  5
1BA
  8
0
 10
-118.2804286814989
 20
-39.97943831690399
 30
0.0
 42
-0.1961510520176442
  0
VERTEX
  5
1BB
  8
0
 10
-126.2179286814355
 20
-43.21793831687812
 30
0.0
 42
0.2683759892124261
  0
VERTEX
  5
1BC
  8
0
 10
-141.3742054439641
 20
-51.98451869388425
 30
0.0
  0
VERTEX
  5
1BD
  8
0
 10
-176.5113952171496
 20
-113.0683820085667
 30
0.0
 42
0.5768195054227268
  0
VERTEX
  5
1BE
  8
0
 10
-168.2549286810992
 20
-127.342738316205
 30
0.0
  0
VERTEX
  5
1BF
  8
0
 10
-28.55492868221675
 20
-127.3427383162051
 30
0.0
 42
0.9031740110501919
  0
VERTEX
  5
1C0
  8
0
 10
-26.63153795774002
 20
-108.4889552702701
 30
0.0
  0
VERTEX
  5
1C1
  8
0
 10
-70.35018916487711
 20
-99.47512701381858
 30
0.0
 42
-0.3558387196350834
  0
SEQEND
  5
5FC
  8
0
  0
POLYLINE
  5
85
  8
0
 66
     1
 10
0.0
 20
0.0
 30
0.0
 70
     1
  0
VERTEX
  5
1C2
  8
0
 10
-123.0429286814609
 20
-47.21843831684605
 30
0.0
 42
0.4142135623730951
  0
VERTEX
  5
1C3
  8
0
 10
-137.3304286813465
 20
-61.50593831673181
 30
0.0
 42
0.4142135623730951
  0
VERTEX
  5
1C4
  8
0
 10
-123.0429286814609
 20
-75.79343831661744
 30
0.0
 42
0.4142135623730951
  0
VERTEX
  5
1C5
  8
0
 10
-108.7554286815752
 20
-61.50593831673181
 30
0.0
 42
0.4142135623730951
  0
SEQEND
  5
5FD
  8
0
  0
POLYLINE
  5
86
  8
0
 66
     1
 10
0.0
 20
0.0
 30
0.0
 70
     1
  0
VERTEX
  5
1C6
  8
0
 10
-118.1179322095563
 20
-114.4649383163081
 30
0.0
 42
0.4142135623730951
  0
VERTEX
  5
1C7
  8
0
 10
-121.4707322095294
 20
-117.8177383162813
 30
0.0
 42
0.4142135623730951
  0
VERTEX
  5
1C8
  8
0
 10
-118.1179322095563
 20
-121.1705383162544
 30
0.0
 42
0.4142135623730951
  0
VERTEX
  5
1C9
  8
0
 10
-114.7651322095831
 20
-117.8177383162813
 30
0.0
 42
0.4142135623730951
  0
SEQEND
  5
5FE
  8
0
  0
POLYLINE
  5
87
  8
0
 66
     1
 10
0.0
 20
0.0
 30
0.0
 70
     1
  0
VERTEX
  5
1CA
  8
0
 10
-168.2549286810992
 20
-114.4649383163081
 30
0.0
 42
0.4142135623730951
  0
VERTEX
  5
1CB
  8
0
 10
-171.6077286810724
 20
-117.8177383162813
 30
0.0
 42
0.4142135623730951
  0
VERTEX
  5
1CC
  8
0
 10
-168.2549286810992
 20
-121.1705383162544
 30
0.0
 42
0.4142135623730951
  0
VERTEX
  5
1CD
  8
0
 10
-164.902128681126
 20
-117.8177383162813
 30
0.0
 42
0.4142135623730951
  0
SEQEND
  5
5FF
  8
0
  0
POLYLINE
  5
88
  8
0
 66
     1
 10
0.0
 20
0.0
 30
0.0
 70
     1
  0
VERTEX
  5
1CE
  8
0
 10
-73.33571009801567
 20
-114.2016467472806
 30
0.0
 42
0.4142135623730951
  0
VERTEX
  5
1CF
  8
0
 10
-76.68851009798877
 20
-117.5544467472538
 30
0.0
 42
0.4142135623730951
  0
VERTEX
  5
1D0
  8
0
 10
-73.33571009801567
 20
-120.907246747227
 30
0.0
 42
0.4142135623730951
  0
VERTEX
  5
1D1
  8
0
 10
-69.98291009804251
 20
-117.5544467472538
 30
0.0
 42
0.4142135623730951
  0
SEQEND
  5
600
  8
0
  0
POLYLINE
  5
89
  8
0
 66
     1
 10
0.0
 20
0.0
 30
0.0
 70
     1
  0
VERTEX
  5
1D2
  8
0
 10
-28.55492868221675
 20
-114.464938316308
 30
0.0
 42
0.4142135623730951
  0
VERTEX
  5
1D3
  8
0
 10
-31.90772868219003
 20
-117.8177383162813
 30
0.0
 42
0.4142135623730951
  0
VERTEX
  5
1D4
  8
0
 10
-28.55492868221675
 20
-121.1705383162545
 30
0.0
 42
0.4142135623730951
  0
VERTEX
  5
1D5
  8
0
 10
-25.2021286822436
 20
-117.8177383162813
 30
0.0
 42
0.4142135623730951
  0
SEQEND
  5
601
  8
0
  0
POLYLINE
  5
8A
  8
0
 66
     1
 10
0.0
 20
0.0
 30
0.0
 70
     1
  0
VERTEX
  5
1D6
  8
0
 10
-88.11792868174025
 20
36.23326168248624
 30
0.0
 42
0.4142135623730951
  0
VERTEX
  5
1D7
  8
0
 10
-90.60712868172033
 20
33.74406168250625
 30
0.0
 42
0.4142135623730951
  0
VERTEX
  5
1D8
  8
0
 10
-88.11792868174025
 20
31.25486168252617
 30
0.0
 42
0.4142135623730951
  0
VERTEX
  5
1D9
  8
0
 10
-85.62872868176018
 20
33.74406168250625
 30
0.0
 42
0.4142135623730951
  0
SEQEND
  5
602
  8
0
  0
POLYLINE
  5
8B
  8
0
 66
     1
 10
0.0
 20
0.0
 30
0.0
 70
     1
  0
VERTEX
  5
1DA
  8
0
 10
-88.11792868174025
 20
-14.56673831710732
 30
0.0
 42
0.4142135623730951
  0
VERTEX
  5
1DB
  8
0
 10
-90.60712868172033
 20
-17.05593831708736
 30
0.0
 42
0.4142135623730951
  0
VERTEX
  5
1DC
  8
0
 10
-88.11792868174025
 20
-19.54513831706748
 30
0.0
 42
0.4142135623730951
  0
VERTEX
  5
1DD
  8
0
 10
-85.62872868176018
 20
-17.05593831708736
 30
0.0
 42
0.4142135623730951
  0
SEQEND
  5
603
  8
0
  0
POLYLINE
  5
8C
  8
0
 66
     1
 10
0.0
 20
0.0
 30
0.0
 70
     1
  0
VERTEX
  5
1DE
  8
0
 10
-88.11792868174025
 20
-90.76673831649767
 30
0.0
 42
0.4142135623730951
  0
VERTEX
  5
1DF
  8
0
 10
-90.60712868172033
 20
-93.25593831647774
 30
0.0
 42
0.4142135623730951
  0
VERTEX
  5
1E0
  8
0
 10
-88.11792868174025
 20
-95.74513831645781
 30
0.0
 42
0.4142135623730951
  0
VERTEX
  5
1E1
  8
0
 10
-85.62872868176018
 20
-93.25593831647774
 30
0.0
 42
0.4142135623730951
  0
SEQEND
  5
604
  8
0
  0
POLYLINE
  5
8D
  8
0
 66
     1
 10
0.0
 20
0.0
 30
0.0
 70
     1
  0
VERTEX
  5
1E2
  8
0
 10
-55.83375812358759
 20
84.20726168287251
 30
0.0
  0
VERTEX
  5
1E3
  8
0
 10
-98.25209923970213
 20
84.20726168287251
 30
0.0
 42
-0.6858831481015217
  0
VERTEX
  5
1E4
  8
0
 10
-99.31881937151176
 20
86.97045909731293
 30
0.0
  0
VERTEX
  5
1E5
  8
0
 10
-78.10964881345454
 20
106.2137175540723
 30
0.0
 42
-0.386045573955378
  0
VERTEX
  5
1E6
  8
0
 10
-75.9762085498351
 20
106.2137175540723
 30
0.0
  0
VERTEX
  5
1E7
  8
0
 10
-54.76703799177797
 20
86.97045909731293
 30
0.0
 42
-0.6858831481015198
  0
SEQEND
  5
605
  8
0
  0
POLYLINE
  5
8E
  8
0
 66
     1
 10
0.0
 20
0.0
 30
0.0
 70
     1
  0
VERTEX
  5
1E8
  8
0
 10
-29.41792868202586
 20
99.24406168275223
 30
0.0
  0
VERTEX
  5
1E9
  8
0
 10
-29.41792868202594
 20
223.0690616817616
 30
0.0
 42
0.9999999999999998
  0
VERTEX
  5
1EA
  8
0
 10
-54.81792868182264
 20
223.0690616817616
 30
0.0
  0
VERTEX
  5
1EB
  8
0
 10
-54.81792868182264
 20
165.2840616822239
 30
0.0
 42
-0.4142135623730951
  0
VERTEX
  5
1EC
  8
0
 10
-64.34292868174647
 20
155.7590616823001
 30
0.0
 42
0.1961510520176442
  0
VERTEX
  5
1ED
  8
0
 10
-72.28042868168295
 20
152.520561682326
 30
0.0
 42
-0.1961510520176442
  0
VERTEX
  5
1EE
  8
0
 10
-80.21792868161945
 20
149.2820616823519
 30
0.0
 42
0.2683759892124261
  0
VERTEX
  5
1EF
  8
0
 10
-95.37420544414813
 20
140.5154813053458
 30
0.0
  0
VERTEX
  5
1F0
  8
0
 10
-130.5113952173337
 20
79.43161799066321
 30
0.0
 42
0.5768195054227268
  0
VERTEX
  5
1F1
  8
0
 10
-122.2549286812833
 20
65.15726168302497
 30
0.0
  0
VERTEX
  5
1F2
  8
0
 10
17.44507131759926
 20
65.15726168302493
 30
0.0
 42
0.9031740110501919
  0
VERTEX
  5
1F3
  8
0
 10
19.36846204207595
 20
84.01104472895986
 30
0.0
  0
VERTEX
  5
1F4
  8
0
 10
-24.35018916506115
 20
93.02487298541139
 30
0.0
 42
-0.3558387196350834
  0
SEQEND
  5
606
  8
0
  0
POLYLINE
  5
8F
  8
0
 66
     1
 10
0.0
 20
0.0
 30
0.0
 70
     1
  0
VERTEX
  5
1F5
  8
0
 10
-77.04292868164487
 20
145.2815616823839
 30
0.0
 42
0.4142135623730951
  0
VERTEX
  5
1F6
  8
0
 10
-91.33042868153053
 20
130.9940616824982
 30
0.0
 42
0.4142135623730951
  0
VERTEX
  5
1F7
  8
0
 10
-77.04292868164487
 20
116.7065616826126
 30
0.0
 42
0.4142135623730951
  0
VERTEX
  5
1F8
  8
0
 10
-62.7554286817592
 20
130.9940616824982
 30
0.0
 42
0.4142135623730951
  0
SEQEND
  5
607
  8
0
  0
POLYLINE
  5
90
  8
0
 66
     1
 10
0.0
 20
0.0
 30
0.0
 70
     1
  0
VERTEX
  5
1F9
  8
0
 10
-72.1179322097403
 20
78.03506168292186
 30
0.0
 42
0.4142135623730951
  0
VERTEX
  5
1FA
  8
0
 10
-75.47073220971349
 20
74.68226168294872
 30
0.0
 42
0.4142135623730951
  0
VERTEX
  5
1FB
  8
0
 10
-72.1179322097403
 20
71.32946168297558
 30
0.0
 42
0.4142135623730951
  0
VERTEX
  5
1FC
  8
0
 10
-68.7651322097671
 20
74.68226168294872
 30
0.0
 42
0.4142135623730951
  0
SEQEND
  5
608
  8
0
  0
POLYLINE
  5
91
  8
0
 66
     1
 10
0.0
 20
0.0
 30
0.0
 70
     1
  0
VERTEX
  5
1FD
  8
0
 10
-122.2549286812833
 20
78.03506168292186
 30
0.0
 42
0.4142135623730951
  0
VERTEX
  5
1FE
  8
0
 10
-125.6077286812564
 20
74.68226168294872
 30
0.0
 42
0.4142135623730951
  0
VERTEX
  5
1FF
  8
0
 10
-122.2549286812833
 20
71.32946168297558
 30
0.0
 42
0.4142135623730951
  0
VERTEX
  5
200
  8
0
 10
-118.9021286813101
 20
74.68226168294872
 30
0.0
 42
0.4142135623730951
  0
SEQEND
  5
609
  8
0
  0
POLYLINE
  5
92
  8
0
 66
     1
 10
0.0
 20
0.0
 30
0.0
 70
     1
  0
VERTEX
  5
201
  8
0
 10
-27.33571009819965
 20
78.29835325194932
 30
0.0
 42
0.4142135623730951
  0
VERTEX
  5
202
  8
0
 10
-30.6885100981728
 20
74.94555325197618
 30
0.0
 42
0.4142135623730951
  0
VERTEX
  5
203
  8
0
 10
-27.33571009819965
 20
71.59275325200299
 30
0.0
 42
0.4142135623730951
  0
VERTEX
  5
204
  8
0
 10
-23.98291009822651
 20
74.94555325197618
 30
0.0
 42
0.4142135623730951
  0
SEQEND
  5
60A
  8
0
  0
POLYLINE
  5
93
  8
0
 66
     1
 10
0.0
 20
0.0
 30
0.0
 70
     1
  0
VERTEX
  5
205
  8
0
 10
17.44507131759926
 20
78.03506168292199
 30
0.0
 42
0.4142135623730951
  0
VERTEX
  5
206
  8
0
 10
14.09227131762593
 20
74.68226168294872
 30
0.0
 42
0.4142135623730951
  0
VERTEX
  5
207
  8
0
 10
17.44507131759926
 20
71.32946168297548
 30
0.0
 42
0.4142135623730951
  0
VERTEX
  5
208
  8
0
 10
20.7978713175724
 20
74.68226168294872
 30
0.0
 42
0.4142135623730951
  0
SEQEND
  5
60B
  8
0
  0
POLYLINE
  5
94
  8
0
 66
     1
 10
0.0
 20
0.0
 30
0.0
 70
     1
  0
VERTEX
  5
209
  8
0
 10
-42.11792868192425
 20
228.7332616817162
 30
0.0
 42
0.4142135623730951
  0
VERTEX
  5
20A
  8
0
 10
-44.60712868190436
 20
226.2440616817362
 30
0.0
 42
0.4142135623730951
  0
VERTEX
  5
20B
  8
0
 10
-42.11792868192425
 20
223.7548616817562
 30
0.0
 42
0.4142135623730951
  0
VERTEX
  5
20C
  8
0
 10
-39.62872868194417
 20
226.2440616817362
 30
0.0
 42
0.4142135623730951
  0
SEQEND
  5
60C
  8
0
  0
POLYLINE
  5
95
  8
0
 66
     1
 10
0.0
 20
0.0
 30
0.0
 70
     1
  0
VERTEX
  5
20D
  8
0
 10
-42.11792868192425
 20
177.9332616821227
 30
0.0
 42
0.4142135623730951
  0
VERTEX
  5
20E
  8
0
 10
-44.60712868190436
 20
175.4440616821426
 30
0.0
 42
0.4142135623730951
  0
VERTEX
  5
20F
  8
0
 10
-42.11792868192425
 20
172.9548616821625
 30
0.0
 42
0.4142135623730951
  0
VERTEX
  5
210
  8
0
 10
-39.62872868194417
 20
175.4440616821426
 30
0.0
 42
0.4142135623730951
  0
SEQEND
  5
60D
  8
0
  0
POLYLINE
  5
96
  8
0
 66
     1
 10
0.0
 20
0.0
 30
0.0
 70
     1
  0
VERTEX
  5
211
  8
0
 10
-42.11792868192425
 20
101.7332616827323
 30
0.0
 42
0.4142135623730951
  0
VERTEX
  5
212
  8
0
 10
-44.60712868190436
 20
99.24406168275223
 30
0.0
 42
0.4142135623730951
  0
VERTEX
  5
213
  8
0
 10
-42.11792868192425
 20
96.75486168277216
 30
0.0
 42
0.4142135623730951
  0
VERTEX
  5
214
  8
0
 10
-39.62872868194417
 20
99.24406168275223
 30
0.0
 42
0.4142135623730951
  0
SEQEND
  5
60E
  8
0
  0
POLYLINE
  5
97
  8
0
 66
     1
 10
0.0
 20
0.0
 30
0.0
 70
     1
  0
VERTEX
  5
215
  8
0
 10
-226.9101815929297
 20
-274.4943084584926
 30
0.0
  0
VERTEX
  5
216
  8
0
 10
-237.1089141339664
 20
-267.6762458810032
 30
0.0
 42
-0.6797639942567371
  0
VERTEX
  5
217
  8
0
 10
-236.4862052120664
 20
-264.7903612365903
 30
0.0
  0
VERTEX
  5
218
  8
0
 10
-216.0887401299932
 20
-261.4096912730432
 30
0.0
 42
-0.7292836521262167
  0
VERTEX
  5
219
  8
0
 10
-214.7066373307008
 20
-264.0983584221732
 30
0.0
  0
VERTEX
  5
21A
  8
0
 10
-224.9053698717374
 20
-274.2970909632098
 30
0.0
 42
-0.3578723778283741
  0
SEQEND
  5
60F
  8
0
  0
POLYLINE
  5
98
  8
0
 66
     1
 10
0.0
 20
0.0
 30
0.0
 70
     1
  0
VERTEX
  5
21B
  8
0
 10
-252.4339713959069
 20
-252.969349334969
 30
0.0
  0
VERTEX
  5
21C
  8
0
 10
-262.8943553221329
 20
-194.002406317217
 30
0.0
 42
-0.7336281531042973
  0
VERTEX
  5
21D
  8
0
 10
-260.2087270650152
 20
-192.6025903533558
 30
0.0
  0
VERTEX
  5
21E
  8
0
 10
-208.1382318570316
 20
-244.6730855613394
 30
0.0
 42
-0.610338889874716
  0
VERTEX
  5
21F
  8
0
 10
-209.0011930879886
 20
-247.3617527104694
 30
0.0
  0
VERTEX
  5
220
  8
0
 10
-250.6113043697461
 20
-254.258200520238
 30
0.0
 42
-0.4109015993646695
  0
SEQEND
  5
610
  8
0
  0
POLYLINE
  5
99
  8
0
 66
     1
 10
0.0
 20
0.0
 30
0.0
 70
     1
  0
VERTEX
  5
221
  8
0
 10
-219.320080416725
 20
-289.0969829028613
 30
0.0
  0
VERTEX
  5
222
  8
0
 10
-187.0270794052111
 20
-256.8039818913473
 30
0.0
 42
0.4142135623730951
  0
VERTEX
  5
223
  8
0
 10
-187.0270794056187
 20
-245.3990566180884
 30
0.0
  0
VERTEX
  5
224
  8
0
 10
-267.8493844945945
 20
-164.5767515291126
 30
0.0
 42
0.7336281531219943
  0
VERTEX
  5
225
  8
0
 10
-281.4923760406875
 20
-171.6878166258932
 30
0.0
  0
VERTEX
  5
226
  8
0
 10
-271.7700651755223
 20
-226.4941176976651
 30
0.0
 42
-0.3485338084277532
  0
VERTEX
  5
227
  8
0
 10
-276.5338319014807
 20
-235.3151652517683
 30
0.0
  0
VERTEX
  5
228
  8
0
 10
-289.4413809401457
 20
-240.8469719826246
 30
0.0
 42
0.9999999999999998
  0
VERTEX
  5
229
  8
0
 10
-281.8371628004345
 20
-258.5901476419514
 30
0.0
  0
VERTEX
  5
22A
  8
0
 10
-278.1522296429823
 20
-257.0108905744718
 30
0.0
 42
-0.3609221439183208
  0
VERTEX
  5
22B
  8
0
 10
-268.275249984636
 20
-259.9352128947222
 30
0.0
  0
VERTEX
  5
22C
  8
0
 10
-264.0157615396447
 20
-266.2941073254215
 30
0.0
 42
0.0981407699245132
  0
VERTEX
  5
22D
  8
0
 10
-261.7975249714887
 20
-268.5103120640204
 30
0.0
  0
VERTEX
  5
22E
  8
0
 10
-229.5045239603823
 20
-290.0988477788979
 30
0.0
 42
0.357872377828375
  0
SEQEND
  5
611
  8
0
  0
POLYLINE
  5
9A
  8
0
 66
     1
 10
0.0
 20
0.0
 30
0.0
 70
     1
  0
VERTEX
  5
22F
  8
0
 10
-283.8432206460907
 20
-251.5146110364874
 30
0.0
 42
0.4142135623730951
  0
VERTEX
  5
230
  8
0
 10
-283.8432206460907
 20
-247.9225085880885
 30
0.0
 42
0.4142135623730951
  0
VERTEX
  5
231
  8
0
 10
-287.4353230944896
 20
-247.9225085880885
 30
0.0
 42
0.4142135623730951
  0
VERTEX
  5
232
  8
0
 10
-287.4353230944896
 20
-251.5146110364874
 30
0.0
 42
0.4142135623730951
  0
SEQEND
  5
612
  8
0
  0
POLYLINE
  5
9B
  8
0
 66
     1
 10
0.0
 20
0.0
 30
0.0
 70
     1
  0
VERTEX
  5
233
  8
0
 10
-267.5889570670853
 20
-245.3182343129995
 30
0.0
 42
0.4142135623730951
  0
VERTEX
  5
234
  8
0
 10
-267.5889570670854
 20
-240.6485011300809
 30
0.0
 42
0.4142135623730951
  0
VERTEX
  5
235
  8
0
 10
-272.2586902500039
 20
-240.6485011300809
 30
0.0
 42
0.4142135623730951
  0
VERTEX
  5
236
  8
0
 10
-272.258690250004
 20
-245.3182343129995
 30
0.0
 42
0.4142135623730951
  0
SEQEND
  5
613
  8
0
  0
POLYLINE
  5
9C
  8
0
 66
     1
 10
0.0
 20
0.0
 30
0.0
 70
     1
  0
VERTEX
  5
237
  8
0
 10
-222.6876764620989
 20
-285.7293868574873
 30
0.0
 42
0.4142135623730951
  0
VERTEX
  5
238
  8
0
 10
-222.6876764620989
 20
-281.0596536745687
 30
0.0
 42
0.4142135623730951
  0
VERTEX
  5
239
  8
0
 10
-227.3574096450175
 20
-281.0596536745687
 30
0.0
 42
0.4142135623730951
  0
VERTEX
  5
23A
  8
0
 10
-227.3574096450176
 20
-285.7293868574873
 30
0.0
 42
0.4142135623730951
  0
SEQEND
  5
614
  8
0
  0
POLYLINE
  5
9D
  8
0
 66
     1
 10
0.0
 20
0.0
 30
0.0
 70
     1
  0
VERTEX
  5
23B
  8
0
 10
-271.2169805399685
 20
-172.6140807574052
 30
0.0
 42
0.4142135623730951
  0
VERTEX
  5
23C
  8
0
 10
-271.2169805399685
 20
-167.9443475744866
 30
0.0
 42
0.4142135623730951
  0
VERTEX
  5
23D
  8
0
 10
-275.8867137228871
 20
-167.9443475744866
 30
0.0
 42
0.4142135623730951
  0
VERTEX
  5
23E
  8
0
 10
-275.8867137228871
 20
-172.6140807574052
 30
0.0
 42
0.4142135623730951
  0
SEQEND
  5
615
  8
0
  0
POLYLINE
  5
9E
  8
0
 66
     1
 10
0.0
 20
0.0
 30
0.0
 70
     1
  0
VERTEX
  5
23F
  8
0
 10
-190.3946754509926
 20
-253.4363858463811
 30
0.0
 42
0.4142135623730951
  0
VERTEX
  5
240
  8
0
 10
-190.3946754509927
 20
-248.7666526634624
 30
0.0
 42
0.4142135623730951
  0
VERTEX
  5
241
  8
0
 10
-195.0644086339112
 20
-248.7666526634625
 30
0.0
 42
0.4142135623730951
  0
VERTEX
  5
242
  8
0
 10
-195.0644086339113
 20
-253.436385846381
 30
0.0
 42
0.4142135623730951
  0
SEQEND
  5
616
  8
0
  0
POLYLINE
  5
9F
  8
0
 66
     1
 10
0.0
 20
0.0
 30
0.0
 70
     1
  0
VERTEX
  5
243
  8
0
 10
-254.9806774732053
 20
-264.1408511426097
 30
0.0
 42
0.4142135623730951
  0
VERTEX
  5
244
  8
0
 10
-254.9806774732052
 20
-259.4711179596912
 30
0.0
 42
0.4142135623730951
  0
VERTEX
  5
245
  8
0
 10
-259.6504106561239
 20
-259.4711179596911
 30
0.0
 42
0.4142135623730951
  0
VERTEX
  5
246
  8
0
 10
-259.6504106561239
 20
-264.1408511426098
 30
0.0
 42
0.4142135623730951
  0
SEQEND
  5
617
  8
0
  0
POLYLINE
  5
A0
  8
0
 66
     1
 10
0.0
 20
0.0
 30
0.0
 70
     1
  0
VERTEX
  5
247
  8
0
 10
-104.5448407747023
 20
-242.5000618885663
 30
0.0
  0
VERTEX
  5
248
  8
0
 10
-116.5775319970742
 20
-244.8905565447442
 30
0.0
 42
-0.6797639942567371
  0
VERTEX
  5
249
  8
0
 10
-118.1778388974798
 20
-242.4096062415769
 30
0.0
  0
VERTEX
  5
24A
  8
0
 10
-106.1451476751079
 20
-225.5959257068492
 30
0.0
 42
-0.7292836521262167
  0
VERTEX
  5
24B
  8
0
 10
-103.2666786399279
 20
-226.5198062186761
 30
0.0
  0
VERTEX
  5
24C
  8
0
 10
-103.2666786399279
 20
-240.9429920972258
 30
0.0
 42
-0.3578723778283741
  0
SEQEND
  5
618
  8
0
  0
POLYLINE
  5
A1
  8
0
 66
     1
 10
0.0
 20
0.0
 30
0.0
 70
     1
  0
VERTEX
  5
24D
  8
0
 10
-137.8133301869742
 20
-245.3276621788247
 30
0.0
  0
VERTEX
  5
24E
  8
0
 10
-186.9058638687166
 20
-211.0283453131807
 30
0.0
 42
-0.7336281531042973
  0
VERTEX
  5
24F
  8
0
 10
-185.9966572768219
 20
-208.1395000003671
 30
0.0
  0
VERTEX
  5
250
  8
0
 10
-112.3578567542083
 20
-208.1395000003671
 30
0.0
 42
-0.610338889874716
  0
VERTEX
  5
251
  8
0
 10
-111.0668877190156
 20
-210.6508805121812
 30
0.0
  0
VERTEX
  5
252
  8
0
 10
-135.6131545598868
 20
-244.9501973778253
 30
0.0
 42
-0.4109015993646695
  0
SEQEND
  5
619
  8
0
  0
POLYLINE
  5
A2
  8
0
 66
     1
 10
0.0
 20
0.0
 30
0.0
 70
     1
  0
VERTEX
  5
253
  8
0
 10
-88.8521786400433
 20
-247.4587000000525
 30
0.0
  0
VERTEX
  5
254
  8
0
 10
-88.8521786400433
 20
-201.7894999998414
 30
0.0
 42
0.4142135623730951
  0
VERTEX
  5
255
  8
0
 10
-96.9166786399788
 20
-193.7250000004825
 30
0.0
  0
VERTEX
  5
256
  8
0
 10
-211.2166786390644
 20
-193.7250000004824
 30
0.0
 42
0.7336281531219943
  0
VERTEX
  5
257
  8
0
 10
-215.8354481255849
 20
-208.4003341897881
 30
0.0
  0
VERTEX
  5
258
  8
0
 10
-170.2068290444216
 20
-240.2795293878276
 30
0.0
 42
-0.3485338084277532
  0
VERTEX
  5
259
  8
0
 10
-167.3378982576621
 20
-249.885443686419
 30
0.0
  0
VERTEX
  5
25A
  8
0
 10
-172.5533356597983
 20
-262.9240371917588
 30
0.0
 42
0.9999999999999998
  0
VERTEX
  5
25B
  8
0
 10
-154.6300216190926
 20
-270.0933628080413
 30
0.0
  0
VERTEX
  5
25C
  8
0
 10
-153.1410837768906
 20
-266.3710182025362
 30
0.0
 42
-0.3609221439183208
  0
VERTEX
  5
25D
  8
0
 10
-144.0891963398081
 20
-261.4547470515021
 30
0.0
  0
VERTEX
  5
25E
  8
0
 10
-136.5808658031722
 20
-262.9392512604598
 30
0.0
 42
0.0981407699245132
  0
VERTEX
  5
25F
  8
0
 10
-133.4452422843921
 20
-262.9378145400017
 30
0.0
  0
VERTEX
  5
260
  8
0
 10
-95.34524228469677
 20
-255.3686145400623
 30
0.0
 42
0.357872377828375
  0
SEQEND
  5
61A
  8
0
  0
POLYLINE
  5
A3
  8
0
 66
     1
 10
0.0
 20
0.0
 30
0.0
 70
     1
  0
VERTEX
  5
261
  8
0
 10
-161.0516786394658
 20
-266.5086999999
 30
0.0
 42
0.4142135623730951
  0
VERTEX
  5
262
  8
0
 10
-163.5916786394455
 20
-263.9686999999204
 30
0.0
 42
0.4142135623730951
  0
VERTEX
  5
263
  8
0
 10
-166.1316786394251
 20
-266.5086999999
 30
0.0
 42
0.4142135623730951
  0
VERTEX
  5
264
  8
0
 10
-163.5916786394455
 20
-269.0486999998797
 30
0.0
 42
0.4142135623730951
  0
SEQEND
  5
61B
  8
0
  0
POLYLINE
  5
A4
  8
0
 66
     1
 10
0.0
 20
0.0
 30
0.0
 70
     1
  0
VERTEX
  5
265
  8
0
 10
-153.9396786395224
 20
-250.6337000000271
 30
0.0
 42
0.4142135623730951
  0
VERTEX
  5
266
  8
0
 10
-157.241678639496
 20
-247.3317000000535
 30
0.0
 42
0.4142135623730951
  0
VERTEX
  5
267
  8
0
 10
-160.5436786394695
 20
-250.6337000000271
 30
0.0
 42
0.4142135623730951
  0
VERTEX
  5
268
  8
0
 10
-157.241678639496
 20
-253.9357000000007
 30
0.0
 42
0.4142135623730951
  0
SEQEND
  5
61C
  8
0
  0
POLYLINE
  5
A5
  8
0
 66
     1
 10
0.0
 20
0.0
 30
0.0
 70
     1
  0
VERTEX
  5
269
  8
0
 10
-93.61467864000512
 20
-247.4587000000525
 30
0.0
 42
0.4142135623730951
  0
VERTEX
  5
26A
  8
0
 10
-96.9166786399788
 20
-244.1567000000789
 30
0.0
 42
0.4142135623730951
  0
VERTEX
  5
26B
  8
0
 10
-100.2186786399523
 20
-247.4587000000525
 30
0.0
 42
0.4142135623730951
  0
VERTEX
  5
26C
  8
0
 10
-96.9166786399788
 20
-250.7607000000261
 30
0.0
 42
0.4142135623730951
  0
SEQEND
  5
61D
  8
0
  0
POLYLINE
  5
A6
  8
0
 66
     1
 10
0.0
 20
0.0
 30
0.0
 70
     1
  0
VERTEX
  5
26D
  8
0
 10
-207.9146786390907
 20
-201.7895000004179
 30
0.0
 42
0.4142135623730951
  0
VERTEX
  5
26E
  8
0
 10
-211.2166786390644
 20
-198.4875000004444
 30
0.0
 42
0.4142135623730951
  0
VERTEX
  5
26F
  8
0
 10
-214.518678639038
 20
-201.7895000004179
 30
0.0
 42
0.4142135623730951
  0
VERTEX
  5
270
  8
0
 10
-211.2166786390644
 20
-205.0915000003915
 30
0.0
 42
0.4142135623730951
  0
SEQEND
  5
61E
  8
0
  0
POLYLINE
  5
A7
  8
0
 66
     1
 10
0.0
 20
0.0
 30
0.0
 70
     1
  0
VERTEX
  5
271
  8
0
 10
-93.61467864000512
 20
-201.7895000004179
 30
0.0
 42
0.4142135623730951
  0
VERTEX
  5
272
  8
0
 10
-96.9166786399788
 20
-198.4875000004444
 30
0.0
 42
0.4142135623730951
  0
VERTEX
  5
273
  8
0
 10
-100.2186786399523
 20
-201.7895000004179
 30
0.0
 42
0.4142135623730951
  0
VERTEX
  5
274
  8
0
 10
-96.9166786399788
 20
-205.0915000003915
 30
0.0
 42
0.4142135623730951
  0
SEQEND
  5
61F
  8
0
  0
POLYLINE
  5
A8
  8
0
 66
     1
 10
0.0
 20
0.0
 30
0.0
 70
     1
  0
VERTEX
  5
275
  8
0
 10
-131.7146786397004
 20
-255.0278999999919
 30
0.0
 42
0.4142135623730951
  0
VERTEX
  5
276
  8
0
 10
-135.0166786396739
 20
-251.7259000000184
 30
0.0
 42
0.4142135623730951
  0
VERTEX
  5
277
  8
0
 10
-138.3186786396476
 20
-255.0278999999919
 30
0.0
 42
0.4142135623730951
  0
VERTEX
  5
278
  8
0
 10
-135.0166786396739
 20
-258.3298999999656
 30
0.0
 42
0.4142135623730951
  0
SEQEND
  5
620
  8
0
  0
POLYLINE
  5
A9
  8
0
 66
     1
 10
0.0
 20
0.0
 30
0.0
 70
     1
  0
VERTEX
  5
279
  8
0
 10
-21.49993811037769
 20
44.58233786384267
 30
0.0
  0
VERTEX
  5
27A
  8
0
 10
-19.10944345419983
 20
32.54964664147074
 30
0.0
 42
-0.6797639942567371
  0
VERTEX
  5
27B
  8
0
 10
-21.59039375736713
 20
30.9493397410651
 30
0.0
  0
VERTEX
  5
27C
  8
0
 10
-38.4040742920948
 20
42.98203096343703
 30
0.0
 42
-0.7292836521262167
  0
VERTEX
  5
27D
  8
0
 10
-37.48019378026797
 20
45.86049999861699
 30
0.0
  0
VERTEX
  5
27E
  8
0
 10
-23.05700790171817
 20
45.86049999861699
 30
0.0
 42
-0.3578723778283741
  0
SEQEND
  5
621
  8
0
  0
POLYLINE
  5
AA
  8
0
 66
     1
 10
0.0
 20
0.0
 30
0.0
 70
     1
  0
VERTEX
  5
27F
  8
0
 10
-18.67233782011931
 20
11.31384845157073
 30
0.0
  0
VERTEX
  5
280
  8
0
 10
-52.9716546857633
 20
-37.77868523017165
 30
0.0
 42
-0.7336281531042973
  0
VERTEX
  5
281
  8
0
 10
-55.86049999857691
 20
-36.869478638277
 30
0.0
  0
VERTEX
  5
282
  8
0
 10
-55.86049999857691
 20
36.76932188433669
 30
0.0
 42
-0.610338889874716
  0
VERTEX
  5
283
  8
0
 10
-53.3491194867628
 20
38.06029091952933
 30
0.0
  0
VERTEX
  5
284
  8
0
 10
-19.04980262111876
 20
13.51402407865814
 30
0.0
 42
-0.4109015993646695
  0
SEQEND
  5
622
  8
0
  0
POLYLINE
  5
AB
  8
0
 66
     1
 10
0.0
 20
0.0
 30
0.0
 70
     1
  0
VERTEX
  5
285
  8
0
 10
-16.54129999889152
 20
60.27499999850163
 30
0.0
  0
VERTEX
  5
286
  8
0
 10
-62.21049999910255
 20
60.27499999850163
 30
0.0
 42
0.4142135623730951
  0
VERTEX
  5
287
  8
0
 10
-70.27499999846155
 20
52.21049999856614
 30
0.0
  0
VERTEX
  5
288
  8
0
 10
-70.2749999984616
 20
-62.08950000051942
 30
0.0
 42
0.7336281531219943
  0
VERTEX
  5
289
  8
0
 10
-55.59966580915592
 20
-66.70826948704001
 30
0.0
  0
VERTEX
  5
28A
  8
0
 10
-23.7204706111165
 20
-21.07965040587662
 30
0.0
 42
-0.3485338084277532
  0
VERTEX
  5
28B
  8
0
 10
-14.11455631252503
 20
-18.21071961911713
 30
0.0
  0
VERTEX
  5
28C
  8
0
 10
-1.075962807185191
 20
-23.4261570212533
 30
0.0
 42
0.9999999999999998
  0
VERTEX
  5
28D
  8
0
 10
6.093362809097274
 20
-5.502842980547658
 30
0.0
  0
VERTEX
  5
28E
  8
0
 10
2.371018203592106
 20
-4.013905138345645
 30
0.0
 42
-0.3609221439183208
  0
VERTEX
  5
28F
  8
0
 10
-2.54525294744195
 20
5.037982298736827
 30
0.0
  0
VERTEX
  5
290
  8
0
 10
-1.060748738484174
 20
12.54631283537278
 30
0.0
 42
0.0981407699245132
  0
VERTEX
  5
291
  8
0
 10
-1.0621854589423
 20
15.68193635415286
 30
0.0
  0
VERTEX
  5
292
  8
0
 10
-8.63138545888175
 20
53.78193635384817
 30
0.0
 42
0.357872377828375
  0
SEQEND
  5
623
  8
0
  0
POLYLINE
  5
AC
  8
0
 66
     1
 10
0.0
 20
0.0
 30
0.0
 70
     1
  0
VERTEX
  5
293
  8
0
 10
2.508700000956019
 20
-11.92450000092086
 30
0.0
 42
0.4142135623730951
  0
VERTEX
  5
294
  8
0
 10
-0.0312999990236687
 20
-14.4645000009005
 30
0.0
 42
0.4142135623730951
  0
VERTEX
  5
295
  8
0
 10
2.508700000956019
 20
-17.00450000088019
 30
0.0
 42
0.4142135623730951
  0
VERTEX
  5
296
  8
0
 10
5.048700000935705
 20
-14.4645000009005
 30
0.0
 42
0.4142135623730951
  0
SEQEND
  5
624
  8
0
  0
POLYLINE
  5
AD
  8
0
 66
     1
 10
0.0
 20
0.0
 30
0.0
 70
     1
  0
VERTEX
  5
297
  8
0
 10
-13.36629999891692
 20
-4.812500000977411
 30
0.0
 42
0.4142135623730951
  0
VERTEX
  5
298
  8
0
 10
-16.6682999988905
 20
-8.11450000095108
 30
0.0
 42
0.4142135623730951
  0
VERTEX
  5
299
  8
0
 10
-13.36629999891692
 20
-11.41650000092457
 30
0.0
 42
0.4142135623730951
  0
VERTEX
  5
29A
  8
0
 10
-10.06429999894334
 20
-8.11450000095108
 30
0.0
 42
0.4142135623730951
  0
SEQEND
  5
625
  8
0
  0
POLYLINE
  5
AE
  8
0
 66
     1
 10
0.0
 20
0.0
 30
0.0
 70
     1
  0
VERTEX
  5
29B
  8
0
 10
-16.54129999889152
 20
55.51249999853981
 30
0.0
 42
0.4142135623730951
  0
VERTEX
  5
29C
  8
0
 10
-19.8432999988651
 20
52.21049999856614
 30
0.0
 42
0.4142135623730951
  0
VERTEX
  5
29D
  8
0
 10
-16.54129999889152
 20
48.90849999859265
 30
0.0
 42
0.4142135623730951
  0
VERTEX
  5
29E
  8
0
 10
-13.23929999891794
 20
52.21049999856614
 30
0.0
 42
0.4142135623730951
  0
SEQEND
  5
626
  8
0
  0
POLYLINE
  5
AF
  8
0
 66
     1
 10
0.0
 20
0.0
 30
0.0
 70
     1
  0
VERTEX
  5
29F
  8
0
 10
-62.2104999985261
 20
-58.78750000054584
 30
0.0
 42
0.4142135623730951
  0
VERTEX
  5
2A0
  8
0
 10
-65.51249999849964
 20
-62.08950000051942
 30
0.0
 42
0.4142135623730951
  0
VERTEX
  5
2A1
  8
0
 10
-62.2104999985261
 20
-65.39150000049304
 30
0.0
 42
0.4142135623730951
  0
VERTEX
  5
2A2
  8
0
 10
-58.90849999855252
 20
-62.08950000051942
 30
0.0
 42
0.4142135623730951
  0
SEQEND
  5
627
  8
0
  0
POLYLINE
  5
B0
  8
0
 66
     1
 10
0.0
 20
0.0
 30
0.0
 70
     1
  0
VERTEX
  5
2A3
  8
0
 10
-62.2104999985261
 20
55.51249999853981
 30
0.0
 42
0.4142135623730951
  0
VERTEX
  5
2A4
  8
0
 10
-65.51249999849964
 20
52.21049999856614
 30
0.0
 42
0.4142135623730951
  0
VERTEX
  5
2A5
  8
0
 10
-62.2104999985261
 20
48.90849999859265
 30
0.0
 42
0.4142135623730951
  0
VERTEX
  5
2A6
  8
0
 10
-58.90849999855252
 20
52.21049999856614
 30
0.0
 42
0.4142135623730951
  0
SEQEND
  5
628
  8
0
  0
POLYLINE
  5
B1
  8
0
 66
     1
 10
0.0
 20
0.0
 30
0.0
 70
     1
  0
VERTEX
  5
2A7
  8
0
 10
-8.972099998952118
 20
17.41249999884455
 30
0.0
 42
0.4142135623730951
  0
VERTEX
  5
2A8
  8
0
 10
-12.27409999892565
 20
14.11049999887101
 30
0.0
 42
0.4142135623730951
  0
VERTEX
  5
2A9
  8
0
 10
-8.972099998952118
 20
10.80849999889734
 30
0.0
 42
0.4142135623730951
  0
VERTEX
  5
2AA
  8
0
 10
-5.670099998978491
 20
14.11049999887101
 30
0.0
 42
0.4142135623730951
  0
SEQEND
  5
629
  8
0
  0
POLYLINE
  5
B2
  8
0
 66
     1
 10
0.0
 20
0.0
 30
0.0
 70
     1
  0
VERTEX
  5
2AB
  8
0
 10
-68.08233786374868
 20
-201.849658259795
 30
0.0
  0
VERTEX
  5
2AC
  8
0
 10
-56.0496466413767
 20
-199.4591636036171
 30
0.0
 42
-0.6797639942567371
  0
VERTEX
  5
2AD
  8
0
 10
-54.44933974097105
 20
-201.9401139067844
 30
0.0
  0
VERTEX
  5
2AE
  8
0
 10
-66.48203096334302
 20
-218.753794441512
 30
0.0
 42
-0.7292836521262167
  0
VERTEX
  5
2AF
  8
0
 10
-69.36049999852294
 20
-217.8299139296852
 30
0.0
  0
VERTEX
  5
2B0
  8
0
 10
-69.36049999852294
 20
-203.4067280511355
 30
0.0
 42
-0.3578723778283741
  0
SEQEND
  5
62A
  8
0
  0
POLYLINE
  5
B3
  8
0
 66
     1
 10
0.0
 20
0.0
 30
0.0
 70
     1
  0
VERTEX
  5
2B1
  8
0
 10
-34.81384845147672
 20
-199.0220579695366
 30
0.0
  0
VERTEX
  5
2B2
  8
0
 10
14.27868523026565
 20
-233.3213748351806
 30
0.0
 42
-0.7336281531042973
  0
VERTEX
  5
2B3
  8
0
 10
13.36947863837105
 20
-236.2102201479942
 30
0.0
  0
VERTEX
  5
2B4
  8
0
 10
-60.26932188424264
 20
-236.2102201479942
 30
0.0
 42
-0.610338889874716
  0
VERTEX
  5
2B5
  8
0
 10
-61.56029091943528
 20
-233.6988396361801
 30
0.0
  0
VERTEX
  5
2B6
  8
0
 10
-37.01402407856414
 20
-199.399522770536
 30
0.0
 42
-0.4109015993646695
  0
SEQEND
  5
62B
  8
0
  0
POLYLINE
  5
B4
  8
0
 66
     1
 10
0.0
 20
0.0
 30
0.0
 70
     1
  0
VERTEX
  5
2B7
  8
0
 10
-83.77499999840758
 20
-196.8910201483088
 30
0.0
  0
VERTEX
  5
2B8
  8
0
 10
-83.77499999840758
 20
-242.5602201485198
 30
0.0
 42
0.4142135623730951
  0
VERTEX
  5
2B9
  8
0
 10
-75.71049999847213
 20
-250.6247201478789
 30
0.0
  0
VERTEX
  5
2BA
  8
0
 10
38.58950000061347
 20
-250.6247201478789
 30
0.0
 42
0.7336281531219943
  0
VERTEX
  5
2BB
  8
0
 10
43.20826948713403
 20
-235.9493859585732
 30
0.0
  0
VERTEX
  5
2BC
  8
0
 10
-2.420349594029326
 20
-204.0701907605337
 30
0.0
 42
-0.3485338084277532
  0
VERTEX
  5
2BD
  8
0
 10
-5.289280380788822
 20
-194.4642764619423
 30
0.0
  0
VERTEX
  5
2BE
  8
0
 10
-0.0738429786526499
 20
-181.4256829566025
 30
0.0
 42
0.9999999999999998
  0
VERTEX
  5
2BF
  8
0
 10
-17.99715701935834
 20
-174.25635734032
 30
0.0
  0
VERTEX
  5
2C0
  8
0
 10
-19.48609486156035
 20
-177.9787019458252
 30
0.0
 42
-0.3609221439183208
  0
VERTEX
  5
2C1
  8
0
 10
-28.53798229864282
 20
-182.8949730968592
 30
0.0
  0
VERTEX
  5
2C2
  8
0
 10
-36.04631283527873
 20
-181.4104688879015
 30
0.0
 42
0.0981407699245132
  0
VERTEX
  5
2C3
  8
0
 10
-39.18193635405886
 20
-181.4119056083596
 30
0.0
  0
VERTEX
  5
2C4
  8
0
 10
-77.28193635375412
 20
-188.981105608299
 30
0.0
 42
0.357872377828375
  0
SEQEND
  5
62C
  8
0
  0
POLYLINE
  5
B5
  8
0
 66
     1
 10
0.0
 20
0.0
 30
0.0
 70
     1
  0
VERTEX
  5
2C5
  8
0
 10
-11.57549999898514
 20
-177.8410201484613
 30
0.0
 42
0.4142135623730951
  0
VERTEX
  5
2C6
  8
0
 10
-9.035499999005449
 20
-180.3810201484409
 30
0.0
 42
0.4142135623730951
  0
VERTEX
  5
2C7
  8
0
 10
-6.495499999025807
 20
-177.8410201484613
 30
0.0
 42
0.4142135623730951
  0
VERTEX
  5
2C8
  8
0
 10
-9.035499999005449
 20
-175.3010201484816
 30
0.0
 42
0.4142135623730951
  0
SEQEND
  5
62D
  8
0
  0
POLYLINE
  5
B6
  8
0
 66
     1
 10
0.0
 20
0.0
 30
0.0
 70
     1
  0
VERTEX
  5
2C9
  8
0
 10
-18.68749999892854
 20
-193.7160201483342
 30
0.0
 42
0.4142135623730951
  0
VERTEX
  5
2CA
  8
0
 10
-15.38549999895491
 20
-197.0180201483078
 30
0.0
 42
0.4142135623730951
  0
VERTEX
  5
2CB
  8
0
 10
-12.08349999898138
 20
-193.7160201483342
 30
0.0
 42
0.4142135623730951
  0
VERTEX
  5
2CC
  8
0
 10
-15.38549999895491
 20
-190.4140201483606
 30
0.0
 42
0.4142135623730951
  0
SEQEND
  5
62E
  8
0
  0
POLYLINE
  5
B7
  8
0
 66
     1
 10
0.0
 20
0.0
 30
0.0
 70
     1
  0
VERTEX
  5
2CD
  8
0
 10
-79.01249999844576
 20
-196.8910201483088
 30
0.0
 42
0.4142135623730951
  0
VERTEX
  5
2CE
  8
0
 10
-75.71049999847213
 20
-200.1930201482824
 30
0.0
 42
0.4142135623730951
  0
VERTEX
  5
2CF
  8
0
 10
-72.4084999984986
 20
-196.8910201483088
 30
0.0
 42
0.4142135623730951
  0
VERTEX
  5
2D0
  8
0
 10
-75.71049999847213
 20
-193.5890201483352
 30
0.0
 42
0.4142135623730951
  0
SEQEND
  5
62F
  8
0
  0
POLYLINE
  5
B8
  8
0
 66
     1
 10
0.0
 20
0.0
 30
0.0
 70
     1
  0
VERTEX
  5
2D1
  8
0
 10
35.28750000063985
 20
-242.5602201479434
 30
0.0
 42
0.4142135623730951
  0
VERTEX
  5
2D2
  8
0
 10
38.58950000061347
 20
-245.8622201479169
 30
0.0
 42
0.4142135623730951
  0
VERTEX
  5
2D3
  8
0
 10
41.89150000058705
 20
-242.5602201479434
 30
0.0
 42
0.4142135623730951
  0
VERTEX
  5
2D4
  8
0
 10
38.58950000061347
 20
-239.2582201479698
 30
0.0
 42
0.4142135623730951
  0
SEQEND
  5
630
  8
0
  0
POLYLINE
  5
B9
  8
0
 66
     1
 10
0.0
 20
0.0
 30
0.0
 70
     1
  0
VERTEX
  5
2D5
  8
0
 10
-79.01249999844576
 20
-242.5602201479434
 30
0.0
 42
0.4142135623730951
  0
VERTEX
  5
2D6
  8
0
 10
-75.71049999847213
 20
-245.8622201479169
 30
0.0
 42
0.4142135623730951
  0
VERTEX
  5
2D7
  8
0
 10
-72.4084999984986
 20
-242.5602201479434
 30
0.0
 42
0.4142135623730951
  0
VERTEX
  5
2D8
  8
0
 10
-75.71049999847213
 20
-239.2582201479698
 30
0.0
 42
0.4142135623730951
  0
SEQEND
  5
631
  8
0
  0
POLYLINE
  5
BA
  8
0
 66
     1
 10
0.0
 20
0.0
 30
0.0
 70
     1
  0
VERTEX
  5
2D9
  8
0
 10
-40.9124999987505
 20
-189.3218201483694
 30
0.0
 42
0.4142135623730951
  0
VERTEX
  5
2DA
  8
0
 10
-37.61049999877696
 20
-192.6238201483429
 30
0.0
 42
0.4142135623730951
  0
VERTEX
  5
2DB
  8
0
 10
-34.30849999880333
 20
-189.3218201483694
 30
0.0
 42
0.4142135623730951
  0
VERTEX
  5
2DC
  8
0
 10
-37.61049999877696
 20
-186.0198201483958
 30
0.0
 42
0.4142135623730951
  0
SEQEND
  5
632
  8
0
  0
POLYLINE
  5
BB
  8
0
 66
     1
 10
0.0
 20
0.0
 30
0.0
 70
     1
  0
VERTEX
  5
2DD
  8
0
 10
44.45515922470166
 20
246.4999381094777
 30
0.0
  0
VERTEX
  5
2DE
  8
0
 10
32.42246800232978
 20
244.1094434532999
 30
0.0
 42
-0.6797639942567371
  0
VERTEX
  5
2DF
  8
0
 10
30.82216110192413
 20
246.5903937564672
 30
0.0
  0
VERTEX
  5
2E0
  8
0
 10
42.85485232429602
 20
263.4040742911948
 30
0.0
 42
-0.7292836521262167
  0
VERTEX
  5
2E1
  8
0
 10
45.73332135947602
 20
262.4801937793679
 30
0.0
  0
VERTEX
  5
2E2
  8
0
 10
45.73332135947602
 20
248.0570079008182
 30
0.0
 42
-0.3578723778283741
  0
SEQEND
  5
633
  8
0
  0
POLYLINE
  5
BC
  8
0
 66
     1
 10
0.0
 20
0.0
 30
0.0
 70
     1
  0
VERTEX
  5
2E3
  8
0
 10
11.18666981242976
 20
243.6723378192193
 30
0.0
  0
VERTEX
  5
2E4
  8
0
 10
-37.90586386931261
 20
277.9716546848633
 30
0.0
 42
-0.7336281531042973
  0
VERTEX
  5
2E5
  8
0
 10
-36.99665727741797
 20
280.8604999976769
 30
0.0
  0
VERTEX
  5
2E6
  8
0
 10
36.64214324519568
 20
280.8604999976769
 30
0.0
 42
-0.610338889874716
  0
VERTEX
  5
2E7
  8
0
 10
37.93311228038831
 20
278.3491194858628
 30
0.0
  0
VERTEX
  5
2E8
  8
0
 10
13.38684543951713
 20
244.0498026202187
 30
0.0
 42
-0.4109015993646695
  0
SEQEND
  5
634
  8
0
  0
POLYLINE
  5
BD
  8
0
 66
     1
 10
0.0
 20
0.0
 30
0.0
 70
     1
  0
VERTEX
  5
2E9
  8
0
 10
60.14782135936062
 20
241.5412999979916
 30
0.0
  0
VERTEX
  5
2EA
  8
0
 10
60.14782135936062
 20
287.2104999982026
 30
0.0
 42
0.4142135623730951
  0
VERTEX
  5
2EB
  8
0
 10
52.08332135942513
 20
295.2749999975616
 30
0.0
  0
VERTEX
  5
2EC
  8
0
 10
-62.21667863966044
 20
295.2749999975616
 30
0.0
 42
0.7336281531219943
  0
VERTEX
  5
2ED
  8
0
 10
-66.83544812618099
 20
280.5996658082559
 30
0.0
  0
VERTEX
  5
2EE
  8
0
 10
-21.20682904501759
 20
248.7204706102164
 30
0.0
 42
-0.3485338084277532
  0
VERTEX
  5
2EF
  8
0
 10
-18.33789825825814
 20
239.1145563116251
 30
0.0
  0
VERTEX
  5
2F0
  8
0
 10
-23.55333566039427
 20
226.0759628062852
 30
0.0
 42
0.9999999999999998
  0
VERTEX
  5
2F1
  8
0
 10
-5.630021619688671
 20
218.9066371900027
 30
0.0
  0
VERTEX
  5
2F2
  8
0
 10
-4.141083777486658
 20
222.6289817955079
 30
0.0
 42
-0.3609221439183208
  0
VERTEX
  5
2F3
  8
0
 10
4.910803659595858
 20
227.545252946542
 30
0.0
  0
VERTEX
  5
2F4
  8
0
 10
12.41913419623177
 20
226.0607487375842
 30
0.0
 42
0.0981407699245132
  0
VERTEX
  5
2F5
  8
0
 10
15.55475771501185
 20
226.0621854580423
 30
0.0
  0
VERTEX
  5
2F6
  8
0
 10
53.65475771470715
 20
233.6313854579818
 30
0.0
 42
0.357872377828375
  0
SEQEND
  5
635
  8
0
  0
POLYLINE
  5
BE
  8
0
 66
     1
 10
0.0
 20
0.0
 30
0.0
 70
     1
  0
VERTEX
  5
2F7
  8
0
 10
-12.05167864006183
 20
222.491299998144
 30
0.0
 42
0.4142135623730951
  0
VERTEX
  5
2F8
  8
0
 10
-14.59167864004151
 20
225.0312999981236
 30
0.0
 42
0.4142135623730951
  0
VERTEX
  5
2F9
  8
0
 10
-17.1316786400212
 20
222.491299998144
 30
0.0
 42
0.4142135623730951
  0
VERTEX
  5
2FA
  8
0
 10
-14.59167864004151
 20
219.9512999981643
 30
0.0
 42
0.4142135623730951
  0
SEQEND
  5
636
  8
0
  0
POLYLINE
  5
BF
  8
0
 66
     1
 10
0.0
 20
0.0
 30
0.0
 70
     1
  0
VERTEX
  5
2FB
  8
0
 10
-4.939678640118379
 20
238.3662999980169
 30
0.0
 42
0.4142135623730951
  0
VERTEX
  5
2FC
  8
0
 10
-8.241678640092093
 20
241.6682999979905
 30
0.0
 42
0.4142135623730951
  0
VERTEX
  5
2FD
  8
0
 10
-11.54367864006558
 20
238.3662999980169
 30
0.0
 42
0.4142135623730951
  0
VERTEX
  5
2FE
  8
0
 10
-8.241678640092093
 20
235.0642999980434
 30
0.0
 42
0.4142135623730951
  0
SEQEND
  5
637
  8
0
  0
POLYLINE
  5
C0
  8
0
 66
     1
 10
0.0
 20
0.0
 30
0.0
 70
     1
  0
VERTEX
  5
2FF
  8
0
 10
55.38532135939884
 20
241.5412999979916
 30
0.0
 42
0.4142135623730951
  0
VERTEX
  5
300
  8
0
 10
52.08332135942513
 20
244.8432999979651
 30
0.0
 42
0.4142135623730951
  0
VERTEX
  5
301
  8
0
 10
48.78132135945164
 20
241.5412999979916
 30
0.0
 42
0.4142135623730951
  0
VERTEX
  5
302
  8
0
 10
52.08332135942513
 20
238.2392999980179
 30
0.0
 42
0.4142135623730951
  0
SEQEND
  5
638
  8
0
  0
POLYLINE
  5
C1
  8
0
 66
     1
 10
0.0
 20
0.0
 30
0.0
 70
     1
  0
VERTEX
  5
303
  8
0
 10
-58.91467863968681
 20
287.2104999976261
 30
0.0
 42
0.4142135623730951
  0
VERTEX
  5
304
  8
0
 10
-62.21667863966044
 20
290.5124999975997
 30
0.0
 42
0.4142135623730951
  0
VERTEX
  5
305
  8
0
 10
-65.51867863963402
 20
287.2104999976261
 30
0.0
 42
0.4142135623730951
  0
VERTEX
  5
306
  8
0
 10
-62.21667863966044
 20
283.9084999976525
 30
0.0
 42
0.4142135623730951
  0
SEQEND
  5
639
  8
0
  0
POLYLINE
  5
C2
  8
0
 66
     1
 10
0.0
 20
0.0
 30
0.0
 70
     1
  0
VERTEX
  5
307
  8
0
 10
55.38532135939884
 20
287.2104999976261
 30
0.0
 42
0.4142135623730951
  0
VERTEX
  5
308
  8
0
 10
52.08332135942513
 20
290.5124999975997
 30
0.0
 42
0.4142135623730951
  0
VERTEX
  5
309
  8
0
 10
48.78132135945164
 20
287.2104999976261
 30
0.0
 42
0.4142135623730951
  0
VERTEX
  5
30A
  8
0
 10
52.08332135942513
 20
283.9084999976525
 30
0.0
 42
0.4142135623730951
  0
SEQEND
  5
63A
  8
0
  0
POLYLINE
  5
C3
  8
0
 66
     1
 10
0.0
 20
0.0
 30
0.0
 70
     1
  0
VERTEX
  5
30B
  8
0
 10
17.28532135970353
 20
233.9720999980522
 30
0.0
 42
0.4142135623730951
  0
VERTEX
  5
30C
  8
0
 10
13.98332135973004
 20
237.2740999980257
 30
0.0
 42
0.4142135623730951
  0
VERTEX
  5
30D
  8
0
 10
10.68132135975633
 20
233.9720999980522
 30
0.0
 42
0.4142135623730951
  0
VERTEX
  5
30E
  8
0
 10
13.98332135973004
 20
230.6700999980785
 30
0.0
 42
0.4142135623730951
  0
SEQEND
  5
63B
  8
0
  0
POLYLINE
  5
C4
  8
0
 66
     1
 10
0.0
 20
0.0
 30
0.0
 70
     1
  0
VERTEX
  5
30F
  8
0
 10
-8.052698303754896
 20
-48.19185703334431
 30
0.0
  0
VERTEX
  5
310
  8
0
 10
2.146034237281738
 20
-55.00991961083378
 30
0.0
 42
-0.6797639942567371
  0
VERTEX
  5
311
  8
0
 10
1.523325315381782
 20
-57.89580425524665
 30
0.0
  0
VERTEX
  5
312
  8
0
 10
-18.87413976669148
 20
-61.27647421879378
 30
0.0
 42
-0.7292836521262167
  0
VERTEX
  5
313
  8
0
 10
-20.25624256598383
 20
-58.58780706966373
 30
0.0
  0
VERTEX
  5
314
  8
0
 10
-10.05751002494724
 20
-48.38907452862713
 30
0.0
 42
-0.3578723778283741
  0
SEQEND
  5
63C
  8
0
  0
POLYLINE
  5
C5
  8
0
 66
     1
 10
0.0
 20
0.0
 30
0.0
 70
     1
  0
VERTEX
  5
315
  8
0
 10
17.4710914992222
 20
-69.71681615686788
 30
0.0
  0
VERTEX
  5
316
  8
0
 10
27.93147542544824
 20
-128.6837591746199
 30
0.0
 42
-0.7336281531042973
  0
VERTEX
  5
317
  8
0
 10
25.24584716833055
 20
-130.0835751384812
 30
0.0
  0
VERTEX
  5
318
  8
0
 10
-26.82464803965303
 20
-78.01307993049757
 30
0.0
 42
-0.610338889874716
  0
VERTEX
  5
319
  8
0
 10
-25.96168680869611
 20
-75.32441278136751
 30
0.0
  0
VERTEX
  5
31A
  8
0
 10
15.64842447306143
 20
-68.42796497159897
 30
0.0
 42
-0.4109015993646695
  0
SEQEND
  5
63D
  8
0
  0
POLYLINE
  5
C6
  8
0
 66
     1
 10
0.0
 20
0.0
 30
0.0
 70
     1
  0
VERTEX
  5
31B
  8
0
 10
-15.64279947995962
 20
-33.58918258897565
 30
0.0
  0
VERTEX
  5
31C
  8
0
 10
-47.93580049147356
 20
-65.8821836004896
 30
0.0
 42
0.4142135623730951
  0
VERTEX
  5
31D
  8
0
 10
-47.93580049106596
 20
-77.28710887374855
 30
0.0
  0
VERTEX
  5
31E
  8
0
 10
32.88650459790983
 20
-158.1094139627243
 30
0.0
 42
0.7336281531219943
  0
VERTEX
  5
31F
  8
0
 10
46.52949614400283
 20
-150.9983488659437
 30
0.0
  0
VERTEX
  5
320
  8
0
 10
36.80718527883766
 20
-96.19204779417187
 30
0.0
 42
-0.3485338084277532
  0
VERTEX
  5
321
  8
0
 10
41.57095200479602
 20
-87.3710002400686
 30
0.0
  0
VERTEX
  5
322
  8
0
 10
54.4785010434611
 20
-81.83919350921234
 30
0.0
 42
0.9999999999999998
  0
VERTEX
  5
323
  8
0
 10
46.87428290374988
 20
-64.09601784988556
 30
0.0
  0
VERTEX
  5
324
  8
0
 10
43.18934974629769
 20
-65.6752749173651
 30
0.0
 42
-0.3609221439183208
  0
VERTEX
  5
325
  8
0
 10
33.31237008795138
 20
-62.75095259711475
 30
0.0
  0
VERTEX
  5
326
  8
0
 10
29.05288164296007
 20
-56.39205816641542
 30
0.0
 42
0.0981407699245132
  0
VERTEX
  5
327
  8
0
 10
26.83464507480404
 20
-54.17585342781661
 30
0.0
  0
VERTEX
  5
328
  8
0
 10
-5.458355936302386
 20
-32.58731771293903
 30
0.0
 42
0.357872377828375
  0
SEQEND
  5
63E
  8
0
  0
POLYLINE
  5
C7
  8
0
 66
     1
 10
0.0
 20
0.0
 30
0.0
 70
     1
  0
VERTEX
  5
329
  8
0
 10
48.88034074940601
 20
-71.17155445534951
 30
0.0
 42
0.4142135623730951
  0
VERTEX
  5
32A
  8
0
 10
48.88034074940606
 20
-74.76365690374843
 30
0.0
 42
0.4142135623730951
  0
VERTEX
  5
32B
  8
0
 10
52.47244319780493
 20
-74.76365690374843
 30
0.0
 42
0.4142135623730951
  0
VERTEX
  5
32C
  8
0
 10
52.47244319780493
 20
-71.17155445534951
 30
0.0
 42
0.4142135623730951
  0
SEQEND
  5
63F
  8
0
  0
POLYLINE
  5
C8
  8
0
 66
     1
 10
0.0
 20
0.0
 30
0.0
 70
     1
  0
VERTEX
  5
32D
  8
0
 10
32.6260771704007
 20
-77.36793117883741
 30
0.0
 42
0.4142135623730951
  0
VERTEX
  5
32E
  8
0
 10
32.62607717040079
 20
-82.03766436175607
 30
0.0
 42
0.4142135623730951
  0
VERTEX
  5
32F
  8
0
 10
37.29581035331931
 20
-82.03766436175603
 30
0.0
 42
0.4142135623730951
  0
VERTEX
  5
330
  8
0
 10
37.29581035331935
 20
-77.36793117883745
 30
0.0
 42
0.4142135623730951
  0
SEQEND
  5
640
  8
0
  0
POLYLINE
  5
C9
  8
0
 66
     1
 10
0.0
 20
0.0
 30
0.0
 70
     1
  0
VERTEX
  5
331
  8
0
 10
-12.27520343458574
 20
-36.95677863434963
 30
0.0
 42
0.4142135623730951
  0
VERTEX
  5
332
  8
0
 10
-12.27520343458569
 20
-41.62651181726829
 30
0.0
 42
0.4142135623730951
  0
VERTEX
  5
333
  8
0
 10
-7.605470251667127
 20
-41.62651181726824
 30
0.0
 42
0.4142135623730951
  0
VERTEX
  5
334
  8
0
 10
-7.605470251667037
 20
-36.95677863434963
 30
0.0
 42
0.4142135623730951
  0
SEQEND
  5
641
  8
0
  0
POLYLINE
  5
CA
  8
0
 66
     1
 10
0.0
 20
0.0
 30
0.0
 70
     1
  0
VERTEX
  5
335
  8
0
 10
36.25410064328381
 20
-150.0720847344317
 30
0.0
 42
0.4142135623730951
  0
VERTEX
  5
336
  8
0
 10
36.25410064328386
 20
-154.7418179173503
 30
0.0
 42
0.4142135623730951
  0
VERTEX
  5
337
  8
0
 10
40.92383382620242
 20
-154.7418179173504
 30
0.0
 42
0.4142135623730951
  0
VERTEX
  5
338
  8
0
 10
40.92383382620242
 20
-150.0720847344318
 30
0.0
 42
0.4142135623730951
  0
SEQEND
  5
642
  8
0
  0
POLYLINE
  5
CB
  8
0
 66
     1
 10
0.0
 20
0.0
 30
0.0
 70
     1
  0
VERTEX
  5
339
  8
0
 10
-44.56820444569203
 20
-69.24977964545592
 30
0.0
 42
0.4142135623730951
  0
VERTEX
  5
33A
  8
0
 10
-44.56820444569193
 20
-73.91951282837452
 30
0.0
 42
0.4142135623730951
  0
VERTEX
  5
33B
  8
0
 10
-39.89847126277341
 20
-73.91951282837452
 30
0.0
 42
0.4142135623730951
  0
VERTEX
  5
33C
  8
0
 10
-39.89847126277337
 20
-69.24977964545596
 30
0.0
 42
0.4142135623730951
  0
SEQEND
  5
643
  8
0
  0
POLYLINE
  5
CC
  8
0
 66
     1
 10
0.0
 20
0.0
 30
0.0
 70
     1
  0
VERTEX
  5
33D
  8
0
 10
20.0177975765206
 20
-58.54531434922722
 30
0.0
 42
0.4142135623730951
  0
VERTEX
  5
33E
  8
0
 10
20.0177975765206
 20
-63.21504753214574
 30
0.0
 42
0.4142135623730951
  0
VERTEX
  5
33F
  8
0
 10
24.68753075943921
 20
-63.21504753214582
 30
0.0
 42
0.4142135623730951
  0
VERTEX
  5
340
  8
0
 10
24.68753075943921
 20
-58.54531434922713
 30
0.0
 42
0.4142135623730951
  0
SEQEND
  5
644
  8
0
  0
POLYLINE
  5
CD
  8
0
 66
     1
 10
0.0
 20
0.0
 30
0.0
 70
     1
  0
VERTEX
  5
341
  8
0
 10
-2.412803542149744
 20
133.2806016683345
 30
0.0
  0
VERTEX
  5
342
  8
0
 10
27.12047083773409
 20
112.1451476750971
 30
0.0
 42
-0.7292836521262172
  0
VERTEX
  5
343
  8
0
 10
26.19659032590722
 20
109.266678639917
 30
0.0
  0
VERTEX
  5
344
  8
0
 10
0.8622261393466235
 20
109.2666786399171
 30
0.0
 42
-0.3578723778283734
  0
VERTEX
  5
345
  8
0
 10
-0.6948436519939012
 20
110.5448407746913
 30
0.0
  0
VERTEX
  5
346
  8
0
 10
-4.893753845317139
 20
131.6802947679289
 30
0.0
 42
-0.6797639942567385
  0
SEQEND
  5
645
  8
0
  0
POLYLINE
  5
CE
  8
0
 66
     1
 10
0.0
 20
0.0
 30
0.0
 70
     1
  0
VERTEX
  5
347
  8
0
 10
33.66571823620535
 20
191.996657276811
 30
0.0
  0
VERTEX
  5
348
  8
0
 10
33.66571823620531
 20
159.3444345999716
 30
0.0
 42
-0.3268748175894694
  0
VERTEX
  5
349
  8
0
 10
32.55809680764282
 20
157.8312020313797
 30
0.0
 42
0.2140895195443154
  0
VERTEX
  5
34A
  8
0
 10
19.95334972879101
 20
146.5759123794404
 30
0.0
 42
-0.3108678928628357
  0
VERTEX
  5
34B
  8
0
 10
18.41680252008112
 20
145.6382431583335
 30
0.0
  0
VERTEX
  5
34C
  8
0
 10
1.363998543326311
 20
146.5749816580332
 30
0.0
 42
-0.5878497639258756
  0
VERTEX
  5
34D
  8
0
 10
0.149725938642597
 20
149.0692985279389
 30
0.0
  0
VERTEX
  5
34E
  8
0
 10
30.77687292339171
 20
192.9058638687057
 30
0.0
 42
-0.7336281531042995
  0
SEQEND
  5
646
  8
0
  0
POLYLINE
  5
CF
  8
0
 66
     1
 10
0.0
 20
0.0
 30
0.0
 70
     1
  0
VERTEX
  5
34F
  8
0
 10
40.01571823615451
 20
94.85217864003238
 30
0.0
 42
0.4142135623730951
  0
VERTEX
  5
350
  8
0
 10
48.08021823608996
 20
102.9166786399678
 30
0.0
  0
VERTEX
  5
351
  8
0
 10
48.08021823608996
 20
115.293379708714
 30
0.0
 42
-0.2346056059667043
  0
VERTEX
  5
352
  8
0
 10
51.2703346077459
 20
121.7180621517084
 30
0.0
 42
0.4965407084259092
  0
VERTEX
  5
353
  8
0
 10
51.2703346077459
 20
154.6002951276634
 30
0.0
 42
-0.2346056059667039
  0
VERTEX
  5
354
  8
0
 10
48.08021823608996
 20
161.0249775706578
 30
0.0
  0
VERTEX
  5
355
  8
0
 10
48.08021823609
 20
217.2166786390534
 30
0.0
 42
0.7336281531042994
  0
VERTEX
  5
356
  8
0
 10
33.40488404699693
 20
221.8354481258783
 30
0.0
  0
VERTEX
  5
357
  8
0
 10
-0.1119102632160452
 20
173.8629371856879
 30
0.0
 42
-0.3354237857151521
  0
VERTEX
  5
358
  8
0
 10
-9.363113107901489
 20
170.861692655999
 30
0.0
 42
0.4984263088705504
  0
VERTEX
  5
359
  8
0
 10
-20.05587480706373
 20
163.6834099150217
 30
0.0
  0
VERTEX
  5
35A
  8
0
 10
-21.27507480705403
 20
141.4584099151996
 30
0.0
 42
0.0628112559203559
  0
VERTEX
  5
35B
  8
0
 10
-21.1325963034293
 20
139.4452422843811
 30
0.0
  0
VERTEX
  5
35C
  8
0
 10
-13.56339630348989
 20
101.3452422846859
 30
0.0
 42
0.3578723778283739
  0
VERTEX
  5
35D
  8
0
 10
-5.653481763480118
 20
94.85217864003238
 30
0.0
  0
SEQEND
  5
647
  8
0
  0
POLYLINE
  5
D0
  8
0
 66
     1
 10
0.0
 20
0.0
 30
0.0
 70
     1
  0
VERTEX
  5
35E
  8
0
 10
38.79651823616425
 20
127.0466786397747
 30
0.0
 42
0.4142135623730951
  0
VERTEX
  5
35F
  8
0
 10
49.90901823607536
 20
138.1591786396859
 30
0.0
 42
0.4142135623730951
  0
VERTEX
  5
360
  8
0
 10
38.79651823616425
 20
149.2716786395971
 30
0.0
 42
0.4142135623730951
  0
VERTEX
  5
361
  8
0
 10
27.68401823625322
 20
138.1591786396859
 30
0.0
 42
0.4142135623730951
  0
SEQEND
  5
648
  8
0
  0
POLYLINE
  5
D1
  8
0
 66
     1
 10
0.0
 20
0.0
 30
0.0
 70
     1
  0
VERTEX
  5
362
  8
0
 10
-12.00348176342931
 20
160.7016786395055
 30
0.0
 42
0.4142135623730951
  0
VERTEX
  5
363
  8
0
 10
-9.463481763449671
 20
163.2416786394852
 30
0.0
 42
0.4142135623730951
  0
VERTEX
  5
364
  8
0
 10
-12.00348176342931
 20
165.7816786394649
 30
0.0
 42
0.4142135623730951
  0
VERTEX
  5
365
  8
0
 10
-14.54348176340895
 20
163.2416786394852
 30
0.0
 42
0.4142135623730951
  0
SEQEND
  5
649
  8
0
  0
POLYLINE
  5
D2
  8
0
 66
     1
 10
0.0
 20
0.0
 30
0.0
 70
     1
  0
VERTEX
  5
366
  8
0
 10
-5.653481763480118
 20
100.3766786399881
 30
0.0
 42
0.4142135623730951
  0
VERTEX
  5
367
  8
0
 10
-3.113481763500385
 20
102.9166786399679
 30
0.0
 42
0.4142135623730951
  0
VERTEX
  5
368
  8
0
 10
-5.653481763480118
 20
105.4566786399475
 30
0.0
 42
0.4142135623730951
  0
VERTEX
  5
369
  8
0
 10
-8.19348176345985
 20
102.9166786399679
 30
0.0
 42
0.4142135623730951
  0
SEQEND
  5
64A
  8
0
  0
POLYLINE
  5
D3
  8
0
 66
     1
 10
0.0
 20
0.0
 30
0.0
 70
     1
  0
VERTEX
  5
36A
  8
0
 10
40.01571823615455
 20
214.6766786390737
 30
0.0
 42
0.4142135623730951
  0
VERTEX
  5
36B
  8
0
 10
42.55571823613419
 20
217.2166786390534
 30
0.0
 42
0.4142135623730951
  0
VERTEX
  5
36C
  8
0
 10
40.01571823615455
 20
219.7566786390331
 30
0.0
 42
0.4142135623730951
  0
VERTEX
  5
36D
  8
0
 10
37.47571823617481
 20
217.2166786390534
 30
0.0
 42
0.4142135623730951
  0
SEQEND
  5
64B
  8
0
  0
POLYLINE
  5
D4
  8
0
 66
     1
 10
0.0
 20
0.0
 30
0.0
 70
     1
  0
VERTEX
  5
36E
  8
0
 10
40.01571823615451
 20
100.3766786399881
 30
0.0
 42
0.4142135623730951
  0
VERTEX
  5
36F
  8
0
 10
42.55571823613419
 20
102.9166786399678
 30
0.0
 42
0.4142135623730951
  0
VERTEX
  5
370
  8
0
 10
40.01571823615451
 20
105.4566786399475
 30
0.0
 42
0.4142135623730951
  0
VERTEX
  5
371
  8
0
 10
37.47571823617481
 20
102.9166786399678
 30
0.0
 42
0.4142135623730951
  0
SEQEND
  5
64C
  8
0
  0
POLYLINE
  5
D5
  8
0
 66
     1
 10
0.0
 20
0.0
 30
0.0
 70
     1
  0
VERTEX
  5
372
  8
0
 10
-13.22268176341952
 20
137.7146786396894
 30
0.0
 42
0.4142135623730951
  0
VERTEX
  5
373
  8
0
 10
-9.920681763445943
 20
141.016678639663
 30
0.0
 42
0.4142135623730951
  0
VERTEX
  5
374
  8
0
 10
-13.22268176341952
 20
144.3186786396367
 30
0.0
 42
0.4142135623730951
  0
VERTEX
  5
375
  8
0
 10
-16.5246817633931
 20
141.016678639663
 30
0.0
 42
0.4142135623730951
  0
SEQEND
  5
64D
  8
0
  0
POLYLINE
  5
D6
  8
0
 66
     1
 10
0.0
 20
0.0
 30
0.0
 70
     1
  0
VERTEX
  5
376
  8
0
 10
28.58719645772625
 20
21.78060166878062
 30
0.0
  0
VERTEX
  5
377
  8
0
 10
58.12047083761009
 20
0.6451476755431655
 30
0.0
 42
-0.7292836521262172
  0
VERTEX
  5
378
  8
0
 10
57.19659032578323
 20
-2.233321359636883
 30
0.0
  0
VERTEX
  5
379
  8
0
 10
31.86222613922262
 20
-2.233321359636837
 30
0.0
 42
-0.3578723778283734
  0
VERTEX
  5
37A
  8
0
 10
30.3051563478821
 20
-0.9551592248625258
 30
0.0
  0
VERTEX
  5
37B
  8
0
 10
26.10624615455886
 20
20.18029476837493
 30
0.0
 42
-0.6797639942567385
  0
SEQEND
  5
64E
  8
0
  0
POLYLINE
  5
D7
  8
0
 66
     1
 10
0.0
 20
0.0
 30
0.0
 70
     1
  0
VERTEX
  5
37C
  8
0
 10
64.66571823608136
 20
80.49665727725716
 30
0.0
  0
VERTEX
  5
37D
  8
0
 10
64.6657182360813
 20
47.84443460041764
 30
0.0
 42
-0.3268748175894694
  0
VERTEX
  5
37E
  8
0
 10
63.55809680751882
 20
46.33120203182579
 30
0.0
 42
0.2140895195443154
  0
VERTEX
  5
37F
  8
0
 10
50.95334972866701
 20
35.07591237988647
 30
0.0
 42
-0.3108678928628357
  0
VERTEX
  5
380
  8
0
 10
49.41680251995712
 20
34.13824315877964
 30
0.0
  0
VERTEX
  5
381
  8
0
 10
32.36399854320231
 20
35.07498165847932
 30
0.0
 42
-0.5878497639258756
  0
VERTEX
  5
382
  8
0
 10
31.1497259385186
 20
37.56929852838504
 30
0.0
  0
VERTEX
  5
383
  8
0
 10
61.77687292326771
 20
81.40586386915179
 30
0.0
 42
-0.7336281531042995
  0
SEQEND
  5
64F
  8
0
  0
POLYLINE
  5
D8
  8
0
 66
     1
 10
0.0
 20
0.0
 30
0.0
 70
     1
  0
VERTEX
  5
384
  8
0
 10
71.01571823603051
 20
-16.64782135952153
 30
0.0
 42
0.4142135623730951
  0
VERTEX
  5
385
  8
0
 10
79.08021823596596
 20
-8.583321359586078
 30
0.0
  0
VERTEX
  5
386
  8
0
 10
79.08021823596596
 20
3.79337970916013
 30
0.0
 42
-0.2346056059667043
  0
VERTEX
  5
387
  8
0
 10
82.2703346076219
 20
10.21806215215441
 30
0.0
 42
0.4965407084259092
  0
VERTEX
  5
388
  8
0
 10
82.2703346076219
 20
43.10029512810954
 30
0.0
 42
-0.2346056059667039
  0
VERTEX
  5
389
  8
0
 10
79.08021823596596
 20
49.52497757110386
 30
0.0
  0
VERTEX
  5
38A
  8
0
 10
79.080218235966
 20
105.7166786394995
 30
0.0
 42
0.7336281531042994
  0
VERTEX
  5
38B
  8
0
 10
64.40488404687294
 20
110.3354481263243
 30
0.0
  0
VERTEX
  5
38C
  8
0
 10
30.88808973665995
 20
62.36293718613393
 30
0.0
 42
-0.3354237857151521
  0
VERTEX
  5
38D
  8
0
 10
21.63688689197451
 20
59.36169265644507
 30
0.0
 42
0.4984263088705504
  0
VERTEX
  5
38E
  8
0
 10
10.94412519281227
 20
52.18340991546783
 30
0.0
  0
VERTEX
  5
38F
  8
0
 10
9.724925192821974
 20
29.95840991564561
 30
0.0
 42
0.0628112559203559
  0
VERTEX
  5
390
  8
0
 10
9.867403696446706
 20
27.9452422848272
 30
0.0
  0
VERTEX
  5
391
  8
0
 10
17.43660369638611
 20
-10.15475771486801
 30
0.0
 42
0.3578723778283739
  0
VERTEX
  5
392
  8
0
 10
25.34651823639588
 20
-16.64782135952153
 30
0.0
  0
SEQEND
  5
650
  8
0
  0
POLYLINE
  5
D9
  8
0
 66
     1
 10
0.0
 20
0.0
 30
0.0
 70
     1
  0
VERTEX
  5
393
  8
0
 10
69.79651823604024
 20
15.54667864022088
 30
0.0
 42
0.4142135623730951
  0
VERTEX
  5
394
  8
0
 10
80.90901823595136
 20
26.65917864013199
 30
0.0
 42
0.4142135623730951
  0
VERTEX
  5
395
  8
0
 10
69.79651823604024
 20
37.77167864004311
 30
0.0
 42
0.4142135623730951
  0
VERTEX
  5
396
  8
0
 10
58.68401823612923
 20
26.65917864013204
 30
0.0
 42
0.4142135623730951
  0
SEQEND
  5
651
  8
0
  0
POLYLINE
  5
DA
  8
0
 66
     1
 10
0.0
 20
0.0
 30
0.0
 70
     1
  0
VERTEX
  5
397
  8
0
 10
18.99651823644669
 20
49.20167863995164
 30
0.0
 42
0.4142135623730951
  0
VERTEX
  5
398
  8
0
 10
21.53651823642633
 20
51.74167863993132
 30
0.0
 42
0.4142135623730951
  0
VERTEX
  5
399
  8
0
 10
18.99651823644669
 20
54.28167863991101
 30
0.0
 42
0.4142135623730951
  0
VERTEX
  5
39A
  8
0
 10
16.45651823646704
 20
51.74167863993132
 30
0.0
 42
0.4142135623730951
  0
SEQEND
  5
652
  8
0
  0
POLYLINE
  5
DB
  8
0
 66
     1
 10
0.0
 20
0.0
 30
0.0
 70
     1
  0
VERTEX
  5
39B
  8
0
 10
25.34651823639588
 20
-11.12332135956576
 30
0.0
 42
0.4142135623730951
  0
VERTEX
  5
39C
  8
0
 10
27.88651823637561
 20
-8.583321359586078
 30
0.0
 42
0.4142135623730951
  0
VERTEX
  5
39D
  8
0
 10
25.34651823639588
 20
-6.043321359606391
 30
0.0
 42
0.4142135623730951
  0
VERTEX
  5
39E
  8
0
 10
22.80651823641615
 20
-8.583321359586078
 30
0.0
 42
0.4142135623730951
  0
SEQEND
  5
653
  8
0
  0
POLYLINE
  5
DC
  8
0
 66
     1
 10
0.0
 20
0.0
 30
0.0
 70
     1
  0
VERTEX
  5
39F
  8
0
 10
71.01571823603055
 20
103.1766786395198
 30
0.0
 42
0.4142135623730951
  0
VERTEX
  5
3A0
  8
0
 10
73.5557182360102
 20
105.7166786394995
 30
0.0
 42
0.4142135623730951
  0
VERTEX
  5
3A1
  8
0
 10
71.01571823603055
 20
108.2566786394792
 30
0.0
 42
0.4142135623730951
  0
VERTEX
  5
3A2
  8
0
 10
68.47571823605082
 20
105.7166786394995
 30
0.0
 42
0.4142135623730951
  0
SEQEND
  5
654
  8
0
  0
POLYLINE
  5
DD
  8
0
 66
     1
 10
0.0
 20
0.0
 30
0.0
 70
     1
  0
VERTEX
  5
3A3
  8
0
 10
71.01571823603051
 20
-11.12332135956576
 30
0.0
 42
0.4142135623730951
  0
VERTEX
  5
3A4
  8
0
 10
73.5557182360102
 20
-8.583321359586078
 30
0.0
 42
0.4142135623730951
  0
VERTEX
  5
3A5
  8
0
 10
71.01571823603051
 20
-6.043321359606391
 30
0.0
 42
0.4142135623730951
  0
VERTEX
  5
3A6
  8
0
 10
68.47571823605082
 20
-8.583321359586078
 30
0.0
 42
0.4142135623730951
  0
SEQEND
  5
655
  8
0
  0
POLYLINE
  5
DE
  8
0
 66
     1
 10
0.0
 20
0.0
 30
0.0
 70
     1
  0
VERTEX
  5
3A7
  8
0
 10
17.77731823645648
 20
26.21467864013551
 30
0.0
 42
0.4142135623730951
  0
VERTEX
  5
3A8
  8
0
 10
21.07931823643006
 20
29.51667864010914
 30
0.0
 42
0.4142135623730951
  0
VERTEX
  5
3A9
  8
0
 10
17.77731823645648
 20
32.81867864008277
 30
0.0
 42
0.4142135623730951
  0
VERTEX
  5
3AA
  8
0
 10
14.4753182364829
 20
29.51667864010914
 30
0.0
 42
0.4142135623730951
  0
SEQEND
  5
656
  8
0
  0
POLYLINE
  5
DF
  8
0
 66
     1
 10
0.0
 20
0.0
 30
0.0
 70
     1
  0
VERTEX
  5
3AB
  8
0
 10
83.76560993633782
 20
-181.0536866480677
 30
0.0
  0
VERTEX
  5
3AC
  8
0
 10
47.93740850960452
 20
-186.991842390652
 30
0.0
 42
-0.7292836521262172
  0
VERTEX
  5
3AD
  8
0
 10
46.55530571031209
 20
-184.3031752415218
 30
0.0
  0
VERTEX
  5
3AE
  8
0
 10
64.46940642367875
 20
-166.3890745281552
 30
0.0
 42
-0.3578723778283734
  0
VERTEX
  5
3AF
  8
0
 10
66.47421814487113
 20
-166.1918570328724
 30
0.0
  0
VERTEX
  5
3B0
  8
0
 10
84.38831885823782
 20
-178.1678020036547
 30
0.0
 42
-0.6797639942567385
  0
SEQEND
  5
657
  8
0
  0
POLYLINE
  5
E0
  8
0
 66
     1
 10
0.0
 20
0.0
 30
0.0
 70
     1
  0
VERTEX
  5
3B1
  8
0
 10
99.77276361695657
 20
-248.0835751380093
 30
0.0
  0
VERTEX
  5
3B2
  8
0
 10
76.68415554135022
 20
-224.9949670624029
 30
0.0
 42
-0.3268748175894694
  0
VERTEX
  5
3B3
  8
0
 10
76.3973451537107
 20
-223.1417434285152
 30
0.0
 42
0.2140895195443154
  0
VERTEX
  5
3B4
  8
0
 10
77.351555651203
 20
-206.2701496568127
 30
0.0
 42
-0.3108678928628357
  0
VERTEX
  5
3B5
  8
0
 10
77.7750263373405
 20
-204.5206144411661
 30
0.0
  0
VERTEX
  5
3B6
  8
0
 10
90.49555381288486
 20
-193.124835256294
 30
0.0
 42
-0.5878497639258756
  0
VERTEX
  5
3B7
  8
0
 10
93.11792257900413
 20
-194.0299632364515
 30
0.0
  0
VERTEX
  5
3B8
  8
0
 10
102.4583918740743
 20
-246.6837591741481
 30
0.0
 42
-0.7336281531042995
  0
SEQEND
  5
658
  8
0
  0
POLYLINE
  5
E1
  8
0
 66
     1
 10
0.0
 20
0.0
 30
0.0
 70
     1
  0
VERTEX
  5
3B9
  8
0
 10
26.59111595756002
 20
-183.88218359961
 30
0.0
 42
0.4142135623730951
  0
VERTEX
  5
3BA
  8
0
 10
26.59111595756002
 20
-195.2871088732766
 30
0.0
  0
VERTEX
  5
3BB
  8
0
 10
35.34276521198924
 20
-204.0387581277058
 30
0.0
 42
-0.2346056059667043
  0
VERTEX
  5
3BC
  8
0
 10
37.62994881522854
 20
-210.8374475692894
 30
0.0
 42
0.4965407084259092
  0
VERTEX
  5
3BD
  8
0
 10
60.88119873308231
 20
-234.0886974871432
 30
0.0
 42
-0.2346056059667039
  0
VERTEX
  5
3BE
  8
0
 10
67.67988817466589
 20
-236.3758810903825
 30
0.0
  0
VERTEX
  5
3BF
  8
0
 10
107.4134210465359
 20
-276.1094139622524
 30
0.0
 42
0.7336281531042994
  0
VERTEX
  5
3C0
  8
0
 10
121.0564125926937
 20
-268.9983488658373
 30
0.0
  0
VERTEX
  5
3C1
  8
0
 10
110.8346773367255
 20
-211.3767085290965
 30
0.0
 42
-0.3354237857151521
  0
VERTEX
  5
3C2
  8
0
 10
115.2540652433927
 20
-202.7129199045451
 30
0.0
 42
0.4984263088705504
  0
VERTEX
  5
3C3
  8
0
 10
117.7391771470628
 20
-190.0761831940363
 30
0.0
  0
VERTEX
  5
3C4
  8
0
 10
102.8858335229333
 20
-173.4986303946752
 30
0.0
 42
0.0628112559203559
  0
VERTEX
  5
3C5
  8
0
 10
101.36156152343
 20
-172.1758534273446
 30
0.0
  0
VERTEX
  5
3C6
  8
0
 10
69.06856051232364
 20
-150.5873177124671
 30
0.0
 42
0.3578723778283739
  0
VERTEX
  5
3C7
  8
0
 10
58.88411696866635
 20
-151.5891825885037
 30
0.0
  0
SEQEND
  5
659
  8
0
  0
POLYLINE
  5
E2
  8
0
 66
     1
 10
0.0
 20
0.0
 30
0.0
 70
     1
  0
VERTEX
  5
3C8
  8
0
 10
50.21816981190394
 20
-205.7850282787225
 30
0.0
 42
0.4142135623730951
  0
VERTEX
  5
3C9
  8
0
 10
50.21816981190398
 20
-221.5004764904678
 30
0.0
 42
0.4142135623730951
  0
VERTEX
  5
3CA
  8
0
 10
65.93361802364925
 20
-221.5004764904678
 30
0.0
 42
0.4142135623730951
  0
VERTEX
  5
3CB
  8
0
 10
65.93361802364925
 20
-205.7850282787225
 30
0.0
 42
0.4142135623730951
  0
SEQEND
  5
65A
  8
0
  0
POLYLINE
  5
E3
  8
0
 66
     1
 10
0.0
 20
0.0
 30
0.0
 70
     1
  0
VERTEX
  5
3CC
  8
0
 10
109.936873016536
 20
-193.6616825153761
 30
0.0
 42
0.4142135623730951
  0
VERTEX
  5
3CD
  8
0
 10
109.936873016536
 20
-197.253784963775
 30
0.0
 42
0.4142135623730951
  0
VERTEX
  5
3CE
  8
0
 10
113.528975464935
 20
-197.253784963775
 30
0.0
 42
0.4142135623730951
  0
VERTEX
  5
3CF
  8
0
 10
113.5289754649349
 20
-193.6616825153761
 30
0.0
 42
0.4142135623730951
  0
SEQEND
  5
65B
  8
0
  0
POLYLINE
  5
E4
  8
0
 66
     1
 10
0.0
 20
0.0
 30
0.0
 70
     1
  0
VERTEX
  5
3D0
  8
0
 10
62.79052838130016
 20
-155.4955940011375
 30
0.0
 42
0.4142135623730951
  0
VERTEX
  5
3D1
  8
0
 10
62.79052838130016
 20
-159.0876964495365
 30
0.0
 42
0.4142135623730951
  0
VERTEX
  5
3D2
  8
0
 10
66.38263082969907
 20
-159.0876964495365
 30
0.0
 42
0.4142135623730951
  0
VERTEX
  5
3D3
  8
0
 10
66.38263082969911
 20
-155.4955940011375
 30
0.0
 42
0.4142135623730951
  0
SEQEND
  5
65C
  8
0
  0
POLYLINE
  5
E5
  8
0
 66
     1
 10
0.0
 20
0.0
 30
0.0
 70
     1
  0
VERTEX
  5
3D4
  8
0
 10
111.3198324591697
 20
-268.6109001012196
 30
0.0
 42
0.4142135623730951
  0
VERTEX
  5
3D5
  8
0
 10
111.3198324591697
 20
-272.2030025496186
 30
0.0
 42
0.4142135623730951
  0
VERTEX
  5
3D6
  8
0
 10
114.9119349075685
 20
-272.2030025496186
 30
0.0
 42
0.4142135623730951
  0
VERTEX
  5
3D7
  8
0
 10
114.9119349075686
 20
-268.6109001012196
 30
0.0
 42
0.4142135623730951
  0
SEQEND
  5
65D
  8
0
  0
POLYLINE
  5
E6
  8
0
 66
     1
 10
0.0
 20
0.0
 30
0.0
 70
     1
  0
VERTEX
  5
3D8
  8
0
 10
30.49752737019382
 20
-187.7885950122439
 30
0.0
 42
0.4142135623730951
  0
VERTEX
  5
3D9
  8
0
 10
30.49752737019382
 20
-191.3806974606428
 30
0.0
 42
0.4142135623730951
  0
VERTEX
  5
3DA
  8
0
 10
34.08962981859273
 20
-191.3806974606428
 30
0.0
 42
0.4142135623730951
  0
VERTEX
  5
3DB
  8
0
 10
34.08962981859273
 20
-187.7885950122439
 30
0.0
 42
0.4142135623730951
  0
SEQEND
  5
65E
  8
0
  0
POLYLINE
  5
E7
  8
0
 66
     1
 10
0.0
 20
0.0
 30
0.0
 70
     1
  0
VERTEX
  5
3DC
  8
0
 10
94.54471402514662
 20
-176.5453143487552
 30
0.0
 42
0.4142135623730951
  0
VERTEX
  5
3DD
  8
0
 10
94.54471402514666
 20
-181.2150475316739
 30
0.0
 42
0.4142135623730951
  0
VERTEX
  5
3DE
  8
0
 10
99.21444720806528
 20
-181.2150475316739
 30
0.0
 42
0.4142135623730951
  0
VERTEX
  5
3DF
  8
0
 10
99.21444720806524
 20
-176.5453143487553
 30
0.0
 42
0.4142135623730951
  0
SEQEND
  5
65F
  8
0
  0
POLYLINE
  5
E8
  8
0
 66
     1
 10
0.0
 20
0.0
 30
0.0
 70
     1
  0
VERTEX
  5
3E0
  8
0
 10
116.0748134469417
 20
220.3465769694054
 30
0.0
  0
VERTEX
  5
3E1
  8
0
 10
86.54153906705787
 20
241.4820309626429
 30
0.0
 42
-0.7292836521262172
  0
VERTEX
  5
3E2
  8
0
 10
87.46541957888473
 20
244.360499997823
 30
0.0
  0
VERTEX
  5
3E3
  8
0
 10
112.7997837654453
 20
244.3604999978229
 30
0.0
 42
-0.3578723778283734
  0
VERTEX
  5
3E4
  8
0
 10
114.3568535567859
 20
243.0823378630486
 30
0.0
  0
VERTEX
  5
3E5
  8
0
 10
118.5557637501091
 20
221.9468838698111
 30
0.0
 42
-0.6797639942567385
  0
SEQEND
  5
660
  8
0
  0
POLYLINE
  5
E9
  8
0
 66
     1
 10
0.0
 20
0.0
 30
0.0
 70
     1
  0
VERTEX
  5
3E6
  8
0
 10
79.99629166858661
 20
161.6305213609289
 30
0.0
  0
VERTEX
  5
3E7
  8
0
 10
79.99629166858661
 20
194.2827440377683
 30
0.0
 42
-0.3268748175894694
  0
VERTEX
  5
3E8
  8
0
 10
81.10391309714915
 20
195.7959766063602
 30
0.0
 42
0.2140895195443154
  0
VERTEX
  5
3E9
  8
0
 10
93.7086601760009
 20
207.0512662582996
 30
0.0
 42
-0.3108678928628357
  0
VERTEX
  5
3EA
  8
0
 10
95.2452073847108
 20
207.9889354794064
 30
0.0
  0
VERTEX
  5
3EB
  8
0
 10
112.2980113614656
 20
207.0521969797067
 30
0.0
 42
-0.5878497639258756
  0
VERTEX
  5
3EC
  8
0
 10
113.5122839661493
 20
204.557880109801
 30
0.0
  0
VERTEX
  5
3ED
  8
0
 10
82.88513698140021
 20
160.7213147690342
 30
0.0
 42
-0.7336281531042995
  0
SEQEND
  5
661
  8
0
  0
POLYLINE
  5
EA
  8
0
 66
     1
 10
0.0
 20
0.0
 30
0.0
 70
     1
  0
VERTEX
  5
3EE
  8
0
 10
73.6462916686374
 20
258.7749999977076
 30
0.0
 42
0.4142135623730951
  0
VERTEX
  5
3EF
  8
0
 10
65.58179166870195
 20
250.7104999977721
 30
0.0
  0
VERTEX
  5
3F0
  8
0
 10
65.58179166870195
 20
238.3337989290259
 30
0.0
 42
-0.2346056059667043
  0
VERTEX
  5
3F1
  8
0
 10
62.39167529704606
 20
231.9091164860316
 30
0.0
 42
0.4965407084259092
  0
VERTEX
  5
3F2
  8
0
 10
62.39167529704606
 20
199.0268835100765
 30
0.0
 42
-0.2346056059667039
  0
VERTEX
  5
3F3
  8
0
 10
65.58179166870195
 20
192.6022010670821
 30
0.0
  0
VERTEX
  5
3F4
  8
0
 10
65.58179166870195
 20
136.4104999986865
 30
0.0
 42
0.7336281531042994
  0
VERTEX
  5
3F5
  8
0
 10
80.25712585779503
 20
131.7917305118617
 30
0.0
  0
VERTEX
  5
3F6
  8
0
 10
113.773920168008
 20
179.7642414520521
 30
0.0
 42
-0.3354237857151521
  0
VERTEX
  5
3F7
  8
0
 10
123.0251230126934
 20
182.765485981741
 30
0.0
 42
0.4984263088705504
  0
VERTEX
  5
3F8
  8
0
 10
133.7178847118557
 20
189.9437687227182
 30
0.0
  0
VERTEX
  5
3F9
  8
0
 10
134.937084711846
 20
212.1687687225404
 30
0.0
 42
0.0628112559203559
  0
VERTEX
  5
3FA
  8
0
 10
134.7946062082212
 20
214.1819363533589
 30
0.0
  0
VERTEX
  5
3FB
  8
0
 10
127.2254062082818
 20
252.281936353054
 30
0.0
 42
0.3578723778283739
  0
VERTEX
  5
3FC
  8
0
 10
119.315491668272
 20
258.7749999977076
 30
0.0
  0
SEQEND
  5
662
  8
0
  0
POLYLINE
  5
EB
  8
0
 66
     1
 10
0.0
 20
0.0
 30
0.0
 70
     1
  0
VERTEX
  5
3FD
  8
0
 10
74.86549166862767
 20
226.5804999979652
 30
0.0
 42
0.4142135623730951
  0
VERTEX
  5
3FE
  8
0
 10
63.75299166871655
 20
215.467999998054
 30
0.0
 42
0.4142135623730951
  0
VERTEX
  5
3FF
  8
0
 10
74.86549166862767
 20
204.3554999981429
 30
0.0
 42
0.4142135623730951
  0
VERTEX
  5
400
  8
0
 10
85.97799166853873
 20
215.467999998054
 30
0.0
 42
0.4142135623730951
  0
SEQEND
  5
663
  8
0
  0
POLYLINE
  5
EC
  8
0
 66
     1
 10
0.0
 20
0.0
 30
0.0
 70
     1
  0
VERTEX
  5
401
  8
0
 10
125.6654916682213
 20
192.9254999982344
 30
0.0
 42
0.4142135623730951
  0
VERTEX
  5
402
  8
0
 10
123.1254916682415
 20
190.3854999982547
 30
0.0
 42
0.4142135623730951
  0
VERTEX
  5
403
  8
0
 10
125.6654916682213
 20
187.845499998275
 30
0.0
 42
0.4142135623730951
  0
VERTEX
  5
404
  8
0
 10
128.2054916682009
 20
190.3854999982547
 30
0.0
 42
0.4142135623730951
  0
SEQEND
  5
664
  8
0
  0
POLYLINE
  5
ED
  8
0
 66
     1
 10
0.0
 20
0.0
 30
0.0
 70
     1
  0
VERTEX
  5
405
  8
0
 10
119.315491668272
 20
253.2504999977518
 30
0.0
 42
0.4142135623730951
  0
VERTEX
  5
406
  8
0
 10
116.7754916682923
 20
250.7104999977721
 30
0.0
 42
0.4142135623730951
  0
VERTEX
  5
407
  8
0
 10
119.315491668272
 20
248.1704999977924
 30
0.0
 42
0.4142135623730951
  0
VERTEX
  5
408
  8
0
 10
121.8554916682517
 20
250.7104999977721
 30
0.0
 42
0.4142135623730951
  0
SEQEND
  5
665
  8
0
  0
POLYLINE
  5
EE
  8
0
 66
     1
 10
0.0
 20
0.0
 30
0.0
 70
     1
  0
VERTEX
  5
409
  8
0
 10
73.6462916686374
 20
138.9504999986662
 30
0.0
 42
0.4142135623730951
  0
VERTEX
  5
40A
  8
0
 10
71.10629166865772
 20
136.4104999986865
 30
0.0
 42
0.4142135623730951
  0
VERTEX
  5
40B
  8
0
 10
73.6462916686374
 20
133.8704999987068
 30
0.0
 42
0.4142135623730951
  0
VERTEX
  5
40C
  8
0
 10
76.1862916686171
 20
136.4104999986865
 30
0.0
 42
0.4142135623730951
  0
SEQEND
  5
666
  8
0
  0
POLYLINE
  5
EF
  8
0
 66
     1
 10
0.0
 20
0.0
 30
0.0
 70
     1
  0
VERTEX
  5
40D
  8
0
 10
73.6462916686374
 20
253.2504999977518
 30
0.0
 42
0.4142135623730951
  0
VERTEX
  5
40E
  8
0
 10
71.10629166865772
 20
250.7104999977721
 30
0.0
 42
0.4142135623730951
  0
VERTEX
  5
40F
  8
0
 10
73.6462916686374
 20
248.1704999977924
 30
0.0
 42
0.4142135623730951
  0
VERTEX
  5
410
  8
0
 10
76.1862916686171
 20
250.7104999977721
 30
0.0
 42
0.4142135623730951
  0
SEQEND
  5
667
  8
0
  0
POLYLINE
  5
F0
  8
0
 66
     1
 10
0.0
 20
0.0
 30
0.0
 70
     1
  0
VERTEX
  5
411
  8
0
 10
126.8846916682115
 20
215.9124999980505
 30
0.0
 42
0.4142135623730951
  0
VERTEX
  5
412
  8
0
 10
123.5826916682379
 20
212.6104999980769
 30
0.0
 42
0.4142135623730951
  0
VERTEX
  5
413
  8
0
 10
126.8846916682115
 20
209.3084999981033
 30
0.0
 42
0.4142135623730951
  0
VERTEX
  5
414
  8
0
 10
130.186691668185
 20
212.6104999980769
 30
0.0
 42
0.4142135623730951
  0
SEQEND
  5
668
  8
0
  0
POLYLINE
  5
F1
  8
0
 66
     1
 10
0.0
 20
0.0
 30
0.0
 70
     1
  0
VERTEX
  5
415
  8
0
 10
113.7193983306775
 20
-72.57481344711564
 30
0.0
  0
VERTEX
  5
416
  8
0
 10
134.8548523239149
 20
-43.04153906723181
 30
0.0
 42
-0.7292836521262172
  0
VERTEX
  5
417
  8
0
 10
137.733321359095
 20
-43.96541957905868
 30
0.0
  0
VERTEX
  5
418
  8
0
 10
137.733321359095
 20
-69.29978376561928
 30
0.0
 42
-0.3578723778283734
  0
VERTEX
  5
419
  8
0
 10
136.4551592243207
 20
-70.8568535569598
 30
0.0
  0
VERTEX
  5
41A
  8
0
 10
115.3197052310832
 20
-75.05576375028305
 30
0.0
 42
-0.6797639942567385
  0
SEQEND
  5
669
  8
0
  0
POLYLINE
  5
F2
  8
0
 66
     1
 10
0.0
 20
0.0
 30
0.0
 70
     1
  0
VERTEX
  5
41B
  8
0
 10
55.00334272220101
 20
-36.4962916687606
 30
0.0
  0
VERTEX
  5
41C
  8
0
 10
87.65556539904048
 20
-36.4962916687606
 30
0.0
 42
-0.3268748175894694
  0
VERTEX
  5
41D
  8
0
 10
89.16879796763233
 20
-37.60391309732309
 30
0.0
 42
0.2140895195443154
  0
VERTEX
  5
41E
  8
0
 10
100.4240876195717
 20
-50.2086601761749
 30
0.0
 42
-0.3108678928628357
  0
VERTEX
  5
41F
  8
0
 10
101.3617568406785
 20
-51.74520738488479
 30
0.0
  0
VERTEX
  5
420
  8
0
 10
100.4250183409788
 20
-68.7980113616396
 30
0.0
 42
-0.5878497639258756
  0
VERTEX
  5
421
  8
0
 10
97.93070147107308
 20
-70.01228396632331
 30
0.0
  0
VERTEX
  5
422
  8
0
 10
54.09413613030632
 20
-39.3851369815742
 30
0.0
 42
-0.7336281531042995
  0
SEQEND
  5
66A
  8
0
  0
POLYLINE
  5
F3
  8
0
 66
     1
 10
0.0
 20
0.0
 30
0.0
 70
     1
  0
VERTEX
  5
423
  8
0
 10
152.1478213589797
 20
-30.1462916688114
 30
0.0
 42
0.4142135623730951
  0
VERTEX
  5
424
  8
0
 10
144.0833213590442
 20
-22.08179166887595
 30
0.0
  0
VERTEX
  5
425
  8
0
 10
131.706620290298
 20
-22.08179166887595
 30
0.0
 42
-0.2346056059667043
  0
VERTEX
  5
426
  8
0
 10
125.2819378473038
 20
-18.89167529722001
 30
0.0
 42
0.4965407084259092
  0
VERTEX
  5
427
  8
0
 10
92.39970487134858
 20
-18.89167529722001
 30
0.0
 42
-0.2346056059667039
  0
VERTEX
  5
428
  8
0
 10
85.97502242835425
 20
-22.08179166887595
 30
0.0
  0
VERTEX
  5
429
  8
0
 10
29.78332135995863
 20
-22.08179166887595
 30
0.0
 42
0.7336281531042994
  0
VERTEX
  5
42A
  8
0
 10
25.1645518731338
 20
-36.75712585796902
 30
0.0
  0
VERTEX
  5
42B
  8
0
 10
73.13706281332419
 20
-70.27392016818195
 30
0.0
 42
-0.3354237857151521
  0
VERTEX
  5
42C
  8
0
 10
76.13830734301305
 20
-79.5251230128674
 30
0.0
 42
0.4984263088705504
  0
VERTEX
  5
42D
  8
0
 10
83.31659008399032
 20
-90.21788471202963
 30
0.0
  0
VERTEX
  5
42E
  8
0
 10
105.5415900838126
 20
-91.43708471201994
 30
0.0
 42
0.0628112559203559
  0
VERTEX
  5
42F
  8
0
 10
107.554757714631
 20
-91.2946062083952
 30
0.0
  0
VERTEX
  5
430
  8
0
 10
145.6547577143261
 20
-83.7254062084558
 30
0.0
 42
0.3578723778283739
  0
VERTEX
  5
431
  8
0
 10
152.1478213589797
 20
-75.81549166844603
 30
0.0
  0
SEQEND
  5
66B
  8
0
  0
POLYLINE
  5
F4
  8
0
 66
     1
 10
0.0
 20
0.0
 30
0.0
 70
     1
  0
VERTEX
  5
432
  8
0
 10
119.9533213592373
 20
-31.36549166880166
 30
0.0
 42
0.4142135623730951
  0
VERTEX
  5
433
  8
0
 10
108.8408213593261
 20
-20.25299166889054
 30
0.0
 42
0.4142135623730951
  0
VERTEX
  5
434
  8
0
 10
97.728321359415
 20
-31.36549166880166
 30
0.0
 42
0.4142135623730951
  0
VERTEX
  5
435
  8
0
 10
108.8408213593261
 20
-42.47799166871268
 30
0.0
 42
0.4142135623730951
  0
SEQEND
  5
66C
  8
0
  0
POLYLINE
  5
F5
  8
0
 66
     1
 10
0.0
 20
0.0
 30
0.0
 70
     1
  0
VERTEX
  5
436
  8
0
 10
86.29832135950647
 20
-82.16549166839522
 30
0.0
 42
0.4142135623730951
  0
VERTEX
  5
437
  8
0
 10
83.75832135952683
 20
-79.62549166841558
 30
0.0
 42
0.4142135623730951
  0
VERTEX
  5
438
  8
0
 10
81.21832135954715
 20
-82.16549166839522
 30
0.0
 42
0.4142135623730951
  0
VERTEX
  5
439
  8
0
 10
83.75832135952683
 20
-84.70549166837486
 30
0.0
 42
0.4142135623730951
  0
SEQEND
  5
66D
  8
0
  0
POLYLINE
  5
F6
  8
0
 66
     1
 10
0.0
 20
0.0
 30
0.0
 70
     1
  0
VERTEX
  5
43A
  8
0
 10
146.6233213590239
 20
-75.81549166844603
 30
0.0
 42
0.4142135623730951
  0
VERTEX
  5
43B
  8
0
 10
144.0833213590442
 20
-73.27549166846629
 30
0.0
 42
0.4142135623730951
  0
VERTEX
  5
43C
  8
0
 10
141.5433213590645
 20
-75.81549166844603
 30
0.0
 42
0.4142135623730951
  0
VERTEX
  5
43D
  8
0
 10
144.0833213590442
 20
-78.35549166842576
 30
0.0
 42
0.4142135623730951
  0
SEQEND
  5
66E
  8
0
  0
POLYLINE
  5
F7
  8
0
 66
     1
 10
0.0
 20
0.0
 30
0.0
 70
     1
  0
VERTEX
  5
43E
  8
0
 10
32.32332135993828
 20
-30.1462916688114
 30
0.0
 42
0.4142135623730951
  0
VERTEX
  5
43F
  8
0
 10
29.78332135995863
 20
-27.60629166883172
 30
0.0
 42
0.4142135623730951
  0
VERTEX
  5
440
  8
0
 10
27.24332135997895
 20
-30.1462916688114
 30
0.0
 42
0.4142135623730951
  0
VERTEX
  5
441
  8
0
 10
29.78332135995863
 20
-32.68629166879109
 30
0.0
 42
0.4142135623730951
  0
SEQEND
  5
66F
  8
0
  0
POLYLINE
  5
F8
  8
0
 66
     1
 10
0.0
 20
0.0
 30
0.0
 70
     1
  0
VERTEX
  5
442
  8
0
 10
146.6233213590239
 20
-30.1462916688114
 30
0.0
 42
0.4142135623730951
  0
VERTEX
  5
443
  8
0
 10
144.0833213590442
 20
-27.60629166883172
 30
0.0
 42
0.4142135623730951
  0
VERTEX
  5
444
  8
0
 10
141.5433213590645
 20
-30.1462916688114
 30
0.0
 42
0.4142135623730951
  0
VERTEX
  5
445
  8
0
 10
144.0833213590442
 20
-32.68629166879109
 30
0.0
 42
0.4142135623730951
  0
SEQEND
  5
670
  8
0
  0
POLYLINE
  5
F9
  8
0
 66
     1
 10
0.0
 20
0.0
 30
0.0
 70
     1
  0
VERTEX
  5
446
  8
0
 10
109.2853213593226
 20
-83.38469166838543
 30
0.0
 42
0.4142135623730951
  0
VERTEX
  5
447
  8
0
 10
105.983321359349
 20
-80.08269166841185
 30
0.0
 42
0.4142135623730951
  0
VERTEX
  5
448
  8
0
 10
102.6813213593753
 20
-83.38469166838543
 30
0.0
 42
0.4142135623730951
  0
VERTEX
  5
449
  8
0
 10
105.983321359349
 20
-86.686691668359
 30
0.0
 42
0.4142135623730951
  0
SEQEND
  5
671
  8
0
  0
POLYLINE
  5
FA
  8
0
 66
     1
 10
0.0
 20
0.0
 30
0.0
 70
     1
  0
VERTEX
  5
44A
  8
0
 10
146.0748134468217
 20
110.8465769698434
 30
0.0
  0
VERTEX
  5
44B
  8
0
 10
116.5415390669379
 20
131.9820309630809
 30
0.0
 42
-0.7292836521262172
  0
VERTEX
  5
44C
  8
0
 10
117.4654195787648
 20
134.860499998261
 30
0.0
  0
VERTEX
  5
44D
  8
0
 10
142.7997837653253
 20
134.8604999982609
 30
0.0
 42
-0.3578723778283734
  0
VERTEX
  5
44E
  8
0
 10
144.3568535566659
 20
133.5823378634866
 30
0.0
  0
VERTEX
  5
44F
  8
0
 10
148.5557637499891
 20
112.4468838702492
 30
0.0
 42
-0.6797639942567385
  0
SEQEND
  5
672
  8
0
  0
POLYLINE
  5
FB
  8
0
 66
     1
 10
0.0
 20
0.0
 30
0.0
 70
     1
  0
VERTEX
  5
450
  8
0
 10
109.9962916684666
 20
52.13052136136689
 30
0.0
  0
VERTEX
  5
451
  8
0
 10
109.9962916684666
 20
84.7827440382064
 30
0.0
 42
-0.3268748175894694
  0
VERTEX
  5
452
  8
0
 10
111.1039130970292
 20
86.29597660679825
 30
0.0
 42
0.2140895195443154
  0
VERTEX
  5
453
  8
0
 10
123.7086601758809
 20
97.55126625873757
 30
0.0
 42
-0.3108678928628357
  0
VERTEX
  5
454
  8
0
 10
125.2452073845908
 20
98.48893547984444
 30
0.0
  0
VERTEX
  5
455
  8
0
 10
142.2980113613456
 20
97.55219698014476
 30
0.0
 42
-0.5878497639258756
  0
VERTEX
  5
456
  8
0
 10
143.5122839660293
 20
95.057880110239
 30
0.0
  0
VERTEX
  5
457
  8
0
 10
112.8851369812802
 20
51.22131476947224
 30
0.0
 42
-0.7336281531042995
  0
SEQEND
  5
673
  8
0
  0
POLYLINE
  5
FC
  8
0
 66
     1
 10
0.0
 20
0.0
 30
0.0
 70
     1
  0
VERTEX
  5
458
  8
0
 10
103.6462916685174
 20
149.2749999981456
 30
0.0
 42
0.4142135623730951
  0
VERTEX
  5
459
  8
0
 10
95.58179166858197
 20
141.2104999982102
 30
0.0
  0
VERTEX
  5
45A
  8
0
 10
95.58179166858197
 20
128.8337989294639
 30
0.0
 42
-0.2346056059667043
  0
VERTEX
  5
45B
  8
0
 10
92.39167529692608
 20
122.4091164864697
 30
0.0
 42
0.4965407084259092
  0
VERTEX
  5
45C
  8
0
 10
92.39167529692608
 20
89.52688351051451
 30
0.0
 42
-0.2346056059667039
  0
VERTEX
  5
45D
  8
0
 10
95.58179166858197
 20
83.10220106752017
 30
0.0
  0
VERTEX
  5
45E
  8
0
 10
95.58179166858197
 20
26.91049999912456
 30
0.0
 42
0.7336281531042994
  0
VERTEX
  5
45F
  8
0
 10
110.257125857675
 20
22.29173051229972
 30
0.0
  0
VERTEX
  5
460
  8
0
 10
143.773920167888
 20
70.26424145249011
 30
0.0
 42
-0.3354237857151521
  0
VERTEX
  5
461
  8
0
 10
153.0251230125734
 20
73.26548598217897
 30
0.0
 42
0.4984263088705504
  0
VERTEX
  5
462
  8
0
 10
163.7178847117357
 20
80.44376872315625
 30
0.0
  0
VERTEX
  5
463
  8
0
 10
164.937084711726
 20
102.6687687229785
 30
0.0
 42
0.0628112559203559
  0
VERTEX
  5
464
  8
0
 10
164.7946062081013
 20
104.6819363537969
 30
0.0
  0
VERTEX
  5
465
  8
0
 10
157.2254062081618
 20
142.7819363534921
 30
0.0
 42
0.3578723778283739
  0
VERTEX
  5
466
  8
0
 10
149.315491668152
 20
149.2749999981456
 30
0.0
  0
SEQEND
  5
674
  8
0
  0
POLYLINE
  5
FD
  8
0
 66
     1
 10
0.0
 20
0.0
 30
0.0
 70
     1
  0
VERTEX
  5
467
  8
0
 10
104.8654916685076
 20
117.0804999984032
 30
0.0
 42
0.4142135623730951
  0
VERTEX
  5
468
  8
0
 10
93.75299166859656
 20
105.967999998492
 30
0.0
 42
0.4142135623730951
  0
VERTEX
  5
469
  8
0
 10
104.8654916685076
 20
94.85549999858092
 30
0.0
 42
0.4142135623730951
  0
VERTEX
  5
46A
  8
0
 10
115.9779916684188
 20
105.967999998492
 30
0.0
 42
0.4142135623730951
  0
SEQEND
  5
675
  8
0
  0
POLYLINE
  5
FE
  8
0
 66
     1
 10
0.0
 20
0.0
 30
0.0
 70
     1
  0
VERTEX
  5
46B
  8
0
 10
155.6654916681013
 20
83.42549999867241
 30
0.0
 42
0.4142135623730951
  0
VERTEX
  5
46C
  8
0
 10
153.1254916681216
 20
80.88549999869277
 30
0.0
 42
0.4142135623730951
  0
VERTEX
  5
46D
  8
0
 10
155.6654916681013
 20
78.34549999871308
 30
0.0
 42
0.4142135623730951
  0
VERTEX
  5
46E
  8
0
 10
158.2054916680809
 20
80.88549999869277
 30
0.0
 42
0.4142135623730951
  0
SEQEND
  5
676
  8
0
  0
POLYLINE
  5
FF
  8
0
 66
     1
 10
0.0
 20
0.0
 30
0.0
 70
     1
  0
VERTEX
  5
46F
  8
0
 10
149.315491668152
 20
143.7504999981898
 30
0.0
 42
0.4142135623730951
  0
VERTEX
  5
470
  8
0
 10
146.7754916681724
 20
141.2104999982102
 30
0.0
 42
0.4142135623730951
  0
VERTEX
  5
471
  8
0
 10
149.315491668152
 20
138.6704999982304
 30
0.0
 42
0.4142135623730951
  0
VERTEX
  5
472
  8
0
 10
151.8554916681317
 20
141.2104999982102
 30
0.0
 42
0.4142135623730951
  0
SEQEND
  5
677
  8
0
  0
POLYLINE
  5
100
  8
0
 66
     1
 10
0.0
 20
0.0
 30
0.0
 70
     1
  0
VERTEX
  5
473
  8
0
 10
103.6462916685174
 20
29.4504999991042
 30
0.0
 42
0.4142135623730951
  0
VERTEX
  5
474
  8
0
 10
101.1062916685377
 20
26.91049999912456
 30
0.0
 42
0.4142135623730951
  0
VERTEX
  5
475
  8
0
 10
103.6462916685174
 20
24.37049999914487
 30
0.0
 42
0.4142135623730951
  0
VERTEX
  5
476
  8
0
 10
106.1862916684971
 20
26.91049999912456
 30
0.0
 42
0.4142135623730951
  0
SEQEND
  5
678
  8
0
  0
POLYLINE
  5
101
  8
0
 66
     1
 10
0.0
 20
0.0
 30
0.0
 70
     1
  0
VERTEX
  5
477
  8
0
 10
103.6462916685174
 20
143.7504999981898
 30
0.0
 42
0.4142135623730951
  0
VERTEX
  5
478
  8
0
 10
101.1062916685377
 20
141.2104999982102
 30
0.0
 42
0.4142135623730951
  0
VERTEX
  5
479
  8
0
 10
103.6462916685174
 20
138.6704999982304
 30
0.0
 42
0.4142135623730951
  0
VERTEX
  5
47A
  8
0
 10
106.1862916684971
 20
141.2104999982102
 30
0.0
 42
0.4142135623730951
  0
SEQEND
  5
679
  8
0
  0
POLYLINE
  5
102
  8
0
 66
     1
 10
0.0
 20
0.0
 30
0.0
 70
     1
  0
VERTEX
  5
47B
  8
0
 10
156.8846916680915
 20
106.4124999984885
 30
0.0
 42
0.4142135623730951
  0
VERTEX
  5
47C
  8
0
 10
153.5826916681179
 20
103.1104999985149
 30
0.0
 42
0.4142135623730951
  0
VERTEX
  5
47D
  8
0
 10
156.8846916680915
 20
99.80849999854132
 30
0.0
 42
0.4142135623730951
  0
VERTEX
  5
47E
  8
0
 10
160.186691668065
 20
103.1104999985149
 30
0.0
 42
0.4142135623730951
  0
SEQEND
  5
67A
  8
0
  0
POLYLINE
  5
103
  8
0
 66
     1
 10
0.0
 20
0.0
 30
0.0
 70
     1
  0
VERTEX
  5
47F
  8
0
 10
47.21740515872141
 20
-118.2275347004911
 30
0.0
 42
0.200275232210231
  0
VERTEX
  5
480
  8
0
 10
47.21740515872141
 20
-123.1183540112823
 30
0.0
 42
0.3024867688638771
  0
VERTEX
  5
481
  8
0
 10
81.64928934139878
 20
-146.0729434664006
 30
0.0
 42
0.1107700595863796
  0
VERTEX
  5
482
  8
0
 10
84.36168538114194
 20
-145.4660818463549
 30
0.0
 42
-0.2652072234382152
  0
VERTEX
  5
483
  8
0
 10
160.156172863042
 20
-151.3692293333888
 30
0.0
 42
0.4717097097040647
  0
VERTEX
  5
484
  8
0
 10
170.896071939383
 20
-148.219023856115
 30
0.0
 42
0.4717097097040644
  0
VERTEX
  5
485
  8
0
 10
165.7519026703372
 20
-138.2788654443772
 30
0.0
 42
-0.8079016387229581
  0
VERTEX
  5
486
  8
0
 10
165.7519026703372
 20
-103.0670232673962
 30
0.0
 42
0.4717097097040654
  0
VERTEX
  5
487
  8
0
 10
170.896071939383
 20
-93.12686485565844
 30
0.0
 42
0.4717097097040643
  0
VERTEX
  5
488
  8
0
 10
160.156172863042
 20
-89.9766593783846
 30
0.0
 42
-0.2652072234382151
  0
VERTEX
  5
489
  8
0
 10
84.36168538114194
 20
-95.87980686541854
 30
0.0
 42
0.1107700595863799
  0
VERTEX
  5
48A
  8
0
 10
81.64928934139878
 20
-95.27294524537284
 30
0.0
 42
0.302486768863877
  0
SEQEND
  5
67B
  8
0
  0
POLYLINE
  5
104
  8
0
 66
     1
 10
0.0
 20
0.0
 30
0.0
 70
     1
  0
VERTEX
  5
48B
  8
0
 10
161.7388501716778
 20
-145.3686486887281
 30
0.0
 42
0.4142135623730951
  0
VERTEX
  5
48C
  8
0
 10
164.2280501716679
 20
-147.8578486887181
 30
0.0
 42
0.4142135623730951
  0
VERTEX
  5
48D
  8
0
 10
166.7172501716579
 20
-145.3686486887281
 30
0.0
 42
0.4142135623730951
  0
VERTEX
  5
48E
  8
0
 10
164.2280501716679
 20
-142.8794486887381
 30
0.0
 42
0.4142135623730951
  0
SEQEND
  5
67C
  8
0
  0
POLYLINE
  5
105
  8
0
 66
     1
 10
0.0
 20
0.0
 30
0.0
 70
     1
  0
VERTEX
  5
48F
  8
0
 10
161.7388501716778
 20
-95.97724002304535
 30
0.0
 42
0.4142135623730951
  0
VERTEX
  5
490
  8
0
 10
164.2280501716679
 20
-98.4664400230354
 30
0.0
 42
0.4142135623730951
  0
VERTEX
  5
491
  8
0
 10
166.7172501716579
 20
-95.97724002304535
 30
0.0
 42
0.4142135623730951
  0
VERTEX
  5
492
  8
0
 10
164.2280501716679
 20
-93.4880400230553
 30
0.0
 42
0.4142135623730951
  0
SEQEND
  5
67D
  8
0
  0
POLYLINE
  5
106
  8
0
 66
     1
 10
0.0
 20
0.0
 30
0.0
 70
     1
  0
VERTEX
  5
493
  8
0
 10
79.11265017200836
 20
-139.7229443558105
 30
0.0
 42
0.4142135623730951
  0
VERTEX
  5
494
  8
0
 10
81.65265017199815
 20
-142.2629443558004
 30
0.0
 42
0.4142135623730951
  0
VERTEX
  5
495
  8
0
 10
84.19265017198799
 20
-139.7229443558105
 30
0.0
 42
0.4142135623730951
  0
VERTEX
  5
496
  8
0
 10
81.65265017199815
 20
-137.1829443558207
 30
0.0
 42
0.4142135623730951
  0
SEQEND
  5
67E
  8
0
  0
POLYLINE
  5
107
  8
0
 66
     1
 10
0.0
 20
0.0
 30
0.0
 70
     1
  0
VERTEX
  5
497
  8
0
 10
79.11265017200836
 20
-101.6229443559629
 30
0.0
 42
0.4142135623730951
  0
VERTEX
  5
498
  8
0
 10
81.65265017199815
 20
-104.1629443559527
 30
0.0
 42
0.4142135623730951
  0
VERTEX
  5
499
  8
0
 10
84.19265017198799
 20
-101.6229443559629
 30
0.0
 42
0.4142135623730951
  0
VERTEX
  5
49A
  8
0
 10
81.65265017199815
 20
-99.0829443559731
 30
0.0
 42
0.4142135623730951
  0
SEQEND
  5
67F
  8
0
  0
POLYLINE
  5
108
  8
0
 66
     1
 10
0.0
 20
0.0
 30
0.0
 70
     1
  0
VERTEX
  5
49B
  8
0
 10
50.53765017212265
 20
-120.6729443558867
 30
0.0
 42
0.4142135623730951
  0
VERTEX
  5
49C
  8
0
 10
53.07765017211244
 20
-123.2129443558766
 30
0.0
 42
0.4142135623730951
  0
VERTEX
  5
49D
  8
0
 10
55.61765017210228
 20
-120.6729443558867
 30
0.0
 42
0.4142135623730951
  0
VERTEX
  5
49E
  8
0
 10
53.07765017211244
 20
-118.1329443558969
 30
0.0
 42
0.4142135623730951
  0
SEQEND
  5
680
  8
0
  0
POLYLINE
  5
109
  8
0
 66
     1
 10
0.0
 20
0.0
 30
0.0
 70
     1
  0
VERTEX
  5
49F
  8
0
 10
61.01515017208067
 20
-120.6729443558867
 30
0.0
 42
0.4142135623730951
  0
VERTEX
  5
4A0
  8
0
 10
75.30265017202355
 20
-134.9604443558296
 30
0.0
 42
0.4142135623730951
  0
VERTEX
  5
4A1
  8
0
 10
89.59015017196643
 20
-120.6729443558867
 30
0.0
 42
0.4142135623730951
  0
VERTEX
  5
4A2
  8
0
 10
75.30265017202355
 20
-106.3854443559439
 30
0.0
 42
0.4142135623730951
  0
SEQEND
  5
681
  8
0
  0
POLYLINE
  5
10A
  8
0
 66
     1
 10
0.0
 20
0.0
 30
0.0
 70
     1
  0
VERTEX
  5
4A3
  8
0
 10
146.2275347003791
 20
-279.9897556716983
 30
0.0
 42
0.200275232210231
  0
VERTEX
  5
4A4
  8
0
 10
151.1183540111703
 20
-279.9897556716983
 30
0.0
 42
0.3024867688638771
  0
VERTEX
  5
4A5
  8
0
 10
174.0729434662887
 20
-245.5578714890209
 30
0.0
 42
0.1107700595863796
  0
VERTEX
  5
4A6
  8
0
 10
173.4660818462429
 20
-242.8454754492777
 30
0.0
 42
-0.2652072234382152
  0
VERTEX
  5
4A7
  8
0
 10
179.3692293332768
 20
-167.0509879673777
 30
0.0
 42
0.4717097097040647
  0
VERTEX
  5
4A8
  8
0
 10
176.219023856003
 20
-156.3110888910367
 30
0.0
 42
0.4717097097040644
  0
VERTEX
  5
4A9
  8
0
 10
166.2788654442652
 20
-161.4552581600825
 30
0.0
 42
-0.8079016387229581
  0
VERTEX
  5
4AA
  8
0
 10
131.0670232672842
 20
-161.4552581600825
 30
0.0
 42
0.4717097097040654
  0
VERTEX
  5
4AB
  8
0
 10
121.1268648555465
 20
-156.3110888910366
 30
0.0
 42
0.4717097097040643
  0
VERTEX
  5
4AC
  8
0
 10
117.9766593782726
 20
-167.0509879673777
 30
0.0
 42
-0.2652072234382151
  0
VERTEX
  5
4AD
  8
0
 10
123.8798068653065
 20
-242.8454754492777
 30
0.0
 42
0.1107700595863799
  0
VERTEX
  5
4AE
  8
0
 10
123.2729452452609
 20
-245.5578714890209
 30
0.0
 42
0.302486768863877
  0
SEQEND
  5
682
  8
0
  0
POLYLINE
  5
10B
  8
0
 66
     1
 10
0.0
 20
0.0
 30
0.0
 70
     1
  0
VERTEX
  5
4AF
  8
0
 10
173.3686486886162
 20
-165.4683106587419
 30
0.0
 42
0.4142135623730951
  0
VERTEX
  5
4B0
  8
0
 10
175.8578486886061
 20
-162.9791106587518
 30
0.0
 42
0.4142135623730951
  0
VERTEX
  5
4B1
  8
0
 10
173.3686486886162
 20
-160.4899106587618
 30
0.0
 42
0.4142135623730951
  0
VERTEX
  5
4B2
  8
0
 10
170.8794486886261
 20
-162.9791106587518
 30
0.0
 42
0.4142135623730951
  0
SEQEND
  5
683
  8
0
  0
POLYLINE
  5
10C
  8
0
 66
     1
 10
0.0
 20
0.0
 30
0.0
 70
     1
  0
VERTEX
  5
4B3
  8
0
 10
123.9772400229334
 20
-165.4683106587418
 30
0.0
 42
0.4142135623730951
  0
VERTEX
  5
4B4
  8
0
 10
126.4664400229235
 20
-162.9791106587518
 30
0.0
 42
0.4142135623730951
  0
VERTEX
  5
4B5
  8
0
 10
123.9772400229334
 20
-160.4899106587618
 30
0.0
 42
0.4142135623730951
  0
VERTEX
  5
4B6
  8
0
 10
121.4880400229434
 20
-162.9791106587518
 30
0.0
 42
0.4142135623730951
  0
SEQEND
  5
684
  8
0
  0
POLYLINE
  5
10D
  8
0
 66
     1
 10
0.0
 20
0.0
 30
0.0
 70
     1
  0
VERTEX
  5
4B7
  8
0
 10
167.7229443556985
 20
-248.0945106584113
 30
0.0
 42
0.4142135623730951
  0
VERTEX
  5
4B8
  8
0
 10
170.2629443556884
 20
-245.5545106584215
 30
0.0
 42
0.4142135623730951
  0
VERTEX
  5
4B9
  8
0
 10
167.7229443556985
 20
-243.0145106584316
 30
0.0
 42
0.4142135623730951
  0
VERTEX
  5
4BA
  8
0
 10
165.1829443557088
 20
-245.5545106584215
 30
0.0
 42
0.4142135623730951
  0
SEQEND
  5
685
  8
0
  0
POLYLINE
  5
10E
  8
0
 66
     1
 10
0.0
 20
0.0
 30
0.0
 70
     1
  0
VERTEX
  5
4BB
  8
0
 10
129.6229443558509
 20
-248.0945106584113
 30
0.0
 42
0.4142135623730951
  0
VERTEX
  5
4BC
  8
0
 10
132.1629443558408
 20
-245.5545106584215
 30
0.0
 42
0.4142135623730951
  0
VERTEX
  5
4BD
  8
0
 10
129.6229443558509
 20
-243.0145106584316
 30
0.0
 42
0.4142135623730951
  0
VERTEX
  5
4BE
  8
0
 10
127.0829443558611
 20
-245.5545106584215
 30
0.0
 42
0.4142135623730951
  0
SEQEND
  5
686
  8
0
  0
POLYLINE
  5
10F
  8
0
 66
     1
 10
0.0
 20
0.0
 30
0.0
 70
     1
  0
VERTEX
  5
4BF
  8
0
 10
148.6729443557747
 20
-276.669510658297
 30
0.0
 42
0.4142135623730951
  0
VERTEX
  5
4C0
  8
0
 10
151.2129443557646
 20
-274.1295106583071
 30
0.0
 42
0.4142135623730951
  0
VERTEX
  5
4C1
  8
0
 10
148.6729443557747
 20
-271.5895106583173
 30
0.0
 42
0.4142135623730951
  0
VERTEX
  5
4C2
  8
0
 10
146.132944355785
 20
-274.1295106583071
 30
0.0
 42
0.4142135623730951
  0
SEQEND
  5
687
  8
0
  0
POLYLINE
  5
110
  8
0
 66
     1
 10
0.0
 20
0.0
 30
0.0
 70
     1
  0
VERTEX
  5
4C3
  8
0
 10
148.6729443557747
 20
-266.1920106583389
 30
0.0
 42
0.4142135623730951
  0
VERTEX
  5
4C4
  8
0
 10
162.9604443557176
 20
-251.904510658396
 30
0.0
 42
0.4142135623730951
  0
VERTEX
  5
4C5
  8
0
 10
148.6729443557747
 20
-237.6170106584532
 30
0.0
 42
0.4142135623730951
  0
VERTEX
  5
4C6
  8
0
 10
134.3854443558319
 20
-251.904510658396
 30
0.0
 42
0.4142135623730951
  0
SEQEND
  5
688
  8
0
  0
POLYLINE
  5
111
  8
0
 66
     1
 10
0.0
 20
0.0
 30
0.0
 70
     1
  0
VERTEX
  5
4C7
  8
0
 10
162.6183540111243
 20
280.7825948399665
 30
0.0
 42
0.200275232210231
  0
VERTEX
  5
4C8
  8
0
 10
157.727534700333
 20
280.7825948399665
 30
0.0
 42
0.3024867688638771
  0
VERTEX
  5
4C9
  8
0
 10
134.7729452452148
 20
246.3507106572892
 30
0.0
 42
0.1107700595863796
  0
VERTEX
  5
4CA
  8
0
 10
135.3798068652605
 20
243.638314617546
 30
0.0
 42
-0.2652072234382152
  0
VERTEX
  5
4CB
  8
0
 10
129.4766593782266
 20
167.843827135646
 30
0.0
 42
0.4717097097040647
  0
VERTEX
  5
4CC
  8
0
 10
132.6268648555004
 20
157.103928059305
 30
0.0
 42
0.4717097097040644
  0
VERTEX
  5
4CD
  8
0
 10
142.5670232672382
 20
162.2480973283508
 30
0.0
 42
-0.8079016387229581
  0
VERTEX
  5
4CE
  8
0
 10
177.7788654442192
 20
162.2480973283508
 30
0.0
 42
0.4717097097040654
  0
VERTEX
  5
4CF
  8
0
 10
187.7190238559569
 20
157.103928059305
 30
0.0
 42
0.4717097097040643
  0
VERTEX
  5
4D0
  8
0
 10
190.8692293332308
 20
167.843827135646
 30
0.0
 42
-0.2652072234382151
  0
VERTEX
  5
4D1
  8
0
 10
184.9660818461969
 20
243.638314617546
 30
0.0
 42
0.1107700595863799
  0
VERTEX
  5
4D2
  8
0
 10
185.5729434662426
 20
246.3507106572892
 30
0.0
 42
0.302486768863877
  0
SEQEND
  5
689
  8
0
  0
POLYLINE
  5
112
  8
0
 66
     1
 10
0.0
 20
0.0
 30
0.0
 70
     1
  0
VERTEX
  5
4D3
  8
0
 10
135.4772400228873
 20
166.2611498270101
 30
0.0
 42
0.4142135623730951
  0
VERTEX
  5
4D4
  8
0
 10
132.9880400228973
 20
163.7719498270201
 30
0.0
 42
0.4142135623730951
  0
VERTEX
  5
4D5
  8
0
 10
135.4772400228873
 20
161.28274982703
 30
0.0
 42
0.4142135623730951
  0
VERTEX
  5
4D6
  8
0
 10
137.9664400228774
 20
163.7719498270201
 30
0.0
 42
0.4142135623730951
  0
SEQEND
  5
68A
  8
0
  0
POLYLINE
  5
113
  8
0
 66
     1
 10
0.0
 20
0.0
 30
0.0
 70
     1
  0
VERTEX
  5
4D7
  8
0
 10
184.8686486885701
 20
166.2611498270101
 30
0.0
 42
0.4142135623730951
  0
VERTEX
  5
4D8
  8
0
 10
182.37944868858
 20
163.7719498270201
 30
0.0
 42
0.4142135623730951
  0
VERTEX
  5
4D9
  8
0
 10
184.8686486885701
 20
161.28274982703
 30
0.0
 42
0.4142135623730951
  0
VERTEX
  5
4DA
  8
0
 10
187.3578486885601
 20
163.7719498270201
 30
0.0
 42
0.4142135623730951
  0
SEQEND
  5
68B
  8
0
  0
POLYLINE
  5
114
  8
0
 66
     1
 10
0.0
 20
0.0
 30
0.0
 70
     1
  0
VERTEX
  5
4DB
  8
0
 10
141.1229443558049
 20
248.8873498266796
 30
0.0
 42
0.4142135623730951
  0
VERTEX
  5
4DC
  8
0
 10
138.582944355815
 20
246.3473498266898
 30
0.0
 42
0.4142135623730951
  0
VERTEX
  5
4DD
  8
0
 10
141.1229443558049
 20
243.8073498266999
 30
0.0
 42
0.4142135623730951
  0
VERTEX
  5
4DE
  8
0
 10
143.6629443557947
 20
246.3473498266898
 30
0.0
 42
0.4142135623730951
  0
SEQEND
  5
68C
  8
0
  0
POLYLINE
  5
115
  8
0
 66
     1
 10
0.0
 20
0.0
 30
0.0
 70
     1
  0
VERTEX
  5
4DF
  8
0
 10
179.2229443556524
 20
248.8873498266796
 30
0.0
 42
0.4142135623730951
  0
VERTEX
  5
4E0
  8
0
 10
176.6829443556627
 20
246.3473498266898
 30
0.0
 42
0.4142135623730951
  0
VERTEX
  5
4E1
  8
0
 10
179.2229443556524
 20
243.8073498266999
 30
0.0
 42
0.4142135623730951
  0
VERTEX
  5
4E2
  8
0
 10
181.7629443556424
 20
246.3473498266898
 30
0.0
 42
0.4142135623730951
  0
SEQEND
  5
68D
  8
0
  0
POLYLINE
  5
116
  8
0
 66
     1
 10
0.0
 20
0.0
 30
0.0
 70
     1
  0
VERTEX
  5
4E3
  8
0
 10
160.1729443557287
 20
277.4623498265653
 30
0.0
 42
0.4142135623730951
  0
VERTEX
  5
4E4
  8
0
 10
157.6329443557388
 20
274.9223498265755
 30
0.0
 42
0.4142135623730951
  0
VERTEX
  5
4E5
  8
0
 10
160.1729443557287
 20
272.3823498265856
 30
0.0
 42
0.4142135623730951
  0
VERTEX
  5
4E6
  8
0
 10
162.7129443557185
 20
274.9223498265755
 30
0.0
 42
0.4142135623730951
  0
SEQEND
  5
68E
  8
0
  0
POLYLINE
  5
117
  8
0
 66
     1
 10
0.0
 20
0.0
 30
0.0
 70
     1
  0
VERTEX
  5
4E7
  8
0
 10
160.1729443557287
 20
266.9848498266073
 30
0.0
 42
0.4142135623730951
  0
VERTEX
  5
4E8
  8
0
 10
145.8854443557858
 20
252.6973498266643
 30
0.0
 42
0.4142135623730951
  0
VERTEX
  5
4E9
  8
0
 10
160.1729443557287
 20
238.4098498267215
 30
0.0
 42
0.4142135623730951
  0
VERTEX
  5
4EA
  8
0
 10
174.4604443556715
 20
252.6973498266643
 30
0.0
 42
0.4142135623730951
  0
SEQEND
  5
68F
  8
0
  0
POLYLINE
  5
118
  8
0
 66
     1
 10
0.0
 20
0.0
 30
0.0
 70
     1
  0
VERTEX
  5
4EB
  8
0
 10
119.0264952133448
 20
-4.946565790609363
 30
0.0
 42
0.200275232210231
  0
VERTEX
  5
4EC
  8
0
 10
122.4848267135634
 20
-8.40489729082793
 30
0.0
 42
0.3024867688638771
  0
VERTEX
  5
4ED
  8
0
 10
163.0631913712318
 20
-0.2892243592943064
 30
0.0
 42
0.1107700595863796
  0
VERTEX
  5
4EE
  8
0
 10
164.5520290374215
 20
2.057845240447797
 30
0.0
 42
-0.2652072234382152
  0
VERTEX
  5
4EF
  8
0
 10
222.3209807308579
 20
51.47848569703219
 30
0.0
 42
0.4717097097040647
  0
VERTEX
  5
4F0
  8
0
 10
227.6877045418864
 20
61.30027281828339
 30
0.0
 42
0.4717097097040644
  0
VERTEX
  5
4F1
  8
0
 10
217.0214741491644
 20
64.69154926357795
 30
0.0
 42
-0.8079016387229581
  0
VERTEX
  5
4F2
  8
0
 10
192.1229417677507
 20
89.5900816449917
 30
0.0
 42
0.4717097097040654
  0
VERTEX
  5
4F3
  8
0
 10
188.7316653224561
 20
100.2563120377137
 30
0.0
 42
0.4717097097040643
  0
VERTEX
  5
4F4
  8
0
 10
178.9098782012049
 20
94.8895882266852
 30
0.0
 42
-0.2652072234382151
  0
VERTEX
  5
4F5
  8
0
 10
129.4892377446205
 20
37.12063653324876
 30
0.0
 42
0.1107700595863799
  0
VERTEX
  5
4F6
  8
0
 10
127.1421681448785
 20
35.63179886705898
 30
0.0
 42
0.302486768863877
  0
SEQEND
  5
690
  8
0
  0
POLYLINE
  5
119
  8
0
 66
     1
 10
0.0
 20
0.0
 30
0.0
 70
     1
  0
VERTEX
  5
4F7
  8
0
 10
219.197051323328
 20
56.840658819295
 30
0.0
 42
0.4142135623730951
  0
VERTEX
  5
4F8
  8
0
 10
222.717311722773
 20
56.840658819295
 30
0.0
 42
0.4142135623730951
  0
VERTEX
  5
4F9
  8
0
 10
222.7173117227731
 20
60.36091921874004
 30
0.0
 42
0.4142135623730951
  0
VERTEX
  5
4FA
  8
0
 10
219.197051323328
 20
60.36091921874004
 30
0.0
 42
0.4142135623730951
  0
SEQEND
  5
691
  8
0
  0
POLYLINE
  5
11A
  8
0
 66
     1
 10
0.0
 20
0.0
 30
0.0
 70
     1
  0
VERTEX
  5
4FB
  8
0
 10
184.2720513234678
 20
91.76565881915526
 30
0.0
 42
0.4142135623730951
  0
VERTEX
  5
4FC
  8
0
 10
187.7923117229128
 20
91.76565881915526
 30
0.0
 42
0.4142135623730951
  0
VERTEX
  5
4FD
  8
0
 10
187.7923117229128
 20
95.28591921860031
 30
0.0
 42
0.4142135623730951
  0
VERTEX
  5
4FE
  8
0
 10
184.2720513234677
 20
95.28591921860031
 30
0.0
 42
0.4142135623730951
  0
SEQEND
  5
692
  8
0
  0
POLYLINE
  5
11B
  8
0
 66
     1
 10
0.0
 20
0.0
 30
0.0
 70
     1
  0
VERTEX
  5
4FF
  8
0
 10
156.7793891815056
 20
2.40722831423314
 30
0.0
 42
0.4142135623730951
  0
VERTEX
  5
500
  8
0
 10
160.3714916299189
 20
2.407228314233095
 30
0.0
 42
0.4142135623730951
  0
VERTEX
  5
501
  8
0
 10
160.3714916299189
 20
5.999330762646402
 30
0.0
 42
0.4142135623730951
  0
VERTEX
  5
502
  8
0
 10
156.7793891815056
 20
5.999330762646356
 30
0.0
 42
0.4142135623730951
  0
SEQEND
  5
693
  8
0
  0
POLYLINE
  5
11C
  8
0
 66
     1
 10
0.0
 20
0.0
 30
0.0
 70
     1
  0
VERTEX
  5
503
  8
0
 10
129.8386208184059
 20
29.3479966773328
 30
0.0
 42
0.4142135623730951
  0
VERTEX
  5
504
  8
0
 10
133.4307232668191
 20
29.3479966773328
 30
0.0
 42
0.4142135623730951
  0
VERTEX
  5
505
  8
0
 10
133.4307232668191
 20
32.94009912574606
 30
0.0
 42
0.4142135623730951
  0
VERTEX
  5
506
  8
0
 10
129.8386208184058
 20
32.94009912574611
 30
0.0
 42
0.4142135623730951
  0
SEQEND
  5
694
  8
0
  0
POLYLINE
  5
11D
  8
0
 66
     1
 10
0.0
 20
0.0
 30
0.0
 70
     1
  0
VERTEX
  5
507
  8
0
 10
123.103428727631
 20
-4.327963776541798
 30
0.0
 42
0.4142135623730951
  0
VERTEX
  5
508
  8
0
 10
126.6955311760442
 20
-4.327963776541798
 30
0.0
 42
0.4142135623730951
  0
VERTEX
  5
509
  8
0
 10
126.6955311760443
 20
-0.7358613281285364
 30
0.0
 42
0.4142135623730951
  0
VERTEX
  5
50A
  8
0
 10
123.103428727631
 20
-0.7358613281285364
 30
0.0
 42
0.4142135623730951
  0
SEQEND
  5
695
  8
0
  0
POLYLINE
  5
11E
  8
0
 66
     1
 10
0.0
 20
0.0
 30
0.0
 70
     1
  0
VERTEX
  5
50B
  8
0
 10
130.5121400274834
 20
3.080747523310562
 30
0.0
 42
0.4142135623730951
  0
VERTEX
  5
50C
  8
0
 10
150.7177162998081
 20
3.080747523310607
 30
0.0
 42
0.4142135623730951
  0
VERTEX
  5
50D
  8
0
 10
150.7177162998081
 20
23.28632379563533
 30
0.0
 42
0.4142135623730951
  0
VERTEX
  5
50E
  8
0
 10
130.5121400274834
 20
23.28632379563538
 30
0.0
 42
0.4142135623730951
  0
SEQEND
  5
696
  8
0
  0
POLYLINE
  5
11F
  8
0
 66
     1
 10
0.0
 20
0.0
 30
0.0
 70
     1
  0
VERTEX
  5
50F
  8
0
 10
193.2275347001911
 20
-154.4897556722003
 30
0.0
 42
0.200275232210231
  0
VERTEX
  5
510
  8
0
 10
198.1183540109823
 20
-154.4897556722003
 30
0.0
 42
0.3024867688638771
  0
VERTEX
  5
511
  8
0
 10
221.0729434661006
 20
-120.0578714895229
 30
0.0
 42
0.1107700595863796
  0
VERTEX
  5
512
  8
0
 10
220.4660818460549
 20
-117.3454754497797
 30
0.0
 42
-0.2652072234382152
  0
VERTEX
  5
513
  8
0
 10
226.3692293330888
 20
-41.5509879678797
 30
0.0
 42
0.4717097097040647
  0
VERTEX
  5
514
  8
0
 10
223.219023855815
 20
-30.81108889153871
 30
0.0
 42
0.4717097097040644
  0
VERTEX
  5
515
  8
0
 10
213.2788654440773
 20
-35.95525816058449
 30
0.0
 42
-0.8079016387229581
  0
VERTEX
  5
516
  8
0
 10
178.0670232670963
 20
-35.95525816058449
 30
0.0
 42
0.4717097097040654
  0
VERTEX
  5
517
  8
0
 10
168.1268648553584
 20
-30.81108889153866
 30
0.0
 42
0.4717097097040643
  0
VERTEX
  5
518
  8
0
 10
164.9766593780846
 20
-41.55098796787966
 30
0.0
 42
-0.2652072234382151
  0
VERTEX
  5
519
  8
0
 10
170.8798068651186
 20
-117.3454754497797
 30
0.0
 42
0.1107700595863799
  0
VERTEX
  5
51A
  8
0
 10
170.2729452450728
 20
-120.0578714895229
 30
0.0
 42
0.302486768863877
  0
SEQEND
  5
697
  8
0
  0
POLYLINE
  5
120
  8
0
 66
     1
 10
0.0
 20
0.0
 30
0.0
 70
     1
  0
VERTEX
  5
51B
  8
0
 10
220.3686486884281
 20
-39.96831065924389
 30
0.0
 42
0.4142135623730951
  0
VERTEX
  5
51C
  8
0
 10
222.8578486884181
 20
-37.47911065925384
 30
0.0
 42
0.4142135623730951
  0
VERTEX
  5
51D
  8
0
 10
220.3686486884281
 20
-34.98991065926379
 30
0.0
 42
0.4142135623730951
  0
VERTEX
  5
51E
  8
0
 10
217.879448688438
 20
-37.47911065925384
 30
0.0
 42
0.4142135623730951
  0
SEQEND
  5
698
  8
0
  0
POLYLINE
  5
121
  8
0
 66
     1
 10
0.0
 20
0.0
 30
0.0
 70
     1
  0
VERTEX
  5
51F
  8
0
 10
170.9772400227453
 20
-39.96831065924389
 30
0.0
 42
0.4142135623730951
  0
VERTEX
  5
520
  8
0
 10
173.4664400227354
 20
-37.47911065925384
 30
0.0
 42
0.4142135623730951
  0
VERTEX
  5
521
  8
0
 10
170.9772400227453
 20
-34.98991065926379
 30
0.0
 42
0.4142135623730951
  0
VERTEX
  5
522
  8
0
 10
168.4880400227553
 20
-37.47911065925384
 30
0.0
 42
0.4142135623730951
  0
SEQEND
  5
699
  8
0
  0
POLYLINE
  5
122
  8
0
 66
     1
 10
0.0
 20
0.0
 30
0.0
 70
     1
  0
VERTEX
  5
523
  8
0
 10
214.7229443555105
 20
-122.5945106589133
 30
0.0
 42
0.4142135623730951
  0
VERTEX
  5
524
  8
0
 10
217.2629443555004
 20
-120.0545106589235
 30
0.0
 42
0.4142135623730951
  0
VERTEX
  5
525
  8
0
 10
214.7229443555105
 20
-117.5145106589337
 30
0.0
 42
0.4142135623730951
  0
VERTEX
  5
526
  8
0
 10
212.1829443555207
 20
-120.0545106589235
 30
0.0
 42
0.4142135623730951
  0
SEQEND
  5
69A
  8
0
  0
POLYLINE
  5
123
  8
0
 66
     1
 10
0.0
 20
0.0
 30
0.0
 70
     1
  0
VERTEX
  5
527
  8
0
 10
176.6229443556629
 20
-122.5945106589133
 30
0.0
 42
0.4142135623730951
  0
VERTEX
  5
528
  8
0
 10
179.1629443556527
 20
-120.0545106589235
 30
0.0
 42
0.4142135623730951
  0
VERTEX
  5
529
  8
0
 10
176.6229443556629
 20
-117.5145106589337
 30
0.0
 42
0.4142135623730951
  0
VERTEX
  5
52A
  8
0
 10
174.0829443556731
 20
-120.0545106589235
 30
0.0
 42
0.4142135623730951
  0
SEQEND
  5
69B
  8
0
  0
POLYLINE
  5
124
  8
0
 66
     1
 10
0.0
 20
0.0
 30
0.0
 70
     1
  0
VERTEX
  5
52B
  8
0
 10
195.6729443555868
 20
-151.169510658799
 30
0.0
 42
0.4142135623730951
  0
VERTEX
  5
52C
  8
0
 10
198.2129443555765
 20
-148.6295106588092
 30
0.0
 42
0.4142135623730951
  0
VERTEX
  5
52D
  8
0
 10
195.6729443555868
 20
-146.0895106588194
 30
0.0
 42
0.4142135623730951
  0
VERTEX
  5
52E
  8
0
 10
193.1329443555968
 20
-148.6295106588092
 30
0.0
 42
0.4142135623730951
  0
SEQEND
  5
69C
  8
0
  0
POLYLINE
  5
125
  8
0
 66
     1
 10
0.0
 20
0.0
 30
0.0
 70
     1
  0
VERTEX
  5
52F
  8
0
 10
195.6729443555868
 20
-140.692010658841
 30
0.0
 42
0.4142135623730951
  0
VERTEX
  5
530
  8
0
 10
209.9604443555296
 20
-126.4045106588981
 30
0.0
 42
0.4142135623730951
  0
VERTEX
  5
531
  8
0
 10
195.6729443555868
 20
-112.1170106589553
 30
0.0
 42
0.4142135623730951
  0
VERTEX
  5
532
  8
0
 10
181.3854443556439
 20
-126.4045106588981
 30
0.0
 42
0.4142135623730951
  0
SEQEND
  5
69D
  8
0
  0
POLYLINE
  5
126
  8
0
 66
     1
 10
0.0
 20
0.0
 30
0.0
 70
     1
  0
VERTEX
  5
533
  8
0
 10
200.1183540109743
 20
-169.7174051582314
 30
0.0
 42
0.200275232210231
  0
VERTEX
  5
534
  8
0
 10
195.227534700183
 20
-169.7174051582314
 30
0.0
 42
0.3024867688638771
  0
VERTEX
  5
535
  8
0
 10
172.2729452450648
 20
-204.1492893409088
 30
0.0
 42
0.1107700595863796
  0
VERTEX
  5
536
  8
0
 10
172.8798068651105
 20
-206.8616853806519
 30
0.0
 42
-0.2652072234382152
  0
VERTEX
  5
537
  8
0
 10
166.9766593780766
 20
-282.656172862552
 30
0.0
 42
0.4717097097040647
  0
VERTEX
  5
538
  8
0
 10
170.1268648553504
 20
-293.396071938893
 30
0.0
 42
0.4717097097040644
  0
VERTEX
  5
539
  8
0
 10
180.0670232670882
 20
-288.2519026698472
 30
0.0
 42
-0.8079016387229581
  0
VERTEX
  5
53A
  8
0
 10
215.2788654440691
 20
-288.2519026698472
 30
0.0
 42
0.4717097097040654
  0
VERTEX
  5
53B
  8
0
 10
225.2190238558069
 20
-293.396071938893
 30
0.0
 42
0.4717097097040643
  0
VERTEX
  5
53C
  8
0
 10
228.3692293330808
 20
-282.656172862552
 30
0.0
 42
-0.2652072234382151
  0
VERTEX
  5
53D
  8
0
 10
222.4660818460468
 20
-206.8616853806519
 30
0.0
 42
0.1107700595863799
  0
VERTEX
  5
53E
  8
0
 10
223.0729434660925
 20
-204.1492893409088
 30
0.0
 42
0.302486768863877
  0
SEQEND
  5
69E
  8
0
  0
POLYLINE
  5
127
  8
0
 66
     1
 10
0.0
 20
0.0
 30
0.0
 70
     1
  0
VERTEX
  5
53F
  8
0
 10
172.9772400227373
 20
-284.2388501711878
 30
0.0
 42
0.4142135623730951
  0
VERTEX
  5
540
  8
0
 10
170.4880400227472
 20
-286.7280501711778
 30
0.0
 42
0.4142135623730951
  0
VERTEX
  5
541
  8
0
 10
172.9772400227373
 20
-289.2172501711679
 30
0.0
 42
0.4142135623730951
  0
VERTEX
  5
542
  8
0
 10
175.4664400227273
 20
-286.7280501711778
 30
0.0
 42
0.4142135623730951
  0
SEQEND
  5
69F
  8
0
  0
POLYLINE
  5
128
  8
0
 66
     1
 10
0.0
 20
0.0
 30
0.0
 70
     1
  0
VERTEX
  5
543
  8
0
 10
222.36864868842
 20
-284.2388501711878
 30
0.0
 42
0.4142135623730951
  0
VERTEX
  5
544
  8
0
 10
219.87944868843
 20
-286.7280501711778
 30
0.0
 42
0.4142135623730951
  0
VERTEX
  5
545
  8
0
 10
222.36864868842
 20
-289.2172501711679
 30
0.0
 42
0.4142135623730951
  0
VERTEX
  5
546
  8
0
 10
224.8578486884101
 20
-286.7280501711778
 30
0.0
 42
0.4142135623730951
  0
SEQEND
  5
6A0
  8
0
  0
POLYLINE
  5
129
  8
0
 66
     1
 10
0.0
 20
0.0
 30
0.0
 70
     1
  0
VERTEX
  5
547
  8
0
 10
178.6229443556549
 20
-201.6126501715183
 30
0.0
 42
0.4142135623730951
  0
VERTEX
  5
548
  8
0
 10
176.082944355665
 20
-204.1526501715082
 30
0.0
 42
0.4142135623730951
  0
VERTEX
  5
549
  8
0
 10
178.6229443556549
 20
-206.692650171498
 30
0.0
 42
0.4142135623730951
  0
VERTEX
  5
54A
  8
0
 10
181.1629443556446
 20
-204.1526501715082
 30
0.0
 42
0.4142135623730951
  0
SEQEND
  5
6A1
  8
0
  0
POLYLINE
  5
12A
  8
0
 66
     1
 10
0.0
 20
0.0
 30
0.0
 70
     1
  0
VERTEX
  5
54B
  8
0
 10
216.7229443555024
 20
-201.6126501715183
 30
0.0
 42
0.4142135623730951
  0
VERTEX
  5
54C
  8
0
 10
214.1829443555127
 20
-204.1526501715082
 30
0.0
 42
0.4142135623730951
  0
VERTEX
  5
54D
  8
0
 10
216.7229443555024
 20
-206.692650171498
 30
0.0
 42
0.4142135623730951
  0
VERTEX
  5
54E
  8
0
 10
219.2629443554923
 20
-204.1526501715082
 30
0.0
 42
0.4142135623730951
  0
SEQEND
  5
6A2
  8
0
  0
POLYLINE
  5
12B
  8
0
 66
     1
 10
0.0
 20
0.0
 30
0.0
 70
     1
  0
VERTEX
  5
54F
  8
0
 10
197.6729443555786
 20
-173.0376501716327
 30
0.0
 42
0.4142135623730951
  0
VERTEX
  5
550
  8
0
 10
195.1329443555888
 20
-175.5776501716225
 30
0.0
 42
0.4142135623730951
  0
VERTEX
  5
551
  8
0
 10
197.6729443555786
 20
-178.1176501716123
 30
0.0
 42
0.4142135623730951
  0
VERTEX
  5
552
  8
0
 10
200.2129443555685
 20
-175.5776501716225
 30
0.0
 42
0.4142135623730951
  0
SEQEND
  5
6A3
  8
0
  0
POLYLINE
  5
12C
  8
0
 66
     1
 10
0.0
 20
0.0
 30
0.0
 70
     1
  0
VERTEX
  5
553
  8
0
 10
197.6729443555786
 20
-183.5151501715907
 30
0.0
 42
0.4142135623730951
  0
VERTEX
  5
554
  8
0
 10
183.3854443556358
 20
-197.8026501715336
 30
0.0
 42
0.4142135623730951
  0
VERTEX
  5
555
  8
0
 10
197.6729443555786
 20
-212.0901501714764
 30
0.0
 42
0.4142135623730951
  0
VERTEX
  5
556
  8
0
 10
211.9604443555215
 20
-197.8026501715336
 30
0.0
 42
0.4142135623730951
  0
SEQEND
  5
6A4
  8
0
  0
POLYLINE
  5
12D
  8
0
 66
     1
 10
0.0
 20
0.0
 30
0.0
 70
     1
  0
VERTEX
  5
557
  8
0
 10
212.7712673241164
 20
239.9670108711286
 30
0.0
  0
VERTEX
  5
558
  8
0
 10
208.3920747331163
 20
239.9670108711286
 30
0.0
 42
0.9999999999999998
  0
VERTEX
  5
559
  8
0
 10
208.3920747331163
 20
223.9396108711287
 30
0.0
  0
VERTEX
  5
55A
  8
0
 10
259.1920747331163
 20
223.9396108711086
 30
0.0
 42
0.9999999999999998
  0
VERTEX
  5
55B
  8
0
 10
259.1920747331163
 20
239.9670108711286
 30
0.0
  0
VERTEX
  5
55C
  8
0
 10
254.8128821421164
 20
239.9670108711286
 30
0.0
 42
-0.5527827864141922
  0
VERTEX
  5
55D
  8
0
 10
249.0925938779509
 20
249.0739661073884
 30
0.0
  0
VERTEX
  5
55E
  8
0
 10
252.0880196711163
 20
255.2890467102086
 30
0.0
 42
0.552782786403311
  0
VERTEX
  5
55F
  8
0
 10
233.7920747332568
 20
284.4170108711969
 30
0.0
 42
0.5527827864033111
  0
VERTEX
  5
560
  8
0
 10
215.4961297952754
 20
255.2890467102853
 30
0.0
  0
VERTEX
  5
561
  8
0
 10
218.4915555881163
 20
249.0739661073086
 30
0.0
 42
-0.552782786414193
  0
SEQEND
  5
6A5
  8
0
  0
POLYLINE
  5
12E
  8
0
 66
     1
 10
0.0
 20
0.0
 30
0.0
 70
     1
  0
VERTEX
  5
562
  8
0
 10
228.0717864691164
 20
243.8220918353786
 30
0.0
  0
VERTEX
  5
563
  8
0
 10
221.2164180591164
 20
258.0460019463086
 30
0.0
 42
-0.552782786400468
  0
VERTEX
  5
564
  8
0
 10
233.7920747327951
 20
278.0670108713104
 30
0.0
 42
-0.5527827864004682
  0
VERTEX
  5
565
  8
0
 10
246.3677314067528
 20
258.0460019464838
 30
0.0
  0
VERTEX
  5
566
  8
0
 10
239.5123629971164
 20
243.8220918353786
 30
0.0
 42
-0.6281230241958812
  0
SEQEND
  5
6A6
  8
0
  0
POLYLINE
  5
12F
  8
0
 66
     1
 10
0.0
 20
0.0
 30
0.0
 70
     1
  0
VERTEX
  5
567
  8
0
 10
259.1920747331163
 20
234.8870108711286
 30
0.0
 42
0.4142135623730951
  0
VERTEX
  5
568
  8
0
 10
256.2583747331163
 20
231.9533108711286
 30
0.0
 42
0.4142135623730951
  0
VERTEX
  5
569
  8
0
 10
259.1920747331163
 20
229.0196108711286
 30
0.0
 42
0.4142135623730951
  0
VERTEX
  5
56A
  8
0
 10
262.1257747331164
 20
231.9533108711286
 30
0.0
 42
0.4142135623730951
  0
SEQEND
  5
6A7
  8
0
  0
POLYLINE
  5
130
  8
0
 66
     1
 10
0.0
 20
0.0
 30
0.0
 70
     1
  0
VERTEX
  5
56B
  8
0
 10
208.3920747331163
 20
234.8870108711286
 30
0.0
 42
0.4142135623730951
  0
VERTEX
  5
56C
  8
0
 10
205.4583747331164
 20
231.9533108711286
 30
0.0
 42
0.4142135623730951
  0
VERTEX
  5
56D
  8
0
 10
208.3920747331163
 20
229.0196108711286
 30
0.0
 42
0.4142135623730951
  0
VERTEX
  5
56E
  8
0
 10
211.3257747331164
 20
231.9533108711286
 30
0.0
 42
0.4142135623730951
  0
SEQEND
  5
6A8
  8
0
  0
POLYLINE
  5
131
  8
0
 66
     1
 10
0.0
 20
0.0
 30
0.0
 70
     1
  0
VERTEX
  5
56F
  8
0
 10
212.7712673241114
 20
174.6148734035766
 30
0.0
  0
VERTEX
  5
570
  8
0
 10
208.3920747331113
 20
174.6148734035766
 30
0.0
 42
0.9999999999999998
  0
VERTEX
  5
571
  8
0
 10
208.3920747331113
 20
158.5874734035766
 30
0.0
  0
VERTEX
  5
572
  8
0
 10
259.1920747331113
 20
158.5874734035566
 30
0.0
 42
0.9999999999999998
  0
VERTEX
  5
573
  8
0
 10
259.1920747331113
 20
174.6148734035766
 30
0.0
  0
VERTEX
  5
574
  8
0
 10
254.8128821421114
 20
174.6148734035766
 30
0.0
 42
-0.5527827864141922
  0
VERTEX
  5
575
  8
0
 10
249.0925938779459
 20
183.7218286398364
 30
0.0
  0
VERTEX
  5
576
  8
0
 10
252.0880196711113
 20
189.9369092426566
 30
0.0
 42
0.552782786403311
  0
VERTEX
  5
577
  8
0
 10
233.7920747332518
 20
219.0648734036448
 30
0.0
 42
0.5527827864033111
  0
VERTEX
  5
578
  8
0
 10
215.4961297952703
 20
189.9369092427332
 30
0.0
  0
VERTEX
  5
579
  8
0
 10
218.4915555881113
 20
183.7218286397566
 30
0.0
 42
-0.552782786414193
  0
SEQEND
  5
6A9
  8
0
  0
POLYLINE
  5
132
  8
0
 66
     1
 10
0.0
 20
0.0
 30
0.0
 70
     1
  0
VERTEX
  5
57A
  8
0
 10
228.0717864691114
 20
178.4699543678266
 30
0.0
  0
VERTEX
  5
57B
  8
0
 10
221.2164180591114
 20
192.6938644787566
 30
0.0
 42
-0.552782786400468
  0
VERTEX
  5
57C
  8
0
 10
233.7920747327901
 20
212.7148734037584
 30
0.0
 42
-0.5527827864004682
  0
VERTEX
  5
57D
  8
0
 10
246.3677314067478
 20
192.6938644789318
 30
0.0
  0
VERTEX
  5
57E
  8
0
 10
239.5123629971114
 20
178.4699543678266
 30
0.0
 42
-0.6281230241958812
  0
SEQEND
  5
6AA
  8
0
  0
POLYLINE
  5
133
  8
0
 66
     1
 10
0.0
 20
0.0
 30
0.0
 70
     1
  0
VERTEX
  5
57F
  8
0
 10
259.1920747331113
 20
169.5348734035766
 30
0.0
 42
0.4142135623730951
  0
VERTEX
  5
580
  8
0
 10
256.2583747331113
 20
166.6011734035766
 30
0.0
 42
0.4142135623730951
  0
VERTEX
  5
581
  8
0
 10
259.1920747331113
 20
163.6674734035766
 30
0.0
 42
0.4142135623730951
  0
VERTEX
  5
582
  8
0
 10
262.1257747331114
 20
166.6011734035766
 30
0.0
 42
0.4142135623730951
  0
SEQEND
  5
6AB
  8
0
  0
POLYLINE
  5
134
  8
0
 66
     1
 10
0.0
 20
0.0
 30
0.0
 70
     1
  0
VERTEX
  5
583
  8
0
 10
208.3920747331113
 20
169.5348734035766
 30
0.0
 42
0.4142135623730951
  0
VERTEX
  5
584
  8
0
 10
205.4583747331114
 20
166.6011734035766
 30
0.0
 42
0.4142135623730951
  0
VERTEX
  5
585
  8
0
 10
208.3920747331113
 20
163.6674734035766
 30
0.0
 42
0.4142135623730951
  0
VERTEX
  5
586
  8
0
 10
211.3257747331114
 20
166.6011734035766
 30
0.0
 42
0.4142135623730951
  0
SEQEND
  5
6AC
  8
0
  0
POLYLINE
  5
135
  8
0
 66
     1
 10
0.0
 20
0.0
 30
0.0
 70
     1
  0
VERTEX
  5
587
  8
0
 10
212.7712673241064
 20
104.8320825483936
 30
0.0
  0
VERTEX
  5
588
  8
0
 10
208.3920747331063
 20
104.8320825483936
 30
0.0
 42
0.9999999999999998
  0
VERTEX
  5
589
  8
0
 10
208.3920747331063
 20
88.80468254839366
 30
0.0
  0
VERTEX
  5
58A
  8
0
 10
259.1920747331063
 20
88.80468254837365
 30
0.0
 42
0.9999999999999998
  0
VERTEX
  5
58B
  8
0
 10
259.1920747331063
 20
104.8320825483936
 30
0.0
  0
VERTEX
  5
58C
  8
0
 10
254.8128821421064
 20
104.8320825483936
 30
0.0
 42
-0.5527827864141922
  0
VERTEX
  5
58D
  8
0
 10
249.0925938779409
 20
113.9390377846534
 30
0.0
  0
VERTEX
  5
58E
  8
0
 10
252.0880196711063
 20
120.1541183874736
 30
0.0
 42
0.552782786403311
  0
VERTEX
  5
58F
  8
0
 10
233.7920747332468
 20
149.2820825484619
 30
0.0
 42
0.5527827864033111
  0
VERTEX
  5
590
  8
0
 10
215.4961297952653
 20
120.1541183875503
 30
0.0
  0
VERTEX
  5
591
  8
0
 10
218.4915555881063
 20
113.9390377845737
 30
0.0
 42
-0.552782786414193
  0
SEQEND
  5
6AD
  8
0
  0
POLYLINE
  5
136
  8
0
 66
     1
 10
0.0
 20
0.0
 30
0.0
 70
     1
  0
VERTEX
  5
592
  8
0
 10
228.0717864691064
 20
108.6871635126437
 30
0.0
  0
VERTEX
  5
593
  8
0
 10
221.2164180591064
 20
122.9110736235737
 30
0.0
 42
-0.552782786400468
  0
VERTEX
  5
594
  8
0
 10
233.7920747327851
 20
142.9320825485754
 30
0.0
 42
-0.5527827864004682
  0
VERTEX
  5
595
  8
0
 10
246.3677314067428
 20
122.9110736237488
 30
0.0
  0
VERTEX
  5
596
  8
0
 10
239.5123629971064
 20
108.6871635126437
 30
0.0
 42
-0.6281230241958812
  0
SEQEND
  5
6AE
  8
0
  0
POLYLINE
  5
137
  8
0
 66
     1
 10
0.0
 20
0.0
 30
0.0
 70
     1
  0
VERTEX
  5
597
  8
0
 10
259.1920747331063
 20
99.75208254839364
 30
0.0
 42
0.4142135623730951
  0
VERTEX
  5
598
  8
0
 10
256.2583747331063
 20
96.81838254839363
 30
0.0
 42
0.4142135623730951
  0
VERTEX
  5
599
  8
0
 10
259.1920747331063
 20
93.88468254839364
 30
0.0
 42
0.4142135623730951
  0
VERTEX
  5
59A
  8
0
 10
262.1257747331064
 20
96.81838254839363
 30
0.0
 42
0.4142135623730951
  0
SEQEND
  5
6AF
  8
0
  0
POLYLINE
  5
138
  8
0
 66
     1
 10
0.0
 20
0.0
 30
0.0
 70
     1
  0
VERTEX
  5
59B
  8
0
 10
208.3920747331063
 20
99.75208254839364
 30
0.0
 42
0.4142135623730951
  0
VERTEX
  5
59C
  8
0
 10
205.4583747331064
 20
96.81838254839363
 30
0.0
 42
0.4142135623730951
  0
VERTEX
  5
59D
  8
0
 10
208.3920747331063
 20
93.88468254839364
 30
0.0
 42
0.4142135623730951
  0
VERTEX
  5
59E
  8
0
 10
211.3257747331064
 20
96.81838254839363
 30
0.0
 42
0.4142135623730951
  0
SEQEND
  5
6B0
  8
0
  0
POLYLINE
  5
139
  8
0
 66
     1
 10
0.0
 20
0.0
 30
0.0
 70
     1
  0
VERTEX
  5
59F
  8
0
 10
236.0321976091773
 20
32.83396499939548
 30
0.0
  0
VERTEX
  5
5A0
  8
0
 10
231.6530050181773
 20
32.83396499939548
 30
0.0
 42
0.9999999999999998
  0
VERTEX
  5
5A1
  8
0
 10
231.6530050181773
 20
16.8065649993955
 30
0.0
  0
VERTEX
  5
5A2
  8
0
 10
282.4530050181772
 20
16.8065649993755
 30
0.0
 42
0.9999999999999998
  0
VERTEX
  5
5A3
  8
0
 10
282.4530050181772
 20
32.83396499939548
 30
0.0
  0
VERTEX
  5
5A4
  8
0
 10
278.0738124271772
 20
32.83396499939548
 30
0.0
 42
-0.5527827864141922
  0
VERTEX
  5
5A5
  8
0
 10
272.3535241630118
 20
41.94092023565526
 30
0.0
  0
VERTEX
  5
5A6
  8
0
 10
275.3489499561773
 20
48.15600083847548
 30
0.0
 42
0.552782786403311
  0
VERTEX
  5
5A7
  8
0
 10
257.0530050183178
 20
77.2839649994637
 30
0.0
 42
0.5527827864033111
  0
VERTEX
  5
5A8
  8
0
 10
238.7570600803363
 20
48.15600083855213
 30
0.0
  0
VERTEX
  5
5A9
  8
0
 10
241.7524858731772
 20
41.9409202355755
 30
0.0
 42
-0.552782786414193
  0
SEQEND
  5
6B1
  8
0
  0
POLYLINE
  5
13A
  8
0
 66
     1
 10
0.0
 20
0.0
 30
0.0
 70
     1
  0
VERTEX
  5
5AA
  8
0
 10
251.3327167541773
 20
36.6890459636455
 30
0.0
  0
VERTEX
  5
5AB
  8
0
 10
244.4773483441773
 20
50.9129560745755
 30
0.0
 42
-0.552782786400468
  0
VERTEX
  5
5AC
  8
0
 10
257.053005017856
 20
70.93396499957726
 30
0.0
 42
-0.5527827864004682
  0
VERTEX
  5
5AD
  8
0
 10
269.6286616918137
 20
50.9129560747507
 30
0.0
  0
VERTEX
  5
5AE
  8
0
 10
262.7732932821773
 20
36.6890459636455
 30
0.0
 42
-0.6281230241958812
  0
SEQEND
  5
6B2
  8
0
  0
POLYLINE
  5
13B
  8
0
 66
     1
 10
0.0
 20
0.0
 30
0.0
 70
     1
  0
VERTEX
  5
5AF
  8
0
 10
282.4530050181772
 20
27.75396499939549
 30
0.0
 42
0.4142135623730951
  0
VERTEX
  5
5B0
  8
0
 10
279.5193050181772
 20
24.82026499939548
 30
0.0
 42
0.4142135623730951
  0
VERTEX
  5
5B1
  8
0
 10
282.4530050181772
 20
21.88656499939549
 30
0.0
 42
0.4142135623730951
  0
VERTEX
  5
5B2
  8
0
 10
285.3867050181773
 20
24.82026499939548
 30
0.0
 42
0.4142135623730951
  0
SEQEND
  5
6B3
  8
0
  0
POLYLINE
  5
13C
  8
0
 66
     1
 10
0.0
 20
0.0
 30
0.0
 70
     1
  0
VERTEX
  5
5B3
  8
0
 10
231.6530050181773
 20
27.75396499939549
 30
0.0
 42
0.4142135623730951
  0
VERTEX
  5
5B4
  8
0
 10
228.7193050181773
 20
24.82026499939548
 30
0.0
 42
0.4142135623730951
  0
VERTEX
  5
5B5
  8
0
 10
231.6530050181773
 20
21.88656499939549
 30
0.0
 42
0.4142135623730951
  0
VERTEX
  5
5B6
  8
0
 10
234.5867050181773
 20
24.82026499939548
 30
0.0
 42
0.4142135623730951
  0
SEQEND
  5
6B4
  8
0
  0
POLYLINE
  5
13D
  8
0
 66
     1
 10
0.0
 20
0.0
 30
0.0
 70
     1
  0
VERTEX
  5
5B7
  8
0
 10
242.6781776906233
 20
-45.81013263104867
 30
0.0
  0
VERTEX
  5
5B8
  8
0
 10
238.2989850996233
 20
-45.81013263104867
 30
0.0
 42
0.9999999999999998
  0
VERTEX
  5
5B9
  8
0
 10
238.2989850996233
 20
-61.83753263104865
 30
0.0
  0
VERTEX
  5
5BA
  8
0
 10
289.0989850996232
 20
-61.83753263106865
 30
0.0
 42
0.9999999999999998
  0
VERTEX
  5
5BB
  8
0
 10
289.0989850996232
 20
-45.81013263104867
 30
0.0
  0
VERTEX
  5
5BC
  8
0
 10
284.7197925086232
 20
-45.81013263104867
 30
0.0
 42
-0.5527827864141922
  0
VERTEX
  5
5BD
  8
0
 10
278.9995042444578
 20
-36.7031773947889
 30
0.0
  0
VERTEX
  5
5BE
  8
0
 10
281.9949300376232
 20
-30.48809679196867
 30
0.0
 42
0.552782786403311
  0
VERTEX
  5
5BF
  8
0
 10
263.6989850997638
 20
-1.360132630980445
 30
0.0
 42
0.5527827864033111
  0
VERTEX
  5
5C0
  8
0
 10
245.4030401617823
 20
-30.48809679189202
 30
0.0
  0
VERTEX
  5
5C1
  8
0
 10
248.3984659546233
 20
-36.70317739486865
 30
0.0
 42
-0.552782786414193
  0
SEQEND
  5
6B5
  8
0
  0
POLYLINE
  5
13E
  8
0
 66
     1
 10
0.0
 20
0.0
 30
0.0
 70
     1
  0
VERTEX
  5
5C2
  8
0
 10
257.9786968356233
 20
-41.95505166679865
 30
0.0
  0
VERTEX
  5
5C3
  8
0
 10
251.1233284256233
 20
-27.73114155586865
 30
0.0
 42
-0.552782786400468
  0
VERTEX
  5
5C4
  8
0
 10
263.698985099302
 20
-7.710132630866894
 30
0.0
 42
-0.5527827864004682
  0
VERTEX
  5
5C5
  8
0
 10
276.2746417732597
 20
-27.73114155569345
 30
0.0
  0
VERTEX
  5
5C6
  8
0
 10
269.4192733636233
 20
-41.95505166679865
 30
0.0
 42
-0.6281230241958812
  0
SEQEND
  5
6B6
  8
0
  0
POLYLINE
  5
13F
  8
0
 66
     1
 10
0.0
 20
0.0
 30
0.0
 70
     1
  0
VERTEX
  5
5C7
  8
0
 10
289.0989850996232
 20
-50.89013263104866
 30
0.0
 42
0.4142135623730951
  0
VERTEX
  5
5C8
  8
0
 10
286.1652850996232
 20
-53.82383263104867
 30
0.0
 42
0.4142135623730951
  0
VERTEX
  5
5C9
  8
0
 10
289.0989850996232
 20
-56.75753263104866
 30
0.0
 42
0.4142135623730951
  0
VERTEX
  5
5CA
  8
0
 10
292.0326850996233
 20
-53.82383263104867
 30
0.0
 42
0.4142135623730951
  0
SEQEND
  5
6B7
  8
0
  0
POLYLINE
  5
140
  8
0
 66
     1
 10
0.0
 20
0.0
 30
0.0
 70
     1
  0
VERTEX
  5
5CB
  8
0
 10
238.2989850996233
 20
-50.89013263104866
 30
0.0
 42
0.4142135623730951
  0
VERTEX
  5
5CC
  8
0
 10
235.3652850996233
 20
-53.82383263104867
 30
0.0
 42
0.4142135623730951
  0
VERTEX
  5
5CD
  8
0
 10
238.2989850996233
 20
-56.75753263104866
 30
0.0
 42
0.4142135623730951
  0
VERTEX
  5
5CE
  8
0
 10
241.2326850996233
 20
-53.82383263104867
 30
0.0
 42
0.4142135623730951
  0
SEQEND
  5
6B8
  8
0
  0
POLYLINE
  5
141
  8
0
 66
     1
 10
0.0
 20
0.0
 30
0.0
 70
     1
  0
VERTEX
  5
5CF
  8
0
 10
242.6781776906233
 20
-116.7005868331392
 30
0.0
  0
VERTEX
  5
5D0
  8
0
 10
238.2989850996233
 20
-116.7005868331392
 30
0.0
 42
0.9999999999999998
  0
VERTEX
  5
5D1
  8
0
 10
238.2989850996233
 20
-132.7279868331391
 30
0.0
  0
VERTEX
  5
5D2
  8
0
 10
289.0989850996232
 20
-132.7279868331592
 30
0.0
 42
0.9999999999999998
  0
VERTEX
  5
5D3
  8
0
 10
289.0989850996232
 20
-116.7005868331392
 30
0.0
  0
VERTEX
  5
5D4
  8
0
 10
284.7197925086232
 20
-116.7005868331392
 30
0.0
 42
-0.5527827864141922
  0
VERTEX
  5
5D5
  8
0
 10
278.9995042444578
 20
-107.5936315968794
 30
0.0
  0
VERTEX
  5
5D6
  8
0
 10
281.9949300376232
 20
-101.3785509940592
 30
0.0
 42
0.552782786403311
  0
VERTEX
  5
5D7
  8
0
 10
263.6989850997638
 20
-72.25058683307095
 30
0.0
 42
0.5527827864033111
  0
VERTEX
  5
5D8
  8
0
 10
245.4030401617823
 20
-101.3785509939825
 30
0.0
  0
VERTEX
  5
5D9
  8
0
 10
248.3984659546233
 20
-107.5936315969591
 30
0.0
 42
-0.552782786414193
  0
SEQEND
  5
6B9
  8
0
  0
POLYLINE
  5
142
  8
0
 66
     1
 10
0.0
 20
0.0
 30
0.0
 70
     1
  0
VERTEX
  5
5DA
  8
0
 10
257.9786968356233
 20
-112.8455058688891
 30
0.0
  0
VERTEX
  5
5DB
  8
0
 10
251.1233284256233
 20
-98.62159575795914
 30
0.0
 42
-0.552782786400468
  0
VERTEX
  5
5DC
  8
0
 10
263.698985099302
 20
-78.60058683295739
 30
0.0
 42
-0.5527827864004682
  0
VERTEX
  5
5DD
  8
0
 10
276.2746417732597
 20
-98.62159575778395
 30
0.0
  0
VERTEX
  5
5DE
  8
0
 10
269.4192733636233
 20
-112.8455058688891
 30
0.0
 42
-0.6281230241958812
  0
SEQEND
  5
6BA
  8
0
  0
POLYLINE
  5
143
  8
0
 66
     1
 10
0.0
 20
0.0
 30
0.0
 70
     1
  0
VERTEX
  5
5DF
  8
0
 10
289.0989850996232
 20
-121.7805868331392
 30
0.0
 42
0.4142135623730951
  0
VERTEX
  5
5E0
  8
0
 10
286.1652850996232
 20
-124.7142868331392
 30
0.0
 42
0.4142135623730951
  0
VERTEX
  5
5E1
  8
0
 10
289.0989850996232
 20
-127.6479868331392
 30
0.0
 42
0.4142135623730951
  0
VERTEX
  5
5E2
  8
0
 10
292.0326850996233
 20
-124.7142868331392
 30
0.0
 42
0.4142135623730951
  0
SEQEND
  5
6BB
  8
0
  0
POLYLINE
  5
144
  8
0
 66
     1
 10
0.0
 20
0.0
 30
0.0
 70
     1
  0
VERTEX
  5
5E3
  8
0
 10
238.2989850996233
 20
-121.7805868331392
 30
0.0
 42
0.4142135623730951
  0
VERTEX
  5
5E4
  8
0
 10
235.3652850996233
 20
-124.7142868331392
 30
0.0
 42
0.4142135623730951
  0
VERTEX
  5
5E5
  8
0
 10
238.2989850996233
 20
-127.6479868331392
 30
0.0
 42
0.4142135623730951
  0
VERTEX
  5
5E6
  8
0
 10
241.2326850996233
 20
-124.7142868331392
 30
0.0
 42
0.4142135623730951
  0
SEQEND
  5
6BC
  8
0
  0
ENDSEC
  0
EOF
