  0
SECTION
  2
HEADER
  9
$ACADVER
  1
AC1009
  9
$DWGCODEPAGE
  3
ansi_1252
  9
$INSBASE
 10
0.0
 20
0.0
 30
0.0
  9
$EXTMIN
 10
-11.62637220768656
 20
-11.60798182342513
 30
0.0
  9
$EXTMAX
 10
8.964928065324461
 20
11.624999999952
 30
0.0
  9
$LIMMIN
 10
0.0
 20
0.0
  9
$LIMMAX
 10
12.0
 20
9.0
  9
$ORTHOMODE
 70
     0
  9
$REGENMODE
 70
     1
  9
$FILLMODE
 70
     1
  9
$QTEXTMODE
 70
     0
  9
$MIRRTEXT
 70
     1
  9
$DRAGMODE
 70
     2
  9
$LTSCALE
 40
1.0
  9
$OSMODE
 70
    37
  9
$ATTMODE
 70
     1
  9
$TEXTSIZE
 40
0.2
  9
$TRACEWID
 40
0.05
  9
$TEXTSTYLE
  7
STANDARD
  9
$CLAYER
  8
0
  9
$CELTYPE
  6
BYLAYER
  9
$CECOLOR
 62
   256
  9
$DIMSCALE
 40
1.0
  9
$DIMASZ
 40
0.18
  9
$DIMEXO
 40
0.0625
  9
$DIMDLI
 40
0.38
  9
$DIMRND
 40
0.0
  9
$DIMDLE
 40
0.0
  9
$DIMEXE
 40
0.18
  9
$DIMTP
 40
0.0
  9
$DIMTM
 40
0.0
  9
$DIMTXT
 40
0.18
  9
$DIMCEN
 40
0.09
  9
$DIMTSZ
 40
0.0
  9
$DIMTOL
 70
     0
  9
$DIMLIM
 70
     0
  9
$DIMTIH
 70
     1
  9
$DIMTOH
 70
     1
  9
$DIMSE1
 70
     0
  9
$DIMSE2
 70
     0
  9
$DIMTAD
 70
     0
  9
$DIMZIN
 70
     0
  9
$DIMBLK
  1

  9
$DIMASO
 70
     1
  9
$DIMSHO
 70
     1
  9
$DIMPOST
  1

  9
$DIMAPOST
  1

  9
$DIMALT
 70
     0
  9
$DIMALTD
 70
     2
  9
$DIMALTF
 40
25.4
  9
$DIMLFAC
 40
1.0
  9
$DIMTOFL
 70
     0
  9
$DIMTVP
 40
0.0
  9
$DIMTIX
 70
     0
  9
$DIMSOXD
 70
     0
  9
$DIMSAH
 70
     0
  9
$DIMBLK1
  1

  9
$DIMBLK2
  1

  9
$DIMSTYLE
  2
STANDARD
  9
$DIMCLRD
 70
     0
  9
$DIMCLRE
 70
     0
  9
$DIMCLRT
 70
     0
  9
$DIMTFAC
 40
1.0
  9
$DIMGAP
 40
0.09
  9
$LUNITS
 70
     2
  9
$LUPREC
 70
     4
  9
$SKETCHINC
 40
0.1
  9
$FILLETRAD
 40
0.5
  9
$AUNITS
 70
     0
  9
$AUPREC
 70
     0
  9
$MENU
  1
.
  9
$ELEVATION
 40
0.0
  9
$PELEVATION
 40
0.0
  9
$THICKNESS
 40
0.0
  9
$LIMCHECK
 70
     0
  9
$CHAMFERA
 40
0.0
  9
$CHAMFERB
 40
0.0
  9
$SKPOLY
 70
     0
  9
$TDCREATE
 40
2454910.5
  9
$TDUPDATE
 40
2458150.491970938
  9
$TDINDWG
 40
0.0000000116
  9
$TDUSRTIMER
 40
0.0000000116
  9
$USRTIMER
 70
     1
  9
$ANGBASE
 50
0.0
  9
$ANGDIR
 70
     0
  9
$PDMODE
 70
     0
  9
$PDSIZE
 40
0.0
  9
$PLINEWID
 40
0.0
  9
$COORDS
 70
     1
  9
$SPLFRAME
 70
     0
  9
$SPLINETYPE
 70
     6
  9
$SPLINESEGS
 70
     8
  9
$ATTDIA
 70
     0
  9
$ATTREQ
 70
     1
  9
$HANDLING
 70
     1
  9
$HANDSEED
  5
5C8
  9
$SURFTAB1
 70
     6
  9
$SURFTAB2
 70
     6
  9
$SURFTYPE
 70
     6
  9
$SURFU
 70
     6
  9
$SURFV
 70
     6
  9
$UCSNAME
  2

  9
$UCSORG
 10
0.0
 20
0.0
 30
0.0
  9
$UCSXDIR
 10
1.0
 20
0.0
 30
0.0
  9
$UCSYDIR
 10
0.0
 20
1.0
 30
0.0
  9
$PUCSNAME
  2

  9
$PUCSORG
 10
0.0
 20
0.0
 30
0.0
  9
$PUCSXDIR
 10
1.0
 20
0.0
 30
0.0
  9
$PUCSYDIR
 10
0.0
 20
1.0
 30
0.0
  9
$USERI1
 70
     0
  9
$USERI2
 70
     0
  9
$USERI3
 70
     0
  9
$USERI4
 70
     0
  9
$USERI5
 70
     0
  9
$USERR1
 40
0.0
  9
$USERR2
 40
0.0
  9
$USERR3
 40
0.0
  9
$USERR4
 40
0.0
  9
$USERR5
 40
0.0
  9
$WORLDVIEW
 70
     1
  9
$SHADEDGE
 70
     3
  9
$SHADEDIF
 70
    70
  9
$TILEMODE
 70
     1
  9
$MAXACTVP
 70
    64
  9
$PLIMCHECK
 70
     0
  9
$PEXTMIN
 10
1.000000000000000E+20
 20
1.000000000000000E+20
 30
1.000000000000000E+20
  9
$PEXTMAX
 10
-1.000000000000000E+20
 20
-1.000000000000000E+20
 30
-1.000000000000000E+20
  9
$PLIMMIN
 10
0.0
 20
0.0
  9
$PLIMMAX
 10
12.0
 20
9.0
  9
$UNITMODE
 70
     0
  9
$VISRETAIN
 70
     1
  9
$PLINEGEN
 70
     0
  9
$PSLTSCALE
 70
     1
  0
ENDSEC
  0
SECTION
  2
TABLES
  0
TABLE
  2
VPORT
 70
     1
  0
VPORT
  2
*ACTIVE
 70
     0
 10
0.0
 20
0.0
 11
1.0
 21
1.0
 12
10.42990654205607
 22
4.5
 13
0.0
 23
0.0
 14
0.5
 24
0.5
 15
0.5
 25
0.5
 16
0.0
 26
0.0
 36
1.0
 17
0.0
 27
0.0
 37
0.0
 40
9.0
 41
1.972972972850329
 42
50.0
 43
0.0
 44
0.0
 50
0.0
 51
0.0
 71
     0
 72
   100
 73
     1
 74
     3
 75
     0
 76
     0
 77
     0
 78
     0
  0
ENDTAB
  0
TABLE
  2
LTYPE
 70
     2
  0
LTYPE
  2
CONTINUOUS
 70
     0
  3
Solid line
 72
    65
 73
     0
 40
0.0
  0
LTYPE
  2
CONTINUOUS2
 70
     0
  3
Solid Line
 72
    65
 73
     0
 40
0.0
  0
ENDTAB
  0
TABLE
  2
LAYER
 70
     1
  0
LAYER
  2
0
 70
     0
 62
     7
  6
CONTINUOUS
  0
ENDTAB
  0
TABLE
  2
STYLE
 70
     1
  0
STYLE
  2
STANDARD
 70
     0
 40
0.0
 41
1.0
 50
0.0
 71
     0
 42
0.2
  3
txt
  4

  0
ENDTAB
  0
TABLE
  2
VIEW
 70
     0
  0
ENDTAB
  0
TABLE
  2
UCS
 70
     0
  0
ENDTAB
  0
TABLE
  2
APPID
 70
     1
  0
APPID
  2
ACAD
 70
     0
  0
ENDTAB
  0
TABLE
  2
DIMSTYLE
 70
     1
  0
DIMSTYLE
  2
STANDARD
 70
     0
  3

  4

  5

  6

  7

 40
1.0
 41
0.18
 42
0.0625
 43
0.38
 44
0.18
 45
0.0
 46
0.0
 47
0.0
 48
0.0
140
0.18
141
0.09
142
0.0
143
25.4
144
1.0
145
0.0
146
1.0
147
0.09
 71
     0
 72
     0
 73
     1
 74
     1
 75
     0
 76
     0
 77
     0
 78
     0
170
     0
171
     2
172
     0
173
     0
174
     0
175
     0
176
     0
177
     0
178
     0
  0
ENDTAB
  0
ENDSEC
  0
SECTION
  2
BLOCKS
  0
BLOCK
  8
0
  2
$MODEL_SPACE
 70
     0
 10
0.0
 20
0.0
 30
0.0
  3
$MODEL_SPACE
  1

  0
ENDBLK
  5
21
  8
0
  0
BLOCK
 67
     1
  8
0
  2
$PAPER_SPACE
 70
     0
 10
0.0
 20
0.0
 30
0.0
  3
$PAPER_SPACE
  1

  0
ENDBLK
  5
1D
 67
     1
  8
0
  0
ENDSEC
  0
SECTION
  2
ENTITIES
  0
POLYLINE
  5
6F
  8
0
 66
     1
 10
0.0
 20
0.0
 30
0.0
 70
     1
  0
VERTEX
  5
12C
  8
0
 10
-8.093605651023715
 20
11.60558373921576
 30
0.0
  0
VERTEX
  5
12D
  8
0
 10
-9.869018852601956
 20
9.830170537637521
 30
0.0
 42
0.493145426031285
  0
VERTEX
  5
12E
  8
0
 10
-8.626378165482993
 20
0.3913774278117881
 30
0.0
  0
VERTEX
  5
12F
  8
0
 10
-6.677648193508447
 20
-0.7337223460857771
 30
0.0
 42
0.4270519577672374
  0
VERTEX
  5
130
  8
0
 10
-5.46401371447596
 20
-0.3799801543540298
 30
0.0
 42
0.4270519577672374
  0
VERTEX
  5
131
  8
0
 10
-5.870357214487039
 20
0.8170691958844571
 30
0.0
  0
VERTEX
  5
132
  8
0
 10
-6.552842395008397
 20
1.135317262138306
 30
0.0
 42
-0.5205670505517264
  0
VERTEX
  5
133
  8
0
 10
-7.690796472790685
 20
7.588975535032869
 30
0.0
  0
VERTEX
  5
134
  8
0
 10
-5.883896959815753
 20
9.395875048007802
 30
0.0
  0
SEQEND
  5
512
  8
0
  0
POLYLINE
  5
70
  8
0
 66
     1
 10
0.0
 20
0.0
 30
0.0
 70
     1
  0
VERTEX
  5
135
  8
0
 10
-6.284411964455932
 20
0.0683136531745099
 30
0.0
 42
0.4142135623730951
  0
VERTEX
  5
136
  8
0
 10
-6.284411964455932
 20
-0.0202138887220737
 30
0.0
 42
0.4142135623730951
  0
VERTEX
  5
137
  8
0
 10
-6.195884422559348
 20
-0.0202138887220737
 30
0.0
 42
0.4142135623730951
  0
VERTEX
  5
138
  8
0
 10
-6.195884422559348
 20
0.0683136531745099
 30
0.0
 42
0.4142135623730951
  0
SEQEND
  5
513
  8
0
  0
POLYLINE
  5
71
  8
0
 66
     1
 10
0.0
 20
0.0
 30
0.0
 70
     1
  0
VERTEX
  5
139
  8
0
 10
-7.552000828415832
 20
10.53364883070127
 30
0.0
 42
0.4142135623730951
  0
VERTEX
  5
13A
  8
0
 10
-7.552000828415832
 20
10.35687213540463
 30
0.0
 42
0.4142135623730951
  0
VERTEX
  5
13B
  8
0
 10
-7.375224133119196
 20
10.35687213540463
 30
0.0
 42
0.4142135623730951
  0
VERTEX
  5
13C
  8
0
 10
-7.375224133119196
 20
10.53364883070127
 30
0.0
 42
0.4142135623730951
  0
SEQEND
  5
514
  8
0
  0
POLYLINE
  5
72
  8
0
 66
     1
 10
0.0
 20
0.0
 30
0.0
 70
     1
  0
VERTEX
  5
13D
  8
0
 10
-6.481402189912818
 20
9.463050192214954
 30
0.0
 42
0.4142135623730951
  0
VERTEX
  5
13E
  8
0
 10
-6.481402189912818
 20
9.32869990378951
 30
0.0
 42
0.4142135623730951
  0
VERTEX
  5
13F
  8
0
 10
-6.347051901487373
 20
9.32869990378951
 30
0.0
 42
0.4142135623730951
  0
VERTEX
  5
140
  8
0
 10
-6.347051901487375
 20
9.463050192214954
 30
0.0
 42
0.4142135623730951
  0
SEQEND
  5
515
  8
0
  0
POLYLINE
  5
73
  8
0
 66
     1
 10
0.0
 20
0.0
 30
0.0
 70
     1
  0
VERTEX
  5
141
  8
0
 10
-8.229800951123838
 20
11.21144895342598
 30
0.0
 42
0.4142135623730951
  0
VERTEX
  5
142
  8
0
 10
-8.229800951123838
 20
11.08346262605682
 30
0.0
 42
0.4142135623730951
  0
VERTEX
  5
143
  8
0
 10
-8.101814623754688
 20
11.08346262605682
 30
0.0
 42
0.4142135623730951
  0
VERTEX
  5
144
  8
0
 10
-8.101814623754688
 20
11.21144895342598
 30
0.0
 42
0.4142135623730951
  0
SEQEND
  5
516
  8
0
  0
POLYLINE
  5
74
  8
0
 66
     1
 10
0.0
 20
0.0
 30
0.0
 70
     1
  0
VERTEX
  5
145
  8
0
 10
-8.89734064484745
 20
-11.22534824790816
 30
0.0
  0
VERTEX
  5
146
  8
0
 10
-7.121927443269209
 20
-9.449935046329916
 30
0.0
 42
0.493145426031285
  0
VERTEX
  5
147
  8
0
 10
-8.36456813038817
 20
-0.0111419365041865
 30
0.0
  0
VERTEX
  5
148
  8
0
 10
-10.31329810236272
 20
1.113957837393381
 30
0.0
 42
0.4270519577672374
  0
VERTEX
  5
149
  8
0
 10
-11.5269325813952
 20
0.7602156456616331
 30
0.0
 42
0.4270519577672374
  0
VERTEX
  5
14A
  8
0
 10
-11.12058908138413
 20
-0.4368337045768556
 30
0.0
  0
VERTEX
  5
14B
  8
0
 10
-10.43810390086277
 20
-0.7550817708307029
 30
0.0
 42
-0.5205670505517264
  0
VERTEX
  5
14C
  8
0
 10
-9.30014982308048
 20
-7.208740043725266
 30
0.0
  0
VERTEX
  5
14D
  8
0
 10
-11.10704933605541
 20
-9.015639556700197
 30
0.0
  0
SEQEND
  5
517
  8
0
  0
POLYLINE
  5
75
  8
0
 66
     1
 10
0.0
 20
0.0
 30
0.0
 70
     1
  0
VERTEX
  5
14E
  8
0
 10
-10.70653433141523
 20
0.3119218381330953
 30
0.0
 42
0.4142135623730951
  0
VERTEX
  5
14F
  8
0
 10
-10.70653433141523
 20
0.4004493800296771
 30
0.0
 42
0.4142135623730951
  0
VERTEX
  5
150
  8
0
 10
-10.79506187331182
 20
0.4004493800296771
 30
0.0
 42
0.4142135623730951
  0
VERTEX
  5
151
  8
0
 10
-10.79506187331181
 20
0.3119218381330935
 30
0.0
 42
0.4142135623730951
  0
SEQEND
  5
518
  8
0
  0
POLYLINE
  5
76
  8
0
 66
     1
 10
0.0
 20
0.0
 30
0.0
 70
     1
  0
VERTEX
  5
152
  8
0
 10
-9.438945467455333
 20
-10.15341333939366
 30
0.0
 42
0.4142135623730951
  0
VERTEX
  5
153
  8
0
 10
-9.438945467455333
 20
-9.976636644097027
 30
0.0
 42
0.4142135623730951
  0
VERTEX
  5
154
  8
0
 10
-9.61572216275197
 20
-9.976636644097027
 30
0.0
 42
0.4142135623730951
  0
VERTEX
  5
155
  8
0
 10
-9.61572216275197
 20
-10.15341333939366
 30
0.0
 42
0.4142135623730951
  0
SEQEND
  5
519
  8
0
  0
POLYLINE
  5
77
  8
0
 66
     1
 10
0.0
 20
0.0
 30
0.0
 70
     1
  0
VERTEX
  5
156
  8
0
 10
-10.50954410595835
 20
-9.082814700907353
 30
0.0
 42
0.4142135623730951
  0
VERTEX
  5
157
  8
0
 10
-10.50954410595835
 20
-8.948464412481908
 30
0.0
 42
0.4142135623730951
  0
VERTEX
  5
158
  8
0
 10
-10.64389439438379
 20
-8.948464412481908
 30
0.0
 42
0.4142135623730951
  0
VERTEX
  5
159
  8
0
 10
-10.64389439438379
 20
-9.082814700907353
 30
0.0
 42
0.4142135623730951
  0
SEQEND
  5
51A
  8
0
  0
POLYLINE
  5
78
  8
0
 66
     1
 10
0.0
 20
0.0
 30
0.0
 70
     1
  0
VERTEX
  5
15A
  8
0
 10
-8.761145344747325
 20
-10.83121346211837
 30
0.0
 42
0.4142135623730951
  0
VERTEX
  5
15B
  8
0
 10
-8.761145344747325
 20
-10.70322713474922
 30
0.0
 42
0.4142135623730951
  0
VERTEX
  5
15C
  8
0
 10
-8.889131672116479
 20
-10.70322713474922
 30
0.0
 42
0.4142135623730951
  0
VERTEX
  5
15D
  8
0
 10
-8.889131672116477
 20
-10.83121346211837
 30
0.0
 42
0.4142135623730951
  0
SEQEND
  5
51B
  8
0
  0
POLYLINE
  5
79
  8
0
 66
     1
 10
0.0
 20
0.0
 30
0.0
 70
     1
  0
VERTEX
  5
15E
  8
0
 10
-3.802267068363715
 20
11.15282783370576
 30
0.0
  0
VERTEX
  5
15F
  8
0
 10
-5.577680269941956
 20
9.377414632127522
 30
0.0
 42
0.493145426031285
  0
VERTEX
  5
160
  8
0
 10
-4.335039582822994
 20
-0.0613784776982111
 30
0.0
  0
VERTEX
  5
161
  8
0
 10
-2.386309610848448
 20
-1.186478251595776
 30
0.0
 42
0.4270519577672374
  0
VERTEX
  5
162
  8
0
 10
-1.172675131815961
 20
-0.832736059864029
 30
0.0
 42
0.4270519577672374
  0
VERTEX
  5
163
  8
0
 10
-1.57901863182704
 20
0.3643132903744579
 30
0.0
  0
VERTEX
  5
164
  8
0
 10
-2.261503812348398
 20
0.6825613566283071
 30
0.0
 42
-0.5205670505517264
  0
VERTEX
  5
165
  8
0
 10
-3.399457890130686
 20
7.13621962952287
 30
0.0
  0
VERTEX
  5
166
  8
0
 10
-1.592558377155754
 20
8.943119142497803
 30
0.0
  0
SEQEND
  5
51C
  8
0
  0
POLYLINE
  5
7A
  8
0
 66
     1
 10
0.0
 20
0.0
 30
0.0
 70
     1
  0
VERTEX
  5
167
  8
0
 10
-1.993073381795933
 20
-0.3844422523354893
 30
0.0
 42
0.4142135623730951
  0
VERTEX
  5
168
  8
0
 10
-1.993073381795933
 20
-0.472969794232073
 30
0.0
 42
0.4142135623730951
  0
VERTEX
  5
169
  8
0
 10
-1.904545839899349
 20
-0.472969794232073
 30
0.0
 42
0.4142135623730951
  0
VERTEX
  5
16A
  8
0
 10
-1.904545839899349
 20
-0.3844422523354893
 30
0.0
 42
0.4142135623730951
  0
SEQEND
  5
51D
  8
0
  0
POLYLINE
  5
7B
  8
0
 66
     1
 10
0.0
 20
0.0
 30
0.0
 70
     1
  0
VERTEX
  5
16B
  8
0
 10
-3.260662245755833
 20
10.08089292519127
 30
0.0
 42
0.4142135623730951
  0
VERTEX
  5
16C
  8
0
 10
-3.260662245755833
 20
9.90411622989463
 30
0.0
 42
0.4142135623730951
  0
VERTEX
  5
16D
  8
0
 10
-3.083885550459197
 20
9.90411622989463
 30
0.0
 42
0.4142135623730951
  0
VERTEX
  5
16E
  8
0
 10
-3.083885550459197
 20
10.08089292519127
 30
0.0
 42
0.4142135623730951
  0
SEQEND
  5
51E
  8
0
  0
POLYLINE
  5
7C
  8
0
 66
     1
 10
0.0
 20
0.0
 30
0.0
 70
     1
  0
VERTEX
  5
16F
  8
0
 10
-2.190063607252819
 20
9.010294286704958
 30
0.0
 42
0.4142135623730951
  0
VERTEX
  5
170
  8
0
 10
-2.190063607252819
 20
8.875943998279514
 30
0.0
 42
0.4142135623730951
  0
VERTEX
  5
171
  8
0
 10
-2.055713318827374
 20
8.875943998279514
 30
0.0
 42
0.4142135623730951
  0
VERTEX
  5
172
  8
0
 10
-2.055713318827376
 20
9.010294286704955
 30
0.0
 42
0.4142135623730951
  0
SEQEND
  5
51F
  8
0
  0
POLYLINE
  5
7D
  8
0
 66
     1
 10
0.0
 20
0.0
 30
0.0
 70
     1
  0
VERTEX
  5
173
  8
0
 10
-3.93846236846384
 20
10.75869304791598
 30
0.0
 42
0.4142135623730951
  0
VERTEX
  5
174
  8
0
 10
-3.93846236846384
 20
10.63070672054683
 30
0.0
 42
0.4142135623730951
  0
VERTEX
  5
175
  8
0
 10
-3.810476041094688
 20
10.63070672054683
 30
0.0
 42
0.4142135623730951
  0
VERTEX
  5
176
  8
0
 10
-3.810476041094688
 20
10.75869304791598
 30
0.0
 42
0.4142135623730951
  0
SEQEND
  5
520
  8
0
  0
POLYLINE
  5
7E
  8
0
 66
     1
 10
0.0
 20
0.0
 30
0.0
 70
     1
  0
VERTEX
  5
177
  8
0
 10
-4.619439296230592
 20
-10.85798182342814
 30
0.0
  0
VERTEX
  5
178
  8
0
 10
-6.28945272600556
 20
-10.85798182342814
 30
0.0
 42
-0.6858831481015217
  0
VERTEX
  5
179
  8
0
 10
-6.331449581588785
 20
-10.74919452364658
 30
0.0
  0
VERTEX
  5
17A
  8
0
 10
-5.496442866701301
 20
-9.991585922983736
 30
0.0
 42
-0.386045573955378
  0
VERTEX
  5
17B
  8
0
 10
-5.412449155534848
 20
-9.991585922983736
 30
0.0
  0
VERTEX
  5
17C
  8
0
 10
-4.577442440647367
 20
-10.74919452364658
 30
0.0
 42
-0.6858831481015198
  0
SEQEND
  5
521
  8
0
  0
POLYLINE
  5
7F
  8
0
 66
     1
 10
0.0
 20
0.0
 30
0.0
 70
     1
  0
VERTEX
  5
17D
  8
0
 10
-3.579446011125576
 20
-10.2659818234305
 30
0.0
  0
VERTEX
  5
17E
  8
0
 10
-3.579446011125579
 20
-5.390981823450003
 30
0.0
 42
0.9999999999999998
  0
VERTEX
  5
17F
  8
0
 10
-4.579446011121576
 20
-5.390981823450003
 30
0.0
  0
VERTEX
  5
180
  8
0
 10
-4.579446011121576
 20
-7.665981823440905
 30
0.0
 42
-0.4142135623730951
  0
VERTEX
  5
181
  8
0
 10
-4.954446011120076
 20
-8.040981823439402
 30
0.0
 42
0.1961510520176442
  0
VERTEX
  5
182
  8
0
 10
-5.266946011118826
 20
-8.168481823438894
 30
0.0
 42
-0.1961510520176442
  0
VERTEX
  5
183
  8
0
 10
-5.579446011117575
 20
-8.295981823438385
 30
0.0
 42
0.2683759892124261
  0
VERTEX
  5
184
  8
0
 10
-6.176149820668336
 20
-8.641122783164416
 30
0.0
  0
VERTEX
  5
185
  8
0
 10
-7.559503748752039
 20
-11.0459992916261
 30
0.0
 42
0.5768195054227268
  0
VERTEX
  5
186
  8
0
 10
-7.234446011110959
 20
-11.60798182342513
 30
0.0
  0
VERTEX
  5
187
  8
0
 10
-1.734446011132956
 20
-11.60798182342513
 30
0.0
 42
0.9031740110501919
  0
VERTEX
  5
188
  8
0
 10
-1.658721966861915
 20
-10.86570690035386
 30
0.0
  0
VERTEX
  5
189
  8
0
 10
-3.379928707307268
 20
-10.51083177214569
 30
0.0
 42
-0.3558387196350834
  0
SEQEND
  5
522
  8
0
  0
POLYLINE
  5
80
  8
0
 66
     1
 10
0.0
 20
0.0
 30
0.0
 70
     1
  0
VERTEX
  5
18A
  8
0
 10
-5.454446011118076
 20
-8.453481823437754
 30
0.0
 42
0.4142135623730951
  0
VERTEX
  5
18B
  8
0
 10
-6.016946011115824
 20
-9.015981823435505
 30
0.0
 42
0.4142135623730951
  0
VERTEX
  5
18C
  8
0
 10
-5.454446011118076
 20
-9.578481823433252
 30
0.0
 42
0.4142135623730951
  0
VERTEX
  5
18D
  8
0
 10
-4.891946011120329
 20
-9.015981823435505
 30
0.0
 42
0.4142135623730951
  0
SEQEND
  5
523
  8
0
  0
POLYLINE
  5
81
  8
0
 66
     1
 10
0.0
 20
0.0
 30
0.0
 70
     1
  0
VERTEX
  5
18E
  8
0
 10
-5.260548512223419
 20
-11.10098182342716
 30
0.0
 42
0.4142135623730951
  0
VERTEX
  5
18F
  8
0
 10
-5.392548512222891
 20
-11.23298182342664
 30
0.0
 42
0.4142135623730951
  0
VERTEX
  5
190
  8
0
 10
-5.260548512223419
 20
-11.36498182342611
 30
0.0
 42
0.4142135623730951
  0
VERTEX
  5
191
  8
0
 10
-5.128548512223947
 20
-11.23298182342664
 30
0.0
 42
0.4142135623730951
  0
SEQEND
  5
524
  8
0
  0
POLYLINE
  5
82
  8
0
 66
     1
 10
0.0
 20
0.0
 30
0.0
 70
     1
  0
VERTEX
  5
192
  8
0
 10
-7.234446011110959
 20
-11.10098182342716
 30
0.0
 42
0.4142135623730951
  0
VERTEX
  5
193
  8
0
 10
-7.366446011110432
 20
-11.23298182342664
 30
0.0
 42
0.4142135623730951
  0
VERTEX
  5
194
  8
0
 10
-7.234446011110959
 20
-11.36498182342611
 30
0.0
 42
0.4142135623730951
  0
VERTEX
  5
195
  8
0
 10
-7.102446011111487
 20
-11.23298182342664
 30
0.0
 42
0.4142135623730951
  0
SEQEND
  5
525
  8
0
  0
POLYLINE
  5
83
  8
0
 66
     1
 10
0.0
 20
0.0
 30
0.0
 70
     1
  0
VERTEX
  5
196
  8
0
 10
-3.497468901525792
 20
-11.09061601362289
 30
0.0
 42
0.4142135623730951
  0
VERTEX
  5
197
  8
0
 10
-3.629468901525261
 20
-11.22261601362236
 30
0.0
 42
0.4142135623730951
  0
VERTEX
  5
198
  8
0
 10
-3.497468901525792
 20
-11.35461601362183
 30
0.0
 42
0.4142135623730951
  0
VERTEX
  5
199
  8
0
 10
-3.36546890152632
 20
-11.22261601362236
 30
0.0
 42
0.4142135623730951
  0
SEQEND
  5
526
  8
0
  0
POLYLINE
  5
84
  8
0
 66
     1
 10
0.0
 20
0.0
 30
0.0
 70
     1
  0
VERTEX
  5
19A
  8
0
 10
-1.734446011132956
 20
-11.10098182342716
 30
0.0
 42
0.4142135623730951
  0
VERTEX
  5
19B
  8
0
 10
-1.866446011132432
 20
-11.23298182342664
 30
0.0
 42
0.4142135623730951
  0
VERTEX
  5
19C
  8
0
 10
-1.734446011132956
 20
-11.36498182342611
 30
0.0
 42
0.4142135623730951
  0
VERTEX
  5
19D
  8
0
 10
-1.602446011133484
 20
-11.23298182342664
 30
0.0
 42
0.4142135623730951
  0
SEQEND
  5
527
  8
0
  0
POLYLINE
  5
85
  8
0
 66
     1
 10
0.0
 20
0.0
 30
0.0
 70
     1
  0
VERTEX
  5
19E
  8
0
 10
-4.079446011123576
 20
-5.167981823450898
 30
0.0
 42
0.4142135623730951
  0
VERTEX
  5
19F
  8
0
 10
-4.177446011123184
 20
-5.265981823450502
 30
0.0
 42
0.4142135623730951
  0
VERTEX
  5
1A0
  8
0
 10
-4.079446011123576
 20
-5.363981823450111
 30
0.0
 42
0.4142135623730951
  0
VERTEX
  5
1A1
  8
0
 10
-3.981446011123968
 20
-5.265981823450502
 30
0.0
 42
0.4142135623730951
  0
SEQEND
  5
528
  8
0
  0
POLYLINE
  5
86
  8
0
 66
     1
 10
0.0
 20
0.0
 30
0.0
 70
     1
  0
VERTEX
  5
1A2
  8
0
 10
-4.079446011123576
 20
-7.167981823442895
 30
0.0
 42
0.4142135623730951
  0
VERTEX
  5
1A3
  8
0
 10
-4.177446011123184
 20
-7.265981823442504
 30
0.0
 42
0.4142135623730951
  0
VERTEX
  5
1A4
  8
0
 10
-4.079446011123576
 20
-7.363981823442112
 30
0.0
 42
0.4142135623730951
  0
VERTEX
  5
1A5
  8
0
 10
-3.981446011123968
 20
-7.265981823442504
 30
0.0
 42
0.4142135623730951
  0
SEQEND
  5
529
  8
0
  0
POLYLINE
  5
87
  8
0
 66
     1
 10
0.0
 20
0.0
 30
0.0
 70
     1
  0
VERTEX
  5
1A6
  8
0
 10
-4.079446011123576
 20
-10.16798182343089
 30
0.0
 42
0.4142135623730951
  0
VERTEX
  5
1A7
  8
0
 10
-4.177446011123184
 20
-10.2659818234305
 30
0.0
 42
0.4142135623730951
  0
VERTEX
  5
1A8
  8
0
 10
-4.079446011123576
 20
-10.36398182343011
 30
0.0
 42
0.4142135623730951
  0
VERTEX
  5
1A9
  8
0
 10
-3.981446011123968
 20
-10.2659818234305
 30
0.0
 42
0.4142135623730951
  0
SEQEND
  5
52A
  8
0
  0
POLYLINE
  5
88
  8
0
 66
     1
 10
0.0
 20
0.0
 30
0.0
 70
     1
  0
VERTEX
  5
1AA
  8
0
 10
-10.46877897625902
 20
-6.367696850369727
 30
0.0
  0
VERTEX
  5
1AB
  8
0
 10
-10.70795059345064
 20
-6.367696850369727
 30
0.0
 42
-0.6064610301743129
  0
VERTEX
  5
1AC
  8
0
 10
-10.75918466088496
 20
-6.269401315255871
 30
0.0
  0
VERTEX
  5
1AD
  8
0
 10
-10.17675142798638
 20
-5.435765962824707
 30
0.0
 42
-0.8959847313615462
  0
VERTEX
  5
1AE
  8
0
 10
-10.06772497939763
 20
-5.49535836076711
 30
0.0
  0
VERTEX
  5
1AF
  8
0
 10
-10.41098659510458
 20
-6.328993713198276
 30
0.0
 42
-0.3039179107079675
  0
SEQEND
  5
52B
  8
0
  0
POLYLINE
  5
89
  8
0
 66
     1
 10
0.0
 20
0.0
 30
0.0
 70
     1
  0
VERTEX
  5
1B0
  8
0
 10
-11.05749999995427
 20
-5.624782623504817
 30
0.0
  0
VERTEX
  5
1B1
  8
0
 10
-11.05749999995427
 20
-5.278336714225816
 30
0.0
 42
-0.2419746008590783
  0
VERTEX
  5
1B2
  8
0
 10
-11.03137324845178
 20
-5.22751116165897
 30
0.0
  0
VERTEX
  5
1B3
  8
0
 10
-10.54727283121925
 20
-4.881065252379965
 30
0.0
 42
-0.8430486867039729
  0
VERTEX
  5
1B4
  8
0
 10
-10.45966551528768
 20
-4.967686340060915
 30
0.0
  0
VERTEX
  5
1B5
  8
0
 10
-10.94376593252021
 20
-5.660578158618925
 30
0.0
 42
-0.7336281531043002
  0
SEQEND
  5
52C
  8
0
  0
POLYLINE
  5
8A
  8
0
 66
     1
 10
0.0
 20
0.0
 30
0.0
 70
     1
  0
VERTEX
  5
1B6
  8
0
 10
-9.704721972854397
 20
-2.418018194274685
 30
0.0
  0
VERTEX
  5
1B7
  8
0
 10
-9.61060801001237
 20
-2.891746195157362
 30
0.0
 42
-0.6797639942567371
  0
VERTEX
  5
1B8
  8
0
 10
-9.708283218798876
 20
-2.954750403835002
 30
0.0
  0
VERTEX
  5
1B9
  8
0
 10
-10.37023914536561
 20
-2.481022402952325
 30
0.0
 42
-0.7292836521262159
  0
VERTEX
  5
1BA
  8
0
 10
-10.33386589686834
 20
-2.367696850385732
 30
0.0
  0
VERTEX
  5
1BB
  8
0
 10
-9.76602393314364
 20
-2.367696850385732
 30
0.0
 42
-0.3578723778283741
  0
SEQEND
  5
52D
  8
0
  0
POLYLINE
  5
8B
  8
0
 66
     1
 10
0.0
 20
0.0
 30
0.0
 70
     1
  0
VERTEX
  5
1BC
  8
0
 10
-11.05749999995427
 20
-4.509776452174284
 30
0.0
  0
VERTEX
  5
1BD
  8
0
 10
-11.05749999995427
 20
-2.725617248587175
 30
0.0
 42
-0.6103388898747165
  0
VERTEX
  5
1BE
  8
0
 10
-10.95862675145726
 20
-2.67479169602033
 30
0.0
  0
VERTEX
  5
1BF
  8
0
 10
-9.71209418788439
 20
-3.566871297813885
 30
0.0
 42
-0.5140475643255376
  0
VERTEX
  5
1C0
  8
0
 10
-9.71209418788439
 20
-3.668522402947572
 30
0.0
  0
VERTEX
  5
1C1
  8
0
 10
-10.95862675145726
 20
-4.560602004741124
 30
0.0
 42
-0.6103388898747149
  0
SEQEND
  5
52E
  8
0
  0
POLYLINE
  5
8C
  8
0
 66
     1
 10
0.0
 20
0.0
 30
0.0
 70
     1
  0
VERTEX
  5
1C2
  8
0
 10
-11.30749999995327
 20
-1.800196850388
 30
0.0
 42
0.414213562373095
  0
VERTEX
  5
1C3
  8
0
 10
-11.624999999952
 20
-2.117696850386727
 30
0.0
  0
VERTEX
  5
1C4
  8
0
 10
-11.624999999952
 20
-6.617696850368727
 30
0.0
 42
0.4142135623730951
  0
VERTEX
  5
1C5
  8
0
 10
-11.30749999995327
 20
-6.935196850367458
 30
0.0
  0
VERTEX
  5
1C6
  8
0
 10
-10.25949999995746
 20
-6.935196850367458
 30
0.0
 42
0.303917910707967
  0
VERTEX
  5
1C7
  8
0
 10
-9.965914703692913
 20
-6.738584913536481
 30
0.0
  0
VERTEX
  5
1C8
  8
0
 10
-9.351891821297386
 20
-5.247386484861646
 30
0.0
 42
-0.4060355945456779
  0
VERTEX
  5
1C9
  8
0
 10
-8.872120818987742
 20
-5.039551698949554
 30
0.0
 42
0.9910892342755268
  0
VERTEX
  5
1CA
  8
0
 10
-8.6415834602215
 20
-4.447905501021337
 30
0.0
  0
VERTEX
  5
1CB
  8
0
 10
-8.873954011810365
 20
-4.354957280385792
 30
0.0
 42
-0.5337795672281135
  0
VERTEX
  5
1CC
  8
0
 10
-8.983768735549223
 20
-3.838931391158335
 30
0.0
 42
0.2465834211484714
  0
VERTEX
  5
1CD
  8
0
 10
-8.900086041692301
 20
-3.555829277337883
 30
0.0
  0
VERTEX
  5
1CE
  8
0
 10
-9.19808604169111
 20
-2.055829277343888
 30
0.0
 42
0.3578723778283739
  0
VERTEX
  5
1CF
  8
0
 10
-9.509499999960457
 20
-1.800196850388
 30
0.0
  0
SEQEND
  5
52F
  8
0
  0
POLYLINE
  5
8D
  8
0
 66
     1
 10
0.0
 20
0.0
 30
0.0
 70
     1
  0
VERTEX
  5
1D0
  8
0
 10
-8.759499999963452
 20
-4.612696850376746
 30
0.0
 42
0.4142135623730951
  0
VERTEX
  5
1D1
  8
0
 10
-8.889499999962933
 20
-4.742696850376227
 30
0.0
 42
0.4142135623730951
  0
VERTEX
  5
1D2
  8
0
 10
-8.759499999963452
 20
-4.872696850375707
 30
0.0
 42
0.4142135623730951
  0
VERTEX
  5
1D3
  8
0
 10
-8.629499999963976
 20
-4.742696850376227
 30
0.0
 42
0.4142135623730951
  0
SEQEND
  5
530
  8
0
  0
POLYLINE
  5
8E
  8
0
 66
     1
 10
0.0
 20
0.0
 30
0.0
 70
     1
  0
VERTEX
  5
1D4
  8
0
 10
-9.384499999960958
 20
-4.39269685037763
 30
0.0
 42
0.4142135623730951
  0
VERTEX
  5
1D5
  8
0
 10
-9.484499999960558
 20
-4.49269685037723
 30
0.0
 42
0.4142135623730951
  0
VERTEX
  5
1D6
  8
0
 10
-9.384499999960958
 20
-4.592696850376829
 30
0.0
 42
0.4142135623730951
  0
VERTEX
  5
1D7
  8
0
 10
-9.284499999961358
 20
-4.49269685037723
 30
0.0
 42
0.4142135623730951
  0
SEQEND
  5
531
  8
0
  0
POLYLINE
  5
8F
  8
0
 66
     1
 10
0.0
 20
0.0
 30
0.0
 70
     1
  0
VERTEX
  5
1D8
  8
0
 10
-9.509499999960457
 20
-2.01769685038713
 30
0.0
 42
0.4142135623730951
  0
VERTEX
  5
1D9
  8
0
 10
-9.609499999960057
 20
-2.11769685038673
 30
0.0
 42
0.4142135623730951
  0
VERTEX
  5
1DA
  8
0
 10
-9.509499999960457
 20
-2.21769685038633
 30
0.0
 42
0.4142135623730951
  0
VERTEX
  5
1DB
  8
0
 10
-9.409499999960858
 20
-2.11769685038673
 30
0.0
 42
0.4142135623730951
  0
SEQEND
  5
532
  8
0
  0
POLYLINE
  5
90
  8
0
 66
     1
 10
0.0
 20
0.0
 30
0.0
 70
     1
  0
VERTEX
  5
1DC
  8
0
 10
-11.30749999995327
 20
-6.517696850369129
 30
0.0
 42
0.4142135623730951
  0
VERTEX
  5
1DD
  8
0
 10
-11.40749999995287
 20
-6.617696850368727
 30
0.0
 42
0.4142135623730951
  0
VERTEX
  5
1DE
  8
0
 10
-11.30749999995327
 20
-6.717696850368327
 30
0.0
 42
0.4142135623730951
  0
VERTEX
  5
1DF
  8
0
 10
-11.20749999995367
 20
-6.617696850368727
 30
0.0
 42
0.4142135623730951
  0
SEQEND
  5
533
  8
0
  0
POLYLINE
  5
91
  8
0
 66
     1
 10
0.0
 20
0.0
 30
0.0
 70
     1
  0
VERTEX
  5
1E0
  8
0
 10
-11.30749999995327
 20
-2.01769685038713
 30
0.0
 42
0.4142135623730951
  0
VERTEX
  5
1E1
  8
0
 10
-11.40749999995287
 20
-2.11769685038673
 30
0.0
 42
0.4142135623730951
  0
VERTEX
  5
1E2
  8
0
 10
-11.30749999995327
 20
-2.21769685038633
 30
0.0
 42
0.4142135623730951
  0
VERTEX
  5
1E3
  8
0
 10
-11.20749999995367
 20
-2.11769685038673
 30
0.0
 42
0.4142135623730951
  0
SEQEND
  5
534
  8
0
  0
POLYLINE
  5
92
  8
0
 66
     1
 10
0.0
 20
0.0
 30
0.0
 70
     1
  0
VERTEX
  5
1E4
  8
0
 10
-9.21149999996165
 20
-3.51769685038113
 30
0.0
 42
0.4142135623730951
  0
VERTEX
  5
1E5
  8
0
 10
-9.31149999996125
 20
-3.61769685038073
 30
0.0
 42
0.4142135623730951
  0
VERTEX
  5
1E6
  8
0
 10
-9.21149999996165
 20
-3.717696850380326
 30
0.0
 42
0.4142135623730951
  0
VERTEX
  5
1E7
  8
0
 10
-9.11149999996205
 20
-3.61769685038073
 30
0.0
 42
0.4142135623730951
  0
SEQEND
  5
535
  8
0
  0
POLYLINE
  5
93
  8
0
 66
     1
 10
0.0
 20
0.0
 30
0.0
 70
     1
  0
VERTEX
  5
1E8
  8
0
 10
-10.25949999995746
 20
-4.26969685037812
 30
0.0
 42
0.4142135623730951
  0
VERTEX
  5
1E9
  8
0
 10
-10.35749999995707
 20
-4.367696850377728
 30
0.0
 42
0.4142135623730951
  0
VERTEX
  5
1EA
  8
0
 10
-10.25949999995746
 20
-4.465696850377336
 30
0.0
 42
0.4142135623730951
  0
VERTEX
  5
1EB
  8
0
 10
-10.16149999995785
 20
-4.367696850377728
 30
0.0
 42
0.4142135623730951
  0
SEQEND
  5
536
  8
0
  0
POLYLINE
  5
94
  8
0
 66
     1
 10
0.0
 20
0.0
 30
0.0
 70
     1
  0
VERTEX
  5
1EC
  8
0
 10
-10.25949999995746
 20
-6.519696850369119
 30
0.0
 42
0.4142135623730951
  0
VERTEX
  5
1ED
  8
0
 10
-10.35749999995707
 20
-6.617696850368727
 30
0.0
 42
0.4142135623730951
  0
VERTEX
  5
1EE
  8
0
 10
-10.25949999995746
 20
-6.715696850368335
 30
0.0
 42
0.4142135623730951
  0
VERTEX
  5
1EF
  8
0
 10
-10.16149999995785
 20
-6.617696850368727
 30
0.0
 42
0.4142135623730951
  0
SEQEND
  5
537
  8
0
  0
POLYLINE
  5
95
  8
0
 66
     1
 10
0.0
 20
0.0
 30
0.0
 70
     1
  0
VERTEX
  5
1F0
  8
0
 10
-10.25949999995746
 20
-2.019696850387122
 30
0.0
 42
0.4142135623730951
  0
VERTEX
  5
1F1
  8
0
 10
-10.35749999995707
 20
-2.11769685038673
 30
0.0
 42
0.4142135623730951
  0
VERTEX
  5
1F2
  8
0
 10
-10.25949999995746
 20
-2.215696850386339
 30
0.0
 42
0.4142135623730951
  0
VERTEX
  5
1F3
  8
0
 10
-10.16149999995785
 20
-2.11769685038673
 30
0.0
 42
0.4142135623730951
  0
SEQEND
  5
538
  8
0
  0
POLYLINE
  5
96
  8
0
 66
     1
 10
0.0
 20
0.0
 30
0.0
 70
     1
  0
VERTEX
  5
1F4
  8
0
 10
-4.390778813202669
 20
-0.9524353162318526
 30
0.0
  0
VERTEX
  5
1F5
  8
0
 10
-3.989253910010643
 20
-1.220862976764007
 30
0.0
 42
-0.6797639942567371
  0
VERTEX
  5
1F6
  8
0
 10
-4.013770009298142
 20
-1.334480482450008
 30
0.0
  0
VERTEX
  5
1F7
  8
0
 10
-4.81681981568219
 20
-1.467577725109876
 30
0.0
 42
-0.7292836521262167
  0
VERTEX
  5
1F8
  8
0
 10
-4.871233311717541
 20
-1.361724687742125
 30
0.0
  0
VERTEX
  5
1F9
  8
0
 10
-4.469708408525518
 20
-0.9601997845501025
 30
0.0
 42
-0.3578723778283741
  0
SEQEND
  5
539
  8
0
  0
POLYLINE
  5
97
  8
0
 66
     1
 10
0.0
 20
0.0
 30
0.0
 70
     1
  0
VERTEX
  5
1FA
  8
0
 10
-3.385905198908212
 20
-1.799874651807036
 30
0.0
  0
VERTEX
  5
1FB
  8
0
 10
-2.974079060078768
 20
-4.121407841491599
 30
0.0
 42
-0.7336281531042973
  0
VERTEX
  5
1FC
  8
0
 10
-3.079812456028705
 20
-4.176518706210766
 30
0.0
  0
VERTEX
  5
1FD
  8
0
 10
-5.129831952414214
 20
-2.126499209825258
 30
0.0
 42
-0.610338889874716
  0
VERTEX
  5
1FE
  8
0
 10
-5.095857100801599
 20
-2.020646172457511
 30
0.0
  0
VERTEX
  5
1FF
  8
0
 10
-3.457663743245538
 20
-1.749132479158451
 30
0.0
 42
-0.4109015993646695
  0
SEQEND
  5
53A
  8
0
  0
POLYLINE
  5
98
  8
0
 66
     1
 10
0.0
 20
0.0
 30
0.0
 70
     1
  0
VERTEX
  5
200
  8
0
 10
-4.689601694156807
 20
-0.3775268735378727
 30
0.0
  0
VERTEX
  5
201
  8
0
 10
-5.96097968674118
 20
-1.648904866122246
 30
0.0
 42
0.4142135623730951
  0
VERTEX
  5
202
  8
0
 10
-5.960979686725132
 20
-2.097917672157859
 30
0.0
  0
VERTEX
  5
203
  8
0
 10
-2.778999171398397
 20
-5.279898187484596
 30
0.0
 42
0.7336281531219943
  0
VERTEX
  5
204
  8
0
 10
-2.241873519975263
 20
-4.999934994696838
 30
0.0
  0
VERTEX
  5
205
  8
0
 10
-2.624641664274638
 20
-2.842206606035772
 30
0.0
 42
-0.3485338084277532
  0
VERTEX
  5
206
  8
0
 10
-2.437091793173165
 20
-2.494921269258661
 30
0.0
  0
VERTEX
  5
207
  8
0
 10
-1.928920571176443
 20
-2.277133602688647
 30
0.0
 42
0.9999999999999998
  0
VERTEX
  5
208
  8
0
 10
-2.228299238095406
 20
-1.57858337987771
 30
0.0
  0
VERTEX
  5
209
  8
0
 10
-2.373375346657095
 20
-1.64075885497558
 30
0.0
 42
-0.3609221439183208
  0
VERTEX
  5
20A
  8
0
 10
-2.762232813522679
 20
-1.525628054965262
 30
0.0
  0
VERTEX
  5
20B
  8
0
 10
-2.929929208995448
 20
-1.275277880527284
 30
0.0
 42
0.0981407699245132
  0
VERTEX
  5
20C
  8
0
 10
-3.017261357348398
 20
-1.188025725463987
 30
0.0
  0
VERTEX
  5
20D
  8
0
 10
-4.288639349916727
 20
-0.3380833744811547
 30
0.0
 42
0.357872377828375
  0
SEQEND
  5
53B
  8
0
  0
POLYLINE
  5
99
  8
0
 66
     1
 10
0.0
 20
0.0
 30
0.0
 70
     1
  0
VERTEX
  5
20E
  8
0
 10
-2.149320582754296
 20
-1.857147813164808
 30
0.0
 42
0.4142135623730951
  0
VERTEX
  5
20F
  8
0
 10
-2.149320582754296
 20
-1.998569169401552
 30
0.0
 42
0.4142135623730951
  0
VERTEX
  5
210
  8
0
 10
-2.007899226517551
 20
-1.998569169401552
 30
0.0
 42
0.4142135623730951
  0
VERTEX
  5
211
  8
0
 10
-2.007899226517551
 20
-1.857147813164808
 30
0.0
 42
0.4142135623730951
  0
SEQEND
  5
53C
  8
0
  0
POLYLINE
  5
9A
  8
0
 66
     1
 10
0.0
 20
0.0
 30
0.0
 70
     1
  0
VERTEX
  5
212
  8
0
 10
-2.78925221972557
 20
-2.101099652673181
 30
0.0
 42
0.4142135623730951
  0
VERTEX
  5
213
  8
0
 10
-2.789252219725565
 20
-2.284947415780952
 30
0.0
 42
0.4142135623730951
  0
VERTEX
  5
214
  8
0
 10
-2.605404456617803
 20
-2.284947415780948
 30
0.0
 42
0.4142135623730951
  0
VERTEX
  5
215
  8
0
 10
-2.6054044566178
 20
-2.101099652673184
 30
0.0
 42
0.4142135623730951
  0
SEQEND
  5
53D
  8
0
  0
POLYLINE
  5
9B
  8
0
 66
     1
 10
0.0
 20
0.0
 30
0.0
 70
     1
  0
VERTEX
  5
216
  8
0
 10
-4.557019172684861
 20
-0.5101093950098186
 30
0.0
 42
0.4142135623730951
  0
VERTEX
  5
217
  8
0
 10
-4.55701917268486
 20
-0.6939571581175876
 30
0.0
 42
0.4142135623730951
  0
VERTEX
  5
218
  8
0
 10
-4.373171409577094
 20
-0.6939571581175858
 30
0.0
 42
0.4142135623730951
  0
VERTEX
  5
219
  8
0
 10
-4.373171409577092
 20
-0.5101093950098203
 30
0.0
 42
0.4142135623730951
  0
SEQEND
  5
53E
  8
0
  0
POLYLINE
  5
9C
  8
0
 66
     1
 10
0.0
 20
0.0
 30
0.0
 70
     1
  0
VERTEX
  5
21A
  8
0
 10
-2.646416649926451
 20
-4.963467902904881
 30
0.0
 42
0.4142135623730951
  0
VERTEX
  5
21B
  8
0
 10
-2.646416649926449
 20
-5.147315666012648
 30
0.0
 42
0.4142135623730951
  0
VERTEX
  5
21C
  8
0
 10
-2.462568886818683
 20
-5.147315666012648
 30
0.0
 42
0.4142135623730951
  0
VERTEX
  5
21D
  8
0
 10
-2.462568886818683
 20
-4.963467902904881
 30
0.0
 42
0.4142135623730951
  0
SEQEND
  5
53F
  8
0
  0
POLYLINE
  5
9D
  8
0
 66
     1
 10
0.0
 20
0.0
 30
0.0
 70
     1
  0
VERTEX
  5
21E
  8
0
 10
-5.828397165253187
 20
-1.781487387578144
 30
0.0
 42
0.4142135623730951
  0
VERTEX
  5
21F
  8
0
 10
-5.828397165253184
 20
-1.965335150685913
 30
0.0
 42
0.4142135623730951
  0
VERTEX
  5
220
  8
0
 10
-5.64454940214542
 20
-1.965335150685911
 30
0.0
 42
0.4142135623730951
  0
VERTEX
  5
221
  8
0
 10
-5.644549402145418
 20
-1.781487387578146
 30
0.0
 42
0.4142135623730951
  0
SEQEND
  5
540
  8
0
  0
POLYLINE
  5
9E
  8
0
 66
     1
 10
0.0
 20
0.0
 30
0.0
 70
     1
  0
VERTEX
  5
222
  8
0
 10
-3.285641180116533
 20
-1.360051745992653
 30
0.0
 42
0.4142135623730951
  0
VERTEX
  5
223
  8
0
 10
-3.285641180116535
 20
-1.543899509100417
 30
0.0
 42
0.4142135623730951
  0
VERTEX
  5
224
  8
0
 10
-3.101793417008766
 20
-1.54389950910042
 30
0.0
 42
0.4142135623730951
  0
VERTEX
  5
225
  8
0
 10
-3.101793417008768
 20
-1.360051745992649
 30
0.0
 42
0.4142135623730951
  0
SEQEND
  5
541
  8
0
  0
POLYLINE
  5
9F
  8
0
 66
     1
 10
0.0
 20
0.0
 30
0.0
 70
     1
  0
VERTEX
  5
226
  8
0
 10
-2.996454488610709
 20
2.482080345497188
 30
0.0
  0
VERTEX
  5
227
  8
0
 10
-3.090568451452732
 20
2.955808346379868
 30
0.0
 42
-0.6797639942567371
  0
VERTEX
  5
228
  8
0
 10
-2.992893242666227
 20
3.018812555057508
 30
0.0
  0
VERTEX
  5
229
  8
0
 10
-2.330937316099501
 20
2.545084554174828
 30
0.0
 42
-0.7292836521262167
  0
VERTEX
  5
22A
  8
0
 10
-2.367310564596766
 20
2.431759001608235
 30
0.0
  0
VERTEX
  5
22B
  8
0
 10
-2.935152528321467
 20
2.431759001608235
 30
0.0
 42
-0.3578723778283741
  0
SEQEND
  5
542
  8
0
  0
POLYLINE
  5
A0
  8
0
 66
     1
 10
0.0
 20
0.0
 30
0.0
 70
     1
  0
VERTEX
  5
22C
  8
0
 10
-3.107777334684318
 20
3.791863393229669
 30
0.0
  0
VERTEX
  5
22D
  8
0
 10
-1.7574105289449
 20
5.72464030984143
 30
0.0
 42
-0.7336281531042973
  0
VERTEX
  5
22E
  8
0
 10
-1.643676461510839
 20
5.688844774727325
 30
0.0
  0
VERTEX
  5
22F
  8
0
 10
-1.643676461510839
 20
2.789679399809678
 30
0.0
 42
-0.610338889874716
  0
VERTEX
  5
230
  8
0
 10
-1.742549710007854
 20
2.738853847242837
 30
0.0
  0
VERTEX
  5
231
  8
0
 10
-3.092916515747273
 20
3.705242305548715
 30
0.0
 42
-0.4109015993646695
  0
SEQEND
  5
543
  8
0
  0
POLYLINE
  5
A1
  8
0
 66
     1
 10
0.0
 20
0.0
 30
0.0
 70
     1
  0
VERTEX
  5
232
  8
0
 10
-3.191676461504647
 20
1.864259001610506
 30
0.0
  0
VERTEX
  5
233
  8
0
 10
-1.393676461489147
 20
1.864259001610506
 30
0.0
 42
0.4142135623730951
  0
VERTEX
  5
234
  8
0
 10
-1.076176461513112
 20
2.181759001609237
 30
0.0
  0
VERTEX
  5
235
  8
0
 10
-1.076176461513109
 20
6.681759001591235
 30
0.0
 42
0.7336281531219943
  0
VERTEX
  5
236
  8
0
 10
-1.65394552408651
 20
6.863600319958916
 30
0.0
  0
VERTEX
  5
237
  8
0
 10
-2.909031949211194
 20
5.067197993921674
 30
0.0
 42
-0.3485338084277532
  0
VERTEX
  5
238
  8
0
 10
-3.287217551519456
 20
4.95424796294644
 30
0.0
  0
VERTEX
  5
239
  8
0
 10
-3.800548004487645
 20
5.159580144133724
 30
0.0
 42
0.9999999999999998
  0
VERTEX
  5
23A
  8
0
 10
-4.082804918515644
 20
4.45393785906375
 30
0.0
  0
VERTEX
  5
23B
  8
0
 10
-3.936255918298318
 20
4.395318258976822
 30
0.0
 42
-0.3609221439183208
  0
VERTEX
  5
23C
  8
0
 10
-3.742701935973368
 20
4.038944737830416
 30
0.0
  0
VERTEX
  5
23D
  8
0
 10
-3.801146983570364
 20
3.74334117339475
 30
0.0
 42
0.0981407699245132
  0
VERTEX
  5
23E
  8
0
 10
-3.801090419772802
 20
3.619891428560393
 30
0.0
  0
VERTEX
  5
23F
  8
0
 10
-3.503090419773994
 20
2.11989142856639
 30
0.0
 42
0.357872377828375
  0
SEQEND
  5
544
  8
0
  0
POLYLINE
  5
A2
  8
0
 66
     1
 10
0.0
 20
0.0
 30
0.0
 70
     1
  0
VERTEX
  5
240
  8
0
 10
-3.941676461501643
 20
4.706759001599139
 30
0.0
 42
0.4142135623730951
  0
VERTEX
  5
241
  8
0
 10
-3.841676461502043
 20
4.806759001598738
 30
0.0
 42
0.4142135623730951
  0
VERTEX
  5
242
  8
0
 10
-3.941676461501643
 20
4.906759001598338
 30
0.0
 42
0.4142135623730951
  0
VERTEX
  5
243
  8
0
 10
-4.041676461501243
 20
4.806759001598738
 30
0.0
 42
0.4142135623730951
  0
SEQEND
  5
545
  8
0
  0
POLYLINE
  5
A3
  8
0
 66
     1
 10
0.0
 20
0.0
 30
0.0
 70
     1
  0
VERTEX
  5
244
  8
0
 10
-3.316676461504144
 20
4.426759001600246
 30
0.0
 42
0.4142135623730951
  0
VERTEX
  5
245
  8
0
 10
-3.186676461504666
 20
4.55675900159973
 30
0.0
 42
0.4142135623730951
  0
VERTEX
  5
246
  8
0
 10
-3.316676461504144
 20
4.686759001599206
 30
0.0
 42
0.4142135623730951
  0
VERTEX
  5
247
  8
0
 10
-3.446676461503625
 20
4.55675900159973
 30
0.0
 42
0.4142135623730951
  0
SEQEND
  5
546
  8
0
  0
POLYLINE
  5
A4
  8
0
 66
     1
 10
0.0
 20
0.0
 30
0.0
 70
     1
  0
VERTEX
  5
248
  8
0
 10
-3.191676461504645
 20
2.051759001609753
 30
0.0
 42
0.4142135623730951
  0
VERTEX
  5
249
  8
0
 10
-3.061676461505165
 20
2.181759001609237
 30
0.0
 42
0.4142135623730951
  0
VERTEX
  5
24A
  8
0
 10
-3.191676461504645
 20
2.311759001608714
 30
0.0
 42
0.4142135623730951
  0
VERTEX
  5
24B
  8
0
 10
-3.321676461504126
 20
2.181759001609237
 30
0.0
 42
0.4142135623730951
  0
SEQEND
  5
547
  8
0
  0
POLYLINE
  5
A5
  8
0
 66
     1
 10
0.0
 20
0.0
 30
0.0
 70
     1
  0
VERTEX
  5
24C
  8
0
 10
-1.39367646151184
 20
6.551759001591755
 30
0.0
 42
0.4142135623730951
  0
VERTEX
  5
24D
  8
0
 10
-1.263676461512361
 20
6.681759001591235
 30
0.0
 42
0.4142135623730951
  0
VERTEX
  5
24E
  8
0
 10
-1.39367646151184
 20
6.811759001590715
 30
0.0
 42
0.4142135623730951
  0
VERTEX
  5
24F
  8
0
 10
-1.52367646151132
 20
6.681759001591235
 30
0.0
 42
0.4142135623730951
  0
SEQEND
  5
548
  8
0
  0
POLYLINE
  5
A6
  8
0
 66
     1
 10
0.0
 20
0.0
 30
0.0
 70
     1
  0
VERTEX
  5
250
  8
0
 10
-1.393676461511841
 20
2.051759001609753
 30
0.0
 42
0.4142135623730951
  0
VERTEX
  5
251
  8
0
 10
-1.263676461512363
 20
2.181759001609237
 30
0.0
 42
0.4142135623730951
  0
VERTEX
  5
252
  8
0
 10
-1.393676461511841
 20
2.311759001608714
 30
0.0
 42
0.4142135623730951
  0
VERTEX
  5
253
  8
0
 10
-1.523676461511322
 20
2.181759001609237
 30
0.0
 42
0.4142135623730951
  0
SEQEND
  5
549
  8
0
  0
POLYLINE
  5
A7
  8
0
 66
     1
 10
0.0
 20
0.0
 30
0.0
 70
     1
  0
VERTEX
  5
254
  8
0
 10
-3.489676461503453
 20
3.551759001603756
 30
0.0
 42
0.4142135623730951
  0
VERTEX
  5
255
  8
0
 10
-3.359676461503973
 20
3.681759001603233
 30
0.0
 42
0.4142135623730951
  0
VERTEX
  5
256
  8
0
 10
-3.489676461503452
 20
3.811759001602717
 30
0.0
 42
0.4142135623730951
  0
VERTEX
  5
257
  8
0
 10
-3.619676461502934
 20
3.681759001603233
 30
0.0
 42
0.4142135623730951
  0
SEQEND
  5
54A
  8
0
  0
POLYLINE
  5
A8
  8
0
 66
     1
 10
0.0
 20
0.0
 30
0.0
 70
     1
  0
VERTEX
  5
258
  8
0
 10
-2.051572598850708
 20
-8.187210993042815
 30
0.0
  0
VERTEX
  5
259
  8
0
 10
-2.145686561692731
 20
-7.713482992160134
 30
0.0
 42
-0.6797639942567371
  0
VERTEX
  5
25A
  8
0
 10
-2.048011352906226
 20
-7.650478783482495
 30
0.0
  0
VERTEX
  5
25B
  8
0
 10
-1.3860554263395
 20
-8.124206784365175
 30
0.0
 42
-0.7292836521262167
  0
VERTEX
  5
25C
  8
0
 10
-1.422428674836764
 20
-8.237532336931768
 30
0.0
  0
VERTEX
  5
25D
  8
0
 10
-1.990270638561466
 20
-8.237532336931768
 30
0.0
 42
-0.3578723778283741
  0
SEQEND
  5
54B
  8
0
  0
POLYLINE
  5
A9
  8
0
 66
     1
 10
0.0
 20
0.0
 30
0.0
 70
     1
  0
VERTEX
  5
25E
  8
0
 10
-2.162895444924317
 20
-6.877427945310334
 30
0.0
  0
VERTEX
  5
25F
  8
0
 10
-0.8125286391848991
 20
-4.944651028698573
 30
0.0
 42
-0.7336281531042973
  0
VERTEX
  5
260
  8
0
 10
-0.6987945717508381
 20
-4.980446563812677
 30
0.0
  0
VERTEX
  5
261
  8
0
 10
-0.6987945717508381
 20
-7.879611938730324
 30
0.0
 42
-0.610338889874716
  0
VERTEX
  5
262
  8
0
 10
-0.7976678202478524
 20
-7.930437491297166
 30
0.0
  0
VERTEX
  5
263
  8
0
 10
-2.148034625987272
 20
-6.964049032991287
 30
0.0
 42
-0.4109015993646695
  0
SEQEND
  5
54C
  8
0
  0
POLYLINE
  5
AA
  8
0
 66
     1
 10
0.0
 20
0.0
 30
0.0
 70
     1
  0
VERTEX
  5
264
  8
0
 10
-2.246794571744646
 20
-8.805032336929496
 30
0.0
  0
VERTEX
  5
265
  8
0
 10
-0.4487945717291453
 20
-8.805032336929496
 30
0.0
 42
0.4142135623730951
  0
VERTEX
  5
266
  8
0
 10
-0.1312945717531111
 20
-8.487532336930766
 30
0.0
  0
VERTEX
  5
267
  8
0
 10
-0.1312945717531075
 20
-3.987532336948767
 30
0.0
 42
0.7336281531219943
  0
VERTEX
  5
268
  8
0
 10
-0.7090636343265082
 20
-3.805691018581088
 30
0.0
  0
VERTEX
  5
269
  8
0
 10
-1.964150059451192
 20
-5.602093344618329
 30
0.0
 42
-0.3485338084277532
  0
VERTEX
  5
26A
  8
0
 10
-2.342335661759455
 20
-5.715043375593563
 30
0.0
  0
VERTEX
  5
26B
  8
0
 10
-2.855666114727644
 20
-5.509711194406279
 30
0.0
 42
0.9999999999999998
  0
VERTEX
  5
26C
  8
0
 10
-3.137923028755644
 20
-6.215353479476253
 30
0.0
  0
VERTEX
  5
26D
  8
0
 10
-2.991374028538317
 20
-6.273973079563181
 30
0.0
 42
-0.3609221439183208
  0
VERTEX
  5
26E
  8
0
 10
-2.797820046213367
 20
-6.630346600709586
 30
0.0
  0
VERTEX
  5
26F
  8
0
 10
-2.856265093810363
 20
-6.925950165145252
 30
0.0
 42
0.0981407699245132
  0
VERTEX
  5
270
  8
0
 10
-2.8562085300128
 20
-7.049399909979609
 30
0.0
  0
VERTEX
  5
271
  8
0
 10
-2.558208530013992
 20
-8.549399909973612
 30
0.0
 42
0.357872377828375
  0
SEQEND
  5
54D
  8
0
  0
POLYLINE
  5
AB
  8
0
 66
     1
 10
0.0
 20
0.0
 30
0.0
 70
     1
  0
VERTEX
  5
272
  8
0
 10
-2.996794571741642
 20
-5.962532336940864
 30
0.0
 42
0.4142135623730951
  0
VERTEX
  5
273
  8
0
 10
-2.896794571742042
 20
-5.862532336941264
 30
0.0
 42
0.4142135623730951
  0
VERTEX
  5
274
  8
0
 10
-2.996794571741642
 20
-5.762532336941664
 30
0.0
 42
0.4142135623730951
  0
VERTEX
  5
275
  8
0
 10
-3.096794571741242
 20
-5.862532336941264
 30
0.0
 42
0.4142135623730951
  0
SEQEND
  5
54E
  8
0
  0
POLYLINE
  5
AC
  8
0
 66
     1
 10
0.0
 20
0.0
 30
0.0
 70
     1
  0
VERTEX
  5
276
  8
0
 10
-2.371794571744143
 20
-6.242532336939757
 30
0.0
 42
0.4142135623730951
  0
VERTEX
  5
277
  8
0
 10
-2.241794571744665
 20
-6.112532336940273
 30
0.0
 42
0.4142135623730951
  0
VERTEX
  5
278
  8
0
 10
-2.371794571744143
 20
-5.982532336940796
 30
0.0
 42
0.4142135623730951
  0
VERTEX
  5
279
  8
0
 10
-2.501794571743623
 20
-6.112532336940273
 30
0.0
 42
0.4142135623730951
  0
SEQEND
  5
54F
  8
0
  0
POLYLINE
  5
AD
  8
0
 66
     1
 10
0.0
 20
0.0
 30
0.0
 70
     1
  0
VERTEX
  5
27A
  8
0
 10
-2.246794571744644
 20
-8.61753233693025
 30
0.0
 42
0.4142135623730951
  0
VERTEX
  5
27B
  8
0
 10
-2.116794571745164
 20
-8.487532336930766
 30
0.0
 42
0.4142135623730951
  0
VERTEX
  5
27C
  8
0
 10
-2.246794571744644
 20
-8.357532336931289
 30
0.0
 42
0.4142135623730951
  0
VERTEX
  5
27D
  8
0
 10
-2.376794571744124
 20
-8.487532336930766
 30
0.0
 42
0.4142135623730951
  0
SEQEND
  5
550
  8
0
  0
POLYLINE
  5
AE
  8
0
 66
     1
 10
0.0
 20
0.0
 30
0.0
 70
     1
  0
VERTEX
  5
27E
  8
0
 10
-0.4487945717518382
 20
-4.117532336948248
 30
0.0
 42
0.4142135623730951
  0
VERTEX
  5
27F
  8
0
 10
-0.3187945717523597
 20
-3.987532336948767
 30
0.0
 42
0.4142135623730951
  0
VERTEX
  5
280
  8
0
 10
-0.4487945717518382
 20
-3.857532336949287
 30
0.0
 42
0.4142135623730951
  0
VERTEX
  5
281
  8
0
 10
-0.5787945717513185
 20
-3.987532336948767
 30
0.0
 42
0.4142135623730951
  0
SEQEND
  5
551
  8
0
  0
POLYLINE
  5
AF
  8
0
 66
     1
 10
0.0
 20
0.0
 30
0.0
 70
     1
  0
VERTEX
  5
282
  8
0
 10
-0.44879457175184
 20
-8.61753233693025
 30
0.0
 42
0.4142135623730951
  0
VERTEX
  5
283
  8
0
 10
-0.3187945717523615
 20
-8.487532336930766
 30
0.0
 42
0.4142135623730951
  0
VERTEX
  5
284
  8
0
 10
-0.44879457175184
 20
-8.357532336931289
 30
0.0
 42
0.4142135623730951
  0
VERTEX
  5
285
  8
0
 10
-0.5787945717513203
 20
-8.487532336930766
 30
0.0
 42
0.4142135623730951
  0
SEQEND
  5
552
  8
0
  0
POLYLINE
  5
B0
  8
0
 66
     1
 10
0.0
 20
0.0
 30
0.0
 70
     1
  0
VERTEX
  5
286
  8
0
 10
-2.544794571743452
 20
-7.117532336936247
 30
0.0
 42
0.4142135623730951
  0
VERTEX
  5
287
  8
0
 10
-2.414794571743972
 20
-6.98753233693677
 30
0.0
 42
0.4142135623730951
  0
VERTEX
  5
288
  8
0
 10
-2.54479457174345
 20
-6.857532336937286
 30
0.0
 42
0.4142135623730951
  0
VERTEX
  5
289
  8
0
 10
-2.674794571742932
 20
-6.98753233693677
 30
0.0
 42
0.4142135623730951
  0
SEQEND
  5
553
  8
0
  0
POLYLINE
  5
B1
  8
0
 66
     1
 10
0.0
 20
0.0
 30
0.0
 70
     1
  0
VERTEX
  5
28A
  8
0
 10
1.238392095432811
 20
9.527556618524404
 30
0.0
  0
VERTEX
  5
28B
  8
0
 10
0.7646640945501311
 20
9.433442655682377
 30
0.0
 42
-0.6797639942567371
  0
VERTEX
  5
28C
  8
0
 10
0.7016598858724912
 20
9.531117864468882
 30
0.0
  0
VERTEX
  5
28D
  8
0
 10
1.175387886755171
 20
10.19307379103561
 30
0.0
 42
-0.7292836521262167
  0
VERTEX
  5
28E
  8
0
 10
1.288713439321764
 20
10.15670054253835
 30
0.0
  0
VERTEX
  5
28F
  8
0
 10
1.288713439321764
 20
9.588858578813642
 30
0.0
 42
-0.3578723778283741
  0
SEQEND
  5
554
  8
0
  0
POLYLINE
  5
B2
  8
0
 66
     1
 10
0.0
 20
0.0
 30
0.0
 70
     1
  0
VERTEX
  5
290
  8
0
 10
-0.0713909522996694
 20
9.416233772450791
 30
0.0
  0
VERTEX
  5
291
  8
0
 10
-2.004167868911431
 20
10.76660057819021
 30
0.0
 42
-0.7336281531042973
  0
VERTEX
  5
292
  8
0
 10
-1.968372333797326
 20
10.88033464562427
 30
0.0
  0
VERTEX
  5
293
  8
0
 10
0.9307930411203209
 20
10.88033464562427
 30
0.0
 42
-0.610338889874716
  0
VERTEX
  5
294
  8
0
 10
0.9816185936871626
 20
10.78146139712726
 30
0.0
  0
VERTEX
  5
295
  8
0
 10
0.0152301353812838
 20
9.431094591387836
 30
0.0
 42
-0.4109015993646695
  0
SEQEND
  5
555
  8
0
  0
POLYLINE
  5
B3
  8
0
 66
     1
 10
0.0
 20
0.0
 30
0.0
 70
     1
  0
VERTEX
  5
296
  8
0
 10
1.856213439319493
 20
9.332334645630464
 30
0.0
  0
VERTEX
  5
297
  8
0
 10
1.856213439319493
 20
11.13033464564597
 30
0.0
 42
0.4142135623730951
  0
VERTEX
  5
298
  8
0
 10
1.538713439320762
 20
11.447834645622
 30
0.0
  0
VERTEX
  5
299
  8
0
 10
-2.961286560661236
 20
11.447834645622
 30
0.0
 42
0.7336281531219943
  0
VERTEX
  5
29A
  8
0
 10
-3.143127879028913
 20
10.8700655830486
 30
0.0
  0
VERTEX
  5
29B
  8
0
 10
-1.346725552991675
 20
9.614979157923916
 30
0.0
 42
-0.3485338084277532
  0
VERTEX
  5
29C
  8
0
 10
-1.23377552201644
 20
9.236793555615655
 30
0.0
  0
VERTEX
  5
29D
  8
0
 10
-1.439107703203724
 20
8.723463102647464
 30
0.0
 42
0.9999999999999998
  0
VERTEX
  5
29E
  8
0
 10
-0.7334654181337505
 20
8.441206188619468
 30
0.0
  0
VERTEX
  5
29F
  8
0
 10
-0.6748458180468226
 20
8.587755188836791
 30
0.0
 42
-0.3609221439183208
  0
VERTEX
  5
2A0
  8
0
 10
-0.318472296900417
 20
8.781309171161741
 30
0.0
  0
VERTEX
  5
2A1
  8
0
 10
-0.022868732464751
 20
8.722864123564747
 30
0.0
 42
0.0981407699245132
  0
VERTEX
  5
2A2
  8
0
 10
0.1005810123696058
 20
8.722920687362311
 30
0.0
  0
VERTEX
  5
2A3
  8
0
 10
1.600581012363609
 20
9.02092068736112
 30
0.0
 42
0.357872377828375
  0
SEQEND
  5
556
  8
0
  0
POLYLINE
  5
B4
  8
0
 66
     1
 10
0.0
 20
0.0
 30
0.0
 70
     1
  0
VERTEX
  5
2A4
  8
0
 10
-0.9862865606691393
 20
8.582334645633466
 30
0.0
 42
0.4142135623730951
  0
VERTEX
  5
2A5
  8
0
 10
-1.086286560668739
 20
8.682334645633066
 30
0.0
 42
0.4142135623730951
  0
VERTEX
  5
2A6
  8
0
 10
-1.186286560668339
 20
8.582334645633466
 30
0.0
 42
0.4142135623730951
  0
VERTEX
  5
2A7
  8
0
 10
-1.086286560668739
 20
8.482334645633866
 30
0.0
 42
0.4142135623730951
  0
SEQEND
  5
557
  8
0
  0
POLYLINE
  5
B5
  8
0
 66
     1
 10
0.0
 20
0.0
 30
0.0
 70
     1
  0
VERTEX
  5
2A8
  8
0
 10
-0.7062865606702466
 20
9.207334645630965
 30
0.0
 42
0.4142135623730951
  0
VERTEX
  5
2A9
  8
0
 10
-0.8362865606697305
 20
9.337334645630445
 30
0.0
 42
0.4142135623730951
  0
VERTEX
  5
2AA
  8
0
 10
-0.9662865606692073
 20
9.207334645630965
 30
0.0
 42
0.4142135623730951
  0
VERTEX
  5
2AB
  8
0
 10
-0.8362865606697305
 20
9.077334645631485
 30
0.0
 42
0.4142135623730951
  0
SEQEND
  5
558
  8
0
  0
POLYLINE
  5
B6
  8
0
 66
     1
 10
0.0
 20
0.0
 30
0.0
 70
     1
  0
VERTEX
  5
2AC
  8
0
 10
1.668713439320246
 20
9.332334645630464
 30
0.0
 42
0.4142135623730951
  0
VERTEX
  5
2AD
  8
0
 10
1.538713439320762
 20
9.462334645629944
 30
0.0
 42
0.4142135623730951
  0
VERTEX
  5
2AE
  8
0
 10
1.408713439321286
 20
9.332334645630464
 30
0.0
 42
0.4142135623730951
  0
VERTEX
  5
2AF
  8
0
 10
1.538713439320762
 20
9.202334645630984
 30
0.0
 42
0.4142135623730951
  0
SEQEND
  5
559
  8
0
  0
POLYLINE
  5
B7
  8
0
 66
     1
 10
0.0
 20
0.0
 30
0.0
 70
     1
  0
VERTEX
  5
2B0
  8
0
 10
-2.831286560661756
 20
11.13033464562327
 30
0.0
 42
0.4142135623730951
  0
VERTEX
  5
2B1
  8
0
 10
-2.961286560661236
 20
11.26033464562275
 30
0.0
 42
0.4142135623730951
  0
VERTEX
  5
2B2
  8
0
 10
-3.091286560660716
 20
11.13033464562327
 30
0.0
 42
0.4142135623730951
  0
VERTEX
  5
2B3
  8
0
 10
-2.961286560661236
 20
11.00033464562379
 30
0.0
 42
0.4142135623730951
  0
SEQEND
  5
55A
  8
0
  0
POLYLINE
  5
B8
  8
0
 66
     1
 10
0.0
 20
0.0
 30
0.0
 70
     1
  0
VERTEX
  5
2B4
  8
0
 10
1.668713439320246
 20
11.13033464562327
 30
0.0
 42
0.4142135623730951
  0
VERTEX
  5
2B5
  8
0
 10
1.538713439320762
 20
11.26033464562275
 30
0.0
 42
0.4142135623730951
  0
VERTEX
  5
2B6
  8
0
 10
1.408713439321286
 20
11.13033464562327
 30
0.0
 42
0.4142135623730951
  0
VERTEX
  5
2B7
  8
0
 10
1.538713439320762
 20
11.00033464562379
 30
0.0
 42
0.4142135623730951
  0
SEQEND
  5
55B
  8
0
  0
POLYLINE
  5
B9
  8
0
 66
     1
 10
0.0
 20
0.0
 30
0.0
 70
     1
  0
VERTEX
  5
2B8
  8
0
 10
0.1687134393262433
 20
9.03433464563166
 30
0.0
 42
0.4142135623730951
  0
VERTEX
  5
2B9
  8
0
 10
0.0387134393267665
 20
9.164334645631136
 30
0.0
 42
0.4142135623730951
  0
VERTEX
  5
2BA
  8
0
 10
-0.0912865606727173
 20
9.03433464563166
 30
0.0
 42
0.4142135623730951
  0
VERTEX
  5
2BB
  8
0
 10
0.0387134393267665
 20
8.904334645632176
 30
0.0
 42
0.4142135623730951
  0
SEQEND
  5
55C
  8
0
  0
POLYLINE
  5
BA
  8
0
 66
     1
 10
0.0
 20
0.0
 30
0.0
 70
     1
  0
VERTEX
  5
2BC
  8
0
 10
1.0433095231656
 20
7.542611726945317
 30
0.0
  0
VERTEX
  5
2BD
  8
0
 10
1.137423486007625
 20
7.068883726062637
 30
0.0
 42
-0.6797639942567371
  0
VERTEX
  5
2BE
  8
0
 10
1.03974827722112
 20
7.005879517384997
 30
0.0
  0
VERTEX
  5
2BF
  8
0
 10
0.3777923506543921
 20
7.479607518267677
 30
0.0
 42
-0.7292836521262167
  0
VERTEX
  5
2C0
  8
0
 10
0.4141655991516568
 20
7.59293307083427
 30
0.0
  0
VERTEX
  5
2C1
  8
0
 10
0.98200756287636
 20
7.59293307083427
 30
0.0
 42
-0.3578723778283741
  0
SEQEND
  5
55D
  8
0
  0
POLYLINE
  5
BB
  8
0
 66
     1
 10
0.0
 20
0.0
 30
0.0
 70
     1
  0
VERTEX
  5
2C2
  8
0
 10
1.154632369239211
 20
6.232828679212837
 30
0.0
  0
VERTEX
  5
2C3
  8
0
 10
-0.1957344365002065
 20
4.300051762601075
 30
0.0
 42
-0.7336281531042973
  0
VERTEX
  5
2C4
  8
0
 10
-0.3094685039342675
 20
4.33584729771518
 30
0.0
  0
VERTEX
  5
2C5
  8
0
 10
-0.3094685039342675
 20
7.235012672632827
 30
0.0
 42
-0.610338889874716
  0
VERTEX
  5
2C6
  8
0
 10
-0.2105952554372532
 20
7.285838225199669
 30
0.0
  0
VERTEX
  5
2C7
  8
0
 10
1.139771550302166
 20
6.31944976689379
 30
0.0
 42
-0.4109015993646695
  0
SEQEND
  5
55E
  8
0
  0
POLYLINE
  5
BC
  8
0
 66
     1
 10
0.0
 20
0.0
 30
0.0
 70
     1
  0
VERTEX
  5
2C8
  8
0
 10
1.238531496059538
 20
8.160433070832
 30
0.0
  0
VERTEX
  5
2C9
  8
0
 10
-0.5594685039559621
 20
8.160433070832
 30
0.0
 42
0.4142135623730951
  0
VERTEX
  5
2CA
  8
0
 10
-0.8769685039319963
 20
7.842933070833269
 30
0.0
  0
VERTEX
  5
2CB
  8
0
 10
-0.8769685039319981
 20
3.34293307085127
 30
0.0
 42
0.7336281531219943
  0
VERTEX
  5
2CC
  8
0
 10
-0.2991994413585974
 20
3.161091752483591
 30
0.0
  0
VERTEX
  5
2CD
  8
0
 10
0.9558869837660868
 20
4.957494078520831
 30
0.0
 42
-0.3485338084277532
  0
VERTEX
  5
2CE
  8
0
 10
1.334072586074349
 20
5.070444109496066
 30
0.0
  0
VERTEX
  5
2CF
  8
0
 10
1.847403039042538
 20
4.865111928308782
 30
0.0
 42
0.9999999999999998
  0
VERTEX
  5
2D0
  8
0
 10
2.129659953070536
 20
5.570754213378756
 30
0.0
  0
VERTEX
  5
2D1
  8
0
 10
1.983110952853211
 20
5.629373813465683
 30
0.0
 42
-0.3609221439183208
  0
VERTEX
  5
2D2
  8
0
 10
1.789556970528261
 20
5.985747334612089
 30
0.0
  0
VERTEX
  5
2D3
  8
0
 10
1.848002018125257
 20
6.281350899047755
 30
0.0
 42
0.0981407699245132
  0
VERTEX
  5
2D4
  8
0
 10
1.847945454327693
 20
6.404800643882112
 30
0.0
  0
VERTEX
  5
2D5
  8
0
 10
1.549945454328885
 20
7.904800643876115
 30
0.0
 42
0.357872377828375
  0
SEQEND
  5
55F
  8
0
  0
POLYLINE
  5
BD
  8
0
 66
     1
 10
0.0
 20
0.0
 30
0.0
 70
     1
  0
VERTEX
  5
2D6
  8
0
 10
1.988531496056536
 20
5.317933070843367
 30
0.0
 42
0.4142135623730951
  0
VERTEX
  5
2D7
  8
0
 10
1.888531496056936
 20
5.217933070843767
 30
0.0
 42
0.4142135623730951
  0
VERTEX
  5
2D8
  8
0
 10
1.988531496056536
 20
5.117933070844167
 30
0.0
 42
0.4142135623730951
  0
VERTEX
  5
2D9
  8
0
 10
2.088531496056136
 20
5.217933070843767
 30
0.0
 42
0.4142135623730951
  0
SEQEND
  5
560
  8
0
  0
POLYLINE
  5
BE
  8
0
 66
     1
 10
0.0
 20
0.0
 30
0.0
 70
     1
  0
VERTEX
  5
2DA
  8
0
 10
1.363531496059037
 20
5.597933070842259
 30
0.0
 42
0.4142135623730951
  0
VERTEX
  5
2DB
  8
0
 10
1.233531496059559
 20
5.467933070842776
 30
0.0
 42
0.4142135623730951
  0
VERTEX
  5
2DC
  8
0
 10
1.363531496059037
 20
5.337933070843299
 30
0.0
 42
0.4142135623730951
  0
VERTEX
  5
2DD
  8
0
 10
1.493531496058518
 20
5.467933070842776
 30
0.0
 42
0.4142135623730951
  0
SEQEND
  5
561
  8
0
  0
POLYLINE
  5
BF
  8
0
 66
     1
 10
0.0
 20
0.0
 30
0.0
 70
     1
  0
VERTEX
  5
2DE
  8
0
 10
1.238531496059538
 20
7.972933070832752
 30
0.0
 42
0.4142135623730951
  0
VERTEX
  5
2DF
  8
0
 10
1.108531496060058
 20
7.842933070833269
 30
0.0
 42
0.4142135623730951
  0
VERTEX
  5
2E0
  8
0
 10
1.238531496059538
 20
7.712933070833792
 30
0.0
 42
0.4142135623730951
  0
VERTEX
  5
2E1
  8
0
 10
1.368531496059019
 20
7.842933070833269
 30
0.0
 42
0.4142135623730951
  0
SEQEND
  5
562
  8
0
  0
POLYLINE
  5
C0
  8
0
 66
     1
 10
0.0
 20
0.0
 30
0.0
 70
     1
  0
VERTEX
  5
2E2
  8
0
 10
-0.5594685039332674
 20
3.47293307085075
 30
0.0
 42
0.4142135623730951
  0
VERTEX
  5
2E3
  8
0
 10
-0.689468503932746
 20
3.34293307085127
 30
0.0
 42
0.4142135623730951
  0
VERTEX
  5
2E4
  8
0
 10
-0.5594685039332674
 20
3.21293307085179
 30
0.0
 42
0.4142135623730951
  0
VERTEX
  5
2E5
  8
0
 10
-0.4294685039337871
 20
3.34293307085127
 30
0.0
 42
0.4142135623730951
  0
SEQEND
  5
563
  8
0
  0
POLYLINE
  5
C1
  8
0
 66
     1
 10
0.0
 20
0.0
 30
0.0
 70
     1
  0
VERTEX
  5
2E6
  8
0
 10
-0.5594685039332674
 20
7.972933070832752
 30
0.0
 42
0.4142135623730951
  0
VERTEX
  5
2E7
  8
0
 10
-0.689468503932746
 20
7.842933070833269
 30
0.0
 42
0.4142135623730951
  0
VERTEX
  5
2E8
  8
0
 10
-0.5594685039332674
 20
7.712933070833792
 30
0.0
 42
0.4142135623730951
  0
VERTEX
  5
2E9
  8
0
 10
-0.4294685039337871
 20
7.842933070833269
 30
0.0
 42
0.4142135623730951
  0
SEQEND
  5
564
  8
0
  0
POLYLINE
  5
C2
  8
0
 66
     1
 10
0.0
 20
0.0
 30
0.0
 70
     1
  0
VERTEX
  5
2EA
  8
0
 10
1.536531496058345
 20
6.472933070838749
 30
0.0
 42
0.4142135623730951
  0
VERTEX
  5
2EB
  8
0
 10
1.406531496058866
 20
6.342933070839273
 30
0.0
 42
0.4142135623730951
  0
VERTEX
  5
2EC
  8
0
 10
1.536531496058345
 20
6.212933070839789
 30
0.0
 42
0.4142135623730951
  0
VERTEX
  5
2ED
  8
0
 10
1.666531496057827
 20
6.342933070839273
 30
0.0
 42
0.4142135623730951
  0
SEQEND
  5
565
  8
0
  0
POLYLINE
  5
C3
  8
0
 66
     1
 10
0.0
 20
0.0
 30
0.0
 70
     1
  0
VERTEX
  5
2EE
  8
0
 10
1.0433095231656
 20
2.207966057675318
 30
0.0
  0
VERTEX
  5
2EF
  8
0
 10
1.137423486007625
 20
1.734238056792638
 30
0.0
 42
-0.6797639942567371
  0
VERTEX
  5
2F0
  8
0
 10
1.03974827722112
 20
1.671233848114998
 30
0.0
  0
VERTEX
  5
2F1
  8
0
 10
0.3777923506543921
 20
2.144961848997678
 30
0.0
 42
-0.7292836521262167
  0
VERTEX
  5
2F2
  8
0
 10
0.4141655991516568
 20
2.258287401564271
 30
0.0
  0
VERTEX
  5
2F3
  8
0
 10
0.98200756287636
 20
2.258287401564271
 30
0.0
 42
-0.3578723778283741
  0
SEQEND
  5
566
  8
0
  0
POLYLINE
  5
C4
  8
0
 66
     1
 10
0.0
 20
0.0
 30
0.0
 70
     1
  0
VERTEX
  5
2F4
  8
0
 10
1.154632369239211
 20
0.8981830099428372
 30
0.0
  0
VERTEX
  5
2F5
  8
0
 10
-0.1957344365002065
 20
-1.034593906668924
 30
0.0
 42
-0.7336281531042973
  0
VERTEX
  5
2F6
  8
0
 10
-0.3094685039342675
 20
-0.9987983715548197
 30
0.0
  0
VERTEX
  5
2F7
  8
0
 10
-0.3094685039342675
 20
1.900367003362827
 30
0.0
 42
-0.610338889874716
  0
VERTEX
  5
2F8
  8
0
 10
-0.2105952554372532
 20
1.951192555929669
 30
0.0
  0
VERTEX
  5
2F9
  8
0
 10
1.139771550302166
 20
0.9848040976237904
 30
0.0
 42
-0.4109015993646695
  0
SEQEND
  5
567
  8
0
  0
POLYLINE
  5
C5
  8
0
 66
     1
 10
0.0
 20
0.0
 30
0.0
 70
     1
  0
VERTEX
  5
2FA
  8
0
 10
1.238531496059538
 20
2.825787401562
 30
0.0
  0
VERTEX
  5
2FB
  8
0
 10
-0.5594685039559621
 20
2.825787401562
 30
0.0
 42
0.4142135623730951
  0
VERTEX
  5
2FC
  8
0
 10
-0.8769685039319963
 20
2.508287401563269
 30
0.0
  0
VERTEX
  5
2FD
  8
0
 10
-0.8769685039319981
 20
-1.991712598418729
 30
0.0
 42
0.7336281531219943
  0
VERTEX
  5
2FE
  8
0
 10
-0.2991994413585974
 20
-2.173553916786407
 30
0.0
  0
VERTEX
  5
2FF
  8
0
 10
0.9558869837660868
 20
-0.3771515907491683
 30
0.0
 42
-0.3485338084277532
  0
VERTEX
  5
300
  8
0
 10
1.334072586074349
 20
-0.2642015597739338
 30
0.0
  0
VERTEX
  5
301
  8
0
 10
1.847403039042538
 20
-0.4695337409612179
 30
0.0
 42
0.9999999999999998
  0
VERTEX
  5
302
  8
0
 10
2.129659953070536
 20
0.236108544108756
 30
0.0
  0
VERTEX
  5
303
  8
0
 10
1.983110952853211
 20
0.2947281441956839
 30
0.0
 42
-0.3609221439183208
  0
VERTEX
  5
304
  8
0
 10
1.789556970528261
 20
0.6511016653420896
 30
0.0
  0
VERTEX
  5
305
  8
0
 10
1.848002018125257
 20
0.9467052297777556
 30
0.0
 42
0.0981407699245132
  0
VERTEX
  5
306
  8
0
 10
1.847945454327693
 20
1.070154974612112
 30
0.0
  0
VERTEX
  5
307
  8
0
 10
1.549945454328885
 20
2.570154974606115
 30
0.0
 42
0.357872377828375
  0
SEQEND
  5
568
  8
0
  0
POLYLINE
  5
C6
  8
0
 66
     1
 10
0.0
 20
0.0
 30
0.0
 70
     1
  0
VERTEX
  5
308
  8
0
 10
1.988531496056536
 20
-0.0167125984266328
 30
0.0
 42
0.4142135623730951
  0
VERTEX
  5
309
  8
0
 10
1.888531496056936
 20
-0.1167125984262327
 30
0.0
 42
0.4142135623730951
  0
VERTEX
  5
30A
  8
0
 10
1.988531496056536
 20
-0.2167125984258327
 30
0.0
 42
0.4142135623730951
  0
VERTEX
  5
30B
  8
0
 10
2.088531496056136
 20
-0.1167125984262327
 30
0.0
 42
0.4142135623730951
  0
SEQEND
  5
569
  8
0
  0
POLYLINE
  5
C7
  8
0
 66
     1
 10
0.0
 20
0.0
 30
0.0
 70
     1
  0
VERTEX
  5
30C
  8
0
 10
1.363531496059037
 20
0.2632874015722599
 30
0.0
 42
0.4142135623730951
  0
VERTEX
  5
30D
  8
0
 10
1.233531496059559
 20
0.1332874015727761
 30
0.0
 42
0.4142135623730951
  0
VERTEX
  5
30E
  8
0
 10
1.363531496059037
 20
0.0032874015732993
 30
0.0
 42
0.4142135623730951
  0
VERTEX
  5
30F
  8
0
 10
1.493531496058518
 20
0.1332874015727761
 30
0.0
 42
0.4142135623730951
  0
SEQEND
  5
56A
  8
0
  0
POLYLINE
  5
C8
  8
0
 66
     1
 10
0.0
 20
0.0
 30
0.0
 70
     1
  0
VERTEX
  5
310
  8
0
 10
1.238531496059538
 20
2.638287401562753
 30
0.0
 42
0.4142135623730951
  0
VERTEX
  5
311
  8
0
 10
1.108531496060058
 20
2.508287401563269
 30
0.0
 42
0.4142135623730951
  0
VERTEX
  5
312
  8
0
 10
1.238531496059538
 20
2.378287401563792
 30
0.0
 42
0.4142135623730951
  0
VERTEX
  5
313
  8
0
 10
1.368531496059019
 20
2.508287401563269
 30
0.0
 42
0.4142135623730951
  0
SEQEND
  5
56B
  8
0
  0
POLYLINE
  5
C9
  8
0
 66
     1
 10
0.0
 20
0.0
 30
0.0
 70
     1
  0
VERTEX
  5
314
  8
0
 10
-0.5594685039332674
 20
-1.861712598419249
 30
0.0
 42
0.4142135623730951
  0
VERTEX
  5
315
  8
0
 10
-0.689468503932746
 20
-1.991712598418729
 30
0.0
 42
0.4142135623730951
  0
VERTEX
  5
316
  8
0
 10
-0.5594685039332674
 20
-2.12171259841821
 30
0.0
 42
0.4142135623730951
  0
VERTEX
  5
317
  8
0
 10
-0.4294685039337871
 20
-1.991712598418729
 30
0.0
 42
0.4142135623730951
  0
SEQEND
  5
56C
  8
0
  0
POLYLINE
  5
CA
  8
0
 66
     1
 10
0.0
 20
0.0
 30
0.0
 70
     1
  0
VERTEX
  5
318
  8
0
 10
-0.5594685039332674
 20
2.638287401562753
 30
0.0
 42
0.4142135623730951
  0
VERTEX
  5
319
  8
0
 10
-0.689468503932746
 20
2.508287401563269
 30
0.0
 42
0.4142135623730951
  0
VERTEX
  5
31A
  8
0
 10
-0.5594685039332674
 20
2.378287401563792
 30
0.0
 42
0.4142135623730951
  0
VERTEX
  5
31B
  8
0
 10
-0.4294685039337871
 20
2.508287401563269
 30
0.0
 42
0.4142135623730951
  0
SEQEND
  5
56D
  8
0
  0
POLYLINE
  5
CB
  8
0
 66
     1
 10
0.0
 20
0.0
 30
0.0
 70
     1
  0
VERTEX
  5
31C
  8
0
 10
1.536531496058345
 20
1.13828740156875
 30
0.0
 42
0.4142135623730951
  0
VERTEX
  5
31D
  8
0
 10
1.406531496058866
 20
1.008287401569273
 30
0.0
 42
0.4142135623730951
  0
VERTEX
  5
31E
  8
0
 10
1.536531496058345
 20
0.8782874015697892
 30
0.0
 42
0.4142135623730951
  0
VERTEX
  5
31F
  8
0
 10
1.666531496057827
 20
1.008287401569273
 30
0.0
 42
0.4142135623730951
  0
SEQEND
  5
56E
  8
0
  0
POLYLINE
  5
CC
  8
0
 66
     1
 10
0.0
 20
0.0
 30
0.0
 70
     1
  0
VERTEX
  5
320
  8
0
 10
2.288680269420485
 20
-9.321480706092313
 30
0.0
  0
VERTEX
  5
321
  8
0
 10
2.054894610262689
 20
-7.910921594797958
 30
0.0
 42
-0.7292836521262172
  0
VERTEX
  5
322
  8
0
 10
2.160747647630442
 20
-7.856508098762605
 30
0.0
  0
VERTEX
  5
323
  8
0
 10
2.866027203277618
 20
-8.561787654409782
 30
0.0
 42
-0.3578723778283734
  0
VERTEX
  5
324
  8
0
 10
2.873791671595869
 20
-8.640717249732633
 30
0.0
  0
VERTEX
  5
325
  8
0
 10
2.40229777510649
 20
-9.345996805379812
 30
0.0
 42
-0.6797639942567385
  0
SEQEND
  5
56F
  8
0
  0
POLYLINE
  5
CD
  8
0
 66
     1
 10
0.0
 20
0.0
 30
0.0
 70
     1
  0
VERTEX
  5
326
  8
0
 10
-0.3502917183830476
 20
-9.951683606906595
 30
0.0
  0
VERTEX
  5
327
  8
0
 10
0.558708599557848
 20
-9.0426832889657
 30
0.0
 42
-0.3268748175894694
  0
VERTEX
  5
328
  8
0
 10
0.6316701599474204
 20
-9.031391541420792
 30
0.0
 42
0.2140895195443154
  0
VERTEX
  5
329
  8
0
 10
1.295906135213954
 20
-9.068958883841901
 30
0.0
 42
-0.3108678928628357
  0
VERTEX
  5
32A
  8
0
 10
1.364785474412916
 20
-9.085630958099348
 30
0.0
  0
VERTEX
  5
32B
  8
0
 10
1.813438198228571
 20
-9.58643912642987
 30
0.0
 42
-0.5878497639258756
  0
VERTEX
  5
32C
  8
0
 10
1.777803238379709
 20
-9.689681991238128
 30
0.0
  0
VERTEX
  5
32D
  8
0
 10
-0.2951808536638794
 20
-10.05741700285653
 30
0.0
 42
-0.7336281531042995
  0
SEQEND
  5
570
  8
0
  0
POLYLINE
  5
CE
  8
0
 66
     1
 10
0.0
 20
0.0
 30
0.0
 70
     1
  0
VERTEX
  5
32E
  8
0
 10
2.177322121721522
 20
-7.070516376210167
 30
0.0
 42
0.4142135623730951
  0
VERTEX
  5
32F
  8
0
 10
1.728309315669863
 20
-7.070516376210167
 30
0.0
  0
VERTEX
  5
330
  8
0
 10
1.383756195415366
 20
-7.415069496464664
 30
0.0
 42
-0.2346056059667043
  0
VERTEX
  5
331
  8
0
 10
1.116091256769273
 20
-7.505116095017753
 30
0.0
 42
0.4965407084259092
  0
VERTEX
  5
332
  8
0
 10
0.2006877166926273
 20
-8.420519635094397
 30
0.0
 42
-0.2346056059667039
  0
VERTEX
  5
333
  8
0
 10
0.1106411181395384
 20
-8.688184573740491
 30
0.0
  0
VERTEX
  5
334
  8
0
 10
-1.453671199656874
 20
-10.2524968915369
 30
0.0
 42
0.7336281531042994
  0
VERTEX
  5
335
  8
0
 10
-1.173708006883503
 20
-10.78962254296259
 30
0.0
  0
VERTEX
  5
336
  8
0
 10
1.094860510320089
 20
-10.38719202107247
 30
0.0
 42
-0.3354237857151521
  0
VERTEX
  5
337
  8
0
 10
1.435954550658121
 20
-10.56118367094195
 30
0.0
 42
0.4984263088705504
  0
VERTEX
  5
338
  8
0
 10
1.933463869971481
 20
-10.65902272226794
 30
0.0
  0
VERTEX
  5
339
  8
0
 10
2.586123429004054
 20
-10.074245414229
 30
0.0
 42
0.0628112559203559
  0
VERTEX
  5
33A
  8
0
 10
2.638201262363737
 20
-10.0142347055869
 30
0.0
  0
VERTEX
  5
33B
  8
0
 10
3.488143613346567
 20
-8.742856713018574
 30
0.0
 42
0.3578723778283739
  0
VERTEX
  5
33C
  8
0
 10
3.448700114289849
 20
-8.341894368778492
 30
0.0
  0
SEQEND
  5
571
  8
0
  0
POLYLINE
  5
CF
  8
0
 66
     1
 10
0.0
 20
0.0
 30
0.0
 70
     1
  0
VERTEX
  5
33D
  8
0
 10
1.315005402067978
 20
-8.000715346857348
 30
0.0
 42
0.4142135623730951
  0
VERTEX
  5
33E
  8
0
 10
0.6962869685322222
 20
-8.00071534685735
 30
0.0
 42
0.4142135623730951
  0
VERTEX
  5
33F
  8
0
 10
0.6962869685322222
 20
-8.619433780393104
 30
0.0
 42
0.4142135623730951
  0
VERTEX
  5
340
  8
0
 10
1.315005402067976
 20
-8.619433780393102
 30
0.0
 42
0.4142135623730951
  0
SEQEND
  5
572
  8
0
  0
POLYLINE
  5
D0
  8
0
 66
     1
 10
0.0
 20
0.0
 30
0.0
 70
     1
  0
VERTEX
  5
341
  8
0
 10
1.792302479366988
 20
-10.35184539429321
 30
0.0
 42
0.4142135623730951
  0
VERTEX
  5
342
  8
0
 10
1.650881123130244
 20
-10.35184539429321
 30
0.0
 42
0.4142135623730951
  0
VERTEX
  5
343
  8
0
 10
1.650881123130244
 20
-10.49326675052996
 30
0.0
 42
0.4142135623730951
  0
VERTEX
  5
344
  8
0
 10
1.792302479366988
 20
-10.49326675052996
 30
0.0
 42
0.4142135623730951
  0
SEQEND
  5
573
  8
0
  0
POLYLINE
  5
D1
  8
0
 66
     1
 10
0.0
 20
0.0
 30
0.0
 70
     1
  0
VERTEX
  5
345
  8
0
 10
3.29490438938239
 20
-8.49569009368595
 30
0.0
 42
0.4142135623730951
  0
VERTEX
  5
346
  8
0
 10
3.153483033145646
 20
-8.49569009368595
 30
0.0
 42
0.4142135623730951
  0
VERTEX
  5
347
  8
0
 10
3.153483033145646
 20
-8.637111449922694
 30
0.0
 42
0.4142135623730951
  0
VERTEX
  5
348
  8
0
 10
3.294904389382392
 20
-8.637111449922696
 30
0.0
 42
0.4142135623730951
  0
SEQEND
  5
574
  8
0
  0
POLYLINE
  5
D2
  8
0
 66
     1
 10
0.0
 20
0.0
 30
0.0
 70
     1
  0
VERTEX
  5
349
  8
0
 10
-1.158454118512672
 20
-10.40629261644436
 30
0.0
 42
0.4142135623730951
  0
VERTEX
  5
34A
  8
0
 10
-1.299875474749415
 20
-10.40629261644436
 30
0.0
 42
0.4142135623730951
  0
VERTEX
  5
34B
  8
0
 10
-1.299875474749417
 20
-10.54771397268111
 30
0.0
 42
0.4142135623730951
  0
VERTEX
  5
34C
  8
0
 10
-1.158454118512672
 20
-10.5477139726811
 30
0.0
 42
0.4142135623730951
  0
SEQEND
  5
575
  8
0
  0
POLYLINE
  5
D3
  8
0
 66
     1
 10
0.0
 20
0.0
 30
0.0
 70
     1
  0
VERTEX
  5
34D
  8
0
 10
2.023526396814065
 20
-7.224312101117624
 30
0.0
 42
0.4142135623730951
  0
VERTEX
  5
34E
  8
0
 10
1.88210504057732
 20
-7.224312101117624
 30
0.0
 42
0.4142135623730951
  0
VERTEX
  5
34F
  8
0
 10
1.88210504057732
 20
-7.365733457354368
 30
0.0
 42
0.4142135623730951
  0
VERTEX
  5
350
  8
0
 10
2.023526396814065
 20
-7.365733457354368
 30
0.0
 42
0.4142135623730951
  0
SEQEND
  5
576
  8
0
  0
POLYLINE
  5
D4
  8
0
 66
     1
 10
0.0
 20
0.0
 30
0.0
 70
     1
  0
VERTEX
  5
351
  8
0
 10
2.466175241835071
 20
-9.745854882818765
 30
0.0
 42
0.4142135623730951
  0
VERTEX
  5
352
  8
0
 10
2.282327478727304
 20
-9.745854882818765
 30
0.0
 42
0.4142135623730951
  0
VERTEX
  5
353
  8
0
 10
2.282327478727304
 20
-9.929702645926533
 30
0.0
 42
0.4142135623730951
  0
VERTEX
  5
354
  8
0
 10
2.466175241835071
 20
-9.929702645926533
 30
0.0
 42
0.4142135623730951
  0
SEQEND
  5
577
  8
0
  0
POLYLINE
  5
D5
  8
0
 66
     1
 10
0.0
 20
0.0
 30
0.0
 70
     1
  0
VERTEX
  5
355
  8
0
 10
2.286409978196927
 20
-3.01785130032839
 30
0.0
  0
VERTEX
  5
356
  8
0
 10
1.123682640401574
 20
-2.185746812402327
 30
0.0
 42
-0.7292836521262172
  0
VERTEX
  5
357
  8
0
 10
1.160055888898841
 20
-2.07242125983573
 30
0.0
  0
VERTEX
  5
358
  8
0
 10
2.157471801759547
 20
-2.072421259835732
 30
0.0
 42
-0.3578723778283734
  0
VERTEX
  5
359
  8
0
 10
2.218773762048789
 20
-2.122742603724685
 30
0.0
  0
VERTEX
  5
35A
  8
0
 10
2.384085186983436
 20
-2.954847091650748
 30
0.0
 42
-0.6797639942567385
  0
SEQEND
  5
578
  8
0
  0
POLYLINE
  5
D6
  8
0
 66
     1
 10
0.0
 20
0.0
 30
0.0
 70
     1
  0
VERTEX
  5
35B
  8
0
 10
0.8659957349489193
 20
-5.329507032954822
 30
0.0
  0
VERTEX
  5
35C
  8
0
 10
0.8659957349489193
 20
-4.043986455121354
 30
0.0
 42
-0.3268748175894694
  0
VERTEX
  5
35D
  8
0
 10
0.9096028778058862
 20
-3.984410369743484
 30
0.0
 42
0.2140895195443154
  0
VERTEX
  5
35E
  8
0
 10
1.405852762802036
 20
-3.541288729901581
 30
0.0
 42
-0.3108678928628357
  0
VERTEX
  5
35F
  8
0
 10
1.466346747397155
 20
-3.504372618834234
 30
0.0
  0
VERTEX
  5
360
  8
0
 10
2.137716982705149
 20
-3.541252087326495
 30
0.0
 42
-0.5878497639258756
  0
VERTEX
  5
361
  8
0
 10
2.185522990763753
 20
-3.63945353889798
 30
0.0
  0
VERTEX
  5
362
  8
0
 10
0.9797298023829804
 20
-5.365302568068929
 30
0.0
 42
-0.7336281531042995
  0
SEQEND
  5
579
  8
0
  0
POLYLINE
  5
D7
  8
0
 66
     1
 10
0.0
 20
0.0
 30
0.0
 70
     1
  0
VERTEX
  5
363
  8
0
 10
0.6159957349499194
 20
-1.504921259838001
 30
0.0
 42
0.4142135623730951
  0
VERTEX
  5
364
  8
0
 10
0.2984957349511905
 20
-1.82242125983673
 30
0.0
  0
VERTEX
  5
365
  8
0
 10
0.2984957349511905
 20
-2.309692955458608
 30
0.0
 42
-0.2346056059667043
  0
VERTEX
  5
366
  8
0
 10
0.1729006022083297
 20
-2.562633209120813
 30
0.0
 42
0.4965407084259092
  0
VERTEX
  5
367
  8
0
 10
0.1729006022083297
 20
-3.857209310541547
 30
0.0
 42
-0.2346056059667039
  0
VERTEX
  5
368
  8
0
 10
0.2984957349511905
 20
-4.110149564203754
 30
0.0
  0
VERTEX
  5
369
  8
0
 10
0.2984957349511905
 20
-6.32242125981873
 30
0.0
 42
0.7336281531042994
  0
VERTEX
  5
36A
  8
0
 10
0.876264797516221
 20
-6.504262578198388
 30
0.0
  0
VERTEX
  5
36B
  8
0
 10
2.195823628632246
 20
-4.615581045112471
 30
0.0
 42
-0.3354237857151521
  0
VERTEX
  5
36C
  8
0
 10
2.560044213070137
 20
-4.497421811659681
 30
0.0
 42
0.4984263088705504
  0
VERTEX
  5
36D
  8
0
 10
2.981019083117578
 20
-4.214812254927162
 30
0.0
  0
VERTEX
  5
36E
  8
0
 10
3.029019083117388
 20
-3.339812254930662
 30
0.0
 42
0.0628112559203559
  0
VERTEX
  5
36F
  8
0
 10
3.023409693210882
 20
-3.260553686787887
 30
0.0
  0
VERTEX
  5
370
  8
0
 10
2.725409693212073
 20
-1.760553686793887
 30
0.0
 42
0.3578723778283739
  0
VERTEX
  5
371
  8
0
 10
2.413995734942725
 20
-1.504921259838001
 30
0.0
  0
SEQEND
  5
57A
  8
0
  0
POLYLINE
  5
D8
  8
0
 66
     1
 10
0.0
 20
0.0
 30
0.0
 70
     1
  0
VERTEX
  5
372
  8
0
 10
0.6639957349497276
 20
-2.77242125983293
 30
0.0
 42
0.4142135623730951
  0
VERTEX
  5
373
  8
0
 10
0.2264957349514773
 20
-3.209921259831182
 30
0.0
 42
0.4142135623730951
  0
VERTEX
  5
374
  8
0
 10
0.6639957349497276
 20
-3.647421259829432
 30
0.0
 42
0.4142135623730951
  0
VERTEX
  5
375
  8
0
 10
1.101495734947976
 20
-3.209921259831182
 30
0.0
 42
0.4142135623730951
  0
SEQEND
  5
57B
  8
0
  0
POLYLINE
  5
D9
  8
0
 66
     1
 10
0.0
 20
0.0
 30
0.0
 70
     1
  0
VERTEX
  5
376
  8
0
 10
2.663995734941727
 20
-4.09742125982763
 30
0.0
 42
0.4142135623730951
  0
VERTEX
  5
377
  8
0
 10
2.563995734942127
 20
-4.19742125982723
 30
0.0
 42
0.4142135623730951
  0
VERTEX
  5
378
  8
0
 10
2.663995734941727
 20
-4.29742125982683
 30
0.0
 42
0.4142135623730951
  0
VERTEX
  5
379
  8
0
 10
2.763995734941327
 20
-4.19742125982723
 30
0.0
 42
0.4142135623730951
  0
SEQEND
  5
57C
  8
0
  0
POLYLINE
  5
DA
  8
0
 66
     1
 10
0.0
 20
0.0
 30
0.0
 70
     1
  0
VERTEX
  5
37A
  8
0
 10
2.413995734942725
 20
-1.72242125983713
 30
0.0
 42
0.4142135623730951
  0
VERTEX
  5
37B
  8
0
 10
2.313995734943125
 20
-1.82242125983673
 30
0.0
 42
0.4142135623730951
  0
VERTEX
  5
37C
  8
0
 10
2.413995734942725
 20
-1.92242125983633
 30
0.0
 42
0.4142135623730951
  0
VERTEX
  5
37D
  8
0
 10
2.513995734942329
 20
-1.82242125983673
 30
0.0
 42
0.4142135623730951
  0
SEQEND
  5
57D
  8
0
  0
POLYLINE
  5
DB
  8
0
 66
     1
 10
0.0
 20
0.0
 30
0.0
 70
     1
  0
VERTEX
  5
37E
  8
0
 10
0.6159957349499194
 20
-6.22242125981913
 30
0.0
 42
0.4142135623730951
  0
VERTEX
  5
37F
  8
0
 10
0.5159957349503195
 20
-6.32242125981873
 30
0.0
 42
0.4142135623730951
  0
VERTEX
  5
380
  8
0
 10
0.6159957349499194
 20
-6.42242125981833
 30
0.0
 42
0.4142135623730951
  0
VERTEX
  5
381
  8
0
 10
0.7159957349495194
 20
-6.32242125981873
 30
0.0
 42
0.4142135623730951
  0
SEQEND
  5
57E
  8
0
  0
POLYLINE
  5
DC
  8
0
 66
     1
 10
0.0
 20
0.0
 30
0.0
 70
     1
  0
VERTEX
  5
382
  8
0
 10
0.6159957349499194
 20
-1.72242125983713
 30
0.0
 42
0.4142135623730951
  0
VERTEX
  5
383
  8
0
 10
0.5159957349503195
 20
-1.82242125983673
 30
0.0
 42
0.4142135623730951
  0
VERTEX
  5
384
  8
0
 10
0.6159957349499194
 20
-1.92242125983633
 30
0.0
 42
0.4142135623730951
  0
VERTEX
  5
385
  8
0
 10
0.7159957349495194
 20
-1.82242125983673
 30
0.0
 42
0.4142135623730951
  0
SEQEND
  5
57F
  8
0
  0
POLYLINE
  5
DD
  8
0
 66
     1
 10
0.0
 20
0.0
 30
0.0
 70
     1
  0
VERTEX
  5
386
  8
0
 10
2.711995734941533
 20
-3.192421259831249
 30
0.0
 42
0.4142135623730951
  0
VERTEX
  5
387
  8
0
 10
2.581995734942053
 20
-3.322421259830731
 30
0.0
 42
0.4142135623730951
  0
VERTEX
  5
388
  8
0
 10
2.711995734941533
 20
-3.452421259830212
 30
0.0
 42
0.4142135623730951
  0
VERTEX
  5
389
  8
0
 10
2.841995734941014
 20
-3.322421259830731
 30
0.0
 42
0.4142135623730951
  0
SEQEND
  5
580
  8
0
  0
POLYLINE
  5
DE
  8
0
 66
     1
 10
0.0
 20
0.0
 30
0.0
 70
     1
  0
VERTEX
  5
38A
  8
0
 10
2.365637655766005
 20
3.121283530291405
 30
0.0
  0
VERTEX
  5
38B
  8
0
 10
3.528364993561357
 20
2.289179042365342
 30
0.0
 42
-0.7292836521262172
  0
VERTEX
  5
38C
  8
0
 10
3.491991745064091
 20
2.175853489798746
 30
0.0
  0
VERTEX
  5
38D
  8
0
 10
2.494575832203385
 20
2.175853489798747
 30
0.0
 42
-0.3578723778283734
  0
VERTEX
  5
38E
  8
0
 10
2.433273871914142
 20
2.226174833687701
 30
0.0
  0
VERTEX
  5
38F
  8
0
 10
2.267962446979496
 20
3.058279321613764
 30
0.0
 42
-0.6797639942567385
  0
SEQEND
  5
581
  8
0
  0
POLYLINE
  5
DF
  8
0
 66
     1
 10
0.0
 20
0.0
 30
0.0
 70
     1
  0
VERTEX
  5
390
  8
0
 10
3.786051899014012
 20
5.432939262917838
 30
0.0
  0
VERTEX
  5
391
  8
0
 10
3.786051899014012
 20
4.147418685084372
 30
0.0
 42
-0.3268748175894694
  0
VERTEX
  5
392
  8
0
 10
3.742444756157045
 20
4.087842599706502
 30
0.0
 42
0.2140895195443154
  0
VERTEX
  5
393
  8
0
 10
3.246194871160895
 20
3.644720959864596
 30
0.0
 42
-0.3108678928628357
  0
VERTEX
  5
394
  8
0
 10
3.185700886565776
 20
3.607804848797249
 30
0.0
  0
VERTEX
  5
395
  8
0
 10
2.514330651257783
 20
3.64468431728951
 30
0.0
 42
-0.5878497639258756
  0
VERTEX
  5
396
  8
0
 10
2.466524643199179
 20
3.742885768860996
 30
0.0
  0
VERTEX
  5
397
  8
0
 10
3.672317831579951
 20
5.468734798031946
 30
0.0
 42
-0.7336281531042995
  0
SEQEND
  5
582
  8
0
  0
POLYLINE
  5
E0
  8
0
 66
     1
 10
0.0
 20
0.0
 30
0.0
 70
     1
  0
VERTEX
  5
398
  8
0
 10
4.036051899013014
 20
1.608353489801017
 30
0.0
 42
0.4142135623730951
  0
VERTEX
  5
399
  8
0
 10
4.353551899011741
 20
1.925853489799746
 30
0.0
  0
VERTEX
  5
39A
  8
0
 10
4.353551899011741
 20
2.413125185421624
 30
0.0
 42
-0.2346056059667043
  0
VERTEX
  5
39B
  8
0
 10
4.479147031754604
 20
2.666065439083829
 30
0.0
 42
0.4965407084259092
  0
VERTEX
  5
39C
  8
0
 10
4.479147031754604
 20
3.960641540504563
 30
0.0
 42
-0.2346056059667039
  0
VERTEX
  5
39D
  8
0
 10
4.353551899011741
 20
4.213581794166771
 30
0.0
  0
VERTEX
  5
39E
  8
0
 10
4.353551899011741
 20
6.425853489781748
 30
0.0
 42
0.7336281531042994
  0
VERTEX
  5
39F
  8
0
 10
3.775782836446711
 20
6.607694808161405
 30
0.0
  0
VERTEX
  5
3A0
  8
0
 10
2.456224005330686
 20
4.719013275075486
 30
0.0
 42
-0.3354237857151521
  0
VERTEX
  5
3A1
  8
0
 10
2.092003420892794
 20
4.600854041622696
 30
0.0
 42
0.4984263088705504
  0
VERTEX
  5
3A2
  8
0
 10
1.671028550845353
 20
4.31824448489018
 30
0.0
  0
VERTEX
  5
3A3
  8
0
 10
1.623028550845543
 20
3.443244484893677
 30
0.0
 42
0.0628112559203559
  0
VERTEX
  5
3A4
  8
0
 10
1.62863794075205
 20
3.363985916750902
 30
0.0
  0
VERTEX
  5
3A5
  8
0
 10
1.926637940750858
 20
1.863985916756903
 30
0.0
 42
0.3578723778283739
  0
VERTEX
  5
3A6
  8
0
 10
2.238051899020206
 20
1.608353489801017
 30
0.0
  0
SEQEND
  5
583
  8
0
  0
POLYLINE
  5
E1
  8
0
 66
     1
 10
0.0
 20
0.0
 30
0.0
 70
     1
  0
VERTEX
  5
3A7
  8
0
 10
3.988051899013204
 20
2.875853489795945
 30
0.0
 42
0.4142135623730951
  0
VERTEX
  5
3A8
  8
0
 10
4.425551899011456
 20
3.313353489794197
 30
0.0
 42
0.4142135623730951
  0
VERTEX
  5
3A9
  8
0
 10
3.988051899013204
 20
3.750853489792448
 30
0.0
 42
0.4142135623730951
  0
VERTEX
  5
3AA
  8
0
 10
3.550551899014955
 20
3.313353489794197
 30
0.0
 42
0.4142135623730951
  0
SEQEND
  5
584
  8
0
  0
POLYLINE
  5
E2
  8
0
 66
     1
 10
0.0
 20
0.0
 30
0.0
 70
     1
  0
VERTEX
  5
3AB
  8
0
 10
1.988051899021205
 20
4.200853489790646
 30
0.0
 42
0.4142135623730951
  0
VERTEX
  5
3AC
  8
0
 10
2.088051899020805
 20
4.300853489790246
 30
0.0
 42
0.4142135623730951
  0
VERTEX
  5
3AD
  8
0
 10
1.988051899021205
 20
4.400853489789846
 30
0.0
 42
0.4142135623730951
  0
VERTEX
  5
3AE
  8
0
 10
1.888051899021605
 20
4.300853489790246
 30
0.0
 42
0.4142135623730951
  0
SEQEND
  5
585
  8
0
  0
POLYLINE
  5
E3
  8
0
 66
     1
 10
0.0
 20
0.0
 30
0.0
 70
     1
  0
VERTEX
  5
3AF
  8
0
 10
2.238051899020206
 20
1.825853489800146
 30
0.0
 42
0.4142135623730951
  0
VERTEX
  5
3B0
  8
0
 10
2.338051899019806
 20
1.925853489799746
 30
0.0
 42
0.4142135623730951
  0
VERTEX
  5
3B1
  8
0
 10
2.238051899020206
 20
2.025853489799346
 30
0.0
 42
0.4142135623730951
  0
VERTEX
  5
3B2
  8
0
 10
2.138051899020603
 20
1.925853489799746
 30
0.0
 42
0.4142135623730951
  0
SEQEND
  5
586
  8
0
  0
POLYLINE
  5
E4
  8
0
 66
     1
 10
0.0
 20
0.0
 30
0.0
 70
     1
  0
VERTEX
  5
3B3
  8
0
 10
4.036051899013014
 20
6.325853489782148
 30
0.0
 42
0.4142135623730951
  0
VERTEX
  5
3B4
  8
0
 10
4.136051899012614
 20
6.425853489781748
 30
0.0
 42
0.4142135623730951
  0
VERTEX
  5
3B5
  8
0
 10
4.036051899013014
 20
6.525853489781348
 30
0.0
 42
0.4142135623730951
  0
VERTEX
  5
3B6
  8
0
 10
3.936051899013412
 20
6.425853489781748
 30
0.0
 42
0.4142135623730951
  0
SEQEND
  5
587
  8
0
  0
POLYLINE
  5
E5
  8
0
 66
     1
 10
0.0
 20
0.0
 30
0.0
 70
     1
  0
VERTEX
  5
3B7
  8
0
 10
4.036051899013014
 20
1.825853489800146
 30
0.0
 42
0.4142135623730951
  0
VERTEX
  5
3B8
  8
0
 10
4.13605189901261
 20
1.925853489799746
 30
0.0
 42
0.4142135623730951
  0
VERTEX
  5
3B9
  8
0
 10
4.036051899013014
 20
2.025853489799346
 30
0.0
 42
0.4142135623730951
  0
VERTEX
  5
3BA
  8
0
 10
3.936051899013412
 20
1.925853489799746
 30
0.0
 42
0.4142135623730951
  0
SEQEND
  5
588
  8
0
  0
POLYLINE
  5
E6
  8
0
 66
     1
 10
0.0
 20
0.0
 30
0.0
 70
     1
  0
VERTEX
  5
3BB
  8
0
 10
1.940051899021398
 20
3.295853489794265
 30
0.0
 42
0.4142135623730951
  0
VERTEX
  5
3BC
  8
0
 10
2.070051899020878
 20
3.425853489793747
 30
0.0
 42
0.4142135623730951
  0
VERTEX
  5
3BD
  8
0
 10
1.940051899021398
 20
3.555853489793227
 30
0.0
 42
0.4142135623730951
  0
VERTEX
  5
3BE
  8
0
 10
1.810051899021918
 20
3.425853489793747
 30
0.0
 42
0.4142135623730951
  0
SEQEND
  5
589
  8
0
  0
POLYLINE
  5
E7
  8
0
 66
     1
 10
0.0
 20
0.0
 30
0.0
 70
     1
  0
VERTEX
  5
3BF
  8
0
 10
4.491134387636922
 20
10.11206995946161
 30
0.0
  0
VERTEX
  5
3C0
  8
0
 10
3.328407049841571
 20
10.94417444738768
 30
0.0
 42
-0.7292836521262172
  0
VERTEX
  5
3C1
  8
0
 10
3.364780298338838
 20
11.05749999995427
 30
0.0
  0
VERTEX
  5
3C2
  8
0
 10
4.362196211199542
 20
11.05749999995427
 30
0.0
 42
-0.3578723778283734
  0
VERTEX
  5
3C3
  8
0
 10
4.423498171488784
 20
11.00717865606532
 30
0.0
  0
VERTEX
  5
3C4
  8
0
 10
4.588809596423435
 20
10.17507416813925
 30
0.0
 42
-0.6797639942567385
  0
SEQEND
  5
58A
  8
0
  0
POLYLINE
  5
E8
  8
0
 66
     1
 10
0.0
 20
0.0
 30
0.0
 70
     1
  0
VERTEX
  5
3C5
  8
0
 10
3.070720144388916
 20
7.80041422683518
 30
0.0
  0
VERTEX
  5
3C6
  8
0
 10
3.070720144388916
 20
9.08593480466865
 30
0.0
 42
-0.3268748175894694
  0
VERTEX
  5
3C7
  8
0
 10
3.114327287245883
 20
9.14551089004652
 30
0.0
 42
0.2140895195443154
  0
VERTEX
  5
3C8
  8
0
 10
3.610577172242033
 20
9.588632529888422
 30
0.0
 42
-0.3108678928628357
  0
VERTEX
  5
3C9
  8
0
 10
3.671071156837153
 20
9.625548640955767
 30
0.0
  0
VERTEX
  5
3CA
  8
0
 10
4.342441392145144
 20
9.588669172463508
 30
0.0
 42
-0.5878497639258756
  0
VERTEX
  5
3CB
  8
0
 10
4.390247400203751
 20
9.490467720892024
 30
0.0
  0
VERTEX
  5
3CC
  8
0
 10
3.184454211822977
 20
7.764618691721072
 30
0.0
 42
-0.7336281531042995
  0
SEQEND
  5
58B
  8
0
  0
POLYLINE
  5
E9
  8
0
 66
     1
 10
0.0
 20
0.0
 30
0.0
 70
     1
  0
VERTEX
  5
3CD
  8
0
 10
2.820720144389917
 20
11.624999999952
 30
0.0
 42
0.4142135623730951
  0
VERTEX
  5
3CE
  8
0
 10
2.503220144391188
 20
11.30749999995327
 30
0.0
  0
VERTEX
  5
3CF
  8
0
 10
2.503220144391188
 20
10.82022830433139
 30
0.0
 42
-0.2346056059667043
  0
VERTEX
  5
3D0
  8
0
 10
2.377625011648327
 20
10.56728805066919
 30
0.0
 42
0.4965407084259092
  0
VERTEX
  5
3D1
  8
0
 10
2.377625011648327
 20
9.272711949248457
 30
0.0
 42
-0.2346056059667039
  0
VERTEX
  5
3D2
  8
0
 10
2.503220144391188
 20
9.019771695586247
 30
0.0
  0
VERTEX
  5
3D3
  8
0
 10
2.503220144391188
 20
6.807499999971274
 30
0.0
 42
0.7336281531042994
  0
VERTEX
  5
3D4
  8
0
 10
3.080989206956218
 20
6.625658681591613
 30
0.0
  0
VERTEX
  5
3D5
  8
0
 10
4.400548038072241
 20
8.514340214677532
 30
0.0
 42
-0.3354237857151521
  0
VERTEX
  5
3D6
  8
0
 10
4.764768622510136
 20
8.632499448130321
 30
0.0
 42
0.4984263088705504
  0
VERTEX
  5
3D7
  8
0
 10
5.185743492557574
 20
8.915109004862838
 30
0.0
  0
VERTEX
  5
3D8
  8
0
 10
5.233743492557384
 20
9.790109004859342
 30
0.0
 42
0.0628112559203559
  0
VERTEX
  5
3D9
  8
0
 10
5.228134102650881
 20
9.869367573002116
 30
0.0
  0
VERTEX
  5
3DA
  8
0
 10
4.930134102652072
 20
11.36936757299612
 30
0.0
 42
0.3578723778283739
  0
VERTEX
  5
3DB
  8
0
 10
4.618720144382724
 20
11.624999999952
 30
0.0
  0
SEQEND
  5
58C
  8
0
  0
POLYLINE
  5
EA
  8
0
 66
     1
 10
0.0
 20
0.0
 30
0.0
 70
     1
  0
VERTEX
  5
3DC
  8
0
 10
2.868720144389725
 20
10.35749999995707
 30
0.0
 42
0.4142135623730951
  0
VERTEX
  5
3DD
  8
0
 10
2.431220144391474
 20
9.919999999958822
 30
0.0
 42
0.4142135623730951
  0
VERTEX
  5
3DE
  8
0
 10
2.868720144389725
 20
9.48249999996057
 30
0.0
 42
0.4142135623730951
  0
VERTEX
  5
3DF
  8
0
 10
3.306220144387973
 20
9.919999999958822
 30
0.0
 42
0.4142135623730951
  0
SEQEND
  5
58D
  8
0
  0
POLYLINE
  5
EB
  8
0
 66
     1
 10
0.0
 20
0.0
 30
0.0
 70
     1
  0
VERTEX
  5
3E0
  8
0
 10
4.868720144381722
 20
9.032499999962372
 30
0.0
 42
0.4142135623730951
  0
VERTEX
  5
3E1
  8
0
 10
4.768720144382126
 20
8.932499999962772
 30
0.0
 42
0.4142135623730951
  0
VERTEX
  5
3E2
  8
0
 10
4.868720144381722
 20
8.832499999963172
 30
0.0
 42
0.4142135623730951
  0
VERTEX
  5
3E3
  8
0
 10
4.968720144381326
 20
8.932499999962772
 30
0.0
 42
0.4142135623730951
  0
SEQEND
  5
58E
  8
0
  0
POLYLINE
  5
EC
  8
0
 66
     1
 10
0.0
 20
0.0
 30
0.0
 70
     1
  0
VERTEX
  5
3E4
  8
0
 10
4.618720144382724
 20
11.40749999995287
 30
0.0
 42
0.4142135623730951
  0
VERTEX
  5
3E5
  8
0
 10
4.518720144383121
 20
11.30749999995327
 30
0.0
 42
0.4142135623730951
  0
VERTEX
  5
3E6
  8
0
 10
4.618720144382724
 20
11.20749999995367
 30
0.0
 42
0.4142135623730951
  0
VERTEX
  5
3E7
  8
0
 10
4.718720144382328
 20
11.30749999995327
 30
0.0
 42
0.4142135623730951
  0
SEQEND
  5
58F
  8
0
  0
POLYLINE
  5
ED
  8
0
 66
     1
 10
0.0
 20
0.0
 30
0.0
 70
     1
  0
VERTEX
  5
3E8
  8
0
 10
2.820720144389917
 20
6.90749999997087
 30
0.0
 42
0.4142135623730951
  0
VERTEX
  5
3E9
  8
0
 10
2.720720144390317
 20
6.807499999971274
 30
0.0
 42
0.4142135623730951
  0
VERTEX
  5
3EA
  8
0
 10
2.820720144389917
 20
6.70749999997167
 30
0.0
 42
0.4142135623730951
  0
VERTEX
  5
3EB
  8
0
 10
2.920720144389517
 20
6.807499999971274
 30
0.0
 42
0.4142135623730951
  0
SEQEND
  5
590
  8
0
  0
POLYLINE
  5
EE
  8
0
 66
     1
 10
0.0
 20
0.0
 30
0.0
 70
     1
  0
VERTEX
  5
3EC
  8
0
 10
2.820720144389917
 20
11.40749999995287
 30
0.0
 42
0.4142135623730951
  0
VERTEX
  5
3ED
  8
0
 10
2.720720144390317
 20
11.30749999995327
 30
0.0
 42
0.4142135623730951
  0
VERTEX
  5
3EE
  8
0
 10
2.820720144389917
 20
11.20749999995367
 30
0.0
 42
0.4142135623730951
  0
VERTEX
  5
3EF
  8
0
 10
2.920720144389517
 20
11.30749999995327
 30
0.0
 42
0.4142135623730951
  0
SEQEND
  5
591
  8
0
  0
POLYLINE
  5
EF
  8
0
 66
     1
 10
0.0
 20
0.0
 30
0.0
 70
     1
  0
VERTEX
  5
3F0
  8
0
 10
4.916720144381532
 20
9.937499999958753
 30
0.0
 42
0.4142135623730951
  0
VERTEX
  5
3F1
  8
0
 10
4.786720144382048
 20
9.807499999959273
 30
0.0
 42
0.4142135623730951
  0
VERTEX
  5
3F2
  8
0
 10
4.916720144381532
 20
9.677499999959789
 30
0.0
 42
0.4142135623730951
  0
VERTEX
  5
3F3
  8
0
 10
5.046720144381009
 20
9.807499999959273
 30
0.0
 42
0.4142135623730951
  0
SEQEND
  5
592
  8
0
  0
POLYLINE
  5
F0
  8
0
 66
     1
 10
0.0
 20
0.0
 30
0.0
 70
     1
  0
VERTEX
  5
3F4
  8
0
 10
4.321480706112315
 20
-5.435184513667236
 30
0.0
  0
VERTEX
  5
3F5
  8
0
 10
2.91092159481796
 20
-5.668970172825032
 30
0.0
 42
-0.7292836521262172
  0
VERTEX
  5
3F6
  8
0
 10
2.856508098782609
 20
-5.563117135457278
 30
0.0
  0
VERTEX
  5
3F7
  8
0
 10
3.561787654429786
 20
-4.857837579810104
 30
0.0
 42
-0.3578723778283734
  0
VERTEX
  5
3F8
  8
0
 10
3.640717249752637
 20
-4.850073111491851
 30
0.0
  0
VERTEX
  5
3F9
  8
0
 10
4.345996805399814
 20
-5.321567007981232
 30
0.0
 42
-0.6797639942567385
  0
SEQEND
  5
593
  8
0
  0
POLYLINE
  5
F1
  8
0
 66
     1
 10
0.0
 20
0.0
 30
0.0
 70
     1
  0
VERTEX
  5
3FA
  8
0
 10
4.951683606926597
 20
-8.074156501470767
 30
0.0
  0
VERTEX
  5
3FB
  8
0
 10
4.042683288985703
 20
-7.165156183529874
 30
0.0
 42
-0.3268748175894694
  0
VERTEX
  5
3FC
  8
0
 10
4.031391541440794
 20
-7.092194623140301
 30
0.0
 42
0.2140895195443154
  0
VERTEX
  5
3FD
  8
0
 10
4.068958883861903
 20
-6.427958647873766
 30
0.0
 42
-0.3108678928628357
  0
VERTEX
  5
3FE
  8
0
 10
4.085630958119349
 20
-6.359079308674806
 30
0.0
  0
VERTEX
  5
3FF
  8
0
 10
4.586439126449875
 20
-5.910426584859149
 30
0.0
 42
-0.5878497639258756
  0
VERTEX
  5
400
  8
0
 10
4.68968199125813
 20
-5.946061544708011
 30
0.0
  0
VERTEX
  5
401
  8
0
 10
5.057417002876537
 20
-8.0190456367516
 30
0.0
 42
-0.7336281531042995
  0
SEQEND
  5
594
  8
0
  0
POLYLINE
  5
F2
  8
0
 66
     1
 10
0.0
 20
0.0
 30
0.0
 70
     1
  0
VERTEX
  5
402
  8
0
 10
2.07051637623017
 20
-5.546542661366198
 30
0.0
 42
0.4142135623730951
  0
VERTEX
  5
403
  8
0
 10
2.07051637623017
 20
-5.995555467417859
 30
0.0
  0
VERTEX
  5
404
  8
0
 10
2.415069496484668
 20
-6.340108587672356
 30
0.0
 42
-0.2346056059667043
  0
VERTEX
  5
405
  8
0
 10
2.505116095037756
 20
-6.607773526318448
 30
0.0
 42
0.4965407084259092
  0
VERTEX
  5
406
  8
0
 10
3.420519635114401
 20
-7.523177066395093
 30
0.0
 42
-0.2346056059667039
  0
VERTEX
  5
407
  8
0
 10
3.688184573760495
 20
-7.613223664948183
 30
0.0
  0
VERTEX
  5
408
  8
0
 10
5.252496891556905
 20
-9.177535982744594
 30
0.0
 42
0.7336281531042994
  0
VERTEX
  5
409
  8
0
 10
5.789622542982592
 20
-8.897572789971225
 30
0.0
  0
VERTEX
  5
40A
  8
0
 10
5.387192021092471
 20
-6.629004272767633
 30
0.0
 42
-0.3354237857151521
  0
VERTEX
  5
40B
  8
0
 10
5.56118367096196
 20
-6.2879102324296
 30
0.0
 42
0.4984263088705504
  0
VERTEX
  5
40C
  8
0
 10
5.65902272228794
 20
-5.79040091311624
 30
0.0
  0
VERTEX
  5
40D
  8
0
 10
5.074245414249006
 20
-5.137741354083666
 30
0.0
 42
0.0628112559203559
  0
VERTEX
  5
40E
  8
0
 10
5.014234705606906
 20
-5.085663520723983
 30
0.0
  0
VERTEX
  5
40F
  8
0
 10
3.742856713038577
 20
-4.235721169741153
 30
0.0
 42
0.3578723778283739
  0
VERTEX
  5
410
  8
0
 10
3.341894368798496
 20
-4.275164668797872
 30
0.0
  0
SEQEND
  5
595
  8
0
  0
POLYLINE
  5
F3
  8
0
 66
     1
 10
0.0
 20
0.0
 30
0.0
 70
     1
  0
VERTEX
  5
411
  8
0
 10
3.000715346877351
 20
-6.408859381019743
 30
0.0
 42
0.4142135623730951
  0
VERTEX
  5
412
  8
0
 10
3.000715346877353
 20
-7.027577814555498
 30
0.0
 42
0.4142135623730951
  0
VERTEX
  5
413
  8
0
 10
3.619433780413107
 20
-7.027577814555499
 30
0.0
 42
0.4142135623730951
  0
VERTEX
  5
414
  8
0
 10
3.619433780413106
 20
-6.408859381019745
 30
0.0
 42
0.4142135623730951
  0
SEQEND
  5
596
  8
0
  0
POLYLINE
  5
F4
  8
0
 66
     1
 10
0.0
 20
0.0
 30
0.0
 70
     1
  0
VERTEX
  5
415
  8
0
 10
5.351845394313219
 20
-5.931562303720733
 30
0.0
 42
0.4142135623730951
  0
VERTEX
  5
416
  8
0
 10
5.351845394313219
 20
-6.072983659957477
 30
0.0
 42
0.4142135623730951
  0
VERTEX
  5
417
  8
0
 10
5.49326675054996
 20
-6.072983659957477
 30
0.0
 42
0.4142135623730951
  0
VERTEX
  5
418
  8
0
 10
5.49326675054996
 20
-5.931562303720733
 30
0.0
 42
0.4142135623730951
  0
SEQEND
  5
597
  8
0
  0
POLYLINE
  5
F5
  8
0
 66
     1
 10
0.0
 20
0.0
 30
0.0
 70
     1
  0
VERTEX
  5
419
  8
0
 10
3.495690093705953
 20
-4.428960393705331
 30
0.0
 42
0.4142135623730951
  0
VERTEX
  5
41A
  8
0
 10
3.495690093705953
 20
-4.570381749942075
 30
0.0
 42
0.4142135623730951
  0
VERTEX
  5
41B
  8
0
 10
3.637111449942697
 20
-4.570381749942075
 30
0.0
 42
0.4142135623730951
  0
VERTEX
  5
41C
  8
0
 10
3.637111449942699
 20
-4.428960393705329
 30
0.0
 42
0.4142135623730951
  0
SEQEND
  5
598
  8
0
  0
POLYLINE
  5
F6
  8
0
 66
     1
 10
0.0
 20
0.0
 30
0.0
 70
     1
  0
VERTEX
  5
41D
  8
0
 10
5.406292616464366
 20
-8.882318901600392
 30
0.0
 42
0.4142135623730951
  0
VERTEX
  5
41E
  8
0
 10
5.406292616464366
 20
-9.023740257837137
 30
0.0
 42
0.4142135623730951
  0
VERTEX
  5
41F
  8
0
 10
5.547713972701107
 20
-9.023740257837137
 30
0.0
 42
0.4142135623730951
  0
VERTEX
  5
420
  8
0
 10
5.547713972701107
 20
-8.882318901600392
 30
0.0
 42
0.4142135623730951
  0
SEQEND
  5
599
  8
0
  0
POLYLINE
  5
F7
  8
0
 66
     1
 10
0.0
 20
0.0
 30
0.0
 70
     1
  0
VERTEX
  5
421
  8
0
 10
2.224312101137627
 20
-5.700338386273657
 30
0.0
 42
0.4142135623730951
  0
VERTEX
  5
422
  8
0
 10
2.224312101137627
 20
-5.8417597425104
 30
0.0
 42
0.4142135623730951
  0
VERTEX
  5
423
  8
0
 10
2.365733457374372
 20
-5.8417597425104
 30
0.0
 42
0.4142135623730951
  0
VERTEX
  5
424
  8
0
 10
2.365733457374372
 20
-5.700338386273657
 30
0.0
 42
0.4142135623730951
  0
SEQEND
  5
59A
  8
0
  0
POLYLINE
  5
F8
  8
0
 66
     1
 10
0.0
 20
0.0
 30
0.0
 70
     1
  0
VERTEX
  5
425
  8
0
 10
4.745854882838767
 20
-5.257689541252649
 30
0.0
 42
0.4142135623730951
  0
VERTEX
  5
426
  8
0
 10
4.745854882838771
 20
-5.441537304360418
 30
0.0
 42
0.4142135623730951
  0
VERTEX
  5
427
  8
0
 10
4.929702645946538
 20
-5.441537304360418
 30
0.0
 42
0.4142135623730951
  0
VERTEX
  5
428
  8
0
 10
4.929702645946538
 20
-5.257689541252651
 30
0.0
 42
0.4142135623730951
  0
SEQEND
  5
59B
  8
0
  0
POLYLINE
  5
F9
  8
0
 66
     1
 10
0.0
 20
0.0
 30
0.0
 70
     1
  0
VERTEX
  5
429
  8
0
 10
5.219480844326927
 20
-0.1044654735683892
 30
0.0
  0
VERTEX
  5
42A
  8
0
 10
4.056753506531575
 20
0.7276390143576741
 30
0.0
 42
-0.7292836521262172
  0
VERTEX
  5
42B
  8
0
 10
4.093126755028841
 20
0.8409645669242707
 30
0.0
  0
VERTEX
  5
42C
  8
0
 10
5.090542667889547
 20
0.8409645669242689
 30
0.0
 42
-0.3578723778283734
  0
VERTEX
  5
42D
  8
0
 10
5.15184462817879
 20
0.7906432230353158
 30
0.0
  0
VERTEX
  5
42E
  8
0
 10
5.317156053113436
 20
-0.0414612648907475
 30
0.0
 42
-0.6797639942567385
  0
SEQEND
  5
59C
  8
0
  0
POLYLINE
  5
FA
  8
0
 66
     1
 10
0.0
 20
0.0
 30
0.0
 70
     1
  0
VERTEX
  5
42F
  8
0
 10
3.79906660107892
 20
-2.416121206194822
 30
0.0
  0
VERTEX
  5
430
  8
0
 10
3.79906660107892
 20
-1.130600628361353
 30
0.0
 42
-0.3268748175894694
  0
VERTEX
  5
431
  8
0
 10
3.842673743935887
 20
-1.071024542983483
 30
0.0
 42
0.2140895195443154
  0
VERTEX
  5
432
  8
0
 10
4.338923628932037
 20
-0.6279029031415799
 30
0.0
 42
-0.3108678928628357
  0
VERTEX
  5
433
  8
0
 10
4.399417613527156
 20
-0.5909867920742329
 30
0.0
  0
VERTEX
  5
434
  8
0
 10
5.070787848835149
 20
-0.6278662605664938
 30
0.0
 42
-0.5878497639258756
  0
VERTEX
  5
435
  8
0
 10
5.118593856893753
 20
-0.7260677121379793
 30
0.0
  0
VERTEX
  5
436
  8
0
 10
3.912800668512981
 20
-2.451916741308928
 30
0.0
 42
-0.7336281531042995
  0
SEQEND
  5
59D
  8
0
  0
POLYLINE
  5
FB
  8
0
 66
     1
 10
0.0
 20
0.0
 30
0.0
 70
     1
  0
VERTEX
  5
437
  8
0
 10
3.54906660107992
 20
1.408464566922
 30
0.0
 42
0.4142135623730951
  0
VERTEX
  5
438
  8
0
 10
3.231566601081191
 20
1.090964566923271
 30
0.0
  0
VERTEX
  5
439
  8
0
 10
3.231566601081191
 20
0.6036928713013925
 30
0.0
 42
-0.2346056059667043
  0
VERTEX
  5
43A
  8
0
 10
3.10597146833833
 20
0.3507526176391877
 30
0.0
 42
0.4965407084259092
  0
VERTEX
  5
43B
  8
0
 10
3.10597146833833
 20
-0.9438234837815465
 30
0.0
 42
-0.2346056059667039
  0
VERTEX
  5
43C
  8
0
 10
3.231566601081191
 20
-1.196763737443753
 30
0.0
  0
VERTEX
  5
43D
  8
0
 10
3.231566601081191
 20
-3.40903543305873
 30
0.0
 42
0.7336281531042994
  0
VERTEX
  5
43E
  8
0
 10
3.809335663646221
 20
-3.590876751438387
 30
0.0
  0
VERTEX
  5
43F
  8
0
 10
5.128894494762246
 20
-1.70219521835247
 30
0.0
 42
-0.3354237857151521
  0
VERTEX
  5
440
  8
0
 10
5.493115079200138
 20
-1.58403598489968
 30
0.0
 42
0.4984263088705504
  0
VERTEX
  5
441
  8
0
 10
5.914089949247579
 20
-1.301426428167161
 30
0.0
  0
VERTEX
  5
442
  8
0
 10
5.962089949247389
 20
-0.4264264281706609
 30
0.0
 42
0.0628112559203559
  0
VERTEX
  5
443
  8
0
 10
5.956480559340882
 20
-0.347167860027886
 30
0.0
  0
VERTEX
  5
444
  8
0
 10
5.658480559342074
 20
1.152832139966113
 30
0.0
 42
0.3578723778283739
  0
VERTEX
  5
445
  8
0
 10
5.347066601072726
 20
1.408464566922
 30
0.0
  0
SEQEND
  5
59E
  8
0
  0
POLYLINE
  5
FC
  8
0
 66
     1
 10
0.0
 20
0.0
 30
0.0
 70
     1
  0
VERTEX
  5
446
  8
0
 10
3.597066601079728
 20
0.1409645669270709
 30
0.0
 42
0.4142135623730951
  0
VERTEX
  5
447
  8
0
 10
3.159566601081478
 20
-0.2965354330711811
 30
0.0
 42
0.4142135623730951
  0
VERTEX
  5
448
  8
0
 10
3.597066601079728
 20
-0.7340354330694314
 30
0.0
 42
0.4142135623730951
  0
VERTEX
  5
449
  8
0
 10
4.034566601077977
 20
-0.2965354330711811
 30
0.0
 42
0.4142135623730951
  0
SEQEND
  5
59F
  8
0
  0
POLYLINE
  5
FD
  8
0
 66
     1
 10
0.0
 20
0.0
 30
0.0
 70
     1
  0
VERTEX
  5
44A
  8
0
 10
5.597066601071727
 20
-1.184035433067629
 30
0.0
 42
0.4142135623730951
  0
VERTEX
  5
44B
  8
0
 10
5.497066601072127
 20
-1.284035433067229
 30
0.0
 42
0.4142135623730951
  0
VERTEX
  5
44C
  8
0
 10
5.597066601071727
 20
-1.384035433066829
 30
0.0
 42
0.4142135623730951
  0
VERTEX
  5
44D
  8
0
 10
5.697066601071327
 20
-1.284035433067229
 30
0.0
 42
0.4142135623730951
  0
SEQEND
  5
5A0
  8
0
  0
POLYLINE
  5
FE
  8
0
 66
     1
 10
0.0
 20
0.0
 30
0.0
 70
     1
  0
VERTEX
  5
44E
  8
0
 10
5.347066601072726
 20
1.190964566922871
 30
0.0
 42
0.4142135623730951
  0
VERTEX
  5
44F
  8
0
 10
5.247066601073126
 20
1.090964566923271
 30
0.0
 42
0.4142135623730951
  0
VERTEX
  5
450
  8
0
 10
5.347066601072726
 20
0.9909645669236706
 30
0.0
 42
0.4142135623730951
  0
VERTEX
  5
451
  8
0
 10
5.447066601072329
 20
1.090964566923271
 30
0.0
 42
0.4142135623730951
  0
SEQEND
  5
5A1
  8
0
  0
POLYLINE
  5
FF
  8
0
 66
     1
 10
0.0
 20
0.0
 30
0.0
 70
     1
  0
VERTEX
  5
452
  8
0
 10
3.54906660107992
 20
-3.30903543305913
 30
0.0
 42
0.4142135623730951
  0
VERTEX
  5
453
  8
0
 10
3.44906660108032
 20
-3.40903543305873
 30
0.0
 42
0.4142135623730951
  0
VERTEX
  5
454
  8
0
 10
3.54906660107992
 20
-3.50903543305833
 30
0.0
 42
0.4142135623730951
  0
VERTEX
  5
455
  8
0
 10
3.64906660107952
 20
-3.40903543305873
 30
0.0
 42
0.4142135623730951
  0
SEQEND
  5
5A2
  8
0
  0
POLYLINE
  5
100
  8
0
 66
     1
 10
0.0
 20
0.0
 30
0.0
 70
     1
  0
VERTEX
  5
456
  8
0
 10
3.54906660107992
 20
1.190964566922871
 30
0.0
 42
0.4142135623730951
  0
VERTEX
  5
457
  8
0
 10
3.44906660108032
 20
1.090964566923271
 30
0.0
 42
0.4142135623730951
  0
VERTEX
  5
458
  8
0
 10
3.54906660107992
 20
0.9909645669236706
 30
0.0
 42
0.4142135623730951
  0
VERTEX
  5
459
  8
0
 10
3.64906660107952
 20
1.090964566923271
 30
0.0
 42
0.4142135623730951
  0
SEQEND
  5
5A3
  8
0
  0
POLYLINE
  5
101
  8
0
 66
     1
 10
0.0
 20
0.0
 30
0.0
 70
     1
  0
VERTEX
  5
45A
  8
0
 10
5.645066601071534
 20
-0.2790354330712486
 30
0.0
 42
0.4142135623730951
  0
VERTEX
  5
45B
  8
0
 10
5.515066601072053
 20
-0.4090354330707306
 30
0.0
 42
0.4142135623730951
  0
VERTEX
  5
45C
  8
0
 10
5.645066601071534
 20
-0.539035433070211
 30
0.0
 42
0.4142135623730951
  0
VERTEX
  5
45D
  8
0
 10
5.775066601071014
 20
-0.4090354330707306
 30
0.0
 42
0.4142135623730951
  0
SEQEND
  5
5A4
  8
0
  0
POLYLINE
  5
102
  8
0
 66
     1
 10
0.0
 20
0.0
 30
0.0
 70
     1
  0
VERTEX
  5
45E
  8
0
 10
2.784149809346859
 20
-10.24517853144968
 30
0.0
 42
0.200275232210231
  0
VERTEX
  5
45F
  8
0
 10
2.784149809346859
 20
-10.43773047282018
 30
0.0
 42
0.3024867688638771
  0
VERTEX
  5
460
  8
0
 10
4.139735800796274
 20
-11.3414544671198
 30
0.0
 42
0.1107700595863796
  0
VERTEX
  5
461
  8
0
 10
4.246523046455881
 20
-11.31756227735412
 30
0.0
 42
-0.2652072234382152
  0
VERTEX
  5
462
  8
0
 10
7.230557986700102
 20
-11.54996965873434
 30
0.0
 42
0.4717097097040647
  0
VERTEX
  5
463
  8
0
 10
7.653388658998683
 20
-11.4259458210459
 30
0.0
 42
0.4717097097040644
  0
VERTEX
  5
464
  8
0
 10
7.450862309822842
 20
-11.03460100168458
 30
0.0
 42
-0.8079016387229581
  0
VERTEX
  5
465
  8
0
 10
7.450862309822842
 20
-9.648308002585292
 30
0.0
 42
0.4717097097040654
  0
VERTEX
  5
466
  8
0
 10
7.653388658998683
 20
-9.25696318322397
 30
0.0
 42
0.4717097097040643
  0
VERTEX
  5
467
  8
0
 10
7.230557986700102
 20
-9.132939345535528
 30
0.0
 42
-0.2652072234382151
  0
VERTEX
  5
468
  8
0
 10
4.246523046455881
 20
-9.365346726915746
 30
0.0
 42
0.1107700595863799
  0
VERTEX
  5
469
  8
0
 10
4.139735800796274
 20
-9.34145453715007
 30
0.0
 42
0.302486768863877
  0
SEQEND
  5
5A5
  8
0
  0
POLYLINE
  5
103
  8
0
 66
     1
 10
0.0
 20
0.0
 30
0.0
 70
     1
  0
VERTEX
  5
46A
  8
0
 10
7.292868116961603
 20
-11.31372632626644
 30
0.0
 42
0.4142135623730951
  0
VERTEX
  5
46B
  8
0
 10
7.390868116961602
 20
-11.41172632626644
 30
0.0
 42
0.4142135623730951
  0
VERTEX
  5
46C
  8
0
 10
7.488868116961601
 20
-11.31372632626644
 30
0.0
 42
0.4142135623730951
  0
VERTEX
  5
46D
  8
0
 10
7.390868116961602
 20
-11.21572632626644
 30
0.0
 42
0.4142135623730951
  0
SEQEND
  5
5A6
  8
0
  0
POLYLINE
  5
104
  8
0
 66
     1
 10
0.0
 20
0.0
 30
0.0
 70
     1
  0
VERTEX
  5
46E
  8
0
 10
7.292868116961603
 20
-9.369182678003432
 30
0.0
 42
0.4142135623730951
  0
VERTEX
  5
46F
  8
0
 10
7.390868116961602
 20
-9.46718267800343
 30
0.0
 42
0.4142135623730951
  0
VERTEX
  5
470
  8
0
 10
7.488868116961601
 20
-9.369182678003432
 30
0.0
 42
0.4142135623730951
  0
VERTEX
  5
471
  8
0
 10
7.390868116961602
 20
-9.27118267800343
 30
0.0
 42
0.4142135623730951
  0
SEQEND
  5
5A7
  8
0
  0
POLYLINE
  5
105
  8
0
 66
     1
 10
0.0
 20
0.0
 30
0.0
 70
     1
  0
VERTEX
  5
472
  8
0
 10
4.039868116961603
 20
-11.09145450213493
 30
0.0
 42
0.4142135623730951
  0
VERTEX
  5
473
  8
0
 10
4.139868116961605
 20
-11.19145450213493
 30
0.0
 42
0.4142135623730951
  0
VERTEX
  5
474
  8
0
 10
4.239868116961603
 20
-11.09145450213493
 30
0.0
 42
0.4142135623730951
  0
VERTEX
  5
475
  8
0
 10
4.139868116961605
 20
-10.99145450213493
 30
0.0
 42
0.4142135623730951
  0
SEQEND
  5
5A8
  8
0
  0
POLYLINE
  5
106
  8
0
 66
     1
 10
0.0
 20
0.0
 30
0.0
 70
     1
  0
VERTEX
  5
476
  8
0
 10
4.039868116961603
 20
-9.591454502134933
 30
0.0
 42
0.4142135623730951
  0
VERTEX
  5
477
  8
0
 10
4.139868116961605
 20
-9.691454502134933
 30
0.0
 42
0.4142135623730951
  0
VERTEX
  5
478
  8
0
 10
4.239868116961603
 20
-9.591454502134933
 30
0.0
 42
0.4142135623730951
  0
VERTEX
  5
479
  8
0
 10
4.139868116961605
 20
-9.491454502134934
 30
0.0
 42
0.4142135623730951
  0
SEQEND
  5
5A9
  8
0
  0
POLYLINE
  5
107
  8
0
 66
     1
 10
0.0
 20
0.0
 30
0.0
 70
     1
  0
VERTEX
  5
47A
  8
0
 10
2.914868116961603
 20
-10.34145450213493
 30
0.0
 42
0.4142135623730951
  0
VERTEX
  5
47B
  8
0
 10
3.014868116961605
 20
-10.44145450213493
 30
0.0
 42
0.4142135623730951
  0
VERTEX
  5
47C
  8
0
 10
3.114868116961603
 20
-10.34145450213493
 30
0.0
 42
0.4142135623730951
  0
VERTEX
  5
47D
  8
0
 10
3.014868116961605
 20
-10.24145450213493
 30
0.0
 42
0.4142135623730951
  0
SEQEND
  5
5AA
  8
0
  0
POLYLINE
  5
108
  8
0
 66
     1
 10
0.0
 20
0.0
 30
0.0
 70
     1
  0
VERTEX
  5
47E
  8
0
 10
3.327368116961605
 20
-10.34145450213493
 30
0.0
 42
0.4142135623730951
  0
VERTEX
  5
47F
  8
0
 10
3.889868116961605
 20
-10.90395450213493
 30
0.0
 42
0.4142135623730951
  0
VERTEX
  5
480
  8
0
 10
4.452368116961605
 20
-10.34145450213493
 30
0.0
 42
0.4142135623730951
  0
VERTEX
  5
481
  8
0
 10
3.889868116961605
 20
-9.778954502134933
 30
0.0
 42
0.4142135623730951
  0
SEQEND
  5
5AB
  8
0
  0
POLYLINE
  5
109
  8
0
 66
     1
 10
0.0
 20
0.0
 30
0.0
 70
     1
  0
VERTEX
  5
482
  8
0
 10
5.501084043279679
 20
3.346860012896217
 30
0.0
 42
0.200275232210231
  0
VERTEX
  5
483
  8
0
 10
5.693635984650182
 20
3.346860012896217
 30
0.0
 42
0.3024867688638771
  0
VERTEX
  5
484
  8
0
 10
6.597359978949793
 20
4.702446004345632
 30
0.0
 42
0.1107700595863796
  0
VERTEX
  5
485
  8
0
 10
6.573467789184118
 20
4.809233250005239
 30
0.0
 42
-0.2652072234382152
  0
VERTEX
  5
486
  8
0
 10
6.805875170564335
 20
7.79326819024946
 30
0.0
 42
0.4717097097040647
  0
VERTEX
  5
487
  8
0
 10
6.681851332875894
 20
8.21609886254804
 30
0.0
 42
0.4717097097040644
  0
VERTEX
  5
488
  8
0
 10
6.290506513514575
 20
8.0135725133722
 30
0.0
 42
-0.8079016387229581
  0
VERTEX
  5
489
  8
0
 10
4.904213514415289
 20
8.0135725133722
 30
0.0
 42
0.4717097097040654
  0
VERTEX
  5
48A
  8
0
 10
4.512868695053967
 20
8.21609886254804
 30
0.0
 42
0.4717097097040643
  0
VERTEX
  5
48B
  8
0
 10
4.388844857365523
 20
7.79326819024946
 30
0.0
 42
-0.2652072234382151
  0
VERTEX
  5
48C
  8
0
 10
4.621252238745743
 20
4.809233250005239
 30
0.0
 42
0.1107700595863799
  0
VERTEX
  5
48D
  8
0
 10
4.597360048980068
 20
4.702446004345632
 30
0.0
 42
0.302486768863877
  0
SEQEND
  5
5AC
  8
0
  0
POLYLINE
  5
10A
  8
0
 66
     1
 10
0.0
 20
0.0
 30
0.0
 70
     1
  0
VERTEX
  5
48E
  8
0
 10
6.569631838096431
 20
7.855578320510961
 30
0.0
 42
0.4142135623730951
  0
VERTEX
  5
48F
  8
0
 10
6.667631838096433
 20
7.95357832051096
 30
0.0
 42
0.4142135623730951
  0
VERTEX
  5
490
  8
0
 10
6.569631838096431
 20
8.05157832051096
 30
0.0
 42
0.4142135623730951
  0
VERTEX
  5
491
  8
0
 10
6.471631838096432
 20
7.95357832051096
 30
0.0
 42
0.4142135623730951
  0
SEQEND
  5
5AD
  8
0
  0
POLYLINE
  5
10B
  8
0
 66
     1
 10
0.0
 20
0.0
 30
0.0
 70
     1
  0
VERTEX
  5
492
  8
0
 10
4.625088189833431
 20
7.855578320510961
 30
0.0
 42
0.4142135623730951
  0
VERTEX
  5
493
  8
0
 10
4.72308818983343
 20
7.95357832051096
 30
0.0
 42
0.4142135623730951
  0
VERTEX
  5
494
  8
0
 10
4.625088189833431
 20
8.05157832051096
 30
0.0
 42
0.4142135623730951
  0
VERTEX
  5
495
  8
0
 10
4.527088189833428
 20
7.95357832051096
 30
0.0
 42
0.4142135623730951
  0
SEQEND
  5
5AE
  8
0
  0
POLYLINE
  5
10C
  8
0
 66
     1
 10
0.0
 20
0.0
 30
0.0
 70
     1
  0
VERTEX
  5
496
  8
0
 10
6.347360013964931
 20
4.602578320510961
 30
0.0
 42
0.4142135623730951
  0
VERTEX
  5
497
  8
0
 10
6.447360013964929
 20
4.702578320510963
 30
0.0
 42
0.4142135623730951
  0
VERTEX
  5
498
  8
0
 10
6.347360013964931
 20
4.80257832051096
 30
0.0
 42
0.4142135623730951
  0
VERTEX
  5
499
  8
0
 10
6.247360013964933
 20
4.702578320510963
 30
0.0
 42
0.4142135623730951
  0
SEQEND
  5
5AF
  8
0
  0
POLYLINE
  5
10D
  8
0
 66
     1
 10
0.0
 20
0.0
 30
0.0
 70
     1
  0
VERTEX
  5
49A
  8
0
 10
4.847360013964931
 20
4.602578320510961
 30
0.0
 42
0.4142135623730951
  0
VERTEX
  5
49B
  8
0
 10
4.947360013964929
 20
4.702578320510963
 30
0.0
 42
0.4142135623730951
  0
VERTEX
  5
49C
  8
0
 10
4.847360013964931
 20
4.80257832051096
 30
0.0
 42
0.4142135623730951
  0
VERTEX
  5
49D
  8
0
 10
4.747360013964933
 20
4.702578320510963
 30
0.0
 42
0.4142135623730951
  0
SEQEND
  5
5B0
  8
0
  0
POLYLINE
  5
10E
  8
0
 66
     1
 10
0.0
 20
0.0
 30
0.0
 70
     1
  0
VERTEX
  5
49E
  8
0
 10
5.597360013964931
 20
3.477578320510961
 30
0.0
 42
0.4142135623730951
  0
VERTEX
  5
49F
  8
0
 10
5.697360013964929
 20
3.577578320510963
 30
0.0
 42
0.4142135623730951
  0
VERTEX
  5
4A0
  8
0
 10
5.597360013964931
 20
3.67757832051096
 30
0.0
 42
0.4142135623730951
  0
VERTEX
  5
4A1
  8
0
 10
5.497360013964933
 20
3.577578320510963
 30
0.0
 42
0.4142135623730951
  0
SEQEND
  5
5B1
  8
0
  0
POLYLINE
  5
10F
  8
0
 66
     1
 10
0.0
 20
0.0
 30
0.0
 70
     1
  0
VERTEX
  5
4A2
  8
0
 10
5.597360013964931
 20
3.890078320510963
 30
0.0
 42
0.4142135623730951
  0
VERTEX
  5
4A3
  8
0
 10
6.159860013964931
 20
4.452578320510963
 30
0.0
 42
0.4142135623730951
  0
VERTEX
  5
4A4
  8
0
 10
5.597360013964931
 20
5.015078320510963
 30
0.0
 42
0.4142135623730951
  0
VERTEX
  5
4A5
  8
0
 10
5.034860013964931
 20
4.452578320510963
 30
0.0
 42
0.4142135623730951
  0
SEQEND
  5
5B2
  8
0
  0
POLYLINE
  5
110
  8
0
 66
     1
 10
0.0
 20
0.0
 30
0.0
 70
     1
  0
VERTEX
  5
4A6
  8
0
 10
4.390806898116804
 20
-4.32860495233831
 30
0.0
 42
0.200275232210231
  0
VERTEX
  5
4A7
  8
0
 10
4.526961681590521
 20
-4.464759735812027
 30
0.0
 42
0.3024867688638771
  0
VERTEX
  5
4A8
  8
0
 10
6.124535093316137
 20
-4.145245053466905
 30
0.0
 42
0.1107700595863796
  0
VERTEX
  5
4A9
  8
0
 10
6.183150749465579
 20
-4.052840738516061
 30
0.0
 42
-0.2652072234382152
  0
VERTEX
  5
4AA
  8
0
 10
8.45751892638162
 20
-2.107146232343535
 30
0.0
 42
0.4717097097040647
  0
VERTEX
  5
4AB
  8
0
 10
8.668807265399337
 20
-1.720461700009265
 30
0.0
 42
0.4717097097040644
  0
VERTEX
  5
4AC
  8
0
 10
8.24887693497553
 20
-1.586946879327844
 30
0.0
 42
-0.8079016387229581
  0
VERTEX
  5
4AD
  8
0
 10
7.268619754600991
 20
-0.6066896989533035
 30
0.0
 42
0.4717097097040654
  0
VERTEX
  5
4AE
  8
0
 10
7.135104933919568
 20
-0.1867593685294953
 30
0.0
 42
0.4717097097040643
  0
VERTEX
  5
4AF
  8
0
 10
6.748420401585296
 20
-0.398047707547212
 30
0.0
 42
-0.2652072234382151
  0
VERTEX
  5
4B0
  8
0
 10
4.802725895412774
 20
-2.672415884463256
 30
0.0
 42
0.1107700595863799
  0
VERTEX
  5
4B1
  8
0
 10
4.710321580461926
 20
-2.731031540612692
 30
0.0
 42
0.302486768863877
  0
SEQEND
  5
5B3
  8
0
  0
POLYLINE
  5
111
  8
0
 66
     1
 10
0.0
 20
0.0
 30
0.0
 70
     1
  0
VERTEX
  5
4B2
  8
0
 10
8.334529579627983
 20
-1.896037054300848
 30
0.0
 42
0.4142135623730951
  0
VERTEX
  5
4B3
  8
0
 10
8.473122508740548
 20
-1.89603705430085
 30
0.0
 42
0.4142135623730951
  0
VERTEX
  5
4B4
  8
0
 10
8.473122508740545
 20
-1.757444125188286
 30
0.0
 42
0.4142135623730951
  0
VERTEX
  5
4B5
  8
0
 10
8.334529579627983
 20
-1.757444125188286
 30
0.0
 42
0.4142135623730951
  0
SEQEND
  5
5B4
  8
0
  0
POLYLINE
  5
112
  8
0
 66
     1
 10
0.0
 20
0.0
 30
0.0
 70
     1
  0
VERTEX
  5
4B6
  8
0
 10
6.959529579627983
 20
-0.5210370543008498
 30
0.0
 42
0.4142135623730951
  0
VERTEX
  5
4B7
  8
0
 10
7.098122508740548
 20
-0.521037054300848
 30
0.0
 42
0.4142135623730951
  0
VERTEX
  5
4B8
  8
0
 10
7.098122508740548
 20
-0.382444125188286
 30
0.0
 42
0.4142135623730951
  0
VERTEX
  5
4B9
  8
0
 10
6.959529579627983
 20
-0.382444125188286
 30
0.0
 42
0.4142135623730951
  0
SEQEND
  5
5B5
  8
0
  0
POLYLINE
  5
113
  8
0
 66
     1
 10
0.0
 20
0.0
 30
0.0
 70
     1
  0
VERTEX
  5
4BA
  8
0
 10
5.877141306318055
 20
-4.039085499390598
 30
0.0
 42
0.4142135623730951
  0
VERTEX
  5
4BB
  8
0
 10
6.018562662555365
 20
-4.039085499390598
 30
0.0
 42
0.4142135623730951
  0
VERTEX
  5
4BC
  8
0
 10
6.018562662555365
 20
-3.897664143153289
 30
0.0
 42
0.4142135623730951
  0
VERTEX
  5
4BD
  8
0
 10
5.877141306318055
 20
-3.897664143153289
 30
0.0
 42
0.4142135623730951
  0
SEQEND
  5
5B6
  8
0
  0
POLYLINE
  5
114
  8
0
 66
     1
 10
0.0
 20
0.0
 30
0.0
 70
     1
  0
VERTEX
  5
4BE
  8
0
 10
4.816481134538233
 20
-2.978425327610775
 30
0.0
 42
0.4142135623730951
  0
VERTEX
  5
4BF
  8
0
 10
4.957902490775542
 20
-2.978425327610775
 30
0.0
 42
0.4142135623730951
  0
VERTEX
  5
4C0
  8
0
 10
4.957902490775542
 20
-2.837003971373466
 30
0.0
 42
0.4142135623730951
  0
VERTEX
  5
4C1
  8
0
 10
4.816481134538233
 20
-2.837003971373466
 30
0.0
 42
0.4142135623730951
  0
SEQEND
  5
5B7
  8
0
  0
POLYLINE
  5
115
  8
0
 66
     1
 10
0.0
 20
0.0
 30
0.0
 70
     1
  0
VERTEX
  5
4C2
  8
0
 10
4.551316091593279
 20
-4.304250542335552
 30
0.0
 42
0.4142135623730951
  0
VERTEX
  5
4C3
  8
0
 10
4.692737447830588
 20
-4.304250542335552
 30
0.0
 42
0.4142135623730951
  0
VERTEX
  5
4C4
  8
0
 10
4.692737447830588
 20
-4.162829186098243
 30
0.0
 42
0.4142135623730951
  0
VERTEX
  5
4C5
  8
0
 10
4.551316091593279
 20
-4.162829186098245
 30
0.0
 42
0.4142135623730951
  0
SEQEND
  5
5B8
  8
0
  0
POLYLINE
  5
116
  8
0
 66
     1
 10
0.0
 20
0.0
 30
0.0
 70
     1
  0
VERTEX
  5
4C6
  8
0
 10
4.842997638832728
 20
-4.012568995096101
 30
0.0
 42
0.4142135623730951
  0
VERTEX
  5
4C7
  8
0
 10
5.638492767667596
 20
-4.012568995096103
 30
0.0
 42
0.4142135623730951
  0
VERTEX
  5
4C8
  8
0
 10
5.638492767667596
 20
-3.217073866261236
 30
0.0
 42
0.4142135623730951
  0
VERTEX
  5
4C9
  8
0
 10
4.842997638832731
 20
-3.217073866261236
 30
0.0
 42
0.4142135623730951
  0
SEQEND
  5
5B9
  8
0
  0
POLYLINE
  5
117
  8
0
 66
     1
 10
0.0
 20
0.0
 30
0.0
 70
     1
  0
VERTEX
  5
4CA
  8
0
 10
8.854523515322022
 20
4.803746979789477
 30
0.0
 42
0.200275232210231
  0
VERTEX
  5
4CB
  8
0
 10
8.718368731848305
 20
4.939901763263194
 30
0.0
 42
0.3024867688638771
  0
VERTEX
  5
4CC
  8
0
 10
7.120795320122685
 20
4.620387080918075
 30
0.0
 42
0.1107700595863796
  0
VERTEX
  5
4CD
  8
0
 10
7.06217966397325
 20
4.527982765967227
 30
0.0
 42
-0.2652072234382152
  0
VERTEX
  5
4CE
  8
0
 10
4.787811487057208
 20
2.582288259794701
 30
0.0
 42
0.4717097097040647
  0
VERTEX
  5
4CF
  8
0
 10
4.576523148039488
 20
2.195603727460432
 30
0.0
 42
0.4717097097040644
  0
VERTEX
  5
4D0
  8
0
 10
4.996453478463298
 20
2.06208890677901
 30
0.0
 42
-0.8079016387229581
  0
VERTEX
  5
4D1
  8
0
 10
5.976710658837835
 20
1.08183172640447
 30
0.0
 42
0.4717097097040654
  0
VERTEX
  5
4D2
  8
0
 10
6.110225479519261
 20
0.6619013959806619
 30
0.0
 42
0.4717097097040643
  0
VERTEX
  5
4D3
  8
0
 10
6.496910011853529
 20
0.8731897349983786
 30
0.0
 42
-0.2652072234382151
  0
VERTEX
  5
4D4
  8
0
 10
8.442604518026055
 20
3.147557911914422
 30
0.0
 42
0.1107700595863799
  0
VERTEX
  5
4D5
  8
0
 10
8.5350088329769
 20
3.206173568063859
 30
0.0
 42
0.302486768863877
  0
SEQEND
  5
5BA
  8
0
  0
POLYLINE
  5
118
  8
0
 66
     1
 10
0.0
 20
0.0
 30
0.0
 70
     1
  0
VERTEX
  5
4D6
  8
0
 10
4.910800833810843
 20
2.371179081752015
 30
0.0
 42
0.4142135623730951
  0
VERTEX
  5
4D7
  8
0
 10
4.772207904698281
 20
2.371179081752016
 30
0.0
 42
0.4142135623730951
  0
VERTEX
  5
4D8
  8
0
 10
4.772207904698281
 20
2.232586152639453
 30
0.0
 42
0.4142135623730951
  0
VERTEX
  5
4D9
  8
0
 10
4.910800833810843
 20
2.232586152639453
 30
0.0
 42
0.4142135623730951
  0
SEQEND
  5
5BB
  8
0
  0
POLYLINE
  5
119
  8
0
 66
     1
 10
0.0
 20
0.0
 30
0.0
 70
     1
  0
VERTEX
  5
4DA
  8
0
 10
6.285800833810843
 20
0.9961790817520164
 30
0.0
 42
0.4142135623730951
  0
VERTEX
  5
4DB
  8
0
 10
6.147207904698281
 20
0.9961790817520146
 30
0.0
 42
0.4142135623730951
  0
VERTEX
  5
4DC
  8
0
 10
6.147207904698281
 20
0.8575861526394526
 30
0.0
 42
0.4142135623730951
  0
VERTEX
  5
4DD
  8
0
 10
6.285800833810843
 20
0.8575861526394526
 30
0.0
 42
0.4142135623730951
  0
SEQEND
  5
5BC
  8
0
  0
POLYLINE
  5
11A
  8
0
 66
     1
 10
0.0
 20
0.0
 30
0.0
 70
     1
  0
VERTEX
  5
4DE
  8
0
 10
7.36818910712077
 20
4.514227526841765
 30
0.0
 42
0.4142135623730951
  0
VERTEX
  5
4DF
  8
0
 10
7.226767750883461
 20
4.514227526841765
 30
0.0
 42
0.4142135623730951
  0
VERTEX
  5
4E0
  8
0
 10
7.226767750883461
 20
4.372806170604456
 30
0.0
 42
0.4142135623730951
  0
VERTEX
  5
4E1
  8
0
 10
7.36818910712077
 20
4.372806170604456
 30
0.0
 42
0.4142135623730951
  0
SEQEND
  5
5BD
  8
0
  0
POLYLINE
  5
11B
  8
0
 66
     1
 10
0.0
 20
0.0
 30
0.0
 70
     1
  0
VERTEX
  5
4E2
  8
0
 10
8.428849278900593
 20
3.453567355061944
 30
0.0
 42
0.4142135623730951
  0
VERTEX
  5
4E3
  8
0
 10
8.287427922663284
 20
3.453567355061944
 30
0.0
 42
0.4142135623730951
  0
VERTEX
  5
4E4
  8
0
 10
8.287427922663284
 20
3.312145998824635
 30
0.0
 42
0.4142135623730951
  0
VERTEX
  5
4E5
  8
0
 10
8.428849278900593
 20
3.312145998824635
 30
0.0
 42
0.4142135623730951
  0
SEQEND
  5
5BE
  8
0
  0
POLYLINE
  5
11C
  8
0
 66
     1
 10
0.0
 20
0.0
 30
0.0
 70
     1
  0
VERTEX
  5
4E6
  8
0
 10
8.694014321845547
 20
4.779392569786719
 30
0.0
 42
0.4142135623730951
  0
VERTEX
  5
4E7
  8
0
 10
8.552592965608238
 20
4.779392569786719
 30
0.0
 42
0.4142135623730951
  0
VERTEX
  5
4E8
  8
0
 10
8.552592965608238
 20
4.63797121354941
 30
0.0
 42
0.4142135623730951
  0
VERTEX
  5
4E9
  8
0
 10
8.694014321845547
 20
4.63797121354941
 30
0.0
 42
0.4142135623730951
  0
SEQEND
  5
5BF
  8
0
  0
POLYLINE
  5
11D
  8
0
 66
     1
 10
0.0
 20
0.0
 30
0.0
 70
     1
  0
VERTEX
  5
4EA
  8
0
 10
8.402332774606098
 20
4.48771102254727
 30
0.0
 42
0.4142135623730951
  0
VERTEX
  5
4EB
  8
0
 10
7.606837645771233
 20
4.48771102254727
 30
0.0
 42
0.4142135623730951
  0
VERTEX
  5
4EC
  8
0
 10
7.606837645771233
 20
3.692215893712403
 30
0.0
 42
0.4142135623730951
  0
VERTEX
  5
4ED
  8
0
 10
8.402332774606098
 20
3.692215893712405
 30
0.0
 42
0.4142135623730951
  0
SEQEND
  5
5C0
  8
0
  0
POLYLINE
  5
11E
  8
0
 66
     1
 10
0.0
 20
0.0
 30
0.0
 70
     1
  0
VERTEX
  5
4EE
  8
0
 10
7.248754094880187
 20
-3.571551384146858
 30
0.0
 42
0.200275232210231
  0
VERTEX
  5
4EF
  8
0
 10
7.056202153509684
 20
-3.571551384146858
 30
0.0
 42
0.3024867688638771
  0
VERTEX
  5
4F0
  8
0
 10
6.152478159210073
 20
-4.927137375596272
 30
0.0
 42
0.1107700595863796
  0
VERTEX
  5
4F1
  8
0
 10
6.176370348975748
 20
-5.033924621255879
 30
0.0
 42
-0.2652072234382152
  0
VERTEX
  5
4F2
  8
0
 10
5.943962967595532
 20
-8.017959561500101
 30
0.0
 42
0.4717097097040647
  0
VERTEX
  5
4F3
  8
0
 10
6.067986805283972
 20
-8.440790233798682
 30
0.0
 42
0.4717097097040644
  0
VERTEX
  5
4F4
  8
0
 10
6.459331624645291
 20
-8.23826388462284
 30
0.0
 42
-0.8079016387229581
  0
VERTEX
  5
4F5
  8
0
 10
7.845624623744577
 20
-8.23826388462284
 30
0.0
 42
0.4717097097040654
  0
VERTEX
  5
4F6
  8
0
 10
8.236969443105899
 20
-8.440790233798683
 30
0.0
 42
0.4717097097040643
  0
VERTEX
  5
4F7
  8
0
 10
8.360993280794343
 20
-8.017959561500101
 30
0.0
 42
-0.2652072234382151
  0
VERTEX
  5
4F8
  8
0
 10
8.128585899414123
 20
-5.033924621255879
 30
0.0
 42
0.1107700595863799
  0
VERTEX
  5
4F9
  8
0
 10
8.152478089179798
 20
-4.927137375596272
 30
0.0
 42
0.302486768863877
  0
SEQEND
  5
5C1
  8
0
  0
POLYLINE
  5
11F
  8
0
 66
     1
 10
0.0
 20
0.0
 30
0.0
 70
     1
  0
VERTEX
  5
4FA
  8
0
 10
6.180206300063436
 20
-8.080269691761602
 30
0.0
 42
0.4142135623730951
  0
VERTEX
  5
4FB
  8
0
 10
6.082206300063433
 20
-8.178269691761603
 30
0.0
 42
0.4142135623730951
  0
VERTEX
  5
4FC
  8
0
 10
6.180206300063436
 20
-8.276269691761602
 30
0.0
 42
0.4142135623730951
  0
VERTEX
  5
4FD
  8
0
 10
6.278206300063434
 20
-8.178269691761603
 30
0.0
 42
0.4142135623730951
  0
SEQEND
  5
5C2
  8
0
  0
POLYLINE
  5
120
  8
0
 66
     1
 10
0.0
 20
0.0
 30
0.0
 70
     1
  0
VERTEX
  5
4FE
  8
0
 10
8.124749948326436
 20
-8.080269691761602
 30
0.0
 42
0.4142135623730951
  0
VERTEX
  5
4FF
  8
0
 10
8.026749948326437
 20
-8.178269691761603
 30
0.0
 42
0.4142135623730951
  0
VERTEX
  5
500
  8
0
 10
8.124749948326436
 20
-8.276269691761602
 30
0.0
 42
0.4142135623730951
  0
VERTEX
  5
501
  8
0
 10
8.222749948326438
 20
-8.178269691761603
 30
0.0
 42
0.4142135623730951
  0
SEQEND
  5
5C3
  8
0
  0
POLYLINE
  5
121
  8
0
 66
     1
 10
0.0
 20
0.0
 30
0.0
 70
     1
  0
VERTEX
  5
502
  8
0
 10
6.402478124194936
 20
-4.827269691761604
 30
0.0
 42
0.4142135623730951
  0
VERTEX
  5
503
  8
0
 10
6.302478124194938
 20
-4.927269691761603
 30
0.0
 42
0.4142135623730951
  0
VERTEX
  5
504
  8
0
 10
6.402478124194936
 20
-5.027269691761603
 30
0.0
 42
0.4142135623730951
  0
VERTEX
  5
505
  8
0
 10
6.502478124194933
 20
-4.927269691761603
 30
0.0
 42
0.4142135623730951
  0
SEQEND
  5
5C4
  8
0
  0
POLYLINE
  5
122
  8
0
 66
     1
 10
0.0
 20
0.0
 30
0.0
 70
     1
  0
VERTEX
  5
506
  8
0
 10
7.902478124194936
 20
-4.827269691761604
 30
0.0
 42
0.4142135623730951
  0
VERTEX
  5
507
  8
0
 10
7.802478124194938
 20
-4.927269691761603
 30
0.0
 42
0.4142135623730951
  0
VERTEX
  5
508
  8
0
 10
7.902478124194936
 20
-5.027269691761603
 30
0.0
 42
0.4142135623730951
  0
VERTEX
  5
509
  8
0
 10
8.002478124194933
 20
-4.927269691761603
 30
0.0
 42
0.4142135623730951
  0
SEQEND
  5
5C5
  8
0
  0
POLYLINE
  5
123
  8
0
 66
     1
 10
0.0
 20
0.0
 30
0.0
 70
     1
  0
VERTEX
  5
50A
  8
0
 10
7.152478124194936
 20
-3.702269691761604
 30
0.0
 42
0.4142135623730951
  0
VERTEX
  5
50B
  8
0
 10
7.052478124194938
 20
-3.802269691761603
 30
0.0
 42
0.4142135623730951
  0
VERTEX
  5
50C
  8
0
 10
7.152478124194936
 20
-3.902269691761603
 30
0.0
 42
0.4142135623730951
  0
VERTEX
  5
50D
  8
0
 10
7.252478124194933
 20
-3.802269691761603
 30
0.0
 42
0.4142135623730951
  0
SEQEND
  5
5C6
  8
0
  0
POLYLINE
  5
124
  8
0
 66
     1
 10
0.0
 20
0.0
 30
0.0
 70
     1
  0
VERTEX
  5
50E
  8
0
 10
7.152478124194936
 20
-4.114769691761603
 30
0.0
 42
0.4142135623730951
  0
VERTEX
  5
50F
  8
0
 10
6.589978124194936
 20
-4.677269691761603
 30
0.0
 42
0.4142135623730951
  0
VERTEX
  5
510
  8
0
 10
7.152478124194936
 20
-5.239769691761603
 30
0.0
 42
0.4142135623730951
  0
VERTEX
  5
511
  8
0
 10
7.714978124194936
 20
-4.677269691761603
 30
0.0
 42
0.4142135623730951
  0
SEQEND
  5
5C7
  8
0
  0
ENDSEC
  0
EOF
