  0
SECTION
  2
HEADER
  9
$ACADVER
  1
AC1009
  9
$DWGCODEPAGE
  3
ansi_1252
  9
$INSBASE
 10
0.0
 20
0.0
 30
0.0
  9
$EXTMIN
 10
-11.62577047547989
 20
-11.5740009537585
 30
0.0
  9
$EXTMAX
 10
9.040139034341795
 20
11.624999999904
 30
0.0
  9
$LIMMIN
 10
0.0
 20
0.0
  9
$LIMMAX
 10
12.0
 20
9.0
  9
$ORTHOMODE
 70
     0
  9
$REGENMODE
 70
     1
  9
$FILLMODE
 70
     1
  9
$QTEXTMODE
 70
     0
  9
$MIRRTEXT
 70
     1
  9
$DRAGMODE
 70
     2
  9
$LTSCALE
 40
1.0
  9
$OSMODE
 70
    37
  9
$ATTMODE
 70
     1
  9
$TEXTSIZE
 40
0.2
  9
$TRACEWID
 40
0.05
  9
$TEXTSTYLE
  7
STANDARD
  9
$CLAYER
  8
0
  9
$CELTYPE
  6
BYLAYER
  9
$CECOLOR
 62
   256
  9
$DIMSCALE
 40
1.0
  9
$DIMASZ
 40
0.18
  9
$DIMEXO
 40
0.0625
  9
$DIMDLI
 40
0.38
  9
$DIMRND
 40
0.0
  9
$DIMDLE
 40
0.0
  9
$DIMEXE
 40
0.18
  9
$DIMTP
 40
0.0
  9
$DIMTM
 40
0.0
  9
$DIMTXT
 40
0.18
  9
$DIMCEN
 40
0.09
  9
$DIMTSZ
 40
0.0
  9
$DIMTOL
 70
     0
  9
$DIMLIM
 70
     0
  9
$DIMTIH
 70
     1
  9
$DIMTOH
 70
     1
  9
$DIMSE1
 70
     0
  9
$DIMSE2
 70
     0
  9
$DIMTAD
 70
     0
  9
$DIMZIN
 70
     0
  9
$DIMBLK
  1

  9
$DIMASO
 70
     1
  9
$DIMSHO
 70
     1
  9
$DIMPOST
  1

  9
$DIMAPOST
  1

  9
$DIMALT
 70
     0
  9
$DIMALTD
 70
     2
  9
$DIMALTF
 40
25.4
  9
$DIMLFAC
 40
1.0
  9
$DIMTOFL
 70
     0
  9
$DIMTVP
 40
0.0
  9
$DIMTIX
 70
     0
  9
$DIMSOXD
 70
     0
  9
$DIMSAH
 70
     0
  9
$DIMBLK1
  1

  9
$DIMBLK2
  1

  9
$DIMSTYLE
  2
STANDARD
  9
$DIMCLRD
 70
     0
  9
$DIMCLRE
 70
     0
  9
$DIMCLRT
 70
     0
  9
$DIMTFAC
 40
1.0
  9
$DIMGAP
 40
0.09
  9
$LUNITS
 70
     2
  9
$LUPREC
 70
     4
  9
$SKETCHINC
 40
0.1
  9
$FILLETRAD
 40
0.5
  9
$AUNITS
 70
     0
  9
$AUPREC
 70
     0
  9
$MENU
  1
.
  9
$ELEVATION
 40
0.0
  9
$PELEVATION
 40
0.0
  9
$THICKNESS
 40
0.0
  9
$LIMCHECK
 70
     0
  9
$CHAMFERA
 40
0.0
  9
$CHAMFERB
 40
0.0
  9
$SKPOLY
 70
     0
  9
$TDCREATE
 40
2454910.5
  9
$TDUPDATE
 40
2458150.552638553
  9
$TDINDWG
 40
0.0000000116
  9
$TDUSRTIMER
 40
0.0000000116
  9
$USRTIMER
 70
     1
  9
$ANGBASE
 50
0.0
  9
$ANGDIR
 70
     0
  9
$PDMODE
 70
     0
  9
$PDSIZE
 40
0.0
  9
$PLINEWID
 40
0.0
  9
$COORDS
 70
     1
  9
$SPLFRAME
 70
     0
  9
$SPLINETYPE
 70
     6
  9
$SPLINESEGS
 70
     8
  9
$ATTDIA
 70
     0
  9
$ATTREQ
 70
     1
  9
$HANDLING
 70
     1
  9
$HANDSEED
  5
5FD
  9
$SURFTAB1
 70
     6
  9
$SURFTAB2
 70
     6
  9
$SURFTYPE
 70
     6
  9
$SURFU
 70
     6
  9
$SURFV
 70
     6
  9
$UCSNAME
  2

  9
$UCSORG
 10
0.0
 20
0.0
 30
0.0
  9
$UCSXDIR
 10
1.0
 20
0.0
 30
0.0
  9
$UCSYDIR
 10
0.0
 20
1.0
 30
0.0
  9
$PUCSNAME
  2

  9
$PUCSORG
 10
0.0
 20
0.0
 30
0.0
  9
$PUCSXDIR
 10
1.0
 20
0.0
 30
0.0
  9
$PUCSYDIR
 10
0.0
 20
1.0
 30
0.0
  9
$USERI1
 70
     0
  9
$USERI2
 70
     0
  9
$USERI3
 70
     0
  9
$USERI4
 70
     0
  9
$USERI5
 70
     0
  9
$USERR1
 40
0.0
  9
$USERR2
 40
0.0
  9
$USERR3
 40
0.0
  9
$USERR4
 40
0.0
  9
$USERR5
 40
0.0
  9
$WORLDVIEW
 70
     1
  9
$SHADEDGE
 70
     3
  9
$SHADEDIF
 70
    70
  9
$TILEMODE
 70
     1
  9
$MAXACTVP
 70
    64
  9
$PLIMCHECK
 70
     0
  9
$PEXTMIN
 10
1.000000000000000E+20
 20
1.000000000000000E+20
 30
1.000000000000000E+20
  9
$PEXTMAX
 10
-1.000000000000000E+20
 20
-1.000000000000000E+20
 30
-1.000000000000000E+20
  9
$PLIMMIN
 10
0.0
 20
0.0
  9
$PLIMMAX
 10
12.0
 20
9.0
  9
$UNITMODE
 70
     0
  9
$VISRETAIN
 70
     1
  9
$PLINEGEN
 70
     0
  9
$PSLTSCALE
 70
     1
  0
ENDSEC
  0
SECTION
  2
TABLES
  0
TABLE
  2
VPORT
 70
     1
  0
VPORT
  2
*ACTIVE
 70
     0
 10
0.0
 20
0.0
 11
1.0
 21
1.0
 12
10.42990654205607
 22
4.5
 13
0.0
 23
0.0
 14
0.5
 24
0.5
 15
0.5
 25
0.5
 16
0.0
 26
0.0
 36
1.0
 17
0.0
 27
0.0
 37
0.0
 40
9.0
 41
1.972972972850329
 42
50.0
 43
0.0
 44
0.0
 50
0.0
 51
0.0
 71
     0
 72
   100
 73
     1
 74
     3
 75
     0
 76
     0
 77
     0
 78
     0
  0
ENDTAB
  0
TABLE
  2
LTYPE
 70
     2
  0
LTYPE
  2
CONTINUOUS
 70
     0
  3
Solid line
 72
    65
 73
     0
 40
0.0
  0
LTYPE
  2
CONTINUOUS2
 70
     0
  3
Solid Line
 72
    65
 73
     0
 40
0.0
  0
ENDTAB
  0
TABLE
  2
LAYER
 70
     1
  0
LAYER
  2
0
 70
     0
 62
     7
  6
CONTINUOUS
  0
ENDTAB
  0
TABLE
  2
STYLE
 70
     1
  0
STYLE
  2
STANDARD
 70
     0
 40
0.0
 41
1.0
 50
0.0
 71
     0
 42
0.2
  3
txt
  4

  0
ENDTAB
  0
TABLE
  2
VIEW
 70
     0
  0
ENDTAB
  0
TABLE
  2
UCS
 70
     0
  0
ENDTAB
  0
TABLE
  2
APPID
 70
     1
  0
APPID
  2
ACAD
 70
     0
  0
ENDTAB
  0
TABLE
  2
DIMSTYLE
 70
     1
  0
DIMSTYLE
  2
STANDARD
 70
     0
  3

  4

  5

  6

  7

 40
1.0
 41
0.18
 42
0.0625
 43
0.38
 44
0.18
 45
0.0
 46
0.0
 47
0.0
 48
0.0
140
0.18
141
0.09
142
0.0
143
25.4
144
1.0
145
0.0
146
1.0
147
0.09
 71
     0
 72
     0
 73
     1
 74
     1
 75
     0
 76
     0
 77
     0
 78
     0
170
     0
171
     2
172
     0
173
     0
174
     0
175
     0
176
     0
177
     0
178
     0
  0
ENDTAB
  0
ENDSEC
  0
SECTION
  2
BLOCKS
  0
BLOCK
  8
0
  2
$MODEL_SPACE
 70
     0
 10
0.0
 20
0.0
 30
0.0
  3
$MODEL_SPACE
  1

  0
ENDBLK
  5
21
  8
0
  0
BLOCK
 67
     1
  8
0
  2
$PAPER_SPACE
 70
     0
 10
0.0
 20
0.0
 30
0.0
  3
$PAPER_SPACE
  1

  0
ENDBLK
  5
1D
 67
     1
  8
0
  0
ENDSEC
  0
SECTION
  2
ENTITIES
  0
POLYLINE
  5
6F
  8
0
 66
     1
 10
0.0
 20
0.0
 30
0.0
 70
     1
  0
VERTEX
  5
134
  8
0
 10
-9.421621247482037
 20
6.283136814011682
 30
0.0
  0
VERTEX
  5
135
  8
0
 10
-5.088993482643248
 20
9.302295233361702
 30
0.0
  0
VERTEX
  5
136
  8
0
 10
-7.381887129963474
 20
11.60558390871138
 30
0.0
  0
VERTEX
  5
137
  8
0
 10
-10.44788329984111
 20
8.553424960570277
 30
0.0
 42
0.4474448686195638
  0
VERTEX
  5
138
  8
0
 10
-10.1271604473396
 20
2.597150485994463
 30
0.0
  0
VERTEX
  5
139
  8
0
 10
-5.404901506213378
 20
-1.186910712969249
 30
0.0
 42
0.9621237218729111
  0
VERTEX
  5
13A
  8
0
 10
-4.423169720940731
 20
-0.0542803677617769
 30
0.0
  0
VERTEX
  5
13B
  8
0
 10
-9.533549610625135
 20
4.732880247125079
 30
0.0
 42
-0.4769755326961064
  0
SEQEND
  5
53F
  8
0
  0
POLYLINE
  5
70
  8
0
 66
     1
 10
0.0
 20
0.0
 30
0.0
 70
     1
  0
VERTEX
  5
13C
  8
0
 10
-5.685318430598304
 20
9.369790077548648
 30
0.0
 42
0.4142135623730951
  0
VERTEX
  5
13D
  8
0
 10
-5.685518334983485
 20
9.28140195595884
 30
0.0
 42
0.4142135623730951
  0
VERTEX
  5
13E
  8
0
 10
-5.597130213393678
 20
9.28120205157366
 30
0.0
 42
0.4142135623730951
  0
VERTEX
  5
13F
  8
0
 10
-5.596930309008497
 20
9.369590173163465
 30
0.0
 42
0.4142135623730951
  0
SEQEND
  5
540
  8
0
  0
POLYLINE
  5
71
  8
0
 66
     1
 10
0.0
 20
0.0
 30
0.0
 70
     1
  0
VERTEX
  5
140
  8
0
 10
-6.179893772648072
 20
9.866607618903773
 30
0.0
 42
0.4142135623730951
  0
VERTEX
  5
141
  8
0
 10
-6.180093677033252
 20
9.778219497313968
 30
0.0
 42
0.4142135623730951
  0
VERTEX
  5
142
  8
0
 10
-6.091705555443447
 20
9.778019592928787
 30
0.0
 42
0.4142135623730951
  0
VERTEX
  5
143
  8
0
 10
-6.091505651058267
 20
9.866407714518592
 30
0.0
 42
0.4142135623730951
  0
SEQEND
  5
541
  8
0
  0
POLYLINE
  5
72
  8
0
 66
     1
 10
0.0
 20
0.0
 30
0.0
 70
     1
  0
VERTEX
  5
144
  8
0
 10
-7.431089330096288
 20
11.12347557764509
 30
0.0
 42
0.4142135623730951
  0
VERTEX
  5
145
  8
0
 10
-7.431289234481468
 20
11.03508745605528
 30
0.0
 42
0.4142135623730951
  0
VERTEX
  5
146
  8
0
 10
-7.342901112891663
 20
11.0348875516701
 30
0.0
 42
0.4142135623730951
  0
VERTEX
  5
147
  8
0
 10
-7.342701208506483
 20
11.12327567325991
 30
0.0
 42
0.4142135623730951
  0
SEQEND
  5
542
  8
0
  0
POLYLINE
  5
73
  8
0
 66
     1
 10
0.0
 20
0.0
 30
0.0
 70
     1
  0
VERTEX
  5
148
  8
0
 10
-4.98000184642813
 20
-0.5573433918499493
 30
0.0
 42
0.4142135623730951
  0
VERTEX
  5
149
  8
0
 10
-4.980201750813308
 20
-0.6457315134397579
 30
0.0
 42
0.4142135623730951
  0
VERTEX
  5
14A
  8
0
 10
-4.891813629223505
 20
-0.6459314178249347
 30
0.0
 42
0.4142135623730951
  0
VERTEX
  5
14B
  8
0
 10
-4.891613724838322
 20
-0.5575432962351332
 30
0.0
 42
0.4142135623730951
  0
SEQEND
  5
543
  8
0
  0
POLYLINE
  5
74
  8
0
 66
     1
 10
0.0
 20
0.0
 30
0.0
 70
     1
  0
VERTEX
  5
14C
  8
0
 10
-9.293987239498342
 20
-4.309300611654052
 30
0.0
  0
VERTEX
  5
14D
  8
0
 10
-8.36522415842258
 20
0.8891972530194288
 30
0.0
  0
VERTEX
  5
14E
  8
0
 10
-11.6152158463522
 20
0.8965476478296761
 30
0.0
  0
VERTEX
  5
14F
  8
0
 10
-11.62500023967489
 20
-3.429641324472554
 30
0.0
 42
0.4474448686195638
  0
VERTEX
  5
150
  8
0
 10
-7.186492864208678
 20
-7.414578092168144
 30
0.0
  0
VERTEX
  5
151
  8
0
 10
-1.171616210207382
 20
-6.751172106591122
 30
0.0
 42
0.9621237218729111
  0
VERTEX
  5
152
  8
0
 10
-1.278317605208581
 20
-5.256092306244595
 30
0.0
  0
VERTEX
  5
153
  8
0
 10
-8.276935613059445
 20
-5.484642847264139
 30
0.0
 42
-0.4769755326961064
  0
SEQEND
  5
544
  8
0
  0
POLYLINE
  5
75
  8
0
 66
     1
 10
0.0
 20
0.0
 30
0.0
 70
     1
  0
VERTEX
  5
154
  8
0
 10
-8.83461563493203
 20
0.5152579005494093
 30
0.0
 42
0.4142135623730951
  0
VERTEX
  5
155
  8
0
 10
-8.772257148525888
 20
0.4526167066505664
 30
0.0
 42
0.4142135623730951
  0
VERTEX
  5
156
  8
0
 10
-8.709615954627044
 20
0.5149751930567099
 30
0.0
 42
0.4142135623730951
  0
VERTEX
  5
157
  8
0
 10
-8.771974441033185
 20
0.5776163869555511
 30
0.0
 42
0.4142135623730951
  0
SEQEND
  5
545
  8
0
  0
POLYLINE
  5
76
  8
0
 66
     1
 10
0.0
 20
0.0
 30
0.0
 70
     1
  0
VERTEX
  5
158
  8
0
 10
-9.535636265607716
 20
0.5168433748830008
 30
0.0
 42
0.4142135623730951
  0
VERTEX
  5
159
  8
0
 10
-9.473277779201574
 20
0.4542021809841597
 30
0.0
 42
0.4142135623730951
  0
VERTEX
  5
15A
  8
0
 10
-9.410636585302731
 20
0.5165606673902996
 30
0.0
 42
0.4142135623730951
  0
VERTEX
  5
15B
  8
0
 10
-9.472995071708873
 20
0.5792018612891443
 30
0.0
 42
0.4142135623730951
  0
SEQEND
  5
546
  8
0
  0
POLYLINE
  5
77
  8
0
 66
     1
 10
0.0
 20
0.0
 30
0.0
 70
     1
  0
VERTEX
  5
15C
  8
0
 10
-11.30910498555191
 20
0.5208543683029632
 30
0.0
 42
0.4142135623730951
  0
VERTEX
  5
15D
  8
0
 10
-11.24674649914577
 20
0.4582131744041202
 30
0.0
 42
0.4142135623730951
  0
VERTEX
  5
15E
  8
0
 10
-11.18410530524693
 20
0.5205716608102602
 30
0.0
 42
0.4142135623730951
  0
VERTEX
  5
15F
  8
0
 10
-11.24646379165307
 20
0.5832128547091049
 30
0.0
 42
0.4142135623730951
  0
SEQEND
  5
547
  8
0
  0
POLYLINE
  5
78
  8
0
 66
     1
 10
0.0
 20
0.0
 30
0.0
 70
     1
  0
VERTEX
  5
160
  8
0
 10
-1.316338101426281
 20
-6.005551353856211
 30
0.0
 42
0.4142135623730951
  0
VERTEX
  5
161
  8
0
 10
-1.253979615020135
 20
-6.068192547755054
 30
0.0
 42
0.4142135623730951
  0
VERTEX
  5
162
  8
0
 10
-1.191338421121296
 20
-6.005834061348912
 30
0.0
 42
0.4142135623730951
  0
VERTEX
  5
163
  8
0
 10
-1.253696907527436
 20
-5.943192867450069
 30
0.0
 42
0.4142135623730951
  0
SEQEND
  5
548
  8
0
  0
POLYLINE
  5
79
  8
0
 66
     1
 10
0.0
 20
0.0
 30
0.0
 70
     1
  0
VERTEX
  5
164
  8
0
 10
-7.128627803561095
 20
3.979654788444993
 30
0.0
  0
VERTEX
  5
165
  8
0
 10
-8.309505624422856
 20
5.160532609306754
 30
0.0
 42
-0.6858831481015217
  0
VERTEX
  5
166
  8
0
 10
-8.262277648411944
 20
5.267153108060247
 30
0.0
  0
VERTEX
  5
167
  8
0
 10
-7.136128558969258
 20
5.212424376641176
 30
0.0
 42
-0.386045573955378
  0
VERTEX
  5
168
  8
0
 10
-7.076736036226672
 20
5.153031853898588
 30
0.0
  0
VERTEX
  5
169
  8
0
 10
-7.0220073048076
 20
4.026882764455904
 30
0.0
 42
-0.6858831481015198
  0
SEQEND
  5
549
  8
0
  0
POLYLINE
  5
7A
  8
0
 66
     1
 10
0.0
 20
0.0
 30
0.0
 70
     1
  0
VERTEX
  5
16A
  8
0
 10
-5.974634284818716
 20
3.662875698620793
 30
0.0
  0
VERTEX
  5
16B
  8
0
 10
-2.527488726561877
 20
7.110021256877635
 30
0.0
 42
0.9999999999999998
  0
VERTEX
  5
16C
  8
0
 10
-3.234595507742766
 20
7.817128038058522
 30
0.0
  0
VERTEX
  5
16D
  8
0
 10
-4.843263434929293
 20
6.208460110871995
 30
0.0
 42
-0.4142135623730951
  0
VERTEX
  5
16E
  8
0
 10
-5.373593520814959
 20
6.208460110871998
 30
0.0
 42
0.1961510520176442
  0
VERTEX
  5
16F
  8
0
 10
-5.684720504534551
 20
6.339274865390463
 30
0.0
 42
-0.1961510520176442
  0
VERTEX
  5
170
  8
0
 10
-5.995847488254144
 20
6.470089619908928
 30
0.0
 42
0.2683759892124261
  0
VERTEX
  5
171
  8
0
 10
-6.66183231143218
 20
6.647971416913892
 30
0.0
  0
VERTEX
  5
172
  8
0
 10
-9.340515741799987
 20
5.925645873196329
 30
0.0
 42
0.5768195054227268
  0
VERTEX
  5
173
  8
0
 10
-9.50804687037963
 20
5.298413683492194
 30
0.0
  0
VERTEX
  5
174
  8
0
 10
-5.618959573884728
 20
1.409326386997293
 30
0.0
 42
0.9031740110501919
  0
VERTEX
  5
175
  8
0
 10
-5.0405469570757
 20
1.880649033400903
 30
0.0
  0
VERTEX
  5
176
  8
0
 10
-6.006689305434293
 20
3.348660601018381
 30
0.0
 42
-0.3558387196350834
  0
SEQEND
  5
54A
  8
0
  0
POLYLINE
  5
7B
  8
0
 66
     1
 10
0.0
 20
0.0
 30
0.0
 70
     1
  0
VERTEX
  5
177
  8
0
 10
-6.018828458642522
 20
6.270331954225325
 30
0.0
 42
0.4142135623730951
  0
VERTEX
  5
178
  8
0
 10
-6.814323587471025
 20
6.270331954225325
 30
0.0
 42
0.4142135623730951
  0
VERTEX
  5
179
  8
0
 10
-6.814323587471025
 20
5.474836825396826
 30
0.0
 42
0.4142135623730951
  0
VERTEX
  5
17A
  8
0
 10
-6.018828458642526
 20
5.474836825396826
 30
0.0
 42
0.4142135623730951
  0
SEQEND
  5
54B
  8
0
  0
POLYLINE
  5
7C
  8
0
 66
     1
 10
0.0
 20
0.0
 30
0.0
 70
     1
  0
VERTEX
  5
17B
  8
0
 10
-7.753787425495958
 20
4.261160514725942
 30
0.0
 42
0.4142135623730951
  0
VERTEX
  5
17C
  8
0
 10
-7.940463615727713
 20
4.261160514725942
 30
0.0
 42
0.4142135623730951
  0
VERTEX
  5
17D
  8
0
 10
-7.940463615727711
 20
4.074484324494188
 30
0.0
 42
0.4142135623730951
  0
VERTEX
  5
17E
  8
0
 10
-7.753787425495957
 20
4.074484324494188
 30
0.0
 42
0.4142135623730951
  0
SEQEND
  5
54C
  8
0
  0
POLYLINE
  5
7D
  8
0
 66
     1
 10
0.0
 20
0.0
 30
0.0
 70
     1
  0
VERTEX
  5
17F
  8
0
 10
-9.14954373232092
 20
5.656916821550906
 30
0.0
 42
0.4142135623730951
  0
VERTEX
  5
180
  8
0
 10
-9.336219922552674
 20
5.656916821550906
 30
0.0
 42
0.4142135623730951
  0
VERTEX
  5
181
  8
0
 10
-9.336219922552672
 20
5.470240631319152
 30
0.0
 42
0.4142135623730951
  0
VERTEX
  5
182
  8
0
 10
-9.149543732320918
 20
5.470240631319149
 30
0.0
 42
0.4142135623730951
  0
SEQEND
  5
54D
  8
0
  0
POLYLINE
  5
7E
  8
0
 66
     1
 10
0.0
 20
0.0
 30
0.0
 70
     1
  0
VERTEX
  5
183
  8
0
 10
-6.499772142599852
 20
3.02180470063996
 30
0.0
 42
0.4142135623730951
  0
VERTEX
  5
184
  8
0
 10
-6.686448332831604
 20
3.02180470063996
 30
0.0
 42
0.4142135623730951
  0
VERTEX
  5
185
  8
0
 10
-6.686448332831606
 20
2.835128510408206
 30
0.0
 42
0.4142135623730951
  0
VERTEX
  5
186
  8
0
 10
-6.499772142599851
 20
2.835128510408206
 30
0.0
 42
0.4142135623730951
  0
SEQEND
  5
54E
  8
0
  0
POLYLINE
  5
7F
  8
0
 66
     1
 10
0.0
 20
0.0
 30
0.0
 70
     1
  0
VERTEX
  5
187
  8
0
 10
-5.260456435826015
 20
1.767829525056007
 30
0.0
 42
0.4142135623730951
  0
VERTEX
  5
188
  8
0
 10
-5.447132626057776
 20
1.767829525056007
 30
0.0
 42
0.4142135623730951
  0
VERTEX
  5
189
  8
0
 10
-5.447132626057774
 20
1.581153334824247
 30
0.0
 42
0.4142135623730951
  0
VERTEX
  5
18A
  8
0
 10
-5.260456435826018
 20
1.581153334824249
 30
0.0
 42
0.4142135623730951
  0
SEQEND
  5
54F
  8
0
  0
POLYLINE
  5
80
  8
0
 66
     1
 10
0.0
 20
0.0
 30
0.0
 70
     1
  0
VERTEX
  5
18B
  8
0
 10
-2.723357304948983
 20
7.621259459671412
 30
0.0
 42
0.4142135623730951
  0
VERTEX
  5
18C
  8
0
 10
-2.861950234060435
 20
7.621259459671419
 30
0.0
 42
0.4142135623730951
  0
VERTEX
  5
18D
  8
0
 10
-2.861950234060435
 20
7.482666530559962
 30
0.0
 42
0.4142135623730951
  0
VERTEX
  5
18E
  8
0
 10
-2.723357304948982
 20
7.482666530559962
 30
0.0
 42
0.4142135623730951
  0
SEQEND
  5
550
  8
0
  0
POLYLINE
  5
81
  8
0
 66
     1
 10
0.0
 20
0.0
 30
0.0
 70
     1
  0
VERTEX
  5
18F
  8
0
 10
-4.137570867310762
 20
6.207045897309635
 30
0.0
 42
0.4142135623730951
  0
VERTEX
  5
190
  8
0
 10
-4.276163796422217
 20
6.207045897309635
 30
0.0
 42
0.4142135623730951
  0
VERTEX
  5
191
  8
0
 10
-4.276163796422217
 20
6.068452968198178
 30
0.0
 42
0.4142135623730951
  0
VERTEX
  5
192
  8
0
 10
-4.137570867310762
 20
6.068452968198182
 30
0.0
 42
0.4142135623730951
  0
SEQEND
  5
551
  8
0
  0
POLYLINE
  5
82
  8
0
 66
     1
 10
0.0
 20
0.0
 30
0.0
 70
     1
  0
VERTEX
  5
193
  8
0
 10
-6.258891210853434
 20
4.085725553766965
 30
0.0
 42
0.4142135623730951
  0
VERTEX
  5
194
  8
0
 10
-6.397484139964888
 20
4.085725553766965
 30
0.0
 42
0.4142135623730951
  0
VERTEX
  5
195
  8
0
 10
-6.397484139964888
 20
3.947132624655509
 30
0.0
 42
0.4142135623730951
  0
VERTEX
  5
196
  8
0
 10
-6.258891210853434
 20
3.947132624655509
 30
0.0
 42
0.4142135623730951
  0
SEQEND
  5
552
  8
0
  0
POLYLINE
  5
83
  8
0
 66
     1
 10
0.0
 20
0.0
 30
0.0
 70
     1
  0
VERTEX
  5
197
  8
0
 10
-4.00920307572455
 20
-4.263493634502263
 30
0.0
  0
VERTEX
  5
198
  8
0
 10
-5.67921650549284
 20
-4.263493634502263
 30
0.0
 42
-0.6858831481015217
  0
VERTEX
  5
199
  8
0
 10
-5.721213361075896
 20
-4.154706334721144
 30
0.0
  0
VERTEX
  5
19A
  8
0
 10
-4.886206646191752
 20
-3.39709773406133
 30
0.0
 42
-0.386045573955378
  0
VERTEX
  5
19B
  8
0
 10
-4.802212935025635
 20
-3.39709773406133
 30
0.0
  0
VERTEX
  5
19C
  8
0
 10
-3.967206220141495
 20
-4.154706334721144
 30
0.0
 42
-0.6858831481015198
  0
SEQEND
  5
553
  8
0
  0
POLYLINE
  5
84
  8
0
 66
     1
 10
0.0
 20
0.0
 30
0.0
 70
     1
  0
VERTEX
  5
19D
  8
0
 10
-2.969209790623696
 20
-3.671493634506998
 30
0.0
  0
VERTEX
  5
19E
  8
0
 10
-2.969209790623697
 20
1.203506365454
 30
0.0
 42
0.9999999999999998
  0
VERTEX
  5
19F
  8
0
 10
-3.969209790615695
 20
1.203506365454
 30
0.0
  0
VERTEX
  5
1A0
  8
0
 10
-3.969209790615695
 20
-1.071493634527801
 30
0.0
 42
-0.4142135623730951
  0
VERTEX
  5
1A1
  8
0
 10
-4.344209790612696
 20
-1.446493634524797
 30
0.0
 42
0.1961510520176442
  0
VERTEX
  5
1A2
  8
0
 10
-4.656709790610194
 20
-1.573993634523779
 30
0.0
 42
-0.1961510520176442
  0
VERTEX
  5
1A3
  8
0
 10
-4.969209790607695
 20
-1.701493634522761
 30
0.0
 42
0.2683759892124261
  0
VERTEX
  5
1A4
  8
0
 10
-5.565913600156068
 20
-2.046634594247411
 30
0.0
  0
VERTEX
  5
1A5
  8
0
 10
-6.949267528234238
 20
-4.451511102699478
 30
0.0
 42
0.5768195054227268
  0
VERTEX
  5
1A6
  8
0
 10
-6.624209790594459
 20
-5.01349363449626
 30
0.0
  0
VERTEX
  5
1A7
  8
0
 10
-1.124209790638455
 20
-5.013493634496262
 30
0.0
 42
0.9031740110501919
  0
VERTEX
  5
1A8
  8
0
 10
-1.048485746367717
 20
-4.271218711427959
 30
0.0
  0
VERTEX
  5
1A9
  8
0
 10
-2.769692486806186
 20
-3.916343583221204
 30
0.0
 42
-0.3558387196350834
  0
SEQEND
  5
554
  8
0
  0
POLYLINE
  5
85
  8
0
 66
     1
 10
0.0
 20
0.0
 30
0.0
 70
     1
  0
VERTEX
  5
1AA
  8
0
 10
-4.844209790608695
 20
-1.858993634521498
 30
0.0
 42
0.4142135623730951
  0
VERTEX
  5
1AB
  8
0
 10
-5.406709790604193
 20
-2.421493634517001
 30
0.0
 42
0.4142135623730951
  0
VERTEX
  5
1AC
  8
0
 10
-4.844209790608695
 20
-2.983993634512498
 30
0.0
 42
0.4142135623730951
  0
VERTEX
  5
1AD
  8
0
 10
-4.281709790613197
 20
-2.421493634517001
 30
0.0
 42
0.4142135623730951
  0
SEQEND
  5
555
  8
0
  0
POLYLINE
  5
86
  8
0
 66
     1
 10
0.0
 20
0.0
 30
0.0
 70
     1
  0
VERTEX
  5
1AE
  8
0
 10
-4.650312291714815
 20
-4.50649363450032
 30
0.0
 42
0.4142135623730951
  0
VERTEX
  5
1AF
  8
0
 10
-4.782312291713758
 20
-4.638493634499262
 30
0.0
 42
0.4142135623730951
  0
VERTEX
  5
1B0
  8
0
 10
-4.650312291714815
 20
-4.770493634498205
 30
0.0
 42
0.4142135623730951
  0
VERTEX
  5
1B1
  8
0
 10
-4.51831229171587
 20
-4.638493634499262
 30
0.0
 42
0.4142135623730951
  0
SEQEND
  5
556
  8
0
  0
POLYLINE
  5
87
  8
0
 66
     1
 10
0.0
 20
0.0
 30
0.0
 70
     1
  0
VERTEX
  5
1B2
  8
0
 10
-6.624209790594459
 20
-4.50649363450032
 30
0.0
 42
0.4142135623730951
  0
VERTEX
  5
1B3
  8
0
 10
-6.756209790593402
 20
-4.638493634499262
 30
0.0
 42
0.4142135623730951
  0
VERTEX
  5
1B4
  8
0
 10
-6.624209790594459
 20
-4.770493634498205
 30
0.0
 42
0.4142135623730951
  0
VERTEX
  5
1B5
  8
0
 10
-6.492209790595514
 20
-4.638493634499262
 30
0.0
 42
0.4142135623730951
  0
SEQEND
  5
557
  8
0
  0
POLYLINE
  5
88
  8
0
 66
     1
 10
0.0
 20
0.0
 30
0.0
 70
     1
  0
VERTEX
  5
1B6
  8
0
 10
-2.887232681024239
 20
-4.496127824696089
 30
0.0
 42
0.4142135623730951
  0
VERTEX
  5
1B7
  8
0
 10
-3.01923268102318
 20
-4.628127824695031
 30
0.0
 42
0.4142135623730951
  0
VERTEX
  5
1B8
  8
0
 10
-2.887232681024239
 20
-4.760127824693975
 30
0.0
 42
0.4142135623730951
  0
VERTEX
  5
1B9
  8
0
 10
-2.755232681025296
 20
-4.628127824695031
 30
0.0
 42
0.4142135623730951
  0
SEQEND
  5
558
  8
0
  0
POLYLINE
  5
89
  8
0
 66
     1
 10
0.0
 20
0.0
 30
0.0
 70
     1
  0
VERTEX
  5
1BA
  8
0
 10
-1.124209790638455
 20
-4.506493634500315
 30
0.0
 42
0.4142135623730951
  0
VERTEX
  5
1BB
  8
0
 10
-1.256209790637403
 20
-4.638493634499262
 30
0.0
 42
0.4142135623730951
  0
VERTEX
  5
1BC
  8
0
 10
-1.124209790638455
 20
-4.770493634498209
 30
0.0
 42
0.4142135623730951
  0
VERTEX
  5
1BD
  8
0
 10
-0.992209790639512
 20
-4.638493634499262
 30
0.0
 42
0.4142135623730951
  0
SEQEND
  5
559
  8
0
  0
POLYLINE
  5
8A
  8
0
 66
     1
 10
0.0
 20
0.0
 30
0.0
 70
     1
  0
VERTEX
  5
1BE
  8
0
 10
-3.469209790619695
 20
1.426506365452214
 30
0.0
 42
0.4142135623730951
  0
VERTEX
  5
1BF
  8
0
 10
-3.567209790618911
 20
1.328506365453002
 30
0.0
 42
0.4142135623730951
  0
VERTEX
  5
1C0
  8
0
 10
-3.469209790619695
 20
1.230506365453786
 30
0.0
 42
0.4142135623730951
  0
VERTEX
  5
1C1
  8
0
 10
-3.37120979062048
 20
1.328506365453002
 30
0.0
 42
0.4142135623730951
  0
SEQEND
  5
55A
  8
0
  0
POLYLINE
  5
8B
  8
0
 66
     1
 10
0.0
 20
0.0
 30
0.0
 70
     1
  0
VERTEX
  5
1C2
  8
0
 10
-3.469209790619695
 20
-0.5734936345317845
 30
0.0
 42
0.4142135623730951
  0
VERTEX
  5
1C3
  8
0
 10
-3.567209790618911
 20
-0.6714936345309983
 30
0.0
 42
0.4142135623730951
  0
VERTEX
  5
1C4
  8
0
 10
-3.469209790619695
 20
-0.7694936345302157
 30
0.0
 42
0.4142135623730951
  0
VERTEX
  5
1C5
  8
0
 10
-3.37120979062048
 20
-0.6714936345309983
 30
0.0
 42
0.4142135623730951
  0
SEQEND
  5
55B
  8
0
  0
POLYLINE
  5
8C
  8
0
 66
     1
 10
0.0
 20
0.0
 30
0.0
 70
     1
  0
VERTEX
  5
1C6
  8
0
 10
-3.469209790619695
 20
-3.573493634507782
 30
0.0
 42
0.4142135623730951
  0
VERTEX
  5
1C7
  8
0
 10
-3.567209790618911
 20
-3.671493634506998
 30
0.0
 42
0.4142135623730951
  0
VERTEX
  5
1C8
  8
0
 10
-3.469209790619695
 20
-3.769493634506214
 30
0.0
 42
0.4142135623730951
  0
VERTEX
  5
1C9
  8
0
 10
-3.37120979062048
 20
-3.671493634506998
 30
0.0
 42
0.4142135623730951
  0
SEQEND
  5
55C
  8
0
  0
POLYLINE
  5
8D
  8
0
 66
     1
 10
0.0
 20
0.0
 30
0.0
 70
     1
  0
VERTEX
  5
1CA
  8
0
 10
-2.198179453684551
 20
3.315246522947737
 30
0.0
  0
VERTEX
  5
1CB
  8
0
 10
-3.86819288345284
 20
3.315246522947737
 30
0.0
 42
-0.6858831481015217
  0
VERTEX
  5
1CC
  8
0
 10
-3.910189739035896
 20
3.424033822728855
 30
0.0
  0
VERTEX
  5
1CD
  8
0
 10
-3.075183024151753
 20
4.181642423388672
 30
0.0
 42
-0.386045573955378
  0
VERTEX
  5
1CE
  8
0
 10
-2.991189312985634
 20
4.181642423388672
 30
0.0
  0
VERTEX
  5
1CF
  8
0
 10
-2.156182598101495
 20
3.424033822728855
 30
0.0
 42
-0.6858831481015198
  0
SEQEND
  5
55D
  8
0
  0
POLYLINE
  5
8E
  8
0
 66
     1
 10
0.0
 20
0.0
 30
0.0
 70
     1
  0
VERTEX
  5
1D0
  8
0
 10
-1.158186168583695
 20
3.907246522943002
 30
0.0
  0
VERTEX
  5
1D1
  8
0
 10
-1.158186168583699
 20
8.782246522904002
 30
0.0
 42
0.9999999999999998
  0
VERTEX
  5
1D2
  8
0
 10
-2.158186168575694
 20
8.782246522904002
 30
0.0
  0
VERTEX
  5
1D3
  8
0
 10
-2.158186168575694
 20
6.5072465229222
 30
0.0
 42
-0.4142135623730951
  0
VERTEX
  5
1D4
  8
0
 10
-2.533186168572696
 20
6.132246522925202
 30
0.0
 42
0.1961510520176442
  0
VERTEX
  5
1D5
  8
0
 10
-2.845686168570195
 20
6.00474652292622
 30
0.0
 42
-0.1961510520176442
  0
VERTEX
  5
1D6
  8
0
 10
-3.158186168567696
 20
5.877246522927239
 30
0.0
 42
0.2683759892124261
  0
VERTEX
  5
1D7
  8
0
 10
-3.754889978116069
 20
5.53210556320259
 30
0.0
  0
VERTEX
  5
1D8
  8
0
 10
-5.138243906194239
 20
3.12722905475052
 30
0.0
 42
0.5768195054227268
  0
VERTEX
  5
1D9
  8
0
 10
-4.813186168554459
 20
2.565246522953739
 30
0.0
  0
VERTEX
  5
1DA
  8
0
 10
0.6868138314015457
 20
2.565246522953737
 30
0.0
 42
0.9031740110501919
  0
VERTEX
  5
1DB
  8
0
 10
0.7625378756722814
 20
3.307521446022042
 30
0.0
  0
VERTEX
  5
1DC
  8
0
 10
-0.958668864766187
 20
3.662396574228795
 30
0.0
 42
-0.3558387196350834
  0
SEQEND
  5
55E
  8
0
  0
POLYLINE
  5
8F
  8
0
 66
     1
 10
0.0
 20
0.0
 30
0.0
 70
     1
  0
VERTEX
  5
1DD
  8
0
 10
-3.033186168568696
 20
5.719746522928501
 30
0.0
 42
0.4142135623730951
  0
VERTEX
  5
1DE
  8
0
 10
-3.595686168564194
 20
5.157246522932999
 30
0.0
 42
0.4142135623730951
  0
VERTEX
  5
1DF
  8
0
 10
-3.033186168568696
 20
4.594746522937504
 30
0.0
 42
0.4142135623730951
  0
VERTEX
  5
1E0
  8
0
 10
-2.470686168573197
 20
5.157246522932999
 30
0.0
 42
0.4142135623730951
  0
SEQEND
  5
55F
  8
0
  0
POLYLINE
  5
90
  8
0
 66
     1
 10
0.0
 20
0.0
 30
0.0
 70
     1
  0
VERTEX
  5
1E1
  8
0
 10
-2.839288669674815
 20
3.07224652294968
 30
0.0
 42
0.4142135623730951
  0
VERTEX
  5
1E2
  8
0
 10
-2.971288669673759
 20
2.940246522950737
 30
0.0
 42
0.4142135623730951
  0
VERTEX
  5
1E3
  8
0
 10
-2.839288669674815
 20
2.808246522951794
 30
0.0
 42
0.4142135623730951
  0
VERTEX
  5
1E4
  8
0
 10
-2.70728866967587
 20
2.940246522950737
 30
0.0
 42
0.4142135623730951
  0
SEQEND
  5
560
  8
0
  0
POLYLINE
  5
91
  8
0
 66
     1
 10
0.0
 20
0.0
 30
0.0
 70
     1
  0
VERTEX
  5
1E5
  8
0
 10
-4.813186168554459
 20
3.07224652294968
 30
0.0
 42
0.4142135623730951
  0
VERTEX
  5
1E6
  8
0
 10
-4.945186168553403
 20
2.940246522950737
 30
0.0
 42
0.4142135623730951
  0
VERTEX
  5
1E7
  8
0
 10
-4.813186168554459
 20
2.808246522951794
 30
0.0
 42
0.4142135623730951
  0
VERTEX
  5
1E8
  8
0
 10
-4.681186168555515
 20
2.940246522950737
 30
0.0
 42
0.4142135623730951
  0
SEQEND
  5
561
  8
0
  0
POLYLINE
  5
92
  8
0
 66
     1
 10
0.0
 20
0.0
 30
0.0
 70
     1
  0
VERTEX
  5
1E9
  8
0
 10
-1.076209058984238
 20
3.082612332753911
 30
0.0
 42
0.4142135623730951
  0
VERTEX
  5
1EA
  8
0
 10
-1.208209058983181
 20
2.950612332754968
 30
0.0
 42
0.4142135623730951
  0
VERTEX
  5
1EB
  8
0
 10
-1.076209058984238
 20
2.818612332756024
 30
0.0
 42
0.4142135623730951
  0
VERTEX
  5
1EC
  8
0
 10
-0.9442090589852956
 20
2.950612332754968
 30
0.0
 42
0.4142135623730951
  0
SEQEND
  5
562
  8
0
  0
POLYLINE
  5
93
  8
0
 66
     1
 10
0.0
 20
0.0
 30
0.0
 70
     1
  0
VERTEX
  5
1ED
  8
0
 10
0.6868138314015457
 20
3.072246522949685
 30
0.0
 42
0.4142135623730951
  0
VERTEX
  5
1EE
  8
0
 10
0.5548138314025959
 20
2.940246522950737
 30
0.0
 42
0.4142135623730951
  0
VERTEX
  5
1EF
  8
0
 10
0.6868138314015457
 20
2.808246522951791
 30
0.0
 42
0.4142135623730951
  0
VERTEX
  5
1F0
  8
0
 10
0.8188138314004885
 20
2.940246522950737
 30
0.0
 42
0.4142135623730951
  0
SEQEND
  5
563
  8
0
  0
POLYLINE
  5
94
  8
0
 66
     1
 10
0.0
 20
0.0
 30
0.0
 70
     1
  0
VERTEX
  5
1F1
  8
0
 10
-1.658186168579695
 20
9.005246522902214
 30
0.0
 42
0.4142135623730951
  0
VERTEX
  5
1F2
  8
0
 10
-1.756186168578912
 20
8.907246522903
 30
0.0
 42
0.4142135623730951
  0
VERTEX
  5
1F3
  8
0
 10
-1.658186168579695
 20
8.809246522903786
 30
0.0
 42
0.4142135623730951
  0
VERTEX
  5
1F4
  8
0
 10
-1.560186168580479
 20
8.907246522903
 30
0.0
 42
0.4142135623730951
  0
SEQEND
  5
564
  8
0
  0
POLYLINE
  5
95
  8
0
 66
     1
 10
0.0
 20
0.0
 30
0.0
 70
     1
  0
VERTEX
  5
1F5
  8
0
 10
-1.658186168579695
 20
7.005246522918215
 30
0.0
 42
0.4142135623730951
  0
VERTEX
  5
1F6
  8
0
 10
-1.756186168578912
 20
6.907246522919001
 30
0.0
 42
0.4142135623730951
  0
VERTEX
  5
1F7
  8
0
 10
-1.658186168579695
 20
6.809246522919784
 30
0.0
 42
0.4142135623730951
  0
VERTEX
  5
1F8
  8
0
 10
-1.560186168580479
 20
6.907246522919001
 30
0.0
 42
0.4142135623730951
  0
SEQEND
  5
565
  8
0
  0
POLYLINE
  5
96
  8
0
 66
     1
 10
0.0
 20
0.0
 30
0.0
 70
     1
  0
VERTEX
  5
1F9
  8
0
 10
-1.658186168579695
 20
4.005246522942217
 30
0.0
 42
0.4142135623730951
  0
VERTEX
  5
1FA
  8
0
 10
-1.756186168578912
 20
3.907246522943002
 30
0.0
 42
0.4142135623730951
  0
VERTEX
  5
1FB
  8
0
 10
-1.658186168579695
 20
3.809246522943786
 30
0.0
 42
0.4142135623730951
  0
VERTEX
  5
1FC
  8
0
 10
-1.560186168580479
 20
3.907246522943002
 30
0.0
 42
0.4142135623730951
  0
SEQEND
  5
566
  8
0
  0
POLYLINE
  5
97
  8
0
 66
     1
 10
0.0
 20
0.0
 30
0.0
 70
     1
  0
VERTEX
  5
1FD
  8
0
 10
-8.933471716257078
 20
-10.80686253773593
 30
0.0
  0
VERTEX
  5
1FE
  8
0
 10
-9.334996619447494
 20
-10.53843487720485
 30
0.0
 42
-0.6797639942567371
  0
VERTEX
  5
1FF
  8
0
 10
-9.310480520160095
 20
-10.4248173715193
 30
0.0
  0
VERTEX
  5
200
  8
0
 10
-8.507430713779259
 20
-10.29172012885997
 30
0.0
 42
-0.7292836521262167
  0
VERTEX
  5
201
  8
0
 10
-8.453017217744126
 20
-10.39757316622729
 30
0.0
  0
VERTEX
  5
202
  8
0
 10
-8.854542120934543
 20
-10.79909806941771
 30
0.0
 42
-0.3578723778283741
  0
SEQEND
  5
567
  8
0
  0
POLYLINE
  5
98
  8
0
 66
     1
 10
0.0
 20
0.0
 30
0.0
 70
     1
  0
VERTEX
  5
203
  8
0
 10
-9.938345330547515
 20
-9.959423202164135
 30
0.0
  0
VERTEX
  5
204
  8
0
 10
-10.35017146937531
 20
-7.63789001248886
 30
0.0
 42
-0.7336281531042973
  0
VERTEX
  5
205
  8
0
 10
-10.2444380734258
 20
-7.582779147769912
 30
0.0
  0
VERTEX
  5
206
  8
0
 10
-8.194418577048488
 20
-9.63279864414722
 30
0.0
 42
-0.610338889874716
  0
VERTEX
  5
207
  8
0
 10
-8.228393428660967
 20
-9.738651681514545
 30
0.0
  0
VERTEX
  5
208
  8
0
 10
-9.866586786210476
 20
-10.01016537481252
 30
0.0
 42
-0.4109015993646695
  0
SEQEND
  5
568
  8
0
  0
POLYLINE
  5
99
  8
0
 66
     1
 10
0.0
 20
0.0
 30
0.0
 70
     1
  0
VERTEX
  5
209
  8
0
 10
-8.634648835304134
 20
-11.38177098042761
 30
0.0
  0
VERTEX
  5
20A
  8
0
 10
-7.363270842724846
 20
-10.11039298784832
 30
0.0
 42
0.4142135623730951
  0
VERTEX
  5
20B
  8
0
 10
-7.363270842740894
 20
-9.661380181814504
 30
0.0
  0
VERTEX
  5
20C
  8
0
 10
-10.5452513580549
 20
-6.479399666500496
 30
0.0
 42
0.7336281531219943
  0
VERTEX
  5
20D
  8
0
 10
-11.08237700947589
 20
-6.759362859287134
 30
0.0
  0
VERTEX
  5
20E
  8
0
 10
-10.69960886517804
 20
-8.91709124793957
 30
0.0
 42
-0.3485338084277532
  0
VERTEX
  5
20F
  8
0
 10
-10.88715873627877
 20
-9.26437658471529
 30
0.0
  0
VERTEX
  5
210
  8
0
 10
-11.39532995827346
 20
-9.482164251284434
 30
0.0
 42
0.9999999999999998
  0
VERTEX
  5
211
  8
0
 10
-11.09595129135569
 20
-10.18071447409258
 30
0.0
  0
VERTEX
  5
212
  8
0
 10
-10.95087518279458
 20
-10.11853899899496
 30
0.0
 42
-0.3609221439183208
  0
VERTEX
  5
213
  8
0
 10
-10.56201771593055
 20
-10.23366979900481
 30
0.0
  0
VERTEX
  5
214
  8
0
 10
-10.39432132045845
 20
-10.48401997344179
 30
0.0
 42
0.0981407699245132
  0
VERTEX
  5
215
  8
0
 10
-10.30698917210585
 20
-10.57127212850474
 30
0.0
  0
VERTEX
  5
216
  8
0
 10
-9.03561117954261
 20
-11.42121447948417
 30
0.0
 42
0.357872377828375
  0
SEQEND
  5
569
  8
0
  0
POLYLINE
  5
9A
  8
0
 66
     1
 10
0.0
 20
0.0
 30
0.0
 70
     1
  0
VERTEX
  5
217
  8
0
 10
-11.17492994669648
 20
-9.902150040806593
 30
0.0
 42
0.4142135623730951
  0
VERTEX
  5
218
  8
0
 10
-11.17492994669648
 20
-9.760728684570413
 30
0.0
 42
0.4142135623730951
  0
VERTEX
  5
219
  8
0
 10
-11.31635130293266
 20
-9.760728684570413
 30
0.0
 42
0.4142135623730951
  0
VERTEX
  5
21A
  8
0
 10
-11.31635130293266
 20
-9.902150040806593
 30
0.0
 42
0.4142135623730951
  0
SEQEND
  5
56A
  8
0
  0
POLYLINE
  5
9B
  8
0
 66
     1
 10
0.0
 20
0.0
 30
0.0
 70
     1
  0
VERTEX
  5
21B
  8
0
 10
-10.53499830972777
 20
-9.658198201299195
 30
0.0
 42
0.4142135623730951
  0
VERTEX
  5
21C
  8
0
 10
-10.53499830972777
 20
-9.474350438192161
 30
0.0
 42
0.4142135623730951
  0
VERTEX
  5
21D
  8
0
 10
-10.7188460728348
 20
-9.474350438192163
 30
0.0
 42
0.4142135623730951
  0
VERTEX
  5
21E
  8
0
 10
-10.7188460728348
 20
-9.658198201299193
 30
0.0
 42
0.4142135623730951
  0
SEQEND
  5
56B
  8
0
  0
POLYLINE
  5
9C
  8
0
 66
     1
 10
0.0
 20
0.0
 30
0.0
 70
     1
  0
VERTEX
  5
21F
  8
0
 10
-8.767231356775548
 20
-11.24918845895619
 30
0.0
 42
0.4142135623730951
  0
VERTEX
  5
220
  8
0
 10
-8.76723135677555
 20
-11.06534069584916
 30
0.0
 42
0.4142135623730951
  0
VERTEX
  5
221
  8
0
 10
-8.95107911988258
 20
-11.06534069584916
 30
0.0
 42
0.4142135623730951
  0
VERTEX
  5
222
  8
0
 10
-8.951079119882582
 20
-11.24918845895619
 30
0.0
 42
0.4142135623730951
  0
SEQEND
  5
56C
  8
0
  0
POLYLINE
  5
9D
  8
0
 66
     1
 10
0.0
 20
0.0
 30
0.0
 70
     1
  0
VERTEX
  5
223
  8
0
 10
-10.67783387952632
 20
-6.795829951078945
 30
0.0
 42
0.4142135623730951
  0
VERTEX
  5
224
  8
0
 10
-10.67783387952632
 20
-6.611982187971914
 30
0.0
 42
0.4142135623730951
  0
VERTEX
  5
225
  8
0
 10
-10.86168164263335
 20
-6.611982187971913
 30
0.0
 42
0.4142135623730951
  0
VERTEX
  5
226
  8
0
 10
-10.86168164263335
 20
-6.795829951078945
 30
0.0
 42
0.4142135623730951
  0
SEQEND
  5
56D
  8
0
  0
POLYLINE
  5
9E
  8
0
 66
     1
 10
0.0
 20
0.0
 30
0.0
 70
     1
  0
VERTEX
  5
227
  8
0
 10
-7.495853364212309
 20
-9.977810466392956
 30
0.0
 42
0.4142135623730951
  0
VERTEX
  5
228
  8
0
 10
-7.495853364212312
 20
-9.793962703285922
 30
0.0
 42
0.4142135623730951
  0
VERTEX
  5
229
  8
0
 10
-7.679701127319341
 20
-9.793962703285924
 30
0.0
 42
0.4142135623730951
  0
VERTEX
  5
22A
  8
0
 10
-7.679701127319342
 20
-9.977810466392953
 30
0.0
 42
0.4142135623730951
  0
SEQEND
  5
56E
  8
0
  0
POLYLINE
  5
9F
  8
0
 66
     1
 10
0.0
 20
0.0
 30
0.0
 70
     1
  0
VERTEX
  5
22B
  8
0
 10
-10.03860934933879
 20
-10.39924610797676
 30
0.0
 42
0.4142135623730951
  0
VERTEX
  5
22C
  8
0
 10
-10.03860934933879
 20
-10.21539834486973
 30
0.0
 42
0.4142135623730951
  0
VERTEX
  5
22D
  8
0
 10
-10.22245711244582
 20
-10.21539834486973
 30
0.0
 42
0.4142135623730951
  0
VERTEX
  5
22E
  8
0
 10
-10.22245711244582
 20
-10.39924610797677
 30
0.0
 42
0.4142135623730951
  0
SEQEND
  5
56F
  8
0
  0
POLYLINE
  5
A0
  8
0
 66
     1
 10
0.0
 20
0.0
 30
0.0
 70
     1
  0
VERTEX
  5
22F
  8
0
 10
-4.115938613177255
 20
-9.547246531045918
 30
0.0
  0
VERTEX
  5
230
  8
0
 10
-4.589666614058039
 20
-9.641360493887566
 30
0.0
 42
-0.6797639942567371
  0
VERTEX
  5
231
  8
0
 10
-4.652670822735427
 20
-9.543685285101452
 30
0.0
  0
VERTEX
  5
232
  8
0
 10
-4.178942821854642
 20
-8.881729358537372
 30
0.0
 42
-0.7292836521262167
  0
VERTEX
  5
233
  8
0
 10
-4.065617269288502
 20
-8.918102607034491
 30
0.0
  0
VERTEX
  5
234
  8
0
 10
-4.065617269288502
 20
-9.485944570756923
 30
0.0
 42
-0.3578723778283741
  0
SEQEND
  5
570
  8
0
  0
POLYLINE
  5
A1
  8
0
 66
     1
 10
0.0
 20
0.0
 30
0.0
 70
     1
  0
VERTEX
  5
235
  8
0
 10
-5.425721660904496
 20
-9.658569377119083
 30
0.0
  0
VERTEX
  5
236
  8
0
 10
-7.358498577508526
 20
-8.308202571385067
 30
0.0
 42
-0.7336281531042973
  0
VERTEX
  5
237
  8
0
 10
-7.322703042394565
 20
-8.194468503951462
 30
0.0
  0
VERTEX
  5
238
  8
0
 10
-4.423537667488515
 20
-8.194468503951462
 30
0.0
 42
-0.610338889874716
  0
VERTEX
  5
239
  8
0
 10
-4.372712114921876
 20
-8.29334175244808
 30
0.0
  0
VERTEX
  5
23A
  8
0
 10
-5.33910057322389
 20
-9.643708558182098
 30
0.0
 42
-0.4109015993646695
  0
SEQEND
  5
571
  8
0
  0
POLYLINE
  5
A2
  8
0
 66
     1
 10
0.0
 20
0.0
 30
0.0
 70
     1
  0
VERTEX
  5
23B
  8
0
 10
-3.498117269293044
 20
-9.742468503939076
 30
0.0
  0
VERTEX
  5
23C
  8
0
 10
-3.498117269293044
 20
-7.944468503930766
 30
0.0
 42
0.4142135623730951
  0
VERTEX
  5
23D
  8
0
 10
-3.815617269290504
 20
-7.626968503956003
 30
0.0
  0
VERTEX
  5
23E
  8
0
 10
-8.315617269254503
 20
-7.626968503956001
 30
0.0
 42
0.7336281531219943
  0
VERTEX
  5
23F
  8
0
 10
-8.497458587621455
 20
-8.20473756652709
 30
0.0
  0
VERTEX
  5
240
  8
0
 10
-6.7010562615914
 20
-9.459823991646754
 30
0.0
 42
-0.3485338084277532
  0
VERTEX
  5
241
  8
0
 10
-6.588106230616618
 20
-9.838009593953505
 30
0.0
  0
VERTEX
  5
242
  8
0
 10
-6.793438411803081
 20
-10.35134004691964
 30
0.0
 42
0.9999999999999998
  0
VERTEX
  5
243
  8
0
 10
-6.087796126735929
 20
-10.63359696094651
 30
0.0
  0
VERTEX
  5
244
  8
0
 10
-6.029176526649236
 20
-10.48704796072977
 30
0.0
 42
-0.3609221439183208
  0
VERTEX
  5
245
  8
0
 10
-5.672803005504256
 20
-10.29349397840559
 30
0.0
  0
VERTEX
  5
246
  8
0
 10
-5.377199441069771
 20
-10.35193902600236
 30
0.0
 42
0.0981407699245132
  0
VERTEX
  5
247
  8
0
 10
-5.253749696235909
 20
-10.35188246220479
 30
0.0
  0
VERTEX
  5
248
  8
0
 10
-3.753749696247905
 20
-10.05388246220718
 30
0.0
 42
0.357872377828375
  0
SEQEND
  5
572
  8
0
  0
POLYLINE
  5
A3
  8
0
 66
     1
 10
0.0
 20
0.0
 30
0.0
 70
     1
  0
VERTEX
  5
249
  8
0
 10
-6.340617269270306
 20
-10.49246850393307
 30
0.0
 42
0.4142135623730951
  0
VERTEX
  5
24A
  8
0
 10
-6.440617269269507
 20
-10.39246850393387
 30
0.0
 42
0.4142135623730951
  0
VERTEX
  5
24B
  8
0
 10
-6.540617269268706
 20
-10.49246850393307
 30
0.0
 42
0.4142135623730951
  0
VERTEX
  5
24C
  8
0
 10
-6.440617269269507
 20
-10.59246850393227
 30
0.0
 42
0.4142135623730951
  0
SEQEND
  5
573
  8
0
  0
POLYLINE
  5
A4
  8
0
 66
     1
 10
0.0
 20
0.0
 30
0.0
 70
     1
  0
VERTEX
  5
24D
  8
0
 10
-6.060617269272534
 20
-9.867468503938074
 30
0.0
 42
0.4142135623730951
  0
VERTEX
  5
24E
  8
0
 10
-6.190617269271497
 20
-9.737468503939116
 30
0.0
 42
0.4142135623730951
  0
VERTEX
  5
24F
  8
0
 10
-6.320617269270454
 20
-9.867468503938074
 30
0.0
 42
0.4142135623730951
  0
VERTEX
  5
250
  8
0
 10
-6.190617269271497
 20
-9.997468503937036
 30
0.0
 42
0.4142135623730951
  0
SEQEND
  5
574
  8
0
  0
POLYLINE
  5
A5
  8
0
 66
     1
 10
0.0
 20
0.0
 30
0.0
 70
     1
  0
VERTEX
  5
251
  8
0
 10
-3.685617269291541
 20
-9.742468503939076
 30
0.0
 42
0.4142135623730951
  0
VERTEX
  5
252
  8
0
 10
-3.815617269290504
 20
-9.612468503940114
 30
0.0
 42
0.4142135623730951
  0
VERTEX
  5
253
  8
0
 10
-3.94561726928946
 20
-9.742468503939076
 30
0.0
 42
0.4142135623730951
  0
VERTEX
  5
254
  8
0
 10
-3.815617269290504
 20
-9.872468503938036
 30
0.0
 42
0.4142135623730951
  0
SEQEND
  5
575
  8
0
  0
POLYLINE
  5
A6
  8
0
 66
     1
 10
0.0
 20
0.0
 30
0.0
 70
     1
  0
VERTEX
  5
255
  8
0
 10
-8.185617269255541
 20
-7.944468503953462
 30
0.0
 42
0.4142135623730951
  0
VERTEX
  5
256
  8
0
 10
-8.315617269254503
 20
-7.814468503954503
 30
0.0
 42
0.4142135623730951
  0
VERTEX
  5
257
  8
0
 10
-8.445617269253464
 20
-7.944468503953462
 30
0.0
 42
0.4142135623730951
  0
VERTEX
  5
258
  8
0
 10
-8.315617269254503
 20
-8.074468503952422
 30
0.0
 42
0.4142135623730951
  0
SEQEND
  5
576
  8
0
  0
POLYLINE
  5
A7
  8
0
 66
     1
 10
0.0
 20
0.0
 30
0.0
 70
     1
  0
VERTEX
  5
259
  8
0
 10
-3.685617269291541
 20
-7.944468503953462
 30
0.0
 42
0.4142135623730951
  0
VERTEX
  5
25A
  8
0
 10
-3.815617269290504
 20
-7.814468503954503
 30
0.0
 42
0.4142135623730951
  0
VERTEX
  5
25B
  8
0
 10
-3.94561726928946
 20
-7.944468503953462
 30
0.0
 42
0.4142135623730951
  0
VERTEX
  5
25C
  8
0
 10
-3.815617269290504
 20
-8.07446850395242
 30
0.0
 42
0.4142135623730951
  0
SEQEND
  5
577
  8
0
  0
POLYLINE
  5
A8
  8
0
 66
     1
 10
0.0
 20
0.0
 30
0.0
 70
     1
  0
VERTEX
  5
25D
  8
0
 10
-5.185617269279544
 20
-10.04046850393669
 30
0.0
 42
0.4142135623730951
  0
VERTEX
  5
25E
  8
0
 10
-5.315617269278501
 20
-9.910468503937732
 30
0.0
 42
0.4142135623730951
  0
VERTEX
  5
25F
  8
0
 10
-5.445617269277465
 20
-10.04046850393669
 30
0.0
 42
0.4142135623730951
  0
VERTEX
  5
260
  8
0
 10
-5.315617269278501
 20
-10.17046850393565
 30
0.0
 42
0.4142135623730951
  0
SEQEND
  5
578
  8
0
  0
POLYLINE
  5
A9
  8
0
 66
     1
 10
0.0
 20
0.0
 30
0.0
 70
     1
  0
VERTEX
  5
261
  8
0
 10
-0.8464542563140824
 20
1.75521015211979
 30
0.0
  0
VERTEX
  5
262
  8
0
 10
-0.7523402934724341
 20
1.281482151239006
 30
0.0
 42
-0.6797639942567371
  0
VERTEX
  5
263
  8
0
 10
-0.8500155022585485
 20
1.218477942561618
 30
0.0
  0
VERTEX
  5
264
  8
0
 10
-1.51197142882263
 20
1.692205943442403
 30
0.0
 42
-0.7292836521262167
  0
VERTEX
  5
265
  8
0
 10
-1.475598180325511
 20
1.805531496008543
 30
0.0
  0
VERTEX
  5
266
  8
0
 10
-0.9077562166030777
 20
1.805531496008543
 30
0.0
 42
-0.3578723778283741
  0
SEQEND
  5
579
  8
0
  0
POLYLINE
  5
AA
  8
0
 66
     1
 10
0.0
 20
0.0
 30
0.0
 70
     1
  0
VERTEX
  5
267
  8
0
 10
-0.7351314102409177
 20
0.4454271043925484
 30
0.0
  0
VERTEX
  5
268
  8
0
 10
-2.085498215974933
 20
-1.487349812211482
 30
0.0
 42
-0.7336281531042973
  0
VERTEX
  5
269
  8
0
 10
-2.19923228340854
 20
-1.45155427709752
 30
0.0
  0
VERTEX
  5
26A
  8
0
 10
-2.19923228340854
 20
1.447611097808531
 30
0.0
 42
-0.610338889874716
  0
VERTEX
  5
26B
  8
0
 10
-2.100359034911921
 20
1.49843665037517
 30
0.0
  0
VERTEX
  5
26C
  8
0
 10
-0.749992229177904
 20
0.5320481920731552
 30
0.0
 42
-0.4109015993646695
  0
SEQEND
  5
57A
  8
0
  0
POLYLINE
  5
AB
  8
0
 66
     1
 10
0.0
 20
0.0
 30
0.0
 70
     1
  0
VERTEX
  5
26D
  8
0
 10
-0.6512322834209261
 20
2.373031496004002
 30
0.0
  0
VERTEX
  5
26E
  8
0
 10
-2.449232283429234
 20
2.373031496004002
 30
0.0
 42
0.4142135623730951
  0
VERTEX
  5
26F
  8
0
 10
-2.766732283403998
 20
2.055531496006541
 30
0.0
  0
VERTEX
  5
270
  8
0
 10
-2.766732283404
 20
-2.444468503957458
 30
0.0
 42
0.7336281531219943
  0
VERTEX
  5
271
  8
0
 10
-2.18896322083291
 20
-2.62630982232441
 30
0.0
  0
VERTEX
  5
272
  8
0
 10
-0.9338767957132479
 20
-0.8299074962943553
 30
0.0
 42
-0.3485338084277532
  0
VERTEX
  5
273
  8
0
 10
-0.5556911934064974
 20
-0.716957465319572
 30
0.0
  0
VERTEX
  5
274
  8
0
 10
-0.0423607404403619
 20
-0.9222896465060355
 30
0.0
 42
0.9999999999999998
  0
VERTEX
  5
275
  8
0
 10
0.2398961735865068
 20
-0.2166473614388842
 30
0.0
  0
VERTEX
  5
276
  8
0
 10
0.0933471733697679
 20
-0.1580277613521908
 30
0.0
 42
-0.3609221439183208
  0
VERTEX
  5
277
  8
0
 10
-0.1002068089544075
 20
0.1983457597927885
 30
0.0
  0
VERTEX
  5
278
  8
0
 10
-0.0417617613576446
 20
0.493949324227275
 30
0.0
 42
0.0981407699245132
  0
VERTEX
  5
279
  8
0
 10
-0.0418183251552087
 20
0.6173990690611362
 30
0.0
  0
VERTEX
  5
27A
  8
0
 10
-0.3398183251528248
 20
2.11739906904914
 30
0.0
 42
0.357872377828375
  0
SEQEND
  5
57B
  8
0
  0
POLYLINE
  5
AC
  8
0
 66
     1
 10
0.0
 20
0.0
 30
0.0
 70
     1
  0
VERTEX
  5
27B
  8
0
 10
0.0987677165730716
 20
-0.4694685039732622
 30
0.0
 42
0.4142135623730951
  0
VERTEX
  5
27C
  8
0
 10
-0.0012322834261287
 20
-0.5694685039724607
 30
0.0
 42
0.4142135623730951
  0
VERTEX
  5
27D
  8
0
 10
0.0987677165730716
 20
-0.669468503971661
 30
0.0
 42
0.4142135623730951
  0
VERTEX
  5
27E
  8
0
 10
0.1987677165722719
 20
-0.5694685039724607
 30
0.0
 42
0.4142135623730951
  0
SEQEND
  5
57C
  8
0
  0
POLYLINE
  5
AD
  8
0
 66
     1
 10
0.0
 20
0.0
 30
0.0
 70
     1
  0
VERTEX
  5
27F
  8
0
 10
-0.5262322834219262
 20
-0.1894685039754886
 30
0.0
 42
0.4142135623730951
  0
VERTEX
  5
280
  8
0
 10
-0.656232283420886
 20
-0.319468503974452
 30
0.0
 42
0.4142135623730951
  0
VERTEX
  5
281
  8
0
 10
-0.5262322834219262
 20
-0.4494685039734083
 30
0.0
 42
0.4142135623730951
  0
VERTEX
  5
282
  8
0
 10
-0.3962322834229663
 20
-0.319468503974452
 30
0.0
 42
0.4142135623730951
  0
SEQEND
  5
57D
  8
0
  0
POLYLINE
  5
AE
  8
0
 66
     1
 10
0.0
 20
0.0
 30
0.0
 70
     1
  0
VERTEX
  5
283
  8
0
 10
-0.6512322834209261
 20
2.185531496005504
 30
0.0
 42
0.4142135623730951
  0
VERTEX
  5
284
  8
0
 10
-0.7812322834198859
 20
2.055531496006541
 30
0.0
 42
0.4142135623730951
  0
VERTEX
  5
285
  8
0
 10
-0.6512322834209261
 20
1.925531496007585
 30
0.0
 42
0.4142135623730951
  0
VERTEX
  5
286
  8
0
 10
-0.5212322834219663
 20
2.055531496006541
 30
0.0
 42
0.4142135623730951
  0
SEQEND
  5
57E
  8
0
  0
POLYLINE
  5
AF
  8
0
 66
     1
 10
0.0
 20
0.0
 30
0.0
 70
     1
  0
VERTEX
  5
287
  8
0
 10
-2.449232283406539
 20
-2.314468503958498
 30
0.0
 42
0.4142135623730951
  0
VERTEX
  5
288
  8
0
 10
-2.579232283405497
 20
-2.444468503957458
 30
0.0
 42
0.4142135623730951
  0
VERTEX
  5
289
  8
0
 10
-2.449232283406539
 20
-2.574468503956419
 30
0.0
 42
0.4142135623730951
  0
VERTEX
  5
28A
  8
0
 10
-2.31923228340758
 20
-2.444468503957458
 30
0.0
 42
0.4142135623730951
  0
SEQEND
  5
57F
  8
0
  0
POLYLINE
  5
B0
  8
0
 66
     1
 10
0.0
 20
0.0
 30
0.0
 70
     1
  0
VERTEX
  5
28B
  8
0
 10
-2.449232283406539
 20
2.185531496005504
 30
0.0
 42
0.4142135623730951
  0
VERTEX
  5
28C
  8
0
 10
-2.579232283405497
 20
2.055531496006541
 30
0.0
 42
0.4142135623730951
  0
VERTEX
  5
28D
  8
0
 10
-2.449232283406539
 20
1.925531496007585
 30
0.0
 42
0.4142135623730951
  0
VERTEX
  5
28E
  8
0
 10
-2.31923228340758
 20
2.055531496006541
 30
0.0
 42
0.4142135623730951
  0
SEQEND
  5
580
  8
0
  0
POLYLINE
  5
B1
  8
0
 66
     1
 10
0.0
 20
0.0
 30
0.0
 70
     1
  0
VERTEX
  5
28F
  8
0
 10
-0.3532322834233117
 20
0.6855314960175019
 30
0.0
 42
0.4142135623730951
  0
VERTEX
  5
290
  8
0
 10
-0.4832322834222698
 20
0.5555314960185438
 30
0.0
 42
0.4142135623730951
  0
VERTEX
  5
291
  8
0
 10
-0.3532322834233117
 20
0.4255314960195804
 30
0.0
 42
0.4142135623730951
  0
VERTEX
  5
292
  8
0
 10
-0.2232322834243501
 20
0.5555314960185438
 30
0.0
 42
0.4142135623730951
  0
SEQEND
  5
581
  8
0
  0
POLYLINE
  5
B2
  8
0
 66
     1
 10
0.0
 20
0.0
 30
0.0
 70
     1
  0
VERTEX
  5
293
  8
0
 10
-2.68040700250979
 20
-7.946836939362008
 30
0.0
  0
VERTEX
  5
294
  8
0
 10
-2.206679001629004
 20
-7.85272297652036
 30
0.0
 42
-0.6797639942567371
  0
VERTEX
  5
295
  8
0
 10
-2.143674792951616
 20
-7.950398185306474
 30
0.0
  0
VERTEX
  5
296
  8
0
 10
-2.617402793832403
 20
-8.612354111870554
 30
0.0
 42
-0.7292836521262167
  0
VERTEX
  5
297
  8
0
 10
-2.730728346398541
 20
-8.575980863373434
 30
0.0
  0
VERTEX
  5
298
  8
0
 10
-2.730728346398541
 20
-8.008138899651003
 30
0.0
 42
-0.3578723778283741
  0
SEQEND
  5
582
  8
0
  0
POLYLINE
  5
B3
  8
0
 66
     1
 10
0.0
 20
0.0
 30
0.0
 70
     1
  0
VERTEX
  5
299
  8
0
 10
-1.370623954782548
 20
-7.835514093288842
 30
0.0
  0
VERTEX
  5
29A
  8
0
 10
0.5621529618214822
 20
-9.185880899022859
 30
0.0
 42
-0.7336281531042973
  0
VERTEX
  5
29B
  8
0
 10
0.5263574267075217
 20
-9.299614966456465
 30
0.0
  0
VERTEX
  5
29C
  8
0
 10
-2.372807948198529
 20
-9.299614966456463
 30
0.0
 42
-0.610338889874716
  0
VERTEX
  5
29D
  8
0
 10
-2.423633500765169
 20
-9.200741717959845
 30
0.0
  0
VERTEX
  5
29E
  8
0
 10
-1.457245042463155
 20
-7.850374912225828
 30
0.0
 42
-0.4109015993646695
  0
SEQEND
  5
583
  8
0
  0
POLYLINE
  5
B4
  8
0
 66
     1
 10
0.0
 20
0.0
 30
0.0
 70
     1
  0
VERTEX
  5
29F
  8
0
 10
-3.298228346394
 20
-7.751614966468851
 30
0.0
  0
VERTEX
  5
2A0
  8
0
 10
-3.298228346394
 20
-9.549614966477158
 30
0.0
 42
0.4142135623730951
  0
VERTEX
  5
2A1
  8
0
 10
-2.980728346396541
 20
-9.867114966451924
 30
0.0
  0
VERTEX
  5
2A2
  8
0
 10
1.51927165356746
 20
-9.867114966451926
 30
0.0
 42
0.7336281531219943
  0
VERTEX
  5
2A3
  8
0
 10
1.70111297193441
 20
-9.289345903880836
 30
0.0
  0
VERTEX
  5
2A4
  8
0
 10
-0.0952893540956428
 20
-8.034259478761172
 30
0.0
 42
-0.3485338084277532
  0
VERTEX
  5
2A5
  8
0
 10
-0.2082393850704261
 20
-7.656073876454423
 30
0.0
  0
VERTEX
  5
2A6
  8
0
 10
-0.0029072038839626
 20
-7.142743423488287
 30
0.0
 42
0.9999999999999998
  0
VERTEX
  5
2A7
  8
0
 10
-0.7085494889511157
 20
-6.860486509461417
 30
0.0
  0
VERTEX
  5
2A8
  8
0
 10
-0.7671690890378091
 20
-7.007035509678156
 30
0.0
 42
-0.3609221439183208
  0
VERTEX
  5
2A9
  8
0
 10
-1.123542610182788
 20
-7.200589492002331
 30
0.0
  0
VERTEX
  5
2AA
  8
0
 10
-1.419146174617273
 20
-7.14214444440557
 30
0.0
 42
0.0981407699245132
  0
VERTEX
  5
2AB
  8
0
 10
-1.542595919451136
 20
-7.142201008203134
 30
0.0
  0
VERTEX
  5
2AC
  8
0
 10
-3.042595919439139
 20
-7.440201008200749
 30
0.0
 42
0.357872377828375
  0
SEQEND
  5
584
  8
0
  0
POLYLINE
  5
B5
  8
0
 66
     1
 10
0.0
 20
0.0
 30
0.0
 70
     1
  0
VERTEX
  5
2AD
  8
0
 10
-0.4557283464167377
 20
-7.001614966474853
 30
0.0
 42
0.4142135623730951
  0
VERTEX
  5
2AE
  8
0
 10
-0.3557283464175374
 20
-7.101614966474052
 30
0.0
 42
0.4142135623730951
  0
VERTEX
  5
2AF
  8
0
 10
-0.2557283464183389
 20
-7.001614966474853
 30
0.0
 42
0.4142135623730951
  0
VERTEX
  5
2B0
  8
0
 10
-0.3557283464175374
 20
-6.901614966475653
 30
0.0
 42
0.4142135623730951
  0
SEQEND
  5
585
  8
0
  0
POLYLINE
  5
B6
  8
0
 66
     1
 10
0.0
 20
0.0
 30
0.0
 70
     1
  0
VERTEX
  5
2B1
  8
0
 10
-0.7357283464145095
 20
-7.626614966469852
 30
0.0
 42
0.4142135623730951
  0
VERTEX
  5
2B2
  8
0
 10
-0.6057283464155478
 20
-7.75661496646881
 30
0.0
 42
0.4142135623730951
  0
VERTEX
  5
2B3
  8
0
 10
-0.4757283464165898
 20
-7.626614966469852
 30
0.0
 42
0.4142135623730951
  0
VERTEX
  5
2B4
  8
0
 10
-0.6057283464155478
 20
-7.496614966470891
 30
0.0
 42
0.4142135623730951
  0
SEQEND
  5
586
  8
0
  0
POLYLINE
  5
B7
  8
0
 66
     1
 10
0.0
 20
0.0
 30
0.0
 70
     1
  0
VERTEX
  5
2B5
  8
0
 10
-3.110728346395502
 20
-7.751614966468851
 30
0.0
 42
0.4142135623730951
  0
VERTEX
  5
2B6
  8
0
 10
-2.980728346396541
 20
-7.881614966467811
 30
0.0
 42
0.4142135623730951
  0
VERTEX
  5
2B7
  8
0
 10
-2.850728346397583
 20
-7.751614966468851
 30
0.0
 42
0.4142135623730951
  0
VERTEX
  5
2B8
  8
0
 10
-2.980728346396541
 20
-7.62161496646989
 30
0.0
 42
0.4142135623730951
  0
SEQEND
  5
587
  8
0
  0
POLYLINE
  5
B8
  8
0
 66
     1
 10
0.0
 20
0.0
 30
0.0
 70
     1
  0
VERTEX
  5
2B9
  8
0
 10
1.389271653568498
 20
-9.549614966454465
 30
0.0
 42
0.4142135623730951
  0
VERTEX
  5
2BA
  8
0
 10
1.51927165356746
 20
-9.679614966453423
 30
0.0
 42
0.4142135623730951
  0
VERTEX
  5
2BB
  8
0
 10
1.649271653566419
 20
-9.549614966454465
 30
0.0
 42
0.4142135623730951
  0
VERTEX
  5
2BC
  8
0
 10
1.51927165356746
 20
-9.419614966455505
 30
0.0
 42
0.4142135623730951
  0
SEQEND
  5
588
  8
0
  0
POLYLINE
  5
B9
  8
0
 66
     1
 10
0.0
 20
0.0
 30
0.0
 70
     1
  0
VERTEX
  5
2BD
  8
0
 10
-3.110728346395502
 20
-9.549614966454465
 30
0.0
 42
0.4142135623730951
  0
VERTEX
  5
2BE
  8
0
 10
-2.980728346396541
 20
-9.679614966453423
 30
0.0
 42
0.4142135623730951
  0
VERTEX
  5
2BF
  8
0
 10
-2.850728346397583
 20
-9.549614966454465
 30
0.0
 42
0.4142135623730951
  0
VERTEX
  5
2C0
  8
0
 10
-2.980728346396541
 20
-9.419614966455505
 30
0.0
 42
0.4142135623730951
  0
SEQEND
  5
589
  8
0
  0
POLYLINE
  5
BA
  8
0
 66
     1
 10
0.0
 20
0.0
 30
0.0
 70
     1
  0
VERTEX
  5
2C1
  8
0
 10
-1.6107283464075
 20
-7.453614966471236
 30
0.0
 42
0.4142135623730951
  0
VERTEX
  5
2C2
  8
0
 10
-1.480728346408542
 20
-7.583614966470194
 30
0.0
 42
0.4142135623730951
  0
VERTEX
  5
2C3
  8
0
 10
-1.35072834640958
 20
-7.453614966471236
 30
0.0
 42
0.4142135623730951
  0
VERTEX
  5
2C4
  8
0
 10
-1.480728346408542
 20
-7.323614966472274
 30
0.0
 42
0.4142135623730951
  0
SEQEND
  5
58A
  8
0
  0
POLYLINE
  5
BB
  8
0
 66
     1
 10
0.0
 20
0.0
 30
0.0
 70
     1
  0
VERTEX
  5
2C5
  8
0
 10
1.750203119082743
 20
9.704721972814083
 30
0.0
  0
VERTEX
  5
2C6
  8
0
 10
1.27647511820196
 20
9.610608009972436
 30
0.0
 42
-0.6797639942567371
  0
VERTEX
  5
2C7
  8
0
 10
1.213470909524572
 20
9.70828321875855
 30
0.0
  0
VERTEX
  5
2C8
  8
0
 10
1.687198910405355
 20
10.37023914532263
 30
0.0
 42
-0.7292836521262167
  0
VERTEX
  5
2C9
  8
0
 10
1.800524462971497
 20
10.33386589682551
 30
0.0
  0
VERTEX
  5
2CA
  8
0
 10
1.800524462971497
 20
9.76602393310308
 30
0.0
 42
-0.3578723778283741
  0
SEQEND
  5
58B
  8
0
  0
POLYLINE
  5
BC
  8
0
 66
     1
 10
0.0
 20
0.0
 30
0.0
 70
     1
  0
VERTEX
  5
2CB
  8
0
 10
0.4404200713555024
 20
9.593399126740918
 30
0.0
  0
VERTEX
  5
2CC
  8
0
 10
-1.492356845248528
 20
10.94376593247493
 30
0.0
 42
-0.7336281531042973
  0
VERTEX
  5
2CD
  8
0
 10
-1.456561310134566
 20
11.05749999990854
 30
0.0
  0
VERTEX
  5
2CE
  8
0
 10
1.442604064771484
 20
11.05749999990854
 30
0.0
 42
-0.610338889874716
  0
VERTEX
  5
2CF
  8
0
 10
1.493429617338123
 20
10.95862675141192
 30
0.0
  0
VERTEX
  5
2D0
  8
0
 10
0.5270411590361075
 20
9.608259945677903
 30
0.0
 42
-0.4109015993646695
  0
SEQEND
  5
58C
  8
0
  0
POLYLINE
  5
BD
  8
0
 66
     1
 10
0.0
 20
0.0
 30
0.0
 70
     1
  0
VERTEX
  5
2D1
  8
0
 10
2.368024462966954
 20
9.509499999920928
 30
0.0
  0
VERTEX
  5
2D2
  8
0
 10
2.368024462966954
 20
11.30749999992924
 30
0.0
 42
0.4142135623730951
  0
VERTEX
  5
2D3
  8
0
 10
2.050524462969493
 20
11.624999999904
 30
0.0
  0
VERTEX
  5
2D4
  8
0
 10
-2.449475536994505
 20
11.624999999904
 30
0.0
 42
0.7336281531219943
  0
VERTEX
  5
2D5
  8
0
 10
-2.631316855361456
 20
11.04723093733291
 30
0.0
  0
VERTEX
  5
2D6
  8
0
 10
-0.8349145293314013
 20
9.792144512213246
 30
0.0
 42
-0.3485338084277532
  0
VERTEX
  5
2D7
  8
0
 10
-0.7219644983566198
 20
9.4139589099065
 30
0.0
  0
VERTEX
  5
2D8
  8
0
 10
-0.9272966795430815
 20
8.900628456940362
 30
0.0
 42
0.9999999999999998
  0
VERTEX
  5
2D9
  8
0
 10
-0.2216543944759319
 20
8.618371542913492
 30
0.0
  0
VERTEX
  5
2DA
  8
0
 10
-0.1630347943892385
 20
8.764920543130232
 30
0.0
 42
-0.3609221439183208
  0
VERTEX
  5
2DB
  8
0
 10
0.1933387267557425
 20
8.958474525454408
 30
0.0
  0
VERTEX
  5
2DC
  8
0
 10
0.4889422911902273
 20
8.900029477857645
 30
0.0
 42
0.0981407699245132
  0
VERTEX
  5
2DD
  8
0
 10
0.6123920360240884
 20
8.900086041655209
 30
0.0
  0
VERTEX
  5
2DE
  8
0
 10
2.112392036012093
 20
9.198086041652827
 30
0.0
 42
0.357872377828375
  0
SEQEND
  5
58D
  8
0
  0
POLYLINE
  5
BE
  8
0
 66
     1
 10
0.0
 20
0.0
 30
0.0
 70
     1
  0
VERTEX
  5
2DF
  8
0
 10
-0.4744755370103082
 20
8.759499999926929
 30
0.0
 42
0.4142135623730951
  0
VERTEX
  5
2E0
  8
0
 10
-0.5744755370095085
 20
8.859499999926127
 30
0.0
 42
0.4142135623730951
  0
VERTEX
  5
2E1
  8
0
 10
-0.6744755370087088
 20
8.759499999926929
 30
0.0
 42
0.4142135623730951
  0
VERTEX
  5
2E2
  8
0
 10
-0.5744755370095085
 20
8.65949999992773
 30
0.0
 42
0.4142135623730951
  0
SEQEND
  5
58E
  8
0
  0
POLYLINE
  5
BF
  8
0
 66
     1
 10
0.0
 20
0.0
 30
0.0
 70
     1
  0
VERTEX
  5
2E3
  8
0
 10
-0.1944755370125346
 20
9.384499999921927
 30
0.0
 42
0.4142135623730951
  0
VERTEX
  5
2E4
  8
0
 10
-0.3244755370114998
 20
9.514499999920885
 30
0.0
 42
0.4142135623730951
  0
VERTEX
  5
2E5
  8
0
 10
-0.4544755370104561
 20
9.384499999921927
 30
0.0
 42
0.4142135623730951
  0
VERTEX
  5
2E6
  8
0
 10
-0.3244755370114998
 20
9.254499999922968
 30
0.0
 42
0.4142135623730951
  0
SEQEND
  5
58F
  8
0
  0
POLYLINE
  5
C0
  8
0
 66
     1
 10
0.0
 20
0.0
 30
0.0
 70
     1
  0
VERTEX
  5
2E7
  8
0
 10
2.180524462968458
 20
9.509499999920928
 30
0.0
 42
0.4142135623730951
  0
VERTEX
  5
2E8
  8
0
 10
2.050524462969493
 20
9.639499999919886
 30
0.0
 42
0.4142135623730951
  0
VERTEX
  5
2E9
  8
0
 10
1.920524462970537
 20
9.509499999920928
 30
0.0
 42
0.4142135623730951
  0
VERTEX
  5
2EA
  8
0
 10
2.050524462969493
 20
9.379499999921967
 30
0.0
 42
0.4142135623730951
  0
SEQEND
  5
590
  8
0
  0
POLYLINE
  5
C1
  8
0
 66
     1
 10
0.0
 20
0.0
 30
0.0
 70
     1
  0
VERTEX
  5
2EB
  8
0
 10
-2.319475536995544
 20
11.30749999990654
 30
0.0
 42
0.4142135623730951
  0
VERTEX
  5
2EC
  8
0
 10
-2.449475536994505
 20
11.4374999999055
 30
0.0
 42
0.4142135623730951
  0
VERTEX
  5
2ED
  8
0
 10
-2.579475536993465
 20
11.30749999990654
 30
0.0
 42
0.4142135623730951
  0
VERTEX
  5
2EE
  8
0
 10
-2.449475536994505
 20
11.17749999990758
 30
0.0
 42
0.4142135623730951
  0
SEQEND
  5
591
  8
0
  0
POLYLINE
  5
C2
  8
0
 66
     1
 10
0.0
 20
0.0
 30
0.0
 70
     1
  0
VERTEX
  5
2EF
  8
0
 10
2.180524462968458
 20
11.30749999990654
 30
0.0
 42
0.4142135623730951
  0
VERTEX
  5
2F0
  8
0
 10
2.050524462969493
 20
11.4374999999055
 30
0.0
 42
0.4142135623730951
  0
VERTEX
  5
2F1
  8
0
 10
1.920524462970537
 20
11.30749999990654
 30
0.0
 42
0.4142135623730951
  0
VERTEX
  5
2F2
  8
0
 10
2.050524462969493
 20
11.17749999990758
 30
0.0
 42
0.4142135623730951
  0
SEQEND
  5
592
  8
0
  0
POLYLINE
  5
C3
  8
0
 66
     1
 10
0.0
 20
0.0
 30
0.0
 70
     1
  0
VERTEX
  5
2F3
  8
0
 10
0.6805244629804541
 20
9.211499999923314
 30
0.0
 42
0.4142135623730951
  0
VERTEX
  5
2F4
  8
0
 10
0.5505244629814978
 20
9.341499999922272
 30
0.0
 42
0.4142135623730951
  0
VERTEX
  5
2F5
  8
0
 10
0.4205244629825327
 20
9.211499999923314
 30
0.0
 42
0.4142135623730951
  0
VERTEX
  5
2F6
  8
0
 10
0.5505244629814978
 20
9.081499999924352
 30
0.0
 42
0.4142135623730951
  0
SEQEND
  5
593
  8
0
  0
POLYLINE
  5
C4
  8
0
 66
     1
 10
0.0
 20
0.0
 30
0.0
 70
     1
  0
VERTEX
  5
2F7
  8
0
 10
-0.3170353662895629
 20
-1.897317206037178
 30
0.0
  0
VERTEX
  5
2F8
  8
0
 10
0.0844895369008558
 20
-2.165744866568259
 30
0.0
 42
-0.6797639942567371
  0
VERTEX
  5
2F9
  8
0
 10
0.059973437613456
 20
-2.279362372253805
 30
0.0
  0
VERTEX
  5
2FA
  8
0
 10
-0.7430763687673814
 20
-2.412459614913141
 30
0.0
 42
-0.7292836521262167
  0
VERTEX
  5
2FB
  8
0
 10
-0.7974898648025128
 20
-2.306606577545816
 30
0.0
  0
VERTEX
  5
2FC
  8
0
 10
-0.3959649616120959
 20
-1.905081674355399
 30
0.0
 42
-0.3578723778283741
  0
SEQEND
  5
594
  8
0
  0
POLYLINE
  5
C5
  8
0
 66
     1
 10
0.0
 20
0.0
 30
0.0
 70
     1
  0
VERTEX
  5
2FD
  8
0
 10
0.6878382480008742
 20
-2.744756541608972
 30
0.0
  0
VERTEX
  5
2FE
  8
0
 10
1.099664386828671
 20
-5.066289731284249
 30
0.0
 42
-0.7336281531042973
  0
VERTEX
  5
2FF
  8
0
 10
0.9939309908791554
 20
-5.121400596003197
 30
0.0
  0
VERTEX
  5
300
  8
0
 10
-1.056088505498151
 20
-3.071381099625889
 30
0.0
 42
-0.610338889874716
  0
VERTEX
  5
301
  8
0
 10
-1.022113653885674
 20
-2.965528062258564
 30
0.0
  0
VERTEX
  5
302
  8
0
 10
0.6160797036638357
 20
-2.694014368960589
 30
0.0
 42
-0.4109015993646695
  0
SEQEND
  5
595
  8
0
  0
POLYLINE
  5
C6
  8
0
 66
     1
 10
0.0
 20
0.0
 30
0.0
 70
     1
  0
VERTEX
  5
303
  8
0
 10
-0.6158582472425049
 20
-1.322408763345498
 30
0.0
  0
VERTEX
  5
304
  8
0
 10
-1.887236239821794
 20
-2.593786755924787
 30
0.0
 42
0.4142135623730951
  0
VERTEX
  5
305
  8
0
 10
-1.887236239805747
 20
-3.042799561958605
 30
0.0
  0
VERTEX
  5
306
  8
0
 10
1.294744275508261
 20
-6.224780077272612
 30
0.0
 42
0.7336281531219943
  0
VERTEX
  5
307
  8
0
 10
1.831869926929246
 20
-5.944816884485974
 30
0.0
  0
VERTEX
  5
308
  8
0
 10
1.449101782631404
 20
-3.787088495833538
 30
0.0
 42
-0.3485338084277532
  0
VERTEX
  5
309
  8
0
 10
1.636651653732127
 20
-3.439803159057819
 30
0.0
  0
VERTEX
  5
30A
  8
0
 10
2.144822875726815
 20
-3.222015492488675
 30
0.0
 42
0.9999999999999998
  0
VERTEX
  5
30B
  8
0
 10
1.845444208809051
 20
-2.523465269680534
 30
0.0
  0
VERTEX
  5
30C
  8
0
 10
1.700368100247941
 20
-2.585640744778154
 30
0.0
 42
-0.3609221439183208
  0
VERTEX
  5
30D
  8
0
 10
1.311510633383913
 20
-2.470509944768297
 30
0.0
  0
VERTEX
  5
30E
  8
0
 10
1.143814237911814
 20
-2.220159770331316
 30
0.0
 42
0.0981407699245132
  0
VERTEX
  5
30F
  8
0
 10
1.056482089559214
 20
-2.132907615268371
 30
0.0
  0
VERTEX
  5
310
  8
0
 10
-0.2148959030040309
 20
-1.282965264288938
 30
0.0
 42
0.357872377828375
  0
SEQEND
  5
596
  8
0
  0
POLYLINE
  5
C7
  8
0
 66
     1
 10
0.0
 20
0.0
 30
0.0
 70
     1
  0
VERTEX
  5
311
  8
0
 10
1.924422864149843
 20
-2.802029702966516
 30
0.0
 42
0.4142135623730951
  0
VERTEX
  5
312
  8
0
 10
1.924422864149845
 20
-2.943451059202694
 30
0.0
 42
0.4142135623730951
  0
VERTEX
  5
313
  8
0
 10
2.065844220386021
 20
-2.943451059202694
 30
0.0
 42
0.4142135623730951
  0
VERTEX
  5
314
  8
0
 10
2.065844220386021
 20
-2.802029702966516
 30
0.0
 42
0.4142135623730951
  0
SEQEND
  5
597
  8
0
  0
POLYLINE
  5
C8
  8
0
 66
     1
 10
0.0
 20
0.0
 30
0.0
 70
     1
  0
VERTEX
  5
315
  8
0
 10
1.28449122718113
 20
-3.045981542473914
 30
0.0
 42
0.4142135623730951
  0
VERTEX
  5
316
  8
0
 10
1.284491227181134
 20
-3.229829305580948
 30
0.0
 42
0.4142135623730951
  0
VERTEX
  5
317
  8
0
 10
1.468338990288162
 20
-3.229829305580946
 30
0.0
 42
0.4142135623730951
  0
VERTEX
  5
318
  8
0
 10
1.468338990288164
 20
-3.045981542473916
 30
0.0
 42
0.4142135623730951
  0
SEQEND
  5
598
  8
0
  0
POLYLINE
  5
C9
  8
0
 66
     1
 10
0.0
 20
0.0
 30
0.0
 70
     1
  0
VERTEX
  5
319
  8
0
 10
-0.483275725771092
 20
-1.454991284816915
 30
0.0
 42
0.4142135623730951
  0
VERTEX
  5
31A
  8
0
 10
-0.4832757257710902
 20
-1.638839047923948
 30
0.0
 42
0.4142135623730951
  0
VERTEX
  5
31B
  8
0
 10
-0.2994279626640601
 20
-1.638839047923947
 30
0.0
 42
0.4142135623730951
  0
VERTEX
  5
31C
  8
0
 10
-0.2994279626640566
 20
-1.454991284816915
 30
0.0
 42
0.4142135623730951
  0
SEQEND
  5
599
  8
0
  0
POLYLINE
  5
CA
  8
0
 66
     1
 10
0.0
 20
0.0
 30
0.0
 70
     1
  0
VERTEX
  5
31D
  8
0
 10
1.427326796979678
 20
-5.908349792694163
 30
0.0
 42
0.4142135623730951
  0
VERTEX
  5
31E
  8
0
 10
1.427326796979679
 20
-6.092197555801194
 30
0.0
 42
0.4142135623730951
  0
VERTEX
  5
31F
  8
0
 10
1.61117456008671
 20
-6.092197555801196
 30
0.0
 42
0.4142135623730951
  0
VERTEX
  5
320
  8
0
 10
1.61117456008671
 20
-5.908349792694164
 30
0.0
 42
0.4142135623730951
  0
SEQEND
  5
59A
  8
0
  0
POLYLINE
  5
CB
  8
0
 66
     1
 10
0.0
 20
0.0
 30
0.0
 70
     1
  0
VERTEX
  5
321
  8
0
 10
-1.754653718334332
 20
-2.726369277380154
 30
0.0
 42
0.4142135623730951
  0
VERTEX
  5
322
  8
0
 10
-1.754653718334328
 20
-2.910217040487186
 30
0.0
 42
0.4142135623730951
  0
VERTEX
  5
323
  8
0
 10
-1.5708059552273
 20
-2.910217040487186
 30
0.0
 42
0.4142135623730951
  0
VERTEX
  5
324
  8
0
 10
-1.570805955227298
 20
-2.726369277380156
 30
0.0
 42
0.4142135623730951
  0
SEQEND
  5
59B
  8
0
  0
POLYLINE
  5
CC
  8
0
 66
     1
 10
0.0
 20
0.0
 30
0.0
 70
     1
  0
VERTEX
  5
325
  8
0
 10
0.7881022667921496
 20
-2.304933635796347
 30
0.0
 42
0.4142135623730951
  0
VERTEX
  5
326
  8
0
 10
0.7881022667921496
 20
-2.488781398903376
 30
0.0
 42
0.4142135623730951
  0
VERTEX
  5
327
  8
0
 10
0.9719500298991814
 20
-2.488781398903379
 30
0.0
 42
0.4142135623730951
  0
VERTEX
  5
328
  8
0
 10
0.9719500298991814
 20
-2.304933635796344
 30
0.0
 42
0.4142135623730951
  0
SEQEND
  5
59C
  8
0
  0
POLYLINE
  5
CD
  8
0
 66
     1
 10
0.0
 20
0.0
 30
0.0
 70
     1
  0
VERTEX
  5
329
  8
0
 10
-0.0949922654389663
 20
5.247267782217895
 30
0.0
  0
VERTEX
  5
32A
  8
0
 10
1.067735072351736
 20
4.41516329429516
 30
0.0
 42
-0.7292836521262172
  0
VERTEX
  5
32B
  8
0
 10
1.031361823854615
 20
4.301837741729015
 30
0.0
  0
VERTEX
  5
32C
  8
0
 10
0.0339459109978986
 20
4.301837741729019
 30
0.0
 42
-0.3578723778283734
  0
VERTEX
  5
32D
  8
0
 10
-0.0273560492910985
 20
4.352159085617769
 30
0.0
  0
VERTEX
  5
32E
  8
0
 10
-0.1926674742250842
 20
5.184263573540507
 30
0.0
 42
-0.6797639942567385
  0
SEQEND
  5
59D
  8
0
  0
POLYLINE
  5
CE
  8
0
 66
     1
 10
0.0
 20
0.0
 30
0.0
 70
     1
  0
VERTEX
  5
32F
  8
0
 10
1.32542197780336
 20
7.558923514835081
 30
0.0
  0
VERTEX
  5
330
  8
0
 10
1.325421977803359
 20
6.273402937006756
 30
0.0
 42
-0.3268748175894694
  0
VERTEX
  5
331
  8
0
 10
1.281814834946568
 20
6.213826851629124
 30
0.0
 42
0.2140895195443154
  0
VERTEX
  5
332
  8
0
 10
0.785564949952402
 20
5.770705211788991
 30
0.0
 42
-0.3108678928628357
  0
VERTEX
  5
333
  8
0
 10
0.7250709653575242
 20
5.733789100721792
 30
0.0
  0
VERTEX
  5
334
  8
0
 10
0.053700730052217
 20
5.770668569213905
 30
0.0
 42
-0.5878497639258756
  0
VERTEX
  5
335
  8
0
 10
0.005894721993803
 20
5.868870020784998
 30
0.0
  0
VERTEX
  5
336
  8
0
 10
1.211687910369752
 20
7.594719049949044
 30
0.0
 42
-0.7336281531042995
  0
SEQEND
  5
59E
  8
0
  0
POLYLINE
  5
CF
  8
0
 66
     1
 10
0.0
 20
0.0
 30
0.0
 70
     1
  0
VERTEX
  5
337
  8
0
 10
1.575421977801359
 20
3.734337741733558
 30
0.0
 42
0.4142135623730951
  0
VERTEX
  5
338
  8
0
 10
1.892921977798817
 20
4.051837741731015
 30
0.0
  0
VERTEX
  5
339
  8
0
 10
1.892921977798817
 20
4.539109437350946
 30
0.0
 42
-0.2346056059667043
  0
VERTEX
  5
33A
  8
0
 10
2.018517110541177
 20
4.79204969101214
 30
0.0
 42
0.4965407084259092
  0
VERTEX
  5
33B
  8
0
 10
2.018517110541177
 20
6.086625792427695
 30
0.0
 42
-0.2346056059667039
  0
VERTEX
  5
33C
  8
0
 10
1.892921977798817
 20
6.339566046088889
 30
0.0
  0
VERTEX
  5
33D
  8
0
 10
1.892921977798819
 20
8.551837741695016
 30
0.0
 42
0.7336281531042994
  0
VERTEX
  5
33E
  8
0
 10
1.3151529152361
 20
8.733679060073948
 30
0.0
  0
VERTEX
  5
33F
  8
0
 10
-0.0044059158746474
 20
6.844997526995586
 30
0.0
 42
-0.3354237857151521
  0
VERTEX
  5
340
  8
0
 10
-0.3686265003110822
 20
6.726838293543269
 30
0.0
 42
0.4984263088705504
  0
VERTEX
  5
341
  8
0
 10
-0.7896013703568396
 20
6.444228736811878
 30
0.0
  0
VERTEX
  5
342
  8
0
 10
-0.8376013703564578
 20
5.56922873681888
 30
0.0
 42
0.0628112559203559
  0
VERTEX
  5
343
  8
0
 10
-0.8319919804499722
 20
5.48997016867642
 30
0.0
  0
VERTEX
  5
344
  8
0
 10
-0.5339919804523579
 20
3.989970168688421
 30
0.0
 42
0.3578723778283739
  0
VERTEX
  5
345
  8
0
 10
-0.2225780221842566
 20
3.734337741733558
 30
0.0
  0
SEQEND
  5
59F
  8
0
  0
POLYLINE
  5
D0
  8
0
 66
     1
 10
0.0
 20
0.0
 30
0.0
 70
     1
  0
VERTEX
  5
346
  8
0
 10
1.527421977801742
 20
5.001837741723415
 30
0.0
 42
0.4142135623730951
  0
VERTEX
  5
347
  8
0
 10
1.964921977798243
 20
5.439337741719919
 30
0.0
 42
0.4142135623730951
  0
VERTEX
  5
348
  8
0
 10
1.527421977801742
 20
5.87683774171642
 30
0.0
 42
0.4142135623730951
  0
VERTEX
  5
349
  8
0
 10
1.089921977805245
 20
5.439337741719919
 30
0.0
 42
0.4142135623730951
  0
SEQEND
  5
5A0
  8
0
  0
POLYLINE
  5
D1
  8
0
 66
     1
 10
0.0
 20
0.0
 30
0.0
 70
     1
  0
VERTEX
  5
34A
  8
0
 10
-0.4725780221822564
 20
6.326837741712817
 30
0.0
 42
0.4142135623730951
  0
VERTEX
  5
34B
  8
0
 10
-0.3725780221830579
 20
6.426837741712015
 30
0.0
 42
0.4142135623730951
  0
VERTEX
  5
34C
  8
0
 10
-0.4725780221822564
 20
6.526837741711217
 30
0.0
 42
0.4142135623730951
  0
VERTEX
  5
34D
  8
0
 10
-0.5725780221814549
 20
6.426837741712015
 30
0.0
 42
0.4142135623730951
  0
SEQEND
  5
5A1
  8
0
  0
POLYLINE
  5
D2
  8
0
 66
     1
 10
0.0
 20
0.0
 30
0.0
 70
     1
  0
VERTEX
  5
34E
  8
0
 10
-0.2225780221842566
 20
3.951837741731817
 30
0.0
 42
0.4142135623730951
  0
VERTEX
  5
34F
  8
0
 10
-0.1225780221850545
 20
4.051837741731019
 30
0.0
 42
0.4142135623730951
  0
VERTEX
  5
350
  8
0
 10
-0.2225780221842566
 20
4.151837741730217
 30
0.0
 42
0.4142135623730951
  0
VERTEX
  5
351
  8
0
 10
-0.3225780221834587
 20
4.051837741731019
 30
0.0
 42
0.4142135623730951
  0
SEQEND
  5
5A2
  8
0
  0
POLYLINE
  5
D3
  8
0
 66
     1
 10
0.0
 20
0.0
 30
0.0
 70
     1
  0
VERTEX
  5
352
  8
0
 10
1.57542197780136
 20
8.451837741695817
 30
0.0
 42
0.4142135623730951
  0
VERTEX
  5
353
  8
0
 10
1.675421977800559
 20
8.551837741695016
 30
0.0
 42
0.4142135623730951
  0
VERTEX
  5
354
  8
0
 10
1.57542197780136
 20
8.651837741694218
 30
0.0
 42
0.4142135623730951
  0
VERTEX
  5
355
  8
0
 10
1.475421977802158
 20
8.551837741695016
 30
0.0
 42
0.4142135623730951
  0
SEQEND
  5
5A3
  8
0
  0
POLYLINE
  5
D4
  8
0
 66
     1
 10
0.0
 20
0.0
 30
0.0
 70
     1
  0
VERTEX
  5
356
  8
0
 10
1.575421977801359
 20
3.951837741731817
 30
0.0
 42
0.4142135623730951
  0
VERTEX
  5
357
  8
0
 10
1.675421977800559
 20
4.051837741731015
 30
0.0
 42
0.4142135623730951
  0
VERTEX
  5
358
  8
0
 10
1.575421977801359
 20
4.151837741730217
 30
0.0
 42
0.4142135623730951
  0
VERTEX
  5
359
  8
0
 10
1.475421977802158
 20
4.051837741731015
 30
0.0
 42
0.4142135623730951
  0
SEQEND
  5
5A4
  8
0
  0
POLYLINE
  5
D5
  8
0
 66
     1
 10
0.0
 20
0.0
 30
0.0
 70
     1
  0
VERTEX
  5
35A
  8
0
 10
-0.520578022181871
 20
5.421837741720056
 30
0.0
 42
0.4142135623730951
  0
VERTEX
  5
35B
  8
0
 10
-0.3905780221829112
 20
5.551837741719018
 30
0.0
 42
0.4142135623730951
  0
VERTEX
  5
35C
  8
0
 10
-0.520578022181871
 20
5.681837741717979
 30
0.0
 42
0.4142135623730951
  0
VERTEX
  5
35D
  8
0
 10
-0.6505780221808308
 20
5.551837741719018
 30
0.0
 42
0.4142135623730951
  0
SEQEND
  5
5A5
  8
0
  0
POLYLINE
  5
D6
  8
0
 66
     1
 10
0.0
 20
0.0
 30
0.0
 70
     1
  0
VERTEX
  5
35E
  8
0
 10
1.125480175501034
 20
0.8575040027078984
 30
0.0
  0
VERTEX
  5
35F
  8
0
 10
2.288207513291736
 20
0.025399514785164
 30
0.0
 42
-0.7292836521262172
  0
VERTEX
  5
360
  8
0
 10
2.251834264794615
 20
-0.0879260377809796
 30
0.0
  0
VERTEX
  5
361
  8
0
 10
1.254418351937899
 20
-0.0879260377809779
 30
0.0
 42
-0.3578723778283734
  0
VERTEX
  5
362
  8
0
 10
1.193116391648902
 20
-0.0376046938922254
 30
0.0
  0
VERTEX
  5
363
  8
0
 10
1.027804966714916
 20
0.794499794030509
 30
0.0
 42
-0.6797639942567385
  0
SEQEND
  5
5A6
  8
0
  0
POLYLINE
  5
D7
  8
0
 66
     1
 10
0.0
 20
0.0
 30
0.0
 70
     1
  0
VERTEX
  5
364
  8
0
 10
2.545894418743361
 20
3.169159735325085
 30
0.0
  0
VERTEX
  5
365
  8
0
 10
2.545894418743359
 20
1.883639157496757
 30
0.0
 42
-0.3268748175894694
  0
VERTEX
  5
366
  8
0
 10
2.502287275886568
 20
1.824063072119126
 30
0.0
 42
0.2140895195443154
  0
VERTEX
  5
367
  8
0
 10
2.006037390892402
 20
1.380941432278995
 30
0.0
 42
-0.3108678928628357
  0
VERTEX
  5
368
  8
0
 10
1.945543406297524
 20
1.344025321211797
 30
0.0
  0
VERTEX
  5
369
  8
0
 10
1.274173170992217
 20
1.38090478970391
 30
0.0
 42
-0.5878497639258756
  0
VERTEX
  5
36A
  8
0
 10
1.226367162933803
 20
1.479106241275002
 30
0.0
  0
VERTEX
  5
36B
  8
0
 10
2.432160351309752
 20
3.204955270439047
 30
0.0
 42
-0.7336281531042995
  0
SEQEND
  5
5A7
  8
0
  0
POLYLINE
  5
D8
  8
0
 66
     1
 10
0.0
 20
0.0
 30
0.0
 70
     1
  0
VERTEX
  5
36C
  8
0
 10
2.795894418741359
 20
-0.6554260377764383
 30
0.0
 42
0.4142135623730951
  0
VERTEX
  5
36D
  8
0
 10
3.113394418738817
 20
-0.3379260377789794
 30
0.0
  0
VERTEX
  5
36E
  8
0
 10
3.113394418738817
 20
0.14934565784095
 30
0.0
 42
-0.2346056059667043
  0
VERTEX
  5
36F
  8
0
 10
3.238989551481177
 20
0.4022859115021422
 30
0.0
 42
0.4965407084259092
  0
VERTEX
  5
370
  8
0
 10
3.238989551481177
 20
1.696862012917698
 30
0.0
 42
-0.2346056059667039
  0
VERTEX
  5
371
  8
0
 10
3.113394418738817
 20
1.949802266578892
 30
0.0
  0
VERTEX
  5
372
  8
0
 10
3.113394418738819
 20
4.162073962185021
 30
0.0
 42
0.7336281531042994
  0
VERTEX
  5
373
  8
0
 10
2.5356253561761
 20
4.34391528056395
 30
0.0
  0
VERTEX
  5
374
  8
0
 10
1.216066525065353
 20
2.455233747485588
 30
0.0
 42
-0.3354237857151521
  0
VERTEX
  5
375
  8
0
 10
0.8518459406289178
 20
2.33707451403327
 30
0.0
 42
0.4984263088705504
  0
VERTEX
  5
376
  8
0
 10
0.4308710705831604
 20
2.054464957301883
 30
0.0
  0
VERTEX
  5
377
  8
0
 10
0.3828710705835423
 20
1.179464957308882
 30
0.0
 42
0.0628112559203559
  0
VERTEX
  5
378
  8
0
 10
0.3884804604900278
 20
1.100206389166425
 30
0.0
  0
VERTEX
  5
379
  8
0
 10
0.6864804604876422
 20
-0.3997936108215754
 30
0.0
 42
0.3578723778283739
  0
VERTEX
  5
37A
  8
0
 10
0.9978944187557435
 20
-0.6554260377764383
 30
0.0
  0
SEQEND
  5
5A8
  8
0
  0
POLYLINE
  5
D9
  8
0
 66
     1
 10
0.0
 20
0.0
 30
0.0
 70
     1
  0
VERTEX
  5
37B
  8
0
 10
2.747894418741742
 20
0.6120739622134206
 30
0.0
 42
0.4142135623730951
  0
VERTEX
  5
37C
  8
0
 10
3.185394418738243
 20
1.049573962209921
 30
0.0
 42
0.4142135623730951
  0
VERTEX
  5
37D
  8
0
 10
2.747894418741742
 20
1.487073962206422
 30
0.0
 42
0.4142135623730951
  0
VERTEX
  5
37E
  8
0
 10
2.310394418745245
 20
1.049573962209923
 30
0.0
 42
0.4142135623730951
  0
SEQEND
  5
5A9
  8
0
  0
POLYLINE
  5
DA
  8
0
 66
     1
 10
0.0
 20
0.0
 30
0.0
 70
     1
  0
VERTEX
  5
37F
  8
0
 10
0.7478944187577437
 20
1.93707396220282
 30
0.0
 42
0.4142135623730951
  0
VERTEX
  5
380
  8
0
 10
0.8478944187569422
 20
2.037073962202021
 30
0.0
 42
0.4142135623730951
  0
VERTEX
  5
381
  8
0
 10
0.7478944187577437
 20
2.137073962201221
 30
0.0
 42
0.4142135623730951
  0
VERTEX
  5
382
  8
0
 10
0.6478944187585451
 20
2.037073962202021
 30
0.0
 42
0.4142135623730951
  0
SEQEND
  5
5AA
  8
0
  0
POLYLINE
  5
DB
  8
0
 66
     1
 10
0.0
 20
0.0
 30
0.0
 70
     1
  0
VERTEX
  5
383
  8
0
 10
0.9978944187557435
 20
-0.4379260377781797
 30
0.0
 42
0.4142135623730951
  0
VERTEX
  5
384
  8
0
 10
1.097894418754946
 20
-0.3379260377789794
 30
0.0
 42
0.4142135623730951
  0
VERTEX
  5
385
  8
0
 10
0.9978944187557435
 20
-0.2379260377797792
 30
0.0
 42
0.4142135623730951
  0
VERTEX
  5
386
  8
0
 10
0.8978944187565414
 20
-0.3379260377789794
 30
0.0
 42
0.4142135623730951
  0
SEQEND
  5
5AB
  8
0
  0
POLYLINE
  5
DC
  8
0
 66
     1
 10
0.0
 20
0.0
 30
0.0
 70
     1
  0
VERTEX
  5
387
  8
0
 10
2.79589441874136
 20
4.062073962185819
 30
0.0
 42
0.4142135623730951
  0
VERTEX
  5
388
  8
0
 10
2.895894418740559
 20
4.162073962185021
 30
0.0
 42
0.4142135623730951
  0
VERTEX
  5
389
  8
0
 10
2.79589441874136
 20
4.262073962184219
 30
0.0
 42
0.4142135623730951
  0
VERTEX
  5
38A
  8
0
 10
2.695894418742158
 20
4.162073962185021
 30
0.0
 42
0.4142135623730951
  0
SEQEND
  5
5AC
  8
0
  0
POLYLINE
  5
DD
  8
0
 66
     1
 10
0.0
 20
0.0
 30
0.0
 70
     1
  0
VERTEX
  5
38B
  8
0
 10
2.795894418741359
 20
-0.4379260377781797
 30
0.0
 42
0.4142135623730951
  0
VERTEX
  5
38C
  8
0
 10
2.895894418740559
 20
-0.3379260377789794
 30
0.0
 42
0.4142135623730951
  0
VERTEX
  5
38D
  8
0
 10
2.795894418741359
 20
-0.2379260377797792
 30
0.0
 42
0.4142135623730951
  0
VERTEX
  5
38E
  8
0
 10
2.695894418742158
 20
-0.3379260377789794
 30
0.0
 42
0.4142135623730951
  0
SEQEND
  5
5AD
  8
0
  0
POLYLINE
  5
DE
  8
0
 66
     1
 10
0.0
 20
0.0
 30
0.0
 70
     1
  0
VERTEX
  5
38F
  8
0
 10
0.6998944187581291
 20
1.03207396221006
 30
0.0
 42
0.4142135623730951
  0
VERTEX
  5
390
  8
0
 10
0.8298944187570889
 20
1.162073962209021
 30
0.0
 42
0.4142135623730951
  0
VERTEX
  5
391
  8
0
 10
0.6998944187581291
 20
1.292073962207983
 30
0.0
 42
0.4142135623730951
  0
VERTEX
  5
392
  8
0
 10
0.5698944187591692
 20
1.162073962209021
 30
0.0
 42
0.4142135623730951
  0
SEQEND
  5
5AE
  8
0
  0
POLYLINE
  5
DF
  8
0
 66
     1
 10
0.0
 20
0.0
 30
0.0
 70
     1
  0
VERTEX
  5
393
  8
0
 10
3.297858658910938
 20
-7.128097899530225
 30
0.0
  0
VERTEX
  5
394
  8
0
 10
1.887299547622225
 20
-7.361883558687087
 30
0.0
 42
-0.7292836521262172
  0
VERTEX
  5
395
  8
0
 10
1.83288605158709
 20
-7.256030521319757
 30
0.0
  0
VERTEX
  5
396
  8
0
 10
2.538165607231447
 20
-6.550750965675403
 30
0.0
 42
-0.3578723778283734
  0
VERTEX
  5
397
  8
0
 10
2.617095202553982
 20
-6.542986497357181
 30
0.0
  0
VERTEX
  5
398
  8
0
 10
3.32237475819834
 20
-7.014480393844675
 30
0.0
 42
-0.6797639942567385
  0
SEQEND
  5
5AF
  8
0
  0
POLYLINE
  5
E0
  8
0
 66
     1
 10
0.0
 20
0.0
 30
0.0
 70
     1
  0
VERTEX
  5
399
  8
0
 10
3.9280615597227
 20
-9.767069887323201
 30
0.0
  0
VERTEX
  5
39A
  8
0
 10
3.019061241785442
 20
-8.858069569385943
 30
0.0
 42
-0.3268748175894694
  0
VERTEX
  5
39B
  8
0
 10
3.007769494240579
 20
-8.785108008996662
 30
0.0
 42
0.2140895195443154
  0
VERTEX
  5
39C
  8
0
 10
3.045336836661535
 20
-8.120872033732784
 30
0.0
 42
-0.3108678928628357
  0
VERTEX
  5
39D
  8
0
 10
3.062008910918918
 20
-8.0519926945341
 30
0.0
  0
VERTEX
  5
39E
  8
0
 10
3.562817079247436
 20
-7.603339970720238
 30
0.0
 42
-0.5878497639258756
  0
VERTEX
  5
39F
  8
0
 10
3.666059944055281
 20
-7.638974930568956
 30
0.0
  0
VERTEX
  5
3A0
  8
0
 10
4.033794955672215
 20
-9.711959022604255
 30
0.0
 42
-0.7336281531042995
  0
SEQEND
  5
5B0
  8
0
  0
POLYLINE
  5
E1
  8
0
 66
     1
 10
0.0
 20
0.0
 30
0.0
 70
     1
  0
VERTEX
  5
3A1
  8
0
 10
1.046894329037796
 20
-7.239456047228742
 30
0.0
 42
0.4142135623730951
  0
VERTEX
  5
3A2
  8
0
 10
1.046894329037796
 20
-7.688468853278606
 30
0.0
  0
VERTEX
  5
3A3
  8
0
 10
1.391447449290915
 20
-8.033021973531724
 30
0.0
 42
-0.2346056059667043
  0
VERTEX
  5
3A4
  8
0
 10
1.481494047843643
 20
-8.300686912176747
 30
0.0
 42
0.4965407084259092
  0
VERTEX
  5
3A5
  8
0
 10
2.396897587916627
 20
-9.21609045224973
 30
0.0
 42
-0.2346056059667039
  0
VERTEX
  5
3A6
  8
0
 10
2.664562526561649
 20
-9.30613705080246
 30
0.0
  0
VERTEX
  5
3A7
  8
0
 10
4.228874844351806
 20
-10.87044936859261
 30
0.0
 42
0.7336281531042994
  0
VERTEX
  5
3A8
  8
0
 10
4.766000495775343
 20
-10.59048617582036
 30
0.0
  0
VERTEX
  5
3A9
  8
0
 10
4.363569973886831
 20
-8.321917658625846
 30
0.0
 42
-0.3354237857151521
  0
VERTEX
  5
3AA
  8
0
 10
4.53756162375562
 20
-7.980823618289178
 30
0.0
 42
0.4984263088705504
  0
VERTEX
  5
3AB
  8
0
 10
4.635400675081213
 20
-7.483314298977808
 30
0.0
  0
VERTEX
  5
3AC
  8
0
 10
4.050623367044617
 20
-6.830654739947845
 30
0.0
 42
0.0628112559203559
  0
VERTEX
  5
3AD
  8
0
 10
3.990612658402755
 20
-6.778576906588372
 30
0.0
  0
VERTEX
  5
3AE
  8
0
 10
2.719234665839513
 20
-5.928634555608942
 30
0.0
 42
0.3578723778283739
  0
VERTEX
  5
3AF
  8
0
 10
2.318272321601038
 20
-5.968078054665502
 30
0.0
  0
SEQEND
  5
5B1
  8
0
  0
POLYLINE
  5
E2
  8
0
 66
     1
 10
0.0
 20
0.0
 30
0.0
 70
     1
  0
VERTEX
  5
3B0
  8
0
 10
1.977093299681258
 20
-8.101772766878838
 30
0.0
 42
0.4142135623730951
  0
VERTEX
  5
3B1
  8
0
 10
1.977093299681259
 20
-8.720491200412118
 30
0.0
 42
0.4142135623730951
  0
VERTEX
  5
3B2
  8
0
 10
2.595811733214537
 20
-8.720491200412118
 30
0.0
 42
0.4142135623730951
  0
VERTEX
  5
3B3
  8
0
 10
2.595811733214537
 20
-8.10177276687884
 30
0.0
 42
0.4142135623730951
  0
SEQEND
  5
5B2
  8
0
  0
POLYLINE
  5
E3
  8
0
 66
     1
 10
0.0
 20
0.0
 30
0.0
 70
     1
  0
VERTEX
  5
3B4
  8
0
 10
4.328223347107718
 20
-7.624475689581736
 30
0.0
 42
0.4142135623730951
  0
VERTEX
  5
3B5
  8
0
 10
4.328223347107718
 20
-7.765897045817915
 30
0.0
 42
0.4142135623730951
  0
VERTEX
  5
3B6
  8
0
 10
4.469644703343898
 20
-7.765897045817915
 30
0.0
 42
0.4142135623730951
  0
VERTEX
  5
3B7
  8
0
 10
4.469644703343894
 20
-7.624475689581738
 30
0.0
 42
0.4142135623730951
  0
SEQEND
  5
5B3
  8
0
  0
POLYLINE
  5
E4
  8
0
 66
     1
 10
0.0
 20
0.0
 30
0.0
 70
     1
  0
VERTEX
  5
3B8
  8
0
 10
2.47206804650788
 20
-6.121873779572344
 30
0.0
 42
0.4142135623730951
  0
VERTEX
  5
3B9
  8
0
 10
2.47206804650788
 20
-6.263295135808523
 30
0.0
 42
0.4142135623730951
  0
VERTEX
  5
3BA
  8
0
 10
2.613489402744058
 20
-6.263295135808523
 30
0.0
 42
0.4142135623730951
  0
VERTEX
  5
3BB
  8
0
 10
2.61348940274406
 20
-6.121873779572343
 30
0.0
 42
0.4142135623730951
  0
SEQEND
  5
5B4
  8
0
  0
POLYLINE
  5
E5
  8
0
 66
     1
 10
0.0
 20
0.0
 30
0.0
 70
     1
  0
VERTEX
  5
3BC
  8
0
 10
4.382670569258648
 20
-10.57523228744959
 30
0.0
 42
0.4142135623730951
  0
VERTEX
  5
3BD
  8
0
 10
4.382670569258648
 20
-10.71665364368577
 30
0.0
 42
0.4142135623730951
  0
VERTEX
  5
3BE
  8
0
 10
4.524091925494824
 20
-10.71665364368577
 30
0.0
 42
0.4142135623730951
  0
VERTEX
  5
3BF
  8
0
 10
4.524091925494828
 20
-10.57523228744959
 30
0.0
 42
0.4142135623730951
  0
SEQEND
  5
5B5
  8
0
  0
POLYLINE
  5
E6
  8
0
 66
     1
 10
0.0
 20
0.0
 30
0.0
 70
     1
  0
VERTEX
  5
3C0
  8
0
 10
1.200690053944639
 20
-7.393251772135585
 30
0.0
 42
0.4142135623730951
  0
VERTEX
  5
3C1
  8
0
 10
1.200690053944639
 20
-7.534673128371763
 30
0.0
 42
0.4142135623730951
  0
VERTEX
  5
3C2
  8
0
 10
1.342111410180816
 20
-7.534673128371764
 30
0.0
 42
0.4142135623730951
  0
VERTEX
  5
3C3
  8
0
 10
1.342111410180816
 20
-7.393251772135585
 30
0.0
 42
0.4142135623730951
  0
SEQEND
  5
5B6
  8
0
  0
POLYLINE
  5
E7
  8
0
 66
     1
 10
0.0
 20
0.0
 30
0.0
 70
     1
  0
VERTEX
  5
3C4
  8
0
 10
3.722232835635694
 20
-6.950602927116348
 30
0.0
 42
0.4142135623730951
  0
VERTEX
  5
3C5
  8
0
 10
3.722232835635696
 20
-7.134450690223382
 30
0.0
 42
0.4142135623730951
  0
VERTEX
  5
3C6
  8
0
 10
3.906080598742728
 20
-7.134450690223381
 30
0.0
 42
0.4142135623730951
  0
VERTEX
  5
3C7
  8
0
 10
3.906080598742726
 20
-6.95060292711635
 30
0.0
 42
0.4142135623730951
  0
SEQEND
  5
5B7
  8
0
  0
POLYLINE
  5
E8
  8
0
 66
     1
 10
0.0
 20
0.0
 30
0.0
 70
     1
  0
VERTEX
  5
3C8
  8
0
 10
4.569874545155185
 20
8.675062085409662
 30
0.0
  0
VERTEX
  5
3C9
  8
0
 10
3.407147207364483
 20
9.507166573332396
 30
0.0
 42
-0.7292836521262172
  0
VERTEX
  5
3CA
  8
0
 10
3.443520455861604
 20
9.620492125898542
 30
0.0
  0
VERTEX
  5
3CB
  8
0
 10
4.440936368718321
 20
9.620492125898538
 30
0.0
 42
-0.3578723778283734
  0
VERTEX
  5
3CC
  8
0
 10
4.502238329007318
 20
9.570170782009788
 30
0.0
  0
VERTEX
  5
3CD
  8
0
 10
4.667549753941303
 20
8.738066294087053
 30
0.0
 42
-0.6797639942567385
  0
SEQEND
  5
5B8
  8
0
  0
POLYLINE
  5
E9
  8
0
 66
     1
 10
0.0
 20
0.0
 30
0.0
 70
     1
  0
VERTEX
  5
3CE
  8
0
 10
3.149460301912859
 20
6.363406352792476
 30
0.0
  0
VERTEX
  5
3CF
  8
0
 10
3.149460301912859
 20
7.648926930620801
 30
0.0
 42
-0.3268748175894694
  0
VERTEX
  5
3D0
  8
0
 10
3.193067444769651
 20
7.708503015998433
 30
0.0
 42
0.2140895195443154
  0
VERTEX
  5
3D1
  8
0
 10
3.689317329763815
 20
8.151624655838566
 30
0.0
 42
-0.3108678928628357
  0
VERTEX
  5
3D2
  8
0
 10
3.749811314358693
 20
8.188540766905765
 30
0.0
  0
VERTEX
  5
3D3
  8
0
 10
4.421181549664
 20
8.151661298413652
 30
0.0
 42
-0.5878497639258756
  0
VERTEX
  5
3D4
  8
0
 10
4.468987557722413
 20
8.053459846842559
 30
0.0
  0
VERTEX
  5
3D5
  8
0
 10
3.263194369346465
 20
6.327610817678513
 30
0.0
 42
-0.7336281531042995
  0
SEQEND
  5
5B9
  8
0
  0
POLYLINE
  5
EA
  8
0
 66
     1
 10
0.0
 20
0.0
 30
0.0
 70
     1
  0
VERTEX
  5
3D6
  8
0
 10
2.899460301914859
 20
10.187992125894
 30
0.0
 42
0.4142135623730951
  0
VERTEX
  5
3D7
  8
0
 10
2.5819603019174
 20
9.870492125896542
 30
0.0
  0
VERTEX
  5
3D8
  8
0
 10
2.5819603019174
 20
9.38322043027661
 30
0.0
 42
-0.2346056059667043
  0
VERTEX
  5
3D9
  8
0
 10
2.456365169175042
 20
9.13028017661542
 30
0.0
 42
0.4965407084259092
  0
VERTEX
  5
3DA
  8
0
 10
2.456365169175042
 20
7.835704075199862
 30
0.0
 42
-0.2346056059667039
  0
VERTEX
  5
3DB
  8
0
 10
2.5819603019174
 20
7.582763821538668
 30
0.0
  0
VERTEX
  5
3DC
  8
0
 10
2.5819603019174
 20
5.370492125932541
 30
0.0
 42
0.7336281531042994
  0
VERTEX
  5
3DD
  8
0
 10
3.159729364480119
 20
5.188650807553612
 30
0.0
  0
VERTEX
  5
3DE
  8
0
 10
4.479288195590867
 20
7.077332340631974
 30
0.0
 42
-0.3354237857151521
  0
VERTEX
  5
3DF
  8
0
 10
4.843508780027298
 20
7.195491574084292
 30
0.0
 42
0.4984263088705504
  0
VERTEX
  5
3E0
  8
0
 10
5.264483650073059
 20
7.478101130815679
 30
0.0
  0
VERTEX
  5
3E1
  8
0
 10
5.312483650072677
 20
8.35310113080868
 30
0.0
 42
0.0628112559203559
  0
VERTEX
  5
3E2
  8
0
 10
5.306874260166191
 20
8.432359698951137
 30
0.0
  0
VERTEX
  5
3E3
  8
0
 10
5.008874260168573
 20
9.932359698939136
 30
0.0
 42
0.3578723778283739
  0
VERTEX
  5
3E4
  8
0
 10
4.697460301900472
 20
10.187992125894
 30
0.0
  0
SEQEND
  5
5BA
  8
0
  0
POLYLINE
  5
EB
  8
0
 66
     1
 10
0.0
 20
0.0
 30
0.0
 70
     1
  0
VERTEX
  5
3E5
  8
0
 10
2.947460301914475
 20
8.920492125904142
 30
0.0
 42
0.4142135623730951
  0
VERTEX
  5
3E6
  8
0
 10
2.509960301917975
 20
8.482992125907638
 30
0.0
 42
0.4142135623730951
  0
VERTEX
  5
3E7
  8
0
 10
2.947460301914475
 20
8.045492125911137
 30
0.0
 42
0.4142135623730951
  0
VERTEX
  5
3E8
  8
0
 10
3.384960301910974
 20
8.482992125907638
 30
0.0
 42
0.4142135623730951
  0
SEQEND
  5
5BB
  8
0
  0
POLYLINE
  5
EC
  8
0
 66
     1
 10
0.0
 20
0.0
 30
0.0
 70
     1
  0
VERTEX
  5
3E9
  8
0
 10
4.947460301898476
 20
7.59549212591474
 30
0.0
 42
0.4142135623730951
  0
VERTEX
  5
3EA
  8
0
 10
4.847460301899273
 20
7.495492125915542
 30
0.0
 42
0.4142135623730951
  0
VERTEX
  5
3EB
  8
0
 10
4.947460301898476
 20
7.39549212591634
 30
0.0
 42
0.4142135623730951
  0
VERTEX
  5
3EC
  8
0
 10
5.047460301897674
 20
7.495492125915542
 30
0.0
 42
0.4142135623730951
  0
SEQEND
  5
5BC
  8
0
  0
POLYLINE
  5
ED
  8
0
 66
     1
 10
0.0
 20
0.0
 30
0.0
 70
     1
  0
VERTEX
  5
3ED
  8
0
 10
4.697460301900472
 20
9.97049212589574
 30
0.0
 42
0.4142135623730951
  0
VERTEX
  5
3EE
  8
0
 10
4.597460301901274
 20
9.870492125896542
 30
0.0
 42
0.4142135623730951
  0
VERTEX
  5
3EF
  8
0
 10
4.697460301900472
 20
9.77049212589734
 30
0.0
 42
0.4142135623730951
  0
VERTEX
  5
3F0
  8
0
 10
4.797460301899674
 20
9.870492125896542
 30
0.0
 42
0.4142135623730951
  0
SEQEND
  5
5BD
  8
0
  0
POLYLINE
  5
EE
  8
0
 66
     1
 10
0.0
 20
0.0
 30
0.0
 70
     1
  0
VERTEX
  5
3F1
  8
0
 10
2.899460301914859
 20
5.47049212593174
 30
0.0
 42
0.4142135623730951
  0
VERTEX
  5
3F2
  8
0
 10
2.799460301915659
 20
5.370492125932541
 30
0.0
 42
0.4142135623730951
  0
VERTEX
  5
3F3
  8
0
 10
2.899460301914859
 20
5.270492125933339
 30
0.0
 42
0.4142135623730951
  0
VERTEX
  5
3F4
  8
0
 10
2.999460301914059
 20
5.370492125932541
 30
0.0
 42
0.4142135623730951
  0
SEQEND
  5
5BE
  8
0
  0
POLYLINE
  5
EF
  8
0
 66
     1
 10
0.0
 20
0.0
 30
0.0
 70
     1
  0
VERTEX
  5
3F5
  8
0
 10
2.899460301914859
 20
9.97049212589574
 30
0.0
 42
0.4142135623730951
  0
VERTEX
  5
3F6
  8
0
 10
2.799460301915659
 20
9.870492125896542
 30
0.0
 42
0.4142135623730951
  0
VERTEX
  5
3F7
  8
0
 10
2.899460301914859
 20
9.77049212589734
 30
0.0
 42
0.4142135623730951
  0
VERTEX
  5
3F8
  8
0
 10
2.999460301914059
 20
9.870492125896542
 30
0.0
 42
0.4142135623730951
  0
SEQEND
  5
5BF
  8
0
  0
POLYLINE
  5
F0
  8
0
 66
     1
 10
0.0
 20
0.0
 30
0.0
 70
     1
  0
VERTEX
  5
3F9
  8
0
 10
4.99546030189809
 20
8.5004921259075
 30
0.0
 42
0.4142135623730951
  0
VERTEX
  5
3FA
  8
0
 10
4.865460301899128
 20
8.37049212590854
 30
0.0
 42
0.4142135623730951
  0
VERTEX
  5
3FB
  8
0
 10
4.99546030189809
 20
8.240492125909578
 30
0.0
 42
0.4142135623730951
  0
VERTEX
  5
3FC
  8
0
 10
5.125460301897048
 20
8.37049212590854
 30
0.0
 42
0.4142135623730951
  0
SEQEND
  5
5C0
  8
0
  0
POLYLINE
  5
F1
  8
0
 66
     1
 10
0.0
 20
0.0
 30
0.0
 70
     1
  0
VERTEX
  5
3FD
  8
0
 10
4.477141666562106
 20
-2.857276119965183
 30
0.0
  0
VERTEX
  5
3FE
  8
0
 10
5.309246154484841
 20
-1.694548782174481
 30
0.0
 42
-0.7292836521262172
  0
VERTEX
  5
3FF
  8
0
 10
5.422571707050986
 20
-1.730922030671602
 30
0.0
  0
VERTEX
  5
400
  8
0
 10
5.422571707050983
 20
-2.728337943528318
 30
0.0
 42
-0.3578723778283734
  0
VERTEX
  5
401
  8
0
 10
5.372250363162232
 20
-2.789639903817315
 30
0.0
  0
VERTEX
  5
402
  8
0
 10
4.540145875239498
 20
-2.954951328751301
 30
0.0
 42
-0.6797639942567385
  0
SEQEND
  5
5C1
  8
0
  0
POLYLINE
  5
F2
  8
0
 66
     1
 10
0.0
 20
0.0
 30
0.0
 70
     1
  0
VERTEX
  5
403
  8
0
 10
2.165485933944922
 20
-1.436861876722858
 30
0.0
  0
VERTEX
  5
404
  8
0
 10
3.451006511773247
 20
-1.436861876722858
 30
0.0
 42
-0.3268748175894694
  0
VERTEX
  5
405
  8
0
 10
3.510582597150879
 20
-1.480469019579649
 30
0.0
 42
0.2140895195443154
  0
VERTEX
  5
406
  8
0
 10
3.95370423699101
 20
-1.976718904573815
 30
0.0
 42
-0.3108678928628357
  0
VERTEX
  5
407
  8
0
 10
3.99062034805821
 20
-2.037212889168693
 30
0.0
  0
VERTEX
  5
408
  8
0
 10
3.953740879566096
 20
-2.708583124474
 30
0.0
 42
-0.5878497639258756
  0
VERTEX
  5
409
  8
0
 10
3.855539427995003
 20
-2.756389132532414
 30
0.0
  0
VERTEX
  5
40A
  8
0
 10
2.129690398830958
 20
-1.550595944156465
 30
0.0
 42
-0.7336281531042995
  0
SEQEND
  5
5C2
  8
0
  0
POLYLINE
  5
F3
  8
0
 66
     1
 10
0.0
 20
0.0
 30
0.0
 70
     1
  0
VERTEX
  5
40B
  8
0
 10
5.990071707046445
 20
-1.186861876724858
 30
0.0
 42
0.4142135623730951
  0
VERTEX
  5
40C
  8
0
 10
5.672571707048986
 20
-0.8693618767273996
 30
0.0
  0
VERTEX
  5
40D
  8
0
 10
5.185300011429055
 20
-0.8693618767273996
 30
0.0
 42
-0.2346056059667043
  0
VERTEX
  5
40E
  8
0
 10
4.932359757767864
 20
-0.7437667439850397
 30
0.0
 42
0.4965407084259092
  0
VERTEX
  5
40F
  8
0
 10
3.637783656352306
 20
-0.7437667439850397
 30
0.0
 42
-0.2346056059667039
  0
VERTEX
  5
410
  8
0
 10
3.384843402691113
 20
-0.8693618767273996
 30
0.0
  0
VERTEX
  5
411
  8
0
 10
1.172571707084986
 20
-0.8693618767273996
 30
0.0
 42
0.7336281531042994
  0
VERTEX
  5
412
  8
0
 10
0.990730388706055
 20
-1.447130939290119
 30
0.0
  0
VERTEX
  5
413
  8
0
 10
2.879411921784417
 20
-2.766689770400864
 30
0.0
 42
-0.3354237857151521
  0
VERTEX
  5
414
  8
0
 10
2.997571155236734
 20
-3.130910354837299
 30
0.0
 42
0.4984263088705504
  0
VERTEX
  5
415
  8
0
 10
3.280180711968123
 20
-3.551885224883057
 30
0.0
  0
VERTEX
  5
416
  8
0
 10
4.155180711961124
 20
-3.599885224882675
 30
0.0
 42
0.0628112559203559
  0
VERTEX
  5
417
  8
0
 10
4.234439280103581
 20
-3.594275834976189
 30
0.0
  0
VERTEX
  5
418
  8
0
 10
5.73443928009158
 20
-3.296275834978575
 30
0.0
 42
0.3578723778283739
  0
VERTEX
  5
419
  8
0
 10
5.990071707046445
 20
-2.984861876710474
 30
0.0
  0
SEQEND
  5
5C3
  8
0
  0
POLYLINE
  5
F4
  8
0
 66
     1
 10
0.0
 20
0.0
 30
0.0
 70
     1
  0
VERTEX
  5
41A
  8
0
 10
4.722571707056586
 20
-1.234861876724475
 30
0.0
 42
0.4142135623730951
  0
VERTEX
  5
41B
  8
0
 10
4.285071707060082
 20
-0.7973618767279742
 30
0.0
 42
0.4142135623730951
  0
VERTEX
  5
41C
  8
0
 10
3.847571707063583
 20
-1.234861876724475
 30
0.0
 42
0.4142135623730951
  0
VERTEX
  5
41D
  8
0
 10
4.285071707060082
 20
-1.672361876720972
 30
0.0
 42
0.4142135623730951
  0
SEQEND
  5
5C4
  8
0
  0
POLYLINE
  5
F5
  8
0
 66
     1
 10
0.0
 20
0.0
 30
0.0
 70
     1
  0
VERTEX
  5
41E
  8
0
 10
3.397571707067184
 20
-3.234861876708473
 30
0.0
 42
0.4142135623730951
  0
VERTEX
  5
41F
  8
0
 10
3.297571707067986
 20
-3.134861876709275
 30
0.0
 42
0.4142135623730951
  0
VERTEX
  5
420
  8
0
 10
3.197571707068786
 20
-3.234861876708473
 30
0.0
 42
0.4142135623730951
  0
VERTEX
  5
421
  8
0
 10
3.297571707067986
 20
-3.334861876707672
 30
0.0
 42
0.4142135623730951
  0
SEQEND
  5
5C5
  8
0
  0
POLYLINE
  5
F6
  8
0
 66
     1
 10
0.0
 20
0.0
 30
0.0
 70
     1
  0
VERTEX
  5
422
  8
0
 10
5.772571707048185
 20
-2.984861876710474
 30
0.0
 42
0.4142135623730951
  0
VERTEX
  5
423
  8
0
 10
5.672571707048986
 20
-2.884861876711271
 30
0.0
 42
0.4142135623730951
  0
VERTEX
  5
424
  8
0
 10
5.572571707049784
 20
-2.984861876710474
 30
0.0
 42
0.4142135623730951
  0
VERTEX
  5
425
  8
0
 10
5.672571707048986
 20
-3.084861876709676
 30
0.0
 42
0.4142135623730951
  0
SEQEND
  5
5C6
  8
0
  0
POLYLINE
  5
F7
  8
0
 66
     1
 10
0.0
 20
0.0
 30
0.0
 70
     1
  0
VERTEX
  5
426
  8
0
 10
1.272571707084184
 20
-1.186861876724858
 30
0.0
 42
0.4142135623730951
  0
VERTEX
  5
427
  8
0
 10
1.172571707084986
 20
-1.086861876725658
 30
0.0
 42
0.4142135623730951
  0
VERTEX
  5
428
  8
0
 10
1.072571707085785
 20
-1.186861876724858
 30
0.0
 42
0.4142135623730951
  0
VERTEX
  5
429
  8
0
 10
1.172571707084986
 20
-1.286861876724059
 30
0.0
 42
0.4142135623730951
  0
SEQEND
  5
5C7
  8
0
  0
POLYLINE
  5
F8
  8
0
 66
     1
 10
0.0
 20
0.0
 30
0.0
 70
     1
  0
VERTEX
  5
42A
  8
0
 10
5.772571707048185
 20
-1.186861876724858
 30
0.0
 42
0.4142135623730951
  0
VERTEX
  5
42B
  8
0
 10
5.672571707048986
 20
-1.086861876725658
 30
0.0
 42
0.4142135623730951
  0
VERTEX
  5
42C
  8
0
 10
5.572571707049784
 20
-1.186861876724858
 30
0.0
 42
0.4142135623730951
  0
VERTEX
  5
42D
  8
0
 10
5.672571707048986
 20
-1.286861876724059
 30
0.0
 42
0.4142135623730951
  0
SEQEND
  5
5C8
  8
0
  0
POLYLINE
  5
F9
  8
0
 66
     1
 10
0.0
 20
0.0
 30
0.0
 70
     1
  0
VERTEX
  5
42E
  8
0
 10
4.302571707059945
 20
-3.282861876708088
 30
0.0
 42
0.4142135623730951
  0
VERTEX
  5
42F
  8
0
 10
4.172571707060984
 20
-3.152861876709128
 30
0.0
 42
0.4142135623730951
  0
VERTEX
  5
430
  8
0
 10
4.042571707062022
 20
-3.282861876708088
 30
0.0
 42
0.4142135623730951
  0
VERTEX
  5
431
  8
0
 10
4.172571707060984
 20
-3.412861876707048
 30
0.0
 42
0.4142135623730951
  0
SEQEND
  5
5C9
  8
0
  0
POLYLINE
  5
FA
  8
0
 66
     1
 10
0.0
 20
0.0
 30
0.0
 70
     1
  0
VERTEX
  5
432
  8
0
 10
5.750976907355186
 20
4.364038463379663
 30
0.0
  0
VERTEX
  5
433
  8
0
 10
4.588249569564484
 20
5.196142951302397
 30
0.0
 42
-0.7292836521262172
  0
VERTEX
  5
434
  8
0
 10
4.624622818061605
 20
5.309468503868542
 30
0.0
  0
VERTEX
  5
435
  8
0
 10
5.622038730918321
 20
5.309468503868539
 30
0.0
 42
-0.3578723778283734
  0
VERTEX
  5
436
  8
0
 10
5.683340691207318
 20
5.259147159979788
 30
0.0
  0
VERTEX
  5
437
  8
0
 10
5.848652116141304
 20
4.427042672057054
 30
0.0
 42
-0.6797639942567385
  0
SEQEND
  5
5CA
  8
0
  0
POLYLINE
  5
FB
  8
0
 66
     1
 10
0.0
 20
0.0
 30
0.0
 70
     1
  0
VERTEX
  5
438
  8
0
 10
4.330562664112859
 20
2.052382730762476
 30
0.0
  0
VERTEX
  5
439
  8
0
 10
4.330562664112859
 20
3.337903308590803
 30
0.0
 42
-0.3268748175894694
  0
VERTEX
  5
43A
  8
0
 10
4.374169806969652
 20
3.397479393968435
 30
0.0
 42
0.2140895195443154
  0
VERTEX
  5
43B
  8
0
 10
4.870419691963816
 20
3.840601033808566
 30
0.0
 42
-0.3108678928628357
  0
VERTEX
  5
43C
  8
0
 10
4.930913676558694
 20
3.877517144875766
 30
0.0
  0
VERTEX
  5
43D
  8
0
 10
5.602283911864001
 20
3.840637676383652
 30
0.0
 42
-0.5878497639258756
  0
VERTEX
  5
43E
  8
0
 10
5.650089919922413
 20
3.742436224812559
 30
0.0
  0
VERTEX
  5
43F
  8
0
 10
4.444296731546464
 20
2.016587195648514
 30
0.0
 42
-0.7336281531042995
  0
SEQEND
  5
5CB
  8
0
  0
POLYLINE
  5
FC
  8
0
 66
     1
 10
0.0
 20
0.0
 30
0.0
 70
     1
  0
VERTEX
  5
440
  8
0
 10
4.08056266411486
 20
5.876968503864001
 30
0.0
 42
0.4142135623730951
  0
VERTEX
  5
441
  8
0
 10
3.763062664117401
 20
5.559468503866542
 30
0.0
  0
VERTEX
  5
442
  8
0
 10
3.763062664117401
 20
5.072196808246611
 30
0.0
 42
-0.2346056059667043
  0
VERTEX
  5
443
  8
0
 10
3.637467531375043
 20
4.81925655458542
 30
0.0
 42
0.4965407084259092
  0
VERTEX
  5
444
  8
0
 10
3.637467531375043
 20
3.524680453169863
 30
0.0
 42
-0.2346056059667039
  0
VERTEX
  5
445
  8
0
 10
3.763062664117401
 20
3.271740199508669
 30
0.0
  0
VERTEX
  5
446
  8
0
 10
3.763062664117401
 20
1.059468503902542
 30
0.0
 42
0.7336281531042994
  0
VERTEX
  5
447
  8
0
 10
4.34083172668012
 20
0.8776271855236111
 30
0.0
  0
VERTEX
  5
448
  8
0
 10
5.660390557790867
 20
2.766308718601973
 30
0.0
 42
-0.3354237857151521
  0
VERTEX
  5
449
  8
0
 10
6.024611142227299
 20
2.88446795205429
 30
0.0
 42
0.4984263088705504
  0
VERTEX
  5
44A
  8
0
 10
6.445586012273059
 20
3.167077508785679
 30
0.0
  0
VERTEX
  5
44B
  8
0
 10
6.493586012272678
 20
4.04207750877868
 30
0.0
 42
0.0628112559203559
  0
VERTEX
  5
44C
  8
0
 10
6.487976622366192
 20
4.121336076921137
 30
0.0
  0
VERTEX
  5
44D
  8
0
 10
6.189976622368574
 20
5.621336076909136
 30
0.0
 42
0.3578723778283739
  0
VERTEX
  5
44E
  8
0
 10
5.878562664100473
 20
5.876968503864001
 30
0.0
  0
SEQEND
  5
5CC
  8
0
  0
POLYLINE
  5
FD
  8
0
 66
     1
 10
0.0
 20
0.0
 30
0.0
 70
     1
  0
VERTEX
  5
44F
  8
0
 10
4.128562664114474
 20
4.609468503874142
 30
0.0
 42
0.4142135623730951
  0
VERTEX
  5
450
  8
0
 10
3.691062664117975
 20
4.171968503877638
 30
0.0
 42
0.4142135623730951
  0
VERTEX
  5
451
  8
0
 10
4.128562664114474
 20
3.734468503881139
 30
0.0
 42
0.4142135623730951
  0
VERTEX
  5
452
  8
0
 10
4.566062664110975
 20
4.171968503877638
 30
0.0
 42
0.4142135623730951
  0
SEQEND
  5
5CD
  8
0
  0
POLYLINE
  5
FE
  8
0
 66
     1
 10
0.0
 20
0.0
 30
0.0
 70
     1
  0
VERTEX
  5
453
  8
0
 10
6.128562664098476
 20
3.284468503884741
 30
0.0
 42
0.4142135623730951
  0
VERTEX
  5
454
  8
0
 10
6.028562664099274
 20
3.184468503885542
 30
0.0
 42
0.4142135623730951
  0
VERTEX
  5
455
  8
0
 10
6.128562664098476
 20
3.084468503886342
 30
0.0
 42
0.4142135623730951
  0
VERTEX
  5
456
  8
0
 10
6.228562664097675
 20
3.184468503885542
 30
0.0
 42
0.4142135623730951
  0
SEQEND
  5
5CE
  8
0
  0
POLYLINE
  5
FF
  8
0
 66
     1
 10
0.0
 20
0.0
 30
0.0
 70
     1
  0
VERTEX
  5
457
  8
0
 10
5.878562664100473
 20
5.659468503865741
 30
0.0
 42
0.4142135623730951
  0
VERTEX
  5
458
  8
0
 10
5.778562664101274
 20
5.559468503866542
 30
0.0
 42
0.4142135623730951
  0
VERTEX
  5
459
  8
0
 10
5.878562664100473
 20
5.45946850386734
 30
0.0
 42
0.4142135623730951
  0
VERTEX
  5
45A
  8
0
 10
5.978562664099675
 20
5.559468503866542
 30
0.0
 42
0.4142135623730951
  0
SEQEND
  5
5CF
  8
0
  0
POLYLINE
  5
100
  8
0
 66
     1
 10
0.0
 20
0.0
 30
0.0
 70
     1
  0
VERTEX
  5
45B
  8
0
 10
4.08056266411486
 20
1.15946850390174
 30
0.0
 42
0.4142135623730951
  0
VERTEX
  5
45C
  8
0
 10
3.980562664115659
 20
1.059468503902542
 30
0.0
 42
0.4142135623730951
  0
VERTEX
  5
45D
  8
0
 10
4.08056266411486
 20
0.9594685039033415
 30
0.0
 42
0.4142135623730951
  0
VERTEX
  5
45E
  8
0
 10
4.180562664114058
 20
1.059468503902542
 30
0.0
 42
0.4142135623730951
  0
SEQEND
  5
5D0
  8
0
  0
POLYLINE
  5
101
  8
0
 66
     1
 10
0.0
 20
0.0
 30
0.0
 70
     1
  0
VERTEX
  5
45F
  8
0
 10
4.08056266411486
 20
5.659468503865741
 30
0.0
 42
0.4142135623730951
  0
VERTEX
  5
460
  8
0
 10
3.980562664115659
 20
5.559468503866542
 30
0.0
 42
0.4142135623730951
  0
VERTEX
  5
461
  8
0
 10
4.08056266411486
 20
5.45946850386734
 30
0.0
 42
0.4142135623730951
  0
VERTEX
  5
462
  8
0
 10
4.180562664114058
 20
5.559468503866542
 30
0.0
 42
0.4142135623730951
  0
SEQEND
  5
5D1
  8
0
  0
POLYLINE
  5
102
  8
0
 66
     1
 10
0.0
 20
0.0
 30
0.0
 70
     1
  0
VERTEX
  5
463
  8
0
 10
6.176562664098091
 20
4.189468503877501
 30
0.0
 42
0.4142135623730951
  0
VERTEX
  5
464
  8
0
 10
6.046562664099129
 20
4.05946850387854
 30
0.0
 42
0.4142135623730951
  0
VERTEX
  5
465
  8
0
 10
6.176562664098091
 20
3.92946850387958
 30
0.0
 42
0.4142135623730951
  0
VERTEX
  5
466
  8
0
 10
6.306562664097049
 20
4.05946850387854
 30
0.0
 42
0.4142135623730951
  0
SEQEND
  5
5D2
  8
0
  0
POLYLINE
  5
103
  8
0
 66
     1
 10
0.0
 20
0.0
 30
0.0
 70
     1
  0
VERTEX
  5
467
  8
0
 10
1.85895295900478
 20
-4.654627350413037
 30
0.0
 42
0.200275232210231
  0
VERTEX
  5
468
  8
0
 10
1.85895295900478
 20
-4.847179291782769
 30
0.0
 42
0.3024867688638771
  0
VERTEX
  5
469
  8
0
 10
3.214538950448771
 20
-5.750903286078765
 30
0.0
 42
0.1107700595863796
  0
VERTEX
  5
46A
  8
0
 10
3.32132619610795
 20
-5.727011096313186
 30
0.0
 42
-0.2652072234382152
  0
VERTEX
  5
46B
  8
0
 10
6.305361136340236
 20
-5.959418477692473
 30
0.0
 42
0.4717097097040647
  0
VERTEX
  5
46C
  8
0
 10
6.728191808637126
 20
-5.835394640004527
 30
0.0
 42
0.4717097097040644
  0
VERTEX
  5
46D
  8
0
 10
6.525665459462095
 20
-5.444049820644773
 30
0.0
 42
-0.8079016387229581
  0
VERTEX
  5
46E
  8
0
 10
6.525665459462095
 20
-4.057756821551033
 30
0.0
 42
0.4717097097040654
  0
VERTEX
  5
46F
  8
0
 10
6.728191808637126
 20
-3.666412002191278
 30
0.0
 42
0.4717097097040643
  0
VERTEX
  5
470
  8
0
 10
6.305361136340236
 20
-3.542388164503331
 30
0.0
 42
-0.2652072234382151
  0
VERTEX
  5
471
  8
0
 10
3.32132619610795
 20
-3.77479554588262
 30
0.0
 42
0.1107700595863799
  0
VERTEX
  5
472
  8
0
 10
3.214538950448771
 20
-3.750903356117041
 30
0.0
 42
0.302486768863877
  0
SEQEND
  5
5D3
  8
0
  0
POLYLINE
  5
104
  8
0
 66
     1
 10
0.0
 20
0.0
 30
0.0
 70
     1
  0
VERTEX
  5
473
  8
0
 10
6.367671266601489
 20
-5.723175145225516
 30
0.0
 42
0.4142135623730951
  0
VERTEX
  5
474
  8
0
 10
6.465671266601097
 20
-5.821175145225123
 30
0.0
 42
0.4142135623730951
  0
VERTEX
  5
475
  8
0
 10
6.563671266600705
 20
-5.723175145225516
 30
0.0
 42
0.4142135623730951
  0
VERTEX
  5
476
  8
0
 10
6.465671266601097
 20
-5.625175145225908
 30
0.0
 42
0.4142135623730951
  0
SEQEND
  5
5D4
  8
0
  0
POLYLINE
  5
105
  8
0
 66
     1
 10
0.0
 20
0.0
 30
0.0
 70
     1
  0
VERTEX
  5
477
  8
0
 10
6.367671266601489
 20
-3.77863149697029
 30
0.0
 42
0.4142135623730951
  0
VERTEX
  5
478
  8
0
 10
6.465671266601097
 20
-3.876631496969898
 30
0.0
 42
0.4142135623730951
  0
VERTEX
  5
479
  8
0
 10
6.563671266600705
 20
-3.77863149697029
 30
0.0
 42
0.4142135623730951
  0
VERTEX
  5
47A
  8
0
 10
6.465671266601097
 20
-3.680631496970681
 30
0.0
 42
0.4142135623730951
  0
SEQEND
  5
5D5
  8
0
  0
POLYLINE
  5
106
  8
0
 66
     1
 10
0.0
 20
0.0
 30
0.0
 70
     1
  0
VERTEX
  5
47B
  8
0
 10
3.114671266614502
 20
-5.500903321094903
 30
0.0
 42
0.4142135623730951
  0
VERTEX
  5
47C
  8
0
 10
3.214671266614101
 20
-5.600903321094503
 30
0.0
 42
0.4142135623730951
  0
VERTEX
  5
47D
  8
0
 10
3.314671266613701
 20
-5.500903321094903
 30
0.0
 42
0.4142135623730951
  0
VERTEX
  5
47E
  8
0
 10
3.214671266614101
 20
-5.400903321095305
 30
0.0
 42
0.4142135623730951
  0
SEQEND
  5
5D6
  8
0
  0
POLYLINE
  5
107
  8
0
 66
     1
 10
0.0
 20
0.0
 30
0.0
 70
     1
  0
VERTEX
  5
47F
  8
0
 10
3.114671266614502
 20
-4.000903321100903
 30
0.0
 42
0.4142135623730951
  0
VERTEX
  5
480
  8
0
 10
3.214671266614101
 20
-4.100903321100501
 30
0.0
 42
0.4142135623730951
  0
VERTEX
  5
481
  8
0
 10
3.314671266613701
 20
-4.000903321100903
 30
0.0
 42
0.4142135623730951
  0
VERTEX
  5
482
  8
0
 10
3.214671266614101
 20
-3.900903321101303
 30
0.0
 42
0.4142135623730951
  0
SEQEND
  5
5D7
  8
0
  0
POLYLINE
  5
108
  8
0
 66
     1
 10
0.0
 20
0.0
 30
0.0
 70
     1
  0
VERTEX
  5
483
  8
0
 10
1.989671266619002
 20
-4.750903321097903
 30
0.0
 42
0.4142135623730951
  0
VERTEX
  5
484
  8
0
 10
2.0896712666186
 20
-4.850903321097503
 30
0.0
 42
0.4142135623730951
  0
VERTEX
  5
485
  8
0
 10
2.1896712666182
 20
-4.750903321097903
 30
0.0
 42
0.4142135623730951
  0
VERTEX
  5
486
  8
0
 10
2.0896712666186
 20
-4.650903321098303
 30
0.0
 42
0.4142135623730951
  0
SEQEND
  5
5D8
  8
0
  0
POLYLINE
  5
109
  8
0
 66
     1
 10
0.0
 20
0.0
 30
0.0
 70
     1
  0
VERTEX
  5
487
  8
0
 10
2.40217126661735
 20
-4.750903321097903
 30
0.0
 42
0.4142135623730951
  0
VERTEX
  5
488
  8
0
 10
2.964671266615101
 20
-5.313403321095652
 30
0.0
 42
0.4142135623730951
  0
VERTEX
  5
489
  8
0
 10
3.527171266612852
 20
-4.750903321097903
 30
0.0
 42
0.4142135623730951
  0
VERTEX
  5
48A
  8
0
 10
2.964671266615101
 20
-4.188403321100154
 30
0.0
 42
0.4142135623730951
  0
SEQEND
  5
5D9
  8
0
  0
POLYLINE
  5
10A
  8
0
 66
     1
 10
0.0
 20
0.0
 30
0.0
 70
     1
  0
VERTEX
  5
48B
  8
0
 10
5.756989555133037
 20
-11.02321872723222
 30
0.0
 42
0.200275232210231
  0
VERTEX
  5
48C
  8
0
 10
5.94954149650277
 20
-11.02321872723222
 30
0.0
 42
0.3024867688638771
  0
VERTEX
  5
48D
  8
0
 10
6.853265490798767
 20
-9.667632735788224
 30
0.0
 42
0.1107700595863796
  0
VERTEX
  5
48E
  8
0
 10
6.829373301033185
 20
-9.560845490129044
 30
0.0
 42
-0.2652072234382152
  0
VERTEX
  5
48F
  8
0
 10
7.061780682412474
 20
-6.576810549896759
 30
0.0
 42
0.4717097097040647
  0
VERTEX
  5
490
  8
0
 10
6.937756844724527
 20
-6.15397987759987
 30
0.0
 42
0.4717097097040644
  0
VERTEX
  5
491
  8
0
 10
6.546412025364772
 20
-6.356506226774901
 30
0.0
 42
-0.8079016387229581
  0
VERTEX
  5
492
  8
0
 10
5.160119026271031
 20
-6.3565062267749
 30
0.0
 42
0.4717097097040654
  0
VERTEX
  5
493
  8
0
 10
4.76877420691128
 20
-6.153979877599868
 30
0.0
 42
0.4717097097040643
  0
VERTEX
  5
494
  8
0
 10
4.644750369223329
 20
-6.576810549896758
 30
0.0
 42
-0.2652072234382151
  0
VERTEX
  5
495
  8
0
 10
4.877157750602619
 20
-9.560845490129044
 30
0.0
 42
0.1107700595863799
  0
VERTEX
  5
496
  8
0
 10
4.853265560837043
 20
-9.667632735788224
 30
0.0
 42
0.302486768863877
  0
SEQEND
  5
5DA
  8
0
  0
POLYLINE
  5
10B
  8
0
 66
     1
 10
0.0
 20
0.0
 30
0.0
 70
     1
  0
VERTEX
  5
497
  8
0
 10
6.825537349945519
 20
-6.514500419635507
 30
0.0
 42
0.4142135623730951
  0
VERTEX
  5
498
  8
0
 10
6.923537349945123
 20
-6.416500419635899
 30
0.0
 42
0.4142135623730951
  0
VERTEX
  5
499
  8
0
 10
6.825537349945519
 20
-6.31850041963629
 30
0.0
 42
0.4142135623730951
  0
VERTEX
  5
49A
  8
0
 10
6.72753734994591
 20
-6.416500419635899
 30
0.0
 42
0.4142135623730951
  0
SEQEND
  5
5DB
  8
0
  0
POLYLINE
  5
10C
  8
0
 66
     1
 10
0.0
 20
0.0
 30
0.0
 70
     1
  0
VERTEX
  5
49B
  8
0
 10
4.880993701690292
 20
-6.514500419635506
 30
0.0
 42
0.4142135623730951
  0
VERTEX
  5
49C
  8
0
 10
4.9789937016899
 20
-6.416500419635899
 30
0.0
 42
0.4142135623730951
  0
VERTEX
  5
49D
  8
0
 10
4.880993701690292
 20
-6.31850041963629
 30
0.0
 42
0.4142135623730951
  0
VERTEX
  5
49E
  8
0
 10
4.782993701690684
 20
-6.416500419635899
 30
0.0
 42
0.4142135623730951
  0
SEQEND
  5
5DC
  8
0
  0
POLYLINE
  5
10D
  8
0
 66
     1
 10
0.0
 20
0.0
 30
0.0
 70
     1
  0
VERTEX
  5
49F
  8
0
 10
6.603265525814903
 20
-9.767500419622493
 30
0.0
 42
0.4142135623730951
  0
VERTEX
  5
4A0
  8
0
 10
6.703265525814503
 20
-9.667500419622893
 30
0.0
 42
0.4142135623730951
  0
VERTEX
  5
4A1
  8
0
 10
6.603265525814903
 20
-9.567500419623293
 30
0.0
 42
0.4142135623730951
  0
VERTEX
  5
4A2
  8
0
 10
6.503265525815307
 20
-9.667500419622893
 30
0.0
 42
0.4142135623730951
  0
SEQEND
  5
5DD
  8
0
  0
POLYLINE
  5
10E
  8
0
 66
     1
 10
0.0
 20
0.0
 30
0.0
 70
     1
  0
VERTEX
  5
4A3
  8
0
 10
5.103265525820904
 20
-9.767500419622493
 30
0.0
 42
0.4142135623730951
  0
VERTEX
  5
4A4
  8
0
 10
5.203265525820504
 20
-9.667500419622893
 30
0.0
 42
0.4142135623730951
  0
VERTEX
  5
4A5
  8
0
 10
5.103265525820904
 20
-9.567500419623293
 30
0.0
 42
0.4142135623730951
  0
VERTEX
  5
4A6
  8
0
 10
5.003265525821304
 20
-9.667500419622893
 30
0.0
 42
0.4142135623730951
  0
SEQEND
  5
5DE
  8
0
  0
POLYLINE
  5
10F
  8
0
 66
     1
 10
0.0
 20
0.0
 30
0.0
 70
     1
  0
VERTEX
  5
4A7
  8
0
 10
5.853265525817902
 20
-10.89250041961799
 30
0.0
 42
0.4142135623730951
  0
VERTEX
  5
4A8
  8
0
 10
5.953265525817505
 20
-10.79250041961839
 30
0.0
 42
0.4142135623730951
  0
VERTEX
  5
4A9
  8
0
 10
5.853265525817902
 20
-10.69250041961879
 30
0.0
 42
0.4142135623730951
  0
VERTEX
  5
4AA
  8
0
 10
5.753265525818305
 20
-10.79250041961839
 30
0.0
 42
0.4142135623730951
  0
SEQEND
  5
5DF
  8
0
  0
POLYLINE
  5
110
  8
0
 66
     1
 10
0.0
 20
0.0
 30
0.0
 70
     1
  0
VERTEX
  5
4AB
  8
0
 10
5.853265525817902
 20
-10.48000041961964
 30
0.0
 42
0.4142135623730951
  0
VERTEX
  5
4AC
  8
0
 10
6.415765525815653
 20
-9.917500419621891
 30
0.0
 42
0.4142135623730951
  0
VERTEX
  5
4AD
  8
0
 10
5.853265525817902
 20
-9.355000419624144
 30
0.0
 42
0.4142135623730951
  0
VERTEX
  5
4AE
  8
0
 10
5.290765525820154
 20
-9.917500419621891
 30
0.0
 42
0.4142135623730951
  0
SEQEND
  5
5E0
  8
0
  0
POLYLINE
  5
111
  8
0
 66
     1
 10
0.0
 20
0.0
 30
0.0
 70
     1
  0
VERTEX
  5
4AF
  8
0
 10
6.402297402012769
 20
11.05443286771522
 30
0.0
 42
0.200275232210231
  0
VERTEX
  5
4B0
  8
0
 10
6.209745460643033
 20
11.05443286771522
 30
0.0
 42
0.3024867688638771
  0
VERTEX
  5
4B1
  8
0
 10
5.306021466347039
 20
9.698846876271228
 30
0.0
 42
0.1107700595863796
  0
VERTEX
  5
4B2
  8
0
 10
5.329913656112618
 20
9.592059630612047
 30
0.0
 42
-0.2652072234382152
  0
VERTEX
  5
4B3
  8
0
 10
5.097506274733332
 20
6.608024690379763
 30
0.0
 42
0.4717097097040647
  0
VERTEX
  5
4B4
  8
0
 10
5.221530112421275
 20
6.185194018082873
 30
0.0
 42
0.4717097097040644
  0
VERTEX
  5
4B5
  8
0
 10
5.612874931781031
 20
6.387720367257904
 30
0.0
 42
-0.8079016387229581
  0
VERTEX
  5
4B6
  8
0
 10
6.999167930874771
 20
6.387720367257904
 30
0.0
 42
0.4717097097040654
  0
VERTEX
  5
4B7
  8
0
 10
7.390512750234526
 20
6.185194018082873
 30
0.0
 42
0.4717097097040643
  0
VERTEX
  5
4B8
  8
0
 10
7.514536587922473
 20
6.608024690379763
 30
0.0
 42
-0.2652072234382151
  0
VERTEX
  5
4B9
  8
0
 10
7.282129206543184
 20
9.592059630612047
 30
0.0
 42
0.1107700595863799
  0
VERTEX
  5
4BA
  8
0
 10
7.306021396308763
 20
9.698846876271228
 30
0.0
 42
0.302486768863877
  0
SEQEND
  5
5E1
  8
0
  0
POLYLINE
  5
112
  8
0
 66
     1
 10
0.0
 20
0.0
 30
0.0
 70
     1
  0
VERTEX
  5
4BB
  8
0
 10
5.333749607200287
 20
6.54571456011851
 30
0.0
 42
0.4142135623730951
  0
VERTEX
  5
4BC
  8
0
 10
5.235749607200679
 20
6.447714560118902
 30
0.0
 42
0.4142135623730951
  0
VERTEX
  5
4BD
  8
0
 10
5.333749607200287
 20
6.349714560119294
 30
0.0
 42
0.4142135623730951
  0
VERTEX
  5
4BE
  8
0
 10
5.431749607199896
 20
6.447714560118902
 30
0.0
 42
0.4142135623730951
  0
SEQEND
  5
5E2
  8
0
  0
POLYLINE
  5
113
  8
0
 66
     1
 10
0.0
 20
0.0
 30
0.0
 70
     1
  0
VERTEX
  5
4BF
  8
0
 10
7.278293255455514
 20
6.54571456011851
 30
0.0
 42
0.4142135623730951
  0
VERTEX
  5
4C0
  8
0
 10
7.180293255455906
 20
6.447714560118902
 30
0.0
 42
0.4142135623730951
  0
VERTEX
  5
4C1
  8
0
 10
7.278293255455514
 20
6.349714560119294
 30
0.0
 42
0.4142135623730951
  0
VERTEX
  5
4C2
  8
0
 10
7.376293255455122
 20
6.447714560118902
 30
0.0
 42
0.4142135623730951
  0
SEQEND
  5
5E3
  8
0
  0
POLYLINE
  5
114
  8
0
 66
     1
 10
0.0
 20
0.0
 30
0.0
 70
     1
  0
VERTEX
  5
4C3
  8
0
 10
5.556021431330903
 20
9.798714560105497
 30
0.0
 42
0.4142135623730951
  0
VERTEX
  5
4C4
  8
0
 10
5.456021431331299
 20
9.698714560105897
 30
0.0
 42
0.4142135623730951
  0
VERTEX
  5
4C5
  8
0
 10
5.556021431330903
 20
9.598714560106297
 30
0.0
 42
0.4142135623730951
  0
VERTEX
  5
4C6
  8
0
 10
5.656021431330499
 20
9.698714560105897
 30
0.0
 42
0.4142135623730951
  0
SEQEND
  5
5E4
  8
0
  0
POLYLINE
  5
115
  8
0
 66
     1
 10
0.0
 20
0.0
 30
0.0
 70
     1
  0
VERTEX
  5
4C7
  8
0
 10
7.056021431324899
 20
9.798714560105497
 30
0.0
 42
0.4142135623730951
  0
VERTEX
  5
4C8
  8
0
 10
6.956021431325302
 20
9.698714560105897
 30
0.0
 42
0.4142135623730951
  0
VERTEX
  5
4C9
  8
0
 10
7.056021431324899
 20
9.598714560106297
 30
0.0
 42
0.4142135623730951
  0
VERTEX
  5
4CA
  8
0
 10
7.156021431324502
 20
9.698714560105897
 30
0.0
 42
0.4142135623730951
  0
SEQEND
  5
5E5
  8
0
  0
POLYLINE
  5
116
  8
0
 66
     1
 10
0.0
 20
0.0
 30
0.0
 70
     1
  0
VERTEX
  5
4CB
  8
0
 10
6.306021431327901
 20
10.923714560101
 30
0.0
 42
0.4142135623730951
  0
VERTEX
  5
4CC
  8
0
 10
6.206021431328301
 20
10.8237145601014
 30
0.0
 42
0.4142135623730951
  0
VERTEX
  5
4CD
  8
0
 10
6.306021431327901
 20
10.7237145601018
 30
0.0
 42
0.4142135623730951
  0
VERTEX
  5
4CE
  8
0
 10
6.406021431327501
 20
10.8237145601014
 30
0.0
 42
0.4142135623730951
  0
SEQEND
  5
5E6
  8
0
  0
POLYLINE
  5
117
  8
0
 66
     1
 10
0.0
 20
0.0
 30
0.0
 70
     1
  0
VERTEX
  5
4CF
  8
0
 10
6.306021431327901
 20
10.51121456010265
 30
0.0
 42
0.4142135623730951
  0
VERTEX
  5
4D0
  8
0
 10
5.74352143133015
 20
9.948714560104895
 30
0.0
 42
0.4142135623730951
  0
VERTEX
  5
4D1
  8
0
 10
6.306021431327901
 20
9.386214560107147
 30
0.0
 42
0.4142135623730951
  0
VERTEX
  5
4D2
  8
0
 10
6.868521431325652
 20
9.948714560104895
 30
0.0
 42
0.4142135623730951
  0
SEQEND
  5
5E7
  8
0
  0
POLYLINE
  5
118
  8
0
 66
     1
 10
0.0
 20
0.0
 30
0.0
 70
     1
  0
VERTEX
  5
4D3
  8
0
 10
4.686082488714364
 20
-0.1947466846696599
 30
0.0
 42
0.200275232210231
  0
VERTEX
  5
4D4
  8
0
 10
4.822237272187534
 20
-0.3309014681428319
 30
0.0
 42
0.3024867688638771
  0
VERTEX
  5
4D5
  8
0
 10
6.419810683906762
 20
-0.0113867857989884
 30
0.0
 42
0.1107700595863796
  0
VERTEX
  5
4D6
  8
0
 10
6.478426340055966
 20
0.0810175291514881
 30
0.0
 42
-0.2652072234382152
  0
VERTEX
  5
4D7
  8
0
 10
8.75279451696291
 20
2.026712035316228
 30
0.0
 42
0.4717097097040647
  0
VERTEX
  5
4D8
  8
0
 10
8.96408285597978
 20
2.413396567648952
 30
0.0
 42
0.4717097097040644
  0
VERTEX
  5
4D9
  8
0
 10
8.544152525557655
 20
2.546911388329841
 30
0.0
 42
-0.8079016387229581
  0
VERTEX
  5
4DA
  8
0
 10
7.563895345187037
 20
3.527168568700461
 30
0.0
 42
0.4717097097040654
  0
VERTEX
  5
4DB
  8
0
 10
7.430380524506147
 20
3.947098899122588
 30
0.0
 42
0.4717097097040643
  0
VERTEX
  5
4DC
  8
0
 10
7.043695992173424
 20
3.735810560105717
 30
0.0
 42
-0.2652072234382151
  0
VERTEX
  5
4DD
  8
0
 10
5.098001486008682
 20
1.46144238319877
 30
0.0
 42
0.1107700595863799
  0
VERTEX
  5
4DE
  8
0
 10
5.005597171058207
 20
1.402826727049566
 30
0.0
 42
0.302486768863877
  0
SEQEND
  5
5E8
  8
0
  0
POLYLINE
  5
119
  8
0
 66
     1
 10
0.0
 20
0.0
 30
0.0
 70
     1
  0
VERTEX
  5
4DF
  8
0
 10
8.629805170209766
 20
2.237821213358071
 30
0.0
 42
0.4142135623730951
  0
VERTEX
  5
4E0
  8
0
 10
8.768398099321773
 20
2.237821213358071
 30
0.0
 42
0.4142135623730951
  0
VERTEX
  5
4E1
  8
0
 10
8.768398099321777
 20
2.376414142470081
 30
0.0
 42
0.4142135623730951
  0
VERTEX
  5
4E2
  8
0
 10
8.629805170209766
 20
2.376414142470081
 30
0.0
 42
0.4142135623730951
  0
SEQEND
  5
5E9
  8
0
  0
POLYLINE
  5
11A
  8
0
 66
     1
 10
0.0
 20
0.0
 30
0.0
 70
     1
  0
VERTEX
  5
4E3
  8
0
 10
7.254805170215269
 20
3.61282121335257
 30
0.0
 42
0.4142135623730951
  0
VERTEX
  5
4E4
  8
0
 10
7.393398099327277
 20
3.61282121335257
 30
0.0
 42
0.4142135623730951
  0
VERTEX
  5
4E5
  8
0
 10
7.393398099327277
 20
3.751414142464579
 30
0.0
 42
0.4142135623730951
  0
VERTEX
  5
4E6
  8
0
 10
7.254805170215265
 20
3.751414142464579
 30
0.0
 42
0.4142135623730951
  0
SEQEND
  5
5EA
  8
0
  0
POLYLINE
  5
11B
  8
0
 66
     1
 10
0.0
 20
0.0
 30
0.0
 70
     1
  0
VERTEX
  5
4E7
  8
0
 10
6.172416896909668
 20
0.0947727682768953
 30
0.0
 42
0.4142135623730951
  0
VERTEX
  5
4E8
  8
0
 10
6.313838253146413
 20
0.0947727682768935
 30
0.0
 42
0.4142135623730951
  0
VERTEX
  5
4E9
  8
0
 10
6.313838253146413
 20
0.2361941245136379
 30
0.0
 42
0.4142135623730951
  0
VERTEX
  5
4EA
  8
0
 10
6.172416896909668
 20
0.2361941245136361
 30
0.0
 42
0.4142135623730951
  0
SEQEND
  5
5EB
  8
0
  0
POLYLINE
  5
11C
  8
0
 66
     1
 10
0.0
 20
0.0
 30
0.0
 70
     1
  0
VERTEX
  5
4EB
  8
0
 10
5.111756725134091
 20
1.155432940052473
 30
0.0
 42
0.4142135623730951
  0
VERTEX
  5
4EC
  8
0
 10
5.253178081370832
 20
1.155432940052473
 30
0.0
 42
0.4142135623730951
  0
VERTEX
  5
4ED
  8
0
 10
5.253178081370832
 20
1.296854296289215
 30
0.0
 42
0.4142135623730951
  0
VERTEX
  5
4EE
  8
0
 10
5.111756725134088
 20
1.296854296289217
 30
0.0
 42
0.4142135623730951
  0
SEQEND
  5
5EC
  8
0
  0
POLYLINE
  5
11D
  8
0
 66
     1
 10
0.0
 20
0.0
 30
0.0
 70
     1
  0
VERTEX
  5
4EF
  8
0
 10
4.846591682190196
 20
-0.1703922746669999
 30
0.0
 42
0.4142135623730951
  0
VERTEX
  5
4F0
  8
0
 10
4.988013038426937
 20
-0.1703922746669999
 30
0.0
 42
0.4142135623730951
  0
VERTEX
  5
4F1
  8
0
 10
4.98801303842694
 20
-0.0289709184302573
 30
0.0
 42
0.4142135623730951
  0
VERTEX
  5
4F2
  8
0
 10
4.846591682190196
 20
-0.0289709184302573
 30
0.0
 42
0.4142135623730951
  0
SEQEND
  5
5ED
  8
0
  0
POLYLINE
  5
11E
  8
0
 66
     1
 10
0.0
 20
0.0
 30
0.0
 70
     1
  0
VERTEX
  5
4F3
  8
0
 10
5.13827322942848
 20
0.121289272571282
 30
0.0
 42
0.4142135623730951
  0
VERTEX
  5
4F4
  8
0
 10
5.933768358260162
 20
0.1212892725712837
 30
0.0
 42
0.4142135623730951
  0
VERTEX
  5
4F5
  8
0
 10
5.933768358260162
 20
0.9167844014029658
 30
0.0
 42
0.4142135623730951
  0
VERTEX
  5
4F6
  8
0
 10
5.13827322942848
 20
0.9167844014029676
 30
0.0
 42
0.4142135623730951
  0
SEQEND
  5
5EE
  8
0
  0
POLYLINE
  5
11F
  8
0
 66
     1
 10
0.0
 20
0.0
 30
0.0
 70
     1
  0
VERTEX
  5
4F7
  8
0
 10
7.607383255913037
 20
-6.082273845362216
 30
0.0
 42
0.200275232210231
  0
VERTEX
  5
4F8
  8
0
 10
7.799935197282769
 20
-6.082273845362216
 30
0.0
 42
0.3024867688638771
  0
VERTEX
  5
4F9
  8
0
 10
8.703659191578764
 20
-4.726687853918224
 30
0.0
 42
0.1107700595863796
  0
VERTEX
  5
4FA
  8
0
 10
8.679767001813188
 20
-4.619900608259044
 30
0.0
 42
-0.2652072234382152
  0
VERTEX
  5
4FB
  8
0
 10
8.912174383192474
 20
-1.63586566802676
 30
0.0
 42
0.4717097097040647
  0
VERTEX
  5
4FC
  8
0
 10
8.788150545504527
 20
-1.213034995729871
 30
0.0
 42
0.4717097097040644
  0
VERTEX
  5
4FD
  8
0
 10
8.396805726144775
 20
-1.415561344904901
 30
0.0
 42
-0.8079016387229581
  0
VERTEX
  5
4FE
  8
0
 10
7.010512727051035
 20
-1.415561344904901
 30
0.0
 42
0.4717097097040654
  0
VERTEX
  5
4FF
  8
0
 10
6.619167907691276
 20
-1.213034995729869
 30
0.0
 42
0.4717097097040643
  0
VERTEX
  5
500
  8
0
 10
6.495144070003333
 20
-1.635865668026758
 30
0.0
 42
-0.2652072234382151
  0
VERTEX
  5
501
  8
0
 10
6.727551451382622
 20
-4.619900608259044
 30
0.0
 42
0.1107700595863799
  0
VERTEX
  5
502
  8
0
 10
6.703659261617039
 20
-4.726687853918224
 30
0.0
 42
0.302486768863877
  0
SEQEND
  5
5EF
  8
0
  0
POLYLINE
  5
120
  8
0
 66
     1
 10
0.0
 20
0.0
 30
0.0
 70
     1
  0
VERTEX
  5
503
  8
0
 10
8.675931050725515
 20
-1.573555537765507
 30
0.0
 42
0.4142135623730951
  0
VERTEX
  5
504
  8
0
 10
8.773931050725123
 20
-1.475555537765899
 30
0.0
 42
0.4142135623730951
  0
VERTEX
  5
505
  8
0
 10
8.675931050725515
 20
-1.377555537766291
 30
0.0
 42
0.4142135623730951
  0
VERTEX
  5
506
  8
0
 10
8.577931050725907
 20
-1.475555537765899
 30
0.0
 42
0.4142135623730951
  0
SEQEND
  5
5F0
  8
0
  0
POLYLINE
  5
121
  8
0
 66
     1
 10
0.0
 20
0.0
 30
0.0
 70
     1
  0
VERTEX
  5
507
  8
0
 10
6.731387402470288
 20
-1.573555537765507
 30
0.0
 42
0.4142135623730951
  0
VERTEX
  5
508
  8
0
 10
6.829387402469896
 20
-1.475555537765899
 30
0.0
 42
0.4142135623730951
  0
VERTEX
  5
509
  8
0
 10
6.731387402470288
 20
-1.377555537766291
 30
0.0
 42
0.4142135623730951
  0
VERTEX
  5
50A
  8
0
 10
6.63338740247068
 20
-1.475555537765899
 30
0.0
 42
0.4142135623730951
  0
SEQEND
  5
5F1
  8
0
  0
POLYLINE
  5
122
  8
0
 66
     1
 10
0.0
 20
0.0
 30
0.0
 70
     1
  0
VERTEX
  5
50B
  8
0
 10
8.453659226594903
 20
-4.826555537752493
 30
0.0
 42
0.4142135623730951
  0
VERTEX
  5
50C
  8
0
 10
8.553659226594503
 20
-4.726555537752894
 30
0.0
 42
0.4142135623730951
  0
VERTEX
  5
50D
  8
0
 10
8.453659226594903
 20
-4.626555537753294
 30
0.0
 42
0.4142135623730951
  0
VERTEX
  5
50E
  8
0
 10
8.353659226595303
 20
-4.726555537752894
 30
0.0
 42
0.4142135623730951
  0
SEQEND
  5
5F2
  8
0
  0
POLYLINE
  5
123
  8
0
 66
     1
 10
0.0
 20
0.0
 30
0.0
 70
     1
  0
VERTEX
  5
50F
  8
0
 10
6.953659226600903
 20
-4.826555537752493
 30
0.0
 42
0.4142135623730951
  0
VERTEX
  5
510
  8
0
 10
7.0536592266005
 20
-4.726555537752894
 30
0.0
 42
0.4142135623730951
  0
VERTEX
  5
511
  8
0
 10
6.953659226600903
 20
-4.626555537753294
 30
0.0
 42
0.4142135623730951
  0
VERTEX
  5
512
  8
0
 10
6.853659226601303
 20
-4.726555537752894
 30
0.0
 42
0.4142135623730951
  0
SEQEND
  5
5F3
  8
0
  0
POLYLINE
  5
124
  8
0
 66
     1
 10
0.0
 20
0.0
 30
0.0
 70
     1
  0
VERTEX
  5
513
  8
0
 10
7.703659226597905
 20
-5.951555537747993
 30
0.0
 42
0.4142135623730951
  0
VERTEX
  5
514
  8
0
 10
7.803659226597501
 20
-5.851555537748394
 30
0.0
 42
0.4142135623730951
  0
VERTEX
  5
515
  8
0
 10
7.703659226597905
 20
-5.751555537748794
 30
0.0
 42
0.4142135623730951
  0
VERTEX
  5
516
  8
0
 10
7.603659226598301
 20
-5.851555537748394
 30
0.0
 42
0.4142135623730951
  0
SEQEND
  5
5F4
  8
0
  0
POLYLINE
  5
125
  8
0
 66
     1
 10
0.0
 20
0.0
 30
0.0
 70
     1
  0
VERTEX
  5
517
  8
0
 10
7.703659226597905
 20
-5.539055537749644
 30
0.0
 42
0.4142135623730951
  0
VERTEX
  5
518
  8
0
 10
8.266159226595652
 20
-4.976555537751893
 30
0.0
 42
0.4142135623730951
  0
VERTEX
  5
519
  8
0
 10
7.703659226597905
 20
-4.414055537754145
 30
0.0
 42
0.4142135623730951
  0
VERTEX
  5
51A
  8
0
 10
7.141159226600154
 20
-4.976555537751893
 30
0.0
 42
0.4142135623730951
  0
SEQEND
  5
5F5
  8
0
  0
POLYLINE
  5
126
  8
0
 66
     1
 10
0.0
 20
0.0
 30
0.0
 70
     1
  0
VERTEX
  5
51B
  8
0
 10
7.878675354762768
 20
-6.681787604654779
 30
0.0
 42
0.200275232210231
  0
VERTEX
  5
51C
  8
0
 10
7.686123413393032
 20
-6.681787604654779
 30
0.0
 42
0.3024867688638771
  0
VERTEX
  5
51D
  8
0
 10
6.782399419097038
 20
-8.037373596098771
 30
0.0
 42
0.1107700595863796
  0
VERTEX
  5
51E
  8
0
 10
6.806291608862617
 20
-8.144160841757952
 30
0.0
 42
-0.2652072234382152
  0
VERTEX
  5
51F
  8
0
 10
6.573884227483331
 20
-11.12819578199024
 30
0.0
 42
0.4717097097040647
  0
VERTEX
  5
520
  8
0
 10
6.697908065171275
 20
-11.55102645428713
 30
0.0
 42
0.4717097097040644
  0
VERTEX
  5
521
  8
0
 10
7.08925288453103
 20
-11.34850010511209
 30
0.0
 42
-0.8079016387229581
  0
VERTEX
  5
522
  8
0
 10
8.47554588362477
 20
-11.34850010511209
 30
0.0
 42
0.4717097097040654
  0
VERTEX
  5
523
  8
0
 10
8.866890702984525
 20
-11.55102645428713
 30
0.0
 42
0.4717097097040643
  0
VERTEX
  5
524
  8
0
 10
8.990914540672472
 20
-11.12819578199024
 30
0.0
 42
-0.2652072234382151
  0
VERTEX
  5
525
  8
0
 10
8.758507159293183
 20
-8.144160841757952
 30
0.0
 42
0.1107700595863799
  0
VERTEX
  5
526
  8
0
 10
8.782399349058762
 20
-8.037373596098771
 30
0.0
 42
0.302486768863877
  0
SEQEND
  5
5F6
  8
0
  0
POLYLINE
  5
127
  8
0
 66
     1
 10
0.0
 20
0.0
 30
0.0
 70
     1
  0
VERTEX
  5
527
  8
0
 10
6.810127559950287
 20
-11.19050591225149
 30
0.0
 42
0.4142135623730951
  0
VERTEX
  5
528
  8
0
 10
6.712127559950678
 20
-11.2885059122511
 30
0.0
 42
0.4142135623730951
  0
VERTEX
  5
529
  8
0
 10
6.810127559950287
 20
-11.3865059122507
 30
0.0
 42
0.4142135623730951
  0
VERTEX
  5
52A
  8
0
 10
6.908127559949895
 20
-11.2885059122511
 30
0.0
 42
0.4142135623730951
  0
SEQEND
  5
5F7
  8
0
  0
POLYLINE
  5
128
  8
0
 66
     1
 10
0.0
 20
0.0
 30
0.0
 70
     1
  0
VERTEX
  5
52B
  8
0
 10
8.754671208205513
 20
-11.19050591225149
 30
0.0
 42
0.4142135623730951
  0
VERTEX
  5
52C
  8
0
 10
8.656671208205905
 20
-11.2885059122511
 30
0.0
 42
0.4142135623730951
  0
VERTEX
  5
52D
  8
0
 10
8.754671208205513
 20
-11.3865059122507
 30
0.0
 42
0.4142135623730951
  0
VERTEX
  5
52E
  8
0
 10
8.852671208205122
 20
-11.2885059122511
 30
0.0
 42
0.4142135623730951
  0
SEQEND
  5
5F8
  8
0
  0
POLYLINE
  5
129
  8
0
 66
     1
 10
0.0
 20
0.0
 30
0.0
 70
     1
  0
VERTEX
  5
52F
  8
0
 10
7.032399384080902
 20
-7.937505912264502
 30
0.0
 42
0.4142135623730951
  0
VERTEX
  5
530
  8
0
 10
6.932399384081299
 20
-8.037505912264102
 30
0.0
 42
0.4142135623730951
  0
VERTEX
  5
531
  8
0
 10
7.032399384080902
 20
-8.137505912263702
 30
0.0
 42
0.4142135623730951
  0
VERTEX
  5
532
  8
0
 10
7.132399384080498
 20
-8.037505912264102
 30
0.0
 42
0.4142135623730951
  0
SEQEND
  5
5F9
  8
0
  0
POLYLINE
  5
12A
  8
0
 66
     1
 10
0.0
 20
0.0
 30
0.0
 70
     1
  0
VERTEX
  5
533
  8
0
 10
8.532399384074898
 20
-7.937505912264502
 30
0.0
 42
0.4142135623730951
  0
VERTEX
  5
534
  8
0
 10
8.432399384075302
 20
-8.037505912264102
 30
0.0
 42
0.4142135623730951
  0
VERTEX
  5
535
  8
0
 10
8.532399384074898
 20
-8.137505912263702
 30
0.0
 42
0.4142135623730951
  0
VERTEX
  5
536
  8
0
 10
8.632399384074501
 20
-8.037505912264102
 30
0.0
 42
0.4142135623730951
  0
SEQEND
  5
5FA
  8
0
  0
POLYLINE
  5
12B
  8
0
 66
     1
 10
0.0
 20
0.0
 30
0.0
 70
     1
  0
VERTEX
  5
537
  8
0
 10
7.7823993840779
 20
-6.812505912269002
 30
0.0
 42
0.4142135623730951
  0
VERTEX
  5
538
  8
0
 10
7.6823993840783
 20
-6.912505912268601
 30
0.0
 42
0.4142135623730951
  0
VERTEX
  5
539
  8
0
 10
7.7823993840779
 20
-7.012505912268201
 30
0.0
 42
0.4142135623730951
  0
VERTEX
  5
53A
  8
0
 10
7.8823993840775
 20
-6.912505912268601
 30
0.0
 42
0.4142135623730951
  0
SEQEND
  5
5FB
  8
0
  0
POLYLINE
  5
12C
  8
0
 66
     1
 10
0.0
 20
0.0
 30
0.0
 70
     1
  0
VERTEX
  5
53B
  8
0
 10
7.7823993840779
 20
-7.225005912267351
 30
0.0
 42
0.4142135623730951
  0
VERTEX
  5
53C
  8
0
 10
7.219899384080149
 20
-7.787505912265102
 30
0.0
 42
0.4142135623730951
  0
VERTEX
  5
53D
  8
0
 10
7.7823993840779
 20
-8.350005912262851
 30
0.0
 42
0.4142135623730951
  0
VERTEX
  5
53E
  8
0
 10
8.344899384075651
 20
-7.787505912265102
 30
0.0
 42
0.4142135623730951
  0
SEQEND
  5
5FC
  8
0
  0
ENDSEC
  0
EOF
